<?xml version="1.0" encoding="utf-8"?>
<!-- Generator: Adobe Illustrator 23.0.1, SVG Export Plug-In . SVG Version: 6.00 Build 0)  -->
<svg version="1.1" id="圖層_1" xmlns="http://www.w3.org/2000/svg" xmlns:xlink="http://www.w3.org/1999/xlink" x="0px" y="0px"
	 viewBox="0 0 1060.6 450.8" style="enable-background:new 0 0 1060.6 450.8;" xml:space="preserve">
<style type="text/css">
	.st0{fill-rule:evenodd;clip-rule:evenodd;fill:#EAEAEA;}
	.st1{fill-rule:evenodd;clip-rule:evenodd;fill:#ADAEAE;}
	.st2{fill-rule:evenodd;clip-rule:evenodd;fill:#2A3958;}
	.st3{fill-rule:evenodd;clip-rule:evenodd;fill:#546179;}
	.st4{fill-rule:evenodd;clip-rule:evenodd;fill:#DCDCDC;}
	.st5{fill-rule:evenodd;clip-rule:evenodd;fill:#FFFFFF;}
	.st6{fill-rule:evenodd;clip-rule:evenodd;fill:#3B4EF2;}
	.st7{fill-rule:evenodd;clip-rule:evenodd;fill:#2BD8BC;}
	.st8{fill-rule:evenodd;clip-rule:evenodd;fill:#FCD740;}
	.st9{fill-rule:evenodd;clip-rule:evenodd;fill:#0086F4;}
	.st10{fill-rule:evenodd;clip-rule:evenodd;fill:#F37C18;}
	.st11{fill-rule:evenodd;clip-rule:evenodd;fill:#22A851;}
	.st12{fill:none;stroke:#202D45;stroke-linecap:round;stroke-linejoin:round;}
	.st13{fill:none;stroke:#2BD8BC;stroke-width:2;}
	.st14{fill-rule:evenodd;clip-rule:evenodd;fill:#2BD8BC;stroke:#2BD8BC;stroke-width:2;}
</style>
<path class="st0" d="M259.7,88v161.6c0,3.3,2.9,5.9,6.4,5.9h265.3c3.5,0,6.4-2.6,6.4-5.9V88c0-0.1,0-0.2,0-0.3c-0.2-4.3-4-7.8-8.7-8
	c-0.1,0-0.2,0-0.4,0H268.8c-0.1,0-0.2,0-0.4,0c-4.7,0.2-8.5,3.7-8.7,8C259.7,87.8,259.7,87.9,259.7,88z"/>
<path class="st1" d="M390.2,243.2c-2.6-3.3-1.8-8,1.8-10.3c3.6-2.4,8.6-1.6,11.2,1.7c2.6,3.3,1.8,7.9-1.8,10.3
	C397.8,247.3,392.8,246.5,390.2,243.2z"/>
<path class="st2" d="M537.7,88v135.1h-278V88c0-4.6,4.1-8.4,9.1-8.4h259.9C533.6,79.6,537.7,83.4,537.7,88z"/>
<path class="st3" d="M528.7,93.5v117.7c0,2.5-2.2,4.6-5,4.6H271.6c-2.7,0-5-2-5-4.6V93.5c0-2.5,2.2-4.6,5-4.6h252.1
	C526.5,88.9,528.7,90.9,528.7,93.5z"/>
<path class="st4" d="M368.7,297.2h56l-7.6-41.7h-40.8L368.7,297.2z"/>
<path class="st5" d="M266.7,108.3h262V93c0-2.3-2-4.1-4.5-4.1H271.1c-2.5,0-4.5,1.8-4.5,4.1V108.3z"/>
<path class="st6" d="M303.7,99.1c0-1.5,1.3-2.8,3-2.8s3,1.2,3,2.8c0,1.5-1.3,2.8-3,2.8S303.7,100.6,303.7,99.1z"/>
<path class="st7" d="M291.7,99.1c0-1.5,1.3-2.8,3-2.8c1.7,0,3,1.2,3,2.8c0,1.5-1.3,2.8-3,2.8C293,101.8,291.7,100.6,291.7,99.1z"/>
<path class="st8" d="M280.7,99.1c0-1.5,1.3-2.8,3-2.8s3,1.2,3,2.8c0,1.5-1.3,2.8-3,2.8S280.7,100.6,280.7,99.1z"/>
<path class="st9" d="M510.7,127.8h-14v-5.6h14V127.8z"/>
<path class="st10" d="M488.7,127.8h-26v-5.6h26V127.8z"/>
<path class="st5" d="M500.7,138h-54v-5.6h54V138z"/>
<path class="st7" d="M438.7,138h-14v-5.6h14V138z"/>
<path class="st5" d="M500.7,149.1h-54v-5.6h54V149.1z"/>
<path class="st7" d="M438.7,149.1h-14v-5.6h14V149.1z"/>
<path class="st5" d="M500.7,159.2h-54v-5.6h54V159.2z"/>
<path class="st7" d="M438.7,159.2h-14v-5.6h14V159.2z"/>
<path class="st9" d="M510.7,169.4h-14v-5.6h14V169.4z"/>
<path class="st8" d="M488.7,169.4h-26v-5.6h26V169.4z"/>
<path class="st7" d="M500.7,180.5h-27V175h27V180.5z"/>
<path class="st5" d="M465.7,180.5h-41V175h41V180.5z"/>
<path class="st7" d="M500.7,190.7h-27v-5.6h27V190.7z"/>
<path class="st5" d="M465.7,190.7h-41v-5.6h41V190.7z"/>
<path class="st7" d="M500.7,200.9h-27v-5.6h27V200.9z"/>
<path class="st5" d="M465.7,200.9h-41v-5.6h41V200.9z"/>
<path class="st10" d="M374.7,127.8h-14v-5.6h14V127.8z"/>
<path class="st11" d="M351.7,127.8h-26v-5.6h26V127.8z"/>
<path class="st5" d="M364.7,138h-13v-5.6h13V138z"/>
<path class="st7" d="M343.7,138h-57v-5.6h57V138z"/>
<path class="st5" d="M364.7,149.1h-13v-5.6h13V149.1z"/>
<path class="st9" d="M343.7,149.1h-57v-5.6h57V149.1z"/>
<path class="st5" d="M364.7,159.2h-13v-5.6h13V159.2z"/>
<path class="st7" d="M343.7,159.2h-57v-5.6h57V159.2z"/>
<path class="st8" d="M374.7,169.4h-14v-5.6h14V169.4z"/>
<path class="st11" d="M351.7,169.4h-26v-5.6h26V169.4z"/>
<path class="st7" d="M364.7,180.5h-45V175h45V180.5z"/>
<path class="st5" d="M311.7,180.5h-24V175h24V180.5z"/>
<path class="st11" d="M364.7,190.7h-45v-5.6h45V190.7z"/>
<path class="st5" d="M311.7,190.7h-24v-5.6h24V190.7z"/>
<path class="st7" d="M364.7,200.9h-45v-5.6h45V200.9z"/>
<path class="st5" d="M311.7,200.9h-24v-5.6h24V200.9z"/>
<path class="st12" d="M398.7,119.4v88.9"/>
<path class="st5" d="M283.7,53.7c-2.3,0-4.2-1.8-4-3.9c0,0,0-0.1,0-0.1c0.3-2.7,3-5.2,6.1-5.4c0.7,0,1.5,0,2.1,0.2
	c0.2-9.8,9-17.7,19.8-17.7c9.5,0,17.5,6.1,19.4,14.2c1-0.3,2-0.4,3.1-0.4c5.2,0.1,9.5,4,9.5,8.7c0,0.4,0,0.8-0.1,1.2
	c-0.3,1.8-2,3.2-4,3.2H283.7z"/>
<path class="st10" d="M302.6,60.1l-0.1-12.8l13.2-0.1l0.1,12.8l7.9,0l-7.2,8l-7.2,8L302,68l-7.3-7.9L302.6,60.1z"/>
<path class="st2" d="M280.5,305.5h-6.9l19.1-98.1h6.9L280.5,305.5z"/>
<path class="st2" d="M309.5,305.5h-6.9l19.1-98.1h6.9L309.5,305.5z"/>
<path class="st2" d="M276.7,291.6l1.2-6.5h35.8l-1.2,6.5H276.7z"/>
<path class="st2" d="M280.7,270.4l1.2-6.5h35.8l-1.2,6.5H280.7z"/>
<path class="st2" d="M285.7,249.1l1.1-6.5h31.9l-1.1,6.5H285.7z"/>
<path class="st2" d="M289.7,227.8l1.1-6.5h31.9l-1.1,6.5H289.7z"/>
<path class="st13" d="M437.7,35.2h-19.7c-4.6,0-8.3,3.4-8.3,7.7v52.5"/>
<path class="st14" d="M437.7,35.2c0-2,1.8-3.7,4-3.7c2.2,0,4,1.7,4,3.7s-1.8,3.7-4,3.7C439.5,38.9,437.7,37.2,437.7,35.2z"/>
<path class="st14" d="M405.7,99.1c0-2,1.8-3.7,4-3.7c2.2,0,4,1.7,4,3.7c0,2-1.8,3.7-4,3.7C407.5,102.8,405.7,101.1,405.7,99.1z"/>
</svg>
