<?xml version="1.0" encoding="utf-8"?>
<!-- Generator: Adobe Illustrator 23.0.1, SVG Export Plug-In . SVG Version: 6.00 Build 0)  -->
<svg version="1.1" id="圖層_1" xmlns="http://www.w3.org/2000/svg" xmlns:xlink="http://www.w3.org/1999/xlink" x="0px" y="0px"
	 viewBox="0 0 1060.6 450.8" style="enable-background:new 0 0 1060.6 450.8;" xml:space="preserve">
<style type="text/css">
	.st0{fill:#F37C18;}
	.st1{fill-rule:evenodd;clip-rule:evenodd;fill:#0086F4;}
	.st2{fill-rule:evenodd;clip-rule:evenodd;fill:#F1F1F1;}
	.st3{opacity:0.6114;}
	.st4{fill:#4A4A4A;}
	.st5{fill:#FEDA17;}
</style>
<path class="st0" d="M7.7,138.9c0.4,0.4,1.1,0.4,1.5,0l3.1-2.9c0.4-0.4,0.4-1,0-1.4c-0.4-0.4-1.1-0.4-1.5,0l-3.1,2.9
	C7.3,137.8,7.3,138.5,7.7,138.9z"/>
<path class="st0" d="M7.7,141.5c-0.4,0.4-0.4,1,0,1.4l3.1,2.9c0.4,0.4,1.1,0.4,1.5,0c0.4-0.4,0.4-1,0-1.4l-3.1-2.9
	C8.9,141.1,8.2,141.1,7.7,141.5z"/>
<path class="st0" d="M5,141.5c-0.4-0.4-1.1-0.4-1.5,0l-3.1,2.9c-0.4,0.4-0.4,1,0,1.4c0.4,0.4,1.1,0.4,1.5,0l3.1-2.9
	C5.4,142.6,5.4,141.9,5,141.5z"/>
<path class="st0" d="M4.9,138.9c0.4-0.4,0.4-1,0-1.4l-3.1-2.9c-0.4-0.4-1.1-0.4-1.5,0s-0.4,1,0,1.4l3.1,2.9
	C3.8,139.3,4.5,139.3,4.9,138.9z"/>
<path class="st1" d="M498.4,18.5H518c5.9,0,10.7,4.5,10.7,10.1v13.1c0,4.4-3,8.2-7.2,9.6l-0.3,7l-9.6-6.5h-13.1
	c-5.9,0-10.7-4.5-10.7-10.1V28.6C487.7,23,492.5,18.5,498.4,18.5z"/>
<path class="st2" d="M473,4.6h22.4c6.8,0,12.3,5.1,12.3,11.3v14.6c0,6.2-5.5,11.3-12.3,11.3h-15l-11,7.2l-0.4-7.8
	c-4.8-1.5-8.3-5.7-8.3-10.7V15.9C460.7,9.7,466.2,4.6,473,4.6z"/>
<g class="st3">
	<path class="st4" d="M476.4,28.7c-0.3,0-0.6-0.1-0.9-0.3l-5.5-4.5c-0.5-0.4-0.5-1,0-1.4l5.5-4.5c0.5-0.4,1.3-0.4,1.8,0
		c0.5,0.4,0.5,1,0,1.4l-4.6,3.8l4.6,3.8c0.5,0.4,0.5,1,0,1.4C477.1,28.6,476.8,28.7,476.4,28.7z"/>
	<path class="st4" d="M491.9,28.7c-0.3,0-0.6-0.1-0.9-0.3c-0.5-0.4-0.5-1,0-1.4l4.6-3.8l-4.6-3.8c-0.5-0.4-0.5-1,0-1.4
		c0.5-0.4,1.3-0.4,1.8,0l5.5,4.5c0.5,0.4,0.5,1,0,1.4l-5.5,4.5C492.6,28.6,492.2,28.7,491.9,28.7z"/>
	<path class="st4" d="M481.6,27.8c-0.1,0-0.3,0-0.4-0.1c-0.5-0.2-0.6-0.8-0.4-1.2l4.1-7.5c0.2-0.4,0.8-0.6,1.3-0.4
		c0.5,0.2,0.6,0.8,0.4,1.2l-4.1,7.5C482.3,27.6,482,27.8,481.6,27.8z"/>
</g>
<path class="st0" d="M698.8,160.3c-0.5,0.5-1.4,0.5-1.9,0l-3.8-3.6c-0.5-0.5-0.5-1.3,0-1.8c0.5-0.5,1.4-0.5,1.9,0l3.8,3.6
	C699.3,159,699.3,159.8,698.8,160.3z"/>
<path class="st0" d="M698.8,163.5c0.5,0.5,0.5,1.3,0,1.8l-3.8,3.6c-0.5,0.5-1.4,0.5-1.9,0c-0.5-0.5-0.5-1.3,0-1.8l3.8-3.6
	C697.4,163,698.2,163,698.8,163.5z"/>
<path class="st0" d="M702.2,163.6c0.5-0.5,1.4-0.5,1.9,0l3.8,3.6c0.5,0.5,0.5,1.3,0,1.8c-0.5,0.5-1.4,0.5-1.9,0l-3.8-3.6
	C701.6,164.8,701.6,164,702.2,163.6z"/>
<path class="st0" d="M702.2,160.4c-0.5-0.5-0.5-1.3,0-1.8l3.8-3.6c0.5-0.5,1.4-0.5,1.9,0s0.5,1.3,0,1.8l-3.8,3.6
	C703.6,160.9,702.7,160.9,702.2,160.4z"/>
<path class="st5" d="M88.2,433.9c-1,0.4-2.2,0-2.6-0.9l-3.4-6.8c-0.5-0.9,0-2,1-2.5c1-0.4,2.2,0,2.6,0.9l3.4,6.8
	C89.7,432.4,89.2,433.5,88.2,433.9z"/>
<path class="st5" d="M86.5,438.3c0.5,0.9,0,2-1,2.5l-7.3,3.2c-1,0.4-2.2,0-2.6-0.9c-0.5-0.9,0-2,1-2.5l7.3-3.2
	C84.9,437,86,437.4,86.5,438.3z"/>
<path class="st5" d="M91,440.5c1-0.4,2.2,0,2.6,0.9l3.4,6.8c0.5,0.9,0,2-1,2.5c-1,0.4-2.2,0-2.6-0.9l-3.4-6.8
	C89.5,442,90,440.9,91,440.5z"/>
<path class="st5" d="M92.9,435.5c-0.5-0.9,0-2,1-2.5l7.3-3.2c1-0.4,2.2,0,2.6,0.9c0.5,0.9,0,2-1,2.5l-7.3,3.2
	C94.5,436.8,93.4,436.4,92.9,435.5z"/>
</svg>
