<?xml version="1.0" encoding="utf-8"?>
<!-- Generator: Adobe Illustrator 23.0.1, SVG Export Plug-In . SVG Version: 6.00 Build 0)  -->
<svg version="1.1" id="圖層_1" xmlns="http://www.w3.org/2000/svg" xmlns:xlink="http://www.w3.org/1999/xlink" x="0px" y="0px"
	 viewBox="0 0 1060.6 450.8" style="enable-background:new 0 0 1060.6 450.8;" xml:space="preserve">
<style type="text/css">
	.st0{fill:#4F5FFF;}
	.st1{fill-rule:evenodd;clip-rule:evenodd;fill:#FFFFFF;}
	.st2{fill-rule:evenodd;clip-rule:evenodd;fill:#FCD740;}
	.st3{fill-rule:evenodd;clip-rule:evenodd;fill:#F69C50;}
	.st4{fill-rule:evenodd;clip-rule:evenodd;fill:#F37C18;}
	.st5{fill:#2BD8BC;}
</style>
<path class="st0" d="M146.2,221.8c0.5,0.5,1.4,0.5,2,0l4.1-3.8c0.5-0.5,0.5-1.4,0-1.9c-0.5-0.5-1.4-0.5-2,0l-4.1,3.8
	C145.6,220.4,145.6,221.3,146.2,221.8z"/>
<path class="st0" d="M146.2,225.2c-0.5,0.5-0.5,1.4,0,1.9l4.1,3.8c0.5,0.5,1.4,0.5,2,0c0.5-0.5,0.5-1.4,0-1.9l-4.1-3.8
	C147.7,224.7,146.8,224.7,146.2,225.2z"/>
<path class="st0" d="M142.6,225.2c-0.5-0.5-1.4-0.5-2,0l-4.1,3.8c-0.5,0.5-0.5,1.4,0,1.9c0.5,0.5,1.4,0.5,2,0l4.1-3.8
	C143.2,226.6,143.2,225.7,142.6,225.2z"/>
<path class="st0" d="M142.6,221.8c0.5-0.5,0.5-1.4,0-1.9l-4.1-3.8c-0.5-0.5-1.4-0.5-2,0c-0.5,0.5-0.5,1.4,0,1.9l4.1,3.8
	C141.1,222.4,142,222.4,142.6,221.8z"/>
<path class="st1" d="M133.6,200.1c0.3,0.3,0.9,0.3,1.2,0l2.5-2.4c0.3-0.3,0.3-0.8,0-1.2c-0.3-0.3-0.9-0.3-1.2,0l-2.5,2.4
	C133.3,199.2,133.3,199.8,133.6,200.1z"/>
<path class="st1" d="M133.7,202.2c-0.3,0.3-0.3,0.8,0,1.2l2.5,2.4c0.3,0.3,0.9,0.3,1.2,0c0.3-0.3,0.3-0.8,0-1.2l-2.5-2.4
	C134.6,201.9,134,201.9,133.7,202.2z"/>
<path class="st1" d="M131.4,202.2c-0.3-0.3-0.9-0.3-1.2,0l-2.5,2.4c-0.3,0.3-0.3,0.8,0,1.2c0.3,0.3,0.9,0.3,1.2,0l2.5-2.4
	C131.8,203.1,131.8,202.5,131.4,202.2z"/>
<path class="st1" d="M131.4,200.1c0.3-0.3,0.3-0.8,0-1.2l-2.5-2.4c-0.3-0.3-0.9-0.3-1.2,0c-0.3,0.3-0.3,0.8,0,1.2l2.5,2.4
	C130.5,200.4,131,200.4,131.4,200.1z"/>
<path class="st2" d="M570.7,219.4c5,0,9-3.7,9-8.3c0-4.6-4-8.3-9-8.3s-9,3.7-9,8.3C561.7,215.7,565.7,219.4,570.7,219.4z
	 M556.7,213.7v-5.3l3.5-0.5c0.2-0.5,0.4-1,0.7-1.5l-2-2.6l4-3.7l2.9,1.9c0.5-0.2,1-0.4,1.6-0.6l0.6-3.2h2.8h2.8l0.6,3.2
	c0.5,0.2,1.1,0.4,1.6,0.6l2.9-1.9l4,3.7l-2,2.6c0.3,0.5,0.5,1,0.7,1.5l3.5,0.5v5.3l-3.5,0.5c-0.2,0.5-0.4,1-0.7,1.5l2,2.6l-4,3.7
	l-2.9-1.9c-0.5,0.2-1,0.4-1.6,0.6l-0.6,3.2h-2.8h-2.8l-0.6-3.2c-0.5-0.2-1.1-0.4-1.6-0.6l-2.9,1.9l-4-3.7l2-2.6
	c-0.3-0.5-0.5-1-0.7-1.5L556.7,213.7z"/>
<path class="st3" d="M586,236l-4.8,4.6c-1.3,1.2-1.3,3.2,0,4.4c1.3,1.2,3.4,1.2,4.6,0l4.9-4.7c1.8,3.5,1.2,7.8-1.8,10.7
	c-2.8,2.6-6.7,3.3-10.2,2.2l-12.8,12.2c-1.6,1.5-4.2,1.7-5.9,0.2c-1.7-1.5-1.7-4.1-0.1-5.7l12.9-12.3c-1.2-3.3-0.5-7.1,2.3-9.7
	C578,235.1,582.4,234.4,586,236z"/>
<path class="st2" d="M206.9,232.4h18.5c5.1,0,9.2,3.7,9.2,8.3v16.7c0,4.6-4.1,8.3-9.2,8.3h-18.5c-5.1,0-9.2-3.7-9.2-8.3v-16.7
	C197.7,236.1,201.8,232.4,206.9,232.4z"/>
<path class="st4" d="M217.2,250.9h-2.5l0.5-2.8h2.5L217.2,250.9z M223.3,247.7c0.8,0,1.4-0.6,1.4-1.3v0c0-0.7-0.6-1.3-1.4-1.3h-1.4
	l0.4-1.8c0.2-0.8-0.5-1.6-1.4-1.6c-0.7,0-1.3,0.5-1.4,1.1l-0.4,2.3H216l0.4-1.8c0.2-0.8-0.5-1.6-1.4-1.6c-0.7,0-1.3,0.5-1.4,1.1
	l-0.4,2.3h-3c-0.8,0-1.4,0.6-1.4,1.3v0c0,0.7,0.6,1.3,1.4,1.3h2.5l-0.5,2.7h-1.9c-0.8,0-1.4,0.6-1.4,1.3v0c0,0.7,0.6,1.3,1.4,1.3
	h1.4l-0.4,1.8c-0.2,0.8,0.5,1.6,1.4,1.6c0.7,0,1.3-0.5,1.4-1.1l0.4-2.3h2.9l-0.4,1.8c-0.2,0.8,0.5,1.6,1.4,1.6
	c0.7,0,1.3-0.5,1.4-1.1l0.4-2.3h3c0.8,0,1.4-0.6,1.4-1.3v0c0-0.7-0.6-1.3-1.4-1.3h-2.5l0.5-2.7H223.3z"/>
<path class="st5" d="M611.3,415.1c0.5,0.4,1.2,0.4,1.6,0l3.3-3.1c0.5-0.4,0.5-1.1,0-1.5c-0.5-0.4-1.2-0.4-1.6,0l-3.3,3.1
	C610.9,414,610.9,414.7,611.3,415.1z"/>
<path class="st5" d="M611.4,417.9c-0.5,0.4-0.5,1.1,0,1.5l3.3,3.1c0.5,0.4,1.2,0.4,1.6,0c0.5-0.4,0.5-1.1,0-1.5l-3.3-3.1
	C612.6,417.5,611.8,417.5,611.4,417.9z"/>
<path class="st5" d="M608.4,418c-0.5-0.4-1.2-0.4-1.6,0l-3.3,3.1c-0.5,0.4-0.5,1.1,0,1.5c0.5,0.4,1.2,0.4,1.6,0l3.3-3.1
	C608.8,419.1,608.8,418.4,608.4,418z"/>
<path class="st5" d="M608.3,415.2c0.5-0.4,0.5-1.1,0-1.5l-3.3-3.1c-0.5-0.4-1.2-0.4-1.6,0c-0.5,0.4-0.5,1.1,0,1.5l3.3,3.1
	C607.2,415.6,607.9,415.6,608.3,415.2z"/>
<path class="st1" d="M223.6,72.3c0.3,0.3,0.9,0.3,1.2,0l2.5-2.4c0.3-0.3,0.3-0.8,0-1.2c-0.3-0.3-0.9-0.3-1.2,0l-2.5,2.4
	C223.3,71.5,223.3,72,223.6,72.3z"/>
<path class="st1" d="M223.7,74.4c-0.3,0.3-0.3,0.8,0,1.2l2.5,2.4c0.3,0.3,0.9,0.3,1.2,0c0.3-0.3,0.3-0.8,0-1.2l-2.5-2.4
	C224.6,74.1,224,74.1,223.7,74.4z"/>
<path class="st1" d="M221.4,74.4c-0.3-0.3-0.9-0.3-1.2,0l-2.5,2.4c-0.3,0.3-0.3,0.8,0,1.2c0.3,0.3,0.9,0.3,1.2,0l2.5-2.4
	C221.8,75.3,221.8,74.8,221.4,74.4z"/>
<path class="st1" d="M221.4,72.3c0.3-0.3,0.3-0.8,0-1.2l-2.5-2.4c-0.3-0.3-0.9-0.3-1.2,0c-0.3,0.3-0.3,0.8,0,1.2l2.5,2.4
	C220.5,72.7,221,72.7,221.4,72.3z"/>
<path class="st0" d="M1057.5,15.8L768.3,203.4c-0.9,0.6-1.1,1.7-0.4,2.6l0,0c0.6,0.8,1.9,1.1,2.7,0.5l289.2-187.5
	c0.9-0.6,1.1-1.7,0.4-2.6l0,0C1059.6,15.5,1058.4,15.3,1057.5,15.8z"/>
<path class="st5" d="M564.5,3.6c-0.3,0.3-0.9,0.3-1.2,0L561,1.3c-0.3-0.3-0.3-0.8,0-1.1c0.3-0.3,0.8-0.3,1.2,0l2.4,2.2
	C564.8,2.8,564.8,3.3,564.5,3.6z"/>
<path class="st5" d="M564.5,5.6c0.3,0.3,0.3,0.8,0,1.1l-2.4,2.2c-0.3,0.3-0.9,0.3-1.2,0c-0.3-0.3-0.3-0.8,0-1.1l2.4-2.2
	C563.6,5.3,564.2,5.3,564.5,5.6z"/>
<path class="st5" d="M566.6,5.6c0.3-0.3,0.9-0.3,1.2,0l2.4,2.2c0.3,0.3,0.3,0.8,0,1.1c-0.3,0.3-0.8,0.3-1.2,0l-2.4-2.2
	C566.3,6.4,566.3,5.9,566.6,5.6z"/>
<path class="st5" d="M566.6,3.6c-0.3-0.3-0.3-0.8,0-1.1l2.4-2.2c0.3-0.3,0.9-0.3,1.2,0c0.3,0.3,0.3,0.8,0,1.1l-2.4,2.2
	C567.5,3.9,567,3.9,566.6,3.6z"/>
</svg>
