<svg width="206" height="316" viewBox="0 0 206 316" fill="none" xmlns="http://www.w3.org/2000/svg">
<g clip-path="url(#clip0)">
<path fill-rule="evenodd" clip-rule="evenodd" d="M127.338 281.138C126.684 281.138 126.737 280.903 128.073 280.321C132.97 278.188 130.408 271.524 129.333 269.138C129.333 269.138 130.228 267.887 131.122 266.727H131.381L131.196 267.33C131.767 269.028 133.392 273.894 134.091 276.375C134.305 277.135 134.33 277.38 134.33 277.822C134.33 279.323 131.981 280.01 128.597 280.76C128.367 280.903 128.116 281.015 127.848 281.107C127.649 281.127 127.478 281.138 127.338 281.138Z" fill="#D4ECED"/>
<path fill-rule="evenodd" clip-rule="evenodd" d="M134.33 277.822C134.33 277.38 134.305 277.135 134.091 276.375C133.393 273.894 131.767 269.028 131.196 267.33L131.381 266.727H82.7778L82.9625 267.33C82.3911 269.028 80.7661 273.894 80.068 276.375C79.8536 277.135 79.8286 277.38 79.8286 277.822C79.8286 282.275 100.496 282.822 107.644 283.026C113.755 283.201 118.78 282.345 122.605 281.793C125.173 281.422 127.234 281.611 128.597 280.76C131.982 280.01 134.33 279.323 134.33 277.822Z" fill="#C2C3BD"/>
<path fill-rule="evenodd" clip-rule="evenodd" d="M107.85 275.865C118.266 275.849 128.599 274.112 132.843 272.322C132.196 270.315 131.523 268.303 131.196 267.33L131.381 266.727H82.7778L82.9625 267.33C82.6522 268.253 82.0302 270.113 81.415 272.016C85.245 273.936 96.5902 275.882 107.85 275.865Z" fill="#6F6F6D"/>
<path fill-rule="evenodd" clip-rule="evenodd" d="M108.39 315.708C111.066 315.637 117.65 314.945 119.888 313.477C122.432 311.809 126.192 305.685 126.192 305.685L88.3633 304.572C88.3633 304.572 91.6927 311.309 94.297 313.106C97.0966 315.038 104.991 315.798 108.39 315.708Z" fill="#6F6F6C"/>
<path fill-rule="evenodd" clip-rule="evenodd" d="M82.4243 301.603C82.4243 301.603 85.5123 305.036 86.875 305.685C91.4449 307.863 101.339 308.654 106.903 308.654C131.381 308.654 132.493 301.232 132.493 301.232L82.4243 301.603Z" fill="#C2C3BD"/>
<path fill-rule="evenodd" clip-rule="evenodd" d="M134.33 288.58C134.33 288.138 134.305 287.893 134.091 287.133C133.393 284.652 131.767 279.786 131.196 278.088L131.381 277.485H82.7778L82.9625 278.088C82.3911 279.786 80.7661 284.652 80.068 287.133C79.8536 287.893 79.8286 288.138 79.8286 288.58C79.8286 293.033 100.496 293.58 107.644 293.785C113.755 293.959 118.78 293.103 122.605 292.552C125.173 292.181 127.234 292.369 128.597 291.518C131.982 290.769 134.33 290.081 134.33 288.58Z" fill="#C2C3BD"/>
<path fill-rule="evenodd" clip-rule="evenodd" d="M107.85 286.899C118.329 286.883 128.726 285.125 132.921 283.324C132.251 281.237 131.857 280.056 131.516 279.044L122.265 281.491L107.486 283.026L82.5427 279.342C82.2196 280.303 81.9782 281.025 81.3389 283.009C85.0883 284.942 96.5104 286.916 107.85 286.899Z" fill="#6F6F6D"/>
<path fill-rule="evenodd" clip-rule="evenodd" d="M134.33 299.252C134.33 298.808 134.305 298.564 134.091 297.804C133.393 295.323 131.767 290.457 131.196 288.759L131.381 288.156H82.7778L82.9625 288.759C82.3911 290.457 80.7661 295.323 80.068 297.804C79.8536 298.564 79.8286 298.808 79.8286 299.252C79.8286 303.704 100.496 304.251 107.644 304.455C113.755 304.63 118.78 303.774 122.605 303.222C125.173 302.852 127.234 303.04 128.597 302.189C131.982 301.439 134.33 300.752 134.33 299.252Z" fill="#C2C3BD"/>
<path fill-rule="evenodd" clip-rule="evenodd" d="M107.85 297.771C118.329 297.755 128.726 295.997 132.921 294.195C132.251 292.108 131.857 290.928 131.516 289.916L122.265 292.363L107.486 293.898L82.5427 290.214C82.2196 291.175 81.9782 291.897 81.3389 293.881C85.0883 295.814 96.5104 297.788 107.85 297.771Z" fill="#6F6F6D"/>
<path fill-rule="evenodd" clip-rule="evenodd" d="M136.649 251.972C136.649 254.334 123.613 256.248 107.534 256.248C91.4546 256.248 78.4194 254.334 78.4194 251.972C78.4194 249.61 91.4546 247.695 107.534 247.695C123.613 247.695 136.649 249.61 136.649 251.972Z" fill="#7C7D7A"/>
<path fill-rule="evenodd" clip-rule="evenodd" d="M134.861 266.778C134.861 266.416 134.771 258.583 134.624 257.999C133.486 259.925 120.842 262.733 107.85 262.736C94.8156 262.74 81.4333 259.931 80.293 257.999C80.145 258.583 80.0557 266.416 80.0557 266.778C80.0557 268.994 94.019 271.935 107.85 271.914C121.419 271.893 134.861 268.952 134.861 266.778Z" fill="#C2C3BD"/>
<path fill-rule="evenodd" clip-rule="evenodd" d="M134.492 299.989C134.492 299.628 134.403 299.126 134.255 298.542C133.118 300.467 120.474 303.276 107.481 303.279C94.4471 303.282 81.0651 300.473 79.9245 298.542C79.7768 299.126 79.6875 299.628 79.6875 299.989C79.6875 302.205 93.6508 305.147 107.481 305.126C121.05 305.105 134.492 302.163 134.492 299.989Z" fill="#7C7D7A"/>
<path fill-rule="evenodd" clip-rule="evenodd" d="M134.492 289.318C134.492 288.957 134.403 288.455 134.255 287.871C133.118 289.796 120.474 292.605 107.481 292.608C94.4471 292.611 81.0651 289.803 79.9245 287.871C79.7768 288.455 79.6875 288.957 79.6875 289.318C79.6875 291.534 93.6508 294.476 107.481 294.455C121.05 294.434 134.492 291.493 134.492 289.318Z" fill="#7C7D7A"/>
<path fill-rule="evenodd" clip-rule="evenodd" d="M134.492 278.56C134.492 278.199 134.403 277.697 134.255 277.112C133.118 279.038 120.474 281.846 107.481 281.85C94.4471 281.853 81.0651 279.044 79.9245 277.112C79.7768 277.697 79.6875 278.199 79.6875 278.56C79.6875 280.776 93.6508 283.718 107.481 283.697C121.05 283.676 134.492 280.734 134.492 278.56Z" fill="#7C7D7A"/>
<path fill-rule="evenodd" clip-rule="evenodd" d="M107.85 266.141C118.523 266.124 130.256 264.072 134.779 262.139C134.739 260.065 134.687 258.204 134.624 257.953C133.486 259.879 120.842 262.687 107.85 262.69C94.8157 262.694 81.4334 259.885 80.2931 257.953C80.2312 258.197 80.1797 259.976 80.1406 261.988C84.397 263.99 96.6496 266.157 107.85 266.141Z" fill="#6F6F6D"/>
<path fill-rule="evenodd" clip-rule="evenodd" d="M138.697 255.322C138.697 254.937 138.601 251.257 138.443 250.635C137.22 252.687 121.643 256.073 107.674 256.077C93.6599 256.08 77.6864 252.694 76.4597 250.635C76.3012 251.258 76.2046 254.937 76.2046 255.323C76.2046 257.684 92.8033 261.213 107.674 261.19C122.263 261.168 138.697 257.64 138.697 255.322Z" fill="#B3B4AF"/>
<path fill-rule="evenodd" clip-rule="evenodd" d="M138.825 256.247C138.825 255.863 138.729 252.182 138.57 251.56C137.347 253.612 121.643 257.868 107.673 257.871C93.6599 257.874 76.5059 254.488 75.2796 252.429C75.1211 253.052 75.0249 256.732 75.0249 257.117C75.0249 259.479 92.8093 263.405 107.673 262.984C126.326 262.457 138.825 258.565 138.825 256.247Z" fill="#7C7D7A"/>
<path fill-rule="evenodd" clip-rule="evenodd" d="M107.85 271.545C94.2025 271.566 80.4355 268.703 80.073 266.498C80.0613 267.474 80.0557 268.16 80.0557 268.253C80.0557 270.469 94.019 273.411 107.85 273.39C121.419 273.369 134.861 270.427 134.861 268.253C134.861 268.16 134.854 267.475 134.844 266.5C134.481 268.664 121.232 271.525 107.85 271.545Z" fill="#7C7D7A"/>
<path fill-rule="evenodd" clip-rule="evenodd" d="M168.471 166.586C168.237 166.586 167.998 166.541 167.768 166.448L167.678 166.411C165.423 165.491 163.643 164.766 158.307 164.022C157.288 163.88 156.576 162.937 156.718 161.917C156.86 160.897 157.801 160.186 158.821 160.328C164.618 161.136 166.688 161.98 169.085 162.957L169.175 162.994C170.128 163.382 170.586 164.47 170.198 165.424C169.903 166.148 169.206 166.586 168.471 166.586Z" fill="#F4EA45"/>
<path fill-rule="evenodd" clip-rule="evenodd" d="M41.9546 166.87C41.3161 166.87 40.6957 166.538 40.3477 165.945C39.8266 165.057 40.1328 163.909 41.0208 163.387C41.3197 163.212 44.157 161.642 51.6145 160.602C52.6344 160.459 53.5759 161.172 53.7179 162.192C53.86 163.212 53.149 164.154 52.1291 164.296C45.4268 165.23 42.9142 166.6 42.8901 166.614C42.5947 166.788 42.2725 166.87 41.9546 166.87Z" fill="#F4EA45"/>
<path fill-rule="evenodd" clip-rule="evenodd" d="M169.641 165.784C169.641 161.71 141.06 158.408 105.802 158.408C70.5452 158.408 41.9644 161.71 41.9644 165.784C41.9644 169.858 70.5452 173.16 105.802 173.16C141.06 173.16 169.641 169.858 169.641 165.784Z" fill="#8E7230"/>
<path fill-rule="evenodd" clip-rule="evenodd" d="M78.956 119.045C76.5842 118.747 74.42 120.43 74.1223 122.804C73.8257 125.177 75.5087 127.342 77.881 127.639C80.2536 127.936 82.4162 126.253 82.7127 123.88C83.0108 121.506 81.3286 119.342 78.956 119.045Z" fill="#90CDD2"/>
<path fill-rule="evenodd" clip-rule="evenodd" d="M100.922 138.725C98.8988 141.688 94.8584 142.448 91.8984 140.425C88.9375 138.401 88.1783 134.358 90.2005 131.397C92.2235 128.436 96.2646 127.674 99.2235 129.698C102.183 131.722 102.944 135.766 100.922 138.725ZM94.4722 108.656C97.7207 107.135 101.584 108.538 103.105 111.786C104.623 115.036 103.222 118.903 99.975 120.423C96.7285 121.943 92.8616 120.541 91.3419 117.291C89.8247 114.043 91.2265 110.176 94.4722 108.656ZM77.4152 131.371C72.9838 130.816 69.8391 126.771 70.3927 122.337C70.9483 117.903 74.9927 114.758 79.4225 115.313C83.8551 115.868 86.9974 119.913 86.4442 124.347C85.8894 128.781 81.847 131.926 77.4152 131.371ZM75.0333 150.4C71.4778 149.955 68.9543 146.707 69.3981 143.148C69.8435 139.589 73.0908 137.063 76.6479 137.509C80.2047 137.954 82.7286 141.201 82.2828 144.761C81.8374 148.32 78.5933 150.845 75.0333 150.4ZM81.8032 96.2852C85.3611 96.7305 87.885 99.9778 87.4388 103.537C86.9946 107.097 83.7489 109.622 80.1914 109.176C76.6343 108.731 74.1104 105.484 74.5554 101.924C75.0003 98.3648 78.2473 95.8396 81.8032 96.2852ZM62.3639 138.029C59.1166 139.549 55.2509 138.146 53.7317 134.896C52.2136 131.649 53.6134 127.781 56.8623 126.261C60.1092 124.741 63.9749 126.144 65.4942 129.392C67.0138 132.64 65.6113 136.509 62.3639 138.029ZM55.9168 107.958C57.9378 104.997 61.9785 104.236 64.9397 106.26C67.8998 108.284 68.6594 112.327 66.6372 115.287C64.6154 118.25 60.5727 119.011 57.6139 116.987C54.6522 114.962 53.8934 110.92 55.9168 107.958ZM118.775 125.294L114.264 124.73C114.37 122.051 114.183 119.419 113.716 116.869L118.087 115.673C119.725 115.224 120.689 113.532 120.241 111.892C119.795 110.254 118.102 109.288 116.464 109.737L112.085 110.936C111.16 108.429 109.963 106.043 108.523 103.821L112.11 101.03C113.451 99.9875 113.692 98.0536 112.649 96.7128C111.607 95.3715 109.674 95.1295 108.333 96.1721L104.748 98.963C102.967 97.0364 100.974 95.3038 98.7998 93.8003L101.048 89.8549C101.889 88.3788 101.375 86.4993 99.9002 85.658C98.4252 84.8155 96.5454 85.3299 95.7058 86.8056L93.4583 90.7446C91.0836 89.648 88.5553 88.8051 85.9071 88.2427L86.4716 83.7306C86.6832 82.0435 85.4878 80.5054 83.8024 80.2952C82.1178 80.0839 80.5796 81.2799 80.3692 82.9661L79.8043 87.4787C77.1283 87.372 74.4974 87.5588 71.9486 88.0254L70.754 83.6537C70.3058 82.0137 68.6115 81.0488 66.9748 81.4968C65.3365 81.9457 64.3712 83.6376 64.8215 85.2776L66.0188 89.6585C63.5134 90.584 61.1295 91.7803 58.9062 93.2223L56.1184 89.6344C55.0755 88.2927 53.143 88.0507 51.8032 89.0937C50.4614 90.1367 50.2184 92.0702 51.2625 93.4119L54.0507 97.0006C52.1263 98.781 50.3958 100.776 48.8919 102.951L44.9493 100.702C43.4731 99.8595 41.5946 100.374 40.7537 101.85C39.9124 103.325 40.4241 105.205 41.9019 106.047L45.8389 108.294C44.7409 110.671 43.8988 113.2 43.3375 115.848L38.8264 115.284C37.1422 115.073 35.6037 116.269 35.3928 117.955C35.1816 119.641 36.3782 121.18 38.0636 121.391L42.5735 121.955C42.4676 124.633 42.6543 127.266 43.121 129.815L38.7488 131.012C37.1108 131.461 36.148 133.153 36.5938 134.792C37.0424 136.431 38.7343 137.396 40.373 136.948L44.7534 135.749C45.6771 138.256 46.8749 140.642 48.3145 142.864L44.7288 145.655C43.3882 146.697 43.146 148.631 44.1877 149.972C45.2289 151.313 47.163 151.556 48.5048 150.512L52.0893 147.722C53.8709 149.648 55.8641 151.38 58.0379 152.884L55.7884 156.83C54.9463 158.306 55.4605 160.185 56.9383 161.027C58.4109 161.868 60.2882 161.355 61.1316 159.879L63.3766 155.939C65.7529 157.036 68.2816 157.879 70.929 158.442L70.3633 162.954C70.1537 164.64 71.3487 166.178 73.0345 166.389C74.7179 166.6 76.2565 165.404 76.4681 163.718L77.0322 159.206C79.7086 159.312 82.3407 159.125 84.8883 158.659L86.0837 163.031C86.5319 164.671 88.2246 165.636 89.8629 165.187C91.5009 164.739 92.4657 163.046 92.0163 161.406L90.8193 157.026C93.3243 156.1 95.7086 154.904 97.9291 153.462L100.72 157.05C101.761 158.392 103.693 158.633 105.036 157.59C106.375 156.547 106.617 154.614 105.574 153.272L102.787 149.684C104.71 147.904 106.442 145.909 107.945 143.734L111.888 145.983C113.366 146.825 115.244 146.311 116.082 144.835C116.925 143.359 116.413 141.48 114.937 140.638L110.997 138.392C112.096 136.014 112.937 133.485 113.5 130.836L118.011 131.401C119.696 131.612 121.233 130.415 121.445 128.729C121.655 127.044 120.46 125.505 118.775 125.294Z" fill="#0086F4"/>
<path fill-rule="evenodd" clip-rule="evenodd" d="M158.077 132.167C156.169 147.256 142.396 157.942 127.314 156.034C112.231 154.126 101.547 140.344 103.457 125.254C105.021 112.877 114.571 103.478 126.274 101.544L130.363 69.2077L128.409 68.9605C126.709 68.7451 125.501 67.1841 125.715 65.4825C125.932 63.7789 127.489 62.568 129.189 62.7838L148.7 65.2526C150.402 65.4684 151.617 67.0295 151.401 68.7335C151.185 70.4342 149.622 71.6455 147.918 71.4293L145.967 71.1826L141.88 103.519C152.732 108.307 159.643 119.789 158.077 132.167ZM145.068 101.812L148.555 74.2218C151.382 74.1051 153.795 71.9808 154.162 69.0825C154.571 65.8484 152.284 62.8949 149.049 62.4855L129.54 60.0163C126.312 59.6077 123.359 61.8986 122.95 65.1327C122.584 68.0306 124.391 70.689 127.098 71.5062L123.611 99.0964C111.666 101.989 102.164 111.96 100.53 124.883C98.4181 141.591 110.241 156.849 126.944 158.962C143.642 161.076 158.89 149.245 161.003 132.537C162.637 119.613 155.917 107.589 145.068 101.812Z" fill="#364675"/>
<path fill-rule="evenodd" clip-rule="evenodd" d="M130.802 156.255H130.802C129.662 156.255 128.509 156.184 127.348 156.038C127.337 156.037 127.324 156.035 127.314 156.034C119.041 154.987 112.09 150.367 107.816 143.919C107.859 143.857 107.903 143.795 107.946 143.733L111.888 145.983C112.369 146.257 112.894 146.388 113.41 146.388C114.479 146.388 115.517 145.83 116.083 144.835C116.925 143.359 116.413 141.48 114.937 140.638L110.997 138.392C112.096 136.014 112.937 133.485 113.5 130.835L118.011 131.4C118.141 131.417 118.27 131.425 118.397 131.425C119.925 131.425 121.249 130.285 121.445 128.729C121.655 127.043 120.46 125.505 118.775 125.294L114.264 124.729C114.371 122.051 114.183 119.419 113.716 116.869L118.087 115.673C119.725 115.224 120.689 113.531 120.241 111.892C119.869 110.525 118.63 109.627 117.278 109.627C117.01 109.627 116.736 109.662 116.464 109.737L112.085 110.935C111.865 110.338 111.629 109.748 111.378 109.166C115.383 105.199 120.573 102.486 126.274 101.544L130.363 69.2076L128.409 68.9604C126.842 68.762 125.693 67.4199 125.691 65.8781C125.691 65.7477 125.699 65.6156 125.715 65.4824C125.717 65.474 125.717 65.4659 125.719 65.4574C125.719 65.4546 125.719 65.4518 125.72 65.449C125.934 63.8956 127.264 62.7604 128.794 62.7588C128.795 62.7588 128.796 62.7588 128.797 62.7588C128.797 62.7588 128.797 62.7588 128.797 62.7588C128.927 62.7588 129.058 62.7668 129.189 62.7837L148.7 65.2526C150.27 65.4514 151.424 66.7935 151.426 68.3369C151.426 68.4677 151.418 68.6001 151.401 68.7334C151.396 68.7676 151.391 68.8018 151.386 68.8356C151.143 70.3508 149.825 71.4526 148.315 71.4542C148.314 71.4542 148.313 71.4542 148.312 71.4542C148.312 71.4542 148.312 71.4542 148.312 71.4542C148.182 71.4542 148.05 71.4461 147.918 71.4292L145.967 71.1825L141.88 103.519C151.704 107.853 158.298 117.674 158.297 128.678C158.297 129.83 158.225 130.994 158.077 132.166C158.069 132.226 158.061 132.287 158.053 132.346C158.051 132.36 158.05 132.373 158.048 132.386C156.193 146.188 144.396 156.252 130.806 156.255C130.806 156.255 130.803 156.255 130.802 156.255Z" fill="#FFFFFE"/>
<path fill-rule="evenodd" clip-rule="evenodd" d="M113.41 146.388C112.893 146.388 112.369 146.257 111.888 145.983L107.945 143.733C107.903 143.795 107.859 143.857 107.816 143.919C104.907 139.53 103.239 134.295 103.236 128.761C103.235 127.603 103.307 126.433 103.457 125.254C104.259 118.906 107.162 113.342 111.378 109.166C111.629 109.748 111.864 110.338 112.085 110.935L116.464 109.737C116.736 109.663 117.009 109.627 117.278 109.627C118.63 109.627 119.869 110.526 120.24 111.892C120.689 113.531 119.725 115.224 118.087 115.673L113.716 116.869C114.183 119.419 114.37 122.051 114.264 124.73L118.774 125.294C120.46 125.505 121.654 127.043 121.445 128.729C121.249 130.286 119.925 131.425 118.397 131.425C118.269 131.425 118.14 131.417 118.011 131.401L113.5 130.835C112.937 133.485 112.096 136.014 110.997 138.392L114.937 140.638C116.413 141.48 116.924 143.359 116.082 144.835C115.517 145.83 114.479 146.388 113.41 146.388Z" fill="#BEE2E3"/>
<path fill-rule="evenodd" clip-rule="evenodd" d="M130.802 156.255H130.802H130.802ZM130.806 156.255C144.396 156.252 156.192 146.188 158.048 132.386C156.192 146.189 144.396 156.254 130.806 156.255ZM127.347 156.038C127.337 156.037 127.324 156.035 127.313 156.034C113.409 154.274 103.243 142.425 103.236 128.761C103.239 134.295 104.907 139.53 107.816 143.919C112.09 150.367 119.04 154.987 127.313 156.034C127.324 156.035 127.337 156.037 127.347 156.038ZM158.053 132.346C158.061 132.287 158.069 132.226 158.076 132.166C158.225 130.994 158.297 129.83 158.297 128.678C158.297 129.83 158.225 130.994 158.076 132.166C158.069 132.226 158.061 132.287 158.053 132.346ZM141.879 103.519L145.967 71.1825L147.918 71.4292L145.967 71.1825L141.879 103.519ZM148.312 71.4542C148.312 71.4542 148.312 71.4542 148.312 71.4542C148.312 71.4542 148.312 71.4542 148.312 71.4542ZM148.315 71.4542C149.824 71.4526 151.143 70.3508 151.386 68.8356C151.143 70.3512 149.824 71.453 148.315 71.4542ZM130.363 69.2076L128.408 68.9604C126.841 68.762 125.693 67.4199 125.691 65.8781C125.693 67.4199 126.841 68.762 128.408 68.9604L130.363 69.2076ZM151.4 68.7334C151.417 68.6001 151.425 68.4677 151.425 68.3369C151.425 68.4677 151.417 68.6001 151.4 68.7334ZM125.715 65.4824C125.716 65.474 125.717 65.4659 125.718 65.4574C125.717 65.4659 125.716 65.474 125.715 65.4824ZM125.72 65.449C125.933 63.8956 127.264 62.7604 128.794 62.7588C127.264 62.7604 125.933 63.8956 125.72 65.449ZM128.797 62.7588C128.797 62.7588 128.797 62.7588 128.796 62.7588C128.797 62.7588 128.797 62.7588 128.797 62.7588Z" fill="#808BA8"/>
<path fill-rule="evenodd" clip-rule="evenodd" d="M104.369 120.907C103.956 122.307 103.646 123.757 103.457 125.254C101.547 140.344 112.231 154.126 127.314 156.034C142.396 157.943 156.17 147.256 158.077 132.167C158.267 130.67 158.326 129.188 158.274 127.728L104.369 120.907Z" fill="#EDAF2B"/>
<path fill-rule="evenodd" clip-rule="evenodd" d="M148.608 71.4395L127.445 68.7613L127.098 71.5063L148.261 74.1849L148.608 71.4395Z" fill="#364675"/>
<path fill-rule="evenodd" clip-rule="evenodd" d="M198.022 143.511C195.501 146.634 190.926 147.121 187.804 144.599C184.684 142.076 184.195 137.499 186.717 134.375C189.238 131.252 193.812 130.765 196.934 133.288C200.057 135.81 200.544 140.387 198.022 143.511ZM197.42 128.314L196.73 129.169C195.85 128.776 194.935 128.507 194.005 128.365L193.89 127.272C193.776 126.203 192.818 125.428 191.749 125.542L190.159 125.711C189.09 125.825 188.316 126.785 188.429 127.853L188.545 128.947C187.666 129.282 186.828 129.736 186.051 130.307L185.196 129.615C184.359 128.939 183.135 129.07 182.461 129.907L181.454 131.152C180.779 131.988 180.91 133.214 181.746 133.889L182.601 134.581C182.208 135.461 181.94 136.375 181.797 137.306L180.704 137.423C179.636 137.537 178.862 138.496 178.977 139.564L179.145 141.156C179.26 142.227 180.217 143 181.287 142.886L182.377 142.769C182.714 143.649 183.169 144.487 183.738 145.265L183.044 146.121C182.371 146.957 182.502 148.184 183.338 148.859L184.583 149.865C185.419 150.54 186.643 150.409 187.318 149.573L188.01 148.717C188.889 149.11 189.804 149.379 190.734 149.522L190.85 150.615C190.964 151.683 191.923 152.458 192.991 152.343L194.582 152.175C195.651 152.061 196.425 151.101 196.312 150.033L196.195 148.94C197.074 148.604 197.912 148.149 198.689 147.58L199.544 148.271C200.379 148.946 201.605 148.816 202.281 147.98L203.286 146.734C203.961 145.898 203.829 144.673 202.995 143.997L202.138 143.306C202.532 142.425 202.8 141.51 202.943 140.58L204.035 140.463C205.103 140.35 205.878 139.391 205.764 138.322L205.596 136.73C205.48 135.66 204.523 134.886 203.456 135.001L202.362 135.117C202.025 134.237 201.571 133.4 201.001 132.622L201.694 131.765C202.369 130.929 202.237 129.703 201.402 129.028L200.157 128.022C199.322 127.347 198.095 127.477 197.42 128.314Z" fill="#0086F4"/>
<path fill-rule="evenodd" clip-rule="evenodd" d="M175.174 152.666C174.356 155.744 171.197 157.574 168.121 156.755C165.044 155.933 163.214 152.775 164.034 149.697C164.854 146.619 168.011 144.788 171.089 145.608C174.166 146.428 175.994 149.588 175.174 152.666ZM169.836 141.846L169.612 142.69C168.846 142.689 168.098 142.789 167.377 142.986L166.94 142.232C166.513 141.494 165.568 141.242 164.832 141.67L163.732 142.306C162.995 142.734 162.744 143.678 163.17 144.417L163.608 145.172C163.079 145.699 162.618 146.299 162.239 146.963L161.396 146.738C160.572 146.519 159.727 147.009 159.507 147.833L159.18 149.06C158.96 149.885 159.45 150.73 160.275 150.95L161.117 151.175C161.116 151.939 161.217 152.69 161.414 153.41L160.66 153.848C159.921 154.275 159.671 155.22 160.099 155.958L160.733 157.057C161.162 157.795 162.106 158.047 162.843 157.619L163.599 157.181C164.124 157.71 164.724 158.172 165.389 158.551L165.164 159.395C164.945 160.219 165.434 161.066 166.258 161.285L167.485 161.612C168.308 161.831 169.154 161.341 169.374 160.516L169.598 159.673C170.363 159.675 171.111 159.573 171.832 159.377L172.269 160.131C172.697 160.869 173.641 161.121 174.379 160.693L175.477 160.058C176.215 159.629 176.467 158.684 176.039 157.947L175.601 157.191C176.132 156.664 176.591 156.064 176.97 155.4L177.814 155.624C178.638 155.844 179.484 155.354 179.702 154.53L180.031 153.303C180.249 152.478 179.76 151.633 178.935 151.413L178.093 151.187C178.093 150.423 177.993 149.673 177.795 148.952L178.55 148.516C179.287 148.088 179.539 147.143 179.112 146.405L178.476 145.305C178.048 144.567 177.104 144.316 176.366 144.744L175.611 145.181C175.085 144.651 174.486 144.192 173.82 143.811L174.045 142.968C174.265 142.144 173.775 141.298 172.953 141.079L171.726 140.751C170.901 140.532 170.054 141.022 169.836 141.846Z" fill="#0086F4"/>
<path fill-rule="evenodd" clip-rule="evenodd" d="M159.055 81.2848C151.937 85.52 149.597 94.7263 153.83 101.848C158.062 108.97 167.265 111.31 174.383 107.076C181.502 102.84 183.839 93.6337 179.606 86.5119C175.373 79.39 166.174 77.05 159.055 81.2848Z" fill="#FCD740"/>
<path fill-rule="evenodd" clip-rule="evenodd" d="M168.443 94.3596C167.475 97.8376 169.076 101.321 172.02 102.14C174.966 102.961 178.136 100.805 179.105 97.3284C180.072 93.8495 178.468 90.3663 175.525 89.5463C172.58 88.7275 169.409 90.8816 168.443 94.3596Z" fill="#F3F4F1"/>
<path fill-rule="evenodd" clip-rule="evenodd" d="M157.044 82.7188C155.881 83.6982 154.899 84.831 154.106 86.0696C151.555 85.2855 149.884 85.0979 149.585 85.6804C149.28 86.2665 150.422 87.5413 152.577 89.1966C152.922 89.4627 153.29 89.7372 153.687 90.021C156.616 92.1227 160.874 94.6906 165.748 97.2154C169.475 99.1452 173.013 100.765 175.994 101.949C177.017 102.355 177.97 102.707 178.848 103.005C182.028 104.086 184.153 104.425 184.495 103.762C184.836 103.105 183.361 101.585 180.684 99.6339C181.224 98.2495 181.555 96.7923 181.668 95.3097C189.552 100.69 194.239 105.759 192.994 108.165C191.736 110.596 184.755 109.644 175.668 106.219C174.936 105.944 174.193 105.654 173.436 105.346C170.386 104.108 167.15 102.62 163.84 100.906C159.545 98.681 155.626 96.3342 152.287 94.0469C152.101 93.9181 151.917 93.7925 151.735 93.6645C144.261 88.4595 139.875 83.6125 141.085 81.2773C142.28 78.9687 148.63 79.7074 157.044 82.7188Z" fill="#08C5A6"/>
<path fill-rule="evenodd" clip-rule="evenodd" d="M11.9967 98.4753L16.3798 104.256L22.9565 102.783L19.3431 108.969L21.9333 115.271L15.3586 113.495L10.168 117.908L9.82521 111.102L3.92041 107.048L10.4979 105.574L11.9967 98.4753Z" fill="#F8C527"/>
<path fill-rule="evenodd" clip-rule="evenodd" d="M46.4325 156.873C39.7645 157.791 32.896 154.696 29.3244 148.501C24.6231 140.341 27.425 129.908 35.5829 125.201C43.7372 120.505 54.1639 123.306 58.8637 131.46C62.4373 137.66 61.6709 145.157 57.5291 150.473C56.2155 152.158 54.5735 153.626 52.6085 154.76C50.6442 155.89 48.5504 156.582 46.4325 156.873ZM68.6821 169.828L59.7344 154.299C65.811 147.662 67.1914 137.605 62.4611 129.389C56.6146 119.242 43.6523 115.758 33.5068 121.607C23.3677 127.457 19.8851 140.423 25.7291 150.57C30.4647 158.786 39.8546 162.63 48.6418 160.701L50.1767 163.37L57.5911 176.229C58.2272 177.334 59.6435 177.715 60.7507 177.079L67.8336 172.994C68.9388 172.353 69.3198 170.939 68.6821 169.828Z" fill="#3A3A39"/>
<path fill-rule="evenodd" clip-rule="evenodd" d="M37.5273 90.508L40.9557 85.9053L44.3784 81.3134C44.918 80.5896 45.9403 80.4391 46.6642 80.9789C47.3892 81.5207 47.5388 82.5444 47.0013 83.2686L44.5514 86.5534L48.2904 89.3374C50.0016 87.7912 52.6241 87.6161 54.5477 89.05L86.3594 112.771L87.4815 111.269C88.0243 110.543 89.0454 110.394 89.7741 110.933C90.4947 111.476 90.6451 112.5 90.1036 113.226L85.6279 119.233L81.1683 125.222C80.6312 125.947 79.6036 126.097 78.8846 125.555C78.154 125.016 78.0091 123.994 78.5459 123.267L79.8052 121.578L47.9854 97.8597C46.1335 96.4766 45.5372 94.0448 46.3845 92.0007L42.5969 89.1784L40.149 92.4636C39.6087 93.191 38.5835 93.3424 37.8629 92.7985C37.1399 92.2591 36.9878 91.2342 37.5273 90.508Z" fill="#F37C18"/>
<path fill-rule="evenodd" clip-rule="evenodd" d="M72.1742 147.575L89.901 143.778L107.954 139.912C107.954 139.912 127.569 168.473 121.052 169.868C116.675 170.806 106.648 172.953 96.6037 175.105C86.8811 177.187 77.1359 179.274 72.48 180.271C65.966 181.666 72.1742 147.575 72.1742 147.575Z" fill="#546179"/>
<path fill-rule="evenodd" clip-rule="evenodd" d="M72.8693 141.541L104.854 134.691C106.823 134.27 108.765 135.527 109.186 137.5C109.609 139.474 108.352 141.416 106.383 141.837L90.3906 145.262L74.3987 148.688C72.4276 149.11 70.4842 147.853 70.061 145.879C69.6389 143.906 70.8983 141.963 72.8693 141.541Z" fill="#2BD8BC"/>
<path fill-rule="evenodd" clip-rule="evenodd" d="M67.3806 179.576C67.7842 181.463 69.6406 182.665 71.5252 182.262L122.738 171.293C124.626 170.889 125.825 169.033 125.421 167.146C125.017 165.259 123.165 164.057 121.277 164.461L70.0631 175.429C68.1789 175.833 66.9775 177.689 67.3806 179.576Z" fill="#218CC0"/>
<path fill-rule="evenodd" clip-rule="evenodd" d="M139.618 47.1715C139.618 43.935 139.525 39.8733 141.566 37.6766C143.811 35.2613 148.358 34.8676 151.914 34.8676C148.267 34.8676 143.818 34.8105 141.566 32.2861C139.625 30.1115 139.618 25.7085 139.618 22.5638C139.618 25.9452 139.524 30.0612 137.315 32.2861C135.088 34.5303 130.731 34.8676 127.319 34.8676C130.856 34.8676 135.073 35.2851 137.315 37.6766C139.38 39.8781 139.618 43.9157 139.618 47.1715Z" fill="#F8C527"/>
<path fill-rule="evenodd" clip-rule="evenodd" d="M167.331 36.1861C167.331 33.7914 167.262 30.7859 168.775 29.1605C170.435 27.3731 173.799 27.0821 176.431 27.0821C173.73 27.0821 170.439 27.0398 168.775 25.1704C167.337 23.5618 167.331 20.3036 167.331 17.9773C167.331 20.4795 167.262 23.5248 165.628 25.1704C163.978 26.8325 160.755 27.0821 158.231 27.0821C160.848 27.0821 163.967 27.3905 165.628 29.1605C167.154 30.7888 167.331 33.7761 167.331 36.1861Z" fill="#F8C527"/>
<path fill-rule="evenodd" clip-rule="evenodd" d="M113.171 15.4382C113.171 13.3989 113.112 10.8395 114.399 9.45711C115.813 7.93427 118.676 7.6867 120.918 7.6867C118.619 7.6867 115.817 7.65128 114.399 6.06001C113.177 4.68974 113.171 1.91618 113.171 -0.0643539C113.171 2.06593 113.112 4.65914 111.72 6.06001C110.316 7.47335 107.572 7.6867 105.423 7.6867C107.652 7.6867 110.307 7.94997 111.72 9.45711C113.021 10.8431 113.171 13.3864 113.171 15.4382Z" fill="#F8C527"/>
<path fill-rule="evenodd" clip-rule="evenodd" d="M181.695 64.726L169.169 59.7775L176.774 40.5059L189.299 45.4544L181.695 64.726ZM173.753 66.5064C172.961 66.1941 172.572 65.2976 172.883 64.5054C173.197 63.7136 174.092 63.3255 174.884 63.6379C175.676 63.9511 176.065 64.8467 175.752 65.639C175.44 66.4308 174.544 66.8196 173.753 66.5064ZM182.048 40.7011L185.316 41.9913C185.494 42.0625 185.584 42.2666 185.513 42.4474C185.441 42.6277 185.237 42.7159 185.058 42.645L181.791 41.3545C181.611 41.2832 181.522 41.0795 181.593 40.8988C181.665 40.7184 181.868 40.6299 182.048 40.7011ZM190.22 42.4188L178.171 37.6591C177.119 37.2436 175.931 37.7597 175.514 38.8124L166.059 62.7748C165.642 63.8287 166.159 65.0174 167.211 65.4328L179.261 70.193C180.311 70.6084 181.503 70.094 181.919 69.0405L191.375 45.0776C191.791 44.0258 191.271 42.8342 190.22 42.4188Z" fill="#3A3A39"/>
<path fill-rule="evenodd" clip-rule="evenodd" d="M32.5483 70.9198C31.9814 70.9198 31.4302 70.9882 30.9023 71.1138C30.9538 70.7885 30.9892 70.456 30.9892 70.1159C30.9892 66.6693 28.1974 63.876 24.7529 63.876C23.0035 63.876 21.4243 64.5994 20.2913 65.7603C18.9326 63.3108 16.327 61.6475 13.3272 61.6475C8.92391 61.6475 5.35311 65.2205 5.35311 69.6264C5.35311 70.1529 5.40702 70.6666 5.5068 71.1665C2.35525 71.9994 0.0292969 74.8575 0.0292969 78.2715V78.2735H39.6642C39.6674 78.1986 39.6758 78.1258 39.6758 78.0509C39.6758 74.112 36.4841 70.9198 32.5483 70.9198Z" fill="#0086F4"/>
<path fill-rule="evenodd" clip-rule="evenodd" d="M106.925 57.874C111.707 66.3887 112.534 75.0057 108.772 77.1198C105.009 79.2348 98.0841 74.0468 93.3027 65.5317C88.5212 57.017 87.6948 48.4009 91.4555 46.2863C95.2166 44.1713 102.142 49.3598 106.925 57.874Z" fill="#F8C527"/>
<path fill-rule="evenodd" clip-rule="evenodd" d="M103.837 56.1027C107.503 62.6296 108.137 69.2326 105.253 70.8541C102.37 72.4751 97.0615 68.4988 93.397 61.9722C89.7316 55.4457 89.0979 48.8415 91.9807 47.2209C94.8643 45.6002 100.172 49.5766 103.837 56.1027Z" fill="#EB8C30"/>
<path fill-rule="evenodd" clip-rule="evenodd" d="M99.8019 53.3995C102.125 57.534 102.525 61.7185 100.699 62.7458C98.8729 63.7719 95.5097 61.2528 93.1874 57.1178C90.8635 52.9832 90.4627 48.7987 92.2898 47.7718C94.1164 46.7445 97.48 49.2645 99.8019 53.3995Z" fill="#DF5431"/>
<path fill-rule="evenodd" clip-rule="evenodd" d="M92.4474 48.0527C99.4007 44.1439 106.312 41.1598 112.714 39.2811C105.957 29.2629 94.361 27.9237 84.3153 33.5706C74.2695 39.2175 69.3819 49.8235 74.4188 60.8098C79.354 56.3146 85.4961 51.9606 92.4474 48.0527Z" fill="#0086F4"/>
<path fill-rule="evenodd" clip-rule="evenodd" d="M67.3118 22.3647C67.2925 26.9948 68.1688 32.244 71.0017 37.2859C74.1533 42.8974 80.491 52.4012 84.4823 56.264L103.6 45.516C102.379 40.0969 97.5629 29.7377 94.4113 24.1258C91.58 19.0831 87.555 15.6039 83.5923 13.2123C81.731 15.5048 79.2566 17.6122 76.2897 19.2799C73.322 20.9481 70.2369 21.9657 67.3118 22.3647Z" fill="#546179"/>
<path fill-rule="evenodd" clip-rule="evenodd" d="M70.0704 8.2064C70.0704 8.2064 67.3457 14.3585 67.3115 22.3648C70.2366 21.9659 73.3217 20.9482 76.2894 19.2801C79.2563 17.6123 81.7307 15.505 83.592 13.2125C76.7384 9.07751 70.0704 8.2064 70.0704 8.2064Z" fill="#0086F4"/>
<path fill-rule="evenodd" clip-rule="evenodd" d="M91.8721 31.0706C93.9868 34.834 92.6502 39.599 88.8883 41.714C85.1272 43.8289 80.3634 42.4921 78.2503 38.7283C76.136 34.9652 77.4726 30.1995 81.2345 28.0853C84.996 25.9703 89.7586 27.3076 91.8721 31.0706Z" fill="#20294D"/>
<path fill-rule="evenodd" clip-rule="evenodd" d="M93.2492 45.5061C93.7742 46.4428 93.4419 47.6292 92.5056 48.1553C91.5694 48.6818 90.3845 48.3489 89.8582 47.4126C89.3315 46.4755 89.6651 45.2896 90.6005 44.7626C91.5368 44.2369 92.7225 44.5698 93.2492 45.5061Z" fill="#20294D"/>
<path fill-rule="evenodd" clip-rule="evenodd" d="M80.7113 23.1802C81.2368 24.1173 80.9049 25.3032 79.9686 25.8298C79.032 26.3563 77.8454 26.023 77.3208 25.0863C76.7945 24.1503 77.1261 22.964 78.0627 22.4371C79.0006 21.911 80.1851 22.2439 80.7113 23.1802Z" fill="#20294D"/>
<path fill-rule="evenodd" clip-rule="evenodd" d="M89.4376 32.4399C90.7955 34.8576 89.9369 37.9198 87.52 39.278C85.1035 40.637 82.0437 39.7779 80.6854 37.3602C79.3271 34.9421 80.1865 31.88 82.6026 30.521C85.0194 29.1628 88.0801 30.0218 89.4376 32.4399Z" fill="#F8F7F5"/>
<path fill-rule="evenodd" clip-rule="evenodd" d="M102.756 51.7393L90.233 58.7795L86.9824 54.8587L101.1 46.9224L102.756 51.7393Z" fill="#20294D"/>
<path fill-rule="evenodd" clip-rule="evenodd" d="M174.286 134.641L166.539 129.632L157.464 137.305L171.02 146.072L174.286 134.641Z" fill="#F3BF2F"/>
<path fill-rule="evenodd" clip-rule="evenodd" d="M176.16 125.11L174.457 124.009L166.655 129.707L174.168 134.563L176.16 125.11Z" fill="#3A3A39"/>
<path fill-rule="evenodd" clip-rule="evenodd" d="M134.622 182.713L130.044 179.752L157.464 137.305L162.042 140.264L134.622 182.713Z" fill="#08C5A6"/>
<path fill-rule="evenodd" clip-rule="evenodd" d="M139.023 185.558L134.444 182.596L161.862 140.151L166.442 143.113L139.023 185.558Z" fill="#08C5A6"/>
<path fill-rule="evenodd" clip-rule="evenodd" d="M143.601 188.519L139.022 185.558L166.442 143.113L171.022 146.071L143.601 188.519Z" fill="#08C5A6"/>
<path fill-rule="evenodd" clip-rule="evenodd" d="M130.076 143.351L130.074 143.359L130.076 143.351Z" fill="#DC402A"/>
<path fill-rule="evenodd" clip-rule="evenodd" d="M130.632 143.434L130.632 143.424L130.632 143.434Z" fill="#DC402A"/>
<path fill-rule="evenodd" clip-rule="evenodd" d="M124.292 141.661C127.795 143.005 130.613 143.567 130.613 143.567C131.315 143.664 132.924 143.688 136.655 143.306C142.458 142.711 150.073 148.758 148.685 159.381C147.614 167.582 138.113 180.177 131.644 179.315C130.147 179.117 127.135 177.054 125.922 176.892C124.71 176.732 121.215 177.928 119.716 177.729C113.25 176.868 107.374 162.226 108.477 154.029C109.915 143.413 118.845 139.567 124.292 141.661Z" fill="#F35A18"/>
<path fill-rule="evenodd" clip-rule="evenodd" d="M126.434 145.672C126.332 146.61 127.921 147.554 129.984 147.778C132.045 148.003 133.8 147.424 133.901 146.486C134.004 145.548 132.414 144.606 130.354 144.381C128.29 144.156 126.536 144.734 126.434 145.672Z" fill="#6E2826"/>
<path fill-rule="evenodd" clip-rule="evenodd" d="M129.484 146.049C129.484 146.049 129.64 146.476 130.319 146.55C131.337 146.66 131.589 146.329 131.589 146.329L133.251 133.84L131.146 133.561L129.484 146.049Z" fill="#29354C"/>
<path fill-rule="evenodd" clip-rule="evenodd" d="M132.681 138.131L137.995 135.999C137.749 133.316 140.29 131.144 141.992 130.303C145.744 128.453 152.989 131.008 152.989 131.008C152.989 131.008 150.288 137.573 146.894 139.16C143.743 140.63 139.897 140.447 138.456 137.554L132.422 140.083L132.681 138.131Z" fill="#29354C"/>
<path fill-rule="evenodd" clip-rule="evenodd" d="M150.834 131.904C150.871 131.89 150.892 131.882 150.895 131.882C150.895 131.882 150.875 131.89 150.834 131.904Z" fill="#7A943D"/>
<path fill-rule="evenodd" clip-rule="evenodd" d="M92.7828 167.749C91.8498 167.736 91.0866 168.481 91.0749 169.414C91.0612 170.345 91.8047 171.11 92.7382 171.123C93.67 171.136 94.4325 170.39 94.4473 169.458C94.4594 168.527 93.7159 167.761 92.7828 167.749Z" fill="#FFFFFE"/>
<path fill-rule="evenodd" clip-rule="evenodd" d="M92.7134 172.854C90.8281 172.829 89.3201 171.279 89.3438 169.39C89.3688 167.503 90.9202 165.992 92.8072 166.018C94.6934 166.043 96.201 167.594 96.1748 169.481C96.1523 171.371 94.6004 172.879 92.7134 172.854ZM106.589 168.403L103.822 168.366C103.615 166.206 102.789 164.225 101.522 162.602L103.509 160.668C103.989 160.199 104 159.427 103.528 158.944C103.061 158.463 102.29 158.452 101.808 158.922L99.8225 160.856C98.2348 159.545 96.2766 158.665 94.1257 158.401L94.1627 155.633C94.1711 154.96 93.6328 154.407 92.9597 154.398C92.289 154.389 91.7362 154.927 91.7277 155.6L91.6903 158.369C89.5309 158.574 87.5514 159.402 85.9279 160.67L83.9955 158.683C83.5255 158.201 82.7563 158.19 82.2759 158.66C81.7922 159.13 81.7818 159.901 82.2521 160.383L84.1826 162.369C82.8745 163.959 81.9934 165.916 81.7291 168.07L78.9642 168.032C78.289 168.023 77.7366 168.561 77.7282 169.234C77.7181 169.908 78.2572 170.46 78.9296 170.47L81.6953 170.506C81.9037 172.667 82.7313 174.647 83.9955 176.271L82.0115 178.203C81.5299 178.674 81.5207 179.445 81.9886 179.927C82.4577 180.409 83.2286 180.419 83.7118 179.951L85.6982 178.017C87.2838 179.328 89.2408 180.207 91.3942 180.471L91.3567 183.239C91.3483 183.912 91.8862 184.465 92.5598 184.474C93.2313 184.483 93.7829 183.945 93.7925 183.272L93.8304 180.503C95.9901 180.298 97.9689 179.47 99.5887 178.203L101.522 180.19C101.993 180.671 102.764 180.682 103.247 180.212C103.728 179.743 103.738 178.972 103.269 178.488L101.334 176.502C102.645 174.914 103.527 172.957 103.789 170.802L106.556 170.839C107.229 170.849 107.782 170.31 107.79 169.637C107.802 168.964 107.26 168.412 106.589 168.403Z" fill="#FFFFFE"/>
<path fill-rule="evenodd" clip-rule="evenodd" d="M53.5864 55.5573L55.5153 67.8978L58.4142 65.313L61.6043 69.9604L62.9622 68.9347L59.8264 64.4061L63.7223 62.967L53.5864 55.5573Z" fill="#3A3A39"/>
<path fill-rule="evenodd" clip-rule="evenodd" d="M41.9644 165.474C48.9684 181.595 61.7878 188.663 64.4787 200.917C66.9942 212.367 65.6894 236.653 69.8029 247.629C71.9446 253.342 80.0422 258.283 106.252 258.283C130.006 258.283 139.698 253.241 141.802 247.629C145.917 236.653 144.611 212.367 147.126 200.917C149.818 188.663 162.637 181.595 169.641 165.474L109.504 183.797L41.9644 165.474Z" fill="#FAD731"/>
<path fill-rule="evenodd" clip-rule="evenodd" d="M45.9424 165.474C49.0565 172.06 53.2196 177.062 57.1545 181.788C61.94 187.539 66.4619 192.972 68.0431 200.17C69.1685 205.298 69.5555 212.538 69.9619 220.203C70.4689 229.756 71.0438 240.581 73.2269 246.405C75.2849 251.896 86.7606 254.798 106.416 254.798C127.901 254.798 137.183 250.463 138.704 246.406C140.888 240.581 141.462 229.756 141.969 220.203C142.377 212.538 142.762 205.298 143.888 200.17C145.469 192.972 149.99 187.539 154.778 181.788C158.712 177.062 162.875 172.06 165.988 165.474C165.988 165.474 150.494 171.727 109.352 171.727C55.8996 171.727 45.9424 165.474 45.9424 165.474Z" fill="#FAD731"/>
<path fill-rule="evenodd" clip-rule="evenodd" d="M107.891 173.591C82.9658 173.591 64.2174 172.53 52.1668 170.437C43.5056 168.933 41.2122 167.374 40.6284 166.774L43.3 164.173C43.3 164.173 43.2714 164.133 43.1877 164.068C43.4963 164.305 51.4088 169.862 107.891 169.862C158.745 169.862 167.332 164.228 167.672 163.988C167.63 164.018 167.612 164.035 167.612 164.035L169.984 166.912C169.156 167.595 160.376 173.591 107.891 173.591Z" fill="#FED602"/>
<path fill-rule="evenodd" clip-rule="evenodd" d="M96.2373 238.674C91.3295 238.941 87.1362 235.176 86.8679 230.266C86.6015 225.357 90.3634 221.159 95.2708 220.894C100.18 220.625 104.373 224.39 104.64 229.299C104.907 234.209 101.146 238.406 96.2373 238.674ZM112.492 230.593L112.304 227.162L108.314 227.379C107.89 225.15 106.889 223.146 105.486 221.5L108.161 218.516L105.605 216.222L102.933 219.205C101.142 217.989 99.04 217.211 96.7812 217.033L96.562 213.039L93.1336 213.226L93.3509 217.219C91.1235 217.642 89.1142 218.635 87.4678 220.04L84.4933 217.37L82.1995 219.928L85.1748 222.598C83.9614 224.388 83.1925 226.494 83.0102 228.756L79.0186 228.973L79.2052 232.405L83.1961 232.187C83.621 234.415 84.6216 236.42 86.0226 238.068L83.3486 241.051L85.9055 243.345L88.5774 240.361C90.3683 241.576 92.4661 242.354 94.7257 242.535L94.9437 246.529L98.3729 246.342L98.1565 242.348C100.386 241.923 102.392 240.93 104.043 239.526L107.018 242.196L109.309 239.638L106.331 236.968C107.55 235.179 108.323 233.072 108.5 230.81L112.492 230.593Z" fill="#FFFFFE"/>
<path fill-rule="evenodd" clip-rule="evenodd" d="M110.752 208.47C104.655 212.524 96.426 210.867 92.3732 204.767C88.3183 198.667 89.9772 190.434 96.0747 186.379C102.171 182.323 110.399 183.981 114.453 190.081C118.506 196.181 116.849 204.415 110.752 208.47ZM123.82 197.918C123.851 196.715 123.775 195.508 123.591 194.309L120.586 194.503C120.287 192.733 119.709 190.99 118.841 189.334L121.346 187.668C121.061 187.142 120.752 186.624 120.417 186.116C120.079 185.607 119.717 185.124 119.344 184.656L116.839 186.323C115.596 184.814 114.139 183.563 112.541 182.58L113.848 179.861C112.804 179.242 111.71 178.724 110.586 178.302L109.282 181.016C107.616 180.422 105.868 180.084 104.101 180.012L103.908 177.007C102.705 176.976 101.498 177.052 100.299 177.236L100.493 180.242C98.7254 180.543 96.9812 181.12 95.3288 181.989L93.6615 179.481C93.1356 179.768 92.6174 180.074 92.1092 180.413C91.6002 180.75 91.1195 181.11 90.6511 181.484L92.3172 183.992C90.8084 185.236 89.5567 186.693 88.5782 188.29L85.8572 186.984C85.238 188.028 84.7234 189.121 84.3021 190.249L87.0151 191.553C86.4193 193.218 86.0805 194.968 86.0105 196.736L83.0066 196.93C82.976 198.132 83.0517 199.341 83.2355 200.54L86.2406 200.347C86.5384 202.115 87.1157 203.859 87.986 205.514L85.4786 207.181C85.7655 207.707 86.0713 208.226 86.4096 208.734C86.748 209.241 87.1073 209.725 87.4795 210.193L89.9885 208.525C91.2301 210.033 92.6874 211.285 94.2827 212.268L92.9783 214.988C94.0199 215.608 95.1143 216.125 96.2421 216.546L97.5449 213.832C99.209 214.426 100.959 214.765 102.727 214.836L102.919 217.842C104.12 217.872 105.329 217.798 106.529 217.612L106.334 214.607C108.102 214.306 109.845 213.728 111.499 212.859L113.165 215.368C113.69 215.081 114.209 214.775 114.716 214.437C115.225 214.099 115.707 213.739 116.176 213.364L114.509 210.857C116.017 209.614 117.268 208.155 118.248 206.558L120.967 207.864C121.588 206.821 122.102 205.726 122.524 204.6L119.811 203.297C120.405 201.631 120.745 199.88 120.817 198.112L123.82 197.918Z" fill="#FFFFFE"/>
<path fill-rule="evenodd" clip-rule="evenodd" d="M114.551 228.535C111.561 228.185 109.421 225.475 109.771 222.483C110.122 219.491 112.83 217.349 115.821 217.7C118.812 218.051 120.952 220.761 120.601 223.753C120.251 226.745 117.543 228.886 114.551 228.535ZM116.217 214.322C111.361 213.753 106.965 217.23 106.395 222.087C105.827 226.945 109.301 231.344 114.156 231.913C119.012 232.482 123.408 229.007 123.977 224.149C124.547 219.291 121.071 214.891 116.217 214.322Z" fill="#F37C18"/>
<path fill-rule="evenodd" clip-rule="evenodd" d="M113.682 235.966C106.589 235.135 101.513 228.708 102.344 221.612C103.176 214.516 109.599 209.438 116.691 210.27C123.784 211.101 128.859 217.527 128.028 224.623C127.198 231.719 120.775 236.797 113.682 235.966ZM134.771 223.609L131.462 223.221C131.474 221.555 131.232 219.935 130.768 218.401L133.828 217.092C134.739 216.704 135.162 215.65 134.771 214.74C134.382 213.83 133.33 213.407 132.42 213.796L129.356 215.107C128.53 213.645 127.482 212.319 126.252 211.176L128.235 208.497C128.825 207.702 128.656 206.579 127.861 205.991C127.066 205.401 125.945 205.568 125.354 206.364L123.376 209.041C121.991 208.234 120.472 207.623 118.849 207.25L119.236 203.94C119.352 202.957 118.648 202.066 117.666 201.951C116.683 201.836 115.793 202.539 115.677 203.523L115.29 206.833C113.624 206.821 112.006 207.063 110.472 207.528L109.163 204.466C108.775 203.555 107.722 203.133 106.812 203.522C105.901 203.911 105.481 204.965 105.87 205.875L107.179 208.94C105.719 209.768 104.393 210.815 103.25 212.046L100.573 210.062C99.7778 209.474 98.6552 209.641 98.067 210.436C97.4772 211.231 97.6462 212.354 98.44 212.944L101.117 214.925C100.31 216.31 99.7005 217.83 99.3272 219.454L96.0175 219.066C95.0354 218.951 94.1454 219.655 94.0287 220.638C93.9148 221.621 94.6181 222.511 95.6014 222.626L98.9099 223.013C98.8975 224.68 99.1405 226.3 99.6048 227.833L96.5433 229.143C95.6344 229.532 95.2112 230.586 95.6002 231.496C95.9889 232.405 97.0418 232.828 97.9511 232.439L101.015 231.128C101.842 232.59 102.89 233.916 104.12 235.059L102.138 237.739C101.549 238.533 101.717 239.657 102.511 240.245C103.306 240.835 104.428 240.667 105.018 239.872L106.997 237.195C108.38 238.001 109.899 238.613 111.523 238.986L111.136 242.296C111.021 243.279 111.725 244.17 112.706 244.285C113.689 244.399 114.579 243.696 114.694 242.713L115.082 239.403C116.748 239.415 118.367 239.172 119.9 238.708L121.208 241.77C121.597 242.68 122.651 243.103 123.559 242.713C124.47 242.325 124.891 241.271 124.503 240.361L123.192 237.295C124.655 236.468 125.979 235.42 127.121 234.19L129.799 236.173C130.595 236.762 131.717 236.595 132.306 235.8C132.895 235.004 132.727 233.881 131.931 233.292L129.256 231.31C130.062 229.926 130.673 228.406 131.045 226.782L134.354 227.17C135.336 227.285 136.227 226.582 136.343 225.599C136.457 224.616 135.753 223.724 134.771 223.609Z" fill="#F37C18"/>
<path fill-rule="evenodd" clip-rule="evenodd" d="M201.962 74.026C201.962 75.7811 200.54 77.2041 198.785 77.2041C197.032 77.2041 195.61 75.7811 195.61 74.026C195.61 72.2705 197.032 70.8479 198.785 70.8479C200.54 70.8479 201.962 72.2705 201.962 74.026Z" fill="#F37C18"/>
<path fill-rule="evenodd" clip-rule="evenodd" d="M56.1158 39.6515C56.2481 41.058 55.2161 42.3055 53.8107 42.4383C52.4046 42.5708 51.1577 41.5382 51.0241 40.1317C50.8917 38.7252 51.9254 37.4777 53.3312 37.3449C54.7365 37.2125 55.9838 38.245 56.1158 39.6515Z" fill="#F37C18"/>
<path fill-rule="evenodd" clip-rule="evenodd" d="M22.8939 167.426C22.8939 169.107 21.5332 170.47 19.8526 170.47C18.172 170.47 16.8101 169.107 16.8101 167.426C16.8101 165.745 18.172 164.383 19.8526 164.383C21.5332 164.383 22.8939 165.745 22.8939 167.426Z" fill="#F37C18"/>
</g>
<defs>
<clipPath id="clip0">
<rect width="206" height="316" fill="white"/>
</clipPath>
</defs>
</svg>
