<svg width="288" height="240" viewBox="0 0 288 240" fill="none" xmlns="http://www.w3.org/2000/svg">
<path d="M94.373 22.7538L100.343 27.9871L104.739 22.9729L100.862 15.3511L94.373 22.7538Z" fill="#F37C18"/>
<path d="M83.0012 21.9429L54.6052 54.337C52.9673 56.2068 53.1539 59.0502 55.0233 60.6886L68.3128 72.3381C70.1826 73.9769 73.026 73.7902 74.6648 71.9208L103.061 39.5267L83.0012 21.9429Z" fill="#F37C18"/>
<path d="M222.192 180.94C222.192 183.574 220.057 185.709 217.424 185.709H28.8143C26.1807 185.709 24.0459 183.574 24.0459 180.94V55.5175C24.0459 52.8843 26.1803 50.7495 28.8143 50.7495H217.424C220.058 50.7495 222.193 52.8843 222.193 55.5175V180.94H222.192Z" fill="#2A3958"/>
<path d="M213.614 58.5454H32.625V164.851H213.614V58.5454Z" fill="#D1D3D4"/>
<path d="M121.029 76.3745H42.3809V164.851H121.029V76.3745Z" fill="white"/>
<path d="M83.6048 85.4585H53.2407V89.4954H83.6048V85.4585Z" fill="#ADAEAE"/>
<path opacity="0.8" d="M110.169 96.5591H53.2407V100.596H110.169V96.5591Z" fill="#B8B8C9"/>
<path opacity="0.8" d="M110.169 108.335H53.2407V112.372H110.169V108.335Z" fill="#B8B8C9"/>
<path opacity="0.8" d="M110.169 119.436H53.2407V123.473H110.169V119.436Z" fill="#B8B8C9"/>
<path opacity="0.8" d="M110.169 131.21H53.2407V135.248H110.169V131.21Z" fill="#B8B8C9"/>
<path opacity="0.8" d="M110.169 142.985H53.2407V147.022H110.169V142.985Z" fill="#B8B8C9"/>
<path opacity="0.8" d="M110.169 154.085H53.2407V158.122H110.169V154.085Z" fill="#B8B8C9"/>
<path d="M203.858 76.3745H125.234V164.851H203.858V76.3745Z" fill="white"/>
<path d="M196.793 85.4585H132.298V89.4954H196.793V85.4585Z" fill="#D1D3D4"/>
<path d="M196.793 96.5591H132.298V100.596H196.793V96.5591Z" fill="#D1D3D4"/>
<path d="M196.793 108.332H132.298V112.368H196.793V108.332Z" fill="#D1D3D4"/>
<path d="M196.793 119.436H132.298V123.473H196.793V119.436Z" fill="#D1D3D4"/>
<path d="M196.793 131.21H132.298V135.248H196.793V131.21Z" fill="#D1D3D4"/>
<path d="M196.793 142.985H132.298V147.022H196.793V142.985Z" fill="#D1D3D4"/>
<path d="M196.793 154.086H132.298V158.123H196.793V154.086Z" fill="#D1D3D4"/>
<path d="M123.119 56.0719C123.915 56.0719 124.56 55.427 124.56 54.6314C124.56 53.8359 123.915 53.1909 123.119 53.1909C122.324 53.1909 121.679 53.8359 121.679 54.6314C121.679 55.427 122.324 56.0719 123.119 56.0719Z" fill="#58595B"/>
<path d="M0 177.384V186.09C0 188.729 2.13917 190.868 4.77796 190.868H241.637C244.276 190.868 246.414 188.728 246.414 186.09V177.384H0Z" fill="#2A3958"/>
<path d="M246.414 177.384H0V182.104H246.414V177.384Z" fill="#546179"/>
<g opacity="0.4">
<path opacity="0.4" d="M224.807 177.64V191.097H241.309C243.943 191.097 246.077 188.961 246.077 186.328V177.64H224.807Z" fill="#2A3958"/>
</g>
<path opacity="0.6" d="M235.431 45.7441H175.277V112.56H249.517V59.829L235.431 45.7441Z" fill="#A7A9AC"/>
<path d="M241.596 0H167.357V110.585H241.596V0Z" fill="#F2F2F2"/>
<path d="M214.453 8.21436H177.187V11.1137H214.453V8.21436Z" fill="#949AAA"/>
<path d="M214.454 14.8081H177.188V16.5684H214.454V14.8081Z" fill="#BCC2C4"/>
<path d="M231.766 20.0884H177.188V21.849H231.766V20.0884Z" fill="#BCC2C4"/>
<path d="M209.645 25.1626H177.188V26.9233H209.645V25.1626Z" fill="#BCC2C4"/>
<path d="M231.766 73.0649H177.187V74.8248H231.766V73.0649Z" fill="#D1D3D4"/>
<path d="M231.766 77.7593H177.188V79.5203H231.766V77.7593Z" fill="#D1D3D4"/>
<path d="M231.766 83.0415H177.188V84.8018H231.766V83.0415Z" fill="#D1D3D4"/>
<path d="M224.724 87.7358H177.188V89.4965H224.724V87.7358Z" fill="#D1D3D4"/>
<path d="M203.009 92.4312H177.188V94.1918H203.009V92.4312Z" fill="#D1D3D4"/>
<path d="M208.911 52.8212C208.701 52.8212 208.531 52.6513 208.531 52.4419V51.9706C208.531 51.7612 208.701 51.5913 208.911 51.5913C209.12 51.5913 209.29 51.7612 209.29 51.9706V52.4419C209.29 52.6513 209.12 52.8212 208.911 52.8212Z" fill="#9C9DA1"/>
<path d="M208.91 67.2413C208.701 67.2413 208.531 67.0714 208.531 66.8616V65.9003C208.531 65.6909 208.701 65.521 208.91 65.521C209.12 65.521 209.289 65.6909 209.289 65.9003V66.8616C209.289 67.0714 209.12 67.2413 208.91 67.2413ZM208.91 64.8379C208.701 64.8379 208.531 64.668 208.531 64.4586V63.4973C208.531 63.2879 208.701 63.1176 208.91 63.1176C209.12 63.1176 209.289 63.2879 209.289 63.4973V64.4586C209.289 64.6676 209.12 64.8379 208.91 64.8379ZM208.91 62.4341C208.701 62.4341 208.531 62.2643 208.531 62.0544V61.0931C208.531 60.8837 208.701 60.7138 208.91 60.7138C209.12 60.7138 209.289 60.8837 209.289 61.0931V62.0544C209.289 62.2643 209.12 62.4341 208.91 62.4341ZM208.91 60.0308C208.701 60.0308 208.531 59.8609 208.531 59.6514V58.6902C208.531 58.4807 208.701 58.3109 208.91 58.3109C209.12 58.3109 209.289 58.4807 209.289 58.6902V59.6514C209.289 59.8609 209.12 60.0308 208.91 60.0308ZM208.91 57.6274C208.701 57.6274 208.531 57.4575 208.531 57.2477V56.2864C208.531 56.077 208.701 55.9067 208.91 55.9067C209.12 55.9067 209.289 56.0766 209.289 56.2864V57.2477C209.289 57.4571 209.12 57.6274 208.91 57.6274ZM208.91 55.2236C208.701 55.2236 208.531 55.0537 208.531 54.8439V53.8822C208.531 53.6732 208.701 53.5029 208.91 53.5029C209.12 53.5029 209.289 53.6728 209.289 53.8822V54.8439C209.289 55.0537 209.12 55.2236 208.91 55.2236Z" fill="#9C9DA1"/>
<path d="M208.91 69.1552C208.701 69.1552 208.531 68.9853 208.531 68.7759V68.3046C208.531 68.0952 208.701 67.9253 208.91 67.9253C209.12 67.9253 209.289 68.0952 209.289 68.3046V68.7759C209.289 68.9853 209.12 69.1552 208.91 69.1552Z" fill="#9C9DA1"/>
<path d="M218.386 51.2503C218.176 51.2503 218.006 51.0804 218.006 50.8706V50.3993C218.006 50.1899 218.176 50.02 218.386 50.02C218.595 50.02 218.765 50.1899 218.765 50.3993V50.8706C218.765 51.0804 218.595 51.2503 218.386 51.2503Z" fill="#9C9DA1"/>
<path d="M218.386 67.3074C218.177 67.3074 218.007 67.1375 218.007 66.9276V66.0103C218.007 65.8009 218.177 65.6306 218.386 65.6306C218.596 65.6306 218.766 65.8005 218.766 66.0103V66.9276C218.766 67.1375 218.596 67.3074 218.386 67.3074ZM218.386 65.0131C218.177 65.0131 218.007 64.8432 218.007 64.6338V63.7165C218.007 63.507 218.177 63.3372 218.386 63.3372C218.596 63.3372 218.766 63.507 218.766 63.7165V64.6338C218.766 64.8432 218.596 65.0131 218.386 65.0131ZM218.386 62.7192C218.177 62.7192 218.007 62.5494 218.007 62.3395V61.4222C218.007 61.2128 218.177 61.0425 218.386 61.0425C218.596 61.0425 218.766 61.2124 218.766 61.4222V62.3395C218.766 62.5494 218.596 62.7192 218.386 62.7192ZM218.386 60.4254C218.177 60.4254 218.007 60.2555 218.007 60.0457V59.1284C218.007 58.9189 218.177 58.7487 218.386 58.7487C218.596 58.7487 218.766 58.9185 218.766 59.1284V60.0457C218.766 60.2555 218.596 60.4254 218.386 60.4254ZM218.386 58.1315C218.177 58.1315 218.007 57.9617 218.007 57.7518V56.8345C218.007 56.6251 218.177 56.4548 218.386 56.4548C218.596 56.4548 218.766 56.6247 218.766 56.8345V57.7518C218.766 57.9617 218.596 58.1315 218.386 58.1315ZM218.386 55.8377C218.177 55.8377 218.007 55.6678 218.007 55.458V54.5407C218.007 54.3312 218.177 54.1614 218.386 54.1614C218.596 54.1614 218.766 54.3312 218.766 54.5407V55.458C218.766 55.6674 218.596 55.8377 218.386 55.8377ZM218.386 53.5434C218.177 53.5434 218.007 53.3736 218.007 53.1641V52.2464C218.007 52.037 218.177 51.8667 218.386 51.8667C218.596 51.8667 218.766 52.0366 218.766 52.2464V53.1641C218.766 53.374 218.596 53.5434 218.386 53.5434Z" fill="#9C9DA1"/>
<path d="M218.386 69.1552C218.177 69.1552 218.007 68.9853 218.007 68.7759V68.3046C218.007 68.0952 218.177 67.9253 218.386 67.9253C218.596 67.9253 218.766 68.0952 218.766 68.3046V68.7759C218.766 68.9853 218.596 69.1552 218.386 69.1552Z" fill="#9C9DA1"/>
<path d="M201.764 40.0989C201.554 40.0989 201.385 39.929 201.385 39.7192V39.248C201.385 39.0385 201.554 38.8687 201.764 38.8687C201.973 38.8687 202.143 39.0385 202.143 39.248V39.7192C202.143 39.929 201.973 40.0989 201.764 40.0989Z" fill="#9C9DA1"/>
<path d="M201.764 66.8332C201.554 66.8332 201.384 66.6633 201.384 66.4538V65.4814C201.384 65.2719 201.554 65.1021 201.764 65.1021C201.973 65.1021 202.143 65.2719 202.143 65.4814V66.4538C202.143 66.6633 201.973 66.8332 201.764 66.8332ZM201.764 64.403C201.554 64.403 201.384 64.2331 201.384 64.0233V63.0508C201.384 62.8414 201.554 62.6715 201.764 62.6715C201.973 62.6715 202.143 62.8414 202.143 63.0508V64.0233C202.143 64.2331 201.973 64.403 201.764 64.403ZM201.764 61.9724C201.554 61.9724 201.384 61.8026 201.384 61.5931V60.6207C201.384 60.4112 201.554 60.241 201.764 60.241C201.973 60.241 202.143 60.4108 202.143 60.6207V61.5931C202.143 61.8026 201.973 61.9724 201.764 61.9724ZM201.764 59.5419C201.554 59.5419 201.384 59.372 201.384 59.1622V58.1901C201.384 57.9807 201.554 57.8108 201.764 57.8108C201.973 57.8108 202.143 57.9807 202.143 58.1901V59.1622C202.143 59.372 201.973 59.5419 201.764 59.5419ZM201.764 57.1114C201.554 57.1114 201.384 56.9415 201.384 56.732V55.76C201.384 55.5505 201.554 55.3803 201.764 55.3803C201.973 55.3803 202.143 55.5501 202.143 55.76V56.732C202.143 56.9415 201.973 57.1114 201.764 57.1114ZM201.764 54.6812C201.554 54.6812 201.384 54.5113 201.384 54.3019V53.3294C201.384 53.12 201.554 52.9501 201.764 52.9501C201.973 52.9501 202.143 53.12 202.143 53.3294V54.3019C202.143 54.5113 201.973 54.6812 201.764 54.6812ZM201.764 52.2506C201.554 52.2506 201.384 52.0808 201.384 51.8713V50.8993C201.384 50.6898 201.554 50.5196 201.764 50.5196C201.973 50.5196 202.143 50.6898 202.143 50.8993V51.8713C202.143 52.0808 201.973 52.2506 201.764 52.2506ZM201.764 49.8201C201.554 49.8201 201.384 49.6502 201.384 49.4408V48.4683C201.384 48.2589 201.554 48.089 201.764 48.089C201.973 48.089 202.143 48.2589 202.143 48.4683V49.4408C202.143 49.6502 201.973 49.8201 201.764 49.8201ZM201.764 47.3895C201.554 47.3895 201.384 47.2197 201.384 47.0102V46.0378C201.384 45.8283 201.554 45.6585 201.764 45.6585C201.973 45.6585 202.143 45.8283 202.143 46.0378V47.0102C202.143 47.2197 201.973 47.3895 201.764 47.3895ZM201.764 44.9594C201.554 44.9594 201.384 44.7895 201.384 44.5797V43.6072C201.384 43.3978 201.554 43.2279 201.764 43.2279C201.973 43.2279 202.143 43.3978 202.143 43.6072V44.5797C202.143 44.7895 201.973 44.9594 201.764 44.9594ZM201.764 42.5288C201.554 42.5288 201.384 42.359 201.384 42.1495V41.1771C201.384 40.9676 201.554 40.7974 201.764 40.7974C201.973 40.7974 202.143 40.9672 202.143 41.1771V42.1495C202.143 42.359 201.973 42.5288 201.764 42.5288Z" fill="#9C9DA1"/>
<path d="M201.764 68.7636C201.554 68.7636 201.384 68.5937 201.384 68.3842V67.913C201.384 67.7036 201.554 67.5337 201.764 67.5337C201.973 67.5337 202.143 67.7036 202.143 67.913V68.3842C202.143 68.5933 201.973 68.7636 201.764 68.7636Z" fill="#9C9DA1"/>
<path d="M201.816 59.5754C202.402 59.5754 202.877 59.1006 202.877 58.515C202.877 57.9293 202.402 57.4546 201.816 57.4546C201.231 57.4546 200.756 57.9293 200.756 58.515C200.756 59.1006 201.231 59.5754 201.816 59.5754Z" fill="#FFC022"/>
<path d="M201.816 57.6901C202.272 57.6901 202.641 58.0594 202.641 58.5147C202.641 58.9703 202.271 59.3392 201.816 59.3392C201.361 59.3392 200.992 58.9699 200.992 58.5147C200.991 58.0598 201.361 57.6901 201.816 57.6901ZM201.816 57.2192C201.102 57.2192 200.521 57.8004 200.521 58.515C200.521 59.2297 201.102 59.8109 201.816 59.8109C202.531 59.8109 203.112 59.2293 203.112 58.515C203.112 57.8008 202.531 57.2192 201.816 57.2192Z" fill="white"/>
<path d="M182.995 52.8212C182.786 52.8212 182.616 52.6513 182.616 52.4419V51.9706C182.616 51.7612 182.786 51.5913 182.995 51.5913C183.204 51.5913 183.374 51.7612 183.374 51.9706V52.4419C183.374 52.6513 183.204 52.8212 182.995 52.8212Z" fill="#9C9DA1"/>
<path d="M182.995 67.2413C182.785 67.2413 182.615 67.0714 182.615 66.8616V65.9003C182.615 65.6909 182.785 65.521 182.995 65.521C183.204 65.521 183.374 65.6909 183.374 65.9003V66.8616C183.374 67.0714 183.204 67.2413 182.995 67.2413ZM182.995 64.8379C182.785 64.8379 182.615 64.668 182.615 64.4586V63.4973C182.615 63.2879 182.785 63.1176 182.995 63.1176C183.204 63.1176 183.374 63.2879 183.374 63.4973V64.4586C183.374 64.6676 183.204 64.8379 182.995 64.8379ZM182.995 62.4341C182.785 62.4341 182.615 62.2643 182.615 62.0544V61.0931C182.615 60.8837 182.785 60.7138 182.995 60.7138C183.204 60.7138 183.374 60.8837 183.374 61.0931V62.0544C183.374 62.2643 183.204 62.4341 182.995 62.4341ZM182.995 60.0308C182.785 60.0308 182.615 59.8609 182.615 59.6514V58.6902C182.615 58.4807 182.785 58.3109 182.995 58.3109C183.204 58.3109 183.374 58.4807 183.374 58.6902V59.6514C183.374 59.8609 183.204 60.0308 182.995 60.0308ZM182.995 57.6274C182.785 57.6274 182.615 57.4575 182.615 57.2477V56.2864C182.615 56.077 182.785 55.9067 182.995 55.9067C183.204 55.9067 183.374 56.0766 183.374 56.2864V57.2477C183.374 57.4571 183.204 57.6274 182.995 57.6274ZM182.995 55.2236C182.785 55.2236 182.615 55.0537 182.615 54.8439V53.8822C182.615 53.6732 182.785 53.5029 182.995 53.5029C183.204 53.5029 183.374 53.6728 183.374 53.8822V54.8439C183.374 55.0537 183.204 55.2236 182.995 55.2236Z" fill="#9C9DA1"/>
<path d="M182.995 69.1552C182.785 69.1552 182.615 68.9853 182.615 68.7759V68.3046C182.615 68.0952 182.785 67.9253 182.995 67.9253C183.204 67.9253 183.374 68.0952 183.374 68.3046V68.7759C183.374 68.9853 183.204 69.1552 182.995 69.1552Z" fill="#9C9DA1"/>
<path d="M218.386 64.1297C217.802 64.1297 217.326 63.6544 217.326 63.0697C217.326 62.4849 217.802 62.0093 218.386 62.0093C218.971 62.0093 219.447 62.4849 219.447 63.0697C219.447 63.6544 218.971 64.1297 218.386 64.1297Z" fill="#72BDBA"/>
<path d="M218.386 62.2452C218.842 62.2452 219.211 62.6145 219.211 63.0697C219.211 63.525 218.841 63.8943 218.386 63.8943C217.931 63.8943 217.562 63.525 217.562 63.0697C217.561 62.6145 217.93 62.2452 218.386 62.2452ZM218.386 61.7739C217.672 61.7739 217.09 62.3555 217.09 63.0697C217.09 63.784 217.672 64.3656 218.386 64.3656C219.101 64.3656 219.682 63.7844 219.682 63.0697C219.682 62.3551 219.101 61.7739 218.386 61.7739Z" fill="white"/>
<path d="M227.778 65.6522C213.999 65.6522 210.164 56.5411 206.78 48.5024C204.265 42.5254 202.092 37.3633 196.268 37.0783C189.517 36.7458 187.133 42.7392 184.822 48.5332C182.846 53.4895 180.979 58.1707 176.451 58.1707V57.0324C180.207 57.0324 181.856 52.8983 183.765 48.1115C186.109 42.2332 188.769 35.5687 196.324 35.9412C202.863 36.2614 205.276 41.993 207.83 48.0608C211.076 55.7729 214.755 64.5139 227.778 64.5139C229.225 64.5139 230.643 64.4671 231.993 64.3752L232.07 65.5111C230.695 65.6046 229.25 65.6522 227.778 65.6522Z" fill="#72BDBA"/>
<path d="M196.124 61.1339C196.1 61.1339 196.076 61.1339 196.052 61.1339C193.02 61.1103 189.913 59.5547 187.941 57.0734C186.08 54.7308 182.615 50.3693 176.608 50.3693V49.231C183.165 49.231 186.853 53.8718 188.833 56.3651C190.595 58.5834 193.365 59.9748 196.061 59.9956C198.647 60.0195 201.007 58.8265 202.868 56.5562C206.591 52.016 210.463 49.6674 214.373 49.5763C217.935 49.4916 221.388 51.2694 224.62 54.8555C226.864 57.3464 229.56 58.7357 232.21 58.7677L232.197 59.9064C229.225 59.8705 226.234 58.3476 223.774 55.6181C220.774 52.289 217.619 50.6387 214.4 50.7142C210.836 50.7974 207.252 53.0057 203.748 57.278C201.142 60.456 198.177 61.1339 196.124 61.1339Z" fill="#FFC022"/>
<path d="M232.402 68.884H176.274V33.0161H177.06V68.0986H232.402V68.884Z" fill="#80838E"/>
<path d="M176.667 30.7983L175.39 33.9236L176.667 33.1821L177.944 33.9236L176.667 30.7983Z" fill="#80838E"/>
<path d="M234.62 68.4925L231.495 69.77L232.237 68.4925L231.495 67.2163L234.62 68.4925Z" fill="#80838E"/>
<path d="M182.995 52.3762C183.45 52.3762 183.82 52.007 183.82 51.5516C183.82 51.0962 183.45 50.7271 182.995 50.7271C182.54 50.7271 182.17 51.0962 182.17 51.5516C182.17 52.007 182.54 52.3762 182.995 52.3762Z" fill="white" stroke="#FFC022" stroke-width="1.1788" stroke-miterlimit="10"/>
<path d="M176.713 50.7014C177.168 50.7014 177.537 50.3322 177.537 49.8768C177.537 49.4214 177.168 49.0522 176.713 49.0522C176.257 49.0522 175.888 49.4214 175.888 49.8768C175.888 50.3322 176.257 50.7014 176.713 50.7014Z" fill="white" stroke="#FFC022" stroke-width="1.1788" stroke-miterlimit="10"/>
<path d="M208.91 52.7951C209.365 52.7951 209.735 52.426 209.735 51.9706C209.735 51.5152 209.365 51.146 208.91 51.146C208.455 51.146 208.085 51.5152 208.085 51.9706C208.085 52.426 208.455 52.7951 208.91 52.7951Z" fill="white" stroke="#FFC022" stroke-width="1.1788" stroke-miterlimit="10"/>
<path d="M201.809 39.5061C202.264 39.5061 202.634 39.1369 202.634 38.6815C202.634 38.2261 202.264 37.8569 201.809 37.8569C201.354 37.8569 200.984 38.2261 200.984 38.6815C200.984 39.1369 201.354 39.5061 201.809 39.5061Z" fill="#72BDBA"/>
<path d="M218.465 51.6955C218.921 51.6955 219.29 51.3264 219.29 50.871C219.29 50.4156 218.921 50.0464 218.465 50.0464C218.01 50.0464 217.641 50.4156 217.641 50.871C217.641 51.3264 218.01 51.6955 218.465 51.6955Z" fill="#FFC022"/>
<path d="M186.346 44.4192C186.801 44.4192 187.17 44.05 187.17 43.5946C187.17 43.1392 186.801 42.77 186.346 42.77C185.89 42.77 185.521 43.1392 185.521 43.5946C185.521 44.05 185.89 44.4192 186.346 44.4192Z" fill="#72BDBA"/>
<path d="M183.047 69.3391C183.503 69.3391 183.872 68.9699 183.872 68.5145C183.872 68.0591 183.503 67.6899 183.047 67.6899C182.592 67.6899 182.223 68.0591 182.223 68.5145C182.223 68.9699 182.592 69.3391 183.047 69.3391Z" fill="#9C9DA1"/>
<path d="M208.962 69.3391C209.418 69.3391 209.787 68.9699 209.787 68.5145C209.787 68.0591 209.418 67.6899 208.962 67.6899C208.507 67.6899 208.138 68.0591 208.138 68.5145C208.138 68.9699 208.507 69.3391 208.962 69.3391Z" fill="#9C9DA1"/>
<path d="M218.491 69.3391C218.946 69.3391 219.315 68.9699 219.315 68.5145C219.315 68.0591 218.946 67.6899 218.491 67.6899C218.035 67.6899 217.666 68.0591 217.666 68.5145C217.666 68.9699 218.035 69.3391 218.491 69.3391Z" fill="#9C9DA1"/>
<path d="M201.816 69.3391C202.271 69.3391 202.64 68.9699 202.64 68.5145C202.64 68.0591 202.271 67.6899 201.816 67.6899C201.36 67.6899 200.991 68.0591 200.991 68.5145C200.991 68.9699 201.36 69.3391 201.816 69.3391Z" fill="#9C9DA1"/>
<path d="M176.765 58.3967C177.22 58.3967 177.589 58.0275 177.589 57.5721C177.589 57.1167 177.22 56.7476 176.765 56.7476C176.309 56.7476 175.94 57.1167 175.94 57.5721C175.94 58.0275 176.309 58.3967 176.765 58.3967Z" fill="white" stroke="#72BDBA" stroke-width="1.1788" stroke-miterlimit="10"/>
<path d="M203.147 33.9077L203.007 37.1768L206.219 37.3103L205.506 35.4042L203.147 33.9077Z" fill="#72BDBA"/>
<path d="M206.247 37.0327C204.69 37.0327 203.423 35.7657 203.423 34.2084C203.423 32.6508 204.69 31.3838 206.247 31.3838C207.804 31.3838 209.071 32.6508 209.071 34.2084C209.071 35.7657 207.804 37.0327 206.247 37.0327Z" fill="white"/>
<path d="M206.246 31.66C207.65 31.66 208.788 32.7983 208.788 34.2021C208.788 35.6058 207.65 36.7441 206.246 36.7441C204.842 36.7441 203.704 35.6058 203.704 34.2021C203.704 32.7983 204.842 31.66 206.246 31.66ZM206.246 31.0952C204.533 31.0952 203.14 32.489 203.14 34.2021C203.14 35.9152 204.533 37.3089 206.246 37.3089C207.96 37.3089 209.353 35.9152 209.353 34.2021C209.353 32.489 207.96 31.0952 206.246 31.0952Z" fill="#72BDBA"/>
<path d="M219.717 46.5503L219.577 49.8194L222.789 49.9529L222.076 48.0464L219.717 46.5503Z" fill="#FFC022"/>
<path d="M222.817 49.6699C221.26 49.6699 219.992 48.4029 219.992 46.8456C219.992 45.288 221.26 44.021 222.817 44.021C224.374 44.021 225.641 45.288 225.641 46.8456C225.641 48.4029 224.374 49.6699 222.817 49.6699Z" fill="white"/>
<path d="M222.817 44.3035C224.221 44.3035 225.359 45.4415 225.359 46.8456C225.359 48.2493 224.221 49.3873 222.817 49.3873C221.413 49.3873 220.275 48.2493 220.275 46.8456C220.274 45.4415 221.413 44.3035 222.817 44.3035ZM222.817 43.7388C221.104 43.7388 219.71 45.1325 219.71 46.8456C219.71 48.5587 221.104 49.952 222.817 49.952C224.53 49.952 225.924 48.5583 225.924 46.8456C225.924 45.1325 224.53 43.7388 222.817 43.7388Z" fill="#FFC022"/>
<path d="M222.876 47.5901C223.331 47.5901 223.7 47.2209 223.7 46.7655C223.7 46.3101 223.331 45.9409 222.876 45.9409C222.42 45.9409 222.051 46.3101 222.051 46.7655C222.051 47.2209 222.42 47.5901 222.876 47.5901Z" fill="#FFC022"/>
<path d="M206.324 34.8528C206.779 34.8528 207.148 34.4836 207.148 34.0282C207.148 33.5728 206.779 33.2036 206.324 33.2036C205.868 33.2036 205.499 33.5728 205.499 34.0282C205.499 34.4836 205.868 34.8528 206.324 34.8528Z" fill="#72BDBA"/>
<path d="M287.776 46.6499H200.283V168.034H287.776V46.6499Z" fill="#F7F7F7"/>
<path d="M229.756 121.111H225.248V125.619H229.756V121.111Z" fill="#317AB0"/>
<path d="M262.81 122.505H233.762V124.988H262.81V122.505Z" fill="#949AAA"/>
<path d="M229.755 128.413H225.248V132.921H229.755V128.413Z" fill="#75CF33"/>
<path d="M251.56 129.806H233.762V132.67H251.56V129.806Z" fill="#949AAA"/>
<path d="M229.755 135.716H225.248V140.224H229.755V135.716Z" fill="#FFD121"/>
<path d="M257.036 137.107H233.762V139.591H257.036V137.107Z" fill="#949AAA"/>
<path d="M229.755 143.019H225.248V147.526H229.755V143.019Z" fill="#6B2D6E"/>
<path d="M253.018 144.41H235.66V146.893H253.018V144.41Z" fill="#949AAA"/>
<path d="M229.755 150.479H225.248V154.985H229.755V150.479Z" fill="#F2274D"/>
<path d="M260.094 151.87H233.762V154.354H260.094V151.87Z" fill="#949AAA"/>
<path d="M248.852 112.63H239.207V115.485H248.852V112.63Z" fill="#949AAA"/>
<path d="M246.929 79.5329C246.663 79.5329 246.414 79.3823 246.294 79.1364C246.153 78.8507 246.221 78.5069 246.459 78.2955L261.861 64.6147C261.991 64.4992 262.158 64.436 262.332 64.436C262.349 64.436 262.368 64.4364 262.386 64.438C262.578 64.4528 262.755 64.5452 262.878 64.693C265.316 67.646 267.044 71.1685 267.875 74.8801C267.917 75.0679 267.882 75.2642 267.776 75.4249C267.67 75.5852 267.504 75.6959 267.315 75.731L247.06 79.5202C247.016 79.529 246.972 79.5329 246.929 79.5329Z" fill="#72BDBA"/>
<path d="M262.332 65.1461C264.663 67.9712 266.356 71.3422 267.184 75.0374L246.929 78.8265L262.332 65.1461ZM262.331 63.73C261.986 63.73 261.651 63.8563 261.391 64.0873L245.989 77.7677C245.513 78.1902 245.378 78.8781 245.658 79.4496C245.899 79.9412 246.397 80.2426 246.929 80.2426C247.015 80.2426 247.103 80.2346 247.19 80.2182L267.445 76.4291C267.822 76.3584 268.155 76.1373 268.367 75.8164C268.578 75.4954 268.65 75.1025 268.566 74.7276C267.71 70.9077 265.932 67.2825 263.424 64.2444C263.179 63.9478 262.824 63.7636 262.441 63.734C262.404 63.7312 262.368 63.73 262.331 63.73Z" fill="white"/>
<path d="M244.901 79.0204C244.802 79.0204 244.703 78.9996 244.609 78.9573C244.354 78.8418 244.192 78.5872 244.193 78.3078L244.336 56.5335C244.337 56.3417 244.416 56.1582 244.555 56.0255C244.688 55.9 244.863 55.8301 245.044 55.8301C245.054 55.8301 245.064 55.8301 245.074 55.8305C251.403 56.0983 257.306 58.7734 261.694 63.3635C261.827 63.5026 261.898 63.6897 261.89 63.8816C261.882 64.0734 261.796 64.2545 261.652 64.382L245.371 78.8418C245.239 78.9593 245.071 79.0204 244.901 79.0204Z" fill="#FFD121"/>
<path d="M245.044 56.5362C251.389 56.8048 257.082 59.5627 261.182 63.8511L244.901 78.3105L245.044 56.5362ZM245.044 55.1201C244.681 55.1201 244.332 55.2596 244.068 55.511C243.789 55.776 243.63 56.1425 243.628 56.527L243.485 78.3013C243.482 78.8605 243.808 79.3697 244.317 79.6007C244.504 79.6854 244.704 79.7266 244.901 79.7266C245.242 79.7266 245.577 79.6039 245.842 79.3693L262.122 64.9099C262.41 64.6545 262.581 64.2931 262.597 63.909C262.613 63.5249 262.472 63.1508 262.206 62.8726C257.69 58.1498 251.616 55.3971 245.104 55.1213C245.084 55.1205 245.064 55.1201 245.044 55.1201Z" fill="white"/>
<path d="M220.306 79.9366C220.114 79.9354 219.931 79.8559 219.798 79.7168C219.666 79.5777 219.596 79.3906 219.604 79.1984C220.145 66.4593 230.551 56.1895 243.294 55.8178C243.301 55.8178 243.308 55.8174 243.314 55.8174C243.499 55.8174 243.677 55.8897 243.809 56.0192C243.947 56.1531 244.023 56.3378 244.022 56.53L243.872 79.3838C243.871 79.5717 243.796 79.7512 243.662 79.8831C243.529 80.0142 243.351 80.0873 243.165 80.0873C243.163 80.0873 220.306 79.9366 220.306 79.9366Z" fill="#F37C18"/>
<path d="M243.315 56.526L243.165 79.3798L220.312 79.2291C220.839 66.8106 230.891 56.8881 243.315 56.526ZM243.315 55.1099C243.301 55.1099 243.287 55.1099 243.273 55.1103C236.906 55.2957 230.898 57.8666 226.357 62.3484C221.817 66.8297 219.167 72.8032 218.897 79.1688C218.88 79.5529 219.021 79.927 219.286 80.2052C219.551 80.4837 219.918 80.6424 220.303 80.6448L243.156 80.7955C243.159 80.7955 243.162 80.7955 243.165 80.7955C243.537 80.7955 243.894 80.6488 244.16 80.3874C244.427 80.1236 244.578 79.7643 244.581 79.389L244.731 56.5352C244.734 56.1507 244.58 55.7817 244.305 55.5132C244.04 55.2541 243.684 55.1099 243.315 55.1099Z" fill="white"/>
<path d="M261.945 96.5178C261.767 96.5178 261.594 96.4498 261.462 96.3271L245.381 81.3038C245.186 81.1215 245.11 80.8449 245.184 80.5883C245.259 80.3317 245.472 80.1391 245.734 80.0903L267.37 76.0422C267.414 76.0342 267.458 76.0298 267.501 76.0298C267.647 76.0298 267.791 76.0753 267.912 76.1613C268.068 76.2728 268.173 76.4435 268.201 76.6337C268.385 77.8752 268.475 79.1454 268.466 80.41C268.428 86.244 266.302 91.8777 262.48 96.274C262.354 96.4191 262.174 96.5066 261.982 96.5166C261.97 96.5174 261.957 96.5178 261.945 96.5178Z" fill="#2BD8BC"/>
<path d="M267.501 76.7379C267.678 77.9354 267.767 79.1597 267.759 80.4051C267.72 86.3026 265.533 91.6829 261.946 95.8094L245.865 80.7856L267.501 76.7379ZM267.501 75.3218C267.414 75.3218 267.326 75.3298 267.241 75.3461L245.604 79.3939C245.079 79.4922 244.654 79.8771 244.505 80.3899C244.356 80.9027 244.507 81.4559 244.898 81.8204L260.978 96.8442C261.241 97.09 261.587 97.2259 261.945 97.2259C261.97 97.2259 261.994 97.2251 262.019 97.2239C262.403 97.2039 262.762 97.0288 263.014 96.7391C266.947 92.2153 269.135 86.4177 269.174 80.4151C269.183 79.1145 269.091 77.8075 268.901 76.5305C268.844 76.1499 268.635 75.8086 268.322 75.5852C268.081 75.4125 267.793 75.3218 267.501 75.3218Z" fill="white"/>
<path d="M243.862 104.692C230.639 104.605 219.977 94.1885 219.59 80.9782C219.585 80.7863 219.657 80.6001 219.792 80.4626C219.925 80.3263 220.108 80.2495 220.298 80.2495C220.3 80.2495 243.999 80.4058 243.999 80.4058C244.179 80.407 244.352 80.4765 244.483 80.6008L261.252 96.5615C261.39 96.693 261.469 96.8757 261.472 97.0667C261.474 97.2578 261.398 97.4416 261.263 97.5763C260.391 98.4433 259.454 99.2463 258.477 99.9629L257.024 100.949C253.119 103.403 248.632 104.693 244.027 104.693C244.027 104.693 243.862 104.692 243.862 104.692Z" fill="#0A81E4"/>
<path d="M220.299 80.9576L234.203 81.0496L243.562 81.1111L243.995 81.1139L260.764 97.0746C259.922 97.9123 259.017 98.6889 258.058 99.392L256.627 100.364C252.973 102.659 248.653 103.985 244.027 103.985C243.974 103.985 243.92 103.985 243.868 103.985C231.049 103.9 220.671 93.668 220.299 80.9576ZM220.299 79.5415C219.918 79.5415 219.553 79.695 219.287 79.9676C219.018 80.2426 218.872 80.6147 218.883 80.9988C219.075 87.5246 221.753 93.6396 226.425 98.2169C231.109 102.805 237.3 105.357 243.858 105.4L244.027 105.401C248.766 105.401 253.384 104.073 257.381 101.562C257.395 101.554 257.408 101.544 257.422 101.535L258.853 100.564C258.868 100.554 258.882 100.544 258.895 100.534C259.9 99.7973 260.865 98.9715 261.762 98.0786C262.033 97.8092 262.184 97.4415 262.18 97.059C262.175 96.6765 262.017 96.3123 261.74 96.0485L244.971 80.0883C244.71 79.8397 244.364 79.7002 244.004 79.6974L243.571 79.6946L234.212 79.633L220.308 79.5415C220.305 79.5415 220.302 79.5415 220.299 79.5415Z" fill="white"/>
<path d="M145.194 239.999H241.689V124.434L223.382 106.127H145.194V239.999Z" fill="white"/>
<path d="M223.382 106.127V124.434H241.689L223.382 106.127Z" fill="#E6E7E8"/>
<path d="M203.358 192.325H157.972V194.613H203.358V192.325Z" fill="#D1D3D4"/>
<path d="M228.912 198.046H157.972V200.335H228.912V198.046Z" fill="#D1D3D4"/>
<path d="M188.674 120.629H157.972V124.436H188.674V120.629Z" fill="#949AAA"/>
<path d="M209.27 127.869H157.972V130.157H209.27V127.869Z" fill="#949AAA"/>
<path d="M228.912 204.148H157.972V206.437H228.912V204.148Z" fill="#D1D3D4"/>
<path d="M228.912 211.014H157.972V213.303H228.912V211.014Z" fill="#D1D3D4"/>
<path d="M219.758 217.117H157.972V219.405H219.758V217.117Z" fill="#D1D3D4"/>
<path d="M178.763 152.553L186.357 144.905L194.774 152.546L209.292 133.979L222.718 150.915L179.221 153.631L178.763 152.553Z" fill="#F37C18"/>
<path d="M224.505 146.566L215.428 137.555L204.378 147.45L194.875 140.554L185.138 152.662L172.812 145.99L167.328 155.009L223.594 154.38L224.505 146.566Z" fill="#FFD121"/>
<path d="M167.328 155.529C167.235 155.529 167.141 155.504 167.056 155.453C166.81 155.303 166.731 154.981 166.881 154.734L172.365 145.715C172.511 145.477 172.816 145.394 173.061 145.527L185.003 151.992L194.467 140.224C194.643 140.007 194.957 139.965 195.182 140.129L204.343 146.777L215.079 137.163C215.285 136.978 215.6 136.986 215.796 137.182L224.874 146.192C225.079 146.396 225.081 146.727 224.877 146.932C224.674 147.137 224.342 147.139 224.137 146.935L215.409 138.271L204.726 147.837C204.542 148.001 204.269 148.016 204.07 147.871L194.97 141.268L185.545 152.987C185.388 153.184 185.111 153.239 184.889 153.119L173.001 146.683L167.775 155.277C167.676 155.44 167.504 155.529 167.328 155.529Z" fill="white"/>
<path d="M160.342 157.068L167.781 149.516L172.36 153.174L179.218 147.223L186.082 152.252L199.456 142.466L210.823 150.895L225.877 143.999L225.884 157.037L160.342 157.068Z" fill="#0A81E4"/>
<path d="M77.348 205.882L77.3452 213.609L86.8656 216.51L86.8708 202.988L77.348 205.882Z" fill="#FFD199"/>
<path d="M183.982 211.952H86.8672V216.518H183.982V211.952Z" fill="#0A81E4"/>
<path d="M183.984 207.562H86.8701V212.13H183.984V207.562Z" fill="#0A81E4"/>
<path d="M183.987 203.003L183.985 207.569L86.8708 207.555L86.8696 202.988L183.987 203.003Z" fill="#0A81E4"/>
<path d="M179.74 165.586H175.414V169.913H179.74V165.586Z" fill="#0A81E4"/>
<path d="M211.471 166.542H183.585V168.957H211.471V166.542Z" fill="#949AAA"/>
<path d="M179.739 172.596H175.413V176.923H179.739V172.596Z" fill="white"/>
<path d="M193.386 173.552H183.585V175.967H193.386V173.552Z" fill="#949AAA"/>
<path d="M179.739 179.606H175.413V183.933H179.739V179.606Z" fill="#FFD121"/>
<path d="M205.928 180.562H183.585V182.977H205.928V180.562Z" fill="#949AAA"/>
<path d="M102.806 33.331C101.794 30.3197 103.753 26.5446 103.753 26.5446L95.6054 19.4028C95.6054 19.4028 92.3642 22.0516 89.1939 21.3973C87.3261 19.9009 84.595 20.1231 83.001 21.9405L103.061 39.5243C104.649 37.7129 104.517 34.989 102.806 33.331Z" fill="#F69C50"/>
<path d="M69.7928 208.891L69.792 210.59L77.3454 213.491L77.3466 206L69.7928 208.891Z" fill="#0A81E4"/>
<path d="M128.393 84.3546L132.127 86.417L132.171 86.3639L126.275 81.6167L120.232 89.1198L122.871 91.245L128.393 84.3546Z" fill="#26334B"/>
<path d="M120.233 89.1201L118.624 87.8247L111.283 96.9418C109.608 95.6727 107.218 95.9549 105.891 97.6021L79.3062 130.858C77.954 132.537 78.2194 134.993 79.8977 136.345L84.0502 139.689L113.833 102.523L115.555 100.375L122.01 92.3197L122.871 91.2453L120.233 89.1201Z" fill="#546179"/>
<path d="M122.872 91.2444L126.128 93.8668L132.128 86.4164L128.393 84.354L122.872 91.2444Z" fill="#26334B"/>
<path d="M120.396 104.28L127.737 95.1624L126.129 93.8674L122.872 91.2446L122.011 92.319L115.556 100.374L113.834 102.522L84.0508 139.688L88.8291 143.535C90.5071 144.887 92.9636 144.621 94.315 142.944L120.9 109.687C122.226 108.04 121.992 105.646 120.396 104.28Z" fill="#546179"/>
<path d="M121.599 31.4618C108.131 48.187 110.771 72.6648 127.496 86.1338C144.223 99.6031 168.7 96.9623 182.169 80.237C195.638 63.5114 192.998 39.0336 176.272 25.5639C159.547 12.0957 135.068 14.7357 121.599 31.4618ZM125.62 34.6989C137.301 20.1935 158.529 17.9033 173.035 29.5844C187.54 41.2655 189.83 62.4941 178.148 76.9995C166.468 91.5053 145.239 93.7943 130.734 82.1132C116.229 70.4325 113.939 49.2047 125.62 34.6989Z" fill="#546179"/>
<circle cx="151.833" cy="56.0234" r="34.5737" fill="white" fill-opacity="0.6"/>
</svg>
