<svg width="340" height="295" viewBox="0 0 340 295" fill="none" xmlns="http://www.w3.org/2000/svg">
<ellipse cx="180.168" cy="140.247" rx="131.626" ry="118.15" transform="rotate(-10.5467 180.168 140.247)" fill="#2A3958"/>
<path d="M158 63.3871H163.753C164.555 63.3871 165.313 63.4588 166.028 63.6022C166.743 63.7455 167.362 63.9964 167.887 64.3548C168.427 64.6989 168.85 65.172 169.156 65.7742C169.477 66.362 169.637 67.1075 169.637 68.0108C169.637 68.8996 169.491 69.6452 169.2 70.2473C168.908 70.8495 168.507 71.3297 167.997 71.6882C167.486 72.0466 166.881 72.3047 166.181 72.4624C165.481 72.6057 164.723 72.6774 163.906 72.6774H161.412V78.6129H158V63.3871ZM161.412 69.8387H163.687C163.994 69.8387 164.285 69.81 164.562 69.7527C164.854 69.6953 165.109 69.6022 165.328 69.4731C165.561 69.3297 165.744 69.1434 165.875 68.914C166.021 68.6703 166.094 68.3692 166.094 68.0108C166.094 67.6237 165.999 67.3154 165.809 67.086C165.634 66.8423 165.401 66.6559 165.109 66.5269C164.832 66.3978 164.519 66.319 164.169 66.2903C163.819 66.2473 163.483 66.2258 163.162 66.2258H161.412V69.8387Z" fill="#E8EBF5"/>
<path d="M175.585 72.1183L169.766 63.3871H174.01L177.291 69.086L180.769 63.3871H184.816L178.997 72.1183V78.6129H175.585V72.1183Z" fill="#E8EBF5"/>
<path d="M188.96 66.3548H184.541V63.3871H196.791V66.3548H192.372V78.6129H188.96V66.3548Z" fill="#E8EBF5"/>
<path d="M198.524 63.3871H201.936V69.0645H208.564V63.3871H211.976V78.6129H208.564V72.0323H201.936V78.6129H198.524V63.3871Z" fill="#E8EBF5"/>
<path d="M214.291 71C214.291 69.7814 214.495 68.6774 214.903 67.6882C215.326 66.6989 215.909 65.8602 216.653 65.172C217.397 64.4695 218.279 63.9319 219.3 63.5591C220.321 63.1864 221.436 63 222.647 63C223.857 63 224.973 63.1864 225.993 63.5591C227.014 63.9319 227.897 64.4695 228.64 65.172C229.384 65.8602 229.96 66.6989 230.368 67.6882C230.791 68.6774 231.003 69.7814 231.003 71C231.003 72.2186 230.791 73.3226 230.368 74.3118C229.96 75.3011 229.384 76.147 228.64 76.8495C227.897 77.5376 227.014 78.0681 225.993 78.4409C224.973 78.8136 223.857 79 222.647 79C221.436 79 220.321 78.8136 219.3 78.4409C218.279 78.0681 217.397 77.5376 216.653 76.8495C215.909 76.147 215.326 75.3011 214.903 74.3118C214.495 73.3226 214.291 72.2186 214.291 71ZM217.834 71C217.834 71.7168 217.944 72.3763 218.162 72.9785C218.396 73.5663 218.724 74.0824 219.147 74.5269C219.57 74.957 220.073 75.2939 220.656 75.5376C221.254 75.7814 221.917 75.9032 222.647 75.9032C223.376 75.9032 224.032 75.7814 224.615 75.5376C225.213 75.2939 225.724 74.957 226.147 74.5269C226.569 74.0824 226.89 73.5663 227.109 72.9785C227.342 72.3763 227.459 71.7168 227.459 71C227.459 70.2975 227.342 69.6452 227.109 69.043C226.89 68.4409 226.569 67.9247 226.147 67.4946C225.724 67.0502 225.213 66.7061 224.615 66.4624C224.032 66.2186 223.376 66.0968 222.647 66.0968C221.917 66.0968 221.254 66.2186 220.656 66.4624C220.073 66.7061 219.57 67.0502 219.147 67.4946C218.724 67.9247 218.396 68.4409 218.162 69.043C217.944 69.6452 217.834 70.2975 217.834 71Z" fill="#E8EBF5"/>
<path d="M233.322 63.3871H237.96L244.544 73.9677H244.588V63.3871H248V78.6129H243.538L236.778 67.7742H236.735V78.6129H233.322V63.3871Z" fill="#E8EBF5"/>
<path d="M251.542 234.896C267.605 220.512 280.316 230.424 280.316 230.424C280.316 230.424 273.911 212.551 289.333 199.055C295.45 193.703 245.487 240.318 251.542 234.896Z" fill="#2A3958"/>
<path d="M112.837 76.7319C112.346 77.0258 111.803 77.2063 110.951 77.0045C110.091 76.7989 109.702 76.3953 109.392 75.9108C108.918 75.0213 109.06 74.0009 109.334 72.8551C109.603 71.7213 109.935 70.7353 110.764 70.1543C111.255 69.8616 111.787 69.6767 112.647 69.8829C113.502 70.086 113.901 70.4928 114.21 70.9754C114.685 71.8661 114.542 72.8978 114.268 74.0316C113.997 75.1768 113.664 76.1514 112.837 76.7319ZM112.856 71.6736C112.807 71.3621 112.605 71.1916 112.351 71.1315C112.089 71.0682 111.841 71.1321 111.658 71.3872C111.468 71.6655 111.247 72.2772 111.01 73.255C110.778 74.2416 110.701 74.8797 110.743 75.2119C110.793 75.5221 110.988 75.6908 111.252 75.7541C111.504 75.8136 111.761 75.7541 111.944 75.4977C112.133 75.22 112.353 74.6183 112.589 73.6305C112.822 72.6539 112.899 72.0058 112.856 71.6736Z" fill="#00001F"/>
<path d="M253.592 202.856H211.118V206.302H253.592V202.856Z" fill="#E8EBF5"/>
<path d="M298.611 202.857H259.808V206.303H298.611V202.857Z" fill="#2BD8BC"/>
<path d="M221.307 212.199H211.118V215.645H221.307V212.199Z" fill="#1096D7"/>
<path d="M284.816 212.199H259.546V215.645H284.816V212.199Z" fill="#1096D7"/>
<path d="M255.179 212.199H224.614V215.645H255.179V212.199Z" fill="#FED602"/>
<path d="M262.322 220.229H252.134V223.675H262.322V220.229Z" fill="#1096D7"/>
<path d="M248.826 220.229H211.118V223.675H248.826V220.229Z" fill="#F37C18"/>
<path d="M288.195 185.387H244.071V188.833H288.195V185.387Z" fill="#E8EBF5"/>
<path d="M264.844 170.013H254.655V173.459H264.844V170.013Z" fill="#1096D7"/>
<path d="M250.549 170.014H212.84V173.46H250.549V170.014Z" fill="#F37C18"/>
<path d="M291.862 177.42H281.677V180.867H291.862V177.42Z" fill="#1096D7"/>
<path d="M278.433 177.42H247.868V180.867H278.433V177.42Z" fill="#E8EBF5"/>
<path d="M243.405 177.421H212.841V180.867H243.405V177.421Z" fill="#FED602"/>
<path d="M137.526 67.2145L134.55 64.7744V69.1908L137.526 67.2145Z" fill="#E07114"/>
<path d="M111.706 64.7744L108.727 67.2145L111.706 69.1908V64.7744Z" fill="#E07114"/>
<path d="M111.706 56.6172V64.7749V69.1913L123.125 76.7817L134.55 69.1913V64.7749V56.6172H111.706Z" fill="#DADEE8"/>
<path d="M132.457 83.6755L123.125 76.7808L113.797 83.6755L108.727 87.4243H137.526L132.457 83.6755Z" fill="#E07114"/>
<path d="M132.712 62.8096H113.547V64.5389H132.712V62.8096Z" fill="#BABFCA"/>
<path d="M132.712 66.3501H113.547V68.08H132.712V66.3501Z" fill="#BABFCA"/>
<path d="M132.712 59.27H113.547V61.0037H132.712V59.27Z" fill="#BABFCA"/>
<path d="M132.712 69.8472H113.547V71.5809H132.712V69.8472Z" fill="#BABFCA"/>
<path d="M132.712 73.2012H113.547V74.9324H132.712V73.2012Z" fill="#BABFCA"/>
<path d="M111.706 69.1906L108.727 67.2144V87.4246L113.797 83.6758L123.125 76.7811L111.706 69.1906Z" fill="#F37C18"/>
<path d="M134.55 69.1906L123.125 76.7811L132.457 83.6758L137.526 87.4246V67.2144L134.55 69.1906Z" fill="#F37C18"/>
<path d="M61.7034 159.151C60.2936 159.151 59.7531 160.513 59.7531 163.067C59.7531 165.453 60.5724 166.647 61.9989 166.647C63.1304 166.647 64.0325 166.042 64.7863 165.487C65.2941 165.841 65.8679 166.58 65.9823 167.219C65.0485 168.16 63.3276 169 61.524 169C58.0649 169 56.9995 165.941 56.9995 163.05C56.9995 158.815 59.1787 157 61.7862 157C64.3275 157 65.9995 158.529 65.9995 160.496C65.9995 161.555 65.4418 161.991 64.5075 161.991C64.1147 161.991 63.8192 161.925 63.5076 161.841C63.5404 160.445 63.1466 159.151 61.7034 159.151Z" fill="#FCD740"/>
<path d="M67.9593 165.735C68.8282 166.307 69.9907 166.829 71.1075 166.829C72.0063 166.829 72.3635 166.273 72.3635 165.718C72.3635 165.364 72.2395 164.877 71.3854 164.472L69.5568 163.631C68.285 163.009 67.3394 162.133 67.3394 160.518C67.3394 158.414 69.0141 157 71.1075 157C72.5805 157 73.9447 157.521 74.7511 157.959C74.7038 158.733 74.3939 159.508 73.9137 159.979C73.1221 159.575 71.9448 159.154 71.1232 159.154C70.2239 159.154 69.8835 159.709 69.8835 160.147C69.8835 160.585 70.1152 160.905 70.7975 161.208L72.6577 162.066C74.1469 162.772 74.9995 163.934 74.9995 165.399C74.9995 167.435 73.6343 169 70.9225 169C69.6655 169 68.1468 168.545 66.9995 167.754C67.06 166.998 67.4802 166.19 67.9593 165.735Z" fill="#FCD740"/>
<path d="M76.9608 165.735C77.8292 166.307 78.9907 166.829 80.108 166.829C81.0078 166.829 81.3625 166.273 81.3625 165.718C81.3625 165.364 81.2395 164.877 80.3869 164.472L78.5573 163.631C77.2855 163.009 76.3394 162.133 76.3394 160.518C76.3394 158.414 78.0146 157 80.108 157C81.58 157 82.9452 157.521 83.7511 157.959C83.7038 158.733 83.3944 159.508 82.9142 159.979C82.1236 159.575 80.9453 159.154 80.1227 159.154C79.2234 159.154 78.884 159.709 78.884 160.147C78.884 160.585 79.1162 160.905 79.7986 161.208L81.6587 162.066C83.1469 162.772 83.9995 163.934 83.9995 165.399C83.9995 167.435 82.6358 169 79.922 169C78.6665 169 77.1468 168.545 75.9995 167.754C76.061 166.998 76.4792 166.19 76.9608 165.735Z" fill="#FCD740"/>
<path d="M118.046 241.011C117.738 241.011 117.431 241.001 117.128 240.983C116.994 240.975 116.888 240.866 116.884 240.732L116.826 238.792C115.636 238.684 114.474 238.411 113.363 237.98L112.446 239.693C112.4 239.779 112.311 239.83 112.218 239.83C112.184 239.83 112.149 239.823 112.116 239.809C111.303 239.461 110.516 239.038 109.776 238.553C109.665 238.479 109.627 238.332 109.69 238.214L110.607 236.5C109.671 235.839 108.828 235.058 108.094 234.172L106.456 235.213C106.413 235.24 106.365 235.253 106.317 235.253C106.239 235.253 106.162 235.218 106.112 235.152C105.563 234.44 105.081 233.688 104.68 232.915C104.619 232.796 104.658 232.65 104.771 232.578L106.412 231.533C105.872 230.398 105.504 229.2 105.315 227.962C105.315 227.962 103.369 228.021 103.366 228.021C103.236 228.021 103.125 227.923 103.109 227.792C103.054 227.327 103.02 226.893 103.006 226.468C102.994 226.038 103.002 225.604 103.029 225.137C103.037 225.004 103.146 224.898 103.28 224.894L105.219 224.835C105.328 223.646 105.6 222.483 106.03 221.373L104.318 220.456C104.2 220.393 104.15 220.249 104.202 220.126C104.55 219.313 104.974 218.526 105.46 217.786C105.51 217.71 105.592 217.669 105.677 217.669C105.718 217.669 105.76 217.679 105.799 217.699L107.512 218.617C108.172 217.679 108.954 216.835 109.841 216.105L108.798 214.467C108.726 214.353 108.752 214.204 108.859 214.122C109.572 213.573 110.325 213.091 111.096 212.689C111.134 212.669 111.175 212.66 111.215 212.66C111.301 212.66 111.385 212.703 111.434 212.78L112.48 214.423C113.611 213.882 114.81 213.513 116.05 213.325L115.991 211.385C115.986 211.251 116.085 211.136 116.218 211.119C116.671 211.065 117.116 211.03 117.542 211.017C117.686 211.013 117.829 211.011 117.972 211.011C118.276 211.011 118.576 211.021 118.875 211.039C119.009 211.048 119.114 211.156 119.118 211.29L119.177 213.23C120.366 213.339 121.528 213.611 122.638 214.042L123.554 212.329C123.6 212.242 123.69 212.192 123.783 212.192C123.817 212.192 123.851 212.199 123.884 212.213C124.698 212.561 125.485 212.984 126.225 213.471C126.337 213.544 126.374 213.691 126.311 213.809L125.395 215.522C126.333 216.183 127.177 216.966 127.907 217.852L129.547 216.81C129.59 216.783 129.638 216.77 129.686 216.77C129.764 216.77 129.84 216.805 129.891 216.871C130.438 217.582 130.92 218.335 131.322 219.107C131.384 219.226 131.345 219.373 131.232 219.445L129.588 220.491C130.129 221.625 130.498 222.824 130.686 224.06C130.686 224.06 132.633 224.002 132.635 224.002C132.766 224.002 132.877 224.1 132.893 224.231C132.949 224.707 132.982 225.14 132.995 225.554C133.007 225.978 133 226.413 132.973 226.885C132.966 227.019 132.856 227.125 132.723 227.129L130.782 227.188C130.673 228.378 130.401 229.54 129.969 230.65L131.682 231.568C131.801 231.632 131.851 231.775 131.798 231.898C131.45 232.713 131.027 233.5 130.542 234.237C130.493 234.312 130.411 234.353 130.326 234.353C130.284 234.353 130.242 234.343 130.204 234.323L128.491 233.406C127.829 234.344 127.047 235.188 126.161 235.918L127.202 237.557C127.274 237.67 127.248 237.819 127.142 237.901C126.431 238.45 125.678 238.932 124.904 239.332C124.866 239.352 124.826 239.361 124.785 239.361C124.699 239.361 124.616 239.318 124.566 239.241L123.523 237.6C122.388 238.14 121.189 238.509 119.951 238.697L120.01 240.639C120.014 240.773 119.915 240.888 119.781 240.904C119.306 240.959 118.873 240.993 118.457 241.005C118.319 241.009 118.183 241.011 118.046 241.011ZM117.718 216.702C112.585 216.858 108.537 221.16 108.692 226.293C108.847 231.356 112.934 235.323 117.996 235.323C118.092 235.323 118.188 235.322 118.284 235.319C120.77 235.244 123.078 234.205 124.783 232.392C126.488 230.58 127.385 228.214 127.309 225.727C127.155 220.664 123.068 216.698 118.006 216.698C117.911 216.698 117.814 216.699 117.718 216.702Z" fill="#2BD8BC"/>
<path d="M169.866 219.891L167.63 219.357C167.672 218.63 167.654 217.901 167.574 217.176L169.781 216.524L170.671 216.261L170.413 215.353L169.741 212.988L169.483 212.08L168.593 212.343L166.389 212.994C166.058 212.3 165.667 211.638 165.218 211.016L166.809 209.33L167.453 208.649L166.785 207.994L165.047 206.286L164.379 205.63L163.736 206.311L162.145 207.997C161.469 207.528 160.751 207.129 159.999 206.805L160.523 204.527L160.735 203.606L159.832 203.39L157.481 202.828L156.578 202.613L156.367 203.533L155.843 205.814C155.595 205.799 155.347 205.792 155.1 205.792C154.635 205.792 154.168 205.818 153.705 205.871L153.066 203.621L152.808 202.712L151.918 202.975L149.6 203.661L148.71 203.923L148.967 204.831L149.606 207.078C148.924 207.417 148.275 207.817 147.666 208.274L146.013 206.65L145.345 205.995L144.703 206.675L143.028 208.449L142.386 209.129L143.053 209.785L144.706 211.409C144.246 212.099 143.855 212.831 143.537 213.598L141.304 213.063L140.402 212.848L140.19 213.768L139.638 216.165L139.427 217.085L140.329 217.301L142.565 217.836C142.524 218.563 142.542 219.292 142.622 220.017L140.415 220.668L139.525 220.931L139.783 221.84L140.456 224.205L140.714 225.112L141.604 224.85L143.807 224.198C144.138 224.893 144.53 225.554 144.979 226.176L143.387 227.863L142.745 228.543L143.412 229.199L145.149 230.907L145.817 231.562L146.46 230.881L148.051 229.196C148.728 229.665 149.445 230.063 150.197 230.388L149.673 232.665L149.462 233.586L150.364 233.802L152.715 234.364L153.617 234.579L153.829 233.659L154.352 231.378C154.6 231.393 154.847 231.4 155.094 231.4C155.56 231.4 156.027 231.373 156.491 231.321L157.13 233.571L157.387 234.479L158.277 234.216L160.596 233.531L161.486 233.268L161.228 232.36L160.589 230.113C161.269 229.776 161.918 229.376 162.529 228.918L164.182 230.542L164.849 231.197L165.492 230.516L167.167 228.743L167.81 228.062L167.142 227.407L165.489 225.783C165.948 225.094 166.339 224.362 166.658 223.594L168.891 224.128L169.794 224.344L170.005 223.423L170.555 221.026L170.766 220.106L169.866 219.891ZM161.664 222.273C160.348 224.719 157.829 226.238 155.09 226.238C153.841 226.238 152.597 225.912 151.495 225.295C149.741 224.313 148.467 222.693 147.907 220.733C147.348 218.774 147.57 216.71 148.533 214.921C149.849 212.475 152.367 210.956 155.106 210.955C156.356 210.955 157.599 211.282 158.703 211.9C162.322 213.927 163.651 218.58 161.664 222.273Z" fill="white"/>
<path d="M320.443 123.839H279.561V161.061H320.443V123.839Z" fill="#F37C18"/>
<path d="M316.476 147.638H283.526V157.401H316.476V147.638Z" fill="#E8EBF5"/>
<path d="M316.476 135.434H283.526V145.197H316.476V135.434Z" fill="#E8EBF5"/>
<path d="M315.155 133.145C314.999 133.145 314.844 133.086 314.724 132.967L309.538 127.78C309.299 127.542 309.299 127.156 309.538 126.917C309.776 126.679 310.163 126.679 310.4 126.917L315.588 132.104C315.825 132.342 315.825 132.729 315.588 132.967C315.468 133.086 315.311 133.145 315.155 133.145Z" fill="#081E39"/>
<path d="M309.967 133.145C309.812 133.145 309.655 133.085 309.537 132.966C309.298 132.728 309.298 132.341 309.537 132.103L314.723 126.916C314.962 126.678 315.349 126.678 315.587 126.916C315.824 127.155 315.824 127.541 315.587 127.78L310.399 132.966C310.281 133.085 310.124 133.145 309.967 133.145Z" fill="#081E39"/>
<path d="M307.222 133.089H301.121C300.815 133.089 300.565 132.841 300.565 132.534V127.653C300.565 127.347 300.814 127.098 301.121 127.098H307.222C307.528 127.098 307.777 127.347 307.777 127.653V132.534C307.777 132.841 307.528 133.089 307.222 133.089ZM301.676 131.98H306.668V128.208H301.676V131.98Z" fill="#081E39"/>
<path d="M298.68 133.096H293.799C293.492 133.096 293.245 132.848 293.245 132.542C293.245 132.235 293.492 131.987 293.799 131.987H298.68C298.986 131.987 299.235 132.235 299.235 132.542C299.235 132.848 298.986 133.096 298.68 133.096Z" fill="#081E39"/>
<path d="M263.373 102.52H199.074V161.063H263.373V102.52Z" fill="#0086F4"/>
<path d="M257.135 139.948H205.31V155.304H257.135V139.948Z" fill="#E8EBF5"/>
<path d="M257.135 120.753H205.31V136.109H257.135V120.753Z" fill="#E8EBF5"/>
<path d="M255.056 117.154C254.811 117.154 254.565 117.06 254.378 116.873L246.221 108.715C245.847 108.34 245.847 107.733 246.221 107.357C246.595 106.983 247.203 106.983 247.577 107.357L255.735 115.516C256.109 115.891 256.109 116.498 255.735 116.873C255.55 117.06 255.303 117.154 255.056 117.154Z" fill="#E8EBF5"/>
<path d="M246.898 117.154C246.654 117.154 246.409 117.06 246.222 116.873C245.848 116.498 245.848 115.891 246.222 115.516L254.379 107.357C254.753 106.983 255.363 106.983 255.736 107.357C256.11 107.733 256.11 108.34 255.736 108.715L247.578 116.873C247.392 117.06 247.144 117.154 246.898 117.154Z" fill="#E8EBF5"/>
<path d="M242.579 117.067H232.983C232.502 117.067 232.109 116.676 232.109 116.194V108.517C232.109 108.035 232.502 107.644 232.983 107.644H242.579C243.061 107.644 243.454 108.035 243.454 108.517V116.194C243.454 116.676 243.061 117.067 242.579 117.067ZM233.855 115.322H241.707V109.389H233.855V115.322Z" fill="#E8EBF5"/>
<path d="M229.145 117.067H221.466C220.984 117.067 220.594 116.676 220.594 116.194C220.594 115.713 220.984 115.322 221.466 115.322H229.145C229.628 115.322 230.018 115.712 230.018 116.194C230.018 116.676 229.627 117.067 229.145 117.067Z" fill="#E8EBF5"/>
<path d="M209.496 130.35C208.88 130.019 208.409 129.23 208.375 128.457L211.277 126.959C211.593 126.802 212.286 126.518 212.617 126.408V126.281C212.287 126.172 211.593 125.887 211.277 125.714L208.375 124.232C208.439 123.459 208.911 122.624 209.51 122.309L215.093 125.399C215.217 125.934 215.234 126.707 215.093 127.259L209.496 130.35Z" fill="#081E39"/>
<path d="M215.72 133.85C215.624 133.535 215.609 133.125 215.609 132.936C215.609 132.762 215.624 132.337 215.72 132.006H224.66C224.739 132.337 224.769 132.573 224.769 132.936C224.769 133.283 224.739 133.535 224.66 133.85H215.72Z" fill="#081E39"/>
<path d="M54.6731 94.3232H42.5791V98.4143H54.6731V94.3232Z" fill="#1096D7"/>
<path d="M110.849 94.3232H98.748V98.4143H110.849V94.3232Z" fill="#1096D7"/>
<path d="M94.8995 94.3232H58.6025V98.4143H94.8995V94.3232Z" fill="#E8EBF5"/>
<path d="M147.049 157.15H134.952V161.242H147.049V157.15Z" fill="#2BD8BC"/>
<path d="M129.925 157.15H97.6333V161.242H129.925V157.15Z" fill="#E8EBF5"/>
<path d="M108.823 165.796H96.7236V169.888H108.823V165.796Z" fill="#1096D7"/>
<path d="M160.123 165.797H148.02V169.889H160.123V165.797Z" fill="#F37C18"/>
<path d="M145.041 165.797H112.752V169.889H145.041V165.797Z" fill="#E8EBF5"/>
<path d="M108.822 174.375H96.7231V178.467H108.822V174.375Z" fill="#1096D7"/>
<path d="M160.123 174.375H148.02V178.467H160.123V174.375Z" fill="#F37C18"/>
<path d="M145.041 174.375H112.752V178.467H145.041V174.375Z" fill="#E8EBF5"/>
<path d="M86.5958 192.509H74.4937V196.602H86.5958V192.509Z" fill="#1096D7"/>
<path d="M139.939 192.51H127.842V196.603H139.939V192.51Z" fill="#1096D7"/>
<path d="M122.81 192.51H90.5205V196.603H122.81V192.51Z" fill="#E8EBF5"/>
<path d="M130.67 183.557H118.563V187.648H130.67V183.557Z" fill="#1096D7"/>
<path d="M184.01 183.557H171.913V187.648H184.01V183.557Z" fill="#1096D7"/>
<path d="M166.88 183.557H134.595V187.648H166.88V183.557Z" fill="#E8EBF5"/>
<path d="M91.552 139.508H81.811V143.6H91.552V139.508Z" fill="#FED602"/>
<path d="M155.315 139.51H143.212V143.601H155.315V139.51Z" fill="#FED602"/>
<path d="M138.186 139.508H97.7158V143.6H138.186V139.508Z" fill="#FED602"/>
<path d="M104.799 122.992H92.7002V127.084H104.799V122.992Z" fill="#1096D7"/>
<path d="M89.8712 122.994H71.2485V127.086H89.8712V122.994Z" fill="#F37C18"/>
<path d="M149.266 131.172H96.8613V135.265H149.266V131.172Z" fill="#F37C18"/>
<path d="M146.435 111.353H70.8604V115.445H146.435V111.353Z" fill="#E8EBF5"/>
<path d="M193.573 111.35H153.194V115.442H193.573V111.35Z" fill="#F37C18"/>
<path d="M9.74098 102.875H0V106.965H9.74098V102.875Z" fill="#2BD8BC"/>
<path d="M123.809 102.875H113.868V106.965H123.809V102.875Z" fill="#1096D7"/>
<path d="M51.5341 102.875H13.9805V106.965H51.5341V102.875Z" fill="#F37C18"/>
<path d="M108.413 102.875H56.0103V106.965H108.413V102.875Z" fill="#E8EBF5"/>
<path d="M304.761 256.471C296.883 256.471 290.497 250.165 290.497 242.386V233.22C290.497 226.008 296.417 220.163 303.721 220.163H305.801C313.105 220.163 319.025 226.008 319.025 233.22V242.386C319.025 250.165 312.639 256.471 304.761 256.471Z" fill="#FCD0AE"/>
<path d="M305.822 248.091H303.826C303.331 248.091 302.931 247.659 302.931 247.127V243.104C302.931 242.572 303.331 242.141 303.826 242.141C304.32 242.141 304.721 242.572 304.721 243.104V246.164H305.822C306.316 246.164 306.717 246.595 306.717 247.127C306.717 247.659 306.317 248.091 305.822 248.091Z" fill="#E59F6A"/>
<path d="M309.131 260.361H299.093C292.197 260.361 286.606 265.755 286.606 272.409V284.059C286.606 284.578 287.042 284.999 287.58 284.999H320.644C321.182 284.999 321.618 284.578 321.618 284.059V272.409C321.618 265.755 316.028 260.361 309.131 260.361Z" fill="#FCD740"/>
<path d="M319.025 233.09V242.207C298.623 240.448 296.899 229.69 296.899 229.69V236.571H290.497V233.09C290.497 225.95 296.417 220.163 303.721 220.163H305.801C313.105 220.163 319.025 225.95 319.025 233.09Z" fill="#2A3958"/>
<path d="M309.948 260.598C309.235 260.444 308.496 260.361 307.738 260.361H299.19C298.432 260.361 297.693 260.444 296.98 260.598C297.492 264.56 300.013 267.874 303.464 269.438C306.915 267.874 309.436 264.56 309.948 260.598Z" fill="#EBEEF2"/>
<path d="M274.187 281.589V284.512C274.187 284.907 274.83 285.227 275.623 285.227H275.81C280.151 285.227 283.67 286.98 283.67 289.142V294.751H324.248V289.142C324.248 286.98 327.767 285.227 332.108 285.227H332.296C333.089 285.227 333.732 284.907 333.732 284.512V281.589H274.187Z" fill="#58647B"/>
<path d="M267.919 279.093V284.084C267.919 284.783 268.473 285.349 269.157 285.349H338.762C339.446 285.349 340 284.783 340 284.084V279.093C340 278.394 339.446 277.828 338.762 277.828H269.157C268.473 277.828 267.919 278.394 267.919 279.093Z" fill="#2A3958"/>
<path d="M300.244 42.2345C288.86 40.8341 278.449 49.0397 277.036 60.5263C276.169 67.5742 278.858 74.5202 284.23 79.1067C284.47 79.3118 284.641 79.5872 284.72 79.8947L286.28 85.9555L303.195 88.0364L306.177 82.5342C306.328 82.2551 306.561 82.0296 306.844 81.8886C313.167 78.7408 317.459 72.6536 318.326 65.6057C319.739 54.1192 311.627 43.6349 300.244 42.2345Z" fill="#FFD00D"/>
<path d="M295.673 79.3585C286.64 78.2473 280.197 69.9813 281.31 60.9327C282.423 51.884 290.678 45.426 299.711 46.5372C308.744 47.6485 315.187 55.9146 314.074 64.9632C312.961 74.0119 304.706 80.4697 295.673 79.3585Z" fill="#F37C18"/>
<path d="M295.871 75.497C289.096 74.6635 284.263 68.464 285.098 61.6776C285.933 54.8909 292.124 50.0476 298.899 50.881C305.674 51.7145 310.506 57.914 309.671 64.7005C308.837 71.4871 302.646 76.3304 295.871 75.497Z" fill="white"/>
<path d="M296.888 71.7333C301.563 72.3084 305.819 68.9784 306.395 64.2957C306.971 59.613 303.649 55.3507 298.974 54.7756C294.299 54.2006 290.043 57.5305 289.467 62.2132C288.891 66.8959 292.213 71.1582 296.888 71.7333Z" fill="#F37C18"/>
<path d="M297.221 66.777C295.113 66.5177 293.61 64.5891 293.869 62.4777C294.129 60.3661 296.055 58.8594 298.163 59.1187C300.271 59.3779 301.774 61.3065 301.514 63.4181C301.255 65.5296 299.329 67.0363 297.221 66.777Z" fill="white"/>
<path d="M287.521 100.567L287.159 103.506C287.062 104.297 287.636 105.024 288.436 105.122L296.45 106.108C297.249 106.207 297.983 105.64 298.08 104.85L298.442 101.911L287.521 100.567Z" fill="#999999"/>
<path d="M303.994 101.844C303.944 102.25 303.569 102.542 303.161 102.492L282.802 99.9872C282.394 99.937 282.101 99.5632 282.151 99.1566L283.719 86.4126C283.769 86.006 284.144 85.7144 284.552 85.7646L304.911 88.2691C305.319 88.3193 305.612 88.6931 305.562 89.0997L303.994 101.844Z" fill="#999999"/>
<path d="M304.894 93.8783L282.603 91.1354C281.992 91.0603 281.559 90.4979 281.635 89.8791C281.711 89.2602 282.268 88.8197 282.879 88.8949L305.169 91.6378C305.78 91.713 306.214 92.2753 306.137 92.8942C306.061 93.5128 305.504 93.9535 304.894 93.8783Z" fill="#58647B"/>
<path d="M304.304 98.6693L282.013 95.9265C281.402 95.8513 280.969 95.2889 281.045 94.6701C281.121 94.0512 281.678 93.6107 282.289 93.6859L304.579 96.4288C305.19 96.504 305.624 97.0663 305.548 97.6852C305.471 98.304 304.915 98.7445 304.304 98.6693Z" fill="#58647B"/>
<path d="M297.52 61.8321L278.767 59.5244L279.396 60.4057C279.539 60.6067 279.503 60.9023 279.315 61.0625L278.492 61.765L297.245 64.0727C297.856 64.1478 298.412 63.7073 298.488 63.0885C298.565 62.4696 298.131 61.9072 297.52 61.8321Z" fill="#4F5FFF"/>
<path d="M269.058 63.3119C268.812 63.2816 268.769 63.1317 268.963 62.979L272.532 60.173C272.726 60.0203 272.761 59.7356 272.609 59.5403L269.827 55.9536C269.676 55.7582 269.754 55.6233 270 55.6536L276.284 56.4266C276.53 56.457 276.851 56.6449 276.997 56.8444L279.586 60.3896C279.732 60.589 279.696 60.8818 279.506 61.04L276.135 63.8521C275.945 64.0105 275.588 64.1151 275.342 64.0848L269.058 63.3119Z" fill="#4F5FFF"/>
</svg>
