<svg width="166" height="37" viewBox="0 0 166 37" fill="none" xmlns="http://www.w3.org/2000/svg">
<path fill-rule="evenodd" clip-rule="evenodd" d="M54.8972 26.0874C53.7318 24.8116 53.1076 23.0653 53.0248 20.8484C53.0072 20.3735 53 19.5997 53 18.5272C53 17.4361 53.0072 16.6439 53.0248 16.1516C53.1076 13.9347 53.7318 12.1884 54.8972 10.9126C56.0617 9.6379 57.7591 9 59.9876 9C61.478 9 62.7439 9.27711 63.7831 9.83133C64.8212 10.3856 65.6048 11.1115 66.1326 12.008C66.6605 12.9056 66.9503 13.8641 67 14.8845C67 15.0432 66.9462 15.1714 66.8365 15.267C66.7278 15.3648 66.5984 15.4127 66.4473 15.4127H65.1907C65.0231 15.4127 64.8885 15.3692 64.7881 15.2801C64.6877 15.1931 64.6122 15.0432 64.5614 14.8324C64.2768 13.4772 63.7613 12.5275 63.0161 11.9819C62.2698 11.4364 61.2607 11.1636 59.9876 11.1636C57.0719 11.1636 55.5545 12.8709 55.4375 16.2831C55.4199 16.7591 55.4127 17.4894 55.4127 18.4739C55.4127 19.4596 55.4199 20.2072 55.4375 20.7169C55.5545 24.1128 57.0719 25.8103 59.9876 25.8103C61.2441 25.8103 62.2502 25.5386 63.0037 24.992C63.7582 24.4465 64.2768 23.5065 64.5614 22.1687C64.6122 21.9568 64.6877 21.809 64.7881 21.7199C64.8885 21.6319 65.0231 21.5884 65.1907 21.5884H66.4473C66.5984 21.5884 66.7278 21.6362 66.8365 21.733C66.9462 21.8297 67 21.9568 67 22.1155C66.9503 23.137 66.6605 24.0955 66.1326 24.992C65.6048 25.8896 64.8212 26.6155 63.7831 27.1698C62.7439 27.724 61.478 28 59.9876 28C57.7591 28 56.0617 27.3632 54.8972 26.0874Z" fill="#29354C"/>
<path fill-rule="evenodd" clip-rule="evenodd" d="M76.5842 25.0056C77.2237 24.3063 77.5693 23.2996 77.6209 21.9855C77.6378 21.8136 77.6462 21.4848 77.6462 21.0001C77.6462 20.5165 77.6378 20.1887 77.6209 20.0147C77.5693 18.7016 77.2237 17.6949 76.5842 16.9946C75.9447 16.2954 75.0787 15.9452 73.9872 15.9452C72.8957 15.9452 72.0297 16.2954 71.3902 16.9946C70.7507 17.6949 70.4051 18.7016 70.3546 20.0147L70.3293 21.0001L70.3546 21.9855C70.4051 23.2996 70.7507 24.3063 71.3902 25.0056C72.0297 25.7059 72.8957 26.0561 73.9872 26.0561C75.0787 26.0561 75.9447 25.7059 76.5842 25.0056ZM69.6509 26.3933C68.6363 25.3215 68.0938 23.8952 68.0253 22.1145L68 21L68.0253 19.8855C68.0938 18.1058 68.6437 16.6796 69.6762 15.6077C70.7076 14.537 72.1457 14 73.9874 14C75.829 14 77.2671 14.537 78.2985 15.6077C79.3299 16.6796 79.8809 18.1058 79.9484 19.8855C79.9831 20.2655 80 20.637 80 21C80 21.364 79.9831 21.7356 79.9484 22.1145C79.8809 23.8952 79.3384 25.3215 78.3238 26.3933C77.3092 27.4652 75.8637 28 73.9874 28C72.111 28 70.6655 27.4652 69.6509 26.3933Z" fill="#29354C"/>
<path fill-rule="evenodd" clip-rule="evenodd" d="M90.692 24.7152C91.2895 23.897 91.6147 22.9255 91.6665 21.7997C91.6833 21.6063 91.6918 21.2716 91.6918 20.7968C91.6918 20.3045 91.6833 19.9611 91.6665 19.7677C91.6316 18.6941 91.3033 17.7661 90.6793 16.9826C90.0543 16.2013 89.1611 15.808 87.9997 15.808C86.7697 15.808 85.8723 16.2046 85.3075 16.9957C84.7437 17.7879 84.4365 18.8256 84.3847 20.11L84.3594 20.875C84.3594 24.2534 85.5725 25.9431 87.9997 25.9431C89.1959 25.9431 90.0933 25.5335 90.692 24.7152ZM83.4739 26.2059C82.5775 25.0096 82.094 23.4969 82.0253 21.667L82 20.8749L82.0253 20.0838C82.094 18.2723 82.5807 16.763 83.4876 15.5579C84.3935 14.3528 85.7354 13.7497 87.5122 13.7497C89.2902 13.7497 90.6743 14.4017 91.6667 15.7035V9.60743C91.6667 9.4314 91.7216 9.28579 91.8335 9.17169C91.9444 9.05759 92.0859 9 92.2569 9H93.4098C93.5809 9 93.7223 9.05759 93.8332 9.17169C93.944 9.28579 94 9.4314 94 9.60743V27.1296C94 27.3056 93.944 27.4512 93.8332 27.5643C93.7223 27.6794 93.5809 27.737 93.4098 27.737H92.3076C92.1355 27.737 91.9993 27.6794 91.8969 27.5643C91.7945 27.4512 91.7438 27.3056 91.7438 27.1296V25.9941C90.7693 27.3317 89.3588 28 87.5122 28C85.7185 28 84.3723 27.4023 83.4739 26.2059Z" fill="#29354C"/>
<path fill-rule="evenodd" clip-rule="evenodd" d="M96.4101 27.8278C96.2866 27.7132 96.226 27.567 96.226 27.3902V14.8305C96.226 14.6537 96.2866 14.5075 96.4101 14.3929C96.5325 14.2773 96.6887 14.2205 96.8775 14.2205H98.1223C98.3111 14.2205 98.4661 14.2773 98.5896 14.3929C98.712 14.5075 98.7726 14.6537 98.7726 14.8305V27.3902C98.7726 27.567 98.712 27.7132 98.5896 27.8278C98.4661 27.9435 98.3111 28.0002 98.1223 28.0002H96.8775C96.6887 28.0002 96.5325 27.9435 96.4101 27.8278ZM96.183 11.4508C96.0606 11.3363 96 11.19 96 11.0133V9.63617C96 9.4594 96.0606 9.30881 96.183 9.1855C96.3054 9.0622 96.4615 9 96.6503 9H98.3205C98.5093 9 98.669 9.0622 98.8019 9.1855C98.9336 9.30881 99 9.4594 99 9.63617V11.0133C99 11.19 98.9336 11.3363 98.8019 11.4508C98.669 11.5665 98.5093 11.6232 98.3205 11.6232H96.6503C96.4615 11.6232 96.3054 11.5665 96.183 11.4508Z" fill="#29354C"/>
<path fill-rule="evenodd" clip-rule="evenodd" d="M101.17 27.8281C101.056 27.7139 101 27.5682 101 27.392V14.8723C101 14.6961 101.056 14.5504 101.17 14.4362C101.283 14.3209 101.427 14.2643 101.602 14.2643H102.726C102.917 14.2643 103.065 14.3176 103.17 14.4231C103.275 14.5275 103.328 14.6787 103.328 14.8723V16.034C103.85 15.3825 104.455 14.8811 105.144 14.5275C105.833 14.1762 106.691 14 107.719 14C109.393 14 110.691 14.5417 111.615 15.624C112.539 16.7073 113 18.1388 113 19.9172V27.392C113 27.5682 112.944 27.7139 112.831 27.8281C112.717 27.9434 112.574 28 112.399 28H111.197C111.022 28 110.878 27.9434 110.766 27.8281C110.652 27.7139 110.595 27.5682 110.595 27.392V20.076C110.595 18.8077 110.29 17.8211 109.681 17.1163C109.07 16.4136 108.198 16.0601 107.066 16.0601C105.95 16.0601 105.061 16.4169 104.399 17.1304C103.737 17.844 103.405 18.8251 103.405 20.076V27.392C103.405 27.5682 103.348 27.7139 103.236 27.8281C103.122 27.9434 102.978 28 102.804 28H101.602C101.427 28 101.283 27.9434 101.17 27.8281Z" fill="#29354C"/>
<path fill-rule="evenodd" clip-rule="evenodd" d="M122.679 24.4241C123.286 23.6553 123.615 22.7311 123.666 21.6504C123.683 21.4981 123.692 21.2029 123.692 20.7637C123.692 20.3412 123.683 20.0544 123.666 19.9021C123.615 18.8224 123.286 17.8971 122.679 17.1283C122.072 16.3595 121.171 15.9756 119.974 15.9756C118.743 15.9756 117.85 16.3595 117.295 17.1283C116.74 17.8971 116.435 18.8881 116.385 20.1044L116.359 20.7637L116.385 21.447C116.435 22.6643 116.74 23.6553 117.295 24.4241C117.85 25.193 118.743 25.5768 119.974 25.5768C121.171 25.5768 122.072 25.193 122.679 24.4241ZM116.616 32.2896C115.761 31.8171 115.158 31.2767 114.809 30.6686C114.458 30.0614 114.283 29.5367 114.283 29.0986C114.283 28.9463 114.342 28.8159 114.461 28.7053C114.582 28.5958 114.719 28.5416 114.872 28.5416H116.001C116.154 28.5416 116.283 28.5791 116.385 28.6542C116.487 28.7304 116.573 28.8702 116.642 29.0736C117.12 30.4234 118.205 31.1004 119.898 31.1004C121.179 31.1004 122.128 30.8292 122.744 30.2888C123.358 29.7485 123.667 28.794 123.667 27.4264V25.6781C122.674 26.9278 121.29 27.5527 119.513 27.5527C117.701 27.5527 116.347 26.9789 115.449 25.8304C114.551 24.6819 114.077 23.2298 114.026 21.4732L114 20.7638L114.026 20.0795C114.077 18.3406 114.551 16.8927 115.449 15.7348C116.347 14.5779 117.701 14 119.513 14C121.308 14 122.709 14.6509 123.718 15.9497V14.8616C123.718 14.6927 123.773 14.5487 123.884 14.4308C123.996 14.3129 124.137 14.2535 124.308 14.2535H125.41C125.581 14.2535 125.722 14.3129 125.833 14.4308C125.944 14.5487 126 14.6927 126 14.8616V27.1479C126 31.0493 124.009 33 120.025 33C118.606 33 117.47 32.7622 116.616 32.2896Z" fill="#29354C"/>
<path fill-rule="evenodd" clip-rule="evenodd" d="M136.623 24.2493C137.485 24.2493 138.158 24.0047 138.64 23.5155C139.121 23.0274 139.363 22.4059 139.363 21.652C139.363 20.8981 139.117 20.2766 138.628 19.7885C138.139 19.2982 137.47 19.0547 136.623 19.0547H132.512V24.2493H136.623ZM136.374 16.3801C137.221 16.3801 137.873 16.1662 138.33 15.7385C138.786 15.3097 139.014 14.7347 139.014 14.0147C139.014 13.2958 138.79 12.7388 138.342 12.3428C137.894 11.95 137.237 11.752 136.374 11.752H132.512V16.3801H136.374ZM129.174 26.82C129.057 26.7004 129 26.5542 129 26.3827V9.64376C129 9.45529 129.053 9.30071 129.162 9.18106C129.27 9.06141 129.414 9 129.598 9H136.823C138.766 9 140.218 9.44259 141.182 10.3256C142.144 11.2087 142.627 12.4126 142.627 13.9373C142.627 14.8288 142.414 15.5869 141.992 16.2138C141.568 16.8385 141.074 17.2895 140.509 17.5638C141.207 17.8888 141.796 18.4204 142.277 19.1573C142.759 19.8953 143 20.7349 143 21.6773C143 23.2708 142.477 24.5573 141.431 25.5346C140.384 26.5119 138.922 27 137.046 27H129.598C129.432 27 129.29 26.9407 129.174 26.82Z" fill="#29354C"/>
<path fill-rule="evenodd" clip-rule="evenodd" d="M151.757 24.5782C152.343 23.9568 152.637 23.0579 152.637 21.8824V21.3635L150.126 21.7788C148.201 22.0895 147.239 22.7547 147.239 23.7743C147.239 24.3284 147.461 24.7554 147.903 25.0576C148.347 25.3608 148.879 25.5113 149.498 25.5113C150.418 25.5113 151.172 25.2006 151.757 24.5782ZM146.298 27.4694C145.586 27.1149 145.025 26.6356 144.615 26.0302C144.205 25.4259 144 24.7597 144 24.0337C144 22.8582 144.46 21.908 145.381 21.182C146.301 20.456 147.565 19.9639 149.172 19.7044L152.611 19.1855V18.641C152.611 17.898 152.427 17.3364 152.059 16.9563C151.69 16.5752 151.104 16.3851 150.301 16.3851C149.749 16.3851 149.305 16.4887 148.971 16.6969C148.636 16.904 148.364 17.1164 148.155 17.3321C147.946 17.5478 147.808 17.6908 147.741 17.7592C147.674 17.9663 147.549 18.0699 147.364 18.0699H145.406C145.256 18.0699 145.126 18.0186 145.017 17.915C144.908 17.8115 144.854 17.6738 144.854 17.4997C144.87 17.0684 145.076 16.5794 145.469 16.0349C145.863 15.4904 146.468 15.0153 147.289 14.6096C148.109 14.2029 149.122 14 150.326 14C152.3 14 153.74 14.458 154.644 15.3741C155.548 16.2912 156 17.4923 156 18.9774V27.1192C156 27.2922 155.944 27.4395 155.837 27.5601C155.727 27.6818 155.581 27.7416 155.397 27.7416H153.313C153.146 27.7416 153.003 27.6818 152.887 27.5601C152.77 27.4395 152.711 27.2922 152.711 27.1192V26.1081C152.343 26.6612 151.824 27.1149 151.155 27.4694C150.484 27.8238 149.649 28 148.644 28C147.792 28 147.009 27.8238 146.298 27.4694Z" fill="#29354C"/>
<path fill-rule="evenodd" clip-rule="evenodd" d="M158.163 26.825C158.054 26.7087 158 26.5666 158 26.3998V14.6249C158 14.4416 158.054 14.2924 158.163 14.175C158.272 14.0587 158.406 14 158.562 14H160.486C160.658 14 160.799 14.0587 160.908 14.175C161.018 14.2924 161.073 14.4416 161.073 14.6249V15.6492C161.855 14.5497 162.982 14 164.451 14H165.437C165.609 14 165.746 14.0546 165.847 14.1627C165.95 14.2707 166 14.4169 166 14.6002V16.4254C166 16.5922 165.95 16.7332 165.847 16.8506C165.746 16.9669 165.609 17.0256 165.437 17.0256H163.584C162.848 17.0256 162.27 17.25 161.847 17.6999C161.425 18.1497 161.214 18.7674 161.214 19.5498V26.3998C161.214 26.5666 161.159 26.7087 161.049 26.825C160.94 26.9424 160.807 27 160.651 27H158.562C158.406 27 158.272 26.9424 158.163 26.825Z" fill="#29354C"/>
<path fill-rule="evenodd" clip-rule="evenodd" d="M33.8529 36H10.146C9.05704 36 8.15518 35.1809 8.08381 34.1287L6 3H38L35.9151 34.1287C35.8448 35.1809 34.943 36 33.8529 36Z" fill="#FED602"/>
<path fill-rule="evenodd" clip-rule="evenodd" d="M7.26305 4.14325L9.19084 33.9946C9.22304 34.4775 9.62813 34.8564 10.1142 34.8564H32.8842C33.3714 34.8564 33.7765 34.4775 33.8076 33.9936L35.7354 4.14325H7.26305ZM32.8845 37H10.1145C8.5149 37 7.17916 35.7415 7.07529 34.1344L5 2H38L35.9247 34.1334C35.8208 35.7415 34.4851 37 32.8845 37Z" fill="#29354C"/>
<path fill-rule="evenodd" clip-rule="evenodd" d="M38.2457 1H4.75421C2.59747 1 0.884351 2.79525 1.00611 4.92745L2.08501 23.7599C2.17925 25.3995 3.55037 26.6819 5.20949 26.6819H22.6985C22.8425 26.6819 22.9759 26.7559 23.0521 26.8772L25.7181 31.5118C26.1491 32.1996 27.175 32.1513 27.5382 31.4259L29.4842 26.9115C29.5552 26.7709 29.7002 26.6819 29.858 26.6819H37.7915C39.4506 26.6819 40.8207 25.3995 40.9149 23.7599L41.9938 4.92745C42.1166 2.79525 40.4024 1 38.2457 1Z" fill="white"/>
<path fill-rule="evenodd" clip-rule="evenodd" d="M4.89284 2.4267C4.15468 2.4267 3.45432 2.7336 2.96816 3.26911C2.5282 3.75275 2.30665 4.37292 2.3434 5.01425L3.41337 23.5875C3.47007 24.5632 4.31743 25.3284 5.3433 25.3284H22.6875C23.2282 25.3284 23.727 25.6056 24.0189 26.0702L26.5453 30.4389L28.3523 26.2692C28.6537 25.6649 29.1934 25.3284 29.7888 25.3284H37.6555C38.6824 25.3284 39.5298 24.5632 39.5854 23.5875L40.6564 5.01425C40.6932 4.37292 40.4716 3.75275 40.0317 3.26911C39.5466 2.73466 38.8441 2.4267 38.107 2.4267H4.89284ZM26.5569 33C25.7998 33 25.1142 32.6211 24.7036 31.9692L22.2665 27.7551H5.34338C3.08165 27.7551 1.20842 25.9877 1.07821 23.7324L0.00824562 5.15817C-0.0673556 3.8427 0.378902 2.58014 1.26512 1.60333C2.19123 0.584183 3.5132 0 4.89293 0H38.1071C39.4868 0 40.8088 0.585242 41.7349 1.60545C42.6211 2.5812 43.0674 3.84376 42.9918 5.15923L41.9207 23.7324C41.7916 25.9877 39.9173 27.7551 37.6556 27.7551H30.2718L28.554 31.7184C28.1634 32.5026 27.4704 32.9566 26.6734 32.9979C26.6335 32.9989 26.5947 33 26.5569 33Z" fill="#29354C"/>
<path fill-rule="evenodd" clip-rule="evenodd" d="M19.7316 17.9377L18.0625 16.2685C17.9792 16.1844 17.9792 16.0493 18.0625 15.9663L24.9656 9.06229C25.049 8.97924 25.184 8.97924 25.2674 9.06229L26.9375 10.7315C27.0208 10.8156 27.0208 10.9507 26.9375 11.0337L20.0333 17.9377C19.95 18.0208 19.8149 18.0208 19.7316 17.9377Z" fill="#29354C"/>
<path fill-rule="evenodd" clip-rule="evenodd" d="M12.139 19.9435L6.21657 14.3713C5.94013 14.1121 5.92652 13.6573 6.1862 13.38L12.0877 7.06615C12.1704 6.97795 12.3045 6.97795 12.3872 7.06615L13.938 8.72589C14.0207 8.81408 14.0207 8.95859 13.938 9.04678L9.53172 13.7614L13.8678 17.8406C13.9558 17.9235 13.9641 18.067 13.8867 18.1605L12.4385 19.9233C12.361 20.0168 12.227 20.0264 12.139 19.9435Z" fill="#29354C"/>
<path fill-rule="evenodd" clip-rule="evenodd" d="M30.861 19.9435L36.7834 14.3713C37.0599 14.1121 37.0735 13.6573 36.8138 13.3789L30.9123 7.06615C30.8296 6.97795 30.6955 6.97795 30.6128 7.06615L29.062 8.72589C28.9793 8.81408 28.9793 8.95753 29.062 9.04678L33.4683 13.7614L29.1322 17.8406C29.0442 17.9235 29.0359 18.067 29.1133 18.1605L30.5615 19.9233C30.639 20.0168 30.773 20.0264 30.861 19.9435Z" fill="#29354C"/>
</svg>
