<svg width="148" height="114" viewBox="0 0 148 114" fill="none" xmlns="http://www.w3.org/2000/svg">
<path fill-rule="evenodd" clip-rule="evenodd" d="M29.3683 58.1008C29.3683 58.1008 20.8325 71.4366 17.396 101.134C17.396 101.134 22.6064 103.151 24.8233 102.03L29.3683 58.1008Z" fill="#8DC9FF"/>
<path fill-rule="evenodd" clip-rule="evenodd" d="M79.8651 71.9043C79.8651 71.9043 69.1944 84.2776 66.0607 86.3415C58.2802 91.4651 46.9939 75.8071 46.9939 75.8071L45.7915 57.6777C45.7915 57.6777 55.5301 68.523 62.9569 78.0482L74.4857 69.0833C74.4857 69.0833 77.3858 70.9705 79.8651 71.9043Z" fill="#8DC9FF"/>
<path fill-rule="evenodd" clip-rule="evenodd" d="M29.4489 57.6624C29.4489 57.6624 34.5208 57.8396 45.889 57.6624C45.889 57.6624 53.3509 90.3711 53.3509 102.04C53.3509 102.04 30.4986 104.162 22.1035 102.394C22.1035 102.394 24.144 70.4511 29.4489 57.6624Z" fill="#8DC9FF"/>
<path fill-rule="evenodd" clip-rule="evenodd" d="M0.436035 22.5756C0.436035 22.5756 6.93597 24.892 14.5144 24.1445C22.0928 23.3969 53.7171 25.8242 57.9687 28.6272C62.2203 31.4296 72.6013 29.2994 70.2731 27.5067C66.9342 24.934 26.8509 16.5091 19.8267 17.0699C12.803 17.6307 0.436035 22.5756 0.436035 22.5756Z" fill="#1F2B3D"/>
<path fill-rule="evenodd" clip-rule="evenodd" d="M32.2554 17.9256C51.245 19.6839 63.0273 25.8172 64.966 38.0647C67.0417 51.175 53.5275 56.7756 32.2528 54.9452C11.5837 53.1672 3.80946 46.7092 3.08048 38.8717C2.32106 21.9971 18.4777 16.5138 32.2554 17.9256Z" fill="white"/>
<path fill-rule="evenodd" clip-rule="evenodd" d="M32.2478 18.0012C28.9099 17.6866 25.5327 17.7794 22.2373 18.3493C18.9498 18.9302 15.7311 19.9813 12.8661 21.6462C10.0053 23.3005 7.54493 25.6429 5.97991 28.509C4.39494 31.3656 3.74783 34.67 3.80871 37.9526C3.80399 38.7749 3.90108 39.5257 4.07952 40.3109C4.25271 41.0861 4.51722 41.8363 4.85888 42.5499C5.20002 43.2635 5.61305 43.9437 6.09117 44.5782C6.5761 45.2091 7.12297 45.7927 7.70185 46.3471C10.0656 48.541 13.076 50.0117 16.1709 51.1222C19.2842 52.2274 22.5391 52.9718 25.8255 53.5108C29.1125 54.0462 32.443 54.4091 35.7741 54.5926C39.1046 54.7736 42.4477 54.7752 45.7615 54.478C49.0689 54.1719 52.3695 53.5856 55.4607 52.4168C57.0021 51.83 58.4853 51.0867 59.8162 50.1311C61.1472 49.1809 62.3159 47.9993 63.1682 46.6092C64.0253 45.2223 64.5401 43.6328 64.717 41.997C64.8918 40.3581 64.7532 38.6874 64.4215 37.0517C63.7608 33.7844 62.2173 30.7008 59.9327 28.2671C57.6671 25.8117 54.8041 23.9531 51.7618 22.5635C48.7078 21.1788 45.4807 20.1914 42.2032 19.4757C38.9193 18.7764 35.5899 18.3158 32.2478 18.0012ZM32.262 17.8505C35.6072 18.1652 38.9435 18.6262 42.2341 19.3266C45.519 20.0391 48.7813 20.939 51.8793 22.2945C54.9684 23.6411 57.9226 25.4387 60.3059 27.9079C62.7064 30.3528 64.3612 33.5335 65.1048 36.9031C65.478 38.5834 65.6596 40.3353 65.488 42.0788C65.32 43.8179 64.7852 45.5412 63.8773 47.0475C62.9741 48.558 61.7313 49.8372 60.3342 50.8585C58.9361 51.8862 57.3915 52.6789 55.7987 53.3065C52.603 54.555 49.2295 55.1885 45.8612 55.5386C42.486 55.8798 39.0941 55.9153 35.7174 55.77C32.3402 55.6156 28.9766 55.31 25.6251 54.8149C22.2767 54.3173 18.9409 53.6106 15.6959 52.5155C12.4688 51.4098 9.28104 49.8956 6.64853 47.5075C6.0009 46.9021 5.40155 46.24 4.85836 45.5274C4.32304 44.808 3.857 44.0323 3.47335 43.2152C3.08866 42.3981 2.79213 41.537 2.60005 40.6547C2.40324 39.7851 2.29303 38.8428 2.3051 37.9663C2.2883 34.4774 3.06189 30.8907 4.8909 27.8687C6.69576 24.8333 9.44636 22.4999 12.4751 20.9225C15.5165 19.3308 18.8386 18.4289 22.1796 17.9731C25.5253 17.5163 28.9178 17.4876 32.262 17.8505Z" fill="#1F2B3D"/>
<path fill-rule="evenodd" clip-rule="evenodd" d="M19.6624 18.5808C19.6624 18.5808 1.9334 22.1902 7.13911 35.1217C8.65795 42.3347 19.4457 45.4581 34.0483 44.883C44.0205 43.3751 49.0735 38.0854 48.7345 32.012C48.5613 28.9199 47.7761 22.6221 37.097 19.7603C32.9058 18.6365 27.6628 17.4539 19.6624 18.5808Z" fill="#1F2B3D"/>
<path fill-rule="evenodd" clip-rule="evenodd" d="M62.4582 22.577C62.4582 22.577 62.1811 11.9307 50.5415 3.526C44.7879 -0.628852 32.9159 -0.620893 28.204 1.05993C26.3089 1.7364 15.7232 6.23347 12.6299 17.0856C12.6299 17.0856 0.546399 19.1028 0.269293 22.577C0.203165 23.4099 13.2592 19.2089 41.8395 23.081C68.7214 26.7228 73.2664 30.7577 69.8298 26.6114C68.7991 25.3677 62.4582 22.577 62.4582 22.577Z" fill="#EDDB00"/>
<path fill-rule="evenodd" clip-rule="evenodd" d="M40.5428 0.127276C43.5359 -1.04952 61.1279 5.93377 62.292 22.4072C62.292 22.4072 70.8056 25.006 70.6398 28.5358C70.6398 28.5358 44.3672 21.9801 18.0951 20.8034C18.0951 20.8034 11.9426 18.4498 24.5798 18.2821C37.217 18.1134 44.2186 20.2378 46.3625 16.2644C49.3556 10.7173 40.5428 0.127276 40.5428 0.127276Z" fill="#EDDB00"/>
<path fill-rule="evenodd" clip-rule="evenodd" d="M23.2158 16.3562C23.4814 15.3842 23.8781 14.4509 24.3269 13.549C24.7777 12.6465 25.2852 11.7716 25.8447 10.9296C26.9793 9.25724 28.3192 7.72763 29.795 6.34657C32.7592 3.58498 36.3311 1.54019 40.0936 0.120927L40.2348 0.0678711L40.3602 0.117744C42.3928 0.922079 44.1426 2.1323 45.748 3.53511C47.3272 4.95755 48.7154 6.59752 49.8275 8.40887C50.9364 10.2202 51.8223 12.1647 52.4495 14.1857C53.0588 16.2124 53.4729 18.2922 53.645 20.3906C53.2934 18.3166 52.8043 16.2708 52.0769 14.3135C51.3857 12.3462 50.4525 10.4722 49.3105 8.7479C48.1533 7.0363 46.8092 5.45151 45.25 4.11289C43.7075 2.78065 41.9541 1.60226 40.1041 0.880165L40.3702 0.876451C38.5207 1.55982 36.7311 2.40129 35.0228 3.38602C33.3066 4.35854 31.7048 5.52525 30.1996 6.80657C28.706 8.10273 27.3425 9.55807 26.159 11.1577C24.9687 12.7484 23.9338 14.4791 23.2158 16.3562Z" fill="#1F2B3D"/>
<path fill-rule="evenodd" clip-rule="evenodd" d="M1.7124 20.8073C2.85599 19.891 4.20216 19.2633 5.5604 18.7338C6.92652 18.2128 8.32832 17.7809 9.75426 17.4568C12.6061 16.801 15.5179 16.4598 18.4317 16.2625C19.8912 16.2067 21.3513 16.1107 22.8113 16.1505C23.5414 16.1595 24.2719 16.1484 25.0019 16.1744L27.1894 16.2699C30.1053 16.402 33.0076 16.6423 35.9104 16.9214C41.7049 17.5533 47.4901 18.3974 53.1713 19.7541C56.0079 20.4428 58.822 21.2418 61.5705 22.2387C62.9398 22.7491 64.2912 23.311 65.6075 23.9477C66.9258 24.578 68.2017 25.3059 69.3862 26.1617C66.9143 24.6024 64.1967 23.519 61.4419 22.6149C58.6872 21.6991 55.872 20.9728 53.0353 20.3621C47.3615 19.1339 41.6078 18.2961 35.8301 17.7215C30.0534 17.1119 24.2535 16.6912 18.4611 16.8753C15.5682 16.9962 12.6765 17.2695 9.83508 17.8372C8.41071 18.1009 7.00629 18.4712 5.63125 18.9317C4.94426 19.1641 4.26881 19.431 3.60859 19.7345C2.94888 20.0364 2.3002 20.3743 1.7124 20.8073Z" fill="#1F2B3D"/>
<path fill-rule="evenodd" clip-rule="evenodd" d="M29.4492 57.6624C29.4492 57.6624 29.8675 66.4496 31.0316 66.4496C32.1951 66.4496 36.5186 60.2298 36.5186 60.2298C36.5186 60.2298 40.343 67.29 41.3407 67.1218C42.1767 66.9806 44.5001 61.2384 45.3314 57.7085" fill="white"/>
<path fill-rule="evenodd" clip-rule="evenodd" d="M29.4494 57.6624C29.6625 59.1124 29.8629 60.5598 30.108 61.9928C30.2335 62.7085 30.3547 63.4232 30.5169 64.1209C30.5961 64.4695 30.6885 64.8133 30.7887 65.1433C30.8837 65.459 31.0217 65.8177 31.1467 65.962C31.1697 65.9938 31.1913 65.98 31.1062 65.945C30.9693 65.9211 31.0123 65.9402 31.0359 65.9179C31.1104 65.8819 31.2395 65.7874 31.3555 65.6877C31.5938 65.4792 31.8331 65.2266 32.0688 64.9714C32.5385 64.4541 32.9862 63.8944 33.4228 63.3272C34.2956 62.1907 35.1621 61.0261 35.975 59.8435L36.5885 58.9516L37.1013 59.9072C37.8355 61.2744 38.6233 62.6295 39.4242 63.9538C39.8256 64.6138 40.2413 65.2696 40.6906 65.8628C40.9047 66.145 41.1681 66.4676 41.3434 66.5891C41.3775 66.622 41.3901 66.5891 41.2374 66.6119C41.1335 66.6544 41.2096 66.6315 41.2427 66.5923C41.3356 66.5074 41.4473 66.3641 41.5492 66.2198C42.3584 64.9847 43.0166 63.5256 43.6406 62.1037C44.2599 60.6664 44.8377 59.2074 45.3316 57.7085C45.0891 59.2716 44.6761 60.807 44.1995 62.3175C43.9644 63.0752 43.6915 63.8201 43.4013 64.5634C43.1053 65.3062 42.7998 66.0384 42.3632 66.7626C42.2493 66.9451 42.1338 67.1255 41.9517 67.3202C41.8452 67.4141 41.7712 67.5314 41.4757 67.6232C41.1293 67.6921 40.9493 67.5685 40.817 67.5075C40.5578 67.3568 40.4019 67.204 40.2413 67.0507C40.0854 66.8974 39.9437 66.7424 39.8115 66.5827C39.2846 65.9482 38.8306 65.294 38.384 64.6324C37.4996 63.306 36.7145 61.9403 35.9357 60.5523L37.0625 60.616C36.2007 61.8135 35.3353 62.9887 34.3874 64.1209C33.9109 64.6838 33.4233 65.2399 32.8922 65.7752C32.6251 66.0437 32.3464 66.3031 32.0173 66.5467C31.8457 66.6676 31.6788 66.7891 31.4175 66.8915C31.2758 66.9308 31.1335 67.0109 30.8202 66.9313C30.561 66.8416 30.4471 66.6931 30.3605 66.5827C30.0613 66.1312 29.9989 65.7694 29.896 65.389C29.8068 65.0133 29.7522 64.6414 29.7008 64.2721C29.6037 63.5325 29.5339 62.7993 29.494 62.0644C29.4147 60.5948 29.3911 59.1288 29.4494 57.6624Z" fill="#1F2B3D"/>
<path fill-rule="evenodd" clip-rule="evenodd" d="M36.1425 71.0178C36.1629 71.1928 36.1561 71.3701 36.1089 71.5414C35.974 72.0264 35.5373 72.1187 35.0849 71.9871C35.5305 71.8041 35.899 71.4534 36.1425 71.0178ZM34.9385 68.1649C34.4373 68.0832 34.368 68.062 33.8574 68.2429C32.9836 68.5528 32.6382 69.2515 32.3611 70.1476C32.2766 70.4209 32.3081 70.7132 32.4561 70.9605C32.4619 71.0294 32.4713 71.0995 32.4839 71.1695C31.9035 72.2763 32.475 73.4658 33.4569 74.181C34.611 75.0214 36.1456 75.0745 37.2247 74.1619C39.696 72.0688 38.2103 67.6206 34.9385 68.1649Z" fill="#1F2B3D"/>
<path fill-rule="evenodd" clip-rule="evenodd" d="M36.1425 80.0948C36.1629 80.2704 36.1561 80.4471 36.1089 80.6185C35.974 81.1039 35.5373 81.1957 35.0849 81.0647C35.5305 80.8811 35.899 80.5309 36.1425 80.0948ZM34.9385 77.2425C34.4373 77.1602 34.368 77.0828 33.8574 77.2637C32.9836 77.5736 32.3574 78.4755 32.5275 79.4491C32.5768 79.7308 32.3081 79.7908 32.4561 80.0375C32.4619 80.1065 32.4713 80.1765 32.4839 80.2471C31.9035 81.3538 32.475 82.5428 33.4569 83.258C34.611 84.0984 36.1456 84.1515 37.2247 83.2389C39.696 81.1458 38.2103 76.6976 34.9385 77.2425Z" fill="#1F2B3D"/>
<path fill-rule="evenodd" clip-rule="evenodd" d="M29.0357 59.6697C28.5324 61.3993 28.0931 63.1433 27.7163 64.9026C27.5121 65.7781 27.33 66.6588 27.1374 67.5364L26.6173 70.1823C25.9497 73.7158 25.3603 77.2626 24.8418 80.8211C24.2902 84.3754 23.8651 87.9482 23.4022 91.5178L22.1626 102.255C22.2125 100.452 22.3116 98.6518 22.3867 96.8484L22.7919 91.4526C23.112 87.8591 23.5172 84.2714 24.053 80.7018C24.5931 77.1337 25.2055 73.5731 26.019 70.0549C26.8293 66.5405 27.7268 63.0308 29.0357 59.6697Z" fill="black"/>
<path fill-rule="evenodd" clip-rule="evenodd" d="M142.199 50.1139C142.199 50.1139 146.513 50.8832 147.274 49.344C148.035 47.8049 144.99 43.7004 142.707 41.1352C140.423 38.5699 135.094 32.67 134.333 30.6183C133.572 28.5661 132.303 23.1788 129.512 18.818C126.721 14.4573 118.438 4.76447 107.101 3.32611C107.101 3.32611 101.346 2.6576 96.5251 10.6092C91.7036 18.5613 84.0611 32.7156 88.3899 39.4909C92.7191 46.2657 104.645 45.4964 104.645 45.4964L121.392 43.9572L142.199 50.1139Z" fill="white"/>
<path fill-rule="evenodd" clip-rule="evenodd" d="M88.1024 39.4566L50.3538 110.681C50.3538 110.681 51.6897 113.548 54.5788 112.394L91.2825 41.731" fill="#2F80ED"/>
<path fill-rule="evenodd" clip-rule="evenodd" d="M89.8005 36.4762C89.8005 36.4762 97.7899 12.3716 105.559 11.9222C113.329 11.4723 102.799 33.0567 111.569 36.4889C120.338 39.9217 125.17 34.1863 133.886 39.8649C142.603 45.5435 144.111 47.8372 143.634 51.8254C142.921 57.7736 127.711 44.1779 118.998 46.9702C105.788 51.2047 94.9737 47.5082 92.1842 45.734C87.2477 42.5952 89.8005 36.4762 89.8005 36.4762Z" fill="#E2E8E7"/>
<mask id="mask0" mask-type="alpha" maskUnits="userSpaceOnUse" x="89" y="3" width="59" height="48">
<path d="M89.0464 3.2688H147.94V50.8441H89.0464V3.2688Z" fill="white"/>
</mask>
<g mask="url(#mask0)">
<path fill-rule="evenodd" clip-rule="evenodd" d="M89.1309 41.5403C91.4653 42.6747 93.9325 43.5092 96.4349 44.13C97.6839 44.4552 98.9545 44.6791 100.225 44.8797C100.863 44.9502 101.5 45.0415 102.14 45.094C102.782 45.1259 103.42 45.2092 104.061 45.2161C109.19 45.4007 114.306 44.3337 119.49 43.8037C122.086 43.5474 124.719 43.3925 127.343 43.6291C129.956 43.8605 132.579 44.5391 134.84 45.918C135.985 46.5955 136.997 47.3914 138.138 48.0127C139.267 48.6451 140.439 49.1979 141.649 49.6357C142.857 50.058 144.127 50.3954 145.376 50.3477C145.98 50.3148 146.628 50.1938 146.989 49.7916C147.382 49.4208 147.388 48.7947 147.257 48.2153C147.113 47.628 146.853 47.0481 146.536 46.499C146.385 46.2204 146.201 45.9557 146.036 45.6845L145.48 44.8993C144.716 43.8716 143.842 42.9065 143.001 41.8979C141.311 39.8977 139.629 37.8906 138.027 35.8044C136.431 33.7182 134.864 31.5753 133.626 29.1888C133.005 28.0003 132.492 26.7466 132.082 25.4711C131.857 24.862 131.67 24.2641 131.413 23.6762C131.149 23.0931 130.912 22.5 130.605 21.9354C129.458 19.6386 128.002 17.4946 126.384 15.4923C124.76 13.4947 122.941 11.6436 120.917 10.0487C118.901 8.44744 116.738 7.025 114.418 5.88747C112.082 4.78708 109.627 3.95622 107.091 3.38268C107.06 3.37684 107.04 3.34713 107.046 3.3153C107.052 3.28558 107.081 3.26595 107.11 3.26914C109.687 3.65486 112.227 4.34565 114.655 5.35584C117.058 6.41803 119.352 7.74604 121.462 9.33507C123.58 10.9162 125.497 12.7641 127.224 14.776C128.951 16.7895 130.454 19.0025 131.687 21.3757C132.311 22.5562 132.806 23.8216 133.238 25.0907C133.63 26.3131 134.112 27.4942 134.683 28.6396C135.826 30.9301 137.328 33.0582 138.877 35.1449C140.441 37.2258 142.063 39.2732 143.696 41.3122C144.506 42.3298 145.36 43.332 146.111 44.4398L146.658 45.2792C146.822 45.5737 147.002 45.8554 147.151 46.1594C147.463 46.7563 147.727 47.3946 147.868 48.0875C147.903 48.261 147.934 48.4355 147.933 48.6212C147.935 48.713 147.943 48.8027 147.939 48.895L147.902 49.1762C147.889 49.3619 147.798 49.5476 147.732 49.7253C147.629 49.893 147.532 50.0654 147.382 50.1917C147.252 50.3413 147.081 50.4225 146.924 50.527C146.756 50.5928 146.59 50.6825 146.416 50.7159C146.244 50.7589 146.073 50.8013 145.901 50.8125C145.729 50.8369 145.559 50.8475 145.388 50.8432C144.029 50.8353 142.75 50.4554 141.514 50.0171C140.283 49.554 139.101 48.9772 137.965 48.3225C136.826 47.6773 135.757 46.8863 134.656 46.2416C134.518 46.1594 134.384 46.0687 134.243 45.9939L133.803 45.7954L132.926 45.3986C132.636 45.2612 132.319 45.1911 132.018 45.0839C131.711 44.989 131.411 44.877 131.1 44.7985C130.469 44.6834 129.85 44.5099 129.212 44.4425C128.573 44.3783 127.942 44.2711 127.298 44.269C124.732 44.1454 122.161 44.4117 119.599 44.7561C117.035 45.0919 114.468 45.5052 111.872 45.7907C109.283 46.0798 106.65 46.2846 104.016 46.1079C101.388 45.9546 98.7934 45.45 96.28 44.7131C95.0184 44.3587 93.7877 43.9008 92.5821 43.3936C91.3777 42.8826 90.1926 42.325 89.0742 41.6401C89.0469 41.6236 89.0385 41.5886 89.0543 41.561C89.07 41.5355 89.1015 41.5265 89.1278 41.5392L89.1309 41.5403Z" fill="#1F2B3D"/>
</g>
<path fill-rule="evenodd" clip-rule="evenodd" d="M91.6814 19.3717C93.3677 15.8217 95.1872 12.3131 97.4875 9.08035C98.6437 7.47221 99.9154 5.92243 101.46 4.61406C102.228 3.95616 103.071 3.36193 104.044 2.93323C104.532 2.72525 105.054 2.55547 105.622 2.49552C106.185 2.4345 106.807 2.5056 107.362 2.77141C107.92 3.0298 108.37 3.476 108.683 3.95457C108.999 4.43738 109.203 4.95362 109.355 5.46933C109.647 6.50393 109.731 7.54277 109.719 8.56199C109.695 10.6041 109.36 12.589 108.911 14.5324C107.991 18.4172 106.523 22.1259 104.753 25.6557C102.975 29.1818 100.944 32.5737 98.5666 35.7184C97.3694 37.2814 96.0999 38.8047 94.5984 40.1205C93.8458 40.7752 93.0281 41.3747 92.0881 41.8108C91.6163 42.022 91.1125 42.1955 90.5677 42.2623C90.0282 42.3292 89.4304 42.2767 88.8988 42.0236C88.3651 41.7779 87.9247 41.3604 87.6146 40.8977C87.2981 40.434 87.0966 39.9263 86.9449 39.4191C86.6526 38.3993 86.5639 37.3684 86.5775 36.354C86.5901 34.3225 86.9664 32.3456 87.4666 30.4244C88.4826 26.5778 90.034 22.9403 91.6814 19.3717ZM91.7838 19.4216C90.1048 22.971 88.8972 26.7502 88.1641 30.5846C87.8156 32.5026 87.5731 34.4402 87.5804 36.3513C87.5946 37.3042 87.6733 38.2539 87.9184 39.131C88.1709 39.9931 88.5913 40.8102 89.3066 41.1577C90.0067 41.5291 90.9341 41.4023 91.779 41.068C92.6329 40.7285 93.4417 40.2085 94.199 39.6223C95.7183 38.4455 97.0619 37.0124 98.2753 35.4876C100.686 32.4119 102.606 28.9585 104.189 25.3846C105.746 21.7958 107.035 18.0877 107.866 14.2926C108.266 12.3964 108.548 10.4667 108.53 8.5657C108.518 7.61864 108.434 6.6753 108.189 5.81367C107.943 4.96105 107.503 4.1912 106.84 3.88135C106.188 3.54338 105.311 3.68186 104.497 4.02142C103.675 4.36841 102.892 4.89367 102.15 5.47676C100.673 6.65991 99.3318 8.06697 98.078 9.54724C95.5898 12.5338 93.46 15.8705 91.7838 19.4216Z" fill="#1F2B3D"/>
<path fill-rule="evenodd" clip-rule="evenodd" d="M78.002 68.395C78.002 68.395 77.6519 70.7236 78.8821 71.3295C80.1118 71.936 82.865 71.9896 84.7712 68.7393C86.6773 65.4891 89.8252 60.5426 87.9532 56.8839C86.0816 53.224 76.9419 53.9345 76.4076 54.8677C75.8723 55.8015 76.5288 56.8945 76.5288 56.8945C76.5288 56.8945 73.6507 57.1412 73.424 58.3122C73.1978 59.4831 75.6865 61.0966 75.6865 61.0966C75.6865 61.0966 73.1752 61.5688 72.7769 62.5694C72.3785 63.57 74.8699 64.542 74.8699 64.542C74.8699 64.542 72.8036 65.3188 72.6756 66.1104C72.547 66.9025 78.002 68.395 78.002 68.395Z" fill="white"/>
<path fill-rule="evenodd" clip-rule="evenodd" d="M77.312 57.3318C77.312 57.3318 75.04 56.0394 76.5332 54.7098C77.8174 53.5653 85.3208 53.9903 87.1173 55.9921C90.4373 59.6907 85.0038 69.6558 82.6584 71.074C82.6584 71.074 80.6431 72.7399 78.4068 71.56C77.302 70.9779 77.5319 68.6615 77.5319 68.6615" fill="white"/>
<path fill-rule="evenodd" clip-rule="evenodd" d="M77.2863 57.3775C76.9987 57.212 76.7342 57.0151 76.4959 56.7812C76.2629 56.5472 76.0482 56.2681 75.9611 55.9216C75.8693 55.5741 75.9774 55.1863 76.19 54.9125C76.3862 54.6324 76.6975 54.4048 77.016 54.2986C77.6521 54.07 78.3087 53.9888 78.9615 53.9347C79.6155 53.8843 80.271 53.8763 80.9254 53.9018C82.2322 53.9548 83.5401 54.1114 84.8196 54.4674C85.4583 54.6462 86.0933 54.8732 86.6922 55.2362C86.9866 55.4091 87.2852 55.6633 87.5072 55.9402C87.7339 56.2156 87.9208 56.5238 88.0656 56.8469C88.644 58.1606 88.6114 59.5921 88.4267 60.919C88.2273 62.2571 87.8462 63.5485 87.3681 64.7948C86.8911 66.0427 86.3006 67.2423 85.6116 68.3894C85.2557 68.9555 84.8758 69.5088 84.4512 70.0394C84.0187 70.5679 83.5789 71.0804 82.9092 71.4979L82.967 71.4571C82.3561 71.9033 81.7305 72.1701 81.0283 72.3129C80.3366 72.4524 79.596 72.4158 78.9337 72.1702C78.7679 72.1091 78.6078 72.0391 78.453 71.9585C78.3737 71.9139 78.3045 71.8821 78.2189 71.8269C78.1318 71.7712 78.051 71.7064 77.9801 71.6348C77.6925 71.3451 77.5534 70.9907 77.4684 70.6543C77.3293 69.9683 77.354 69.3035 77.48 68.6562C77.4857 68.6276 77.5136 68.609 77.5414 68.6149C77.565 68.6191 77.5813 68.6398 77.5828 68.6631V68.6663C77.6196 69.3035 77.6957 69.9535 77.9303 70.5063C78.0378 70.7811 78.1921 71.0284 78.3858 71.17C78.5517 71.2889 78.8802 71.4099 79.1442 71.4778C79.7042 71.6147 80.2836 71.6051 80.8372 71.4555C81.3794 71.3096 81.9389 71.0215 82.3487 70.692L82.3792 70.6697L82.4075 70.6506C82.8342 70.3615 83.2514 69.8611 83.6335 69.3799C84.0156 68.8854 84.3672 68.3559 84.6968 67.8126C85.3749 66.7367 85.9679 65.5965 86.478 64.4245C86.9813 63.2498 87.3965 62.0316 87.6237 60.7859C87.8394 59.5502 87.8888 58.246 87.4327 57.1287C87.1976 56.5721 86.8564 56.0888 86.3537 55.7747C85.8503 55.4463 85.261 55.208 84.6595 55.0207C83.4493 54.6472 82.1755 54.4398 80.9008 54.3326C80.262 54.2811 79.6202 54.2615 78.981 54.2838C78.3454 54.3087 77.6993 54.3639 77.1047 54.5517C76.8035 54.643 76.5631 54.8048 76.3684 55.0505C76.1753 55.2844 76.0782 55.5842 76.1406 55.8808C76.2828 56.4793 76.8161 56.944 77.3377 57.2863L77.3404 57.2878C77.364 57.3038 77.3708 57.3361 77.3556 57.3605C77.3409 57.3839 77.3099 57.3908 77.2863 57.3775Z" fill="black"/>
<path fill-rule="evenodd" clip-rule="evenodd" d="M84.1636 58.3329C84.1636 58.3329 74.9535 55.9167 73.4609 58.0925C72.49 59.5075 75.3067 60.9873 75.3067 60.9873" fill="white"/>
<path fill-rule="evenodd" clip-rule="evenodd" d="M84.1501 58.3835C82.932 58.1623 81.7097 57.9665 80.4848 57.8317C79.263 57.6848 78.0344 57.5818 76.8273 57.6115C76.2258 57.628 75.6275 57.6917 75.0796 57.8264C74.5369 57.9564 74.0315 58.1517 73.8431 58.4392C73.7345 58.5915 73.7051 58.7305 73.7429 58.9459C73.7828 59.1565 73.9177 59.3964 74.0793 59.6277C74.4147 60.0887 74.8655 60.519 75.33 60.9403L75.3326 60.9424C75.3541 60.962 75.3557 60.996 75.3363 61.0178C75.3226 61.0337 75.3016 61.039 75.2827 61.0331C74.6655 60.8506 74.0851 60.5599 73.5639 60.1153C73.3068 59.8892 73.0601 59.6155 72.9016 59.2308C72.7247 58.8562 72.7515 58.314 72.9672 57.9293C73.1687 57.5224 73.5345 57.2513 73.8689 57.0911C74.2105 56.925 74.5543 56.8449 74.8891 56.7945C75.5614 56.7059 76.2064 56.7244 76.8425 56.7616C78.1126 56.8443 79.348 57.0544 80.5698 57.3102C81.7868 57.5861 82.9924 57.8954 84.1764 58.2822C84.2037 58.2912 84.2184 58.3209 84.2094 58.3485C84.2016 58.3729 84.1753 58.3883 84.1501 58.3835Z" fill="black"/>
<path fill-rule="evenodd" clip-rule="evenodd" d="M83.9492 61.9705C83.9492 61.9705 74.4032 59.9502 72.9106 62.126C71.9391 63.541 75.1206 64.6223 75.1206 64.6223" fill="white"/>
<path fill-rule="evenodd" clip-rule="evenodd" d="M83.9383 62.0214C82.6866 61.8553 81.4328 61.7126 80.178 61.6282C78.9263 61.5317 77.6699 61.4781 76.4381 61.5492C75.8235 61.5853 75.2142 61.6712 74.65 61.8118C74.0943 61.9466 73.5448 62.1413 73.3117 62.4198C73.1931 62.5848 73.159 62.6734 73.2068 62.8644C73.264 63.0517 73.4398 63.2783 73.6455 63.4778C74.0659 63.8821 74.5986 64.2322 75.1365 64.5729L75.1392 64.5745C75.1638 64.5898 75.1712 64.6227 75.156 64.6477C75.1444 64.6657 75.124 64.6747 75.104 64.6721C74.458 64.5782 73.8313 64.384 73.2341 64.0306C72.9407 63.846 72.6368 63.6242 72.4237 63.23C72.3193 63.0363 72.2479 62.7854 72.2673 62.5323C72.2852 62.2798 72.377 62.0468 72.4909 61.8617C72.7313 61.4654 73.0908 61.2298 73.4251 61.0701C73.7662 60.9141 74.109 60.8239 74.4459 60.7703C75.1219 60.6658 75.7784 60.6732 76.426 60.6886C77.7197 60.7311 78.9861 60.8918 80.2415 61.0987C81.4937 61.3242 82.7354 61.5837 83.9599 61.9195C83.9877 61.9264 84.0034 61.9556 83.9961 61.9837C83.9892 62.0092 83.9641 62.0251 83.9383 62.0214Z" fill="black"/>
<path fill-rule="evenodd" clip-rule="evenodd" d="M82.2456 65.2726C82.2456 65.2726 74.1281 63.734 73.0785 65.6795C72.0293 67.6256 80.0549 68.8947 80.0549 68.8947" fill="white"/>
<path fill-rule="evenodd" clip-rule="evenodd" d="M82.2359 65.3244C80.7711 65.1477 79.299 65.0129 77.8337 64.9954C77.1026 64.979 76.3715 64.9933 75.6572 65.0654C74.9598 65.1456 74.2098 65.2724 73.7243 65.6045C73.4913 65.7663 73.3989 65.9902 73.4519 66.0714C73.4861 66.1902 73.718 66.4072 73.993 66.5595C74.5562 66.88 75.2321 67.1315 75.9008 67.384C77.2506 67.8891 78.6603 68.3114 80.0626 68.8436C80.0904 68.8526 80.1046 68.8834 80.0957 68.911C80.0883 68.9322 80.0678 68.9454 80.0469 68.9465C78.538 68.9815 77.0517 68.7751 75.5838 68.3799C74.8522 68.1671 74.1258 67.905 73.4352 67.4291C73.2641 67.3012 73.094 67.1675 72.9339 66.9855C72.7749 66.819 72.6201 66.5706 72.5556 66.2703C72.4795 65.9536 72.5939 65.6273 72.7356 65.4066C72.8841 65.1737 73.0846 65.0182 73.2798 64.8988C73.675 64.6643 74.0723 64.5694 74.4601 64.4983C74.8485 64.4314 75.2311 64.3996 75.6116 64.3863C76.3715 64.364 77.1205 64.4038 77.8636 64.4733C79.3473 64.633 80.811 64.8792 82.2548 65.2214C82.2831 65.2278 82.2999 65.2559 82.2936 65.2846C82.2878 65.3106 82.2621 65.3275 82.2359 65.3244Z" fill="black"/>
</svg>
