<svg width="148" height="114" viewBox="0 0 148 114" fill="none" xmlns="http://www.w3.org/2000/svg">
<mask id="mask0" mask-type="alpha" maskUnits="userSpaceOnUse" x="98" y="0" width="50" height="46">
<path d="M98.9814 0H147.974V45.6552H98.9814V0Z" fill="white"/>
</mask>
<g mask="url(#mask0)">
<path fill-rule="evenodd" clip-rule="evenodd" d="M127.614 8.23716C129.387 10.7045 130.312 13.5536 130.458 16.398C128.837 16.6218 127.227 17.0969 125.696 17.8823C120.012 20.7973 117.919 26.1753 118.617 31.4562C115.397 32.3056 112.052 32.0431 109.382 30.0364C109.442 29.8018 109.429 29.5542 109.212 29.3673C101.558 22.7647 99.0046 14.5618 107.24 7.16631C113.65 1.41025 122.303 0.845852 127.614 8.23716ZM145.009 31.039C145.336 36.1564 140.979 40.294 136.57 41.9433C131.717 43.758 127.556 42.1961 125.211 37.6263C125.043 37.2992 124.79 37.1184 124.512 37.0469C123.553 35.692 122.648 34.2988 122.018 32.6752C122.01 32.6509 122.008 32.6285 121.999 32.6042C123.995 31.7165 125.876 30.5629 127.463 29.3136C130.775 26.7061 132.525 22.9609 132.927 19.0097C138.947 19.291 144.609 24.7704 145.009 31.039ZM130.324 19.2279C129.914 21.9961 128.729 24.641 126.632 26.7734C125.201 28.2269 123.406 29.4888 121.462 30.4041C120.929 26.2431 123.474 22.7539 127.184 20.4828C128.202 19.86 129.258 19.4596 130.324 19.2279ZM104.035 6.03519C100.287 9.40052 98.3871 14.5927 99.1465 19.6012C99.8768 24.4191 103.325 27.6302 106.826 30.634C108.458 32.0347 109.836 33.2891 111.911 33.9203C112.543 34.1128 119.274 34.3147 119.09 33.661C120.011 36.9296 121.969 40.0226 124.812 42.297C127.821 45.9057 133.374 46.4304 137.956 44.7064C144.571 42.2171 149.135 35.6981 147.714 28.5334C146.252 21.1631 139.797 16.4788 133.007 16.2662C132.801 12.4444 131.388 8.62588 128.923 5.6189C121.837 -3.02594 111.582 -0.742673 104.035 6.03519Z" fill="#CDE1F9"/>
</g>
<path fill-rule="evenodd" clip-rule="evenodd" d="M121.752 53.6378C117.661 53.7952 113.386 53.3691 109.323 52.9926C103.428 52.4464 97.4633 51.2681 91.5224 51.4802C93.1281 49.5492 94.198 47.2043 95.8075 45.2317C97.5306 43.119 98.9312 41.009 100.294 38.6491C101.991 35.709 103.721 32.8982 105.945 30.3341C107.467 28.5793 108.898 26.8721 109.866 24.7981C110.009 26.2278 110.868 27.3164 111.71 28.6031C113.579 31.4578 115.024 34.5363 116.947 37.3643C120.252 42.2242 122.455 48.7554 126.519 53.1056C124.931 53.2168 123.374 53.5752 121.752 53.6378ZM128.642 53.3584C128.641 53.2687 128.675 53.1841 128.636 53.0902C126.608 48.2279 123.011 43.3582 120.273 38.8313C117.254 33.8354 114.27 28.5213 110.826 23.817C110.716 23.6675 110.53 23.6095 110.349 23.6137C110.418 22.8942 109.418 22.4653 109.059 23.2222C106.739 28.1065 102.212 31.797 99.3553 36.4299C96.2232 41.5089 92.1766 45.8503 89.649 51.2877C89.5302 51.5433 89.5562 51.7727 89.6536 51.96C89.5984 52.2287 89.7084 52.5324 90.041 52.588C96.8077 53.728 103.673 54.711 110.489 55.5094C113.232 55.8309 115.969 55.8972 118.726 55.9818C121.932 56.0804 124.851 55.3113 127.973 55.2716C128.961 55.259 129.214 53.9312 128.642 53.3584Z" fill="#2F80ED"/>
<path fill-rule="evenodd" clip-rule="evenodd" d="M103.745 36.4538C103.118 34.9414 101.491 34.1822 100.243 33.21C98.6691 31.983 97.3046 30.5071 95.749 29.2723C95.0132 28.6883 93.8589 29.4115 94.3859 30.3305C95.3134 31.9489 96.8082 33.2688 98.1731 34.5083C99.4583 35.675 101.053 37.4896 102.857 37.627C103.407 37.6686 103.968 36.993 103.745 36.4538Z" fill="#FFD97A"/>
<path fill-rule="evenodd" clip-rule="evenodd" d="M103.739 49.0952C103.112 47.5833 101.485 46.8236 100.238 45.8518C98.6637 44.6244 97.2993 43.1485 95.7436 41.9136C95.0078 41.3296 93.8535 42.0529 94.3806 42.9719C95.308 44.5908 96.8028 45.9102 98.1678 47.1502C99.4529 48.3163 101.048 50.131 102.851 50.2683C103.401 50.3104 103.963 49.6348 103.739 49.0952Z" fill="#FFD97A"/>
<path fill-rule="evenodd" clip-rule="evenodd" d="M103.734 61.7368C103.106 60.2244 101.48 59.4647 100.232 58.4929C98.6581 57.2655 97.2937 55.7896 95.738 54.5548C95.0022 53.9707 93.8479 54.694 94.3745 55.613C95.3024 57.2319 96.7972 58.5513 98.1622 59.7913C99.4473 60.9574 101.042 62.7726 102.846 62.9095C103.396 62.9515 103.957 62.2759 103.734 61.7368Z" fill="#FFD97A"/>
<path fill-rule="evenodd" clip-rule="evenodd" d="M89.1173 36.4475C88.4901 34.9352 86.8639 34.1759 85.6159 33.2037C84.0417 31.9768 82.6772 30.5004 81.1216 29.266C80.3853 28.682 79.2315 29.4048 79.7585 30.3242C80.686 31.9427 82.1803 33.2625 83.5457 34.5021C84.8309 35.6687 86.4259 37.4833 88.2293 37.6207C88.7791 37.6623 89.3405 36.9867 89.1173 36.4475Z" fill="#FFD97A"/>
<path fill-rule="evenodd" clip-rule="evenodd" d="M89.1115 49.0888C88.4842 47.5765 86.8576 46.8172 85.61 45.845C84.0358 44.6181 82.6714 43.1421 81.1157 41.9073C80.3795 41.3233 79.2256 42.0465 79.7527 42.9655C80.6801 44.584 82.1745 45.9038 83.5399 47.1433C84.8246 48.31 86.4201 50.1246 88.2235 50.262C88.7728 50.304 89.3346 49.6285 89.1115 49.0888Z" fill="#FFD97A"/>
<path fill-rule="evenodd" clip-rule="evenodd" d="M89.1059 61.7307C88.4791 60.2178 86.8525 59.4586 85.6049 58.4868C84.0307 57.2594 82.6663 55.7835 81.1102 54.5486C80.3743 53.9646 79.2205 54.6879 79.7471 55.6069C80.675 57.2258 82.1694 58.5452 83.5348 59.7852C84.8194 60.9514 86.415 62.766 88.2179 62.9034C88.7677 62.9454 89.3295 62.2698 89.1059 61.7307Z" fill="#FFD97A"/>
<path fill-rule="evenodd" clip-rule="evenodd" d="M74.4892 36.4412C73.8624 34.9288 72.2353 34.1696 70.9878 33.1973C69.4136 31.9704 68.0496 30.494 66.4935 29.2596C65.7576 28.6756 64.6038 29.3984 65.1304 30.3179C66.0578 31.9363 67.5527 33.2562 68.9181 34.4957C70.2023 35.6619 71.7983 37.477 73.6012 37.6144C74.151 37.6559 74.7128 36.9803 74.4892 36.4412Z" fill="#FFD97A"/>
<path fill-rule="evenodd" clip-rule="evenodd" d="M74.4838 49.0825C73.857 47.5701 72.2299 46.8109 70.9824 45.8386C69.4082 44.6117 68.0442 43.1358 66.4881 41.9009C65.7523 41.3169 64.5984 42.0402 65.125 42.9592C66.0525 44.5776 67.5468 45.8975 68.9122 47.137C70.1969 48.3036 71.7929 50.1183 73.5958 50.2556C74.1451 50.2972 74.7074 49.6216 74.4838 49.0825Z" fill="#FFD97A"/>
<path fill-rule="evenodd" clip-rule="evenodd" d="M74.4784 61.7236C73.8516 60.2112 72.225 59.452 70.9775 58.4797C69.4028 57.2528 68.0388 55.7769 66.4827 54.5421C65.7469 53.958 64.5931 54.6813 65.1196 55.6003C66.0475 57.2192 67.5419 58.5386 68.9073 59.7781C70.192 60.9448 71.7875 62.7594 73.5904 62.8968C74.1402 62.9388 74.7021 62.2632 74.4784 61.7236Z" fill="#FFD97A"/>
<path fill-rule="evenodd" clip-rule="evenodd" d="M59.8617 36.4348C59.2349 34.9225 57.6083 34.1632 56.3608 33.191C54.7861 31.9641 53.4221 30.4877 51.866 29.2533C51.1302 28.6693 49.9764 29.3921 50.5029 30.3115C51.4308 31.93 52.9252 33.2498 54.2906 34.4894C55.5753 35.6555 57.1708 37.4707 58.9737 37.608C59.5235 37.6496 60.0854 36.974 59.8617 36.4348Z" fill="#FFD97A"/>
<path fill-rule="evenodd" clip-rule="evenodd" d="M59.8559 49.0759C59.2291 47.5636 57.6025 46.8044 56.3545 45.8321C54.7803 44.6052 53.4163 43.1288 51.8602 41.8944C51.1243 41.3104 49.9705 42.0332 50.4971 42.9527C51.425 44.5711 52.9194 45.891 54.2848 47.1305C55.5695 48.2966 57.165 50.1118 58.9679 50.2491C59.5177 50.2907 60.0795 49.6151 59.8559 49.0759Z" fill="#FFD97A"/>
<path fill-rule="evenodd" clip-rule="evenodd" d="M59.8505 61.7172C59.2237 60.2049 57.5971 59.4456 56.3491 58.4734C54.7749 57.2465 53.4109 55.7706 51.8548 54.5357C51.119 53.9517 49.9651 54.6749 50.4917 55.5939C51.4192 57.2124 52.914 58.5322 54.2794 59.7718C55.5641 60.9384 57.1596 62.753 58.9625 62.8904C59.5123 62.9325 60.0741 62.2564 59.8505 61.7172Z" fill="#FFD97A"/>
<mask id="mask1" mask-type="alpha" maskUnits="userSpaceOnUse" x="0" y="62" width="10" height="13">
<path d="M0 62.4482H9.33479V74.0482H0V62.4482Z" fill="white"/>
</mask>
<g mask="url(#mask1)">
<path fill-rule="evenodd" clip-rule="evenodd" d="M0.635321 73.6388C0.704913 72.2848 0.658982 71.199 1.04731 69.8651C1.40177 68.6471 1.97335 67.4571 2.72078 66.4353C4.36548 64.1875 6.84668 62.8733 9.05972 62.8765C9.2852 62.877 9.45037 62.5172 9.23185 62.4878C6.98819 62.1827 4.29542 63.6708 2.52777 65.9489C0.985139 67.9374 -0.493005 71.6863 0.156525 73.9308C0.230293 74.1868 0.616763 73.9944 0.635321 73.6388Z" fill="#1F2B3D"/>
</g>
<path fill-rule="evenodd" clip-rule="evenodd" d="M3.96006 74.7968C3.63204 73.6573 3.40935 72.6574 3.60606 71.3829C3.80139 70.1144 4.34282 68.8118 5.15983 67.8157C6.6672 65.9782 9.00366 65.1788 10.833 65.7866C11.0311 65.852 11.226 65.4792 11.0474 65.3904C9.06722 64.4083 6.36285 65.3759 4.65784 67.5125C2.99597 69.5953 2.09915 73.4265 3.39404 75.4691C3.6339 75.8476 4.0779 75.207 3.96006 74.7968Z" fill="#1F2B3D"/>
<path fill-rule="evenodd" clip-rule="evenodd" d="M16.0155 46.747C15.8327 46.8862 15.6472 47.0254 15.4625 47.1637C13.5895 48.571 11.6632 50.0189 10.5715 52.0666C10.1535 51.1757 9.61534 50.3641 9.19315 49.7652C8.55011 48.8518 7.5837 47.708 6.35609 46.9394C7.74748 46.1228 8.81085 44.7884 9.53368 43.7764C9.82041 43.3737 10.2301 42.8013 10.5989 42.1552C10.9297 43.0434 11.3876 43.9399 12.0942 44.6884C13.0527 45.7032 14.3416 46.3811 16.0155 46.747ZM18.1251 45.5247C18.0773 45.4892 18.0272 45.4584 17.9715 45.4322C17.3805 45.158 16.7787 44.9832 16.196 44.8136C15.2667 44.5431 14.388 44.2885 13.6517 43.6568C12.593 42.7462 12.1439 41.2773 11.7091 39.8565C11.6215 39.5664 11.5328 39.2781 11.4637 39.1071C11.4252 38.7128 11.3171 38.3469 11.1389 38.0213C10.9515 37.6797 10.5354 37.5316 10.1484 37.6727C9.76983 37.8101 9.55363 38.1713 9.62601 38.5511C9.85056 39.7724 8.9904 41.1469 8.29958 42.25L8.20447 42.4019C6.73514 44.7562 5.21338 45.9896 3.55151 46.1718C3.14509 46.2176 2.85373 46.5577 2.87136 46.9642C2.89085 47.373 3.21422 47.6865 3.62714 47.6931C3.68142 47.694 3.7357 47.6926 3.81133 47.6889L3.8271 47.6926C7.49973 48.6452 8.96163 52.9385 9.50399 55.4124C9.57126 55.7189 9.78978 55.9459 10.0895 56.0202C10.1702 56.0403 10.2551 56.0473 10.3377 56.0431C10.5186 56.0338 10.6968 55.9693 10.8425 55.859C11.1004 55.7637 11.2879 55.5357 11.3394 55.2395C11.8604 52.3245 13.9806 50.7295 16.2266 49.041C17.0242 48.4411 17.8486 47.8211 18.6053 47.1338C18.8781 46.8857 18.9718 46.5353 18.8563 46.1966C18.7454 45.87 18.4582 45.6126 18.1251 45.5247Z" fill="#FFD97A"/>
<path fill-rule="evenodd" clip-rule="evenodd" d="M121.106 50.6176C111.019 63.6814 104.045 75.9878 94.242 88.7712C93.4134 89.8509 91.5089 89.4019 92.2303 88.2965C100.767 75.2145 109.283 61.6093 119.774 49.0156C120.893 47.6714 122.107 49.3211 121.106 50.6176Z" fill="#1F2B3D"/>
<path fill-rule="evenodd" clip-rule="evenodd" d="M46.8936 38.3C63.4167 39.5329 70.839 44.5074 72.3436 55.3037C73.9544 66.8588 67.2387 71.5137 48.5852 69.6841C32.172 68.1866 23.7648 60.8416 24.5011 54.3534C25.9133 43.5346 34.9075 37.2847 46.8936 38.3Z" fill="white"/>
<path fill-rule="evenodd" clip-rule="evenodd" d="M46.8878 38.3699C44.2173 38.1526 41.5107 38.2746 38.8954 38.8628C36.287 39.4501 33.7618 40.5027 31.603 42.0978C29.4429 43.6807 27.6469 45.7738 26.4573 48.1855C25.8565 49.3868 25.3944 50.6576 25.0664 51.9616C24.9778 52.2863 24.9082 52.6152 24.8447 52.9455C24.7723 53.274 24.7203 53.6061 24.6716 53.9393C24.5505 54.6027 24.5366 55.2685 24.615 55.9324C24.7593 57.2602 25.2854 58.5268 26.0087 59.6458C26.7288 60.7732 27.6627 61.7525 28.6713 62.628C30.7127 64.3679 33.1104 65.6448 35.5916 66.6419C38.0858 67.6221 40.6825 68.3318 43.3177 68.8191C45.9516 69.3213 48.6267 69.5755 51.3019 69.7712C53.9765 69.9516 56.6647 70.0137 59.3352 69.8044C61.9927 69.5825 64.6822 69.1186 67.0785 67.9267C68.2685 67.3315 69.3653 66.5302 70.2222 65.5098C71.0875 64.4955 71.686 63.2672 72.0316 61.9763C72.7136 59.3734 72.5085 56.6103 72.0144 53.9766C71.5018 51.3425 70.5154 48.7579 68.8429 46.6498C68.018 45.5934 67.0488 44.6529 65.9803 43.8451C64.9104 43.0378 63.7431 42.3659 62.5308 41.7955C60.1021 40.6541 57.4965 39.9332 54.8687 39.4089C52.2358 38.8857 49.5644 38.581 46.8878 38.3699ZM46.899 38.2297C49.5792 38.4245 52.2594 38.7128 54.9049 39.2221C57.5438 39.7416 60.1805 40.3966 62.658 41.5208C63.8958 42.0781 65.0886 42.7472 66.2072 43.5386C67.3211 44.3366 68.3437 45.2776 69.2242 46.3475C71.0095 48.4832 72.1017 51.1411 72.6978 53.8407C72.9906 55.1965 73.2031 56.5645 73.2713 57.9681C73.3372 59.3678 73.2662 60.8036 72.9247 62.2197C72.5879 63.6307 71.9592 65.023 71.0169 66.1873C70.0844 67.36 68.8791 68.2841 67.5972 68.9686C66.3143 69.6643 64.9438 70.1128 63.5752 70.4482C62.2033 70.7786 60.8198 70.9897 59.4405 71.1224C56.6786 71.3841 53.9311 71.3177 51.2091 71.1589C45.8059 70.8136 40.2631 69.9661 35.1295 67.8155C32.5676 66.747 30.0929 65.3552 27.9791 63.4471C26.9315 62.4888 25.9595 61.4161 25.2065 60.1691C24.4522 58.9319 23.9019 57.5172 23.7771 56.0272C23.7363 55.6567 23.7446 55.2825 23.753 54.9097L23.8059 54.3481C23.8258 54.164 23.8657 53.9995 23.8949 53.8239C23.9557 53.4781 24.0202 53.1338 24.1056 52.7951C24.1817 52.4545 24.2643 52.1162 24.3659 51.7817C24.7463 50.4398 25.265 49.1373 25.9233 47.9132C27.2284 45.4556 29.1464 43.3588 31.3979 41.8128C33.6328 40.2298 36.2119 39.2165 38.8527 38.668C41.4944 38.0942 44.2192 37.9919 46.899 38.2297Z" fill="#1F2B3D"/>
<path fill-rule="evenodd" clip-rule="evenodd" d="M30.8361 35.6574C30.8361 35.6574 43.8865 20.3613 50.0125 20.4164C56.1381 20.4715 58.9417 24.3134 58.9417 24.3134C58.9417 24.3134 61.9862 23.4239 64.8279 25.6375C66.2165 26.7196 71.0439 37.0679 70.3071 44.219C70.3071 44.219 78.7399 46.4519 78.2894 48.8921C77.8384 51.3324 61.5134 52.8022 39.5945 47.0938C22.3305 42.5973 20.9201 37.9528 22.9262 36.3031C24.1176 35.3224 30.8361 35.6574 30.8361 35.6574Z" fill="#1F2B3D"/>
<path fill-rule="evenodd" clip-rule="evenodd" d="M70.7918 44.2628C70.4846 44.2339 70.3074 44.2189 70.3074 44.2189C70.4837 42.5075 70.3357 40.6125 69.9979 38.7053C52.0718 39.5258 37.3869 32.6068 34.8779 31.3477C32.4904 33.7515 30.8359 35.6572 30.8359 35.6572C46.0837 44.7034 67.4114 44.3768 70.7918 44.2628Z" fill="#EDDB00"/>
<path fill-rule="evenodd" clip-rule="evenodd" d="M93.8525 84.6957L97.173 76.6035L100.958 78.5429L104.412 81.82C104.412 81.82 105.209 83.4921 104.81 83.893C104.412 84.2948 102.553 82.7562 102.553 82.7562C102.553 82.7562 103.548 85.6319 103.216 85.8997C103.022 86.0566 101.853 85.2507 101.025 85.1638C100.441 85.1021 101.49 86.2337 101.025 86.7019C100.56 87.17 99.4306 86.3678 99.4306 86.3678L95.2639 84.3401L93.8525 84.6957Z" fill="white"/>
<path fill-rule="evenodd" clip-rule="evenodd" d="M37.0342 72.5586C37.0342 72.5586 40.4609 71.8087 52.6786 73.1585C52.6786 73.1585 58.0488 90.5565 59.5372 112.738C59.5372 112.738 45.7147 114.839 29.4746 112.438C29.4746 112.438 31.2232 88.313 37.0342 72.5586Z" fill="#1F2B3D"/>
<path fill-rule="evenodd" clip-rule="evenodd" d="M15.5791 83.8118C15.5791 83.8118 33.4588 71.2078 38.9714 72.4085V82.1611C38.9714 82.1611 12.748 98.6659 10.0664 95.2146L15.5791 83.8118Z" fill="#1F2B3D"/>
<path fill-rule="evenodd" clip-rule="evenodd" d="M43.0417 74.8507C43.0417 74.8507 46.384 74.7466 46.6545 75.2222C46.925 75.6973 47.5049 78.6613 47.4743 79.1159C47.4437 79.571 45.6473 81.7328 45.6473 81.7328L47.0795 93.3342C47.0795 93.3342 44.5974 98.424 43.393 98.3417C42.1895 98.2595 40.3272 92.8739 40.3578 92.4198C40.3884 91.9648 42.3245 82.0313 42.5945 81.4875C42.7601 81.1539 41.829 79.3958 41.783 77.9292C41.7445 76.7051 43.0417 74.8507 43.0417 74.8507Z" fill="#EDDB00"/>
<path fill-rule="evenodd" clip-rule="evenodd" d="M33.1307 48.4084C33.1307 48.4084 35.9831 55.6853 46.6321 57.792C57.2811 59.8986 62.4157 57.6004 64.6974 56.4515C64.6974 56.4515 61.9271 62.6547 45.301 59.515C30.0881 56.6431 33.1307 48.4084 33.1307 48.4084Z" fill="#1F2B3D"/>
<path fill-rule="evenodd" clip-rule="evenodd" d="M34.8855 53.7239C34.8855 53.7239 31.0152 55.1157 32.3973 56.6472C33.1972 57.5331 36.5441 55.5334 36.5441 55.5334L34.8855 53.7239Z" fill="#1F2B3D"/>
<path fill-rule="evenodd" clip-rule="evenodd" d="M38.341 56.2297C38.341 56.2297 36.4416 59.681 37.5913 59.9861C39.1706 60.4057 40.8292 57.6216 40.8292 57.6216L38.341 56.2297Z" fill="#1F2B3D"/>
<path fill-rule="evenodd" clip-rule="evenodd" d="M43.3175 58.3176C43.3175 58.3176 42.2049 61.7432 43.3467 62.0764C45.2526 62.6328 45.9439 59.153 45.9439 59.153L43.3175 58.3176Z" fill="#1F2B3D"/>
<path fill-rule="evenodd" clip-rule="evenodd" d="M48.293 59.5706C48.293 59.5706 48.2749 62.9336 49.4561 63.0737C51.6102 63.3288 50.9194 59.849 50.9194 59.849L48.293 59.5706Z" fill="#1F2B3D"/>
<path fill-rule="evenodd" clip-rule="evenodd" d="M54.8311 59.5314C54.8311 59.5314 55.3205 63.0117 56.4484 62.6332C58.5218 61.9366 57.5544 59.4314 57.5544 59.4314L54.8311 59.5314Z" fill="#1F2B3D"/>
<path fill-rule="evenodd" clip-rule="evenodd" d="M59.4082 59.3433C59.4082 59.3433 61.3684 62.8417 62.1042 61.7947C62.8396 60.7477 61.4227 58.4771 61.4227 58.4771L59.4082 59.3433Z" fill="#1F2B3D"/>
<path fill-rule="evenodd" clip-rule="evenodd" d="M28.354 75.7002C28.354 75.7002 29.6985 76.523 29.3825 77.3994C29.0666 78.2755 25.715 76.9168 23.2287 76.4375C23.2287 76.4375 20.9015 79.1566 16.6963 79.4374" fill="white"/>
<path fill-rule="evenodd" clip-rule="evenodd" d="M28.354 75.7002C28.6759 75.8576 28.9845 76.0586 29.2424 76.3361C29.4943 76.5982 29.7221 77.0252 29.5774 77.4868C29.5342 77.6302 29.4201 77.7442 29.3097 77.8125C29.196 77.8797 29.0856 77.9096 28.9808 77.9321C28.7697 77.9746 28.5753 77.9774 28.3836 77.9741C28.0014 77.9685 27.6399 77.9078 27.2808 77.8484C25.8514 77.5989 24.492 77.1742 23.1378 76.9154L23.5948 76.7552C23.1164 77.2625 22.6339 77.6522 22.0925 78.0096C21.552 78.354 20.9911 78.6656 20.3921 78.8838C19.21 79.3501 17.9304 79.5463 16.6963 79.4374C17.2976 79.2748 17.8868 79.1365 18.4496 78.9169C19.0184 78.7254 19.5584 78.4675 20.0831 78.1974C20.6037 77.9171 21.1071 77.6097 21.5743 77.2555C22.0382 76.9126 22.51 76.5187 22.8626 76.1197L22.8705 76.1109C22.9865 75.9796 23.1596 75.9273 23.3196 75.9595C24.7579 76.2501 26.1061 76.7197 27.4455 77.121C27.7796 77.2172 28.1155 77.3046 28.4407 77.3667C28.752 77.4359 29.1306 77.4233 29.1793 77.328C29.3092 77.1014 29.2294 76.7696 29.0522 76.4832C28.8717 76.1964 28.6277 75.9301 28.354 75.7002Z" fill="#1F2B3D"/>
<path fill-rule="evenodd" clip-rule="evenodd" d="M12.748 76.3096C14.7226 71.4118 19.5134 68.2086 22.0252 67.4363C27.7443 65.6777 31.0086 67.5124 31.5677 68.6104C32.033 69.5238 24.1816 69.1902 24.0661 69.2046" fill="white"/>
<path fill-rule="evenodd" clip-rule="evenodd" d="M12.748 76.3094C13.5539 73.8145 15.1736 71.5971 17.1602 69.8605C18.1545 68.9854 19.241 68.2131 20.4334 67.5987C20.7284 67.4399 21.0398 67.3058 21.3525 67.1745C21.6768 67.0539 22.0006 66.9441 22.3156 66.8568C22.9526 66.6727 23.6008 66.5208 24.2586 66.4097C25.5744 66.1989 26.9347 66.1531 28.2751 66.3891C28.9427 66.5134 29.6033 66.7091 30.2311 67.0082C30.849 67.324 31.4707 67.6781 31.8897 68.407C31.9096 68.4341 31.9876 68.6098 31.9579 68.7555C31.9342 68.9209 31.8461 69.0181 31.7807 69.0812C31.6466 69.1966 31.5436 69.2312 31.4452 69.2699C31.2536 69.3353 31.081 69.368 30.9098 69.3951C30.5688 69.447 30.2394 69.4732 29.9091 69.4853C29.2507 69.5101 28.5998 69.5045 27.9494 69.4867C26.6489 69.4395 25.3554 69.3461 24.0661 69.2045C25.3614 69.127 26.6554 69.0929 27.9419 69.0046C28.5845 68.9667 29.2271 68.9209 29.858 68.8438C30.1726 68.8027 30.4872 68.7644 30.7832 68.6995C30.9293 68.6677 31.0736 68.6285 31.1859 68.5817C31.2374 68.5607 31.2847 68.5271 31.2712 68.5331C31.2615 68.5397 31.2295 68.5705 31.2123 68.6527C31.1933 68.7177 31.2443 68.8116 31.2207 68.7695C31.1061 68.5771 30.8852 68.378 30.65 68.2178C30.4148 68.051 30.1517 67.9085 29.8766 67.7884C29.325 67.5492 28.7288 67.3936 28.1224 67.3034C26.9073 67.1105 25.6472 67.1637 24.4131 67.3707C23.7942 67.4674 23.179 67.6043 22.5708 67.7716C22.2609 67.8543 21.9714 67.9501 21.6874 68.051C21.403 68.1696 21.1163 68.2841 20.8347 68.4219C19.7003 68.9504 18.6435 69.6694 17.6371 70.4408C15.6487 72.0167 13.8991 73.9631 12.748 76.3094Z" fill="#1F2B3D"/>
<path fill-rule="evenodd" clip-rule="evenodd" d="M24.0645 69.205C24.0677 69.2046 28.1259 68.8724 30.9017 71.2762C34.9172 74.7522 31.8073 74.3182 30.9741 73.716C30.2559 73.1974 28.3156 72.347 26.6839 72.0475" fill="white"/>
<path fill-rule="evenodd" clip-rule="evenodd" d="M24.0645 69.205C25.5036 68.9363 27.0189 69.0331 28.4604 69.4624C29.1818 69.6769 29.8842 69.9904 30.5287 70.4137C31.1777 70.8571 31.7178 71.3453 32.2573 71.8756C32.5209 72.148 32.7751 72.4344 33.008 72.7745C33.1217 72.9511 33.2358 73.1315 33.3175 73.3847C33.3527 73.5183 33.394 73.6622 33.3606 73.8687C33.3379 74.0668 33.1922 74.2986 33.0238 74.3999C32.6944 74.5962 32.4415 74.5761 32.2202 74.5681C31.9966 74.5513 31.7934 74.5079 31.5953 74.449C31.3981 74.3887 31.207 74.3154 31.0172 74.214C30.9253 74.1649 30.8228 74.0972 30.7356 74.0304C30.6725 73.9822 30.6099 73.9323 30.5389 73.8851C29.9738 73.5066 29.3307 73.1716 28.6863 72.8689C28.0405 72.5558 27.3738 72.2895 26.6839 72.0475C27.4156 72.0765 28.1412 72.2251 28.851 72.4194C29.5599 72.6283 30.2545 72.8665 30.9328 73.2352C31.0181 73.28 31.1044 73.3338 31.1907 73.387C31.2534 73.4235 31.3049 73.451 31.3768 73.48C31.5118 73.5379 31.663 73.5884 31.8147 73.623C31.9664 73.6575 32.1209 73.679 32.2587 73.68C32.3942 73.6888 32.5223 73.6398 32.5023 73.6398C32.4875 73.6412 32.4392 73.7019 32.4429 73.7215C32.4438 73.7477 32.4387 73.7085 32.4258 73.6683C32.3942 73.5753 32.3163 73.4422 32.2295 73.3169C32.0467 73.06 31.8129 72.8044 31.5674 72.56C31.0859 72.0592 30.5444 71.5705 30.0123 71.1743C29.4709 70.7571 28.8459 70.4567 28.2094 70.1777C26.9187 69.6502 25.5138 69.34 24.0645 69.205Z" fill="#1F2B3D"/>
<path fill-rule="evenodd" clip-rule="evenodd" d="M23.3877 71.1724C23.3877 71.1724 28.6559 71.6779 31.2776 75.1497C32.2399 76.4238 31.3486 76.8668 29.5986 76.2547C27.9145 75.666 25.7487 74.185 23.7579 73.7878" fill="white"/>
<path fill-rule="evenodd" clip-rule="evenodd" d="M23.3877 71.1724C24.9507 71.2607 26.5091 71.6312 27.9632 72.2755C29.413 72.9258 30.771 73.8729 31.711 75.2624C31.8228 75.4506 31.9323 75.6548 31.9652 75.9337C31.98 76.0716 31.9606 76.2426 31.8747 76.393C31.7903 76.5453 31.652 76.65 31.5258 76.7074C31.0099 76.9069 30.5928 76.8028 30.1855 76.7261C29.3773 76.5355 28.6619 76.1674 27.9641 75.8099C27.2682 75.4422 26.5922 75.0568 25.9018 74.7003C25.2152 74.3345 24.5081 74.0172 23.7579 73.7878C25.3265 73.9883 26.7727 74.7255 28.1798 75.3637C28.8846 75.688 29.593 75.9987 30.3098 76.1594C30.6555 76.236 31.0563 76.2697 31.2748 76.1687C31.3695 76.1099 31.3709 76.1052 31.3713 75.9893C31.3621 75.8749 31.2957 75.717 31.2071 75.5703C30.391 74.3424 29.123 73.3814 27.7711 72.681C26.4029 71.983 24.9206 71.4765 23.3877 71.1724Z" fill="#1F2B3D"/>
<path fill-rule="evenodd" clip-rule="evenodd" d="M100.429 84.7038C100.429 84.7038 101.572 85.7929 101.08 86.5825C100.588 87.3725 97.5954 85.335 95.2641 84.3403C95.2641 84.3403 92.4215 86.5063 88.252 85.8905" fill="white"/>
<path fill-rule="evenodd" clip-rule="evenodd" d="M100.429 84.7037C100.711 84.9261 100.971 85.1872 101.165 85.5133C101.357 85.8231 101.49 86.2894 101.252 86.7099C101.18 86.8402 101.045 86.9281 100.922 86.9711C100.798 87.0126 100.683 87.0182 100.576 87.0182C100.361 87.015 100.17 86.9767 99.9838 86.9332C99.6104 86.8468 99.2703 86.7108 98.9311 86.5767C97.5862 86.031 96.3456 85.3274 95.0757 84.7882L95.5559 84.728C94.9829 85.1223 94.4294 85.4017 93.8254 85.6367C93.2255 85.8586 92.6117 86.0446 91.9807 86.1315C90.7276 86.3361 89.4355 86.2581 88.252 85.8904C88.8736 85.8586 89.4782 85.8483 90.0748 85.7526C90.671 85.6862 91.2528 85.5479 91.8216 85.3947C92.389 85.2311 92.9453 85.0372 93.4765 84.7896C94.0012 84.5523 94.545 84.2668 94.9727 83.9519L94.9825 83.9449C95.123 83.8402 95.3031 83.8267 95.4529 83.8921C96.7984 84.4799 98.019 85.2246 99.2443 85.9007C99.5505 86.0651 99.8609 86.2216 100.166 86.3511C100.457 86.4847 100.828 86.5524 100.896 86.4702C101.07 86.2754 101.062 85.9348 100.948 85.6166C100.831 85.298 100.649 84.9863 100.429 84.7037Z" fill="#1F2B3D"/>
<path fill-rule="evenodd" clip-rule="evenodd" d="M85.0444 81.9968C87.997 77.626 93.3491 75.5081 95.9663 75.2848C101.925 74.776 104.734 77.2602 105.051 78.4521C105.315 79.4435 97.7084 77.456 97.5924 77.4457" fill="white"/>
<path fill-rule="evenodd" clip-rule="evenodd" d="M85.0444 81.9967C86.3528 79.7279 88.3988 77.9029 90.7042 76.6256C91.8589 75.9804 93.0824 75.4548 94.3763 75.1071C94.6978 75.0137 95.03 74.9483 95.3631 74.8866C95.7055 74.8376 96.0451 74.7988 96.3713 74.7796C97.0324 74.7348 97.6977 74.7231 98.3644 74.7535C99.6946 74.8259 101.034 75.0693 102.295 75.5832C102.922 75.8467 103.527 76.178 104.078 76.6027C104.617 77.0423 105.151 77.5208 105.408 78.322C105.422 78.3519 105.461 78.5407 105.402 78.6767C105.344 78.8332 105.237 78.9098 105.161 78.9579C105.005 79.0425 104.897 79.0537 104.793 79.071C104.592 79.0943 104.417 79.0897 104.244 79.0803C103.9 79.0584 103.572 79.0144 103.247 78.9565C102.598 78.8416 101.962 78.6977 101.33 78.5435C100.069 78.2221 98.8237 77.8567 97.5924 77.4455C98.8757 77.6441 100.147 77.8838 101.424 78.0702C102.06 78.1693 102.698 78.2604 103.331 78.3192C103.646 78.3454 103.962 78.3739 104.265 78.373C104.415 78.373 104.564 78.365 104.683 78.3435C104.738 78.3337 104.792 78.3104 104.777 78.3141C104.766 78.3183 104.729 78.3417 104.695 78.4183C104.663 78.4781 104.693 78.5809 104.678 78.5346C104.606 78.322 104.432 78.0805 104.236 77.874C104.04 77.6614 103.813 77.4661 103.569 77.2909C103.08 76.9405 102.529 76.662 101.955 76.4448C100.807 75.9995 99.5642 75.7846 98.3148 75.7257C97.6894 75.6898 97.0593 75.693 96.4298 75.7281C96.1101 75.743 95.8062 75.7762 95.5079 75.815C95.2045 75.8706 94.9006 75.921 94.5967 75.9963C93.3774 76.2728 92.1939 76.7522 91.0489 77.2942C88.7764 78.4131 86.6594 79.9461 85.0444 81.9967Z" fill="#1F2B3D"/>
<path fill-rule="evenodd" clip-rule="evenodd" d="M97.5908 77.4456C97.5936 77.446 101.63 77.98 103.843 80.9179C107.043 85.1658 104.094 84.0837 103.404 83.318C102.811 82.6592 101.091 81.4173 99.558 80.7791" fill="white"/>
<path fill-rule="evenodd" clip-rule="evenodd" d="M97.5908 77.4456C99.0537 77.4876 100.515 77.903 101.834 78.6276C102.495 78.9902 103.116 79.4448 103.658 79.9951C104.2 80.5665 104.626 81.158 105.043 81.7906C105.244 82.1121 105.432 82.4466 105.59 82.8283C105.664 83.025 105.738 83.2254 105.765 83.4904C105.771 83.6282 105.782 83.7782 105.706 83.9735C105.642 84.1613 105.452 84.3575 105.265 84.4206C104.903 84.5425 104.66 84.4696 104.444 84.4154C104.23 84.3519 104.04 84.2655 103.859 84.166C103.678 84.0655 103.507 83.9543 103.342 83.8141C103.263 83.7469 103.177 83.6586 103.106 83.5754C103.054 83.5142 103.003 83.4525 102.943 83.3913C102.47 82.9021 101.912 82.4387 101.345 82.0056C100.779 81.5631 100.182 81.1618 99.558 80.7791C100.268 80.9623 100.946 81.2613 101.6 81.6014C102.249 81.9556 102.878 82.3354 103.464 82.8395C103.538 82.9012 103.612 82.9722 103.685 83.0423C103.739 83.0914 103.784 83.1292 103.847 83.1727C103.967 83.2582 104.105 83.339 104.246 83.4053C104.386 83.4712 104.533 83.5254 104.668 83.5548C104.798 83.5917 104.934 83.5712 104.914 83.5674C104.9 83.5656 104.84 83.6146 104.839 83.6343C104.834 83.6604 104.838 83.6207 104.834 83.5791C104.822 83.4805 104.774 83.3343 104.715 83.1937C104.59 82.904 104.415 82.6045 104.226 82.3134C103.86 81.722 103.432 81.13 102.994 80.6296C102.552 80.1077 102.004 79.6812 101.44 79.2738C100.288 78.4851 98.9794 77.8843 97.5908 77.4456Z" fill="#1F2B3D"/>
<path fill-rule="evenodd" clip-rule="evenodd" d="M96.5187 79.2258C96.5187 79.2258 101.564 80.8349 103.402 84.7838C104.077 86.2336 103.113 86.4775 101.53 85.5089C100.007 84.5773 98.1977 82.6711 96.335 81.8609" fill="white"/>
<path fill-rule="evenodd" clip-rule="evenodd" d="M96.5187 79.2263C98.0284 79.6435 99.474 80.335 100.762 81.2732C102.043 82.2151 103.173 83.4289 103.802 84.9861C103.872 85.1936 103.937 85.4169 103.911 85.6963C103.896 85.8346 103.842 85.9967 103.727 86.1266C103.612 86.2569 103.455 86.3298 103.319 86.3597C102.774 86.4457 102.388 86.2551 102.005 86.0939C101.255 85.7374 100.632 85.2253 100.025 84.7282C99.4212 84.2213 98.8408 83.7013 98.2404 83.207C97.6456 82.7038 97.0198 82.2445 96.335 81.8614C97.8261 82.3898 99.0862 83.4158 100.329 84.3372C100.95 84.8039 101.578 85.2576 102.246 85.5664C102.567 85.7145 102.952 85.8327 103.187 85.7799C103.292 85.7425 103.294 85.7383 103.319 85.6243C103.334 85.5108 103.302 85.3421 103.245 85.1805C102.704 83.8078 101.665 82.5991 100.489 81.6283C99.2968 80.6569 97.9537 79.8477 96.5187 79.2263Z" fill="#1F2B3D"/>
<path fill-rule="evenodd" clip-rule="evenodd" d="M12.7482 76.0093C12.7482 76.0093 14.4579 78.0818 17.6651 79.0102C17.6651 79.0102 19.4532 96.4153 11.2585 95.8154C7.3919 95.5318 7.23555 86.9626 12.7482 76.0093Z" fill="#1F2B3D"/>
<path fill-rule="evenodd" clip-rule="evenodd" d="M52.6787 73.1584C52.6787 73.1584 55.1297 73.5187 58.4892 78.11C62.6615 83.8118 71.6009 90.864 71.6009 90.864C71.6009 90.864 79.3489 86.6623 85.4572 81.5608C85.4572 81.5608 86.3517 84.4117 89.0333 86.0619C89.0333 86.0619 75.9221 98.5155 69.8133 99.7162C69.8133 99.7162 60.2773 97.0153 51.4868 86.5123L52.6787 73.1584Z" fill="#1F2B3D"/>
</svg>
