<?xml version="1.0" encoding="utf-8"?>
<!-- Generator: Adobe Illustrator 14.0.0, SVG Export Plug-In . SVG Version: 6.00 Build 43363)  -->
<!DOCTYPE svg PUBLIC "-//W3C//DTD SVG 1.1//EN" "http://www.w3.org/Graphics/SVG/1.1/DTD/svg11.dtd">
<svg version="1.1" id="圖層_1" xmlns="http://www.w3.org/2000/svg" xmlns:xlink="http://www.w3.org/1999/xlink" x="0px" y="0px"
	 width="354px" height="291px" viewBox="314 163 354 291" enable-background="new 314 163 354 291" xml:space="preserve">
<path fill="#F8F8F8" d="M503,365.723c0,1.257-0.996,2.277-2.226,2.277h-107.55c-1.229,0-2.225-1.02-2.225-2.277v-88.447
	c0-1.257,0.995-2.276,2.225-2.276h107.55c1.229,0,2.226,1.019,2.226,2.276V365.723z"/>
<path fill="#F37C18" d="M503,277.333c0-1.288-0.996-2.333-2.226-2.333h-107.55c-1.229,0-2.225,1.045-2.225,2.333V286h112V277.333z"
	/>
<path fill="#F37C18" d="M405,299h68v-4h-68V299z"/>
<path fill="#0086F4" d="M405,305h59v-4h-59V305z"/>
<path fill="#93999F" d="M405,315h27v-4h-27V315z"/>
<path fill="#7F9BA8" d="M409,321h20v-4h-20V321z"/>
<path fill="#2BD8BC" d="M412,326h39v-4h-39V326z"/>
<path fill="#93999F" d="M417,337h39v-4h-39V337z"/>
<path fill="#2BD8BC" d="M412,343h28v-4h-28V343z"/>
<path fill="#93999F" d="M412,348h28v-4h-28V348z"/>
<path fill="#93999F" d="M417,355h19v-4h-19V355z"/>
<path fill="#7F9BA8" d="M406,360h16v-4h-16V360z"/>
<path fill="#93999F" d="M456,360h11v-4h-11V360z"/>
<path fill="#2BD8BC" d="M424,360h29v-4h-29V360z"/>
<path fill="#2BD8BC" d="M436,355h47v-4h-47V355z"/>
<path fill="#0086F4" d="M442,348h18v-4h-18V348z"/>
<path fill="#93999F" d="M443,343h28v-4h-28V343z"/>
<path fill="#93999F" d="M456,326h17v-4h-17V326z"/>
<path fill="#93999F" d="M430,321h17v-4h-17V321z"/>
<path fill="#93999F" d="M451,321h16v-4h-16V321z"/>
<path fill="#93999F" d="M435,315h28v-4h-28V315z"/>
<path fill="#93999F" d="M417,332h27v-4h-27V332z"/>
<path fill="#2BD8BC" d="M446,332h28v-4h-28V332z"/>
<path fill="#7F9BA8" d="M405,309h53v-4h-53V309z"/>
<path fill="#F9D6C8" d="M401,279.998c0,1.659-1.344,3.002-3.002,3.002c-1.655,0-2.998-1.343-2.998-3.002
	c0-1.656,1.343-2.998,2.998-2.998C399.656,277,401,278.342,401,279.998z"/>
<path fill="#F9D6C8" d="M411,279.998c0,1.659-1.345,3.002-3.002,3.002c-1.654,0-2.998-1.343-2.998-3.002
	c0-1.656,1.344-2.998,2.998-2.998C409.656,277,411,278.342,411,279.998z"/>
<path fill="#F9D6C8" d="M421,279.998c0,1.659-1.343,3.002-2.999,3.002c-1.658,0-3.001-1.343-3.001-3.002
	c0-1.656,1.343-2.998,3.001-2.998C419.657,277,421,278.342,421,279.998z"/>
<path fill="#E4C834" d="M582.776,323h-81.15v-45.777c0-1.219-0.994-2.207-2.219-2.207H473v-42.8c0-1.223,0.995-2.216,2.223-2.216
	h107.553c1.229,0,2.225,0.993,2.225,2.216v88.506C585,321.98,584.004,323,582.776,323z"/>
<path fill="#E4C834" d="M501,323h-25.826c-1.199,0-2.174-1.005-2.174-2.243v-22.975h1.168v-2.537H473V286h28V323z"/>
<path fill="#E4C834" d="M501,286h-28v-11h25.83c1.198,0,2.17,1.045,2.17,2.333V286z"/>
<path fill="#E4C834" d="M473,299h2v-4h-2V299z"/>
<path fill="#FFFFFF" d="M588,317.72c0,1.26-0.998,2.28-2.227,2.28h-107.55c-1.229,0-2.224-1.02-2.224-2.28v-88.445
	c0-1.256,0.995-2.275,2.224-2.275h107.55c1.229,0,2.227,1.019,2.227,2.275V317.72z"/>
<path fill="#F37C18" d="M588,229.335c0-1.29-0.998-2.335-2.227-2.335h-107.55c-1.229,0-2.224,1.045-2.224,2.335V238h112V229.335z"/>
<path fill="#F37C18" d="M491,251h68v-4h-68V251z"/>
<path fill="#0086F4" d="M491,257h60v-4h-60V257z"/>
<path fill="#93999F" d="M491,267h27v-4h-27V267z"/>
<path fill="#99BCD6" d="M495,273h20v-4h-20V273z"/>
<path fill="#2BD8BC" d="M497,279h40v-4h-40V279z"/>
<path fill="#93999F" d="M501,291h40v-4h-40V291z"/>
<path fill="#2BD8BC" d="M497,296h28v-4h-28V296z"/>
<path fill="#93999F" d="M497,301h28v-4h-28V301z"/>
<path fill="#93999F" d="M502,307h19v-4h-19V307z"/>
<path fill="#99BCD6" d="M491,312h16v-4h-16V312z"/>
<path fill="#93999F" d="M540,312h11v-4h-11V312z"/>
<path fill="#2BD8BC" d="M508,312h29v-4h-29V312z"/>
<path fill="#2BD8BC" d="M521,307h47v-4h-47V307z"/>
<path fill="#0086F4" d="M528,301h18v-4h-18V301z"/>
<path fill="#93999F" d="M528,296h28v-4h-28V296z"/>
<path fill="#93999F" d="M540,279h17v-4h-17V279z"/>
<path fill="#93999F" d="M516,273h17v-4h-17V273z"/>
<path fill="#93999F" d="M537,273h16v-4h-16V273z"/>
<path fill="#93999F" d="M521,267h28v-4h-28V267z"/>
<path fill="#93999F" d="M501,285h27v-4h-27V285z"/>
<path fill="#2BD8BC" d="M531,285h28v-4h-28V285z"/>
<path fill="#99BCD6" d="M491,261h53v-4h-53V261z"/>
<path fill="#FFFFFF" d="M556.172,420h-88.346c-1.008,0-1.826-0.834-1.826-1.861V371.04h33.571c1.226,0,2.218-1.013,2.218-2.261V344
	h54.383c1.009,0,1.828,0.812,1.828,1.812v72.327C558,419.166,557.181,420,556.172,420z"/>
<path fill="#FFFFFF" d="M498.83,371H466v-3.334h32.83c1.198,0,2.17-1.195,2.17-2.666v3.332C501,369.805,500.029,371,498.83,371z"/>
<path fill="#FFFFFF" d="M498.83,368H466v-15.07h17.064v-2.541H466v-4.593c0-0.992,0.801-1.796,1.785-1.796H501v21.762
	C501,366.997,500.029,368,498.83,368z"/>
<path fill="#FFFFFF" d="M466,354h17v-5h-17V354z"/>
<path fill="#F3F3F3" d="M561,416.139c0,1.027-0.819,1.861-1.827,1.861h-88.347c-1.008,0-1.826-0.834-1.826-1.861v-72.28
	c0-1.026,0.818-1.859,1.826-1.859h88.347c1.008,0,1.827,0.833,1.827,1.859V416.139z"/>
<path fill="#F37C18" d="M561,343.911c0-1.056-0.819-1.911-1.827-1.911h-88.347c-1.008,0-1.826,0.855-1.826,1.911V351h92V343.911z"/>
<path fill="#F37C18" d="M481,362h57v-3h-57V362z"/>
<path fill="#0086F4" d="M481,365h49v-3h-49V365z"/>
<path fill="#93999F" d="M481,375h22v-3h-22V375z"/>
<path fill="#99BCD6" d="M483,379h16v-3h-16V379z"/>
<path fill="#78C6C7" d="M487,384h33v-3h-33V384z"/>
<path fill="#93999F" d="M489,393h33v-3h-33V393z"/>
<path fill="#78C6C7" d="M487,397h22v-3h-22V397z"/>
<path fill="#93999F" d="M487,402h22v-3h-22V402z"/>
<path fill="#93999F" d="M489,406h15v-3h-15V406z"/>
<path fill="#99BCD6" d="M481,411h12v-3h-12V411z"/>
<path fill="#93999F" d="M521,411h10v-3h-10V411z"/>
<path fill="#78C6C7" d="M495,411h24v-3h-24V411z"/>
<path fill="#78C6C7" d="M506,406h39v-3h-39V406z"/>
<path fill="#0086F4" d="M511,402h15v-3h-15V402z"/>
<path fill="#93999F" d="M513,397h22v-3h-22V397z"/>
<path fill="#93999F" d="M521,384h14v-3h-14V384z"/>
<path fill="#93999F" d="M501,379h14v-3h-14V379z"/>
<path fill="#93999F" d="M520,379h12v-3h-12V379z"/>
<path fill="#93999F" d="M505,375h22v-3h-22V375z"/>
<path fill="#93999F" d="M489,387h22v-3h-22V387z"/>
<path fill="#78C6C7" d="M513,387h22v-3h-22V387z"/>
<path fill="#99BCD6" d="M481,370h43v-3h-43V370z"/>
<path fill="#F9D6C8" d="M478,346.499c0,1.382-1.118,2.501-2.499,2.501c-1.383,0-2.501-1.119-2.501-2.501
	c0-1.38,1.118-2.499,2.501-2.499C476.882,344,478,345.119,478,346.499z"/>
<path fill="#F9D6C8" d="M486,346.499c0,1.382-1.12,2.501-2.499,2.501c-1.382,0-2.501-1.119-2.501-2.501
	c0-1.38,1.119-2.499,2.501-2.499C484.88,344,486,345.119,486,346.499z"/>
<path fill="#F9D6C8" d="M494,346.499c0,1.382-1.119,2.501-2.502,2.501c-1.38,0-2.498-1.119-2.498-2.501
	c0-1.38,1.118-2.499,2.498-2.499C492.881,344,494,345.119,494,346.499z"/>
<path fill="#4F5FFF" d="M352.4,188h-24.801c-7.511,0-13.599,6.035-13.599,13.478v17.443c0,5.902,3.834,10.907,9.164,12.731
	l0.435,9.348l12.219-8.6H352.4c7.511,0,13.601-6.035,13.601-13.479v-17.443C366,194.035,359.91,188,352.4,188z"/>
<path fill="#FFFFFF" d="M382.952,163h-32.905c-9.969,0-18.047,7.971-18.047,17.802v23.037c0,9.832,8.078,17.803,18.047,17.803
	h22.001L388.261,233l0.578-12.347c7.071-2.409,12.161-9.018,12.161-16.814v-23.037C401,170.971,392.92,163,382.952,163z"/>
<path fill="#6F8190" d="M361.741,195.596v2.763l-9.823-4.257v-2.364l9.823-4.258v2.784l-6.846,2.636L361.741,195.596z
	 M369.415,187.422l-2.733,11.26c-0.091,0.371-0.172,0.664-0.244,0.879c-0.065,0.214-0.169,0.38-0.313,0.498
	c-0.137,0.123-0.339,0.185-0.605,0.185c-0.664,0-0.996-0.286-0.996-0.859c0-0.15,0.065-0.524,0.195-1.123l2.725-11.26
	c0.144-0.599,0.28-1.009,0.41-1.231c0.13-0.221,0.384-0.332,0.762-0.332c0.325,0,0.573,0.079,0.742,0.235
	c0.176,0.156,0.263,0.371,0.263,0.644C369.62,186.52,369.553,186.888,369.415,187.422z M382.227,194.102l-9.824,4.277v-2.764
	l6.865-2.695l-6.865-2.656v-2.744l9.824,4.238V194.102z"/>
<path fill="#4F5FFF" d="M652.525,409h-23.05c-6.337,0-11.475,5.025-11.475,11.227v22.548c0,6.199,5.138,11.226,11.475,11.226h23.05
	c6.337,0,11.476-5.026,11.476-11.226v-22.548C664,414.025,658.862,409,652.525,409z"/>
<path fill="#FFFFFF" d="M642.231,435H638l0.769-4H643L642.231,435z M650.854,430.818c1.185,0,2.146-0.961,2.146-2.146v-0.071
	c0-1.185-0.962-2.146-2.146-2.146h-2.119l0.532-2.923c0.24-1.319-0.772-2.531-2.112-2.531c-1.037,0-1.926,0.742-2.111,1.762
	l-0.672,3.692h-4.363l0.531-2.923c0.239-1.319-0.772-2.531-2.112-2.531c-1.037,0-1.927,0.742-2.112,1.762l-0.67,3.692h-4.499
	c-1.185,0-2.146,0.962-2.146,2.146v0.071c0,1.186,0.961,2.146,2.146,2.146h3.706l-0.794,4.363h-2.912
	c-1.185,0-2.146,0.961-2.146,2.146v0.071c0,1.185,0.961,2.146,2.146,2.146h2.118l-0.531,2.924c-0.24,1.318,0.772,2.531,2.112,2.531
	c1.037,0,1.926-0.742,2.111-1.763l0.672-3.692h4.363l-0.531,2.924c-0.239,1.318,0.772,2.531,2.111,2.531
	c1.038,0,1.926-0.742,2.113-1.763l0.67-3.692h4.499c1.185,0,2.146-0.961,2.146-2.146v-0.071c0-1.186-0.962-2.146-2.146-2.146h-3.706
	l0.794-4.363H650.854z"/>
<path fill="#F37C18" d="M373.141,804.158c-0.516,0.522-1.36,0.522-1.876,0l-3.816-3.865c-0.515-0.523-0.515-1.378,0-1.901
	c0.517-0.522,1.361-0.522,1.877,0l3.815,3.865C373.656,802.78,373.656,803.636,373.141,804.158z"/>
<path fill="#F37C18" d="M373.078,807.596c0.517,0.523,0.517,1.378,0,1.901l-3.815,3.866c-0.517,0.521-1.36,0.521-1.876,0
	c-0.517-0.523-0.517-1.379,0-1.901l3.814-3.866C371.718,807.073,372.563,807.073,373.078,807.596z"/>
<path fill="#F37C18" d="M376.472,807.66c0.516-0.523,1.359-0.523,1.876,0l3.815,3.865c0.517,0.522,0.517,1.378,0,1.9
	c-0.516,0.523-1.36,0.523-1.877,0l-3.814-3.865C375.955,809.038,375.955,808.182,376.472,807.66z"/>
<path fill="#F37C18" d="M376.533,804.222c-0.516-0.522-0.516-1.378,0-1.9l3.816-3.865c0.516-0.523,1.36-0.523,1.876,0
	c0.516,0.522,0.516,1.378,0,1.901l-3.815,3.864C377.895,804.745,377.05,804.745,376.533,804.222z"/>
</svg>
