<?xml version="1.0" encoding="utf-8"?>
<!-- Generator: Adobe Illustrator 14.0.0, SVG Export Plug-In . SVG Version: 6.00 Build 43363)  -->
<!DOCTYPE svg PUBLIC "-//W3C//DTD SVG 1.1//EN" "http://www.w3.org/Graphics/SVG/1.1/DTD/svg11.dtd">
<svg version="1.1" id="圖層_1" xmlns="http://www.w3.org/2000/svg" xmlns:xlink="http://www.w3.org/1999/xlink" x="0px" y="0px"
	 width="361px" height="694px" viewBox="307 120 361 694" enable-background="new 307 120 361 694" xml:space="preserve">
<path fill="#FFFFFF" d="M572.282,200.234c0.364,0,0.722,0.046,1.055,0.135c0.103-3.447,2.868-6.213,6.261-6.213
	c0.576,0,1.13,0.082,1.66,0.229c0.727-3.089,3.439-5.386,6.682-5.386c3.792,0,6.869,3.148,6.869,7.031
	c0,0.107-0.002,0.216-0.007,0.323c0.597-0.193,1.232-0.295,1.891-0.295c3.486,0,6.308,2.887,6.308,6.448
	c0,3.134-2.189,5.748-5.084,6.331c-0.427,0.105-0.88,0.162-1.344,0.162h-23.628c-0.122,0-0.24-0.007-0.354-0.013
	c-0.104,0.006-0.204,0.013-0.308,0.013c-2.364,0-4.282-1.962-4.282-4.383C568,202.197,569.918,200.234,572.282,200.234z"/>
<path fill="#FFFFFF" d="M627.5,318.609c-4.479,0-8.109-3.63-8.109-8.109s3.63-8.109,8.109-8.109c4.479,0,8.108,3.63,8.108,8.109
	S631.979,318.609,627.5,318.609z M641,313.247v-5.494l-3.334-0.565c-0.173-0.531-0.386-1.044-0.636-1.534l1.957-2.757l-3.885-3.885
	l-2.757,1.957c-0.49-0.25-1.003-0.463-1.534-0.636L630.246,297H627.5h-2.747l-0.565,3.333c-0.531,0.173-1.044,0.386-1.534,0.636
	l-2.757-1.957l-3.885,3.885l1.957,2.757c-0.25,0.49-0.463,1.003-0.637,1.534L614,307.753v5.494l3.332,0.565
	c0.174,0.531,0.387,1.044,0.637,1.534l-1.957,2.757l3.885,3.885l2.757-1.957c0.49,0.25,1.003,0.463,1.534,0.636l0.565,3.333h2.747
	h2.746l0.565-3.333c0.531-0.173,1.044-0.386,1.534-0.636l2.757,1.957l3.885-3.885l-1.957-2.757c0.25-0.49,0.463-1.003,0.636-1.534
	L641,313.247z"/>
<path fill="#F37C18" d="M644.141,163.158c-0.516,0.523-1.36,0.523-1.876,0l-3.816-3.865c-0.515-0.523-0.515-1.378,0-1.901
	c0.517-0.523,1.361-0.523,1.877,0l3.815,3.865C644.656,161.78,644.656,162.636,644.141,163.158z"/>
<path fill="#F37C18" d="M644.078,166.596c0.517,0.522,0.517,1.378,0,1.901l-3.815,3.865c-0.517,0.523-1.36,0.523-1.876,0
	c-0.517-0.523-0.517-1.378,0-1.901l3.814-3.865C642.718,166.073,643.563,166.073,644.078,166.596z"/>
<path fill="#F37C18" d="M647.472,166.659c0.516-0.523,1.359-0.523,1.876,0l3.815,3.866c0.517,0.522,0.517,1.378,0,1.901
	c-0.516,0.522-1.36,0.522-1.877,0l-3.814-3.866C646.955,168.037,646.955,167.182,647.472,166.659z"/>
<path fill="#F37C18" d="M647.533,163.221c-0.516-0.522-0.516-1.378,0-1.901l3.816-3.865c0.516-0.523,1.36-0.523,1.876,0
	s0.516,1.378,0,1.901l-3.815,3.865C648.895,163.744,648.05,163.744,647.533,163.221z"/>
<path fill="#4F5FFF" d="M315.06,128.083c-0.677,0.686-1.785,0.686-2.462,0l-5.008-5.073c-0.678-0.686-0.678-1.809,0-2.495
	c0.677-0.687,1.785-0.687,2.463,0l5.007,5.073C315.737,126.274,315.737,127.397,315.06,128.083z"/>
<path fill="#4F5FFF" d="M314.978,132.595c0.677,0.687,0.677,1.809,0,2.495l-5.007,5.073c-0.678,0.686-1.786,0.686-2.463,0
	c-0.678-0.686-0.678-1.809,0-2.495l5.007-5.073C313.193,131.909,314.301,131.909,314.978,132.595z"/>
<path fill="#4F5FFF" d="M319.432,132.678c0.677-0.686,1.785-0.686,2.462,0l5.008,5.073c0.677,0.687,0.677,1.809,0,2.495
	c-0.677,0.687-1.785,0.687-2.463,0l-5.007-5.073C318.755,134.487,318.755,133.364,319.432,132.678z"/>
<path fill="#4F5FFF" d="M319.514,128.166c-0.677-0.686-0.677-1.809,0-2.495l5.007-5.073c0.678-0.687,1.786-0.687,2.463,0
	c0.677,0.686,0.677,1.809,0,2.495l-5.007,5.073C321.299,128.852,320.191,128.852,319.514,128.166z"/>
<path fill="#FFFFFF" d="M501.168,153.216c-0.434,0.439-1.142,0.439-1.574,0l-3.2-3.247c-0.433-0.438-0.433-1.158,0-1.597
	s1.141-0.439,1.574,0l3.2,3.247C501.601,152.058,501.601,152.777,501.168,153.216z"/>
<path fill="#FFFFFF" d="M501.115,156.104c0.434,0.439,0.434,1.157,0,1.597l-3.2,3.247c-0.433,0.438-1.141,0.438-1.573,0
	c-0.434-0.44-0.434-1.158,0-1.597l3.2-3.247C499.974,155.665,500.683,155.665,501.115,156.104z"/>
<path fill="#FFFFFF" d="M503.961,156.157c0.433-0.439,1.141-0.439,1.573,0l3.201,3.247c0.433,0.439,0.433,1.158,0,1.597
	s-1.142,0.439-1.574,0l-3.2-3.247C503.529,157.315,503.529,156.596,503.961,156.157z"/>
<path fill="#FFFFFF" d="M504.014,153.269c-0.434-0.439-0.434-1.157,0-1.597l3.2-3.246c0.433-0.44,1.141-0.44,1.573,0
	c0.434,0.439,0.434,1.157,0,1.596l-3.199,3.247C505.155,153.709,504.447,153.709,504.014,153.269z"/>
<path fill="#F37C18" d="M373.141,804.158c-0.516,0.522-1.36,0.522-1.876,0l-3.816-3.865c-0.515-0.523-0.515-1.378,0-1.901
	c0.517-0.522,1.361-0.522,1.877,0l3.815,3.865C373.656,802.78,373.656,803.636,373.141,804.158z"/>
<path fill="#F37C18" d="M373.078,807.596c0.517,0.523,0.517,1.378,0,1.901l-3.815,3.866c-0.517,0.521-1.36,0.521-1.876,0
	c-0.517-0.523-0.517-1.379,0-1.901l3.814-3.866C371.718,807.073,372.563,807.073,373.078,807.596z"/>
<path fill="#F37C18" d="M376.472,807.66c0.516-0.523,1.359-0.523,1.876,0l3.815,3.865c0.517,0.522,0.517,1.378,0,1.9
	c-0.516,0.523-1.36,0.523-1.877,0l-3.814-3.865C375.955,809.038,375.955,808.182,376.472,807.66z"/>
<path fill="#F37C18" d="M376.533,804.222c-0.516-0.522-0.516-1.378,0-1.9l3.816-3.865c0.516-0.523,1.36-0.523,1.876,0
	c0.516,0.522,0.516,1.378,0,1.901l-3.815,3.864C377.895,804.745,377.05,804.745,376.533,804.222z"/>
</svg>
