<?xml version="1.0" encoding="utf-8"?>
<!-- Generator: Adobe Illustrator 23.0.1, SVG Export Plug-In . SVG Version: 6.00 Build 0)  -->
<svg version="1.1" id="圖層_1" xmlns="http://www.w3.org/2000/svg" xmlns:xlink="http://www.w3.org/1999/xlink" x="0px" y="0px"
	 viewBox="0 0 362 810" style="enable-background:new 0 0 362 810;" xml:space="preserve">
<style type="text/css">
	.st0{fill:#C4C4C4;filter:url(#Adobe_OpacityMaskFilter);}
	.st1{mask:url(#mask0_1_);}
	.st2{opacity:0.7392;fill-rule:evenodd;clip-rule:evenodd;fill:#F5DB52;enable-background:new    ;}
	.st3{fill:#C4C4C4;filter:url(#Adobe_OpacityMaskFilter_1_);}
	.st4{mask:url(#mask1_1_);}
	.st5{fill-rule:evenodd;clip-rule:evenodd;fill:#141E32;}
	.st6{fill-rule:evenodd;clip-rule:evenodd;fill:#2A3958;}
	.st7{fill-rule:evenodd;clip-rule:evenodd;fill:#A0ACB0;}
	.st8{fill-rule:evenodd;clip-rule:evenodd;fill:#77839B;}
	.st9{fill-rule:evenodd;clip-rule:evenodd;fill:#EBF3F6;}
	.st10{fill-rule:evenodd;clip-rule:evenodd;fill:#6F7373;}
	.st11{fill-rule:evenodd;clip-rule:evenodd;fill:#FFFFFF;filter:url(#Adobe_OpacityMaskFilter_2_);}
	.st12{mask:url(#mask2_1_);}
	.st13{fill-rule:evenodd;clip-rule:evenodd;fill:#878A87;}
	.st14{fill-rule:evenodd;clip-rule:evenodd;fill:#FFFFFF;}
	.st15{fill-rule:evenodd;clip-rule:evenodd;fill:#F37C18;}
	.st16{fill-rule:evenodd;clip-rule:evenodd;fill:#E2C9D2;}
	.st17{fill-rule:evenodd;clip-rule:evenodd;fill:#93999F;}
	.st18{fill-rule:evenodd;clip-rule:evenodd;fill:#0086F4;}
	.st19{fill-rule:evenodd;clip-rule:evenodd;fill:#2BD8BC;}
	.st20{fill-rule:evenodd;clip-rule:evenodd;fill:#F9D6C8;}
	.st21{fill-rule:evenodd;clip-rule:evenodd;fill:#7A8896;}
	.st22{fill-rule:evenodd;clip-rule:evenodd;fill:#A3AFBA;}
	.st23{fill-rule:evenodd;clip-rule:evenodd;fill:#26334B;}
	.st24{fill-rule:evenodd;clip-rule:evenodd;fill:#5F6671;}
	.st25{fill-rule:evenodd;clip-rule:evenodd;fill:#EFDAC8;}
	.st26{fill-rule:evenodd;clip-rule:evenodd;fill:#FFFFFF;filter:url(#Adobe_OpacityMaskFilter_3_);}
	.st27{mask:url(#mask3_1_);}
	.st28{fill-rule:evenodd;clip-rule:evenodd;fill:#F8F8F7;}
	.st29{fill-rule:evenodd;clip-rule:evenodd;fill:#4F5FFF;}
	.st30{fill-rule:evenodd;clip-rule:evenodd;fill:#B2B3AF;}
	.st31{fill-rule:evenodd;clip-rule:evenodd;fill:#556178;}
	.st32{fill:#C4C4C4;filter:url(#Adobe_OpacityMaskFilter_4_);}
	.st33{mask:url(#mask4_1_);}
	.st34{fill-rule:evenodd;clip-rule:evenodd;fill:#FFFFFF;filter:url(#Adobe_OpacityMaskFilter_5_);}
	.st35{mask:url(#mask5_1_);}
	.st36{fill-rule:evenodd;clip-rule:evenodd;fill:#FFFFFF;filter:url(#Adobe_OpacityMaskFilter_6_);}
	.st37{mask:url(#mask6_1_);}
	.st38{fill-rule:evenodd;clip-rule:evenodd;fill:#FCD740;}
</style>
<defs>
	<filter id="Adobe_OpacityMaskFilter" filterUnits="userSpaceOnUse" x="-355" y="35" width="710" height="994">
		<feColorMatrix  type="matrix" values="1 0 0 0 0  0 1 0 0 0  0 0 1 0 0  0 0 0 1 0"/>
	</filter>
</defs>
<mask maskUnits="userSpaceOnUse" x="-355" y="35" width="710" height="994" id="mask0_1_">
	<rect y="282" class="st0" width="453" height="636"/>
</mask>
<g class="st1">
	<path class="st2" d="M-354,532V35l709,497H-354z"/>
	<path class="st2" d="M-355,532v497l709-497H-355z"/>
</g>
<defs>
	<filter id="Adobe_OpacityMaskFilter_1_" filterUnits="userSpaceOnUse" x="65.6" y="179.9" width="188.3" height="204.4">
		<feColorMatrix  type="matrix" values="1 0 0 0 0  0 1 0 0 0  0 0 1 0 0  0 0 0 1 0"/>
	</filter>
</defs>
<mask maskUnits="userSpaceOnUse" x="65.6" y="179.9" width="188.3" height="204.4" id="mask1_1_">
	
		<rect x="66.6" y="215.2" transform="matrix(0.5736 -0.8192 0.8192 0.5736 -164.9932 248.796)" class="st3" width="179.7" height="135.4"/>
</mask>
<g class="st4">
	<path class="st5" d="M194.1,316.1l-81.9-57.3c-3.3-2.3-4.1-6.8-1.8-10.1l1.6-2.3c2.3-3.2,6.8-4,10.1-1.7l81.9,57.3
		c3.3,2.3,4.1,6.8,1.8,10.1l-1.6,2.3C201.9,317.7,197.3,318.4,194.1,316.1z"/>
	<path class="st6" d="M202.6,312l-88.5-62c-3.5-2.4-4.3-7.2-1.9-10.7l39.3-56.2c2.4-3.4,7.2-4.3,10.7-1.8l88.5,62
		c3.5,2.4,4.3,7.2,1.9,10.7l-39.3,56.2C210.9,313.6,206.1,314.4,202.6,312z"/>
	<path class="st7" d="M170.8,368.3l-99.3-69.5c-2.6-1.8-2.3-7.3-0.3-9.9l32.5-38.5c1.7-2.3,5.1-2.7,7.6-1l92.2,64.6
		c2.4,1.7,3.2,5,1.6,7.4l-25,43.7C178.5,367.9,173.4,370.1,170.8,368.3z"/>
	<path class="st8" d="M116,244.6l91,63.7l40.1-57.3l-91-63.7L116,244.6z"/>
	<path class="st9" d="M172.7,366.3l-99.9-70c-2.6-1.8-3.2-5.4-1.2-7.9l32.3-38.2c1.7-2.1,5-2.5,7.5-0.8l92.2,64.6
		c2.4,1.7,3.2,5,1.8,7.3l-24.8,43.4C178.9,367.4,175.4,368.1,172.7,366.3z"/>
	<path class="st5" d="M112.4,269.8c-0.2,0.2-0.5,0.2-0.8,0l-4.3-3c-0.3-0.2-0.3-0.5-0.2-0.7l2.6-3.1c0.2-0.2,0.5-0.2,0.8,0l4.3,3
		c0.3,0.2,0.3,0.5,0.2,0.7L112.4,269.8z"/>
	<path class="st5" d="M117.9,273.7c-0.2,0.2-0.5,0.2-0.8,0l-4.3-3c-0.3-0.2-0.3-0.5-0.2-0.7l2.5-3.1c0.2-0.2,0.5-0.2,0.8,0l4.3,3
		c0.3,0.2,0.4,0.5,0.2,0.7L117.9,273.7z"/>
	<path class="st5" d="M123.5,277.6c-0.2,0.2-0.5,0.3-0.8,0.1l-4-2.8c-0.2-0.2-0.3-0.5-0.1-0.7l2.5-3.2c0.2-0.2,0.5-0.2,0.8-0.1
		l4,2.8c0.2,0.2,0.3,0.5,0.2,0.7L123.5,277.6z"/>
	<path class="st5" d="M129.5,281.8c-0.2,0.2-0.5,0.3-0.8,0.1l-4-2.8c-0.3-0.2-0.3-0.5-0.2-0.7l2.5-3.2c0.2-0.2,0.5-0.2,0.8-0.1
		l4,2.8c0.3,0.2,0.3,0.5,0.2,0.7L129.5,281.8z"/>
	<path class="st5" d="M135.5,286c-0.2,0.2-0.5,0.3-0.8,0.1l-4.1-2.8c-0.3-0.2-0.3-0.5-0.2-0.7l2.4-3.2c0.2-0.2,0.5-0.2,0.8-0.1
		l4,2.8c0.3,0.2,0.3,0.5,0.2,0.7L135.5,286z"/>
	<path class="st5" d="M141.5,290.3c-0.2,0.2-0.5,0.3-0.8,0.1l-4.1-2.9c-0.3-0.2-0.3-0.5-0.2-0.7l2.4-3.2c0.2-0.2,0.5-0.3,0.8-0.1
		l4.1,2.8c0.3,0.2,0.3,0.5,0.2,0.7L141.5,290.3z"/>
	<path class="st5" d="M147.1,294.1c-0.2,0.2-0.5,0.3-0.8,0.1l-4.1-2.9c-0.3-0.2-0.3-0.5-0.2-0.7l2.3-3.3c0.2-0.2,0.5-0.3,0.7-0.1
		l4.1,2.9c0.3,0.2,0.3,0.5,0.2,0.7L147.1,294.1z"/>
	<path class="st5" d="M153,298.3c-0.2,0.2-0.5,0.3-0.8,0.1l-4.1-2.9c-0.3-0.2-0.3-0.5-0.2-0.7l2.3-3.3c0.2-0.2,0.5-0.3,0.7-0.1
		l4.1,2.9c0.3,0.2,0.3,0.5,0.2,0.7L153,298.3z"/>
	<path class="st5" d="M159,302.5c-0.2,0.2-0.5,0.3-0.7,0.1l-4.1-2.9c-0.3-0.2-0.3-0.5-0.2-0.7l2.3-3.3c0.2-0.2,0.5-0.3,0.7-0.1
		l4.1,2.9c0.3,0.2,0.3,0.5,0.2,0.7L159,302.5z"/>
	<path class="st5" d="M164.5,306.4c-0.2,0.2-0.5,0.3-0.7,0.1l-4.1-2.9c-0.3-0.2-0.3-0.5-0.2-0.7l2.2-3.3c0.2-0.2,0.5-0.3,0.7-0.1
		l4,2.8c0.3,0.2,0.3,0.5,0.2,0.7L164.5,306.4z"/>
	<path class="st5" d="M170.5,310.6c-0.1,0.2-0.5,0.3-0.7,0.1l-4.1-2.8c-0.3-0.2-0.3-0.5-0.2-0.7l2.2-3.3c0.1-0.2,0.5-0.3,0.7-0.1
		l4,2.8c0.3,0.2,0.3,0.5,0.2,0.7L170.5,310.6z"/>
	<path class="st5" d="M176.5,314.8c-0.1,0.2-0.5,0.3-0.7,0.1l-4-2.8c-0.3-0.2-0.3-0.5-0.2-0.7l2.2-3.4c0.1-0.2,0.5-0.3,0.7-0.1
		l4,2.8c0.3,0.2,0.3,0.5,0.2,0.7L176.5,314.8z"/>
	<path class="st5" d="M182,318.6c-0.1,0.2-0.5,0.3-0.7,0.1l-4-2.8c-0.3-0.2-0.3-0.5-0.2-0.7l2.1-3.4c0.1-0.2,0.5-0.3,0.7-0.1l4,2.8
		c0.2,0.2,0.3,0.5,0.2,0.7L182,318.6z"/>
	<path class="st5" d="M190.7,324.7c-0.1,0.2-0.5,0.3-0.7,0.1l-6.7-4.7c-0.3-0.2-0.3-0.5-0.2-0.7l2.1-3.4c0.1-0.2,0.5-0.3,0.7-0.1
		l6.7,4.7c0.3,0.2,0.3,0.5,0.2,0.7L190.7,324.7z"/>
	<path class="st5" d="M116.9,281.1c-0.2,0.2-0.6,0.3-0.8,0.1l-4.3-3c-0.3-0.2-0.3-0.5-0.1-0.8l2.8-3.5c0.2-0.2,0.6-0.3,0.8-0.1
		l4.3,3c0.3,0.2,0.3,0.5,0.2,0.8L116.9,281.1z"/>
	<path class="st5" d="M122.9,285.3c-0.2,0.2-0.6,0.3-0.8,0.1l-4.4-3.1c-0.3-0.2-0.3-0.5-0.2-0.8l2.7-3.5c0.2-0.2,0.6-0.3,0.8-0.1
		l4.3,3c0.3,0.2,0.3,0.5,0.2,0.8L122.9,285.3z"/>
	<path class="st5" d="M128.5,289.2c-0.2,0.2-0.5,0.3-0.8,0.1l-4-2.8c-0.3-0.2-0.3-0.5-0.1-0.8l2.7-3.6c0.2-0.2,0.5-0.3,0.8-0.1
		l4,2.8c0.3,0.2,0.3,0.5,0.1,0.8L128.5,289.2z"/>
	<path class="st5" d="M134.5,293.4c-0.2,0.2-0.5,0.3-0.8,0.1l-4.1-2.8c-0.3-0.2-0.3-0.5-0.1-0.8l2.7-3.6c0.2-0.2,0.5-0.3,0.8-0.1
		l4,2.8c0.3,0.2,0.3,0.5,0.1,0.8L134.5,293.4z"/>
	<path class="st5" d="M140.5,297.6c-0.2,0.2-0.5,0.3-0.8,0.1l-4.1-2.9c-0.3-0.2-0.3-0.5-0.1-0.8l2.6-3.6c0.2-0.2,0.5-0.3,0.8-0.1
		l4.1,2.8c0.3,0.2,0.3,0.5,0.1,0.8L140.5,297.6z"/>
	<path class="st5" d="M146.5,301.8c-0.2,0.2-0.5,0.3-0.8,0.1l-4.1-2.9c-0.3-0.2-0.3-0.5-0.1-0.8l2.6-3.6c0.2-0.2,0.5-0.3,0.8-0.1
		l4.1,2.9c0.3,0.2,0.3,0.5,0.2,0.8L146.5,301.8z"/>
	<path class="st5" d="M152.5,306c-0.2,0.3-0.5,0.3-0.8,0.1l-4.1-2.9c-0.3-0.2-0.3-0.5-0.2-0.8l2.6-3.7c0.2-0.2,0.5-0.3,0.8-0.1
		l4.1,2.9c0.3,0.2,0.3,0.5,0.2,0.8L152.5,306z"/>
	<path class="st5" d="M158,309.9c-0.2,0.3-0.5,0.3-0.8,0.1l-4.1-2.9c-0.3-0.2-0.3-0.5-0.2-0.8l2.5-3.7c0.2-0.2,0.5-0.3,0.8-0.1
		l4.1,2.8c0.3,0.2,0.3,0.5,0.2,0.8L158,309.9z"/>
	<path class="st5" d="M164,314c-0.2,0.3-0.5,0.3-0.8,0.1l-4.1-2.8c-0.3-0.2-0.3-0.5-0.2-0.8l2.5-3.7c0.2-0.3,0.5-0.3,0.8-0.1l4,2.8
		c0.3,0.2,0.3,0.5,0.2,0.8L164,314z"/>
	<path class="st5" d="M169.9,318.2c-0.2,0.3-0.5,0.3-0.8,0.1l-4-2.8c-0.3-0.2-0.3-0.5-0.2-0.8l2.4-3.7c0.2-0.3,0.5-0.3,0.8-0.1
		l4,2.8c0.3,0.2,0.3,0.5,0.2,0.8L169.9,318.2z"/>
	<path class="st5" d="M176.4,322.7c-0.2,0.3-0.5,0.3-0.8,0.1l-4.4-3.1c-0.3-0.2-0.4-0.6-0.2-0.8l2.4-3.8c0.2-0.3,0.5-0.3,0.8-0.1
		l4.3,3c0.3,0.2,0.4,0.6,0.2,0.8L176.4,322.7z"/>
	<path class="st5" d="M182.4,326.9c-0.2,0.3-0.5,0.3-0.8,0.1l-4.3-3c-0.3-0.2-0.4-0.6-0.2-0.8l2.4-3.8c0.2-0.3,0.5-0.3,0.8-0.1
		l4.3,3c0.3,0.2,0.4,0.5,0.2,0.8L182.4,326.9z"/>
	<path class="st5" d="M187.9,330.8c-0.2,0.3-0.5,0.3-0.8,0.1l-4.3-3c-0.3-0.2-0.4-0.6-0.2-0.8l2.3-3.8c0.2-0.3,0.5-0.3,0.8-0.1
		l4.3,3c0.3,0.2,0.4,0.5,0.2,0.8L187.9,330.8z"/>
	<path class="st5" d="M110.9,276.9c-0.2,0.2-0.6,0.3-0.8,0.1l-7.1-5c-0.3-0.2-0.3-0.5-0.1-0.8l2.8-3.5c0.2-0.2,0.6-0.3,0.8-0.1
		l7,4.9c0.3,0.2,0.3,0.5,0.1,0.8L110.9,276.9z"/>
	<path class="st5" d="M114.8,287.1c-0.2,0.2-0.6,0.3-0.8,0.1l-4.4-3c-0.3-0.2-0.3-0.5-0.1-0.8l2.8-3.5c0.2-0.2,0.6-0.3,0.8-0.1
		l4.3,3c0.3,0.2,0.3,0.5,0.2,0.8L114.8,287.1z"/>
	<path class="st5" d="M120.8,291.3c-0.2,0.2-0.6,0.3-0.8,0.1l-4.4-3.1c-0.3-0.2-0.3-0.5-0.2-0.8l2.7-3.5c0.2-0.2,0.6-0.3,0.8-0.1
		l4.4,3c0.3,0.2,0.3,0.5,0.2,0.8L120.8,291.3z"/>
	<path class="st5" d="M126.8,295.5c-0.2,0.2-0.6,0.3-0.8,0.1l-4.4-3.1c-0.3-0.2-0.3-0.5-0.2-0.8l2.7-3.6c0.2-0.2,0.6-0.3,0.8-0.1
		l4.4,3.1c0.3,0.2,0.4,0.5,0.2,0.8L126.8,295.5z"/>
	<path class="st5" d="M132.4,299.4c-0.2,0.2-0.5,0.3-0.8,0.1l-4.1-2.9c-0.3-0.2-0.3-0.5-0.1-0.8l2.6-3.6c0.2-0.2,0.5-0.3,0.8-0.1
		l4,2.8c0.3,0.2,0.3,0.5,0.1,0.8L132.4,299.4z"/>
	<path class="st5" d="M138.4,303.6c-0.2,0.2-0.5,0.3-0.8,0.1l-4.1-2.9c-0.3-0.2-0.3-0.5-0.1-0.8l2.6-3.6c0.2-0.2,0.5-0.3,0.8-0.1
		l4.1,2.9c0.3,0.2,0.3,0.5,0.1,0.8L138.4,303.6z"/>
	<path class="st5" d="M144.4,307.8c-0.2,0.3-0.5,0.3-0.8,0.1l-4.1-2.9c-0.3-0.2-0.3-0.5-0.1-0.8l2.6-3.6c0.2-0.2,0.5-0.3,0.8-0.1
		l4.1,2.9c0.3,0.2,0.3,0.5,0.2,0.8L144.4,307.8z"/>
	<path class="st5" d="M150.4,312c-0.2,0.3-0.5,0.3-0.8,0.1l-4.1-2.9c-0.3-0.2-0.3-0.5-0.2-0.8l2.5-3.7c0.2-0.2,0.5-0.3,0.8-0.1
		l4.1,2.9c0.3,0.2,0.3,0.5,0.2,0.8L150.4,312z"/>
	<path class="st5" d="M156.3,316.2c-0.2,0.3-0.5,0.3-0.8,0.1l-4.1-2.9c-0.3-0.2-0.3-0.5-0.2-0.8l2.5-3.7c0.2-0.2,0.5-0.3,0.8-0.1
		l4.1,2.8c0.3,0.2,0.3,0.5,0.2,0.8L156.3,316.2z"/>
	<path class="st5" d="M162.3,320.3c-0.2,0.3-0.5,0.3-0.8,0.1l-4.4-3.1c-0.3-0.2-0.4-0.6-0.2-0.8l2.5-3.7c0.2-0.3,0.5-0.3,0.8-0.1
		l4.4,3.1c0.3,0.2,0.4,0.6,0.2,0.8L162.3,320.3z"/>
	<path class="st5" d="M168.3,324.5c-0.2,0.3-0.5,0.3-0.8,0.1l-4.4-3.1c-0.3-0.2-0.4-0.6-0.2-0.8l2.4-3.7c0.2-0.3,0.5-0.3,0.8-0.1
		l4.4,3.1c0.3,0.2,0.4,0.6,0.2,0.8L168.3,324.5z"/>
	<path class="st5" d="M174.3,328.7c-0.2,0.3-0.5,0.3-0.8,0.1l-4.4-3.1c-0.3-0.2-0.4-0.6-0.2-0.8l2.4-3.8c0.2-0.3,0.5-0.3,0.8-0.1
		l4.3,3c0.3,0.2,0.4,0.6,0.2,0.8L174.3,328.7z"/>
	<path class="st5" d="M184.4,335.8c-0.2,0.3-0.5,0.3-0.8,0.1l-8.5-6c-0.3-0.2-0.3-0.5-0.2-0.8l2.4-3.8c0.2-0.3,0.5-0.3,0.8-0.1
		l8.5,5.9c0.3,0.2,0.3,0.5,0.2,0.8L184.4,335.8z"/>
	<path class="st5" d="M108.3,282.5c-0.2,0.2-0.6,0.3-0.8,0.1l-8.5-5.9c-0.3-0.2-0.3-0.5-0.1-0.8l2.8-3.5c0.2-0.2,0.6-0.3,0.8-0.1
		l8.4,5.9c0.3,0.2,0.3,0.5,0.1,0.8L108.3,282.5z"/>
	<path class="st5" d="M113.7,294.5c-0.2,0.2-0.6,0.3-0.8,0.1l-4.4-3.1c-0.3-0.2-0.3-0.5-0.2-0.8l2.8-3.5c0.2-0.2,0.6-0.3,0.8-0.1
		l4.3,3c0.3,0.2,0.3,0.5,0.2,0.8L113.7,294.5z"/>
	<path class="st5" d="M119.7,298.7c-0.2,0.2-0.6,0.3-0.8,0.1l-4.4-3.1c-0.3-0.2-0.3-0.5-0.2-0.8l2.7-3.5c0.2-0.2,0.6-0.3,0.8-0.1
		l4.4,3.1c0.3,0.2,0.3,0.5,0.2,0.8L119.7,298.7z"/>
	<path class="st5" d="M125.8,302.9c-0.2,0.2-0.6,0.3-0.8,0.1l-4.4-3.1c-0.3-0.2-0.4-0.5-0.2-0.8l2.7-3.6c0.2-0.2,0.6-0.3,0.8-0.1
		l4.4,3.1c0.3,0.2,0.4,0.5,0.2,0.8L125.8,302.9z"/>
	<path class="st5" d="M131.8,307.1c-0.2,0.2-0.5,0.3-0.8,0.1l-4.5-3.1c-0.3-0.2-0.4-0.6-0.2-0.8l2.6-3.6c0.2-0.2,0.5-0.3,0.8-0.1
		l4.4,3.1c0.3,0.2,0.4,0.6,0.2,0.8L131.8,307.1z"/>
	<path class="st5" d="M137.3,311c-0.2,0.3-0.5,0.3-0.8,0.1l-4.1-2.9c-0.3-0.2-0.3-0.5-0.1-0.8l2.6-3.6c0.2-0.2,0.5-0.3,0.8-0.1
		l4.1,2.9c0.3,0.2,0.3,0.5,0.1,0.8L137.3,311z"/>
	<path class="st5" d="M143.3,315.2c-0.2,0.3-0.5,0.3-0.8,0.1l-4.1-2.9c-0.3-0.2-0.3-0.5-0.2-0.8l2.6-3.6c0.2-0.2,0.5-0.3,0.8-0.1
		l4.1,2.9c0.3,0.2,0.3,0.5,0.2,0.8L143.3,315.2z"/>
	<path class="st5" d="M149.3,319.4c-0.2,0.3-0.5,0.3-0.8,0.1l-4.1-2.9c-0.3-0.2-0.3-0.5-0.2-0.8l2.5-3.7c0.2-0.2,0.5-0.3,0.8-0.1
		l4.1,2.9c0.3,0.2,0.3,0.5,0.2,0.8L149.3,319.4z"/>
	<path class="st5" d="M155.7,323.9c-0.2,0.3-0.5,0.3-0.8,0.1l-4.4-3.1c-0.3-0.2-0.4-0.6-0.2-0.8l2.5-3.7c0.2-0.3,0.5-0.3,0.8-0.1
		l4.4,3.1c0.3,0.2,0.4,0.6,0.2,0.8L155.7,323.9z"/>
	<path class="st5" d="M161.7,328c-0.2,0.3-0.5,0.3-0.8,0.1l-4.4-3.1c-0.3-0.2-0.4-0.6-0.2-0.8l2.4-3.7c0.2-0.3,0.5-0.3,0.8-0.1
		l4.4,3.1c0.3,0.2,0.4,0.6,0.2,0.8L161.7,328z"/>
	<path class="st5" d="M167.7,332.2c-0.2,0.3-0.5,0.3-0.8,0.1l-4.4-3.1c-0.3-0.2-0.4-0.6-0.2-0.8l2.4-3.8c0.2-0.3,0.5-0.3,0.8-0.1
		l4.3,3c0.3,0.2,0.4,0.6,0.2,0.8L167.7,332.2z"/>
	<path class="st5" d="M180.6,341.2c-0.2,0.3-0.5,0.3-0.8,0.1l-11.3-7.9c-0.3-0.2-0.3-0.5-0.2-0.8l2.4-3.8c0.2-0.3,0.5-0.3,0.8-0.1
		l11.2,7.8c0.3,0.2,0.3,0.5,0.2,0.8L180.6,341.2z"/>
	<path class="st5" d="M107.3,289.9c-0.2,0.2-0.6,0.3-0.8,0.1l-11.7-8.2c-0.3-0.2-0.3-0.5-0.1-0.8l2.8-3.5c0.2-0.2,0.6-0.3,0.8-0.1
		l11.6,8.1c0.3,0.2,0.3,0.5,0.1,0.8L107.3,289.9z"/>
	<path class="st5" d="M172.2,340.5c-0.1,0.1-0.3,0.1-0.5,0l-3.3-2.3c-0.2-0.1-0.3-0.4-0.2-0.5l1.2-1.9c0.1-0.1,0.3-0.1,0.5,0
		l3.3,2.3c0.2,0.1,0.3,0.4,0.2,0.5L172.2,340.5z"/>
	<path class="st5" d="M95.3,290.3c-0.2,0.2-0.6,0.3-0.8,0.1l-4.3-3c-0.3-0.2-0.3-0.5-0.1-0.8l2.8-3.5c0.2-0.2,0.6-0.3,0.8-0.1l4.3,3
		c0.3,0.2,0.3,0.5,0.1,0.8L95.3,290.3z"/>
	<path class="st5" d="M101.3,294.5c-0.2,0.2-0.6,0.3-0.8,0.1l-4.3-3c-0.3-0.2-0.3-0.5-0.1-0.8l2.8-3.5c0.2-0.2,0.6-0.3,0.8-0.1
		l4.3,3c0.3,0.2,0.3,0.5,0.1,0.8L101.3,294.5z"/>
	<path class="st5" d="M108.7,299.7c-0.2,0.2-0.6,0.3-0.8,0.1l-4.4-3.1c-0.3-0.2-0.3-0.5-0.2-0.8l2.8-3.5c0.2-0.2,0.6-0.3,0.8-0.1
		l4.3,3c0.3,0.2,0.3,0.5,0.2,0.8L108.7,299.7z"/>
	<path class="st5" d="M117.5,305.9c-0.2,0.2-0.6,0.3-0.8,0.1l-6.7-4.7c-0.3-0.2-0.3-0.5-0.2-0.8l2.7-3.5c0.2-0.2,0.5-0.3,0.8-0.1
		l6.7,4.7c0.3,0.2,0.3,0.5,0.2,0.8L117.5,305.9z"/>
	<path class="st5" d="M153,330.7c-0.2,0.3-0.5,0.3-0.8,0.1l-6.8-4.7c-0.3-0.2-0.4-0.6-0.2-0.8l2.5-3.7c0.2-0.2,0.5-0.3,0.8-0.1
		l6.7,4.7c0.3,0.2,0.4,0.5,0.2,0.8L153,330.7z"/>
	<path class="st5" d="M159.4,335.2c-0.2,0.3-0.5,0.3-0.8,0.1l-4.4-3.1c-0.3-0.2-0.4-0.6-0.2-0.8l2.4-3.7c0.2-0.3,0.5-0.3,0.8-0.1
		l4.4,3c0.3,0.2,0.4,0.6,0.2,0.8L159.4,335.2z"/>
	<path class="st5" d="M165.2,339.7c-0.1,0.1-0.3,0.1-0.5,0l-3.3-2.3c-0.2-0.1-0.3-0.4-0.2-0.5l1.2-1.9c0.1-0.1,0.3-0.1,0.5,0
		l3.3,2.3c0.2,0.1,0.3,0.4,0.2,0.5L165.2,339.7z"/>
	<path class="st5" d="M175.8,347.1c-0.1,0.1-0.3,0.1-0.5,0l-3.3-2.3c-0.2-0.1-0.3-0.4-0.2-0.5l1.2-1.9c0.1-0.1,0.3-0.1,0.5,0
		l3.3,2.3c0.2,0.1,0.3,0.4,0.2,0.5L175.8,347.1z"/>
	<path class="st5" d="M170.7,343.5c-0.1,0.1-0.3,0.1-0.5,0l-3.3-2.3c-0.2-0.1-0.3-0.4-0.2-0.5l1.2-1.9c0.1-0.1,0.3-0.1,0.5,0
		l3.3,2.3c0.2,0.1,0.3,0.4,0.2,0.5L170.7,343.5z"/>
	<path class="st5" d="M144.2,324.6c-0.2,0.3-0.5,0.3-0.8,0.1l-24.8-17.3c-0.3-0.2-0.3-0.5-0.2-0.8l2.7-3.6c0.2-0.2,0.5-0.3,0.8-0.1
		l24.6,17.2c0.3,0.2,0.4,0.5,0.2,0.8L144.2,324.6z"/>
	<path class="st10" d="M95.3,290.3c-0.2,0.2-0.6,0.3-0.8,0.1l-4.3-3c-0.3-0.2-0.3-0.5-0.1-0.8l2.8-3.5c0.2-0.2,0.6-0.3,0.8-0.1
		l4.3,3c0.3,0.2,0.3,0.5,0.1,0.8L95.3,290.3z"/>
	<path class="st10" d="M101.3,294.5c-0.2,0.2-0.6,0.3-0.8,0.1l-4.3-3c-0.3-0.2-0.3-0.5-0.1-0.8l2.8-3.5c0.2-0.2,0.6-0.3,0.8-0.1
		l4.3,3c0.3,0.2,0.3,0.5,0.1,0.8L101.3,294.5z"/>
	<path class="st10" d="M108.7,299.7c-0.2,0.2-0.6,0.3-0.8,0.1l-4.4-3.1c-0.3-0.2-0.3-0.5-0.2-0.8l2.8-3.5c0.2-0.2,0.6-0.3,0.8-0.1
		l4.3,3c0.3,0.2,0.3,0.5,0.2,0.8L108.7,299.7z"/>
	<path class="st10" d="M117.5,305.9c-0.2,0.2-0.6,0.3-0.8,0.1l-6.7-4.7c-0.3-0.2-0.3-0.5-0.2-0.8l2.7-3.5c0.2-0.2,0.5-0.3,0.8-0.1
		l6.7,4.7c0.3,0.2,0.3,0.5,0.2,0.8L117.5,305.9z"/>
	<path class="st10" d="M153,330.7c-0.2,0.3-0.5,0.3-0.8,0.1l-6.8-4.7c-0.3-0.2-0.4-0.6-0.2-0.8l2.5-3.7c0.2-0.2,0.5-0.3,0.8-0.1
		l6.7,4.7c0.3,0.2,0.4,0.5,0.2,0.8L153,330.7z"/>
	<path class="st10" d="M159.4,335.3c-0.2,0.3-0.5,0.3-0.8,0.1l-4.4-3.1c-0.3-0.2-0.4-0.6-0.2-0.8l2.4-3.7c0.2-0.3,0.5-0.3,0.8-0.1
		l4.4,3c0.3,0.2,0.4,0.6,0.2,0.8L159.4,335.3z"/>
	<path class="st10" d="M165.2,339.7c-0.1,0.1-0.3,0.1-0.5,0l-3.3-2.3c-0.2-0.1-0.3-0.4-0.2-0.5l1.2-1.9c0.1-0.1,0.3-0.1,0.5,0
		l3.3,2.3c0.2,0.1,0.3,0.4,0.2,0.5L165.2,339.7z"/>
	<path class="st10" d="M175.8,347.1c-0.1,0.1-0.3,0.1-0.5,0l-3.3-2.3c-0.2-0.1-0.3-0.4-0.2-0.5l1.2-1.9c0.1-0.1,0.3-0.1,0.5,0
		l3.3,2.3c0.2,0.1,0.3,0.4,0.2,0.5L175.8,347.1z"/>
	<path class="st10" d="M170.7,343.5c-0.1,0.1-0.3,0.1-0.5,0l-3.3-2.3c-0.2-0.1-0.3-0.4-0.2-0.5l1.2-1.9c0.1-0.1,0.3-0.1,0.5,0
		l3.3,2.3c0.2,0.1,0.3,0.4,0.2,0.5L170.7,343.5z"/>
	<path class="st10" d="M172.2,340.5c-0.1,0.1-0.3,0.1-0.5,0l-3.3-2.3c-0.2-0.1-0.3-0.4-0.2-0.5l1.2-1.9c0.1-0.1,0.3-0.1,0.5,0
		l3.3,2.3c0.2,0.1,0.3,0.4,0.2,0.5L172.2,340.5z"/>
	<path class="st10" d="M144.2,324.6c-0.2,0.3-0.5,0.3-0.8,0.1l-24.8-17.3c-0.3-0.2-0.3-0.5-0.2-0.8l2.7-3.6c0.2-0.2,0.5-0.3,0.8-0.1
		l24.6,17.2c0.3,0.2,0.4,0.5,0.2,0.8L144.2,324.6z"/>
	<path class="st10" d="M116.9,281.1c-0.2,0.2-0.6,0.3-0.8,0.1l-4.3-3c-0.3-0.2-0.3-0.5-0.1-0.8l2.8-3.5c0.2-0.2,0.6-0.3,0.8-0.1
		l4.3,3c0.3,0.2,0.3,0.5,0.2,0.8L116.9,281.1z"/>
	<path class="st10" d="M122.9,285.3c-0.2,0.2-0.6,0.3-0.8,0.1l-4.4-3.1c-0.3-0.2-0.3-0.5-0.2-0.8l2.7-3.5c0.2-0.2,0.6-0.3,0.8-0.1
		l4.3,3c0.3,0.2,0.3,0.5,0.2,0.8L122.9,285.3z"/>
	<path class="st10" d="M128.5,289.2c-0.2,0.2-0.5,0.3-0.8,0.1l-4-2.8c-0.3-0.2-0.3-0.5-0.1-0.8l2.7-3.6c0.2-0.2,0.5-0.3,0.8-0.1
		l4,2.8c0.3,0.2,0.3,0.5,0.1,0.8L128.5,289.2z"/>
	<path class="st10" d="M134.5,293.4c-0.2,0.2-0.5,0.3-0.8,0.1l-4.1-2.8c-0.3-0.2-0.3-0.5-0.1-0.8l2.7-3.6c0.2-0.2,0.5-0.3,0.8-0.1
		l4,2.8c0.3,0.2,0.3,0.5,0.1,0.8L134.5,293.4z"/>
	<path class="st10" d="M140.5,297.6c-0.2,0.2-0.5,0.3-0.8,0.1l-4.1-2.9c-0.3-0.2-0.3-0.5-0.1-0.8l2.6-3.6c0.2-0.2,0.5-0.3,0.8-0.1
		l4.1,2.8c0.3,0.2,0.3,0.5,0.1,0.8L140.5,297.6z"/>
	<path class="st10" d="M146.5,301.8c-0.2,0.3-0.5,0.3-0.8,0.1l-4.1-2.9c-0.3-0.2-0.3-0.5-0.1-0.8l2.6-3.6c0.2-0.2,0.5-0.3,0.8-0.1
		l4.1,2.9c0.3,0.2,0.3,0.5,0.2,0.8L146.5,301.8z"/>
	<path class="st10" d="M152.5,306c-0.2,0.3-0.5,0.3-0.8,0.1l-4.1-2.9c-0.3-0.2-0.3-0.5-0.2-0.8l2.6-3.7c0.2-0.2,0.5-0.3,0.8-0.1
		l4.1,2.9c0.3,0.2,0.3,0.5,0.2,0.8L152.5,306z"/>
	<path class="st10" d="M158,309.9c-0.2,0.3-0.5,0.3-0.8,0.1l-4.1-2.9c-0.3-0.2-0.3-0.5-0.2-0.8l2.5-3.7c0.2-0.2,0.5-0.3,0.8-0.1
		l4.1,2.8c0.3,0.2,0.3,0.5,0.2,0.8L158,309.9z"/>
	<path class="st10" d="M164,314c-0.2,0.3-0.5,0.3-0.8,0.1l-4.1-2.8c-0.3-0.2-0.3-0.5-0.2-0.8l2.5-3.7c0.2-0.3,0.5-0.3,0.8-0.1l4,2.8
		c0.3,0.2,0.3,0.5,0.2,0.8L164,314z"/>
	<path class="st10" d="M169.9,318.2c-0.2,0.3-0.5,0.3-0.8,0.1l-4-2.8c-0.3-0.2-0.3-0.5-0.2-0.8l2.4-3.7c0.2-0.3,0.5-0.3,0.8-0.1
		l4,2.8c0.3,0.2,0.3,0.5,0.2,0.8L169.9,318.2z"/>
	<path class="st10" d="M176.4,322.7c-0.2,0.3-0.5,0.3-0.8,0.1l-4.4-3.1c-0.3-0.2-0.4-0.6-0.2-0.8l2.4-3.8c0.2-0.3,0.5-0.3,0.8-0.1
		l4.3,3c0.3,0.2,0.4,0.6,0.2,0.8L176.4,322.7z"/>
	<path class="st10" d="M182.4,326.9c-0.2,0.3-0.5,0.3-0.8,0.1l-4.3-3c-0.3-0.2-0.4-0.6-0.2-0.8l2.4-3.8c0.2-0.3,0.5-0.3,0.8-0.1
		l4.3,3c0.3,0.2,0.4,0.5,0.2,0.8L182.4,326.9z"/>
	<path class="st10" d="M187.9,330.8c-0.2,0.3-0.5,0.3-0.8,0.1l-4.3-3c-0.3-0.2-0.4-0.6-0.2-0.8l2.3-3.8c0.2-0.3,0.5-0.3,0.8-0.1
		l4.3,3c0.3,0.2,0.4,0.5,0.2,0.8L187.9,330.8z"/>
	<path class="st10" d="M110.9,276.9c-0.2,0.2-0.6,0.3-0.8,0.1l-7.1-5c-0.3-0.2-0.3-0.5-0.1-0.8l2.8-3.5c0.2-0.2,0.6-0.3,0.8-0.1
		l7,4.9c0.3,0.2,0.3,0.5,0.1,0.8L110.9,276.9z"/>
	<path class="st10" d="M114.8,287.1c-0.2,0.2-0.6,0.3-0.8,0.1l-4.4-3c-0.3-0.2-0.3-0.5-0.1-0.8l2.8-3.5c0.2-0.2,0.6-0.3,0.8-0.1
		l4.3,3c0.3,0.2,0.3,0.5,0.2,0.8L114.8,287.1z"/>
	<path class="st10" d="M120.8,291.3c-0.2,0.2-0.6,0.3-0.8,0.1l-4.4-3.1c-0.3-0.2-0.3-0.5-0.2-0.8l2.7-3.5c0.2-0.2,0.6-0.3,0.8-0.1
		l4.4,3c0.3,0.2,0.3,0.5,0.2,0.8L120.8,291.3z"/>
	<path class="st10" d="M126.8,295.5c-0.2,0.2-0.6,0.3-0.8,0.1l-4.4-3.1c-0.3-0.2-0.3-0.5-0.2-0.8l2.7-3.6c0.2-0.2,0.6-0.3,0.8-0.1
		l4.4,3.1c0.3,0.2,0.4,0.5,0.2,0.8L126.8,295.5z"/>
	<path class="st10" d="M132.4,299.4c-0.2,0.2-0.5,0.3-0.8,0.1l-4.1-2.9c-0.3-0.2-0.3-0.5-0.1-0.8l2.6-3.6c0.2-0.2,0.5-0.3,0.8-0.1
		l4,2.8c0.3,0.2,0.3,0.5,0.1,0.8L132.4,299.4z"/>
	<path class="st10" d="M138.4,303.6c-0.2,0.2-0.5,0.3-0.8,0.1l-4.1-2.9c-0.3-0.2-0.3-0.5-0.1-0.8l2.6-3.6c0.2-0.2,0.5-0.3,0.8-0.1
		l4.1,2.9c0.3,0.2,0.3,0.5,0.1,0.8L138.4,303.6z"/>
	<path class="st10" d="M144.4,307.8c-0.2,0.3-0.5,0.3-0.8,0.1l-4.1-2.9c-0.3-0.2-0.3-0.5-0.1-0.8l2.6-3.6c0.2-0.2,0.5-0.3,0.8-0.1
		l4.1,2.9c0.3,0.2,0.3,0.5,0.2,0.8L144.4,307.8z"/>
	<path class="st10" d="M150.4,312c-0.2,0.3-0.5,0.3-0.8,0.1l-4.1-2.9c-0.3-0.2-0.3-0.5-0.2-0.8l2.5-3.7c0.2-0.2,0.5-0.3,0.8-0.1
		l4.1,2.9c0.3,0.2,0.3,0.5,0.2,0.8L150.4,312z"/>
	<path class="st10" d="M156.3,316.2c-0.2,0.3-0.5,0.3-0.8,0.1l-4.1-2.9c-0.3-0.2-0.3-0.5-0.2-0.8l2.5-3.7c0.2-0.3,0.5-0.3,0.8-0.1
		l4.1,2.8c0.3,0.2,0.3,0.5,0.2,0.8L156.3,316.2z"/>
	<path class="st10" d="M162.3,320.3c-0.2,0.3-0.5,0.3-0.8,0.1l-4.4-3.1c-0.3-0.2-0.4-0.6-0.2-0.8l2.5-3.7c0.2-0.3,0.5-0.3,0.8-0.1
		l4.4,3.1c0.3,0.2,0.4,0.6,0.2,0.8L162.3,320.3z"/>
	<path class="st10" d="M168.3,324.5c-0.2,0.3-0.5,0.3-0.8,0.1l-4.4-3.1c-0.3-0.2-0.4-0.6-0.2-0.8l2.4-3.7c0.2-0.3,0.5-0.3,0.8-0.1
		l4.4,3.1c0.3,0.2,0.4,0.6,0.2,0.8L168.3,324.5z"/>
	<path class="st10" d="M174.3,328.7c-0.2,0.3-0.5,0.3-0.8,0.1l-4.4-3.1c-0.3-0.2-0.4-0.6-0.2-0.8l2.4-3.8c0.2-0.3,0.5-0.3,0.8-0.1
		l4.3,3c0.3,0.2,0.4,0.5,0.2,0.8L174.3,328.7z"/>
	<path class="st10" d="M184.4,335.8c-0.2,0.3-0.5,0.3-0.8,0.1l-8.5-6c-0.3-0.2-0.3-0.5-0.2-0.8l2.4-3.8c0.2-0.3,0.5-0.3,0.8-0.1
		l8.5,5.9c0.3,0.2,0.3,0.5,0.2,0.8L184.4,335.8z"/>
	<path class="st10" d="M108.3,282.5c-0.2,0.2-0.6,0.3-0.8,0.1l-8.5-5.9c-0.3-0.2-0.3-0.5-0.1-0.8l2.8-3.5c0.2-0.2,0.6-0.3,0.8-0.1
		l8.4,5.9c0.3,0.2,0.3,0.5,0.1,0.8L108.3,282.5z"/>
	<path class="st10" d="M113.7,294.5c-0.2,0.2-0.6,0.3-0.8,0.1l-4.4-3.1c-0.3-0.2-0.3-0.5-0.2-0.8l2.7-3.5c0.2-0.2,0.6-0.3,0.8-0.1
		l4.3,3c0.3,0.2,0.3,0.5,0.2,0.8L113.7,294.5z"/>
	<path class="st10" d="M119.7,298.7c-0.2,0.2-0.6,0.3-0.8,0.1l-4.4-3.1c-0.3-0.2-0.3-0.5-0.2-0.8l2.7-3.5c0.2-0.2,0.6-0.3,0.8-0.1
		l4.4,3.1c0.3,0.2,0.3,0.5,0.2,0.8L119.7,298.7z"/>
	<path class="st10" d="M125.8,302.9c-0.2,0.2-0.6,0.3-0.8,0.1l-4.4-3.1c-0.3-0.2-0.4-0.5-0.2-0.8l2.7-3.6c0.2-0.2,0.6-0.3,0.8-0.1
		l4.4,3.1c0.3,0.2,0.4,0.5,0.2,0.8L125.8,302.9z"/>
	<path class="st10" d="M131.8,307.1c-0.2,0.2-0.5,0.3-0.8,0.1l-4.5-3.1c-0.3-0.2-0.4-0.6-0.2-0.8l2.6-3.6c0.2-0.2,0.5-0.3,0.8-0.1
		l4.4,3.1c0.3,0.2,0.4,0.5,0.2,0.8L131.8,307.1z"/>
	<path class="st10" d="M137.3,311c-0.2,0.2-0.5,0.3-0.8,0.1l-4.1-2.9c-0.3-0.2-0.3-0.5-0.1-0.8l2.6-3.6c0.2-0.2,0.5-0.3,0.8-0.1
		l4.1,2.9c0.3,0.2,0.3,0.5,0.1,0.8L137.3,311z"/>
	<path class="st10" d="M143.3,315.2c-0.2,0.3-0.5,0.3-0.8,0.1l-4.1-2.9c-0.3-0.2-0.3-0.5-0.2-0.8l2.6-3.6c0.2-0.2,0.5-0.3,0.8-0.1
		l4.1,2.9c0.3,0.2,0.3,0.5,0.2,0.8L143.3,315.2z"/>
	<path class="st10" d="M149.3,319.4c-0.2,0.3-0.5,0.3-0.8,0.1l-4.1-2.9c-0.3-0.2-0.3-0.5-0.2-0.8l2.5-3.7c0.2-0.2,0.5-0.3,0.8-0.1
		l4.1,2.9c0.3,0.2,0.3,0.5,0.2,0.8L149.3,319.4z"/>
	<path class="st10" d="M155.7,323.9c-0.2,0.3-0.5,0.3-0.8,0.1l-4.4-3.1c-0.3-0.2-0.4-0.6-0.2-0.8l2.5-3.7c0.2-0.3,0.5-0.3,0.8-0.1
		l4.4,3.1c0.3,0.2,0.4,0.6,0.2,0.8L155.7,323.9z"/>
	<path class="st10" d="M161.7,328c-0.2,0.3-0.5,0.3-0.8,0.1l-4.4-3.1c-0.3-0.2-0.4-0.6-0.2-0.8l2.4-3.7c0.2-0.3,0.5-0.3,0.8-0.1
		l4.4,3.1c0.3,0.2,0.4,0.6,0.2,0.8L161.7,328z"/>
	<path class="st10" d="M167.7,332.2c-0.2,0.3-0.5,0.3-0.8,0.1l-4.4-3.1c-0.3-0.2-0.4-0.6-0.2-0.8l2.4-3.8c0.2-0.3,0.5-0.3,0.8-0.1
		l4.3,3c0.3,0.2,0.4,0.6,0.2,0.8L167.7,332.2z"/>
	<path class="st10" d="M180.5,341.2c-0.2,0.3-0.5,0.3-0.8,0.1l-11.3-7.9c-0.3-0.2-0.3-0.5-0.2-0.8l2.4-3.8c0.2-0.3,0.5-0.3,0.8-0.1
		l11.2,7.8c0.3,0.2,0.3,0.5,0.2,0.8L180.5,341.2z"/>
	<path class="st10" d="M107.3,289.9c-0.2,0.2-0.6,0.3-0.8,0.1l-11.7-8.2c-0.3-0.2-0.3-0.5-0.1-0.8l2.8-3.5c0.2-0.2,0.6-0.3,0.8-0.1
		l11.6,8.1c0.3,0.2,0.3,0.5,0.1,0.8L107.3,289.9z"/>
	<path class="st10" d="M112.4,269.8c-0.2,0.2-0.5,0.2-0.8,0l-4.3-3c-0.3-0.2-0.3-0.5-0.2-0.7l2.6-3.1c0.2-0.2,0.5-0.2,0.8,0l4.3,3
		c0.3,0.2,0.3,0.5,0.2,0.7L112.4,269.8z"/>
	<path class="st10" d="M117.9,273.7c-0.2,0.2-0.5,0.2-0.8,0l-4.3-3c-0.3-0.2-0.3-0.5-0.2-0.7l2.5-3.1c0.2-0.2,0.5-0.2,0.8,0l4.3,3
		c0.3,0.2,0.4,0.5,0.2,0.7L117.9,273.7z"/>
	<path class="st10" d="M123.5,277.6c-0.2,0.2-0.5,0.3-0.8,0.1l-4-2.8c-0.2-0.2-0.3-0.5-0.1-0.7l2.5-3.2c0.2-0.2,0.5-0.2,0.8-0.1
		l4,2.8c0.2,0.2,0.3,0.5,0.2,0.7L123.5,277.6z"/>
	<path class="st10" d="M129.5,281.8c-0.2,0.2-0.5,0.3-0.8,0.1l-4-2.8c-0.3-0.2-0.3-0.5-0.2-0.7l2.4-3.2c0.2-0.2,0.5-0.2,0.8-0.1
		l4,2.8c0.3,0.2,0.3,0.5,0.2,0.7L129.5,281.8z"/>
	<path class="st10" d="M135.5,286c-0.2,0.2-0.5,0.3-0.8,0.1l-4.1-2.8c-0.3-0.2-0.3-0.5-0.2-0.7l2.4-3.2c0.2-0.2,0.5-0.3,0.8-0.1
		l4,2.8c0.3,0.2,0.3,0.5,0.2,0.7L135.5,286z"/>
	<path class="st10" d="M141.5,290.3c-0.2,0.2-0.5,0.3-0.8,0.1l-4.1-2.9c-0.3-0.2-0.3-0.5-0.2-0.7l2.4-3.2c0.2-0.2,0.5-0.3,0.8-0.1
		l4.1,2.8c0.3,0.2,0.3,0.5,0.2,0.7L141.5,290.3z"/>
	<path class="st10" d="M147.1,294.1c-0.2,0.2-0.5,0.3-0.8,0.1l-4.1-2.9c-0.3-0.2-0.3-0.5-0.2-0.7l2.3-3.3c0.2-0.2,0.5-0.3,0.7-0.1
		l4.1,2.9c0.3,0.2,0.3,0.5,0.2,0.7L147.1,294.1z"/>
	<path class="st10" d="M153,298.3c-0.2,0.2-0.5,0.3-0.8,0.1l-4.1-2.9c-0.3-0.2-0.3-0.5-0.2-0.7l2.3-3.3c0.2-0.2,0.5-0.3,0.7-0.1
		l4.1,2.9c0.3,0.2,0.3,0.5,0.2,0.7L153,298.3z"/>
	<path class="st10" d="M159,302.5c-0.2,0.2-0.5,0.3-0.7,0.1l-4.1-2.9c-0.3-0.2-0.3-0.5-0.2-0.7l2.3-3.3c0.2-0.2,0.5-0.3,0.7-0.1
		l4.1,2.9c0.3,0.2,0.3,0.5,0.2,0.7L159,302.5z"/>
	<path class="st10" d="M164.5,306.4c-0.2,0.2-0.5,0.3-0.7,0.1l-4.1-2.9c-0.3-0.2-0.3-0.5-0.2-0.7l2.2-3.3c0.2-0.2,0.5-0.3,0.7-0.1
		l4,2.8c0.3,0.2,0.3,0.5,0.2,0.7L164.5,306.4z"/>
	<path class="st10" d="M170.5,310.6c-0.1,0.2-0.5,0.3-0.7,0.1l-4.1-2.8c-0.3-0.2-0.3-0.5-0.2-0.7l2.2-3.3c0.2-0.2,0.5-0.3,0.7-0.1
		l4,2.8c0.3,0.2,0.3,0.5,0.2,0.7L170.5,310.6z"/>
	<path class="st10" d="M176.5,314.8c-0.1,0.2-0.5,0.3-0.7,0.1l-4-2.8c-0.3-0.2-0.3-0.5-0.2-0.7l2.2-3.4c0.1-0.2,0.5-0.3,0.7-0.1
		l4,2.8c0.3,0.2,0.3,0.5,0.2,0.7L176.5,314.8z"/>
	<path class="st10" d="M182,318.6c-0.1,0.2-0.5,0.3-0.7,0.1l-4-2.8c-0.3-0.2-0.3-0.5-0.2-0.7l2.1-3.4c0.1-0.2,0.5-0.3,0.7-0.1l4,2.8
		c0.2,0.2,0.3,0.5,0.2,0.7L182,318.6z"/>
	<path class="st10" d="M190.7,324.7c-0.1,0.2-0.5,0.3-0.7,0.1l-6.7-4.7c-0.3-0.2-0.3-0.5-0.2-0.7l2.1-3.4c0.1-0.2,0.5-0.3,0.7-0.1
		l6.7,4.7c0.3,0.2,0.3,0.5,0.2,0.7L190.7,324.7z"/>
	<path class="st10" d="M116,264.9c-0.2,0.2-0.5,0.3-0.8,0.1l-4-2.8c-0.3-0.2-0.3-0.5-0.1-0.7l1.8-2.2c0.2-0.2,0.5-0.3,0.8-0.1l4,2.8
		c0.2,0.2,0.3,0.5,0.1,0.7L116,264.9z"/>
	<path class="st10" d="M121.5,268.8c-0.2,0.2-0.5,0.3-0.8,0.1l-4-2.8c-0.3-0.2-0.3-0.5-0.1-0.7l1.8-2.2c0.2-0.2,0.5-0.3,0.8-0.1
		l4,2.8c0.3,0.2,0.3,0.5,0.1,0.7L121.5,268.8z"/>
	<path class="st10" d="M128,273.3c-0.2,0.2-0.5,0.3-0.8,0.1l-4-2.8c-0.3-0.2-0.3-0.5-0.1-0.7l1.7-2.2c0.2-0.2,0.5-0.3,0.8-0.1l4,2.8
		c0.3,0.2,0.3,0.5,0.1,0.7L128,273.3z"/>
	<path class="st10" d="M134,277.5c-0.2,0.2-0.5,0.3-0.8,0.1l-4.1-2.8c-0.3-0.2-0.3-0.5-0.1-0.7l1.7-2.2c0.2-0.2,0.5-0.3,0.8-0.1
		l4,2.8c0.3,0.2,0.3,0.5,0.1,0.7L134,277.5z"/>
	<path class="st10" d="M140,281.7c-0.2,0.2-0.5,0.3-0.8,0.1l-4.1-2.9c-0.3-0.2-0.3-0.5-0.1-0.7l1.7-2.3c0.2-0.2,0.5-0.3,0.8-0.1
		l4.1,2.8c0.3,0.2,0.3,0.5,0.1,0.7L140,281.7z"/>
	<path class="st10" d="M146,285.9c-0.2,0.2-0.5,0.3-0.8,0.1l-4.1-2.9c-0.3-0.2-0.3-0.5-0.1-0.8l1.7-2.3c0.2-0.2,0.5-0.3,0.8-0.1
		l4.1,2.9c0.3,0.2,0.3,0.5,0.2,0.8L146,285.9z"/>
	<path class="st10" d="M152,290.1c-0.2,0.2-0.5,0.3-0.8,0.1l-4.1-2.9c-0.3-0.2-0.3-0.5-0.2-0.8l1.6-2.3c0.2-0.2,0.5-0.3,0.8-0.1
		l4.1,2.9c0.3,0.2,0.3,0.5,0.2,0.8L152,290.1z"/>
	<path class="st10" d="M157.9,294.3c-0.2,0.2-0.5,0.3-0.8,0.1l-4.1-2.9c-0.3-0.2-0.3-0.5-0.2-0.8l1.6-2.3c0.2-0.2,0.5-0.3,0.8-0.1
		l4.1,2.9c0.3,0.2,0.3,0.5,0.2,0.8L157.9,294.3z"/>
	<path class="st10" d="M163.9,298.5c-0.2,0.2-0.5,0.3-0.8,0.1l-4.1-2.9c-0.3-0.2-0.3-0.5-0.2-0.8l1.6-2.3c0.2-0.2,0.5-0.3,0.8-0.1
		l4.1,2.9c0.3,0.2,0.3,0.5,0.2,0.8L163.9,298.5z"/>
	<path class="st10" d="M169.9,302.6c-0.2,0.2-0.5,0.3-0.8,0.1l-4.1-2.9c-0.3-0.2-0.3-0.5-0.2-0.8l1.6-2.3c0.2-0.2,0.5-0.3,0.8-0.1
		l4.1,2.9c0.3,0.2,0.3,0.5,0.2,0.8L169.9,302.6z"/>
	<path class="st10" d="M175.9,306.8c-0.2,0.2-0.5,0.3-0.7,0.1l-4.1-2.9c-0.3-0.2-0.3-0.5-0.2-0.8l1.6-2.4c0.2-0.2,0.5-0.3,0.7-0.1
		l4.1,2.8c0.3,0.2,0.3,0.5,0.2,0.8L175.9,306.8z"/>
	<path class="st10" d="M181.9,311c-0.2,0.2-0.5,0.3-0.7,0.1l-4.1-2.8c-0.3-0.2-0.3-0.5-0.2-0.8l1.5-2.4c0.2-0.2,0.5-0.3,0.7-0.1
		l4,2.8c0.3,0.2,0.3,0.5,0.2,0.8L181.9,311z"/>
	<path class="st10" d="M188.3,315.5c-0.2,0.2-0.5,0.3-0.7,0.1l-4-2.8c-0.3-0.2-0.3-0.5-0.2-0.8l1.5-2.4c0.2-0.2,0.5-0.3,0.7-0.1
		l4,2.8c0.3,0.2,0.3,0.5,0.2,0.8L188.3,315.5z"/>
	<path class="st10" d="M194.3,319.7c-0.2,0.3-0.5,0.3-0.7,0.1l-4-2.8c-0.3-0.2-0.3-0.5-0.2-0.8l1.5-2.4c0.2-0.2,0.5-0.3,0.7-0.1
		l4,2.8c0.3,0.2,0.3,0.5,0.2,0.8L194.3,319.7z"/>
	<defs>
		<filter id="Adobe_OpacityMaskFilter_2_" filterUnits="userSpaceOnUse" x="138.3" y="207.7" width="85" height="82.1">
			<feColorMatrix  type="matrix" values="1 0 0 0 0  0 1 0 0 0  0 0 1 0 0  0 0 0 1 0"/>
		</filter>
	</defs>
	<mask maskUnits="userSpaceOnUse" x="138.3" y="207.7" width="85" height="82.1" id="mask2_1_">
		<path class="st11" d="M191.2,289l-51.8-36.3c-0.6-0.4-0.7-1.2-0.3-1.8l29.5-42.1c0.4-0.6,1.2-0.7,1.8-0.3l51.8,36.3
			c0.6,0.4,0.7,1.2,0.3,1.8L193,288.7C192.6,289.3,191.8,289.4,191.2,289z"/>
	</mask>
	<g class="st12">
		<path class="st13" d="M138.3,252l53.9,37.8l31-44.3l-53.9-37.8L138.3,252z"/>
	</g>
	<path class="st14" d="M193.4,287.6c-0.4,0.6-1.2,0.8-1.8,0.3l-51.6-36.2c-0.6-0.4-0.7-1.2-0.3-1.8l29.7-42.4
		c0.4-0.6,1.2-0.8,1.8-0.3l51.6,36.2c0.6,0.4,0.7,1.2,0.3,1.8L193.4,287.6z"/>
	<path class="st15" d="M223.1,245.2c0.4-0.6,0.3-1.4-0.3-1.8l-51.6-36.2c-0.6-0.4-1.4-0.3-1.8,0.3l-2.8,3.9l53.8,37.7L223.1,245.2z"
		/>
	<path class="st15" d="M169.8,222.6l33.6,23.5l1-1.4l-33.6-23.5L169.8,222.6z"/>
	<path class="st16" d="M167.9,225.3l29,20.3l1-1.4l-29-20.3L167.9,225.3z"/>
	<path class="st17" d="M164.4,230.3l13.3,9.3l1-1.4l-13.3-9.3L164.4,230.3z"/>
	<path class="st18" d="M164.3,234.3l9.2,6.4l1-1.4l-9.2-6.4L164.3,234.3z"/>
	<path class="st19" d="M163.8,238l18.8,13.2l1-1.4l-18.8-13.2L163.8,238z"/>
	<path class="st17" d="M161.7,244l18.8,13.2l1-1.4l-18.8-13.2L161.7,244z"/>
	<path class="st19" d="M158.4,245.7l13.3,9.3l1-1.4l-13.3-9.3L158.4,245.7z"/>
	<path class="st17" d="M156.5,248.5l13.3,9.3l1-1.4l-13.3-9.3L156.5,248.5z"/>
	<path class="st17" d="M156.4,252.5l8.7,6.1l1-1.4l-8.7-6.1L156.4,252.5z"/>
	<path class="st18" d="M149.4,251.7l7.4,5.2l1-1.4l-7.4-5.1L149.4,251.7z"/>
	<path class="st17" d="M173.3,268.4l5.5,3.9l1-1.4l-5.5-3.9L173.3,268.4z"/>
	<path class="st19" d="M157.7,257.5l14.3,10l1-1.4l-14.3-10L157.7,257.5z"/>
	<path class="st19" d="M166,259.2l23,16.1l1-1.4l-23-16.1L166,259.2z"/>
	<path class="st15" d="M170.7,258.4l8.7,6.1l1-1.4l-8.7-6.1L170.7,258.4z"/>
	<path class="st17" d="M173.1,256l13.3,9.3l1-1.4l-13.3-9.3L173.1,256z"/>
	<path class="st17" d="M184.5,252.5l8.3,5.8l1-1.4l-8.3-5.8L184.5,252.5z"/>
	<path class="st17" d="M174.4,241.4l8.3,5.8l1-1.4l-8.3-5.8L174.4,241.4z"/>
	<path class="st17" d="M184.5,248.5l7.8,5.5l1-1.4l-7.8-5.5L184.5,248.5z"/>
	<path class="st17" d="M178.6,240.3l13.3,9.3l1-1.4l-13.3-9.3L178.6,240.3z"/>
	<path class="st17" d="M163.2,241.7l13.3,9.3l1-1.4l-13.3-9.3L163.2,241.7z"/>
	<path class="st19" d="M178,252l13.3,9.3l1-1.4l-13.3-9.3L178,252z"/>
	<path class="st18" d="M166.3,227.6l25.7,18l1-1.4l-25.7-18L166.3,227.6z"/>
	<path class="st20" d="M173.8,212.9c-0.6,0.9-1.8,1.1-2.7,0.5c-0.9-0.6-1.1-1.8-0.5-2.7c0.6-0.9,1.8-1.1,2.7-0.5
		C174.2,210.8,174.5,212,173.8,212.9z"/>
	<path class="st20" d="M178.4,216.1c-0.6,0.9-1.8,1.1-2.7,0.5c-0.9-0.6-1.1-1.8-0.5-2.7c0.6-0.9,1.8-1.1,2.7-0.5
		C178.8,214,179.1,215.2,178.4,216.1z"/>
	<path class="st20" d="M183.1,219.5c-0.6,0.9-1.8,1.1-2.7,0.5c-0.9-0.6-1.1-1.8-0.5-2.7c0.6-0.9,1.8-1.1,2.7-0.5
		C183.4,217.4,183.7,218.6,183.1,219.5z"/>
	<path class="st21" d="M100.2,318.9l-12.8-9l1.6-2.2l12.8,9L100.2,318.9z"/>
	<path class="st22" d="M101.6,316.4l-12.7-8.9l1.7-2.3l2.3-5.9l5.2-6.4l2.5,1.8c0.3,0.2,0.6,0.1,0.8-0.1l0.1-0.1c0,0,0,0,0,0
		l2.8-3.5c0.2-0.2,0.1-0.6-0.1-0.8l-2.5-1.7l1.1-1.4l3.8,2.6c0,0,0.1,0.1,0.2,0.1l-1.3,1.6l0.5,0.4l4.4-5.4l1.3-1l2.3,1.6
		c0.3,0.2,0.6,0.1,0.8-0.1l2.6-3.4c0,0,0,0,0,0l0.1-0.1c0.2-0.2,0.1-0.6-0.2-0.8l-1-0.7l2.6-1.9c0.1-0.1,0.1-0.1,0.2-0.2l-1.2,1.5
		c-0.2,0.2-0.1,0.6,0.2,0.7l2.6,1.9l-0.7,0.5l-1.1-0.8c-0.3-0.2-0.6-0.1-0.8,0.1l-0.1,0.1c0,0,0,0,0,0l-2.6,3.4
		c-0.2,0.2-0.1,0.5,0.1,0.7l-0.7,0.5l-2.7-1.9c-0.3-0.2-0.6-0.1-0.8,0.1l-2.7,3.5c0,0,0,0,0,0l-0.1,0.1c-0.2,0.2-0.1,0.6,0.1,0.8
		l2.5,1.7l-1.1,1.4l-2.8-1.9c-0.3-0.2-0.6-0.1-0.8,0.1l-0.1,0.1c0,0,0,0,0,0l-2.8,3.5c-0.2,0.2-0.1,0.6,0.1,0.8l4.3,3
		c0.3,0.2,0.6,0.1,0.8-0.1l0.1-0.1c0,0,0,0,0,0l2.7-3.6c0.2-0.2,0.1-0.6-0.2-0.8l-1.1-0.8l1.1-1.4l1.3,0.9c0.3,0.2,0.6,0.1,0.8-0.1
		l2.8-3.6c0.2-0.2,0.1-0.6-0.2-0.8l-1.3-0.9l0.1-0.1l0.6-0.4l3.9,2.7l-0.6,0.4l-0.1,0.1l-0.9-0.6c-0.3-0.2-0.6-0.1-0.8,0.1l-0.1,0.1
		c0,0,0,0,0,0l-2.7,3.5c-0.2,0.2-0.1,0.6,0.2,0.8l0.8,0.6l-1.1,1.4l-0.8-0.6c-0.3-0.2-0.6-0.1-0.8,0.1l-0.3,0.4l-2.5,3.2
		c-0.2,0.2-0.1,0.6,0.2,0.8l6.7,4.7c0.3,0.2,0.6,0.1,0.8-0.1l0.1-0.1c0,0,0,0,0,0l2.7-3.6c0,0,0-0.1,0.1-0.1l1-0.8
		c0.1-0.1,0.3-0.2,0.5-0.3c0.2-0.1,0.4-0.2,0.6-0.2l2.5,1.7c0.3,0.2,0.6,0.1,0.8-0.1l1-1.4c0.3,0.3,0.3,0.8,0.3,1.2l-0.5,0.7
		c-0.1,0.1-0.1,0.2-0.1,0.3l0,0l-1.7,1.3l-2.6-1.8c-0.3-0.2-0.6-0.1-0.8,0.1l-2.8,3.7c-0.2,0.2-0.1,0.6,0.2,0.8l1.2,0.9l-0.7,0.5
		c-0.5,0.6-1.2,1-2.1,1.2l-12.1,3.2l-1.5,0.4L101.6,316.4z"/>
	<path class="st23" d="M120.7,283.8l-2.7-1.9c-0.3-0.2-0.4-0.5-0.2-0.7l1.1-1.4c0,0,0,0,0,0l-1,1.3c-0.2,0.2-0.1,0.5,0.2,0.7
		l2.7,1.9L120.7,283.8z"/>
	<path class="st23" d="M113.5,286.9l-2.1-1.5l0.1-0.1l2.1,1.5c0.2,0.2,0.6,0.1,0.8-0.1l2.6-3.4c0,0,0,0,0,0l-2.7,3.5
		C114.1,287,113.8,287,113.5,286.9z"/>
	<path class="st23" d="M119.7,291.2l-3.9-2.7l0.1-0.1l3.9,2.7L119.7,291.2z M115.5,288.2c-0.2-0.2-0.3-0.5-0.1-0.7l2.7-3.5
		c0,0,0,0,0,0l-2.6,3.4c-0.2,0.2-0.1,0.6,0.1,0.7L115.5,288.2z"/>
	<path class="st22" d="M118.8,300.7l-3.9-2.7l1.1-1.4l2.8,2c0.3,0.2,0.6,0.1,0.8-0.1l0.1-0.1c0,0,0,0,0,0l2.6-3.4c0,0,0,0,0,0
		l0.1-0.1c0.2-0.2,0.1-0.6-0.1-0.8l-2.6-1.8l3.3-2.6l-1.5,2c0,0,0,0,0,0l-0.1,0.1c-0.2,0.2-0.1,0.6,0.1,0.8l2.7,1.9l-0.9,0.8
		c0,0-0.1,0.1-0.1,0.1l-0.5,0.4L118.8,300.7z"/>
	<path class="st23" d="M124.2,294.4l-2.7-1.9c-0.3-0.2-0.3-0.5-0.2-0.7l0.1-0.1c-0.2,0.2-0.1,0.5,0.2,0.7L124.2,294.4L124.2,294.4z"
		/>
	<path class="st23" d="M113,294.6l-1.4-1l0.1-0.1l1.4,1c0.3,0.2,0.6,0.2,0.8-0.1l0.9-1.2l-1,1.3C113.6,294.8,113.3,294.8,113,294.6z
		 M111.1,293.3l-2.6-1.8c-0.3-0.2-0.4-0.5-0.2-0.8l0.1-0.1c-0.2,0.2-0.1,0.6,0.2,0.8l2.6,1.8L111.1,293.3z"/>
	<path class="st23" d="M118.9,298.8l-2.9-2.1l0.1-0.1l2.9,2c0.3,0.2,0.6,0.2,0.8-0.1l-0.1,0.1C119.6,298.9,119.2,299,118.9,298.8z
		 M115.4,296.3l-0.8-0.6c-0.3-0.2-0.3-0.5-0.2-0.8l2.7-3.5c0,0,0,0,0,0l-2.6,3.4c-0.2,0.2-0.1,0.6,0.2,0.8l0.8,0.6L115.4,296.3z
		 M121.4,296.4l1-1.3c0,0,0,0,0,0L121.4,296.4z"/>
	<path class="st23" d="M125,303l-2.7-1.9c0.1,0,0.1,0,0.2-0.1l2.5,1.8c0.3,0.2,0.7,0.2,0.8-0.1l0.9-1.2l-1,1.4
		C125.6,303.2,125.2,303.2,125,303z"/>
	<path class="st23" d="M126.4,303.3c0-0.1,0-0.2,0.1-0.3l0.5-0.6l-0.4,0.5C126.5,303,126.5,303.1,126.4,303.3L126.4,303.3z"/>
	<path class="st23" d="M106.7,289.8l-4-2.8l0.1-0.1l4,2.8c0.1,0,0.1,0.1,0.2,0.1l-0.1,0.1C106.8,289.8,106.8,289.8,106.7,289.8z"/>
	<path class="st23" d="M100.6,294.8l-2.7-1.9l0.1-0.1l2.7,1.9c0.3,0.2,0.6,0.2,0.8,0l-0.1,0.1C101.2,295,100.9,295,100.6,294.8z"/>
	<path class="st23" d="M108,299.9l-4.5-3.2c-0.3-0.2-0.4-0.6-0.2-0.8l2.7-3.5c0,0,0,0,0,0l-2.7,3.4c-0.2,0.2-0.1,0.6,0.2,0.8
		l4.5,3.1c0.3,0.2,0.7,0.2,0.8-0.1l-0.1,0.1C108.6,300.1,108.3,300.1,108,299.9z"/>
	<path class="st23" d="M116.7,306l-6.8-4.8c-0.3-0.2-0.4-0.5-0.2-0.8l2.4-3.1l-2.3,3c-0.2,0.2-0.1,0.6,0.2,0.8l5.3,3.7l0,0l0,0
		l1.5,1.1c0.3,0.2,0.6,0.2,0.8-0.1l-0.1,0.1C117.4,306.2,117,306.2,116.7,306z"/>
	<path class="st23" d="M120,308.3l-1.3-0.9c-0.3-0.2-0.4-0.5-0.2-0.8l1-1.4l-0.9,1.3c-0.2,0.2-0.1,0.6,0.2,0.8l1.3,0.9L120,308.3z"
		/>
	<path class="st24" d="M100.4,294.6l-2.5-1.8l1.4-1.7c0.1-0.1,0.2-0.2,0.3-0.3l1.8-2.3l2.4,1.7c0.3,0.2,0.3,0.5,0.1,0.8l-2.8,3.5
		c0,0,0,0,0,0C101.1,294.8,100.7,294.8,100.4,294.6z"/>
	<path class="st24" d="M107.8,299.8l-4.4-3.1c-0.3-0.2-0.3-0.5-0.2-0.8l2.7-3.4l0.1-0.1c0.2-0.2,0.6-0.3,0.8-0.1l2.8,2l-0.4,0.5
		l0.4,0.3l0.4-0.5l1.1,0.8c0.3,0.2,0.3,0.5,0.2,0.8l-2.7,3.5c0,0,0,0,0,0C108.5,300,108.1,300,107.8,299.8z"/>
	<path class="st24" d="M116.6,306l-1.5-1.1l2-0.5l3-2.2c0,0,0,0.1-0.1,0.1l-2.7,3.6c0,0,0,0,0,0C117.3,306.1,116.9,306.2,116.6,306z
		 M115.1,304.9l-5.2-3.6c-0.3-0.2-0.3-0.5-0.2-0.8l2.4-3.1l0.3-0.4c0.2-0.2,0.5-0.3,0.8-0.1l0.8,0.6l-0.6,0.8l0.6,0.5l0.6-0.8
		l3.9,2.8l-3.1,3.9C115.4,304.6,115.3,304.7,115.1,304.9L115.1,304.9z"/>
	<path class="st24" d="M119.9,308.3l-1.3-0.9c-0.3-0.2-0.3-0.5-0.2-0.8l2.7-3.6c0.2-0.2,0.5-0.3,0.8-0.1l2.6,1.8L119.9,308.3z"/>
	<path class="st24" d="M120.4,284.2l-2.7-1.9c-0.3-0.2-0.3-0.5-0.1-0.8l1.2-1.5c1-0.7,2.3-0.8,3.2-0.2c1,0.8,1.1,2.2,0,3.1
		L120.4,284.2z"/>
	<path class="st22" d="M121.8,289.3l1.3-1.8c0.2-0.2,0.1-0.6-0.2-0.8l-2.9-2l0.7-0.5l1.2,0.9c0.3,0.2,0.6,0.2,0.8-0.1l0.1-0.1
		c0,0,0,0,0,0l2.6-3.5c0.2-0.2,0.1-0.5-0.1-0.7c0.3-0.2,0.7-0.3,1-0.4l2.4,1.7c0.3,0.2,0.6,0.2,0.8-0.1c0,0.5-0.1,0.9-0.4,1.4
		l-2.1-1.5c-0.3-0.2-0.6-0.2-0.8,0.1l-2.7,3.6c-0.2,0.2-0.1,0.6,0.2,0.8l1,0.7L121.8,289.3z"/>
	<path class="st23" d="M128.9,281.9l-2.3-1.6c0.1,0,0.1,0,0.2,0L128.9,281.9c0.3,0.1,0.6,0.1,0.7,0c0,0,0,0,0,0
		C129.5,282.1,129.1,282.1,128.9,281.9z"/>
	<path class="st23" d="M122.5,285l-1.3-0.9l0.1-0.1L122.5,285c0.4,0.1,0.7,0.1,0.9-0.1l-0.1,0.1C123.2,285.2,122.8,285.2,122.5,285z
		"/>
	<path class="st23" d="M124.5,287.1l-0.9-0.6c-0.3-0.2-0.3-0.5-0.1-0.8l2.3-3.1l-2.3,3c-0.2,0.2-0.1,0.6,0.1,0.8l0.9,0.7
		L124.5,287.1z"/>
	<path class="st24" d="M122.1,285.4l-1.2-0.8l4.4-3.4c0.1,0,0.1-0.1,0.2-0.1c0.2,0.2,0.2,0.5,0.1,0.7l-2.7,3.6c0,0,0,0,0,0
		C122.7,285.5,122.4,285.6,122.1,285.4z"/>
	<path class="st24" d="M124.7,287.2l-1-0.7c-0.3-0.2-0.3-0.5-0.2-0.8l2.7-3.5c0.2-0.2,0.5-0.3,0.8-0.1l2.1,1.5
		c0,0.1-0.1,0.1-0.1,0.2c-0.1,0.1-0.2,0.3-0.4,0.4L124.7,287.2z"/>
	<path class="st22" d="M128.5,290.6l-3.8-2.6l0.7-0.5l2.5,1.8c0.3,0.2,0.6,0.2,0.8-0.1l2.5-3.3c0,0,0,0,0,0l0.1-0.1
		c0.3,0.3,0.4,0.6,0.5,1l-2.2,3c0,0,0,0,0,0.1L128.5,290.6z"/>
	<path class="st23" d="M128.1,289.6l-2.6-1.8l0.1-0.1l2.6,1.8c0.3,0.2,0.6,0.1,0.8-0.1l2.6-3.5c0,0,0,0,0,0l-2.7,3.6
		C128.7,289.8,128.4,289.8,128.1,289.6z"/>
	<path class="st23" d="M129.5,289.9C129.5,289.9,129.5,289.9,129.5,289.9l2.3-3.1l-2.2,3C129.6,289.8,129.6,289.8,129.5,289.9
		L129.5,289.9z"/>
	<path class="st24" d="M128.1,289.6l-2.6-1.8l2.3-1.8c1-0.7,2.2-1.1,3.3-0.4c0,0,0.1,0.1,0.1,0.1c0.1,0.1,0.3,0.2,0.4,0.3l-0.1,0.1
		l-2.6,3.4C128.7,289.8,128.4,289.8,128.1,289.6z"/>
	<path class="st24" d="M129.5,289.9c0,0,0-0.1,0.1-0.1l2.2-3c0,0.4-0.1,0.9-0.4,1.4c-0.1,0.1-0.2,0.2-0.3,0.3L129.5,289.9z"/>
	<path class="st24" d="M113.5,286.9l-2.1-1.5l4.6-3.6l0.9,0.6c0.3,0.2,0.3,0.5,0.1,0.8l-0.1,0.1l-2.6,3.4
		C114.1,287,113.8,287,113.5,286.9z"/>
	<path class="st24" d="M119.8,291.3l-4-2.8l4.7-3.5l2.8,2c0.3,0.2,0.3,0.5,0.2,0.8l-1.3,1.8L119.8,291.3z M115.5,288.3
		c-0.2-0.2-0.3-0.5-0.1-0.8l2.7-3.4l0.1-0.1c0.2-0.2,0.6-0.3,0.8-0.1l1.1,0.8L115.5,288.3z"/>
	<path class="st24" d="M124.5,294.5l-2.9-2c-0.3-0.2-0.4-0.5-0.2-0.8c0,0,0,0,0,0l1.5-2l2-1.6l3.9,2.7L124.5,294.5z"/>
	<path class="st24" d="M112.9,294.6l-1.4-1l3.5-4.3l1.3,0.9c0.3,0.2,0.3,0.5,0.2,0.8l-2.7,3.5C113.5,294.7,113.2,294.7,112.9,294.6z
		 M111.1,293.3l-2.6-1.8c-0.3-0.2-0.3-0.5-0.2-0.8c0,0,0,0,0,0l2.8-3.5c0.2-0.2,0.6-0.3,0.8-0.1l2.8,1.9l-0.6,0.5L111.1,293.3z"/>
	<path class="st24" d="M118.9,298.8l-2.9-2.1l3-3.8l0.6-0.5l2.7,1.9c0.3,0.2,0.3,0.5,0.2,0.8l-0.1,0.1l-2.6,3.4c0,0,0,0,0,0
		C119.6,298.9,119.2,299,118.9,298.8z M115.4,296.3l-0.8-0.6c-0.3-0.2-0.3-0.5-0.2-0.8l2.6-3.4l0.1-0.1c0.2-0.2,0.6-0.3,0.8-0.1
		l0.9,0.7L115.4,296.3z"/>
	<path class="st22" d="M110,285.8c0-0.1-0.1-0.2-0.2-0.3l-3.6-2.5l0.7-0.5l0.3,0.2c0.3,0.2,0.6,0.2,0.8-0.1l1.6-2l1.4-0.9
		c0.7-0.4,1.2-0.7,1.8-0.8l2.3,1.6c0.1,0.3,0,0.6-0.2,0.9l-2.2-1.5c-0.3-0.2-0.6-0.2-0.8,0.1l-0.1,0.1c0,0,0,0,0,0l-0.3,0.4
		l-2.2,2.8c0,0,0,0,0,0l-0.1,0.1c-0.2,0.2-0.1,0.6,0.2,0.8l1.4,1L110,285.8z"/>
	<path class="st23" d="M115.6,280.3l-2.3-1.6c0.1,0,0.1,0,0.2,0l2,1.4C115.6,280.2,115.6,280.3,115.6,280.3z"/>
	<path class="st23" d="M110.9,285l-1.4-1c-0.3-0.2-0.3-0.5-0.1-0.8l0.1-0.1c-0.2,0.2-0.1,0.6,0.1,0.8l1.4,1L110.9,285z M111.8,280.3
		l0.4-0.5c0,0,0,0,0,0L111.8,280.3z"/>
	<path class="st23" d="M107.5,282.7l-0.3-0.2l0.1-0.1L107.5,282.7c0.3,0.1,0.6,0,0.8-0.2l0.7-0.8l-0.7,0.9
		C108.1,282.8,107.8,282.8,107.5,282.7z"/>
	<path class="st24" d="M115.1,280.2l-1.8-1.3c0.4,0,0.7,0.1,1.1,0.4c0,0,0.1,0.1,0.1,0.1l0.2,0.2C114.8,279.8,115,280,115.1,280.2z"
		/>
	<path class="st24" d="M110.9,285l-1.4-0.9c-0.3-0.2-0.3-0.5-0.1-0.8c0,0,0,0,0,0l2.3-2.9l0.4-0.5l0.1-0.1c0.2-0.2,0.5-0.3,0.8-0.1
		l2.1,1.4c-0.1,0.1-0.2,0.3-0.3,0.5c-0.1,0.2-0.3,0.3-0.5,0.5L110.9,285z"/>
	<path class="st24" d="M107.8,282.2l-0.2-0.2l2.4-1.7l-1.4,1.8C108.4,282.3,108.1,282.4,107.8,282.2z"/>
	<path class="st24" d="M124.9,302.3l-2.3-1.6c1.9-0.6,3-0.4,3.7,0c0.1,0.1,0.1,0.1,0.2,0.2c0.1,0.1,0.1,0.1,0.2,0.2l-0.9,1.2
		C125.5,302.4,125.1,302.4,124.9,302.3z M123.1,295.1c0,0,0.1-0.1,0.1-0.1L123.1,295.1z"/>
	<path class="st24" d="M126.5,303.2c0-0.1,0-0.2,0.1-0.3l0.4-0.5C126.9,302.7,126.8,302.9,126.5,303.2L126.5,303.2z"/>
	<path class="st24" d="M106.2,289.8l-3.6-2.5l3-3.8l0.6-0.5l3.4,2.4c0.1,0.1,0.2,0.2,0.2,0.3l-0.5,0.4l-3,3.8
		C106.3,289.9,106.2,289.9,106.2,289.8z"/>
	<path class="st24" d="M129,281.7l-2.3-1.6c0.7-0.1,1.5,0.1,2.1,0.5c0,0,0.1,0.1,0.1,0.1c0.4,0.3,0.7,0.7,0.7,1.1
		C129.5,281.9,129.2,281.9,129,281.7z"/>
	<path class="st24" d="M122.1,280L122.1,280l0.1,0.1L122.1,280z"/>
	<path class="st25" d="M111.3,307.1l8.6-6.2c0.1-0.1,0.3-0.2,0.5-0.3c2.8-1,4.1-0.7,4.8-0.1c0.7,0.6,0.6,1.7,0,2.3l-0.1,0.1
		l-7.4,5.6c-1.1,0.9-2.3,1.2-3.2,0.2C113.7,307.7,110.2,308.1,111.3,307.1z"/>
	<path class="st25" d="M102.9,289.6l11.4,9.4c1.2,1,1.2,3.2,0,4.7l-5.8,7.4l-6.2,1.9l-7.1,10L82.7,314l6.9-9.4l2.3-5.9l6.6-8.2
		C99.7,289,101.7,288.6,102.9,289.6z"/>
	<path class="st25" d="M110.8,300.9c-0.8,1-0.6,2.5,0.4,3.3c1,0.8,2.5,0.7,3.3-0.3l7-8.9l8.6-7.2c0.1-0.1,0.2-0.2,0.3-0.3
		c0.6-1,0.5-1.9-0.5-2.7c-1-0.8-2.3-0.4-3.3,0.3l-8.8,6.9L110.8,300.9z"/>
	<path class="st25" d="M105.9,298.2c-0.8,1-0.6,2.5,0.5,3.3c1.1,0.8,2.6,0.7,3.4-0.3l8.5-10.6l9.8-7.4c0.1-0.1,0.3-0.2,0.3-0.4
		c0.6-1,0.8-1.9-0.2-2.7c-1-0.8-2.6-0.6-3.6,0.1l-10.3,7.6L105.9,298.2z"/>
	<path class="st25" d="M99.1,298.1c-0.8,1-0.6,2.5,0.4,3.3c1,0.8,2.5,0.7,3.3-0.3l10.1-12.6l8.1-6.3c1-0.9,0.9-2.2-0.1-3l0.2,0.1
		c-1-0.8-2.5-0.7-3.5,0.2l-8.6,6.3L99.1,298.1z"/>
	<path class="st25" d="M94.9,295.2c-0.8,1-0.6,2.5,0.4,3.3c1,0.8,2.5,0.6,3.3-0.3l10.1-12.6l4.6-4c0.2-0.1,0.3-0.3,0.5-0.5
		c0.5-0.7,0.8-1.3-0.1-2.2l-0.2-0.2c-1-0.8-2-0.5-3.3,0.3l-5.4,3.8L94.9,295.2z"/>
	<path class="st25" d="M117.5,303.3c1.9-0.5,1,0.9,1.3,2.4c0.4,1.5-0.9,3.2-2.8,3.7l-13.8,3.6l-0.6-5.7L117.5,303.3z"/>
	<defs>
		<filter id="Adobe_OpacityMaskFilter_3_" filterUnits="userSpaceOnUse" x="175.4" y="311.6" width="0.2" height="0.1">
			<feColorMatrix  type="matrix" values="1 0 0 0 0  0 1 0 0 0  0 0 1 0 0  0 0 0 1 0"/>
		</filter>
	</defs>
	<mask maskUnits="userSpaceOnUse" x="175.4" y="311.6" width="0.2" height="0.1" id="mask3_1_">
		<path class="st26" d="M167.1,305.8l20.2,14.2l-61.5,87.9l-20.2-14.2L167.1,305.8z"/>
	</mask>
	<g class="st27">
		<path class="st24" d="M175.5,311.7l-0.1-0.1L175.5,311.7L175.5,311.7z"/>
	</g>
	<path class="st21" d="M158.2,359.5l-17.9-12.6l0.9-1.3l3.2,2.2l0.7-1l12.8,8.9l-0.7,1l2,1.4L158.2,359.5z"/>
	<path class="st23" d="M164.3,306.8l0-0.1c0.1,0,0.2-0.1,0.3-0.2l1-1.5l-1.1,1.6C164.4,306.7,164.4,306.8,164.3,306.8z"/>
	<path class="st23" d="M169.8,310.7l-1.2-0.8l0-0.1l1.2,0.9c0.3,0.2,0.6,0.1,0.7-0.1l-0.1,0.1C170.4,310.8,170,310.8,169.8,310.7z
		 M167.9,309.3l-2.2-1.5c-0.3-0.2-0.3-0.5-0.2-0.7l1.4-2.2l-1.4,2.1c-0.1,0.2-0.1,0.6,0.2,0.7l2.2,1.5L167.9,309.3z M171.2,309.5
		l1.5-2.3c0,0,0,0,0,0L171.2,309.5z"/>
	<path class="st23" d="M175.8,314.9l-3.1-2.2l0-0.1L175.8,314.9c0.2,0,0.4,0,0.5,0l0,0.1C176.2,315,176,315,175.8,314.9z
		 M172.4,312.5l-0.7-0.5c-0.3-0.2-0.4-0.5-0.2-0.7l0.1-0.1c-0.1,0.2,0,0.5,0.2,0.7l0.7,0.5L172.4,312.5z"/>
	<path class="st23" d="M169.2,318.4l-2.8-2l0-0.1l2.8,2c0.3,0.2,0.6,0.1,0.8-0.1l0.6-0.9l-0.6,1
		C169.8,318.5,169.4,318.6,169.2,318.4z M165.6,315.9l-0.6-0.4c-0.3-0.2-0.3-0.5-0.2-0.8l0.1-0.1c-0.2,0.3-0.1,0.6,0.2,0.8l0.5,0.4
		L165.6,315.9z M171.4,316L171.4,316l1-1.5c0,0,0,0,0,0L171.4,316z"/>
	<path class="st23" d="M175.6,322.9l-0.5-0.4l0.1-0.1l0.5,0.4c0.3,0.2,0.6,0.1,0.8-0.1l-0.1,0.1C176.2,323,175.9,323.1,175.6,322.9z
		 M174.4,322l-3.2-2.2c-0.3-0.2-0.4-0.6-0.2-0.8l2.4-3.7c0,0,0,0,0,0l-2.3,3.6c-0.2,0.3-0.1,0.6,0.2,0.8l3.2,2.2L174.4,322z
		 M177,321.8l1.8-2.8c0,0,0,0,0,0L177,321.8z"/>
	<path class="st23" d="M178.7,324.3l-1.2-0.9c-0.3-0.2-0.3-0.5-0.2-0.7l1.5-2.4l-1.4,2.3c-0.1,0.2-0.1,0.6,0.2,0.7l1.2,0.8
		L178.7,324.3z"/>
	<path class="st23" d="M155.7,316l-2.7-1.9l0-0.1L155.7,316c0.3,0.1,0.7,0.1,0.8-0.1l0.1-0.2l-0.2,0.3
		C156.3,316.2,156,316.2,155.7,316z"/>
	<path class="st23" d="M161.6,320.5l-2.3-1.6l0.1-0.1l2.3,1.6c0.3,0.2,0.6,0.1,0.8-0.1l2.4-3.6c0,0,0,0,0,0l-2.4,3.7
		C162.1,320.6,161.8,320.7,161.6,320.5z"/>
	<path class="st23" d="M167.3,324.5l-3.7-2.6l0.1-0.1l3.7,2.6L167.3,324.5z M167.7,324.8l0.1-0.1c0.2,0.1,0.4,0,0.5-0.2l-0.1,0.1
		C168.1,324.7,167.9,324.8,167.7,324.8z M163.2,321.3c0-0.1,0-0.2,0.1-0.3l0.9-1.4l-0.9,1.3c-0.1,0.1-0.1,0.2-0.1,0.3L163.2,321.3z"
		/>
	<path class="st23" d="M173.5,328.8l-1.5-1.1l0.1-0.1l1.5,1.1c0.3,0.2,0.6,0.1,0.8-0.1l-0.1,0.1C174.1,329,173.7,329,173.5,328.8z
		 M171.5,327.4l-2.4-1.7c-0.3-0.2-0.4-0.6-0.2-0.8l0.1-0.1c-0.2,0.3-0.1,0.6,0.2,0.8l2.4,1.7L171.5,327.4z M170.3,322.8l1-1.6
		c0,0,0,0,0,0L170.3,322.8z M176.1,325.7l0.5-0.8c0,0,0,0,0,0L176.1,325.7z"/>
	<path class="st23" d="M175.8,330.4l-0.7-0.5c-0.3-0.2-0.4-0.6-0.2-0.8l2.3-3.8c0,0,0,0,0,0l-2.3,3.7c-0.2,0.3-0.1,0.6,0.2,0.8
		l0.7,0.5L175.8,330.4z"/>
	<path class="st23" d="M155,323.6l-4-2.8l0-0.1l4,2.8c0,0,0,0,0.1,0l0,0.2C155.1,323.6,155.1,323.6,155,323.6z"/>
	<path class="st23" d="M160.9,328.2l-4.4-3.1c-0.3-0.2-0.4-0.6-0.2-0.8l0.1-0.1c-0.2,0.3-0.1,0.6,0.2,0.8l4.4,3.1
		c0.3,0.2,0.6,0.1,0.8-0.1l-0.1,0.1C161.5,328.3,161.2,328.4,160.9,328.2z M158.4,321l0.3-0.5v0L158.4,321z"/>
	<path class="st23" d="M166.9,332.4l-4.4-3.1c-0.3-0.2-0.4-0.6-0.2-0.8l2.4-3.7c0,0,0,0,0,0l-2.3,3.6c-0.2,0.3-0.1,0.6,0.2,0.8
		l4.4,3.1c0.3,0.2,0.6,0.1,0.8-0.1l2.3-3.6c0,0,0,0,0,0l-2.4,3.8C167.5,332.5,167.2,332.5,166.9,332.4z"/>
	<path class="st23" d="M172.4,336.2l-3.5-2.5c-0.3-0.2-0.3-0.6-0.2-0.8l1.5-2.3l-1.4,2.2c-0.2,0.3-0.1,0.6,0.2,0.8l3.5,2.5
		L172.4,336.2z"/>
	<path class="st23" d="M170.2,339.4l-1.8-1.3c-0.2-0.1-0.3-0.4-0.2-0.5l0.1-0.1c-0.1,0.1,0,0.4,0.2,0.5l1.8,1.3L170.2,339.4z
		 M169,336.4l0.5-0.8c0,0,0,0,0,0L169,336.4z"/>
	<path class="st23" d="M152.1,330.9l-1.7-1.2l0-0.2l1.8,1.3c0.3,0.2,0.6,0.2,0.8-0.1l-0.1,0.1C152.8,331.1,152.4,331.1,152.1,330.9z
		"/>
	<path class="st23" d="M158.2,335.1l-4.1-2.9c-0.3-0.2-0.3-0.5-0.2-0.8l0.1-0.1c-0.2,0.3-0.1,0.6,0.2,0.8l4.1,2.9
		c0.3,0.2,0.6,0.1,0.8-0.1l2.3-3.6c0,0,0,0,0,0l-2.4,3.7C158.8,335.2,158.4,335.2,158.2,335.1z"/>
	<path class="st23" d="M164.4,340.1l-3.4-2.4c-0.2-0.2-0.3-0.4-0.2-0.5l0.1-0.1c-0.1,0.1,0,0.4,0.2,0.5l3.4,2.4
		c0.2,0.1,0.5,0.2,0.5,0l-0.1,0.1C164.8,340.2,164.6,340.2,164.4,340.1z M165.2,339.6l1-1.6c0,0,0,0,0,0L165.2,339.6z"/>
	<path class="st23" d="M168.4,342.9l-1.8-1.3c-0.2-0.1-0.3-0.4-0.2-0.5l0.1-0.1c-0.1,0.1,0,0.4,0.2,0.5l1.8,1.3L168.4,342.9z
		 M167.3,339.6l0.4-0.6c0,0,0,0,0,0L167.3,339.6z"/>
	<path class="st24" d="M158.6,335.4l-4.4-3.1c-0.3-0.2-0.4-0.6-0.2-0.8c0,0,0,0,0,0l2.4-3.7c0.2-0.3,0.5-0.3,0.8-0.1l4.4,3
		c0.3,0.2,0.4,0.6,0.2,0.8l-0.1,0.1l-2.3,3.6C159.2,335.5,158.9,335.6,158.6,335.4z"/>
	<path class="st24" d="M164.7,339.6l-3.3-2.3c-0.2-0.1-0.3-0.4-0.2-0.5l1.2-1.9c0.1-0.1,0.3-0.1,0.5,0l3.3,2.3
		c0.2,0.1,0.3,0.4,0.2,0.5l-0.1,0.1l-1.1,1.8c0,0,0,0,0,0C165.1,339.8,164.9,339.8,164.7,339.6z"/>
	<path class="st24" d="M168.7,342.5l-1.8-1.3c-0.2-0.1-0.3-0.4-0.2-0.5c0,0,0,0,0,0l1.1-1.8l0.1-0.1c0.1-0.1,0.3-0.1,0.5,0l1.8,1.2
		L168.7,342.5z"/>
	<path class="st24" d="M170.2,339.4l-1.8-1.3c-0.2-0.1-0.3-0.4-0.2-0.5c0,0,0,0,0,0l0.6-1l0.5-0.8l0.1-0.1c0.1-0.1,0.3-0.1,0.5,0
		l1.8,1.2L170.2,339.4z"/>
	<path class="st24" d="M178.4,324.8l-1.2-0.8c-0.2-0.2-0.3-0.5-0.2-0.8l1.6-2.5l0.8-1.2c0,0,0,0,0-0.1c0.2,0.6,0.2,1.3-0.1,2.2
		L178.4,324.8z"/>
	<path class="st24" d="M175.8,330.4l-0.7-0.5c-0.3-0.2-0.4-0.6-0.2-0.8l2.3-3.7l0.1-0.1c0.2-0.3,0.5-0.3,0.8-0.1l0.1,0.1l-0.5,2
		L175.8,330.4z"/>
	<path class="st24" d="M154.9,324l-4.3-3l0.9-2.6l1.3-2c0.2-0.3,0.5-0.3,0.8-0.1l2.8,2c0,0.1,0,0.1-0.1,0.2l-1.4,4.7L154.9,324
		C154.9,324,154.9,324,154.9,324z"/>
	<path class="st24" d="M166.9,332.4l-4.4-3.1c-0.3-0.2-0.4-0.6-0.2-0.8l2.3-3.6l0.1-0.1c0.2-0.3,0.5-0.3,0.8-0.1l1.1,0.7l-1.1,1.8
		l0.4,0.3l1.1-1.8l2.9,2c0.3,0.2,0.4,0.6,0.2,0.8l-2.4,3.8C167.5,332.5,167.2,332.5,166.9,332.4z"/>
	<path class="st25" d="M154.2,329l3.1-10c0.1-0.2,0.1-0.4,0.1-0.5c0.1-2.9-0.6-4.1-1.4-4.5c-0.8-0.4-1.7-0.1-2.1,0.7l-0.1,0.2
		l-2.9,8.6c-0.5,1.4-0.4,2.5,0.8,3C152.9,327,153.6,330.4,154.2,329z"/>
	<path class="st25" d="M173.3,332.1l-12.3-8.1c-1.4-0.9-3.3-0.3-4.3,1.3l-5,7.6l0.3,6.5l-7.1,9.9l12.5,9.6l6.5-9.6l4.7-4l5.3-8.8
		C175,335,174.7,333,173.3,332.1z"/>
	<path class="st25" d="M160.8,327.4c-0.6,1-2,1.3-3.1,0.5c-1.1-0.7-1.4-2.2-0.8-3.2l5.7-9l3.7-9.8c0-0.1,0.1-0.3,0.2-0.4
		c0.7-0.8,1.6-1,2.5-0.3c1.1,0.7,1.1,2,0.8,3.1l-3.3,9.9L160.8,327.4z"/>
	<path class="st25" d="M164.4,332c-0.6,1-2.1,1.3-3.2,0.5c-1.1-0.8-1.5-2.2-0.8-3.2l6.8-10.9l3.5-11c0-0.1,0.1-0.3,0.2-0.4
		c0.7-0.8,1.5-1.3,2.5-0.6c1.1,0.7,1.3,2.2,1.1,3.3l-3.5,11.5L164.4,332z"/>
	<path class="st25" d="M166.7,337.6c-0.6,1.1-2,1.3-3.1,0.6c-1.1-0.7-1.4-2.2-0.8-3.2l8.1-13l3-9.2c0.4-1.2,1.7-1.4,2.7-0.7
		l-0.2-0.1c1,0.7,1.4,2.1,1,3.2l-2.8,9.6L166.7,337.6z"/>
	<path class="st25" d="M171,341.2c-0.6,1.1-2.1,1.3-3.2,0.6c-1.1-0.7-1.5-2.2-0.8-3.3l8.1-13.2l2-5.5c0.1-0.2,0.1-0.4,0.3-0.6
		c0.5-0.7,0.9-1.1,2-0.5l0.2,0.1c1.1,0.7,1.2,1.7,0.8,3.2l-1.6,6.2L171,341.2z"/>
	<path class="st25" d="M156.1,322.2c-0.1-1.9-1.1-0.6-2.6-0.5c-1.5,0.1-2.6,1.8-2.5,3.7l0.9,14.1l5.5-1.3L156.1,322.2z"/>
	<path class="st28" d="M67.6,329.3l17.9,12.6L99,322.7L81,310.2L67.6,329.3z"/>
	<path class="st29" d="M65.6,330.2l19.9,13.9l11-15.7l-19.9-13.9L65.6,330.2z"/>
	<path class="st28" d="M127.5,367.1l17.9,12.6l14.3-20.5l-17.9-12.6L127.5,367.1z"/>
	<path class="st29" d="M123.4,370.1l20.2,14.2l13.7-19.6l-20.2-14.2L123.4,370.1z"/>
	<path class="st30" d="M94.5,322.3c-0.4,0.5-0.2,1.2,0.3,1.5c0.5,0.4,1.2,0.2,1.6-0.3c0.4-0.5,0.2-1.2-0.3-1.5
		C95.5,321.7,94.8,321.8,94.5,322.3z"/>
	<path class="st30" d="M141.1,349.6c-0.4,0.5-0.2,1.2,0.3,1.5c0.5,0.4,1.2,0.2,1.6-0.3c0.4-0.5,0.2-1.2-0.3-1.5
		C142.2,349,141.5,349.1,141.1,349.6z"/>
	<path class="st31" d="M121.7,242.4l5.5,3.9l34.7-49.6l-5.5-3.9L121.7,242.4z"/>
	<path class="st31" d="M224,251.7l11.5,8l5.4-7.7l-11.5-8L224,251.7z"/>
	<path class="st31" d="M217.4,261.3l11.5,8l5.4-7.7l-11.5-8L217.4,261.3z"/>
	<path class="st31" d="M210.7,270.8l11.5,8l5.4-7.7l-11.5-8L210.7,270.8z"/>
	<path class="st31" d="M204,280.4l11.5,8l5.4-7.7l-11.5-8L204,280.4z"/>
</g>
<defs>
	<filter id="Adobe_OpacityMaskFilter_4_" filterUnits="userSpaceOnUse" x="-11.3" y="0" width="177.3" height="133">
		<feColorMatrix  type="matrix" values="1 0 0 0 0  0 1 0 0 0  0 0 1 0 0  0 0 0 1 0"/>
	</filter>
</defs>
<mask maskUnits="userSpaceOnUse" x="-11.3" y="0" width="177.3" height="133" id="mask4_1_">
	<rect class="st32" width="166" height="133"/>
</mask>
<g class="st33">
	<path class="st5" d="M73.8,116.2v-100c0-4,3.2-7.3,7.2-7.3h2.8c4,0,7.2,3.3,7.2,7.3v100c0,4-3.2,7.3-7.2,7.3H81
		C77.1,123.5,73.8,120.2,73.8,116.2z"/>
	<path class="st6" d="M82.2,120.8v-108c0-4.2,3.4-7.7,7.6-7.7h68.6c4.2,0,7.6,3.5,7.6,7.7v108c0,4.2-3.4,7.7-7.6,7.7H89.8
		C85.6,128.5,82.2,125,82.2,120.8z"/>
	<path class="st7" d="M17.8,127.1V5.9c0-3.2,4.7-6,7.9-5.9l50.2,4.6c2.8,0.1,5.2,2.7,5.2,5.6v112.6c0,2.9-2.3,5.5-5.2,5.6L25.8,133
		C22.5,133.1,17.8,130.2,17.8,127.1z"/>
	<path class="st8" d="M87.7,11.2v111.1h69.9V11.2H87.7z"/>
	<path class="st9" d="M20.6,127.5V5.5c0-3.2,2.6-5.7,5.7-5.5l49.8,4.6c2.7,0.2,4.9,2.7,4.9,5.6v112.6c0,2.9-2.2,5.5-4.9,5.6
		L26.3,133C23.1,133.2,20.6,130.7,20.6,127.5z"/>
	<path class="st5" d="M64.9,22.7c-0.3,0-0.5-0.3-0.5-0.6v-5.3c0-0.3,0.2-0.6,0.5-0.6l4,0.3c0.3,0,0.5,0.3,0.5,0.6v5.2
		c0,0.3-0.2,0.6-0.5,0.6L64.9,22.7z"/>
	<path class="st5" d="M64.9,29.5c-0.3,0-0.5-0.3-0.5-0.6v-5.3c0-0.3,0.2-0.6,0.5-0.6l4,0.3c0.3,0,0.5,0.3,0.5,0.6v5.3
		c0,0.3-0.2,0.6-0.5,0.6L64.9,29.5z"/>
	<path class="st5" d="M64.9,36.3c-0.3,0-0.5-0.3-0.5-0.6v-4.9c0-0.3,0.2-0.5,0.5-0.5l4,0.2c0.3,0,0.5,0.3,0.5,0.6V36
		c0,0.3-0.2,0.5-0.5,0.5L64.9,36.3z"/>
	<path class="st5" d="M64.9,43.6c-0.3,0-0.5-0.3-0.5-0.6v-4.9c0-0.3,0.2-0.5,0.5-0.5l4,0.2c0.3,0,0.5,0.3,0.5,0.6v4.9
		c0,0.3-0.2,0.5-0.5,0.5L64.9,43.6z"/>
	<path class="st5" d="M64.9,51c-0.3,0-0.5-0.3-0.5-0.6v-5c0-0.3,0.2-0.6,0.5-0.5l4,0.1c0.3,0,0.5,0.3,0.5,0.6v4.9
		c0,0.3-0.2,0.6-0.5,0.5L64.9,51z"/>
	<path class="st5" d="M64.9,58.3c-0.3,0-0.5-0.3-0.5-0.6v-5c0-0.3,0.2-0.6,0.5-0.6l4,0.1c0.3,0,0.5,0.3,0.5,0.6v4.9
		c0,0.3-0.2,0.6-0.5,0.6L64.9,58.3z"/>
	<path class="st5" d="M64.9,65.1c-0.3,0-0.5-0.3-0.5-0.6v-5c0-0.3,0.2-0.6,0.5-0.6l4,0.1c0.3,0,0.5,0.3,0.5,0.6v5
		c0,0.3-0.2,0.6-0.5,0.6L64.9,65.1z"/>
	<path class="st5" d="M64.9,72.4c-0.3,0-0.5-0.3-0.5-0.6v-5c0-0.3,0.2-0.6,0.5-0.6l4,0c0.3,0,0.5,0.3,0.5,0.6v5
		c0,0.3-0.2,0.6-0.5,0.6L64.9,72.4z"/>
	<path class="st5" d="M64.9,79.7c-0.3,0-0.5-0.2-0.5-0.6v-5c0-0.3,0.2-0.6,0.5-0.6l4,0c0.3,0,0.5,0.2,0.5,0.6v5
		c0,0.3-0.2,0.6-0.5,0.6L64.9,79.7z"/>
	<path class="st5" d="M64.9,86.4c-0.3,0-0.5-0.2-0.5-0.6v-5c0-0.3,0.2-0.6,0.5-0.6l4-0.1c0.3,0,0.5,0.2,0.5,0.6v4.9
		c0,0.3-0.2,0.6-0.5,0.6L64.9,86.4z"/>
	<path class="st5" d="M64.9,93.7c-0.3,0-0.5-0.2-0.5-0.5v-4.9c0-0.3,0.2-0.6,0.5-0.6l4-0.1c0.3,0,0.5,0.2,0.5,0.5V93
		c0,0.3-0.2,0.6-0.5,0.6L64.9,93.7z"/>
	<path class="st5" d="M64.9,101c-0.3,0-0.5-0.2-0.5-0.5v-4.9c0-0.3,0.2-0.6,0.5-0.6l4-0.2c0.3,0,0.5,0.2,0.5,0.5v4.9
		c0,0.3-0.2,0.6-0.5,0.6L64.9,101z"/>
	<path class="st5" d="M64.9,107.8c-0.3,0-0.5-0.2-0.5-0.5v-4.9c0-0.3,0.2-0.6,0.5-0.6l4-0.2c0.3,0,0.5,0.2,0.5,0.5v4.8
		c0,0.3-0.2,0.6-0.5,0.6L64.9,107.8z"/>
	<path class="st5" d="M64.9,118.4c-0.3,0-0.5-0.2-0.5-0.5v-8.2c0-0.3,0.2-0.6,0.5-0.6l4-0.2c0.3,0,0.5,0.2,0.5,0.5v8.1
		c0,0.3-0.2,0.6-0.5,0.6L64.9,118.4z"/>
	<path class="st5" d="M58.3,32.9c-0.3,0-0.6-0.3-0.6-0.6v-5.3c0-0.3,0.2-0.6,0.6-0.6l4.5,0.3c0.3,0,0.5,0.3,0.5,0.6v5.3
		c0,0.3-0.2,0.6-0.5,0.6L58.3,32.9z"/>
	<path class="st5" d="M58.3,40.2c-0.3,0-0.6-0.3-0.6-0.6v-5.3c0-0.3,0.2-0.6,0.6-0.6l4.5,0.2c0.3,0,0.5,0.3,0.5,0.6v5.3
		c0,0.3-0.2,0.6-0.5,0.6L58.3,40.2z"/>
	<path class="st5" d="M58.3,47c-0.3,0-0.6-0.3-0.6-0.6v-4.9c0-0.3,0.2-0.5,0.6-0.5l4.5,0.2c0.3,0,0.5,0.3,0.5,0.6v4.9
		c0,0.3-0.2,0.5-0.5,0.5L58.3,47z"/>
	<path class="st5" d="M58.3,54.4c-0.3,0-0.6-0.3-0.6-0.6v-5c0-0.3,0.2-0.6,0.6-0.5l4.5,0.1c0.3,0,0.5,0.3,0.5,0.6v4.9
		c0,0.3-0.2,0.6-0.5,0.5L58.3,54.4z"/>
	<path class="st5" d="M58.3,61.7c-0.3,0-0.6-0.3-0.6-0.6v-5c0-0.3,0.2-0.6,0.6-0.6l4.5,0.1c0.3,0,0.5,0.3,0.5,0.6v5
		c0,0.3-0.2,0.6-0.5,0.6L58.3,61.7z"/>
	<path class="st5" d="M58.3,69c-0.3,0-0.6-0.3-0.6-0.6v-5c0-0.3,0.2-0.6,0.6-0.6l4.5,0c0.3,0,0.5,0.3,0.5,0.6v5
		c0,0.3-0.2,0.6-0.5,0.6H58.3z"/>
	<path class="st5" d="M58.3,76.3c-0.3,0-0.6-0.3-0.6-0.6v-5c0-0.3,0.2-0.6,0.6-0.6l4.5,0c0.3,0,0.5,0.3,0.5,0.6v5
		c0,0.3-0.2,0.6-0.5,0.6L58.3,76.3z"/>
	<path class="st5" d="M58.3,83.1c-0.3,0-0.6-0.2-0.6-0.6v-5c0-0.3,0.2-0.6,0.6-0.6l4.5,0c0.3,0,0.5,0.2,0.5,0.6v5
		c0,0.3-0.2,0.6-0.5,0.6L58.3,83.1z"/>
	<path class="st5" d="M58.3,90.4c-0.3,0-0.6-0.2-0.6-0.5v-5c0-0.3,0.2-0.6,0.6-0.6l4.5-0.1c0.3,0,0.5,0.2,0.5,0.5v4.9
		c0,0.3-0.2,0.6-0.5,0.6L58.3,90.4z"/>
	<path class="st5" d="M58.3,97.6c-0.3,0-0.6-0.2-0.6-0.5v-4.9c0-0.3,0.2-0.6,0.6-0.6l4.5-0.1c0.3,0,0.5,0.2,0.5,0.5v4.9
		c0,0.3-0.2,0.6-0.5,0.6L58.3,97.6z"/>
	<path class="st5" d="M58.3,105.5c-0.3,0-0.6-0.2-0.6-0.6v-5.3c0-0.3,0.2-0.6,0.6-0.6l4.5-0.2c0.3,0,0.5,0.2,0.5,0.6v5.3
		c0,0.3-0.2,0.6-0.5,0.6L58.3,105.5z"/>
	<path class="st5" d="M58.3,112.8c-0.3,0-0.6-0.2-0.6-0.6v-5.3c0-0.3,0.2-0.6,0.6-0.6l4.5-0.2c0.3,0,0.5,0.2,0.5,0.6v5.3
		c0,0.3-0.2,0.6-0.5,0.6L58.3,112.8z"/>
	<path class="st5" d="M58.3,119.5c-0.3,0-0.6-0.2-0.6-0.6v-5.3c0-0.3,0.2-0.6,0.6-0.6l4.5-0.3c0.3,0,0.5,0.2,0.5,0.6v5.2
		c0,0.3-0.2,0.6-0.5,0.6L58.3,119.5z"/>
	<path class="st5" d="M58.3,25.5c-0.3,0-0.6-0.3-0.6-0.6v-8.7c0-0.3,0.2-0.6,0.6-0.6l4.5,0.3c0.3,0,0.5,0.3,0.5,0.6v8.6
		c0,0.3-0.2,0.6-0.5,0.6L58.3,25.5z"/>
	<path class="st5" d="M52.2,34.6c-0.3,0-0.6-0.3-0.6-0.6v-5.3c0-0.3,0.2-0.6,0.6-0.6l4.5,0.3c0.3,0,0.5,0.3,0.5,0.6v5.3
		c0,0.3-0.2,0.6-0.5,0.6L52.2,34.6z"/>
	<path class="st5" d="M52.2,41.9c-0.3,0-0.6-0.3-0.6-0.6v-5.4c0-0.3,0.2-0.6,0.6-0.6l4.5,0.2c0.3,0,0.5,0.3,0.5,0.6v5.3
		c0,0.3-0.2,0.6-0.5,0.6L52.2,41.9z"/>
	<path class="st5" d="M52.2,49.3c-0.3,0-0.6-0.3-0.6-0.6v-5.4c0-0.3,0.2-0.6,0.6-0.6l4.5,0.2c0.3,0,0.5,0.3,0.5,0.6v5.3
		c0,0.3-0.2,0.6-0.5,0.6L52.2,49.3z"/>
	<path class="st5" d="M52.2,56c-0.3,0-0.6-0.3-0.6-0.6v-5c0-0.3,0.2-0.6,0.6-0.5l4.5,0.1c0.3,0,0.5,0.3,0.5,0.6v4.9
		c0,0.3-0.2,0.6-0.5,0.6L52.2,56z"/>
	<path class="st5" d="M52.2,63.4c-0.3,0-0.6-0.3-0.6-0.6v-5c0-0.3,0.2-0.6,0.6-0.6l4.5,0.1c0.3,0,0.5,0.3,0.5,0.6v5
		c0,0.3-0.2,0.6-0.5,0.6L52.2,63.4z"/>
	<path class="st5" d="M52.2,70.7c-0.3,0-0.6-0.3-0.6-0.6v-5c0-0.3,0.2-0.6,0.6-0.6l4.5,0c0.3,0,0.5,0.3,0.5,0.6v5
		c0,0.3-0.2,0.6-0.5,0.6L52.2,70.7z"/>
	<path class="st5" d="M52.2,78c-0.3,0-0.6-0.2-0.6-0.6v-5c0-0.3,0.2-0.6,0.6-0.6l4.5,0c0.3,0,0.5,0.3,0.5,0.6v5
		c0,0.3-0.2,0.6-0.5,0.6L52.2,78z"/>
	<path class="st5" d="M52.2,85.3c-0.3,0-0.6-0.2-0.6-0.6v-5c0-0.3,0.2-0.6,0.6-0.6l4.5-0.1c0.3,0,0.5,0.2,0.5,0.6v5
		c0,0.3-0.2,0.6-0.5,0.6L52.2,85.3z"/>
	<path class="st5" d="M52.2,92.6c-0.3,0-0.6-0.3-0.6-0.6v-5.4c0-0.3,0.2-0.6,0.6-0.6l4.5-0.1c0.3,0,0.5,0.3,0.5,0.6v5.4
		c0,0.3-0.2,0.6-0.5,0.6L52.2,92.6z"/>
	<path class="st5" d="M52.2,99.9c-0.3,0-0.6-0.2-0.6-0.6v-5.4c0-0.3,0.2-0.6,0.6-0.6l4.5-0.2c0.3,0,0.5,0.3,0.5,0.6v5.3
		c0,0.3-0.2,0.6-0.5,0.6L52.2,99.9z"/>
	<path class="st5" d="M52.2,107.2c-0.3,0-0.6-0.2-0.6-0.6v-5.3c0-0.3,0.2-0.6,0.6-0.6l4.5-0.2c0.3,0,0.5,0.2,0.5,0.6v5.3
		c0,0.3-0.2,0.6-0.5,0.6L52.2,107.2z"/>
	<path class="st5" d="M52.2,119.5c-0.3,0-0.6-0.2-0.6-0.5v-10.4c0-0.3,0.2-0.6,0.6-0.6l4.5-0.2c0.3,0,0.5,0.2,0.5,0.5v10.3
		c0,0.3-0.2,0.6-0.5,0.6L52.2,119.5z"/>
	<path class="st5" d="M52.2,26.7c-0.3,0-0.6-0.3-0.6-0.6V15.7c0-0.3,0.2-0.6,0.6-0.5l4.5,0.3c0.3,0,0.5,0.3,0.5,0.6v10.3
		c0,0.3-0.2,0.6-0.5,0.6L52.2,26.7z"/>
	<path class="st5" d="M45.5,38c-0.3,0-0.6-0.3-0.6-0.6V32c0-0.3,0.2-0.6,0.6-0.6l4.5,0.2c0.3,0,0.5,0.3,0.5,0.6v5.3
		c0,0.3-0.2,0.6-0.5,0.6L45.5,38z"/>
	<path class="st5" d="M45.5,45.3c-0.3,0-0.6-0.3-0.6-0.6v-5.4c0-0.3,0.2-0.6,0.6-0.6l4.5,0.2c0.3,0,0.5,0.3,0.5,0.6v5.3
		c0,0.3-0.2,0.6-0.5,0.6L45.5,45.3z"/>
	<path class="st5" d="M45.5,52.6c-0.3,0-0.6-0.3-0.6-0.6v-5.4c0-0.3,0.2-0.6,0.6-0.6l4.5,0.1c0.3,0,0.5,0.3,0.5,0.6v5.4
		c0,0.3-0.2,0.6-0.5,0.6L45.5,52.6z"/>
	<path class="st5" d="M45.5,60c-0.3,0-0.6-0.3-0.6-0.6v-5.4c0-0.3,0.2-0.6,0.6-0.6l4.5,0.1c0.3,0,0.5,0.3,0.5,0.6v5.4
		c0,0.3-0.2,0.6-0.5,0.6L45.5,60z"/>
	<path class="st5" d="M45.5,66.8c-0.3,0-0.6-0.3-0.6-0.6v-5c0-0.3,0.2-0.6,0.6-0.6l4.5,0c0.3,0,0.5,0.3,0.5,0.6v5
		c0,0.3-0.2,0.6-0.5,0.6L45.5,66.8z"/>
	<path class="st5" d="M45.5,74.1c-0.3,0-0.6-0.3-0.6-0.6v-5c0-0.3,0.2-0.6,0.6-0.6l4.5,0c0.3,0,0.5,0.3,0.5,0.6v5
		c0,0.3-0.2,0.6-0.5,0.6L45.5,74.1z"/>
	<path class="st5" d="M45.5,81.4c-0.3,0-0.6-0.2-0.6-0.6v-5c0-0.3,0.2-0.6,0.6-0.6l4.5,0c0.3,0,0.5,0.2,0.5,0.6v5
		c0,0.3-0.2,0.6-0.5,0.6L45.5,81.4z"/>
	<path class="st5" d="M45.5,89.2c-0.3,0-0.6-0.3-0.6-0.6v-5.4c0-0.3,0.2-0.6,0.6-0.6l4.5-0.1c0.3,0,0.5,0.3,0.5,0.6v5.4
		c0,0.3-0.2,0.6-0.5,0.6L45.5,89.2z"/>
	<path class="st5" d="M45.5,96.5c-0.3,0-0.6-0.3-0.6-0.6v-5.4c0-0.3,0.2-0.6,0.6-0.6l4.5-0.1c0.3,0,0.5,0.3,0.5,0.6v5.3
		c0,0.3-0.2,0.6-0.5,0.6L45.5,96.5z"/>
	<path class="st5" d="M45.5,103.8c-0.3,0-0.6-0.2-0.6-0.6v-5.3c0-0.3,0.2-0.6,0.6-0.6l4.5-0.2c0.3,0,0.5,0.2,0.5,0.6v5.3
		c0,0.3-0.2,0.6-0.5,0.6L45.5,103.8z"/>
	<path class="st5" d="M45.5,119.5c-0.3,0-0.6-0.2-0.6-0.5v-13.8c0-0.3,0.2-0.6,0.6-0.6l4.5-0.2c0.3,0,0.5,0.2,0.5,0.6v13.7
		c0,0.3-0.2,0.6-0.5,0.6L45.5,119.5z"/>
	<path class="st5" d="M45.5,30.1c-0.3,0-0.6-0.3-0.6-0.6V15.1c0-0.3,0.2-0.6,0.6-0.6l4.5,0.3c0.3,0,0.5,0.3,0.5,0.6v14.2
		c0,0.3-0.2,0.6-0.5,0.6L45.5,30.1z"/>
	<path class="st5" d="M41.4,112.2c-0.2,0-0.3-0.2-0.3-0.4v-4c0-0.3,0.1-0.5,0.3-0.5l2.2-0.1c0.2,0,0.3,0.2,0.3,0.4v4
		c0,0.3-0.1,0.5-0.3,0.5L41.4,112.2z"/>
	<path class="st5" d="M38.3,20.5c-0.3,0-0.6-0.3-0.6-0.6v-5.2c0-0.3,0.2-0.6,0.6-0.6l4.5,0.3c0.3,0,0.5,0.3,0.5,0.6v5.2
		c0,0.3-0.2,0.6-0.5,0.6L38.3,20.5z"/>
	<path class="st5" d="M38.3,27.8c-0.3,0-0.6-0.3-0.6-0.6v-5.3c0-0.3,0.2-0.6,0.6-0.6l4.5,0.3c0.3,0,0.5,0.3,0.5,0.6v5.2
		c0,0.3-0.2,0.6-0.5,0.6L38.3,27.8z"/>
	<path class="st5" d="M38.3,36.8c-0.3,0-0.6-0.3-0.6-0.6v-5.3c0-0.3,0.2-0.6,0.6-0.6l4.5,0.2c0.3,0,0.5,0.3,0.5,0.6v5.3
		c0,0.3-0.2,0.6-0.5,0.6L38.3,36.8z"/>
	<path class="st5" d="M38.3,47.6c-0.3,0-0.6-0.3-0.6-0.6v-8.2c0-0.3,0.2-0.6,0.6-0.6l4.5,0.2c0.3,0,0.5,0.3,0.5,0.6v8.1
		c0,0.3-0.2,0.6-0.5,0.6L38.3,47.6z"/>
	<path class="st5" d="M38.3,90.9c-0.3,0-0.6-0.3-0.6-0.6v-8.3c0-0.3,0.2-0.6,0.6-0.6l4.5-0.1c0.3,0,0.5,0.3,0.5,0.6v8.2
		c0,0.3-0.2,0.6-0.5,0.6L38.3,90.9z"/>
	<path class="st5" d="M38.3,98.8c-0.3,0-0.6-0.3-0.6-0.6v-5.4c0-0.3,0.2-0.6,0.6-0.6l4.5-0.1c0.3,0,0.5,0.3,0.5,0.6v5.3
		c0,0.3-0.2,0.6-0.5,0.6L38.3,98.8z"/>
	<path class="st5" d="M38,106.1c-0.2,0-0.3-0.2-0.3-0.5v-4c0-0.3,0.1-0.5,0.3-0.5l2.2-0.1c0.2,0,0.3,0.2,0.3,0.4v4
		c0,0.3-0.1,0.5-0.3,0.5L38,106.1z"/>
	<path class="st5" d="M38,119c-0.2,0-0.3-0.2-0.3-0.4v-4c0-0.3,0.1-0.5,0.3-0.5l2.2-0.1c0.2,0,0.3,0.2,0.3,0.4v4
		c0,0.3-0.1,0.5-0.3,0.5L38,119z"/>
	<path class="st5" d="M38,112.8c-0.2,0-0.3-0.2-0.3-0.4v-4c0-0.3,0.1-0.5,0.3-0.5l2.2-0.1c0.2,0,0.3,0.2,0.3,0.4v4
		c0,0.3-0.1,0.5-0.3,0.5L38,112.8z"/>
	<path class="st5" d="M38.3,80.3c-0.3,0-0.6-0.3-0.6-0.6V49.4c0-0.3,0.2-0.6,0.6-0.6l4.5,0.1c0.3,0,0.5,0.3,0.5,0.6v30
		c0,0.3-0.2,0.6-0.5,0.6L38.3,80.3z"/>
	<path class="st10" d="M38.3,20.5c-0.3,0-0.6-0.3-0.6-0.6v-5.2c0-0.3,0.2-0.6,0.6-0.6l4.5,0.3c0.3,0,0.5,0.3,0.5,0.6v5.2
		c0,0.3-0.2,0.6-0.5,0.6L38.3,20.5z"/>
	<path class="st10" d="M38.3,27.8c-0.3,0-0.6-0.3-0.6-0.6v-5.3c0-0.3,0.2-0.6,0.6-0.6l4.5,0.3c0.3,0,0.5,0.3,0.5,0.6v5.2
		c0,0.3-0.2,0.6-0.5,0.6L38.3,27.8z"/>
	<path class="st10" d="M38.3,36.8c-0.3,0-0.6-0.3-0.6-0.6v-5.3c0-0.3,0.2-0.6,0.6-0.6l4.5,0.2c0.3,0,0.5,0.3,0.5,0.6v5.3
		c0,0.3-0.2,0.6-0.5,0.6L38.3,36.8z"/>
	<path class="st10" d="M38.3,47.6c-0.3,0-0.6-0.3-0.6-0.6v-8.2c0-0.3,0.2-0.6,0.6-0.6l4.5,0.2c0.3,0,0.5,0.3,0.5,0.6v8.1
		c0,0.3-0.2,0.6-0.5,0.6L38.3,47.6z"/>
	<path class="st10" d="M38.3,90.9c-0.3,0-0.6-0.3-0.6-0.6v-8.3c0-0.3,0.2-0.6,0.6-0.6l4.5-0.1c0.3,0,0.5,0.3,0.5,0.6v8.2
		c0,0.3-0.2,0.6-0.5,0.6L38.3,90.9z"/>
	<path class="st10" d="M38.3,98.8c-0.3,0-0.6-0.3-0.6-0.6v-5.4c0-0.3,0.2-0.6,0.6-0.6l4.5-0.1c0.3,0,0.5,0.3,0.5,0.6v5.3
		c0,0.3-0.2,0.6-0.5,0.6L38.3,98.8z"/>
	<path class="st10" d="M38,106.1c-0.2,0-0.3-0.2-0.3-0.5v-4c0-0.3,0.1-0.5,0.3-0.5l2.2-0.1c0.2,0,0.3,0.2,0.3,0.5v4
		c0,0.3-0.1,0.5-0.3,0.5L38,106.1z"/>
	<path class="st10" d="M38,119c-0.2,0-0.3-0.2-0.3-0.4v-4c0-0.3,0.1-0.5,0.3-0.5l2.2-0.1c0.2,0,0.3,0.2,0.3,0.4v4
		c0,0.3-0.1,0.5-0.3,0.5L38,119z"/>
	<path class="st10" d="M38,112.8c-0.2,0-0.3-0.2-0.3-0.4v-4c0-0.3,0.1-0.5,0.3-0.5l2.2-0.1c0.2,0,0.3,0.2,0.3,0.4v4
		c0,0.3-0.1,0.5-0.3,0.5L38,112.8z"/>
	<path class="st10" d="M41.4,112.2c-0.2,0-0.3-0.2-0.3-0.4v-4c0-0.3,0.1-0.5,0.3-0.5l2.2-0.1c0.2,0,0.3,0.2,0.3,0.4v4
		c0,0.3-0.1,0.5-0.3,0.5L41.4,112.2z"/>
	<path class="st10" d="M38.3,80.3c-0.3,0-0.6-0.3-0.6-0.6V49.4c0-0.3,0.2-0.6,0.6-0.6l4.5,0.1c0.3,0,0.5,0.3,0.5,0.6v30
		c0,0.3-0.2,0.6-0.5,0.6L38.3,80.3z"/>
	<path class="st10" d="M58.3,32.9c-0.3,0-0.6-0.3-0.6-0.6v-5.3c0-0.3,0.2-0.6,0.6-0.6l4.5,0.3c0.3,0,0.5,0.3,0.5,0.6v5.3
		c0,0.3-0.2,0.6-0.5,0.6L58.3,32.9z"/>
	<path class="st10" d="M58.3,40.2c-0.3,0-0.6-0.3-0.6-0.6v-5.3c0-0.3,0.2-0.6,0.6-0.6l4.5,0.2c0.3,0,0.5,0.3,0.5,0.6v5.3
		c0,0.3-0.2,0.6-0.5,0.6L58.3,40.2z"/>
	<path class="st10" d="M58.3,47c-0.3,0-0.6-0.3-0.6-0.6v-4.9c0-0.3,0.2-0.5,0.6-0.5l4.5,0.2c0.3,0,0.5,0.3,0.5,0.6v4.9
		c0,0.3-0.2,0.5-0.5,0.5L58.3,47z"/>
	<path class="st10" d="M58.3,54.4c-0.3,0-0.6-0.3-0.6-0.6v-5c0-0.3,0.2-0.6,0.6-0.5l4.5,0.1c0.3,0,0.5,0.3,0.5,0.6v4.9
		c0,0.3-0.2,0.6-0.5,0.5L58.3,54.4z"/>
	<path class="st10" d="M58.3,61.7c-0.3,0-0.6-0.3-0.6-0.6v-5c0-0.3,0.2-0.6,0.6-0.6l4.5,0.1c0.3,0,0.5,0.3,0.5,0.6v5
		c0,0.3-0.2,0.6-0.5,0.6L58.3,61.7z"/>
	<path class="st10" d="M58.3,69c-0.3,0-0.6-0.3-0.6-0.6v-5c0-0.3,0.2-0.6,0.6-0.6l4.5,0c0.3,0,0.5,0.3,0.5,0.6v5
		c0,0.3-0.2,0.6-0.5,0.6H58.3z"/>
	<path class="st10" d="M58.3,76.3c-0.3,0-0.6-0.3-0.6-0.6v-5c0-0.3,0.2-0.6,0.6-0.6l4.5,0c0.3,0,0.5,0.3,0.5,0.6v5
		c0,0.3-0.2,0.6-0.5,0.6L58.3,76.3z"/>
	<path class="st10" d="M58.3,83.1c-0.3,0-0.6-0.2-0.6-0.6v-5c0-0.3,0.2-0.6,0.6-0.6l4.5,0c0.3,0,0.5,0.2,0.5,0.6v5
		c0,0.3-0.2,0.6-0.5,0.6L58.3,83.1z"/>
	<path class="st10" d="M58.3,90.4c-0.3,0-0.6-0.2-0.6-0.5v-5c0-0.3,0.2-0.6,0.6-0.6l4.5-0.1c0.3,0,0.5,0.2,0.5,0.5v4.9
		c0,0.3-0.2,0.6-0.5,0.6L58.3,90.4z"/>
	<path class="st10" d="M58.3,97.6c-0.3,0-0.6-0.2-0.6-0.5v-4.9c0-0.3,0.2-0.6,0.6-0.6l4.5-0.1c0.3,0,0.5,0.2,0.5,0.5v4.9
		c0,0.3-0.2,0.6-0.5,0.6L58.3,97.6z"/>
	<path class="st10" d="M58.3,105.5c-0.3,0-0.6-0.2-0.6-0.6v-5.3c0-0.3,0.2-0.6,0.6-0.6l4.5-0.2c0.3,0,0.5,0.2,0.5,0.6v5.3
		c0,0.3-0.2,0.6-0.5,0.6L58.3,105.5z"/>
	<path class="st10" d="M58.3,112.8c-0.3,0-0.6-0.2-0.6-0.6v-5.3c0-0.3,0.2-0.6,0.6-0.6l4.5-0.2c0.3,0,0.5,0.2,0.5,0.6v5.3
		c0,0.3-0.2,0.6-0.5,0.6L58.3,112.8z"/>
	<path class="st10" d="M58.3,119.5c-0.3,0-0.6-0.2-0.6-0.6v-5.3c0-0.3,0.2-0.6,0.6-0.6l4.5-0.3c0.3,0,0.5,0.2,0.5,0.6v5.2
		c0,0.3-0.2,0.6-0.5,0.6L58.3,119.5z"/>
	<path class="st10" d="M58.3,25.5c-0.3,0-0.6-0.3-0.6-0.6v-8.7c0-0.3,0.2-0.6,0.6-0.6l4.5,0.3c0.3,0,0.5,0.3,0.5,0.6v8.6
		c0,0.3-0.2,0.6-0.5,0.6L58.3,25.5z"/>
	<path class="st10" d="M52.2,34.6c-0.3,0-0.6-0.3-0.6-0.6v-5.3c0-0.3,0.2-0.6,0.6-0.6l4.5,0.3c0.3,0,0.5,0.3,0.5,0.6v5.3
		c0,0.3-0.2,0.6-0.5,0.6L52.2,34.6z"/>
	<path class="st10" d="M52.2,41.9c-0.3,0-0.6-0.3-0.6-0.6v-5.4c0-0.3,0.2-0.6,0.6-0.6l4.5,0.2c0.3,0,0.5,0.3,0.5,0.6v5.3
		c0,0.3-0.2,0.6-0.5,0.6L52.2,41.9z"/>
	<path class="st10" d="M52.2,49.3c-0.3,0-0.6-0.3-0.6-0.6v-5.4c0-0.3,0.2-0.6,0.6-0.6l4.5,0.2c0.3,0,0.5,0.3,0.5,0.6v5.3
		c0,0.3-0.2,0.6-0.5,0.6L52.2,49.3z"/>
	<path class="st10" d="M52.2,56c-0.3,0-0.6-0.3-0.6-0.6v-5c0-0.3,0.2-0.6,0.6-0.5l4.5,0.1c0.3,0,0.5,0.3,0.5,0.6v4.9
		c0,0.3-0.2,0.6-0.5,0.6L52.2,56z"/>
	<path class="st10" d="M52.2,63.4c-0.3,0-0.6-0.3-0.6-0.6v-5c0-0.3,0.2-0.6,0.6-0.6l4.5,0.1c0.3,0,0.5,0.3,0.5,0.6v5
		c0,0.3-0.2,0.6-0.5,0.6L52.2,63.4z"/>
	<path class="st10" d="M52.2,70.7c-0.3,0-0.6-0.3-0.6-0.6v-5c0-0.3,0.2-0.6,0.6-0.6l4.5,0c0.3,0,0.5,0.3,0.5,0.6v5
		c0,0.3-0.2,0.6-0.5,0.6L52.2,70.7z"/>
	<path class="st10" d="M52.2,78c-0.3,0-0.6-0.2-0.6-0.6v-5c0-0.3,0.2-0.6,0.6-0.6l4.5,0c0.3,0,0.5,0.3,0.5,0.6v5
		c0,0.3-0.2,0.6-0.5,0.6L52.2,78z"/>
	<path class="st10" d="M52.2,85.3c-0.3,0-0.6-0.2-0.6-0.6v-5c0-0.3,0.2-0.6,0.6-0.6l4.5-0.1c0.3,0,0.5,0.2,0.5,0.6v5
		c0,0.3-0.2,0.6-0.5,0.6L52.2,85.3z"/>
	<path class="st10" d="M52.2,92.6c-0.3,0-0.6-0.3-0.6-0.6v-5.4c0-0.3,0.2-0.6,0.6-0.6l4.5-0.1c0.3,0,0.5,0.3,0.5,0.6v5.4
		c0,0.3-0.2,0.6-0.5,0.6L52.2,92.6z"/>
	<path class="st10" d="M52.2,99.9c-0.3,0-0.6-0.2-0.6-0.6v-5.4c0-0.3,0.2-0.6,0.6-0.6l4.5-0.2c0.3,0,0.5,0.3,0.5,0.6v5.3
		c0,0.3-0.2,0.6-0.5,0.6L52.2,99.9z"/>
	<path class="st10" d="M52.2,107.2c-0.3,0-0.6-0.2-0.6-0.6v-5.3c0-0.3,0.2-0.6,0.6-0.6l4.5-0.2c0.3,0,0.5,0.2,0.5,0.6v5.3
		c0,0.3-0.2,0.6-0.5,0.6L52.2,107.2z"/>
	<path class="st10" d="M52.2,119.5c-0.3,0-0.6-0.2-0.6-0.5v-10.4c0-0.3,0.2-0.6,0.6-0.6l4.5-0.2c0.3,0,0.5,0.2,0.5,0.5v10.3
		c0,0.3-0.2,0.6-0.5,0.6L52.2,119.5z"/>
	<path class="st10" d="M52.2,26.7c-0.3,0-0.6-0.3-0.6-0.6V15.7c0-0.3,0.2-0.6,0.6-0.5l4.5,0.3c0.3,0,0.5,0.3,0.5,0.6v10.3
		c0,0.3-0.2,0.6-0.5,0.6L52.2,26.7z"/>
	<path class="st10" d="M45.5,38c-0.3,0-0.6-0.3-0.6-0.6V32c0-0.3,0.2-0.6,0.6-0.6l4.5,0.2c0.3,0,0.5,0.3,0.5,0.6v5.3
		c0,0.3-0.2,0.6-0.5,0.6L45.5,38z"/>
	<path class="st10" d="M45.5,45.3c-0.3,0-0.6-0.3-0.6-0.6v-5.4c0-0.3,0.2-0.6,0.6-0.6l4.5,0.2c0.3,0,0.5,0.3,0.5,0.6v5.3
		c0,0.3-0.2,0.6-0.5,0.6L45.5,45.3z"/>
	<path class="st10" d="M45.5,52.6c-0.3,0-0.6-0.3-0.6-0.6v-5.4c0-0.3,0.2-0.6,0.6-0.6l4.5,0.1c0.3,0,0.5,0.3,0.5,0.6v5.4
		c0,0.3-0.2,0.6-0.5,0.6L45.5,52.6z"/>
	<path class="st10" d="M45.5,60c-0.3,0-0.6-0.3-0.6-0.6v-5.4c0-0.3,0.2-0.6,0.6-0.6l4.5,0.1c0.3,0,0.5,0.3,0.5,0.6v5.4
		c0,0.3-0.2,0.6-0.5,0.6L45.5,60z"/>
	<path class="st10" d="M45.5,66.8c-0.3,0-0.6-0.3-0.6-0.6v-5c0-0.3,0.2-0.6,0.6-0.6l4.5,0c0.3,0,0.5,0.3,0.5,0.6v5
		c0,0.3-0.2,0.6-0.5,0.6L45.5,66.8z"/>
	<path class="st10" d="M45.5,74.1c-0.3,0-0.6-0.3-0.6-0.6v-5c0-0.3,0.2-0.6,0.6-0.6l4.5,0c0.3,0,0.5,0.3,0.5,0.6v5
		c0,0.3-0.2,0.6-0.5,0.6L45.5,74.1z"/>
	<path class="st10" d="M45.5,81.4c-0.3,0-0.6-0.2-0.6-0.6v-5c0-0.3,0.2-0.6,0.6-0.6l4.5,0c0.3,0,0.5,0.2,0.5,0.6v5
		c0,0.3-0.2,0.6-0.5,0.6L45.5,81.4z"/>
	<path class="st10" d="M45.5,89.2c-0.3,0-0.6-0.3-0.6-0.6v-5.4c0-0.3,0.2-0.6,0.6-0.6l4.5-0.1c0.3,0,0.5,0.3,0.5,0.6v5.4
		c0,0.3-0.2,0.6-0.5,0.6L45.5,89.2z"/>
	<path class="st10" d="M45.5,96.5c-0.3,0-0.6-0.3-0.6-0.6v-5.4c0-0.3,0.2-0.6,0.6-0.6l4.5-0.1c0.3,0,0.5,0.3,0.5,0.6v5.3
		c0,0.3-0.2,0.6-0.5,0.6L45.5,96.5z"/>
	<path class="st10" d="M45.5,103.8c-0.3,0-0.6-0.2-0.6-0.6v-5.3c0-0.3,0.2-0.6,0.6-0.6l4.5-0.2c0.3,0,0.5,0.2,0.5,0.6v5.3
		c0,0.3-0.2,0.6-0.5,0.6L45.5,103.8z"/>
	<path class="st10" d="M45.5,119.5c-0.3,0-0.6-0.2-0.6-0.5v-13.8c0-0.3,0.2-0.6,0.6-0.6l4.5-0.2c0.3,0,0.5,0.2,0.5,0.6v13.7
		c0,0.3-0.2,0.6-0.5,0.6L45.5,119.5z"/>
	<path class="st10" d="M45.5,30.1c-0.3,0-0.6-0.3-0.6-0.6V15.1c0-0.3,0.2-0.6,0.6-0.6l4.5,0.3c0.3,0,0.5,0.3,0.5,0.6v14.2
		c0,0.3-0.2,0.6-0.5,0.6L45.5,30.1z"/>
	<path class="st10" d="M64.9,22.7c-0.3,0-0.5-0.3-0.5-0.6v-5.3c0-0.3,0.2-0.6,0.5-0.6l4,0.3c0.3,0,0.5,0.3,0.5,0.6v5.2
		c0,0.3-0.2,0.6-0.5,0.6L64.9,22.7z"/>
	<path class="st10" d="M64.9,29.5c-0.3,0-0.5-0.3-0.5-0.6v-5.3c0-0.3,0.2-0.6,0.5-0.6l4,0.3c0.3,0,0.5,0.3,0.5,0.6v5.3
		c0,0.3-0.2,0.6-0.5,0.6L64.9,29.5z"/>
	<path class="st10" d="M64.9,36.3c-0.3,0-0.5-0.3-0.5-0.6v-4.9c0-0.3,0.2-0.5,0.5-0.5l4,0.2c0.3,0,0.5,0.3,0.5,0.6V36
		c0,0.3-0.2,0.5-0.5,0.5L64.9,36.3z"/>
	<path class="st10" d="M64.9,43.6c-0.3,0-0.5-0.3-0.5-0.6v-4.9c0-0.3,0.2-0.5,0.5-0.5l4,0.2c0.3,0,0.5,0.3,0.5,0.6v4.9
		c0,0.3-0.2,0.5-0.5,0.5L64.9,43.6z"/>
	<path class="st10" d="M64.9,51c-0.3,0-0.5-0.3-0.5-0.6v-5c0-0.3,0.2-0.6,0.5-0.5l4,0.1c0.3,0,0.5,0.3,0.5,0.6v4.9
		c0,0.3-0.2,0.6-0.5,0.5L64.9,51z"/>
	<path class="st10" d="M64.9,58.3c-0.3,0-0.5-0.3-0.5-0.6v-5c0-0.3,0.2-0.6,0.5-0.6l4,0.1c0.3,0,0.5,0.3,0.5,0.6v4.9
		c0,0.3-0.2,0.6-0.5,0.6L64.9,58.3z"/>
	<path class="st10" d="M64.9,65.1c-0.3,0-0.5-0.3-0.5-0.6v-5c0-0.3,0.2-0.6,0.5-0.6l4,0.1c0.3,0,0.5,0.3,0.5,0.6v5
		c0,0.3-0.2,0.6-0.5,0.6L64.9,65.1z"/>
	<path class="st10" d="M64.9,72.4c-0.3,0-0.5-0.3-0.5-0.6v-5c0-0.3,0.2-0.6,0.5-0.6l4,0c0.3,0,0.5,0.3,0.5,0.6v5
		c0,0.3-0.2,0.6-0.5,0.6L64.9,72.4z"/>
	<path class="st10" d="M64.9,79.7c-0.3,0-0.5-0.2-0.5-0.6v-5c0-0.3,0.2-0.6,0.5-0.6l4,0c0.3,0,0.5,0.2,0.5,0.6v5
		c0,0.3-0.2,0.6-0.5,0.6L64.9,79.7z"/>
	<path class="st10" d="M64.9,86.4c-0.3,0-0.5-0.2-0.5-0.6v-5c0-0.3,0.2-0.6,0.5-0.6l4-0.1c0.3,0,0.5,0.2,0.5,0.6v4.9
		c0,0.3-0.2,0.6-0.5,0.6L64.9,86.4z"/>
	<path class="st10" d="M64.9,93.7c-0.3,0-0.5-0.2-0.5-0.5v-4.9c0-0.3,0.2-0.6,0.5-0.6l4-0.1c0.3,0,0.5,0.2,0.5,0.5V93
		c0,0.3-0.2,0.6-0.5,0.6L64.9,93.7z"/>
	<path class="st10" d="M64.9,101c-0.3,0-0.5-0.2-0.5-0.5v-4.9c0-0.3,0.2-0.6,0.5-0.6l4-0.2c0.3,0,0.5,0.2,0.5,0.5v4.9
		c0,0.3-0.2,0.6-0.5,0.6L64.9,101z"/>
	<path class="st10" d="M64.9,107.8c-0.3,0-0.5-0.2-0.5-0.5v-4.9c0-0.3,0.2-0.6,0.5-0.6l4-0.2c0.3,0,0.5,0.2,0.5,0.5v4.8
		c0,0.3-0.2,0.6-0.5,0.6L64.9,107.8z"/>
	<path class="st10" d="M64.9,118.4c-0.3,0-0.5-0.2-0.5-0.5v-8.2c0-0.3,0.2-0.6,0.5-0.6l4-0.2c0.3,0,0.5,0.2,0.5,0.5v8.1
		c0,0.3-0.2,0.6-0.5,0.6L64.9,118.4z"/>
	<path class="st10" d="M71,22.8c-0.3,0-0.5-0.3-0.5-0.6v-4.9c0-0.3,0.2-0.5,0.5-0.5l2.8,0.2c0.3,0,0.5,0.3,0.5,0.6v4.9
		c0,0.3-0.2,0.5-0.5,0.5L71,22.8z"/>
	<path class="st10" d="M71,29.6c-0.3,0-0.5-0.3-0.5-0.6v-4.9c0-0.3,0.2-0.5,0.5-0.5l2.8,0.2c0.3,0,0.5,0.3,0.5,0.6v4.9
		c0,0.3-0.2,0.5-0.5,0.5L71,29.6z"/>
	<path class="st10" d="M71,37.5c-0.3,0-0.5-0.3-0.5-0.6V32c0-0.3,0.2-0.5,0.5-0.5l2.8,0.1c0.3,0,0.5,0.3,0.5,0.6v4.9
		c0,0.3-0.2,0.5-0.5,0.5L71,37.5z"/>
	<path class="st10" d="M71,44.8c-0.3,0-0.5-0.3-0.5-0.6v-5c0-0.3,0.2-0.6,0.5-0.5l2.8,0.1c0.3,0,0.5,0.3,0.5,0.6v4.9
		c0,0.3-0.2,0.6-0.5,0.5L71,44.8z"/>
	<path class="st10" d="M71,52.1c-0.3,0-0.5-0.3-0.5-0.6v-5c0-0.3,0.2-0.6,0.5-0.5l2.8,0.1c0.3,0,0.5,0.3,0.5,0.6v5
		c0,0.3-0.2,0.6-0.5,0.5L71,52.1z"/>
	<path class="st10" d="M71,59.5c-0.3,0-0.5-0.3-0.5-0.6v-5c0-0.3,0.2-0.6,0.5-0.6l2.8,0.1c0.3,0,0.5,0.3,0.5,0.6v5
		c0,0.3-0.2,0.6-0.5,0.6L71,59.5z"/>
	<path class="st10" d="M71,66.8c-0.3,0-0.5-0.3-0.5-0.6v-5c0-0.3,0.2-0.6,0.5-0.6l2.8,0c0.3,0,0.5,0.3,0.5,0.6v5
		c0,0.3-0.2,0.6-0.5,0.6L71,66.8z"/>
	<path class="st10" d="M71,74.1c-0.3,0-0.5-0.3-0.5-0.6v-5c0-0.3,0.2-0.6,0.5-0.6l2.8,0c0.3,0,0.5,0.3,0.5,0.6v5
		c0,0.3-0.2,0.6-0.5,0.6L71,74.1z"/>
	<path class="st10" d="M71,81.4c-0.3,0-0.5-0.2-0.5-0.6v-5c0-0.3,0.2-0.6,0.5-0.6l2.8,0c0.3,0,0.5,0.2,0.5,0.6v5
		c0,0.3-0.2,0.6-0.5,0.6L71,81.4z"/>
	<path class="st10" d="M71,88.7c-0.3,0-0.5-0.2-0.5-0.6v-5c0-0.3,0.2-0.6,0.5-0.6l2.8-0.1c0.3,0,0.5,0.2,0.5,0.6v5
		c0,0.3-0.2,0.6-0.5,0.6L71,88.7z"/>
	<path class="st10" d="M71,96c-0.3,0-0.5-0.2-0.5-0.5v-5c0-0.3,0.2-0.6,0.5-0.6l2.8-0.1c0.3,0,0.5,0.2,0.5,0.5v4.9
		c0,0.3-0.2,0.6-0.5,0.6L71,96z"/>
	<path class="st10" d="M71,103.3c-0.3,0-0.5-0.2-0.5-0.5v-4.9c0-0.3,0.2-0.6,0.5-0.6l2.8-0.1c0.3,0,0.5,0.2,0.5,0.5v4.9
		c0,0.3-0.2,0.6-0.5,0.6L71,103.3z"/>
	<path class="st10" d="M71,111.1c-0.3,0-0.5-0.2-0.5-0.5v-4.9c0-0.3,0.2-0.6,0.5-0.6l2.8-0.1c0.3,0,0.5,0.2,0.5,0.5v4.9
		c0,0.3-0.2,0.6-0.5,0.6L71,111.1z"/>
	<path class="st10" d="M71,118.4c-0.3,0-0.5-0.2-0.5-0.5V113c0-0.3,0.2-0.6,0.5-0.6l2.8-0.2c0.3,0,0.5,0.2,0.5,0.5v4.9
		c0,0.3-0.2,0.6-0.5,0.6L71,118.4z"/>
	<defs>
		<filter id="Adobe_OpacityMaskFilter_5_" filterUnits="userSpaceOnUse" x="94.4" y="33.8" width="54.1" height="65.9">
			<feColorMatrix  type="matrix" values="1 0 0 0 0  0 1 0 0 0  0 0 1 0 0  0 0 0 1 0"/>
		</filter>
	</defs>
	<mask maskUnits="userSpaceOnUse" x="94.4" y="33.8" width="54.1" height="65.9" id="mask5_1_">
		<path class="st34" d="M94.4,98.3V35.1c0-0.7,0.6-1.3,1.3-1.3h51.5c0.7,0,1.3,0.6,1.3,1.3v63.2c0,0.7-0.6,1.3-1.3,1.3H95.7
			C95,99.6,94.4,99,94.4,98.3z"/>
	</mask>
	<g class="st35">
		<path class="st13" d="M94.4,33.8v65.9h54.1V33.8H94.4z"/>
	</g>
	<path class="st14" d="M96.8,99.3c-0.7,0-1.3-0.6-1.3-1.3V35c0-0.7,0.6-1.3,1.3-1.3h51.7c0.7,0,1.3,0.6,1.3,1.3V98
		c0,0.7-0.6,1.3-1.3,1.3H96.8z"/>
	<path class="st15" d="M148.6,99.3c0.7,0,1.3-0.6,1.3-1.3V35c0-0.7-0.6-1.3-1.3-1.3h-4.8v65.7H148.6z"/>
	<path class="st15" d="M136.6,42.7v41h1.7v-41H136.6z"/>
	<path class="st16" d="M133.2,42.7V78h1.7V42.7H133.2z"/>
	<path class="st17" d="M127.1,42.7v16.3h1.7V42.7H127.1z"/>
	<path class="st18" d="M123.8,44.9v11.2h1.7V44.9H123.8z"/>
	<path class="st19" d="M120.5,46.6v23h1.7v-23H120.5z"/>
	<path class="st17" d="M114.4,48.3v23h1.7v-23H114.4z"/>
	<path class="st19" d="M111,46.6v16.3h1.7V46.6H111z"/>
	<path class="st17" d="M107.7,46.6v16.3h1.7V46.6H107.7z"/>
	<path class="st17" d="M104.4,48.8v10.7h1.7V48.8H104.4z"/>
	<path class="st18" d="M101,42.7v9h1.7v-9H101z"/>
	<path class="st17" d="M101,71.8v6.7h1.7v-6.7H101z"/>
	<path class="st19" d="M101,52.8v17.4h1.7V52.8H101z"/>
	<path class="st19" d="M104.4,60.6v28.1h1.7V60.6H104.4z"/>
	<path class="st15" d="M107.7,64v10.7h1.7V64H107.7z"/>
	<path class="st17" d="M111,64.5v16.3h1.7V64.5H111z"/>
	<path class="st17" d="M120.5,71.8v10.1h1.7V71.8H120.5z"/>
	<path class="st17" d="M123.8,57.2v10.1h1.7V57.2H123.8z"/>
	<path class="st17" d="M123.8,69.6v9.5h1.7v-9.5H123.8z"/>
	<path class="st17" d="M127.1,60v16.3h1.7V60H127.1z"/>
	<path class="st17" d="M117.1,48.3v16.3h1.7V48.3H117.1z"/>
	<path class="st19" d="M117.1,66.2v16.3h1.7V66.2H117.1z"/>
	<path class="st18" d="M130.5,42.7v31.4h1.7V42.7H130.5z"/>
	<path class="st20" d="M146.8,40.4c-1.1,0-1.9-0.9-1.9-2c0-1.1,0.9-2,1.9-2c1.1,0,1.9,0.9,1.9,2C148.8,39.5,147.9,40.4,146.8,40.4z"
		/>
	<path class="st20" d="M146.8,46c-1.1,0-1.9-0.9-1.9-2c0-1.1,0.9-2,1.9-2c1.1,0,1.9,0.9,1.9,2C148.8,45.1,147.9,46,146.8,46z"/>
	<path class="st20" d="M146.7,51.7c-1.1,0-1.9-0.9-1.9-1.9c0-1.1,0.9-1.9,1.9-1.9s1.9,0.9,1.9,1.9C148.6,50.9,147.8,51.7,146.7,51.7
		z"/>
	<path class="st21" d="M17.8,40.9V25.3l2.8,0.1V41L17.8,40.9z"/>
	<path class="st22" d="M20.6,40.6V25.1l2.8,0.1l6.2-1.6l8.2,0.6v3.1c0,0.3,0.2,0.6,0.6,0.6l0.1,0c0,0,0,0,0,0l4.5,0.3
		c0.3,0,0.5-0.2,0.5-0.6v-3l1.8,0.1v4.6c0,0.1,0,0.1,0,0.2l-2-0.1l0,0.6l6.9,0.5l1.6,0.5v2.8c0,0.3,0.2,0.6,0.5,0.6l4.3,0.2
		c0,0,0,0,0,0l0.1,0c0.3,0,0.5-0.2,0.5-0.6v-1.2l3,1c0.1,0,0.2,0,0.3,0.1l-1.9-0.1c-0.3,0-0.5,0.2-0.5,0.6v3.2l-0.8-0.3V36
		c0-0.3-0.2-0.6-0.5-0.6l-0.1,0c0,0,0,0,0,0l-4.3-0.2c-0.3,0-0.5,0.2-0.5,0.5l-0.8-0.3v-3.3c0-0.3-0.2-0.6-0.5-0.6L46,31.2
		c0,0,0,0,0,0l-0.2,0c-0.3,0-0.5,0.2-0.5,0.6v3l-1.8-0.1v-3.4c0-0.3-0.2-0.6-0.5-0.6l-0.1,0c0,0,0,0,0,0l-4.5-0.2
		c-0.3,0-0.6,0.2-0.6,0.6v5.3c0,0.3,0.2,0.6,0.6,0.6l0.1,0c0,0,0,0,0,0l4.5,0.2c0.3,0,0.5-0.2,0.5-0.6v-1.3l1.8,0.1V37
		c0,0.3,0.2,0.6,0.5,0.6l4.6,0.2c0.3,0,0.5-0.2,0.5-0.6v-1.5l0.1,0l0.7,0.2v4.7l-0.7-0.2l-0.1,0v-1.1c0-0.3-0.2-0.6-0.5-0.6l-0.2,0
		c0,0,0,0,0,0l-4.4-0.2c-0.3,0-0.5,0.2-0.5,0.6v1L43.5,40v-1c0-0.3-0.2-0.6-0.5-0.6l-0.6,0l-4.1-0.2c-0.3,0-0.6,0.2-0.6,0.6v8.2
		c0,0.3,0.2,0.6,0.6,0.6l0.1,0c0,0,0,0,0,0l4.5,0.1c0,0,0.1,0,0.1,0l1.2,0.4c0.2,0,0.4,0.1,0.5,0.2c0.2,0.1,0.4,0.3,0.5,0.4v3
		c0,0.3,0.2,0.6,0.5,0.6l1.7,0c-0.1,0.4-0.4,0.7-0.8,0.9l-0.9,0c-0.1,0-0.2,0-0.3,0.1l0,0l-2-0.6v-3.2c0-0.3-0.2-0.6-0.5-0.6
		l-4.6-0.1c-0.3,0-0.6,0.3-0.6,0.6v1.5l-0.8-0.3c-0.8-0.1-1.5-0.4-2.2-1l-9.6-8.1l-1.2-1L20.6,40.6z"/>
	<path class="st23" d="M58.3,37.6v-3.3c0-0.3,0.2-0.6,0.5-0.6l1.7,0.1c0,0,0,0,0,0l-1.6-0.1c-0.3,0-0.5,0.2-0.5,0.6v3.4L58.3,37.6z"
		/>
	<path class="st23" d="M51.6,33.5v-2.6l0.1,0v2.6c0,0.3,0.2,0.6,0.6,0.6l4.3,0.2c0,0,0,0,0,0L52.2,34C51.9,34,51.6,33.8,51.6,33.5z"
		/>
	<path class="st23" d="M51.6,40.9v-4.8l0.1,0V41L51.6,40.9z M51.6,35.8c0-0.3,0.3-0.5,0.5-0.5l4.4,0.2c0,0,0,0,0,0l-4.3-0.2
		c-0.3,0-0.5,0.2-0.5,0.5L51.6,35.8z"/>
	<path class="st22" d="M43.3,45.7V41l1.8,0.1v3.4c0,0.3,0.2,0.6,0.6,0.6l0.2,0c0,0,0,0,0,0l4.3,0.1c0,0,0,0,0,0l0.2,0
		c0.3,0,0.5-0.2,0.5-0.6v-3.1l4.1,1.2l-2.5-0.1c0,0,0,0,0,0l-0.1,0c-0.3,0-0.5,0.2-0.5,0.6v3.3l-1.2-0.3c-0.1,0-0.1,0-0.2,0
		l-0.6-0.2L43.3,45.7z"/>
	<path class="st23" d="M51.6,46.5v-3.3c0-0.3,0.2-0.6,0.5-0.6l0.1,0c-0.3,0-0.5,0.2-0.5,0.6v3.4L51.6,46.5z"/>
	<path class="st23" d="M45,37.4v-1.7l0.2,0v1.7c0,0.3,0.2,0.6,0.5,0.6l1.5,0.1l-1.7-0.1C45.2,38.1,45,37.8,45,37.4z M45,35.2V32
		c0-0.3,0.2-0.6,0.5-0.6l0.2,0c-0.3,0-0.5,0.2-0.5,0.6v3.2L45,35.2z"/>
	<path class="st23" d="M45,44.7v-3.6l0.2,0v3.6c0,0.3,0.2,0.6,0.5,0.6l-0.2,0C45.2,45.3,45,45,45,44.7z M45,40.3v-1
		c0-0.3,0.2-0.6,0.6-0.6l4.4,0.2c0,0,0,0,0,0l-4.3-0.2c-0.3,0-0.5,0.2-0.5,0.6v1L45,40.3z M48.3,45.4l1.7,0.1c0,0,0,0,0,0L48.3,45.4
		z"/>
	<path class="st23" d="M45,52.1v-3.2c0.1,0,0.1,0.1,0.2,0.1v3.1c0,0.4,0.2,0.6,0.5,0.6l1.5,0l-1.7,0C45.2,52.7,45,52.4,45,52.1z"/>
	<path class="st23" d="M45.6,53.4c0.1-0.1,0.2-0.1,0.3-0.1l0.8,0l-0.6,0c-0.1,0-0.2,0-0.3,0.1L45.6,53.4z"/>
	<path class="st23" d="M45.4,29.5v-4.9l0.1,0v4.9c0,0.1,0,0.1,0,0.2l-0.1,0C45.4,29.7,45.4,29.6,45.4,29.5z"/>
	<path class="st23" d="M37.7,27.4v-3.3l0.1,0v3.3c0,0.3,0.2,0.6,0.5,0.7l-0.1,0C37.9,28,37.7,27.7,37.7,27.4z"/>
	<path class="st23" d="M37.8,36.4v-5.5c0-0.3,0.2-0.6,0.5-0.6l4.4,0.2c0,0,0,0,0,0l-4.3-0.2c-0.3,0-0.5,0.2-0.5,0.6v5.5
		c0,0.3,0.2,0.6,0.5,0.6l-0.1,0C38,37,37.8,36.7,37.8,36.4z"/>
	<path class="st23" d="M37.8,47.1v-8.3c0-0.3,0.2-0.6,0.5-0.6l3.9,0.2l-3.8-0.2c-0.3,0-0.5,0.2-0.5,0.6v6.4l0,0l0,0v1.9
		c0,0.3,0.2,0.6,0.5,0.6l-0.1,0C38,47.7,37.8,47.4,37.8,47.1z"/>
	<path class="st23" d="M37.8,51v-1.6c0-0.3,0.2-0.6,0.5-0.6l1.7,0.1l-1.6-0.1c-0.3,0-0.5,0.3-0.5,0.6v1.6L37.8,51z"/>
	<path class="st24" d="M37.8,27.2v-3.1l2.2,0.2c0.2,0,0.3,0,0.5,0.1l2.9,0.2v3c0,0.3-0.2,0.6-0.5,0.6l-4.5-0.3c0,0,0,0,0,0
		C38,27.8,37.8,27.5,37.8,27.2z"/>
	<path class="st24" d="M37.8,36.2v-5.3c0-0.3,0.2-0.6,0.6-0.6l4.3,0.2l0.1,0c0.3,0,0.5,0.3,0.5,0.6v3.4l-0.6,0l0,0.5l0.6,0v1.3
		c0,0.3-0.2,0.6-0.5,0.6l-4.5-0.2c0,0,0,0,0,0C38,36.8,37.8,36.5,37.8,36.2z"/>
	<path class="st24" d="M37.8,47v-1.8l1.5,1.4l3.6,1.2c0,0-0.1,0-0.1,0l-4.5-0.1c0,0,0,0,0,0C38,47.6,37.8,47.3,37.8,47z M37.8,45.1
		v-6.4c0-0.3,0.2-0.6,0.6-0.6l3.9,0.2l0.6,0c0.3,0,0.5,0.3,0.5,0.6v1l-1-0.1l-0.1,0.7l1,0.1v4.8l-4.9-0.3
		C38.2,45.2,38,45.2,37.8,45.1L37.8,45.1z"/>
	<path class="st24" d="M37.8,51v-1.6c0-0.3,0.2-0.6,0.6-0.6l4.5,0.1c0.3,0,0.5,0.3,0.5,0.6v3.2L37.8,51z"/>
	<path class="st24" d="M57.7,37.5v-3.3c0-0.3,0.2-0.6,0.6-0.6l1.9,0.1c1.1,0.4,2,1.4,2,2.5c-0.1,1.3-1.2,2.1-2.5,1.8L57.7,37.5z"/>
	<path class="st22" d="M54.4,41.6l2.2,0.1c0.3,0,0.5-0.3,0.5-0.6v-3.5l0.8,0.3v1.5c0,0.3,0.2,0.6,0.5,0.6l0.1,0c0,0,0,0,0,0l4.3,0.2
		c0.3,0,0.5-0.2,0.5-0.5c0.3,0.2,0.6,0.4,0.9,0.6v2.9c0,0.3,0.2,0.6,0.5,0.6c-0.4,0.3-0.8,0.4-1.4,0.5v-2.6c0-0.3-0.2-0.6-0.5-0.6
		L58.6,41c-0.3,0-0.5,0.2-0.5,0.6v1.2L54.4,41.6z"/>
	<path class="st23" d="M64.5,43.2v-2.8c0,0,0.1,0.1,0.1,0.1v2.7c0,0.3,0.1,0.5,0.3,0.6c0,0,0,0,0,0C64.7,43.7,64.5,43.5,64.5,43.2z"
		/>
	<path class="st23" d="M58.3,39.7v-1.6l0.1,0v1.5c0,0.3,0.2,0.6,0.5,0.7l-0.1,0C58.5,40.4,58.3,40.1,58.3,39.7z"/>
	<path class="st23" d="M57.7,42.6v-1.1c0-0.3,0.3-0.5,0.6-0.5l3.9,0.1L58.4,41c-0.3,0-0.6,0.2-0.6,0.5v1.1L57.7,42.6z"/>
	<path class="st24" d="M57.7,39.6v-1.4l5.3,1.7c0.1,0,0.2,0.1,0.2,0.1c0,0.3-0.3,0.5-0.5,0.5l-4.5-0.2c0,0,0,0,0,0
		C58,40.2,57.7,39.9,57.7,39.6z"/>
	<path class="st24" d="M57.7,42.8v-1.2c0-0.3,0.2-0.6,0.6-0.6l4.5,0.2c0.3,0,0.5,0.3,0.5,0.6v2.6c-0.1,0-0.2,0-0.2,0
		c-0.2,0-0.4,0-0.5-0.1L57.7,42.8z"/>
	<path class="st22" d="M57.2,47.8v-4.6l0.8,0.3v3.1c0,0.3,0.2,0.6,0.5,0.6l4.1,0.1c0,0,0,0,0,0l0.1,0c-0.1,0.4-0.3,0.7-0.5,1
		l-3.7-0.1c0,0-0.1,0-0.1,0L57.2,47.8z"/>
	<path class="st23" d="M57.7,47v-3.2l0.1,0V47c0,0.3,0.2,0.6,0.5,0.6l4.3,0.1c0,0,0,0,0,0l-4.4-0.1C58,47.6,57.7,47.3,57.7,47z"/>
	<path class="st23" d="M58.3,48.3C58.3,48.3,58.4,48.3,58.3,48.3l3.9,0.1l-3.7-0.1C58.5,48.3,58.4,48.3,58.3,48.3L58.3,48.3z"/>
	<path class="st24" d="M57.7,46.9v-3.2l2.8,0.8c1.2,0.4,2.2,1.2,2.2,2.5c0,0,0,0.1,0,0.1c0,0.2,0,0.3-0.1,0.5l-0.1,0l-4.3-0.1
		C58,47.6,57.7,47.3,57.7,46.9z"/>
	<path class="st24" d="M58.3,48.3c0,0,0.1,0,0.1,0l3.7,0.1c-0.3,0.3-0.8,0.4-1.4,0.5c-0.1,0-0.3,0-0.4-0.1L58.3,48.3z"/>
	<path class="st24" d="M51.6,33.4v-2.6l5.6,1.7v1.1c0,0.3-0.2,0.5-0.5,0.5l-0.1,0L52.2,34C51.9,34,51.6,33.8,51.6,33.4z"/>
	<path class="st24" d="M51.6,41.1v-4.9l5.6,1.8v3.5c0,0.3-0.2,0.6-0.5,0.6L54.4,42L51.6,41.1z M51.6,35.9c0-0.3,0.3-0.5,0.6-0.5
		l4.3,0.2l0.1,0c0.3,0,0.5,0.3,0.5,0.6v1.4L51.6,35.9z"/>
	<path class="st24" d="M51.6,46.8v-3.5c0-0.3,0.2-0.6,0.5-0.6c0,0,0,0,0,0l2.6,0.1l2.4,0.7v4.8L51.6,46.8z"/>
	<path class="st24" d="M45,37.3v-1.7l5.6,0.4v1.6c0,0.3-0.2,0.6-0.5,0.6L45.5,38C45.2,38,45,37.7,45,37.3z M45,35.1V32
		c0-0.3,0.2-0.6,0.5-0.6c0,0,0,0,0,0l4.5,0.2c0.3,0,0.5,0.3,0.5,0.6v3.4l-0.7-0.2L45,35.1z"/>
	<path class="st24" d="M45,44.7v-3.6l4.8,0.3l0.7,0.2v3.2c0,0.3-0.2,0.6-0.5,0.6l-0.2,0l-4.3-0.1c0,0,0,0,0,0
		C45.2,45.3,45,45,45,44.7z M45,40.3v-1c0-0.3,0.2-0.6,0.6-0.6l4.3,0.2l0.2,0c0.3,0,0.5,0.3,0.5,0.6v1.1L45,40.3z"/>
	<path class="st22" d="M50.5,29.9c0.1-0.1,0.1-0.2,0.1-0.3v-4.3l0.8,0.3v0.4c0,0.3,0.2,0.6,0.5,0.6l2.6,0.2l1.5,0.6
		c0.7,0.3,1.3,0.6,1.7,1v2.8c-0.2,0.2-0.5,0.3-0.8,0.4v-2.6c0-0.3-0.2-0.6-0.5-0.6l-0.1,0c0,0,0,0,0,0l-0.6,0l-3.6-0.2c0,0,0,0,0,0
		l-0.1,0c-0.3,0-0.5,0.2-0.5,0.6v1.7L50.5,29.9z"/>
	<path class="st23" d="M58.2,31.4v-2.8c0,0.1,0.1,0.1,0.1,0.2v2.5C58.3,31.3,58.2,31.4,58.2,31.4z"/>
	<path class="st23" d="M51.6,30.3v-1.7c0-0.3,0.2-0.6,0.5-0.5l0.1,0c-0.3,0-0.5,0.2-0.5,0.5v1.7L51.6,30.3z M56.1,28.3l0.6,0
		c0,0,0,0,0,0L56.1,28.3z"/>
	<path class="st23" d="M51.6,26.1v-0.3l0.1,0v0.3c0,0.3,0.2,0.5,0.5,0.5l1.1,0.1l-1.2-0.1C51.9,26.7,51.6,26.4,51.6,26.1z"/>
	<path class="st24" d="M58,30.9v-2.2c0.2,0.3,0.3,0.7,0.3,1.1c0,0.1,0,0.1,0,0.2l0,0.3C58.2,30.5,58.1,30.7,58,30.9z"/>
	<path class="st24" d="M51.6,30.2v-1.7c0-0.3,0.2-0.5,0.5-0.5c0,0,0,0,0,0l3.7,0.2l0.6,0l0.1,0c0.3,0,0.5,0.3,0.5,0.6v2.5
		c-0.2,0-0.3,0-0.5,0c-0.2,0-0.5,0-0.7-0.1L51.6,30.2z"/>
	<path class="st24" d="M52.2,26.1v-0.3l2.8,0.9l-2.3-0.1C52.4,26.6,52.2,26.4,52.2,26.1z"/>
	<path class="st24" d="M45.5,51.6v-2.8c1.6,1.2,2.1,2.2,2.1,3c0,0.1,0,0.2,0,0.3c0,0.1,0,0.2-0.1,0.2l-1.5,0
		C45.8,52.1,45.5,51.9,45.5,51.6z M50.4,46c0.1,0,0.1,0,0.2,0L50.4,46z"/>
	<path class="st24" d="M45.7,53.4c0.1-0.1,0.2-0.1,0.3-0.1l0.6,0C46.4,53.4,46.1,53.5,45.7,53.4L45.7,53.4z"/>
	<path class="st24" d="M45,29.1v-4.4l4.8,0.3l0.7,0.3v4.2c0,0.1,0,0.2-0.1,0.3l-0.6-0.2L45,29.3C45,29.2,45,29.2,45,29.1z"/>
	<path class="st24" d="M64.7,43.2v-2.8c0.5,0.5,0.8,1.2,0.8,2c0,0,0,0.1,0,0.1c0,0.6-0.2,0.9-0.5,1.2C64.9,43.7,64.7,43.5,64.7,43.2
		z"/>
	<path class="st24" d="M62.2,36.5L62.2,36.5l0,0.1L62.2,36.5z"/>
	<path class="st25" d="M33.8,43.3l10.1,3.5c0.2,0,0.4,0.1,0.5,0.2c2.4,1.7,3,3,2.8,3.9c-0.1,0.9-1,1.4-1.9,1.3l-0.2,0l-8.8-2.8
		c-1.4-0.4-2.3-1.2-1.9-2.5C34.7,45.5,32.4,42.9,33.8,43.3z"/>
	<path class="st25" d="M43.3,26.4l-1.1,14.7c-0.1,1.6-1.9,2.8-3.9,2.7L29,43.3l-5.1-4l-12.2-0.1l0-15.4L23.3,24l6.1-1.5L40,23.2
		C42,23.3,43.4,24.7,43.3,26.4z"/>
	<path class="st25" d="M38.5,39.3c-1.3-0.1-2.4,0.9-2.4,2.2C36,42.8,37,44,38.3,44.1l11.3,0.7l10.8,2.9c0.1,0,0.3,0.1,0.4,0.1
		c1.1,0,1.9-0.7,1.9-1.9c0.1-1.3-1-2.1-2.1-2.5L49.9,40L38.5,39.3z"/>
	<path class="st25" d="M38,33.7c-1.3-0.1-2.4,0.9-2.4,2.3c-0.1,1.3,0.9,2.5,2.2,2.6l13.5,0.9l11.7,3.7c0.2,0.1,0.3,0.1,0.5,0.1
		c1.1-0.1,2.1-0.5,2.1-1.7c0.1-1.3-1-2.4-2.1-2.9l-12.1-4.1L38,33.7z"/>
	<path class="st25" d="M34.1,28.1c-1.3-0.1-2.4,0.9-2.5,2.2c-0.1,1.3,0.9,2.5,2.2,2.6l16.1,1l9.8,3c1.3,0.4,2.3-0.5,2.4-1.9l0,0.2
		c0.1-1.3-0.9-2.4-2.1-2.8L50,29.1L34.1,28.1z"/>
	<path class="st25" d="M34.1,23c-1.3-0.1-2.4,0.9-2.5,2.2c-0.1,1.3,0.9,2.4,2.2,2.5l16.1,1l5.9,1.5c0.2,0.1,0.4,0.1,0.7,0.1
		c0.9,0,1.5-0.1,1.8-1.3l0-0.3c0.1-1.3-0.7-1.9-2.1-2.5L49.9,24L34.1,23z"/>
	<path class="st25" d="M40.5,46.1c1.5,1.3-0.2,1.3-1.2,2.5c-1,1.2-3.1,1.1-4.6-0.2l-10.8-9.2l4.4-3.8L40.5,46.1z"/>
	<defs>
		<filter id="Adobe_OpacityMaskFilter_6_" filterUnits="userSpaceOnUse" x="66.8" y="98.3" width="0" height="0.2">
			<feColorMatrix  type="matrix" values="1 0 0 0 0  0 1 0 0 0  0 0 1 0 0  0 0 0 1 0"/>
		</filter>
	</defs>
	<mask maskUnits="userSpaceOnUse" x="66.8" y="98.3" width="0" height="0.2" id="mask6_1_">
		<path class="st36" d="M66.9,88.1v24.7H-40.4V88.1H66.9z"/>
	</mask>
	<g class="st37">
		<path class="st24" d="M66.8,98.4l0-0.1L66.8,98.4L66.8,98.4z"/>
	</g>
	<path class="st21" d="M17.8,111.7V89.8h1.6v3.9l1.2,0v15.6l-1.2,0v2.4H17.8z"/>
	<path class="st23" d="M64.4,86.4l0.1,0c0.1,0.1,0.2,0.1,0.3,0.1l1.8,0l-1.9,0C64.6,86.5,64.5,86.5,64.4,86.4z"/>
	<path class="st23" d="M64.4,93.2v-1.5l0.1,0v1.5c0,0.3,0.2,0.6,0.5,0.5l-0.1,0C64.6,93.7,64.4,93.5,64.4,93.2z M64.4,90.9v-2.7
		c0-0.3,0.2-0.6,0.5-0.6l2.6-0.1L65,87.6c-0.3,0-0.5,0.3-0.5,0.6v2.6L64.4,90.9z M66.2,93.7l2.7-0.1c0,0,0,0,0,0L66.2,93.7z"/>
	<path class="st23" d="M64.4,100.6v-3.8l0.1,0v3.8c0,0.2,0.1,0.3,0.2,0.4l-0.1,0C64.5,100.9,64.4,100.8,64.4,100.6z M64.4,96.3v-0.9
		c0-0.3,0.2-0.6,0.5-0.6l0.1,0c-0.2,0-0.4,0.3-0.4,0.6v0.9L64.4,96.3z"/>
	<path class="st23" d="M57.7,97.1v-3.4l0.1,0v3.5c0,0.3,0.2,0.6,0.5,0.5l1,0l-1.2,0C58,97.7,57.7,97.4,57.7,97.1z M57.7,92.8v-0.7
		c0-0.3,0.2-0.6,0.5-0.6l0.1,0c-0.3,0-0.5,0.3-0.5,0.6v0.7L57.7,92.8z M60.9,97.5L60.9,97.5l1.8-0.1c0,0,0,0,0,0L60.9,97.5z"/>
	<path class="st23" d="M57.7,104.9v-0.6l0.1,0v0.7c0,0.3,0.2,0.6,0.5,0.6l-0.1,0C58,105.5,57.7,105.3,57.7,104.9z M57.7,103.5v-3.9
		c0-0.3,0.2-0.6,0.5-0.6l4.4-0.2c0,0,0,0,0,0L58.4,99c-0.3,0-0.5,0.3-0.5,0.6v3.8L57.7,103.5z M59.4,105.4l3.3-0.2c0,0,0,0,0,0
		L59.4,105.4z"/>
	<path class="st23" d="M58.3,108.3v-1.5c0-0.3,0.2-0.6,0.5-0.6l2.8-0.2l-2.7,0.1c-0.3,0-0.5,0.3-0.5,0.6v1.5L58.3,108.3z"/>
	<path class="st23" d="M52,84.7v-3.3l0.1,0v3.3c0,0.3,0.2,0.6,0.5,0.6l0.2,0l-0.3,0C52.2,85.3,52,85,52,84.7z"/>
	<path class="st23" d="M51.6,92.1v-2.8l0.1,0v2.8c0,0.3,0.2,0.5,0.6,0.5l4.3-0.1c0,0,0,0,0,0l-4.4,0.1
		C51.9,92.6,51.6,92.4,51.6,92.1z"/>
	<path class="st23" d="M51.6,99.1v-4.5l0.1,0v4.5L51.6,99.1z M51.7,99.6l0.1,0c0.1,0.2,0.3,0.3,0.5,0.3l-0.1,0
		C51.9,99.9,51.8,99.8,51.7,99.6z M51.9,93.9c0.1-0.1,0.2-0.1,0.3-0.1l1.7-0.1l-1.6,0.1c-0.1,0-0.2,0-0.3,0.1L51.9,93.9z"/>
	<path class="st23" d="M51.6,106.6v-1.8l0.1,0v1.8c0,0.3,0.2,0.6,0.5,0.6l-0.1,0C51.9,107.2,51.6,106.9,51.6,106.6z M51.6,104.2
		v-2.9c0-0.3,0.2-0.6,0.5-0.6l0.1,0c-0.3,0-0.5,0.3-0.5,0.6v2.9L51.6,104.2z M54.8,100.5l1.8-0.1c0,0,0,0,0,0L54.8,100.5z M55.7,107
		l0.9-0.1c0,0,0,0,0,0L55.7,107z"/>
	<path class="st23" d="M51.6,109.4v-0.8c0-0.3,0.2-0.6,0.5-0.6l4.4-0.2c0,0,0,0,0,0l-4.3,0.2c-0.3,0-0.6,0.3-0.6,0.6v0.8L51.6,109.4
		z"/>
	<path class="st23" d="M45.4,88.5v-4.8l0.1,0v4.9c0,0,0,0,0,0.1l-0.1,0.1C45.4,88.6,45.4,88.6,45.4,88.5z"/>
	<path class="st23" d="M45,95.9v-5.4c0-0.3,0.2-0.6,0.6-0.6l0.2,0c-0.3,0-0.5,0.3-0.5,0.6v5.4c0,0.3,0.2,0.6,0.5,0.6l-0.2,0
		C45.2,96.5,45,96.3,45,95.9z M49.4,89.8l0.5,0h0L49.4,89.8z"/>
	<path class="st23" d="M45,103.2v-5.3c0-0.3,0.2-0.6,0.6-0.6l4.4-0.2c0,0,0,0,0,0l-4.3,0.2c-0.3,0-0.5,0.3-0.5,0.6v5.3
		c0,0.3,0.2,0.6,0.5,0.6l4.3-0.2c0,0,0,0,0,0l-4.4,0.2C45.2,103.8,45,103.6,45,103.2z"/>
	<path class="st23" d="M45,110v-4.3c0-0.3,0.3-0.6,0.6-0.6l2.7-0.1l-2.6,0.1c-0.3,0-0.6,0.3-0.6,0.6v4.3L45,110z"/>
	<path class="st23" d="M41.1,110v-2.2c0-0.3,0.1-0.5,0.3-0.5l0.1,0c-0.2,0-0.3,0.2-0.3,0.5v2.2L41.1,110z M42.9,107.2l1,0
		c0,0,0,0,0,0L42.9,107.2z"/>
	<path class="st23" d="M37.7,90.3v-2.1l0.1-0.1v2.2c0,0.3,0.2,0.6,0.5,0.6l-0.1,0C37.9,90.9,37.7,90.7,37.7,90.3z"/>
	<path class="st23" d="M37.8,97.7v-5c0-0.3,0.2-0.6,0.6-0.6l0.1,0c-0.3,0-0.5,0.3-0.5,0.6v5c0,0.3,0.2,0.6,0.5,0.6l4.3-0.2
		c0,0,0,0,0,0l-4.4,0.2C38,98.2,37.8,98,37.8,97.7z"/>
	<path class="st23" d="M37.2,105.6v-4.1c0-0.3,0.1-0.5,0.3-0.5l0.2,0c-0.2,0-0.3,0.2-0.3,0.5v4.1c0,0.3,0.1,0.5,0.3,0.5l-0.1,0
		C37.3,106.1,37.2,105.9,37.2,105.6z M38.1,106l1.9-0.1c0,0,0,0,0,0L38.1,106z"/>
	<path class="st23" d="M37.2,110.6v-2.2c0-0.3,0.1-0.5,0.3-0.5l0.1,0c-0.2,0-0.3,0.2-0.3,0.5v2.2L37.2,110.6z M39.3,107.8l0.7,0
		c0,0,0,0,0,0L39.3,107.8z"/>
	<path class="st24" d="M37.8,98.2v-5.4c0-0.3,0.2-0.6,0.5-0.6c0,0,0,0,0,0l4.5-0.1c0.3,0,0.5,0.3,0.5,0.6v5.3c0,0.3-0.2,0.6-0.5,0.6
		l-0.1,0l-4.3,0.2C38,98.8,37.8,98.5,37.8,98.2z"/>
	<path class="st24" d="M37.8,105.6v-4c0-0.3,0.1-0.5,0.3-0.5l2.2-0.1c0.2,0,0.3,0.2,0.3,0.5v4c0,0.3-0.1,0.5-0.3,0.5l-0.1,0
		l-2.1,0.1c0,0,0,0,0,0C37.9,106.1,37.8,105.9,37.8,105.6z"/>
	<path class="st24" d="M37.8,110.6v-2.2c0-0.3,0.1-0.5,0.3-0.5c0,0,0,0,0,0l2.1-0.1l0.1,0c0.2,0,0.3,0.2,0.3,0.4v2.2L37.8,110.6z"/>
	<path class="st24" d="M41.1,110v-2.2c0-0.3,0.1-0.5,0.3-0.5c0,0,0,0,0,0l1.2-0.1l0.9-0.1l0.1,0c0.2,0,0.3,0.2,0.3,0.4v2.2L41.1,110
		z"/>
	<path class="st24" d="M57.7,108.3v-1.5c0-0.3,0.2-0.6,0.5-0.6l2.9-0.1l1.5-0.1c0,0,0,0,0.1,0c-0.3,0.5-1,0.9-1.9,1.2L57.7,108.3z"
		/>
	<path class="st24" d="M51.6,109.4v-0.8c0-0.3,0.2-0.6,0.6-0.6l4.3-0.2l0.1,0c0.3,0,0.5,0.2,0.5,0.6v0.2l-2,0.7L51.6,109.4z"/>
	<path class="st24" d="M45,88.6v-5.3l2.6-0.8l2.4,0c0.3,0,0.5,0.3,0.5,0.6v3.4c-0.1,0-0.1,0-0.2,0.1l-4.7,1.5L45,88.6
		C45,88.6,45,88.6,45,88.6z"/>
	<path class="st24" d="M45,103.2v-5.3c0-0.3,0.2-0.6,0.6-0.6l4.3-0.2l0.2,0c0.3,0,0.5,0.2,0.5,0.6V99l-2.1,0.1l0,0.5l2.1-0.1v3.5
		c0,0.3-0.2,0.6-0.5,0.6l-4.5,0.2C45.2,103.8,45,103.6,45,103.2z"/>
	<path class="st25" d="M40.4,90.9l10-3.2c0.2,0,0.3-0.1,0.5-0.2c2.4-1.6,3-2.8,2.9-3.7c-0.1-0.9-0.9-1.4-1.8-1.3l-0.2,0l-8.7,2.5
		c-1.4,0.3-2.3,1.1-2,2.4C41.4,88.7,39,91.2,40.4,90.9z"/>
	<path class="st25" d="M48.9,108.4l-0.4-14.7c-0.1-1.6-1.7-2.9-3.6-2.8l-9.1,0.3l-5.1,3.9L18.4,95l-0.7,15.8l11.6-0.2l6,1.6
		l10.2-0.7C47.4,111.4,48.9,110,48.9,108.4z"/>
	<path class="st25" d="M45.5,95.4c-1.2,0.1-2.2-1-2.2-2.3c0-1.3,0.9-2.4,2.2-2.5l10.6-0.4l10.1-2.6c0.1,0,0.3-0.1,0.4-0.1
		c1,0.1,1.7,0.7,1.7,1.9c0,1.3-1,2-2,2.4l-10,3L45.5,95.4z"/>
	<path class="st25" d="M43.9,101c-1.2,0.1-2.2-1-2.2-2.3c0-1.3,1-2.5,2.2-2.5l12.8-0.6l11-3.4c0.1,0,0.3-0.1,0.5-0.1
		c1,0.1,1.9,0.5,1.9,1.7c0,1.3-1,2.4-2.1,2.8l-11.4,3.8L43.9,101z"/>
	<path class="st25" d="M40.6,106.1c-1.2,0.1-2.2-0.9-2.3-2.2c0-1.3,1-2.4,2.2-2.5l15.3-0.8l9.2-2.8c1.2-0.3,2.1,0.6,2.1,1.8l0-0.2
		c0,1.3-0.9,2.3-2.1,2.6l-9.5,3.2L40.6,106.1z"/>
	<path class="st25" d="M40,111.7c-1.2,0.1-2.3-0.9-2.3-2.2c0-1.3,1-2.5,2.2-2.6l15.5-0.9l5.6-1.5c0.2-0.1,0.4-0.1,0.6-0.1
		c0.8,0,1.4,0.1,1.6,1.3l0,0.3c0,1.3-0.7,2-2.1,2.5l-6,2.2L40,111.7z"/>
	<path class="st25" d="M47.1,88.5c1.5-1.2-0.1-1.2-1.1-2.4c-1-1.2-3-1.1-4.5,0.1l-11,8.8l4.2,3.8L47.1,88.5z"/>
	<path class="st28" d="M-9.5,20.2v21.9h23.4V20.2H-9.5z"/>
	<path class="st38" d="M-11.3,19.1v24.3H7.8V19.1H-11.3z"/>
	<path class="st28" d="M-6.1,90.9v21.9h25V90.9H-6.1z"/>
	<path class="st38" d="M-10.9,89.3v24.7h24V89.3H-10.9z"/>
	<path class="st30" d="M11.7,38.2c-0.6,0-1.1,0.5-1.1,1.1c0,0.6,0.5,1.1,1.1,1.1c0.6,0,1.1-0.5,1.1-1.1
		C12.8,38.7,12.3,38.2,11.7,38.2z"/>
	<path class="st30" d="M16.1,92c-0.6,0-1.1,0.5-1.1,1.1c0,0.6,0.5,1.1,1.1,1.1c0.6,0,1.1-0.5,1.1-1.1C17.2,92.6,16.7,92,16.1,92z"/>
	<path class="st31" d="M92.7,14.6v6.7h60.5v-6.7H92.7z"/>
	<path class="st31" d="M143.8,103.8v14h9.4v-14H143.8z"/>
	<path class="st31" d="M132.1,103.8v14h9.4v-14H132.1z"/>
	<path class="st31" d="M120.5,103.8v14h9.4v-14H120.5z"/>
	<path class="st31" d="M108.8,103.8v14h9.4v-14H108.8z"/>
</g>
</svg>
