<?xml version="1.0" encoding="utf-8"?>
<!-- Generator: Adobe Illustrator 23.0.1, SVG Export Plug-In . SVG Version: 6.00 Build 0)  -->
<svg version="1.1" id="圖層_1" xmlns="http://www.w3.org/2000/svg" xmlns:xlink="http://www.w3.org/1999/xlink" x="0px" y="0px"
	 viewBox="0 0 1162 543" style="enable-background:new 0 0 1162 543;" xml:space="preserve">
<style type="text/css">
	.st0{fill:#F37C18;}
	.st1{fill:#4F5FFF;}
	.st2{fill:#08C5A6;}
	.st3{fill:#FEDA17;}
</style>
<path class="st0" d="M69.1,195.2c-0.5,0.5-1.4,0.5-1.9,0l-3.8-3.9c-0.5-0.5-0.5-1.4,0-1.9c0.5-0.5,1.4-0.5,1.9,0l3.8,3.9
	C69.7,193.8,69.7,194.6,69.1,195.2z"/>
<path class="st0" d="M69.1,198.6c0.5,0.5,0.5,1.4,0,1.9l-3.8,3.9c-0.5,0.5-1.4,0.5-1.9,0c-0.5-0.5-0.5-1.4,0-1.9l3.8-3.9
	C67.7,198.1,68.6,198.1,69.1,198.6z"/>
<path class="st0" d="M72.5,198.7c0.5-0.5,1.4-0.5,1.9,0l3.8,3.9c0.5,0.5,0.5,1.4,0,1.9c-0.5,0.5-1.4,0.5-1.9,0l-3.8-3.9
	C72,200,72,199.2,72.5,198.7z"/>
<path class="st0" d="M72.5,195.2c-0.5-0.5-0.5-1.4,0-1.9l3.8-3.9c0.5-0.5,1.4-0.5,1.9,0c0.5,0.5,0.5,1.4,0,1.9l-3.8,3.9
	C73.9,195.7,73.1,195.7,72.5,195.2z"/>
<path class="st1" d="M235.1,130.1c-0.7,0.7-1.8,0.7-2.5,0l-5-5.1c-0.7-0.7-0.7-1.8,0-2.5c0.7-0.7,1.8-0.7,2.5,0l5,5.1
	C235.7,128.3,235.7,129.4,235.1,130.1z"/>
<path class="st1" d="M235,134.6c0.7,0.7,0.7,1.8,0,2.5l-5,5.1c-0.7,0.7-1.8,0.7-2.5,0c-0.7-0.7-0.7-1.8,0-2.5l5-5.1
	C233.2,133.9,234.3,133.9,235,134.6z"/>
<path class="st1" d="M239.4,134.7c0.7-0.7,1.8-0.7,2.5,0l5,5.1c0.7,0.7,0.7,1.8,0,2.5c-0.7,0.7-1.8,0.7-2.5,0l-5-5.1
	C238.8,136.5,238.8,135.4,239.4,134.7z"/>
<path class="st1" d="M239.5,130.2c-0.7-0.7-0.7-1.8,0-2.5l5-5.1c0.7-0.7,1.8-0.7,2.5,0c0.7,0.7,0.7,1.8,0,2.5l-5,5.1
	C241.3,130.9,240.2,130.9,239.5,130.2z"/>
<path class="st1" d="M1149.1,527.1c-0.7,0.7-1.8,0.7-2.5,0l-5-5.1c-0.7-0.7-0.7-1.8,0-2.5c0.7-0.7,1.8-0.7,2.5,0l5,5.1
	C1149.7,525.3,1149.7,526.4,1149.1,527.1z"/>
<path class="st1" d="M1149,531.6c0.7,0.7,0.7,1.8,0,2.5l-5,5.1c-0.7,0.7-1.8,0.7-2.5,0c-0.7-0.7-0.7-1.8,0-2.5l5-5.1
	C1147.2,530.9,1148.3,530.9,1149,531.6z"/>
<path class="st1" d="M1153.4,531.7c0.7-0.7,1.8-0.7,2.5,0l5,5.1c0.7,0.7,0.7,1.8,0,2.5c-0.7,0.7-1.8,0.7-2.5,0l-5-5.1
	C1152.8,533.5,1152.8,532.4,1153.4,531.7z"/>
<path class="st1" d="M1153.5,527.2c-0.7-0.7-0.7-1.8,0-2.5l5-5.1c0.7-0.7,1.8-0.7,2.5,0c0.7,0.7,0.7,1.8,0,2.5l-5,5.1
	C1155.3,527.9,1154.2,527.9,1153.5,527.2z"/>
<path class="st2" d="M310.7,341.9c-0.7,0.8-1.9,0.8-2.6,0l-5.4-5.6c-0.7-0.8-0.7-2,0-2.7c0.7-0.8,1.9-0.8,2.6,0l5.4,5.6
	C311.4,339.9,311.4,341.2,310.7,341.9z"/>
<path class="st2" d="M310.6,346.9c0.7,0.8,0.7,2,0,2.7l-5.4,5.6c-0.7,0.8-1.9,0.8-2.6,0c-0.7-0.8-0.7-2,0-2.7l5.4-5.6
	C308.7,346.1,309.9,346.1,310.6,346.9z"/>
<path class="st2" d="M315.4,347c0.7-0.8,1.9-0.8,2.6,0l5.4,5.6c0.7,0.8,0.7,2,0,2.7c-0.7,0.8-1.9,0.8-2.6,0l-5.4-5.6
	C314.6,348.9,314.6,347.7,315.4,347z"/>
<path class="st2" d="M315.4,342c-0.7-0.8-0.7-2,0-2.7l5.4-5.6c0.7-0.8,1.9-0.8,2.6,0c0.7,0.8,0.7,2,0,2.7l-5.4,5.6
	C317.4,342.8,316.2,342.8,315.4,342z"/>
<path class="st3" d="M339.9,476.6c-1.2,0.5-2.5,0-3.1-1.1l-3.9-8.6c-0.5-1.2,0-2.6,1.1-3.1c1.2-0.5,2.5,0,3.1,1.1l3.9,8.6
	C341.5,474.7,341,476.1,339.9,476.6z"/>
<path class="st3" d="M337.8,482.2c0.5,1.2,0,2.6-1.1,3.1l-8.5,4c-1.2,0.5-2.5,0-3.1-1.1c-0.5-1.2,0-2.6,1.1-3.1l8.5-4
	C335.9,480.5,337.3,481,337.8,482.2z"/>
<path class="st3" d="M343.1,484.9c1.2-0.5,2.5,0,3.1,1.1l3.9,8.6c0.5,1.2,0,2.6-1.1,3.1c-1.2,0.5-2.5,0-3.1-1.1L342,488
	C341.4,486.8,341.9,485.4,343.1,484.9z"/>
<path class="st3" d="M345.4,478.6c-0.5-1.2,0-2.6,1.1-3.1l8.5-4c1.2-0.5,2.5,0,3.1,1.1c0.5,1.2,0,2.6-1.1,3.1l-8.5,4
	C347.3,480.3,345.9,479.8,345.4,478.6z"/>
</svg>
