<svg width="328" height="268" viewBox="0 0 328 268" fill="none" xmlns="http://www.w3.org/2000/svg">
<path d="M263.867 149.94H258.763V202.763H263.867V149.94Z" fill="#546179"/>
<path d="M272.717 149.939H267.611V202.762H272.717V149.939Z" fill="#546179"/>
<path d="M253.261 168.23V211.121H257.325V202.995H273.575V211.121H277.638V168.23H253.261Z" fill="#F37C18"/>
<path d="M253.261 215.184V253.548H257.325H273.575H277.638V215.184H253.261Z" fill="#546A75"/>
<path d="M271.037 199.031H259.864V219.245H271.037V199.031Z" fill="#2078C6"/>
<path d="M288.218 268C287.54 257.24 278.603 248.722 267.672 248.722H263.23C252.298 248.722 243.362 257.24 242.683 268H288.218Z" fill="#F37C18"/>
<path d="M296.301 119.052V115.841C305.021 115.841 312.32 112.945 317.407 107.467C321.92 102.607 324.405 96.0509 324.405 89.0075C324.405 76.0833 315.61 62.1737 296.301 62.1737V58.9636C305.938 58.9636 314.049 62.2141 319.759 68.3631C324.825 73.8191 327.615 81.1504 327.615 89.0075C327.615 96.8645 324.825 104.196 319.759 109.651C314.049 115.801 305.938 119.052 296.301 119.052Z" fill="#807F7D"/>
<path d="M167.604 136.413C148.401 136.413 138.229 124.361 135.113 113.083C131.14 98.7031 136.866 83.5738 149.04 76.291L153.16 83.1779C144.074 88.6147 139.834 100.033 142.849 110.945C145.866 121.867 155.12 128.386 167.604 128.386V136.413Z" fill="#807F7D"/>
<path d="M170.424 149.94H165.319V202.763H170.424V149.94Z" fill="#546179"/>
<path d="M179.273 149.939H174.167V202.762H179.273V149.939Z" fill="#546179"/>
<path d="M272.794 146.901H165.132V156.042H272.794V146.901Z" fill="#807F7D"/>
<path d="M272.794 47.3623H165.132V56.5037H272.794V47.3623Z" fill="#546179"/>
<path d="M215.372 19.1501H205.58V61.5849H215.372V19.1501Z" fill="#546179"/>
<path d="M232.347 19.1492H222.553V61.5839H232.347V19.1492Z" fill="#546179"/>
<path d="M215.372 121.218H205.58V147.402H215.372V121.218Z" fill="#546179"/>
<path d="M232.347 121.218H222.552V147.402H232.347V121.218Z" fill="#546179"/>
<path d="M198.539 33.6701C193.681 33.6701 189.73 29.7191 189.73 24.8625V8.80805C189.73 3.95099 193.681 0 198.539 0H239.39C244.247 0 248.199 3.95099 248.199 8.80805V24.8625C248.199 29.7191 244.247 33.6701 239.39 33.6701H198.539Z" fill="#F37C18"/>
<path d="M205.207 26.1056C211.213 26.1056 216.081 21.237 216.081 15.2314C216.081 9.22573 211.213 4.35718 205.207 4.35718C199.202 4.35718 194.333 9.22573 194.333 15.2314C194.333 21.237 199.202 26.1056 205.207 26.1056Z" fill="#FCCC0F"/>
<path d="M243.844 15.2278C243.844 21.2333 238.976 26.102 232.968 26.102C226.961 26.102 222.095 21.2333 222.095 15.2278C222.095 9.22172 226.962 4.35254 232.968 4.35254C238.976 4.35304 243.844 9.22222 243.844 15.2278Z" fill="#FCCC0F"/>
<path d="M239.581 14.0812C239.467 13.4483 239.26 12.8483 238.974 12.2943C238.69 11.7448 238.331 11.2423 237.908 10.7989C237.043 9.8933 235.919 9.23976 234.652 8.95996C234.204 8.86148 233.74 8.80542 233.263 8.80542C229.714 8.80542 226.837 11.6822 226.837 15.2312C226.837 15.7084 226.892 16.1721 226.992 16.6195C227.271 17.8872 227.925 19.012 228.832 19.8766C229.275 20.2998 229.777 20.6589 230.327 20.9422C230.882 21.2276 231.481 21.4342 232.115 21.5488C232.488 21.6165 232.87 21.6574 233.263 21.6574C236.811 21.6574 239.69 18.7806 239.69 15.2317C239.689 14.8377 239.648 14.4549 239.581 14.0812Z" fill="#26334B"/>
<path d="M305.698 57.0154H280.093V65.4174H305.698V57.0154Z" fill="#546179"/>
<path d="M305.698 114.121H280.093V122.524H305.698V114.121Z" fill="#546179"/>
<path d="M296.557 39.2385V140.403C305.168 139.169 311.792 131.783 311.792 122.83V56.8107C311.792 47.8587 305.167 40.4734 296.557 39.2385Z" fill="#F37C18"/>
<path d="M289.234 39.2378H270.951L280.093 139.791H289.234V39.2378Z" fill="#F37C18"/>
<path d="M156.178 116.432H149.069L143.99 39.239H154.146L156.178 116.432Z" fill="#F37C18"/>
<path d="M166.334 39.238H158.848V116.431H166.334V39.238Z" fill="#F37C18"/>
<path d="M166.334 39.2361H148.051V53.4557H166.334V39.2361Z" fill="#F37C18"/>
<path d="M159.819 168.23V211.121H163.882V202.995H180.133V211.121H184.196V168.23H159.819Z" fill="#F37C18"/>
<path d="M159.819 215.184V253.548H163.882H180.133H184.196V215.184H159.819Z" fill="#546A75"/>
<path d="M177.593 199.031H166.42V219.245H177.593V199.031Z" fill="#FCCC0F"/>
<path d="M194.774 267.999C194.096 257.239 185.159 248.721 174.229 248.721H169.787C158.855 248.721 149.92 257.239 149.24 267.999H194.774Z" fill="#F37C18"/>
<path d="M255.02 65.6462H182.906V129.634H255.02V65.6462Z" fill="#F37C18"/>
<path d="M247.896 59.0706H190.03V123.059H247.896V59.0706Z" fill="#FCCC0F"/>
<path d="M265.684 39.2363H172.242V67.6761H265.684V39.2363Z" fill="#F37C18"/>
<path d="M186.259 138.775V150.748C186.259 159.281 193.177 166.198 201.71 166.198H236.22C244.753 166.198 251.67 159.281 251.67 150.748V138.775H186.259Z" fill="#FCCC0F"/>
<path d="M242.325 111.351C242.325 113.594 240.505 115.414 238.262 115.414H199.666C197.422 115.414 195.603 113.594 195.603 111.351C195.603 109.107 197.422 107.288 199.666 107.288H238.262C240.505 107.288 242.325 109.107 242.325 111.351Z" fill="#26334B"/>
<path d="M242.325 97.1317C242.325 99.3746 240.505 101.194 238.262 101.194H199.666C197.422 101.194 195.603 99.3746 195.603 97.1317C195.603 94.8878 197.422 93.0686 199.666 93.0686H238.262C240.505 93.0686 242.325 94.8873 242.325 97.1317Z" fill="#26334B"/>
<path d="M242.325 82.913C242.325 85.1569 240.506 86.9756 238.262 86.9756H199.667C197.423 86.9756 195.604 85.1569 195.604 82.913C195.604 80.6695 197.423 78.8503 199.667 78.8503H238.262C240.506 78.8503 242.325 80.669 242.325 82.913Z" fill="#26334B"/>
<path d="M204.933 99.1634C206.055 99.1634 206.964 98.254 206.964 97.1321C206.964 96.0103 206.055 95.1008 204.933 95.1008C203.811 95.1008 202.901 96.0103 202.901 97.1321C202.901 98.254 203.811 99.1634 204.933 99.1634Z" fill="#2BD8BC"/>
<path d="M210.01 99.1634C211.132 99.1634 212.042 98.254 212.042 97.1321C212.042 96.0103 211.132 95.1008 210.01 95.1008C208.888 95.1008 207.979 96.0103 207.979 97.1321C207.979 98.254 208.888 99.1634 210.01 99.1634Z" fill="#FCCC0F"/>
<path d="M220.167 99.1634C221.289 99.1634 222.198 98.254 222.198 97.1321C222.198 96.0103 221.289 95.1008 220.167 95.1008C219.045 95.1008 218.136 96.0103 218.136 97.1321C218.136 98.254 219.045 99.1634 220.167 99.1634Z" fill="#2BD8BC"/>
<path d="M225.246 99.1634C226.368 99.1634 227.277 98.254 227.277 97.1321C227.277 96.0103 226.368 95.1008 225.246 95.1008C224.124 95.1008 223.214 96.0103 223.214 97.1321C223.214 98.254 224.124 99.1634 225.246 99.1634Z" fill="#2BD8BC"/>
<path d="M230.323 99.1634C231.445 99.1634 232.355 98.254 232.355 97.1321C232.355 96.0103 231.445 95.1008 230.323 95.1008C229.201 95.1008 228.292 96.0103 228.292 97.1321C228.292 98.254 229.201 99.1634 230.323 99.1634Z" fill="#F37C18"/>
<path d="M199.853 84.9437C200.975 84.9437 201.884 84.0343 201.884 82.9124C201.884 81.7906 200.975 80.8811 199.853 80.8811C198.731 80.8811 197.822 81.7906 197.822 82.9124C197.822 84.0343 198.731 84.9437 199.853 84.9437Z" fill="#2BD8BC"/>
<path d="M210.01 84.9437C211.132 84.9437 212.042 84.0343 212.042 82.9124C212.042 81.7906 211.132 80.8811 210.01 80.8811C208.888 80.8811 207.979 81.7906 207.979 82.9124C207.979 84.0343 208.888 84.9437 210.01 84.9437Z" fill="#2BD8BC"/>
<path d="M220.167 84.9437C221.289 84.9437 222.198 84.0343 222.198 82.9124C222.198 81.7906 221.289 80.8811 220.167 80.8811C219.045 80.8811 218.136 81.7906 218.136 82.9124C218.136 84.0343 219.045 84.9437 220.167 84.9437Z" fill="#FCCC0F"/>
<path d="M225.246 84.9437C226.368 84.9437 227.277 84.0343 227.277 82.9124C227.277 81.7906 226.368 80.8811 225.246 80.8811C224.124 80.8811 223.214 81.7906 223.214 82.9124C223.214 84.0343 224.124 84.9437 225.246 84.9437Z" fill="#2BD8BC"/>
<path d="M210.01 113.384C211.132 113.384 212.042 112.475 212.042 111.353C212.042 110.231 211.132 109.322 210.01 109.322C208.888 109.322 207.979 110.231 207.979 111.353C207.979 112.475 208.888 113.384 210.01 113.384Z" fill="#2BD8BC"/>
<path d="M215.087 113.384C216.209 113.384 217.119 112.475 217.119 111.353C217.119 110.231 216.209 109.322 215.087 109.322C213.966 109.322 213.056 110.231 213.056 111.353C213.056 112.475 213.966 113.384 215.087 113.384Z" fill="#2BD8BC"/>
<path d="M220.167 113.384C221.289 113.384 222.198 112.475 222.198 111.353C222.198 110.231 221.289 109.322 220.167 109.322C219.045 109.322 218.136 110.231 218.136 111.353C218.136 112.475 219.045 113.384 220.167 113.384Z" fill="#F37C18"/>
<path d="M225.246 113.384C226.368 113.384 227.277 112.475 227.277 111.353C227.277 110.231 226.368 109.322 225.246 109.322C224.124 109.322 223.214 110.231 223.214 111.353C223.214 112.475 224.124 113.384 225.246 113.384Z" fill="#F37C18"/>
<path d="M235.402 113.383C236.525 113.383 237.434 112.474 237.434 111.351C237.434 110.229 236.525 109.32 235.402 109.32C234.28 109.32 233.371 110.229 233.371 111.351C233.371 112.474 234.28 113.383 235.402 113.383Z" fill="#FCCC0F"/>
<path d="M166.335 138.279C163.092 138.279 160.454 135.641 160.454 132.398C160.454 129.156 163.092 126.517 166.335 126.517C169.578 126.517 172.217 129.156 172.217 132.398C172.217 135.641 169.578 138.279 166.335 138.279Z" fill="#2078C6"/>
<path d="M211.525 14.0812C211.41 13.4483 211.203 12.8483 210.918 12.2943C210.634 11.7448 210.275 11.2423 209.851 10.7989C208.987 9.8933 207.863 9.23976 206.595 8.95996C206.147 8.86148 205.683 8.80542 205.206 8.80542C201.658 8.80542 198.78 11.6822 198.78 15.2312C198.78 15.7084 198.836 16.1721 198.935 16.6195C199.214 17.8872 199.869 19.012 200.775 19.8766C201.219 20.2998 201.721 20.6589 202.271 20.9422C202.825 21.2276 203.425 21.4342 204.058 21.5488C204.431 21.6165 204.814 21.6574 205.206 21.6574C208.754 21.6574 211.633 18.7806 211.633 15.2317C211.633 14.8377 211.591 14.4549 211.525 14.0812Z" fill="#26334B"/>
<path d="M240.735 138.775V146.514C240.735 152.194 236.13 156.798 230.451 156.798H207.478C201.798 156.798 197.193 152.194 197.193 146.514V138.775H186.259V150.747C186.259 159.281 193.177 166.198 201.71 166.198H236.22C244.753 166.198 251.67 159.281 251.67 150.747V138.775H240.735Z" fill="#F37C18"/>
<path d="M148.268 263.471H109.631C103.885 263.471 100.315 259.362 100.315 252.748V164.892H103.003V252.748C103.003 255.749 103.864 260.784 109.631 260.784H148.268C149.422 260.784 151.637 254.705 152.583 252.109C154.667 246.392 156.467 241.455 159.596 241.455V244.143C158.347 244.143 156.16 250.145 155.109 253.029C152.983 258.864 151.303 263.471 148.268 263.471Z" fill="#2078C6"/>
<path d="M119.444 188.604H113.077V260.729H119.444V188.604Z" fill="#93999F"/>
<path d="M15.46 190.023H9.09131V262.148H15.46V190.023Z" fill="#93999F"/>
<path d="M127.086 186.042H0V195.494H127.086V186.042Z" fill="#2A3958"/>
<path fill-rule="evenodd" clip-rule="evenodd" d="M7.06944 94.3036V165.221C7.06944 166.648 8.228 167.801 9.658 167.801H117.405C118.831 167.801 119.99 166.648 119.99 165.221V94.3036C119.99 94.2551 119.99 94.2066 119.986 94.1581C119.888 92.254 118.361 90.7258 116.453 90.6288C116.405 90.6248 116.356 90.6248 116.307 90.6248H10.7558C10.7072 90.6248 10.6586 90.6248 10.61 90.6288C8.69792 90.7258 7.17072 92.2499 7.07349 94.1581C7.06944 94.2066 7.06944 94.2551 7.06944 94.3036Z" fill="#EAEAEA"/>
<path fill-rule="evenodd" clip-rule="evenodd" d="M60.079 162.386C59.032 160.929 59.3643 158.899 60.8218 157.852C62.2792 156.805 64.3093 157.137 65.3563 158.595C66.4037 160.052 66.0711 162.082 64.6136 163.129C63.1565 164.176 61.126 163.844 60.079 162.386Z" fill="#ADAEAE"/>
<path fill-rule="evenodd" clip-rule="evenodd" d="M119.99 94.3127V153.584H7.06944V94.3127C7.06944 92.2759 8.7186 90.6248 10.753 90.6248H116.306C118.341 90.6248 119.99 92.2759 119.99 94.3127Z" fill="#2A3958"/>
<path fill-rule="evenodd" clip-rule="evenodd" d="M116.335 96.6953V148.33C116.335 149.438 115.433 150.336 114.32 150.336H11.9287C10.8161 150.336 9.91366 149.438 9.91366 148.33V96.6953C9.91366 95.5868 10.8161 94.6885 11.9287 94.6885H114.32C115.433 94.6885 116.335 95.5868 116.335 96.6953Z" fill="#546179"/>
<path fill-rule="evenodd" clip-rule="evenodd" d="M51.3438 186.081H74.0903L70.9968 167.803H54.4373L51.3438 186.081Z" fill="#DCDCDC"/>
<path fill-rule="evenodd" clip-rule="evenodd" d="M9.91366 103.218H116.335V96.4846C116.335 95.4928 115.523 94.6885 114.523 94.6885H11.7258C10.7248 94.6885 9.91366 95.4928 9.91366 96.4846V103.218Z" fill="white"/>
<path fill-rule="evenodd" clip-rule="evenodd" d="M24.9428 99.1561C24.9428 98.4832 25.4885 97.9375 26.1613 97.9375C26.8342 97.9375 27.3799 98.4832 27.3799 99.1561C27.3799 99.8289 26.8342 100.375 26.1613 100.375C25.4885 100.375 24.9428 99.8289 24.9428 99.1561Z" fill="#3B4EF2"/>
<path fill-rule="evenodd" clip-rule="evenodd" d="M20.0678 99.1561C20.0678 98.4832 20.613 97.9375 21.2863 97.9375C21.9592 97.9375 22.5049 98.4832 22.5049 99.1561C22.5049 99.8289 21.9592 100.375 21.2863 100.375C20.613 100.375 20.0678 99.8289 20.0678 99.1561Z" fill="#2BD8BC"/>
<path fill-rule="evenodd" clip-rule="evenodd" d="M15.599 99.1561C15.599 98.4832 16.1444 97.9375 16.8178 97.9375C17.4907 97.9375 18.0361 98.4832 18.0361 99.1561C18.0361 99.8289 17.4907 100.375 16.8178 100.375C16.1444 100.375 15.599 99.8289 15.599 99.1561Z" fill="#FCD740"/>
<path fill-rule="evenodd" clip-rule="evenodd" d="M109.023 111.748H103.336V109.311H109.023V111.748Z" fill="#0086F4"/>
<path fill-rule="evenodd" clip-rule="evenodd" d="M100.087 111.748H89.5265V109.311H100.087V111.748Z" fill="#F37C18"/>
<path fill-rule="evenodd" clip-rule="evenodd" d="M104.96 116.216H83.0263V113.779H104.96V116.216Z" fill="white"/>
<path fill-rule="evenodd" clip-rule="evenodd" d="M79.7783 116.216H74.0917V113.779H79.7783V116.216Z" fill="#2BD8BC"/>
<path fill-rule="evenodd" clip-rule="evenodd" d="M104.96 121.088H83.0263V118.651H104.96V121.088Z" fill="white"/>
<path fill-rule="evenodd" clip-rule="evenodd" d="M79.7783 121.088H74.0917V118.651H79.7783V121.088Z" fill="#2BD8BC"/>
<path fill-rule="evenodd" clip-rule="evenodd" d="M104.96 125.557H83.0263V123.12H104.96V125.557Z" fill="white"/>
<path fill-rule="evenodd" clip-rule="evenodd" d="M79.7783 125.557H74.0917V123.12H79.7783V125.557Z" fill="#2BD8BC"/>
<path fill-rule="evenodd" clip-rule="evenodd" d="M109.023 130.026H103.336V127.589H109.023V130.026Z" fill="#0086F4"/>
<path fill-rule="evenodd" clip-rule="evenodd" d="M100.087 130.026H89.5265V127.589H100.087V130.026Z" fill="#FCD740"/>
<path fill-rule="evenodd" clip-rule="evenodd" d="M104.96 134.9H93.9934V132.462H104.96V134.9Z" fill="#2BD8BC"/>
<path fill-rule="evenodd" clip-rule="evenodd" d="M90.7446 134.9H74.0909V132.462H90.7446V134.9Z" fill="white"/>
<path fill-rule="evenodd" clip-rule="evenodd" d="M104.96 139.368H93.9934V136.931H104.96V139.368Z" fill="#2BD8BC"/>
<path fill-rule="evenodd" clip-rule="evenodd" d="M90.7446 139.368H74.0909V136.931H90.7446V139.368Z" fill="white"/>
<path fill-rule="evenodd" clip-rule="evenodd" d="M104.96 143.835H93.9934V141.398H104.96V143.835Z" fill="#2BD8BC"/>
<path fill-rule="evenodd" clip-rule="evenodd" d="M90.7446 143.835H74.0909V141.398H90.7446V143.835Z" fill="white"/>
<path fill-rule="evenodd" clip-rule="evenodd" d="M53.7812 111.748H48.0946V109.311H53.7812V111.748Z" fill="#F37C18"/>
<path fill-rule="evenodd" clip-rule="evenodd" d="M44.439 111.748H33.8781V109.311H44.439V111.748Z" fill="#22A851"/>
<path fill-rule="evenodd" clip-rule="evenodd" d="M49.7188 116.216H44.4383V113.779H49.7188V116.216Z" fill="white"/>
<path fill-rule="evenodd" clip-rule="evenodd" d="M41.1899 116.216H18.0372V113.779H41.1899V116.216Z" fill="#2BD8BC"/>
<path fill-rule="evenodd" clip-rule="evenodd" d="M49.7188 121.088H44.4383V118.651H49.7188V121.088Z" fill="white"/>
<path fill-rule="evenodd" clip-rule="evenodd" d="M41.1899 121.088H18.0372V118.651H41.1899V121.088Z" fill="#0086F4"/>
<path fill-rule="evenodd" clip-rule="evenodd" d="M49.7188 125.557H44.4383V123.12H49.7188V125.557Z" fill="white"/>
<path fill-rule="evenodd" clip-rule="evenodd" d="M41.1899 125.557H18.0372V123.12H41.1899V125.557Z" fill="#2BD8BC"/>
<path fill-rule="evenodd" clip-rule="evenodd" d="M53.7812 130.026H48.0946V127.589H53.7812V130.026Z" fill="#FCD740"/>
<path fill-rule="evenodd" clip-rule="evenodd" d="M44.439 130.026H33.8781V127.589H44.439V130.026Z" fill="#22A851"/>
<path fill-rule="evenodd" clip-rule="evenodd" d="M49.7188 134.9H31.4403V132.462H49.7188V134.9Z" fill="#2BD8BC"/>
<path fill-rule="evenodd" clip-rule="evenodd" d="M28.1914 134.9H18.4429V132.462H28.1914V134.9Z" fill="white"/>
<path fill-rule="evenodd" clip-rule="evenodd" d="M49.7188 139.368H31.4403V136.931H49.7188V139.368Z" fill="#22A851"/>
<path fill-rule="evenodd" clip-rule="evenodd" d="M28.1914 139.368H18.4429V136.931H28.1914V139.368Z" fill="white"/>
<path fill-rule="evenodd" clip-rule="evenodd" d="M49.7188 143.835H31.4403V141.398H49.7188V143.835Z" fill="#2BD8BC"/>
<path fill-rule="evenodd" clip-rule="evenodd" d="M28.1914 143.835H18.4429V141.398H28.1914V143.835Z" fill="white"/>
<path d="M63.5298 108.091V147.085" stroke="#202D45" stroke-linecap="round" stroke-linejoin="round"/>
</svg>
