<svg width="90" height="90" viewBox="0 0 90 90" fill="none" xmlns="http://www.w3.org/2000/svg">
<rect x="5" y="10" width="39" height="39" rx="14" fill="#FED602"/>
<path fill-rule="evenodd" clip-rule="evenodd" d="M60.3351 21.5731H31.9432C23.3448 21.5731 16.375 28.5365 16.375 37.1253V57.2517C16.375 64.0621 20.7637 69.8366 26.8669 71.9412L27.364 82.7277L41.3522 72.804H60.3351C68.9335 72.804 75.9047 65.8405 75.9047 57.2517V37.1253C75.9047 28.5365 68.9335 21.5731 60.3351 21.5731Z" fill="#4F5FFF"/>
<mask id="mask0" mask-type="alpha" maskUnits="userSpaceOnUse" x="28" y="31" width="28" height="26">
<path fill-rule="evenodd" clip-rule="evenodd" d="M28.7402 31.6995H55.0482V56.0939H28.7402V31.6995Z" fill="white"/>
</mask>
<g mask="url(#mask0)">
<path fill-rule="evenodd" clip-rule="evenodd" d="M42.1443 38.7622C41.1747 38.7622 40.3895 37.9987 40.3895 37.0543C40.3895 36.1116 41.1747 35.3463 42.1443 35.3463C43.1156 35.3463 43.9009 36.1116 43.9009 37.0543C43.9026 37.9969 43.1156 38.7622 42.1443 38.7622ZM50.9506 46.6843C53.2671 45.6633 53.6123 37.8926 52.2457 35.6038C50.4604 32.6158 41.9743 33.2158 39.2947 35.3516C38.987 36.4125 39.0192 38.3378 39.0335 39.8683H47.4445V40.5849H39.0353C39.0353 40.5953 35.2913 40.6075 35.2913 40.6075C28.8355 40.6075 28.9697 54.2394 37.488 54.2394C37.488 54.2394 37.801 51.2201 38.3484 49.707C40.0388 45.0372 47.1404 48.3644 50.9506 46.6843Z" fill="white"/>
</g>
<mask id="mask1" mask-type="alpha" maskUnits="userSpaceOnUse" x="35" y="38" width="29" height="26">
<path fill-rule="evenodd" clip-rule="evenodd" d="M35.8579 38.2466H63.1452V63.9882H35.8579V38.2466Z" fill="white"/>
</mask>
<g mask="url(#mask1)">
<path fill-rule="evenodd" clip-rule="evenodd" d="M49.0328 56.3632C50.0057 56.3632 50.7955 57.1641 50.7955 58.1548C50.7955 59.1436 50.0057 59.9445 49.0328 59.9445C48.0599 59.9445 47.2719 59.1436 47.2719 58.1548C47.2719 57.1641 48.0599 56.3632 49.0328 56.3632ZM53.9189 40.4382C53.9189 40.4382 53.6946 43.6072 53.1453 45.1925C51.449 50.0892 44.3245 46.601 40.4992 48.3633C38.1765 49.4342 37.8264 57.5856 39.1996 59.9865C40.9893 63.1226 49.5049 62.4932 52.1957 60.251C52.5044 59.14 52.4721 57.1204 52.4578 55.5149H44.0157V54.7633H52.4542C52.4542 54.7523 56.6133 54.7395 56.6133 54.7395C62.5836 54.7395 63.1185 40.4382 53.9189 40.4382Z" fill="white"/>
</g>
</svg>
