<svg width="90" height="90" viewBox="0 0 90 90" fill="none" xmlns="http://www.w3.org/2000/svg">
<rect x="9" y="10" width="39" height="39" rx="14" fill="#FED602"/>
<path fill-rule="evenodd" clip-rule="evenodd" d="M37.8601 19H66.1588C74.7289 19 81.6758 26.0284 81.6758 34.6974V55.0115C81.6758 61.8854 77.3015 67.7138 71.2183 69.838L70.7229 80.7251L56.7806 70.7088H37.8601C29.29 70.7088 22.3417 63.6804 22.3417 55.0115V34.6974C22.3417 26.0284 29.29 19 37.8601 19Z" fill="#2A92E4"/>
<path d="M47.0371 47.3026V50.1768L36.8199 45.7487V43.2909L47.0371 38.8627V41.7573L39.9176 44.4995L47.0371 47.3026ZM55.0183 38.8018L52.1745 50.512C52.0798 50.8979 51.9951 51.2026 51.9206 51.426C51.8529 51.6495 51.7446 51.8221 51.5956 51.944C51.4535 52.0726 51.2436 52.137 50.966 52.137C50.2753 52.137 49.93 51.839 49.93 51.2432C49.93 51.0875 49.9977 50.6982 50.1331 50.0752L52.9667 38.3651C53.1157 37.7422 53.2579 37.3156 53.3933 37.0854C53.5287 36.8552 53.7928 36.7401 54.1855 36.7401C54.524 36.7401 54.7813 36.8213 54.9574 36.9838C55.1402 37.1463 55.2316 37.3698 55.2316 37.6542C55.2316 37.864 55.1605 38.2466 55.0183 38.8018ZM68.3417 45.7487L58.1245 50.1971V47.3229L65.2643 44.5198L58.1245 41.7573V38.9034L68.3417 43.3112V45.7487Z" fill="white"/>
</svg>
