<svg width="90" height="90" viewBox="0 0 90 90" fill="none" xmlns="http://www.w3.org/2000/svg">
<path fill-rule="evenodd" clip-rule="evenodd" d="M32.8591 20H61.1578C69.7279 20 76.6748 27.0284 76.6748 35.6974V56.0115C76.6748 62.8854 72.3005 68.7138 66.2173 70.838L65.722 81.7251L51.7796 71.7088H32.8591C24.289 71.7088 17.3407 64.6804 17.3407 56.0115V35.6974C17.3407 27.0284 24.289 20 32.8591 20Z" fill="#4F5FFF"/>
<path d="M40.7039 50.4195V53.2938L30.4867 48.8656V46.4078L40.7039 41.9797V44.8742L33.5843 47.6164L40.7039 50.4195ZM48.685 41.9188L45.8413 53.6289C45.7465 54.0148 45.6619 54.3195 45.5874 54.543C45.5197 54.7664 45.4113 54.9391 45.2624 55.0609C45.1202 55.1896 44.9103 55.2539 44.6327 55.2539C43.9421 55.2539 43.5968 54.956 43.5968 54.3602C43.5968 54.2044 43.6645 53.8151 43.7999 53.1922L46.6335 41.482C46.7824 40.8591 46.9246 40.4326 47.06 40.2023C47.1955 39.9721 47.4595 39.857 47.8522 39.857C48.1908 39.857 48.4481 39.9383 48.6241 40.1008C48.8069 40.2633 48.8983 40.4867 48.8983 40.7711C48.8983 40.981 48.8272 41.3635 48.685 41.9188ZM62.0084 48.8656L51.7912 53.3141V50.4398L58.9311 47.6367L51.7912 44.8742V42.0203L62.0084 46.4281V48.8656Z" fill="white"/>
<path fill-rule="evenodd" clip-rule="evenodd" d="M16.8008 10H9.58999C7.60727 10 6 11.6038 6 13.5822V20.7774C6 22.7558 7.60727 24.3596 9.58999 24.3596H16.8008C18.7835 24.3596 20.3908 22.7558 20.3908 20.7774V13.5822C20.3908 11.6038 18.7835 10 16.8008 10Z" fill="#FED602"/>
<path fill-rule="evenodd" clip-rule="evenodd" d="M82.5888 72H78.19C76.9805 72 76 72.9784 76 74.1853V78.5745C76 79.7814 76.9805 80.7598 78.19 80.7598H82.5888C83.7984 80.7598 84.7788 79.7814 84.7788 78.5745V74.1853C84.7788 72.9784 83.7984 72 82.5888 72Z" fill="#FED602"/>
</svg>
