<svg width="90" height="90" viewBox="0 0 90 90" fill="none" xmlns="http://www.w3.org/2000/svg">
<rect x="9" y="10" width="39" height="39" rx="14" fill="#FED602"/>
<path fill-rule="evenodd" clip-rule="evenodd" d="M37.8591 19H66.1578C74.7279 19 81.6748 26.0284 81.6748 34.6974V55.0115C81.6748 61.8854 77.3005 67.7138 71.2173 69.838L70.722 80.7251L56.7796 70.7088H37.8591C29.289 70.7088 22.3407 63.6804 22.3407 55.0115V34.6974C22.3407 26.0284 29.289 19 37.8591 19Z" fill="#08B69A"/>
<mask id="mask0" mask-type="alpha" maskUnits="userSpaceOnUse" x="34" y="28" width="28" height="26">
<path fill-rule="evenodd" clip-rule="evenodd" d="M34.7402 28.6995H61.0482V53.0939H34.7402V28.6995Z" fill="white"/>
</mask>
<g mask="url(#mask0)">
<path fill-rule="evenodd" clip-rule="evenodd" d="M48.1443 35.7622C47.1747 35.7622 46.3895 34.9987 46.3895 34.0543C46.3895 33.1116 47.1747 32.3463 48.1443 32.3463C49.1156 32.3463 49.9009 33.1116 49.9009 34.0543C49.9026 34.9969 49.1156 35.7622 48.1443 35.7622ZM56.9506 43.6843C59.2671 42.6633 59.6123 34.8926 58.2457 32.6038C56.4604 29.6158 47.9743 30.2158 45.2947 32.3516C44.987 33.4125 45.0192 35.3378 45.0335 36.8683H53.4445V37.5849H45.0353C45.0353 37.5953 41.2913 37.6075 41.2913 37.6075C34.8355 37.6075 34.9697 51.2394 43.488 51.2394C43.488 51.2394 43.801 48.2201 44.3484 46.707C46.0388 42.0372 53.1404 45.3644 56.9506 43.6843Z" fill="white"/>
</g>
<mask id="mask1" mask-type="alpha" maskUnits="userSpaceOnUse" x="41" y="35" width="29" height="26">
<path fill-rule="evenodd" clip-rule="evenodd" d="M41.8574 35.2466H69.1447V60.9882H41.8574V35.2466Z" fill="white"/>
</mask>
<g mask="url(#mask1)">
<path fill-rule="evenodd" clip-rule="evenodd" d="M55.0323 53.3632C56.0052 53.3632 56.795 54.1641 56.795 55.1547C56.795 56.1436 56.0052 56.9445 55.0323 56.9445C54.0594 56.9445 53.2714 56.1436 53.2714 55.1547C53.2714 54.1641 54.0594 53.3632 55.0323 53.3632ZM59.9185 37.4381C59.9185 37.4381 59.6941 40.6071 59.1448 42.1925C57.4485 47.0891 50.324 43.6009 46.4987 45.3633C44.176 46.4342 43.8259 54.5855 45.1991 56.9864C46.9888 60.1226 55.5045 59.4931 58.1952 57.2509C58.5039 56.1399 58.4717 54.1203 58.4573 52.5148H50.0152V51.7632H58.4537C58.4537 51.7522 62.6128 51.7395 62.6128 51.7395C68.5831 51.7395 69.118 37.4381 59.9185 37.4381Z" fill="white"/>
</g>
</svg>
