<svg width="105" height="84" viewBox="0 0 105 84" fill="none" xmlns="http://www.w3.org/2000/svg">
<path fill-rule="evenodd" clip-rule="evenodd" d="M9.70117 30.7255C9.70117 30.7255 10.9598 35.2288 20.5038 33.6363C30.0482 32.0443 81.4581 33.0072 87.0893 36.0533C92.7204 39.0994 101.207 34.0218 96.9218 30.939C92.6366 27.8562 41.2038 23.2217 32.3468 24.536C23.4893 25.85 9.70117 30.7255 9.70117 30.7255Z" fill="#1F2B3D"/>
<path fill-rule="evenodd" clip-rule="evenodd" d="M48.1777 24.4695C72.4049 24.92 87.8703 31.3633 91.3812 46.1623C95.1387 62.0034 78.4861 70.0599 51.3555 69.7265C24.997 69.4025 14.5852 62.2037 12.9873 52.6873C10.5749 32.1255 30.588 23.9761 48.1777 24.4695Z" fill="white"/>
<path fill-rule="evenodd" clip-rule="evenodd" d="M48.1754 24.5801C46.0635 24.5407 43.9507 24.6106 41.8524 24.8334C39.7568 25.0686 37.6723 25.4103 35.634 25.9325C31.5576 26.9502 27.6263 28.5705 24.1833 30.8602C22.4671 32.0092 20.8877 33.3391 19.5055 34.8281C18.1339 36.3259 16.9586 37.9865 16.0718 39.7876C15.193 41.5918 14.5665 43.5146 14.2485 45.5023C13.9246 47.4886 13.8832 49.5254 14.0632 51.5511C14.1236 52.5596 14.3226 53.4513 14.6182 54.397C14.9164 55.321 15.3033 56.2176 15.808 57.0492C16.8095 58.7159 18.1635 60.1815 19.7468 61.4017C21.3324 62.6215 23.1161 63.6206 24.9973 64.4314C26.8763 65.2484 28.843 65.8997 30.8482 66.4306C34.8655 67.4811 39.0143 68.1265 43.1914 68.5404C45.2795 68.7658 47.3786 68.91 49.4817 69.0214C51.5857 69.1354 53.6923 69.1836 55.7989 69.1761C60.0108 69.1704 64.232 68.9263 68.3927 68.2649C70.472 67.9342 72.5393 67.5182 74.5617 66.9444C75.5737 66.6619 76.5774 66.3511 77.5652 65.9983C78.5508 65.6388 79.5196 65.2383 80.4668 64.7957C82.3621 63.9168 84.159 62.8275 85.7407 61.5051C87.3214 60.1859 88.6754 58.6129 89.6027 56.8259C90.0638 55.9324 90.4171 54.9898 90.6598 54.0216C90.8936 53.0503 91.0167 52.0551 91.037 51.0551C91.056 49.0506 90.7061 47.047 90.099 45.0955C88.9026 41.2063 86.6777 37.6827 83.6146 34.9899C82.0996 33.6291 80.4187 32.4345 78.6223 31.4172C76.8373 30.3778 74.942 29.5047 72.9898 28.7637C69.0792 27.2893 64.9648 26.2932 60.7996 25.6239C58.7151 25.2963 56.6133 25.0743 54.5085 24.8842C52.4014 24.7251 50.289 24.6398 48.1754 24.5801ZM48.1807 24.359C50.297 24.3962 52.4137 24.4673 54.5283 24.5982C56.6442 24.7092 58.7565 24.8891 60.868 25.1102C65.0826 25.5867 69.3042 26.2778 73.4049 27.5572C75.4533 28.1956 77.4695 28.9768 79.4093 29.9525C81.3351 30.9486 83.188 32.1321 84.861 33.561C86.5246 34.9947 88.0339 36.6456 89.2211 38.5196C90.4083 40.3893 91.3405 42.4243 91.9462 44.5447C92.5414 46.6544 92.904 48.8879 92.7514 51.128C92.6746 52.2457 92.4823 53.3585 92.166 54.435C91.8417 55.5093 91.3939 56.5443 90.8345 57.5081C89.7099 59.4392 88.1526 61.0551 86.4179 62.3615C84.6801 63.6754 82.7605 64.6821 80.7999 65.5402C76.8532 67.2189 72.6924 68.2384 68.5035 68.9484C64.3083 69.6421 60.0699 70.0351 55.8236 70.2283C53.6993 70.3234 51.5737 70.3525 49.4477 70.3525C47.3213 70.3468 45.1917 70.3079 43.0621 70.185C38.8052 69.9458 34.5404 69.4215 30.3474 68.4033C28.2532 67.89 26.177 67.249 24.1577 66.4152C22.1376 65.5884 20.1765 64.5464 18.3779 63.2161C17.4876 62.5405 16.622 61.8151 15.8499 60.9812C15.0726 60.1541 14.3826 59.2363 13.7901 58.2543C13.194 57.2742 12.7295 56.2123 12.3757 55.122C12.0289 54.049 11.7735 52.8567 11.7073 51.7452C11.5423 49.5466 11.6191 47.3113 12.0095 45.1172C12.4017 42.9257 13.1045 40.7708 14.1651 38.8052C16.2527 34.8356 19.637 31.7192 23.406 29.5975C27.1829 27.44 31.3251 26.1372 35.5017 25.3316C37.5964 24.9435 39.7043 24.6512 41.8229 24.5031C43.9383 24.3435 46.0621 24.2808 48.1807 24.359Z" fill="#1F2B3D"/>
<mask id="mask0" mask-type="alpha" maskUnits="userSpaceOnUse" x="9" y="0" width="89" height="33">
<path d="M9.69336 0H97.1263V32.1252H9.69336V0Z" fill="white"/>
</mask>
<g mask="url(#mask0)">
<path fill-rule="evenodd" clip-rule="evenodd" d="M82.6755 26.883C82.6755 26.883 74.4127 6.80571 67.113 2.80201C63.4168 0.774955 60.3705 2.80864 60.3705 2.80864C60.3705 2.80864 49.128 -2.97012 42.033 2.05043C39.9621 3.51601 30.0983 9.92653 27.1084 23.4704C27.1084 23.4704 11.2058 27.2044 9.70138 30.7254C9.29682 31.6728 24.1746 24.6062 60.6731 27.6691C88.5595 30.01 98.7409 34.1769 96.922 30.9394C95.8415 29.0158 82.6755 26.883 82.6755 26.883Z" fill="#1F2B3D"/>
</g>
<path fill-rule="evenodd" clip-rule="evenodd" d="M79.4231 18.7532C79.4231 18.7532 63.5381 11.5513 29.7996 15.3684L27.1084 23.4704C27.1084 23.4704 53.1453 20.5026 82.6755 26.883L79.4231 18.7532Z" fill="#EDDB00"/>
<path fill-rule="evenodd" clip-rule="evenodd" d="M47.0165 36.3746C47.0165 36.3746 27.8752 41.7895 32.3416 58.5245C33.3621 67.9122 44.5702 71.5861 60.138 70.2655C70.8616 67.9038 76.6088 62.6069 76.8078 52.8386C76.8793 48.796 76.5638 40.5782 65.4488 37.2434C61.0878 35.9352 55.6119 34.5885 47.0165 36.3746Z" fill="#1F2B3D"/>
<path fill-rule="evenodd" clip-rule="evenodd" d="M0.621206 69.668C2.434 64.4511 7.53709 62.3701 11.4309 61.4833C22.0002 59.0765 25.3633 61.4833 25.3633 61.4833L20.9025 76.1218C20.9025 76.1218 -4.22777 83.6204 0.621206 69.668Z" fill="#1F2B3D"/>
<path fill-rule="evenodd" clip-rule="evenodd" d="M23.0302 63.7516C27.8981 60.0238 33.7314 59.1476 41.3915 61.1503C48.5527 63.0226 54.1031 68.6139 54.468 70.8222C54.9802 73.9183 40.769 65.2062 40.769 65.2062C40.769 65.2062 51.5571 69.8584 51.9546 72.6273C52.8025 78.5436 38.5896 69.262 38.5896 69.262C38.5896 69.262 44.943 71.4456 47.3073 76.75C49.6711 82.0544 36.8606 74.1473 32.6739 72.382C32.6739 72.382 41.2556 77.8057 38.9011 79.8699C36.5465 81.9346 32.8225 76.3446 20.0249 76.3764" fill="white"/>
<path fill-rule="evenodd" clip-rule="evenodd" d="M22.9631 63.6643C23.7929 62.9662 24.6656 62.3026 25.6185 61.7552C26.5719 61.2145 27.5729 60.7366 28.6256 60.3931C29.6752 60.05 30.7569 59.7697 31.859 59.6398C32.4074 59.5447 32.9615 59.5284 33.5147 59.4735C34.0675 59.4665 34.6247 59.4178 35.1771 59.4497C37.3918 59.5129 39.5888 59.8259 41.725 60.3617C43.8987 60.9104 45.9894 61.7654 47.9129 62.9034C48.8769 63.4684 49.8038 64.0957 50.6924 64.7784C51.58 65.4618 52.4262 66.2068 53.1991 67.0446C53.5878 67.4619 53.9606 67.8996 54.3087 68.3749C54.6537 68.8541 54.985 69.3581 55.2325 69.9992C55.2907 70.1698 55.3494 70.3347 55.3878 70.5403C55.4253 70.7163 55.4818 71.0178 55.3768 71.3993C55.3238 71.5921 55.2074 71.8087 55.0481 71.9705C54.8897 72.1345 54.7088 72.238 54.5531 72.3003C54.2403 72.4201 54.006 72.4268 53.8022 72.4285C53.3994 72.421 53.0888 72.3516 52.7875 72.2778C52.4888 72.2017 52.2087 72.112 51.9369 72.0165C50.8565 71.6221 49.8722 71.1367 48.8946 70.6393C47.9191 70.1411 46.9737 69.6026 46.034 69.0584C44.1554 67.9664 42.3281 66.8151 40.5038 65.6413L40.9701 64.7381C43.2179 65.8412 45.4181 66.9853 47.5706 68.2555C48.636 68.9067 49.7002 69.5681 50.6853 70.3781C51.1728 70.7897 51.6475 71.2296 52.026 71.8206C52.1191 71.9692 52.2007 72.1341 52.2603 72.318C52.2921 72.4056 52.3132 72.5143 52.3278 72.6027L52.3591 72.8569C52.3852 73.1991 52.3816 73.5709 52.2321 73.9485C52.1646 74.1368 52.0419 74.315 51.9007 74.4697C51.7507 74.6174 51.5765 74.7368 51.3956 74.8163C51.0316 74.9764 50.6685 75.0166 50.3244 75.0268C49.634 75.0347 48.9916 74.907 48.3691 74.7469C47.1263 74.4185 45.9532 73.9476 44.8044 73.4392C42.5068 72.4113 40.311 71.2384 38.144 69.9479L31.84 66.1944L38.8547 68.4885C39.5134 68.7038 40.0838 68.9452 40.6759 69.2184C41.2604 69.4903 41.834 69.7861 42.3881 70.1203C43.4963 70.7857 44.5574 71.5567 45.5081 72.4763C46.4557 73.3932 47.3116 74.445 47.9584 75.6435C48.1216 75.9508 48.2681 76.2258 48.4159 76.5861C48.5496 76.946 48.7044 77.3271 48.6881 77.9531C48.6735 78.263 48.5601 78.7038 48.2456 79.0477C47.9341 79.3913 47.5547 79.5345 47.2732 79.5999C46.6966 79.7193 46.3084 79.6552 45.929 79.6057C45.19 79.4832 44.564 79.2781 43.9454 79.0619C43.3313 78.8426 42.7397 78.6025 42.1582 78.3519C40.994 77.8523 39.8685 77.3098 38.759 76.7484L35.4572 75.0573C34.3679 74.5038 33.2668 73.9277 32.2216 73.4595L33.2968 71.3936C34.3997 72.1204 35.4241 72.868 36.4419 73.6903C37.4474 74.521 38.4431 75.3725 39.3162 76.4955C39.5346 76.7789 39.7428 77.0852 39.9312 77.4367C40.1147 77.7904 40.2912 78.1949 40.3494 78.7241C40.3777 78.9863 40.3622 79.29 40.2757 79.5884C40.191 79.8869 40.0313 80.1689 39.8443 80.386C39.7525 80.4987 39.6479 80.592 39.5531 80.6747C39.464 80.7485 39.3687 80.8197 39.2663 80.886C39.0616 81.0186 38.8309 81.1296 38.5913 81.2048C38.106 81.3591 37.6247 81.3546 37.2224 81.2981C36.8147 81.2406 36.4631 81.1367 36.1309 81.0235C35.4744 80.7896 34.8938 80.5217 34.3168 80.2622C33.1728 79.7365 32.0522 79.2489 30.9034 78.8103C29.7563 78.3722 28.5815 78.0119 27.3876 77.7042C24.9978 77.0989 22.5263 76.732 20.0257 76.5777L20.0244 76.1754C22.5457 76.0109 25.1063 76.064 27.64 76.4698C28.9075 76.6648 30.1622 76.9592 31.3988 77.3151C32.6368 77.6648 33.8452 78.1251 35.0174 78.5703C35.6015 78.7904 36.1803 79.0106 36.7199 79.1631C37.2559 79.3227 37.7447 79.3709 37.9543 79.2666C38.0125 79.2431 38.0654 79.2135 38.1224 79.1715C38.1506 79.1507 38.1797 79.1264 38.2102 79.0981C38.2304 79.0747 38.2459 79.0637 38.2499 79.0517C38.2688 79.0049 38.2582 79.0575 38.2516 78.9527C38.2291 78.7387 37.9547 78.2519 37.6102 77.8501C36.9056 77.0101 35.9849 76.2059 35.0346 75.464C34.0829 74.7235 33.0599 74.0077 32.0522 73.3711L33.1265 71.3047C34.3463 71.8149 35.4312 72.3865 36.5368 72.956L39.8152 74.6466C40.9075 75.1948 41.9968 75.7399 43.0878 76.2382C43.6335 76.4866 44.181 76.7205 44.7237 76.9265C45.2632 77.1303 45.8143 77.3107 46.2912 77.3978C46.5175 77.4429 46.7553 77.4464 46.7844 77.4349C46.8007 77.4332 46.7174 77.4473 46.6132 77.5605C46.5096 77.6759 46.4906 77.8045 46.4968 77.809C46.5065 77.8143 46.4782 77.5897 46.3913 77.377C46.3097 77.1635 46.1809 76.8841 46.0613 76.644C45.5694 75.6484 44.8821 74.7354 44.0866 73.9114C43.2868 73.089 42.3797 72.3481 41.3994 71.7035C40.431 71.0616 39.3607 70.4652 38.3249 70.0363L39.0356 68.5769C41.0425 69.9501 43.1425 71.2623 45.306 72.3857C46.3913 72.9401 47.4996 73.4551 48.6343 73.8234C49.199 74.0042 49.7774 74.1452 50.3271 74.1691C50.5984 74.178 50.8653 74.1554 51.0718 74.0683C51.2796 73.9825 51.4203 73.8526 51.5059 73.6505C51.5968 73.452 51.6197 73.185 51.6056 72.9122L51.5866 72.704C51.5769 72.6403 51.5721 72.5948 51.5535 72.5355C51.5218 72.4232 51.471 72.3056 51.4035 72.1894C51.1362 71.7176 50.6915 71.2968 50.2415 70.9068C49.3216 70.1296 48.2875 69.4572 47.2238 68.8479C46.1606 68.2338 45.0696 67.6609 43.9521 67.1427C42.8416 66.6149 41.706 66.1193 40.5678 65.6745L41.0346 64.7713C42.895 65.8315 44.8035 66.8293 46.7174 67.7825C47.6751 68.2586 48.6427 68.7109 49.6088 69.1464C50.5741 69.5761 51.5566 69.9824 52.5153 70.2826C52.7535 70.3582 52.9904 70.4236 53.215 70.4731C53.4365 70.5226 53.6593 70.5523 53.796 70.5465C53.86 70.5469 53.8988 70.5262 53.8366 70.5461C53.8053 70.5576 53.7418 70.5885 53.6769 70.6553C53.6112 70.7198 53.5613 70.8149 53.5441 70.8768C53.5088 70.997 53.5406 71.0204 53.5102 70.9369C53.4991 70.8768 53.4625 70.7879 53.4316 70.7048C53.271 70.3458 53.0204 69.9315 52.7297 69.542C52.4381 69.149 52.1085 68.7666 51.7591 68.3979C50.3518 66.9283 48.7102 65.6157 46.9406 64.5387C45.1644 63.4688 43.2757 62.5727 41.2878 62.0028C39.2641 61.4285 37.1968 60.99 35.11 60.8304C33.0246 60.6363 30.9197 60.7831 28.8775 61.2623C27.8549 61.5019 26.8662 61.8715 25.8925 62.2889C24.9263 62.7265 23.9985 63.2549 23.0972 63.8393L22.9631 63.6643Z" fill="#1F2B3D"/>
<mask id="mask1" mask-type="alpha" maskUnits="userSpaceOnUse" x="77" y="61" width="28" height="19">
<path d="M77.73 61.8403H104.78V79.8174H77.73V61.8403Z" fill="white"/>
</mask>
<g mask="url(#mask1)">
<path fill-rule="evenodd" clip-rule="evenodd" d="M104.154 70.8717C102.341 65.6549 96.2545 62.4111 90.4614 61.9651C81.0931 61.2431 77.73 63.8909 77.73 63.8909L84.0984 78.288C84.0984 78.288 109.002 84.8241 104.154 70.8717Z" fill="#1F2B3D"/>
</g>
<path fill-rule="evenodd" clip-rule="evenodd" d="M85.6571 66.7791C78.6909 62.2056 71.2857 62.8068 68.4132 63.5575C61.2525 65.4294 55.7021 71.0216 55.3368 73.2294C54.8246 76.3255 69.0357 67.6134 69.0357 67.6134C69.0357 67.6134 58.2476 72.2661 57.8506 75.0346C57.0022 80.9513 71.2156 71.6697 71.2156 71.6697C71.2156 71.6697 64.8613 73.8533 62.4979 79.1572C60.1337 84.4616 72.9446 76.5541 77.1309 74.7892C77.1309 74.7892 68.5496 80.2129 70.9041 82.2776C73.2582 84.3418 74.3012 78.5427 87.0984 78.5749" fill="white"/>
<path fill-rule="evenodd" clip-rule="evenodd" d="M85.597 66.8721C81.9414 64.8141 77.8354 63.7526 73.7527 63.7579C71.7118 63.7605 69.6802 63.9913 67.8012 64.6324C65.8839 65.2633 64.0614 66.1784 62.3545 67.2655C60.6568 68.3606 59.0748 69.6671 57.7482 71.13C57.4208 71.4969 57.1133 71.8771 56.8534 72.264C56.7259 72.4563 56.6042 72.6526 56.5076 72.8383C56.4048 73.0231 56.3284 73.2101 56.2967 73.3379L56.2821 73.3861C56.2821 73.3861 56.279 73.3967 56.2804 73.3905C56.2782 73.3874 56.2804 73.3613 56.2667 73.3038C56.2539 73.249 56.2155 73.1606 56.1546 73.0898C56.0942 73.0187 56.0254 72.9771 55.9874 72.9603C55.9062 72.9298 55.9345 72.9523 55.9905 72.9528C56.0465 72.9577 56.1361 72.9528 56.2305 72.9417C56.6227 72.8958 57.1036 72.7556 57.5677 72.5991C58.5109 72.287 59.4652 71.8829 60.4067 71.4589C61.3499 71.031 62.2932 70.5866 63.2271 70.1211C65.0933 69.1878 66.9555 68.2134 68.7705 67.1785L69.2373 68.0817C68.099 68.5264 66.9639 69.0216 65.853 69.5499C64.7359 70.0681 63.6445 70.6406 62.5812 71.2551C61.5176 71.8639 60.4834 72.5368 59.5636 73.3136C59.1145 73.7039 58.6689 74.1244 58.4015 74.597C58.334 74.7128 58.2837 74.8309 58.252 74.9432C58.2335 75.002 58.2282 75.047 58.2185 75.1116L58.1995 75.3194C58.1854 75.5926 58.2083 75.8592 58.2992 76.0573C58.3848 76.2593 58.5259 76.3893 58.7333 76.4755C58.9398 76.563 59.2071 76.5856 59.4785 76.5758C60.0277 76.5524 60.6061 76.4109 61.1712 76.2301C62.3055 75.8627 63.4142 75.3472 64.4995 74.7928C66.6626 73.6694 68.7626 72.3568 70.7699 70.9841L71.4802 72.4435C70.4443 72.8723 69.3745 73.4687 68.4057 74.1107C67.4258 74.7553 66.5187 75.4967 65.7185 76.3181C64.9235 77.1422 64.2357 78.0556 63.7437 79.0512C63.6242 79.2917 63.4954 79.5707 63.4137 79.7838C63.3268 79.9969 63.2986 80.2214 63.3083 80.2166C63.3145 80.2122 63.2955 80.0831 63.1918 79.9677C63.0877 79.8545 63.0043 79.8399 63.0207 79.8426C63.0502 79.8536 63.288 79.8496 63.5139 79.805C63.9908 79.7183 64.5423 79.5371 65.0814 79.3337C65.6245 79.1277 66.1715 78.8934 66.7173 78.6458C67.8092 78.1475 68.8976 77.6024 69.9899 77.0533L73.2687 75.3627C74.3743 74.7937 75.4592 74.2216 76.6786 73.7119L77.7533 75.7783C75.9021 76.968 74.0051 78.3253 72.5549 79.8496C72.2007 80.2259 71.8799 80.6282 71.6937 80.9845C71.6024 81.1583 71.5557 81.317 71.5499 81.386C71.5539 81.4567 71.5292 81.4156 71.557 81.4615C71.5627 81.4744 71.5742 81.4814 71.5976 81.5075C71.6307 81.5385 71.6629 81.5668 71.692 81.5898C71.7515 81.6366 71.8005 81.6667 71.834 81.6835C71.8985 81.7118 71.9214 81.7286 72.0732 81.7025C72.3736 81.6419 72.8937 81.3621 73.3843 81.0919C74.3933 80.5278 75.4883 79.9584 76.6177 79.5463C77.7511 79.1312 78.914 78.8262 80.0832 78.621C82.4262 78.2147 84.7839 78.201 87.0987 78.3739L87.0979 78.7762C84.8033 78.9416 82.5304 79.2776 80.3682 79.8863C79.2882 80.1914 78.2373 80.5672 77.2411 81.0429C76.2361 81.5124 75.3087 82.0694 74.347 82.7056C73.844 83.0125 73.3852 83.3812 72.5695 83.6323C72.1658 83.7561 71.5839 83.7746 71.1092 83.5885C70.8732 83.5019 70.6707 83.3865 70.4955 83.2662C70.4068 83.2052 70.327 83.1433 70.2502 83.0801C70.1682 83.0085 70.0689 82.9209 69.9846 82.8206C69.6193 82.4377 69.4142 81.8024 69.4451 81.2984C69.4658 80.7878 69.6154 80.3894 69.7737 80.0446C70.1033 79.3642 70.5096 78.8536 70.9248 78.3721C71.7665 77.4269 72.6802 76.6453 73.612 75.8977C74.5517 75.1527 75.4936 74.4692 76.5087 73.8007L77.5835 75.8672C76.5383 76.3349 75.4376 76.911 74.3479 77.4645L71.0465 79.1551C69.9365 79.7174 68.8111 80.2595 67.6468 80.7586C67.0654 81.0097 66.4737 81.2498 65.8601 81.4695C65.2411 81.6857 64.6151 81.8908 63.8765 82.0129C63.4967 82.0624 63.1084 82.1265 62.5327 82.0071C62.2508 81.9417 61.8714 81.7984 61.5599 81.4545C61.2454 81.111 61.1315 80.6706 61.1174 80.3603C61.1007 79.7347 61.2555 79.3527 61.3892 78.9928C61.5374 78.6334 61.6835 78.358 61.8467 78.0503C62.4935 76.8522 63.3493 75.8004 64.2979 74.883C65.2477 73.9639 66.3092 73.1933 67.4174 72.5275C67.9711 72.1928 68.5455 71.897 69.1296 71.6256C69.7217 71.3528 70.2921 71.111 70.9508 70.8957L77.9655 68.6012L71.6611 72.3551C69.494 73.6451 67.2983 74.8185 65.0007 75.8464C63.8518 76.3548 62.6792 76.8256 61.436 77.1541C60.8135 77.3137 60.1711 77.4419 59.4815 77.4344C59.1365 77.4238 58.7735 77.3831 58.4095 77.2235C58.2286 77.1435 58.0543 77.025 57.9043 76.8769C57.7632 76.7222 57.641 76.5445 57.573 76.3557C57.4239 75.9786 57.4199 75.6068 57.4459 75.2641L57.4777 75.0099C57.4918 74.9215 57.5134 74.8127 57.5448 74.7256C57.6043 74.5417 57.686 74.3764 57.779 74.2278C58.158 73.6367 58.6323 73.1973 59.1198 72.7852C60.1049 71.9753 61.1695 71.3143 62.2345 70.6627C64.387 69.3925 66.5871 68.2479 68.8349 67.1453L69.3012 68.0485C67.5211 69.194 65.7383 70.3183 63.9074 71.386C62.0704 72.4514 60.2293 73.4838 58.1809 74.3083C57.6564 74.5037 57.1314 74.6894 56.4829 74.795C56.3174 74.8194 56.144 74.8393 55.9376 74.8353C55.7324 74.8273 55.4937 74.8167 55.1739 74.673C55.0173 74.6005 54.839 74.4807 54.6948 74.3074C54.5492 74.1368 54.4543 73.9254 54.4115 73.7428C54.3674 73.5571 54.3639 73.398 54.3723 73.2636C54.3749 73.192 54.3842 73.1358 54.3926 73.0717L54.4212 72.928C54.5033 72.5416 54.6317 72.2383 54.7693 71.9563C54.9061 71.6698 55.0658 71.4205 55.2255 71.1724C55.5498 70.6839 55.9032 70.2422 56.272 69.8218C57.7451 68.1383 59.4917 66.8058 61.3371 65.6461C63.1865 64.4913 65.1935 63.5868 67.2952 62.9807C67.8158 62.8334 68.3523 62.6876 68.9059 62.589C69.4521 62.4855 69.9983 62.4241 70.5423 62.3776C71.6315 62.2866 72.7186 62.2844 73.799 62.3467C78.1142 62.6212 82.3442 64.1102 85.7174 66.6868L85.597 66.8721Z" fill="#1F2B3D"/>
</svg>
