<svg width="77" height="60" viewBox="0 0 77 60" fill="none" xmlns="http://www.w3.org/2000/svg">
<g clip-path="url(#clip0)">
<path d="M9.78794 -0.98291H3.26251C1.82297 -0.978623 0.656805 0.142106 0.652344 1.52556V41.6612H76.3473V1.52556C76.3473 0.140269 75.1785 -0.98291 73.7371 -0.98291H9.78794Z" fill="#9A9FA3"/>
<path d="M70.7568 3.88159H36.4814V42.9216H70.7568V3.88159Z" fill="white"/>
<path d="M39.0207 3.88159H7.28418V42.9216H39.0207V3.88159Z" fill="#F97350"/>
<path d="M21.2478 39.2615C21.0574 39.2615 20.8631 39.22 20.6803 39.1334C20.0532 38.8321 19.7994 38.0988 20.1129 37.4961L23.9213 30.1762C24.2348 29.5735 24.9991 29.3295 25.6249 29.6308C26.2521 29.9321 26.5059 30.6654 26.1924 31.2681L22.384 38.588C22.1618 39.0151 21.7137 39.2615 21.2478 39.2615Z" fill="white"/>
<path d="M12.3626 35.6017C12.0376 35.6017 11.7126 35.4822 11.4651 35.2443C10.9687 34.7673 10.9687 33.9962 11.4651 33.5193L15.2735 29.8593C15.7686 29.3822 16.5734 29.3822 17.0685 29.8593C17.5649 30.3363 17.5649 31.1074 17.0685 31.5843L13.2601 35.2443C13.0124 35.4822 12.6876 35.6017 12.3626 35.6017Z" fill="white"/>
<path d="M16.1708 39.2617C15.8458 39.2617 15.5208 39.1421 15.2734 38.9043L11.4651 35.2442C10.9687 34.7672 10.9687 33.9961 11.4651 33.5192C11.9602 33.0421 12.7649 33.0421 13.2601 33.5192L17.0685 37.1792C17.5649 37.6563 17.5649 38.4273 17.0685 38.9043C16.8208 39.1421 16.4958 39.2617 16.1708 39.2617Z" fill="white"/>
<path d="M33.9434 35.6017C33.6184 35.6017 33.2934 35.4822 33.046 35.2443L29.2375 31.5843C28.7411 31.1072 28.7411 30.3362 29.2375 29.8593C29.7327 29.3822 30.5374 29.3822 31.0325 29.8593L34.8409 33.5193C35.3374 33.9964 35.3374 34.7674 34.8409 35.2443C34.5933 35.4822 34.2684 35.6017 33.9434 35.6017Z" fill="white"/>
<path d="M30.135 39.2617C29.81 39.2617 29.485 39.1421 29.2375 38.9043C28.7411 38.4272 28.7411 37.6561 29.2375 37.1792L33.046 33.5192C33.5411 33.0421 34.3458 33.0421 34.8409 33.5192C35.3374 33.9963 35.3374 34.7673 34.8409 35.2442L31.0325 38.9043C30.785 39.1421 30.46 39.2617 30.135 39.2617Z" fill="white"/>
<path d="M23.7881 18.5216C23.0873 18.5216 22.5186 17.975 22.5186 17.3015V8.76156C22.5186 8.0881 23.0873 7.5415 23.7881 7.5415C24.4888 7.5415 25.0576 8.0881 25.0576 8.76156V17.3015C25.0576 17.975 24.4888 18.5216 23.7881 18.5216Z" fill="white"/>
<path d="M23.7881 25.8415C23.0873 25.8415 22.5186 25.2949 22.5186 24.6215V22.1815C22.5186 21.508 23.0873 20.9614 23.7881 20.9614C24.4888 20.9614 25.0576 21.508 25.0576 22.1815V24.6215C25.0576 25.2951 24.4888 25.8415 23.7881 25.8415Z" fill="white"/>
<path d="M56.7932 9.98161H44.0986C43.3979 9.98161 42.8291 9.43502 42.8291 8.76156C42.8291 8.0881 43.3979 7.5415 44.0986 7.5415H56.7932C57.494 7.5415 58.0627 8.0881 58.0627 8.76156C58.0627 9.43502 57.494 9.98161 56.7932 9.98161Z" fill="#4F5FFF"/>
<path d="M65.6795 9.98161H61.8711C61.1703 9.98161 60.6016 9.43502 60.6016 8.76156C60.6016 8.0881 61.1703 7.5415 61.8711 7.5415H65.6795C66.3803 7.5415 66.949 8.0881 66.949 8.76156C66.949 9.43502 66.3803 9.98161 65.6795 9.98161Z" fill="#F15396"/>
<path d="M65.679 14.8615H52.9844C52.2836 14.8615 51.7148 14.3149 51.7148 13.6414C51.7148 12.968 52.2836 12.4214 52.9844 12.4214H65.679C66.3797 12.4214 66.9485 12.968 66.9485 13.6414C66.9485 14.3149 66.3797 14.8615 65.679 14.8615Z" fill="#F15396"/>
<path d="M47.907 14.8615H44.0986C43.3979 14.8615 42.8291 14.3149 42.8291 13.6414C42.8291 12.968 43.3979 12.4214 44.0986 12.4214H47.907C48.6078 12.4214 49.1765 12.968 49.1765 13.6414C49.1765 14.3149 48.6078 14.8615 47.907 14.8615Z" fill="#08C5A6"/>
<path d="M56.7932 19.7416H44.0986C43.3979 19.7416 42.8291 19.195 42.8291 18.5216C42.8291 17.8481 43.3979 17.3015 44.0986 17.3015H56.7932C57.494 17.3015 58.0627 17.8481 58.0627 18.5216C58.0627 19.195 57.494 19.7416 56.7932 19.7416Z" fill="#F15396"/>
<path d="M65.6795 19.7416H61.8711C61.1703 19.7416 60.6016 19.195 60.6016 18.5216C60.6016 17.8481 61.1703 17.3015 61.8711 17.3015H65.6795C66.3803 17.3015 66.949 17.8481 66.949 18.5216C66.949 19.195 66.3803 19.7416 65.6795 19.7416Z" fill="#F37C18"/>
<path d="M65.679 24.6218H52.9844C52.2836 24.6218 51.7148 24.0752 51.7148 23.4017C51.7148 22.7282 52.2836 22.1816 52.9844 22.1816H65.679C66.3797 22.1816 66.9485 22.7282 66.9485 23.4017C66.9485 24.0752 66.3797 24.6218 65.679 24.6218Z" fill="#4F5FFF"/>
<path d="M47.907 24.6218H44.0986C43.3979 24.6218 42.8291 24.0752 42.8291 23.4017C42.8291 22.7282 43.3979 22.1816 44.0986 22.1816H47.907C48.6078 22.1816 49.1765 22.7282 49.1765 23.4017C49.1765 24.0752 48.6078 24.6218 47.907 24.6218Z" fill="#F15396"/>
<path d="M65.679 39.2614H52.9844C52.2836 39.2614 51.7148 38.7148 51.7148 38.0413C51.7148 37.3679 52.2836 36.8213 52.9844 36.8213H65.679C66.3797 36.8213 66.9485 37.3679 66.9485 38.0413C66.9485 38.7148 66.3797 39.2614 65.679 39.2614Z" fill="#FCD740"/>
<path d="M47.907 39.2614H44.0986C43.3979 39.2614 42.8291 38.7148 42.8291 38.0413C42.8291 37.3679 43.3979 36.8213 44.0986 36.8213H47.907C48.6078 36.8213 49.1765 37.3679 49.1765 38.0413C49.1765 38.7148 48.6078 39.2614 47.907 39.2614Z" fill="#4F5FFF"/>
<path d="M56.7932 29.5016H44.0986C43.3979 29.5016 42.8291 28.955 42.8291 28.2816C42.8291 27.6081 43.3979 27.0615 44.0986 27.0615H56.7932C57.494 27.0615 58.0627 27.6081 58.0627 28.2816C58.0627 28.955 57.494 29.5016 56.7932 29.5016Z" fill="#08C5A6"/>
<path d="M65.6795 29.5016H61.8711C61.1703 29.5016 60.6016 28.955 60.6016 28.2816C60.6016 27.6081 61.1703 27.0615 61.8711 27.0615H65.6795C66.3803 27.0615 66.949 27.6081 66.949 28.2816C66.949 28.955 66.3803 29.5016 65.6795 29.5016Z" fill="#F15396"/>
<path d="M65.679 34.3815H52.9844C52.2836 34.3815 51.7148 33.8349 51.7148 33.1615C51.7148 32.488 52.2836 31.9414 52.9844 31.9414H65.679C66.3797 31.9414 66.9485 32.488 66.9485 33.1615C66.9485 33.8349 66.3797 34.3815 65.679 34.3815Z" fill="#F15396"/>
<path d="M47.907 34.3815H44.0986C43.3979 34.3815 42.8291 33.8349 42.8291 33.1615C42.8291 32.488 43.3979 31.9414 44.0986 31.9414H47.907C48.6078 31.9414 49.1765 32.488 49.1765 33.1615C49.1765 33.8349 48.6078 34.3815 47.907 34.3815Z" fill="#F37C18"/>
<path d="M46.3303 41.6611H0.652344V49.1866C0.656805 50.57 1.82297 51.6907 3.26251 51.695H73.7371C75.1766 51.6907 76.3428 50.57 76.3473 49.1866V41.6611H46.3303Z" fill="#2A3958"/>
<path d="M45.0255 58.9067H31.9746L32.6997 51.6948H44.3004L45.0255 58.9067Z" fill="#58647B"/>
<path d="M24.1445 56.7119V60.4746H52.8564V56.7119H24.1445Z" fill="#2A3958"/>
</g>
<defs>
<clipPath id="clip0">
<rect width="77" height="60" fill="white"/>
</clipPath>
</defs>
</svg>
