<svg width="100" height="80" viewBox="0 0 100 80" fill="none" xmlns="http://www.w3.org/2000/svg">
<rect width="100" height="80" fill="white"/>
<rect width="90" height="58" transform="translate(5 11)" fill="white"/>
<path fill-rule="evenodd" clip-rule="evenodd" d="M83.2168 22.6863C83.2168 23.2872 82.7309 23.7749 82.1282 23.7749H81.427C80.8243 23.7749 80.3384 23.2872 80.3384 22.6863V21.9827C80.3384 21.3818 80.8243 20.8941 81.427 20.8941H82.1282C82.7309 20.8941 83.2168 21.3818 83.2168 21.9827V22.6863ZM83.2185 64.8581C83.2185 65.4596 82.7326 65.9467 82.1299 65.9467H18.639C18.0375 65.9467 17.5504 65.4596 17.5504 64.8581V26.9035C17.5504 26.3026 18.0375 25.8149 18.639 25.8149H82.1299C82.7326 25.8149 83.2185 26.3026 83.2185 26.9035V64.8581ZM17.5504 21.9827C17.5504 21.3818 18.0375 20.8941 18.639 20.8941H19.342C19.9435 20.8941 20.4306 21.3818 20.4306 21.9827V22.6863C20.4306 23.2872 19.9435 23.7749 19.342 23.7749H18.639C18.0375 23.7749 17.5504 23.2872 17.5504 22.6863V21.9827ZM71.3757 21.9827C71.3757 21.3818 71.8635 20.8941 72.465 20.8941H73.1679C73.7695 20.8941 74.2566 21.3818 74.2566 21.9827V22.6863C74.2566 23.2872 73.7695 23.7749 73.1679 23.7749H72.465C71.8635 23.7749 71.3757 23.2872 71.3757 22.6863V21.9827ZM75.8563 21.9827C75.8563 21.3818 76.344 20.8941 76.9449 20.8941H77.6485C78.2494 20.8941 78.7396 21.3818 78.7396 21.9827V22.6863C78.7396 23.2872 78.2494 23.7749 77.6485 23.7749H76.9449C76.344 23.7749 75.8563 23.2872 75.8563 22.6863V21.9827ZM83.592 19H17.1778C15.9754 19 15 19.9811 15 21.1919V66.8081C15 68.0189 15.9754 69 17.1778 69H83.592C84.7913 69 85.7692 68.0189 85.7692 66.8081V21.1919C85.7692 19.9811 84.7913 19 83.592 19Z" fill="#58647B"/>
<path d="M36.6889 29.2085C34.9012 29.2085 33.4619 30.6723 33.4619 32.4905V50.5418C33.4619 52.36 34.9012 53.8239 36.6889 53.8239H63.3118C65.0996 53.8239 66.5388 52.36 66.5388 50.5418V32.4905C66.5388 30.6723 65.0996 29.2085 63.3118 29.2085H36.6889ZM47.1767 35.7726L56.051 41.5162L47.1767 47.2598V35.7726Z" fill="#08C5A6"/>
<rect x="33.4619" y="56.1313" width="33.0769" height="7.69231" rx="3.84615" fill="#2A3958"/>
<path d="M63.4612 58.9776H55.3073C54.9227 58.2084 54.1535 57.6699 53.2304 57.6699C52.3073 57.6699 51.615 58.2084 51.2304 58.9776H36.5381V60.5161H50.9996C51.2304 61.5161 52.1535 62.2853 53.2304 62.2853C54.3073 62.2853 55.2304 61.5161 55.4612 60.5161H63.4612V58.9776ZM53.3073 60.7468C52.8458 60.7468 52.5381 60.4392 52.5381 59.9776C52.5381 59.5161 52.8458 59.2084 53.3073 59.2084C53.7689 59.2084 54.0765 59.5161 54.0765 59.9776C54.0765 60.4392 53.6919 60.7468 53.3073 60.7468Z" fill="#FCD740"/>
<path fill-rule="evenodd" clip-rule="evenodd" d="M11.0043 11H6.99572C5.8935 11 5 11.8935 5 12.9957V17.0043C5 18.1065 5.8935 19 6.99572 19H11.0043C12.1065 19 13 18.1065 13 17.0043V12.9957C13 11.8935 12.1065 11 11.0043 11Z" fill="#08C5A6"/>
<path fill-rule="evenodd" clip-rule="evenodd" d="M93.7527 46H91.2473C90.5584 46 90 46.5584 90 47.2473V49.7527C90 50.4416 90.5584 51 91.2473 51H93.7527C94.4416 51 95 50.4416 95 49.7527V47.2473C95 46.5584 94.4416 46 93.7527 46Z" fill="#08C5A6"/>
</svg>
