<?xml version="1.0" encoding="utf-8"?>
<!-- Generator: Adobe Illustrator 14.0.0, SVG Export Plug-In . SVG Version: 6.00 Build 43363)  -->
<!DOCTYPE svg PUBLIC "-//W3C//DTD SVG 1.1//EN" "http://www.w3.org/Graphics/SVG/1.1/DTD/svg11.dtd">
<svg version="1.1" id="圖層_1" xmlns="http://www.w3.org/2000/svg" xmlns:xlink="http://www.w3.org/1999/xlink" x="0px" y="0px"
	 width="1376px" height="651.065px" viewBox="0 239.013 1376 651.065" enable-background="new 0 239.013 1376 651.065"
	 xml:space="preserve">
<path fill="#F37C18" d="M1072.727,775.745c-0.516,0.521-1.36,0.521-1.876,0l-3.816-3.865c-0.515-0.522-0.515-1.378,0-1.901
	c0.518-0.521,1.361-0.521,1.877,0l3.815,3.865C1073.241,774.367,1073.241,775.222,1072.727,775.745z"/>
<path fill="#F37C18" d="M1072.663,779.182c0.518,0.523,0.518,1.378,0,1.901l-3.814,3.866c-0.517,0.521-1.36,0.521-1.876,0
	c-0.518-0.523-0.518-1.379,0-1.901l3.813-3.866C1071.304,778.66,1072.148,778.66,1072.663,779.182z"/>
<path fill="#F37C18" d="M1076.058,779.247c0.516-0.523,1.358-0.523,1.876,0l3.814,3.865c0.518,0.521,0.518,1.378,0,1.899
	c-0.516,0.523-1.359,0.523-1.877,0l-3.813-3.864C1075.541,780.625,1075.541,779.768,1076.058,779.247z"/>
<path fill="#F37C18" d="M1076.118,775.808c-0.516-0.521-0.516-1.378,0-1.899l3.816-3.865c0.516-0.523,1.36-0.523,1.876,0
	c0.516,0.521,0.516,1.378,0,1.901l-3.814,3.863C1077.48,776.332,1076.636,776.332,1076.118,775.808z"/>
<path fill="#4F5FFF" d="M269.172,291.767c-0.677,0.686-1.785,0.686-2.462,0l-5.008-5.073c-0.678-0.686-0.678-1.809,0-2.495
	c0.677-0.688,1.784-0.688,2.463,0l5.007,5.073C269.849,289.958,269.849,291.081,269.172,291.767z"/>
<path fill="#4F5FFF" d="M269.09,296.278c0.677,0.687,0.677,1.809,0,2.495l-5.007,5.073c-0.679,0.686-1.786,0.686-2.463,0
	c-0.678-0.686-0.678-1.809,0-2.495l5.007-5.073C267.305,295.593,268.414,295.593,269.09,296.278z"/>
<path fill="#4F5FFF" d="M273.544,296.361c0.677-0.686,1.785-0.686,2.462,0l5.008,5.073c0.678,0.686,0.678,1.809,0,2.495
	c-0.677,0.687-1.784,0.687-2.463,0l-5.007-5.073C272.868,298.17,272.868,297.048,273.544,296.361z"/>
<path fill="#4F5FFF" d="M273.626,291.85c-0.677-0.686-0.677-1.809,0-2.495l5.007-5.073c0.679-0.688,1.786-0.688,2.463,0
	c0.678,0.686,0.678,1.809,0,2.495l-5.007,5.073C275.412,292.536,274.303,292.536,273.626,291.85z"/>
<path fill="#4F5FFF" d="M1183.172,688.767c-0.681,0.687-1.789,0.687-2.459,0l-5.011-5.072c-0.682-0.687-0.682-1.81,0-2.495
	c0.681-0.688,1.789-0.688,2.459,0l5.011,5.073C1183.852,686.958,1183.852,688.08,1183.172,688.767z"/>
<path fill="#4F5FFF" d="M1183.092,693.278c0.68,0.687,0.68,1.81,0,2.495l-5.01,5.072c-0.681,0.687-1.779,0.687-2.459,0
	c-0.683-0.687-0.683-1.81,0-2.495l5.01-5.072C1181.303,692.593,1182.411,692.593,1183.092,693.278z"/>
<path fill="#4F5FFF" d="M1187.543,693.361c0.68-0.687,1.788-0.687,2.459,0l5.01,5.072c0.68,0.688,0.68,1.81,0,2.495
	c-0.681,0.687-1.779,0.688-2.459,0l-5.01-5.072C1186.863,695.171,1186.863,694.048,1187.543,693.361z"/>
<path fill="#4F5FFF" d="M1187.623,688.85c-0.671-0.686-0.671-1.809,0-2.494l5.01-5.073c0.68-0.688,1.789-0.688,2.459,0
	c0.68,0.687,0.68,1.81,0,2.495l-5,5.072C1189.411,689.535,1188.303,689.535,1187.623,688.85z"/>
<path fill="#08C5A6" d="M344.781,503.61c-0.727,0.751-1.914,0.751-2.641,0l-5.368-5.557c-0.726-0.752-0.726-1.981,0-2.732
	c0.727-0.752,1.914-0.752,2.641,0l5.368,5.556C345.506,501.629,345.506,502.858,344.781,503.61z"/>
<path fill="#08C5A6" d="M344.692,508.553c0.728,0.752,0.728,1.981,0,2.733l-5.367,5.556c-0.727,0.752-1.914,0.752-2.641,0
	c-0.727-0.751-0.727-1.98,0-2.731l5.368-5.558C342.778,507.802,343.966,507.802,344.692,508.553z"/>
<path fill="#08C5A6" d="M349.466,508.644c0.726-0.752,1.914-0.752,2.64,0l5.368,5.557c0.727,0.752,0.727,1.98,0,2.732
	c-0.727,0.751-1.914,0.751-2.64,0l-5.368-5.557C348.74,510.625,348.74,509.395,349.466,508.644z"/>
<path fill="#08C5A6" d="M349.554,503.702c-0.727-0.752-0.727-1.981,0-2.733l5.368-5.556c0.726-0.752,1.914-0.752,2.64,0
	c0.727,0.751,0.727,1.98,0,2.731l-5.368,5.558C351.468,504.453,350.281,504.453,349.554,503.702z"/>
</svg>
