<?xml version="1.0" encoding="utf-8"?>
<!-- Generator: Adobe Illustrator 14.0.0, SVG Export Plug-In . SVG Version: 6.00 Build 43363)  -->
<!DOCTYPE svg PUBLIC "-//W3C//DTD SVG 1.1//EN" "http://www.w3.org/Graphics/SVG/1.1/DTD/svg11.dtd">
<svg version="1.1" id="圖層_1" xmlns="http://www.w3.org/2000/svg" xmlns:xlink="http://www.w3.org/1999/xlink" x="0px" y="0px"
	 width="1376px" height="1376px" viewBox="0 0 1376 1376" enable-background="new 0 0 1376 1376" xml:space="preserve">
<path fill="#F37C18" d="M1343.727,134.745c-0.516,0.523-1.36,0.523-1.876,0l-3.816-3.865c-0.515-0.523-0.515-1.378,0-1.901
	c0.517-0.523,1.361-0.523,1.877,0l3.815,3.865C1344.242,133.367,1344.242,134.222,1343.727,134.745z"/>
<path fill="#F37C18" d="M1343.664,138.183c0.517,0.522,0.517,1.378,0,1.901l-3.815,3.865c-0.517,0.523-1.36,0.523-1.876,0
	c-0.517-0.523-0.517-1.378,0-1.901l3.814-3.865C1342.304,137.66,1343.148,137.66,1343.664,138.183z"/>
<path fill="#F37C18" d="M1347.058,138.246c0.516-0.523,1.359-0.523,1.876,0l3.815,3.866c0.517,0.522,0.517,1.378,0,1.901
	c-0.516,0.522-1.36,0.522-1.877,0l-3.814-3.866C1346.541,139.624,1346.541,138.769,1347.058,138.246z"/>
<path fill="#F37C18" d="M1347.119,134.808c-0.516-0.522-0.516-1.378,0-1.901l3.816-3.865c0.516-0.523,1.36-0.523,1.876,0
	s0.516,1.378,0,1.901l-3.815,3.865C1348.48,135.331,1347.636,135.331,1347.119,134.808z"/>
<path fill="#4F5FFF" d="M1014.646,99.669c-0.677,0.686-1.785,0.686-2.462,0l-5.008-5.073c-0.678-0.686-0.678-1.809,0-2.495
	c0.677-0.687,1.785-0.687,2.463,0l5.007,5.073C1015.322,97.86,1015.322,98.983,1014.646,99.669z"/>
<path fill="#4F5FFF" d="M1014.563,104.181c0.677,0.687,0.677,1.809,0,2.495l-5.007,5.073c-0.678,0.686-1.786,0.686-2.463,0
	c-0.678-0.686-0.678-1.809,0-2.495l5.007-5.073C1012.778,103.496,1013.887,103.496,1014.563,104.181z"/>
<path fill="#4F5FFF" d="M1019.018,104.264c0.677-0.686,1.785-0.686,2.462,0l5.008,5.073c0.677,0.687,0.677,1.809,0,2.495
	c-0.677,0.687-1.785,0.687-2.463,0l-5.007-5.073C1018.341,106.073,1018.341,104.951,1019.018,104.264z"/>
<path fill="#4F5FFF" d="M1019.1,99.752c-0.677-0.686-0.677-1.809,0-2.495l5.007-5.073c0.678-0.687,1.786-0.687,2.463,0
	c0.677,0.686,0.677,1.809,0,2.495l-5.007,5.073C1020.885,100.438,1019.776,100.438,1019.1,99.752z"/>
<path fill="#FFFFFF" d="M1200.754,124.802c-0.434,0.439-1.142,0.439-1.574,0l-3.2-3.247c-0.433-0.438-0.433-1.158,0-1.597
	s1.141-0.439,1.574,0l3.2,3.247C1201.187,123.645,1201.187,124.363,1200.754,124.802z"/>
<path fill="#FFFFFF" d="M1200.7,127.69c0.434,0.439,0.434,1.157,0,1.597l-3.2,3.247c-0.433,0.438-1.141,0.438-1.573,0
	c-0.434-0.44-0.434-1.158,0-1.597l3.2-3.247C1199.56,127.251,1200.269,127.251,1200.7,127.69z"/>
<path fill="#FFFFFF" d="M1203.547,127.744c0.433-0.439,1.141-0.439,1.573,0l3.201,3.247c0.433,0.439,0.433,1.158,0,1.597
	s-1.142,0.439-1.574,0l-3.2-3.247C1203.114,128.901,1203.114,128.183,1203.547,127.744z"/>
<path fill="#FFFFFF" d="M1203.6,124.855c-0.434-0.439-0.434-1.157,0-1.597l3.2-3.246c0.433-0.44,1.141-0.44,1.573,0
	c0.434,0.439,0.434,1.157,0,1.596l-3.199,3.247C1204.74,125.295,1204.032,125.295,1203.6,124.855z"/>
<path fill="#F37C18" d="M103.253,356.842c-0.516,0.523-1.36,0.523-1.876,0l-3.815-3.865c-0.516-0.523-0.516-1.378,0-1.901
	s1.36-0.523,1.876,0l3.815,3.865C103.77,355.464,103.77,356.319,103.253,356.842z"/>
<path fill="#F37C18" d="M103.191,360.28c0.517,0.523,0.517,1.378,0,1.901l-3.815,3.866c-0.516,0.521-1.36,0.521-1.876,0
	c-0.516-0.523-0.516-1.379,0-1.901l3.815-3.866C101.831,359.757,102.675,359.757,103.191,360.28z"/>
<path fill="#F37C18" d="M106.584,360.344c0.516-0.523,1.36-0.523,1.876,0l3.815,3.865c0.517,0.523,0.517,1.378,0,1.901
	c-0.516,0.523-1.36,0.523-1.876,0l-3.815-3.865C106.069,361.722,106.069,360.866,106.584,360.344z"/>
<path fill="#F37C18" d="M106.647,356.906c-0.516-0.523-0.516-1.378,0-1.901l3.815-3.865c0.516-0.523,1.36-0.523,1.876,0
	c0.517,0.522,0.517,1.378,0,1.901l-3.815,3.865C108.007,357.429,107.163,357.429,106.647,356.906z"/>
<path fill="#FEDA17" d="M373.977,638.331c-1.152,0.544-2.534,0.04-3.067-1.117l-3.947-8.565c-0.534-1.159-0.027-2.552,1.127-3.096
	c1.153-0.544,2.534-0.042,3.068,1.116l3.946,8.565C375.638,636.393,375.131,637.785,373.977,638.331z"/>
<path fill="#FEDA17" d="M371.959,643.874c0.534,1.157,0.026,2.551-1.126,3.095l-8.53,4.024c-1.153,0.544-2.534,0.041-3.068-1.116
	c-0.533-1.159-0.026-2.553,1.128-3.097l8.528-4.023C370.045,642.213,371.426,642.715,371.959,643.874z"/>
<path fill="#FEDA17" d="M377.195,646.584c1.154-0.544,2.534-0.042,3.068,1.116l3.947,8.565c0.534,1.158,0.027,2.552-1.126,3.096
	c-1.154,0.544-2.535,0.041-3.068-1.117l-3.948-8.564C375.535,648.521,376.042,647.128,377.195,646.584z"/>
<path fill="#FEDA17" d="M379.471,640.33c-0.534-1.158-0.027-2.553,1.126-3.097l8.53-4.023c1.153-0.544,2.534-0.042,3.067,1.116
	c0.534,1.158,0.027,2.552-1.127,3.097l-8.528,4.023C381.385,641.99,380.004,641.487,379.471,640.33z"/>
<g>
	<path fill="#2BD8BC" d="M155.127,147.889c0.451,0.458,1.189,0.458,1.641,0l3.34-3.382c0.451-0.458,0.451-1.206,0-1.663
		c-0.452-0.458-1.191-0.458-1.643,0l-3.338,3.382C154.675,146.683,154.675,147.431,155.127,147.889z"/>
	<path fill="#2BD8BC" d="M155.182,150.896c-0.452,0.457-0.452,1.206,0,1.664l3.338,3.382c0.451,0.458,1.19,0.458,1.643,0
		c0.451-0.458,0.451-1.206,0-1.663l-3.339-3.383C156.371,150.439,155.633,150.439,155.182,150.896z"/>
	<path fill="#2BD8BC" d="M152.212,150.952c-0.452-0.458-1.19-0.458-1.642,0l-3.338,3.382c-0.452,0.457-0.452,1.206,0,1.664
		c0.452,0.457,1.19,0.457,1.642,0l3.338-3.383C152.664,152.158,152.664,151.409,152.212,150.952z"/>
	<path fill="#2BD8BC" d="M152.158,147.944c0.451-0.458,0.451-1.206,0-1.664l-3.338-3.382c-0.452-0.458-1.19-0.458-1.642,0
		c-0.452,0.457-0.452,1.206,0,1.663l3.338,3.382C150.967,148.402,151.706,148.402,152.158,147.944z"/>
</g>
<g>
	<path fill="#FEDA17" d="M1269.32,1333.932c-0.99,1.014-2.61,1.014-3.601,0l-7.319-7.488c-0.99-1.014-0.99-2.671,0-3.684
		c0.989-1.014,2.609-1.014,3.6,0l7.32,7.489C1270.31,1331.262,1270.31,1332.919,1269.32,1333.932z"/>
	<path fill="#FEDA17" d="M1269.199,1340.592c0.99,1.013,0.99,2.67,0,3.684l-7.32,7.488c-0.989,1.014-2.609,1.014-3.6,0
		c-0.99-1.013-0.99-2.67,0-3.683l7.32-7.489C1266.59,1339.578,1268.209,1339.578,1269.199,1340.592z"/>
	<path fill="#FEDA17" d="M1275.709,1340.715c0.99-1.013,2.61-1.013,3.6,0l7.32,7.488c0.99,1.014,0.99,2.671,0,3.684
		c-0.99,1.014-2.609,1.014-3.6,0l-7.32-7.488C1274.719,1343.385,1274.719,1341.728,1275.709,1340.715z"/>
	<path fill="#FEDA17" d="M1275.83,1334.055c-0.99-1.014-0.99-2.67,0-3.684l7.319-7.488c0.989-1.014,2.61-1.014,3.601,0
		c0.989,1.012,0.989,2.67,0,3.683l-7.32,7.489C1278.439,1335.067,1276.819,1335.067,1275.83,1334.055z"/>
</g>
</svg>
