<?xml version="1.0" encoding="utf-8"?>
<!-- Generator: Adobe Illustrator 14.0.0, SVG Export Plug-In . SVG Version: 6.00 Build 43363)  -->
<!DOCTYPE svg PUBLIC "-//W3C//DTD SVG 1.1//EN" "http://www.w3.org/Graphics/SVG/1.1/DTD/svg11.dtd">
<svg version="1.1" id="圖層_1" xmlns="http://www.w3.org/2000/svg" xmlns:xlink="http://www.w3.org/1999/xlink" x="0px" y="0px"
	 width="97px" height="97px" viewBox="0 -3.5 97 97" enable-background="new 0 -3.5 97 97" xml:space="preserve">
<path fill="#FED602" d="M58.086,10h10.144c7.731,0,14,6.268,14,14v11c0,7.732-6.269,14-14,14H58.086c-7.732,0-14-6.268-14-14V24
	C44.086,16.268,50.354,10,58.086,10z"/>
<path fill="#4F5FFF" d="M57.723,19.573H29.965c-8.406,0-15.22,6.963-15.22,15.552v20.126c0,6.811,4.291,12.584,10.257,14.689
	l0.486,10.786l13.676-9.923h18.559c8.406,0,15.221-6.965,15.221-15.553V35.125C72.943,26.537,66.129,19.573,57.723,19.573z"/>
<path fill="#FFFFFF" d="M53.66,53.58H33.961c-4.254,0-7.706-3.526-7.706-7.879s3.449-7.879,7.706-7.879H53.66
	c4.254,0,7.705,3.526,7.705,7.879S57.914,53.58,53.66,53.58z M54.344,33.135H33.277c-6.788,0-12.29,5.626-12.29,12.566
	s5.502,12.566,12.29,12.566h21.066c6.791,0,12.29-5.626,12.29-12.566S61.135,33.135,54.344,33.135z"/>
<path fill="#FFFFFF" d="M33.667,42.759c1.507,0,2.73,1.251,2.73,2.792s-1.223,2.792-2.73,2.792c-1.508,0-2.731-1.251-2.731-2.792
	S32.16,42.759,33.667,42.759z"/>
<path fill="#FFFFFF" d="M53.953,42.759c1.508,0,2.73,1.251,2.73,2.792s-1.223,2.792-2.73,2.792c-1.507,0-2.73-1.251-2.73-2.792
	S52.446,42.759,53.953,42.759z"/>
</svg>
