<svg width="140" height="80" viewBox="0 0 140 80" fill="none" xmlns="http://www.w3.org/2000/svg">
<path d="M46.4441 21.5923L48.7147 25.5251C49.0082 26.0334 48.8542 26.6723 48.37 26.9519L43.1932 29.9407C42.7089 30.2203 42.0787 30.0342 41.7852 29.5258L39.5146 25.593C39.2211 25.0846 39.375 24.4457 39.8593 24.1661L45.036 21.1774C45.5203 20.8978 46.1506 21.0839 46.4441 21.5923Z" fill="#2BD8BC"/>
<path d="M59.9182 13.813L62.1888 17.7458C62.4823 18.2541 62.3284 18.893 61.8441 19.1726L56.6674 22.1614C56.1831 22.441 55.5528 22.2549 55.2593 21.7465L52.9887 17.8137C52.6952 17.3053 52.8491 16.6665 53.3334 16.3868L58.5101 13.3981C58.9943 13.1185 59.6247 13.3046 59.9182 13.813Z" fill="#2BD8BC"/>
<path d="M53.7905 19.2026L60.72 15.2019L62.2048 17.7737C62.4894 18.2666 62.3283 18.893 61.844 19.1726L56.6673 22.1614C56.183 22.441 55.56 22.2674 55.2754 21.7744L53.7905 19.2026Z" fill="#2BD8BC"/>
<path d="M73.3913 6.03416L75.6619 9.96696C75.9554 10.4753 75.8015 11.1142 75.3172 11.3938L70.1405 14.3826C69.6562 14.6622 69.026 14.4761 68.7325 13.9677L66.4618 10.0349C66.1683 9.52654 66.3223 8.88764 66.8066 8.60804L71.9833 5.61925C72.4676 5.33965 73.0978 5.5258 73.3913 6.03416Z" fill="#2BD8BC"/>
<path d="M67.2637 11.4238L74.1932 7.42309L75.678 9.99489C75.9626 10.4878 75.8014 11.1142 75.3171 11.3938L70.1404 14.3826C69.6561 14.6622 69.0331 14.4886 68.7485 13.9956L67.2637 11.4238V11.4238Z" fill="#2BD8BC"/>
<path d="M71.3376 64.709L73.6082 68.6418C73.9017 69.1501 73.7478 69.789 73.2635 70.0686L68.0868 73.0574C67.6025 73.337 66.9722 73.1509 66.6787 72.6425L64.4081 68.7097C64.1146 68.2013 64.2686 67.5624 64.7528 67.2828L69.9296 64.2941C70.4138 64.0144 71.0441 64.2006 71.3376 64.709Z" fill="#2BD8BC"/>
<path d="M71.3215 64.681L72.8063 67.2528L65.8768 71.2536L64.392 68.6818C64.1074 68.1888 64.2686 67.5624 64.7528 67.2828L69.9296 64.2941C70.4138 64.0144 71.0369 64.1881 71.3215 64.681Z" fill="#2BD8BC"/>
<path d="M84.8117 56.9297L87.0823 60.8625C87.3758 61.3708 87.2219 62.0097 86.7376 62.2893L81.5609 65.2781C81.0766 65.5577 80.4464 65.3716 80.1529 64.8632L77.8823 60.9304C77.5888 60.422 77.7427 59.7832 78.227 59.5035L83.4037 56.5148C83.8878 56.2351 84.5182 56.4213 84.8117 56.9297Z" fill="#2BD8BC"/>
<path d="M84.7956 56.9017L86.2804 59.4735L79.351 63.4743L77.8661 60.9025C77.5815 60.4095 77.7427 59.7832 78.227 59.5035L83.4037 56.5148C83.8878 56.2351 84.511 56.4088 84.7956 56.9017Z" fill="#2BD8BC"/>
<path d="M98.2849 49.1509L100.555 53.0837C100.849 53.592 100.695 54.2309 100.211 54.5105L95.0341 57.4993C94.5498 57.7789 93.9195 57.5928 93.626 57.0844L91.3554 53.1516C91.0619 52.6432 91.2158 52.0043 91.7001 51.7247L96.8768 48.736C97.3611 48.4562 97.9914 48.6425 98.2849 49.1509Z" fill="#2BD8BC"/>
<path d="M98.2688 49.1229L99.7536 51.6947L92.8241 55.6955L91.3393 53.1237C91.0547 52.6307 91.2158 52.0043 91.7001 51.7247L96.8768 48.736C97.3611 48.4563 97.9842 48.63 98.2688 49.1229Z" fill="#2BD8BC"/>
<path d="M85.2879 8.85884L88.2766 14.0356C88.5563 14.5199 88.3701 15.1501 87.8617 15.4436L83.9289 17.7142C83.4206 18.0077 82.7817 17.8538 82.5021 17.3695L79.5133 12.1928C79.2337 11.7085 79.4198 11.0782 79.9282 10.7847L83.861 8.51413C84.3694 8.22063 85.0083 8.37455 85.2879 8.85884Z" fill="#2BD8BC"/>
<path d="M82.4721 9.31604L86.4728 16.2455L83.901 17.7303C83.4081 18.0149 82.7817 17.8538 82.5021 17.3695L79.5133 12.1928C79.2337 11.7085 79.4073 11.0855 79.9003 10.8009L82.4721 9.31604Z" fill="#2BD8BC"/>
<path d="M93.0672 22.3327L96.0559 27.5094C96.3356 27.9937 96.1494 28.624 95.641 28.9175L91.7082 31.1881C91.1999 31.4816 90.561 31.3277 90.2814 30.8434L87.2926 25.6667C87.013 25.1825 87.1991 24.5521 87.7075 24.2586L91.6403 21.988C92.1487 21.6945 92.7876 21.8485 93.0672 22.3327Z" fill="#2BD8BC"/>
<path d="M87.6796 24.2747L90.2514 22.7899L94.2521 29.7194L91.6803 31.2042C91.1874 31.4888 90.561 31.3277 90.2814 30.8434L87.2926 25.6667C87.013 25.1825 87.1866 24.5593 87.6796 24.2747Z" fill="#2BD8BC"/>
<path d="M100.846 35.8068L103.835 40.9836C104.115 41.4678 103.929 42.0981 103.42 42.3916L99.4875 44.6622C98.9792 44.9557 98.3403 44.8018 98.0607 44.3175L95.0719 39.1408C94.7923 38.6565 94.9784 38.0262 95.4868 37.7327L99.4196 35.4621C99.928 35.1686 100.567 35.3225 100.846 35.8068Z" fill="#2BD8BC"/>
<path d="M95.4589 37.7489L98.0307 36.264L102.031 43.1935L99.4596 44.6783C98.9667 44.9629 98.3403 44.8018 98.0607 44.3175L95.0719 39.1408C94.7922 38.6565 94.9659 38.0335 95.4589 37.7489Z" fill="#2BD8BC"/>
<path d="M42.1717 33.7521L45.1604 38.9289C45.44 39.4132 45.2539 40.0434 44.7455 40.3369L40.8127 42.6075C40.3044 42.901 39.6655 42.7471 39.3859 42.2628L36.3971 37.0861C36.1175 36.6018 36.3036 35.9715 36.812 35.6781L40.7447 33.4075C41.2531 33.114 41.8921 33.2679 42.1717 33.7521Z" fill="#2BD8BC"/>
<path d="M42.1714 33.752L45.1602 38.9287C45.4398 39.413 45.2662 40.036 44.7732 40.3206L42.2014 41.8055L38.2007 34.876L40.7724 33.3912C41.2653 33.1066 41.8918 33.2677 42.1714 33.752Z" fill="#2BD8BC"/>
<path d="M49.9505 47.226L52.9392 52.4027C53.2189 52.887 53.0327 53.5173 52.5244 53.8108L48.5915 56.0814C48.0832 56.3749 47.4443 56.221 47.1647 55.7367L44.1759 50.56C43.8963 50.0758 44.0824 49.4454 44.5908 49.1519L48.5235 46.8814C49.0319 46.5879 49.6709 46.7418 49.9505 47.226Z" fill="#2BD8BC"/>
<path d="M49.9507 47.2261L52.9395 52.4028C53.2191 52.8871 53.0455 53.5101 52.5525 53.7947L49.9807 55.2796L45.98 48.3501L48.5517 46.8653C49.0446 46.5807 49.6711 46.7419 49.9507 47.2261Z" fill="#2BD8BC"/>
<path d="M57.7298 60.7001L60.7185 65.8769C60.9981 66.3611 60.812 66.9914 60.3037 67.2849L56.3708 69.5555C55.8625 69.849 55.2236 69.6951 54.944 69.2108L51.9552 64.0341C51.6756 63.5498 51.8617 62.9195 52.3701 62.6261L56.3028 60.3555C56.8112 60.062 57.4502 60.2159 57.7298 60.7001Z" fill="#2BD8BC"/>
<path d="M57.73 60.7L60.7188 65.8767C60.9983 66.3609 60.8248 66.984 60.3318 67.2686L57.76 68.7535L53.7593 61.824L56.331 60.3392C56.8239 60.0546 57.4504 60.2157 57.73 60.7Z" fill="#2BD8BC"/>
<path d="M99.8017 49.6138L64.436 70.0322C62.8271 70.9611 60.7699 70.4099 59.841 68.801L39.4226 33.4353C38.4937 31.8265 39.045 29.7692 40.6538 28.8403L76.0195 8.42193C77.6284 7.49308 79.6856 8.04433 80.6145 9.65315L101.033 45.0189C101.962 46.6277 101.411 48.685 99.8017 49.6138Z" fill="#F37C18"/>
<path d="M92.6981 46.5289L65.6999 62.1163C64.8633 62.5993 63.7936 62.3127 63.3106 61.4761L47.7232 34.4779C47.2402 33.6413 47.5268 32.5716 48.3634 32.0886L75.3616 16.5012C76.1981 16.0182 77.2679 16.3048 77.7509 17.1414L93.3383 44.1396C93.8214 44.9762 93.5347 46.0459 92.6981 46.5289Z" fill="#F69C50"/>
<path d="M65.0562 54.2751C64.7373 54.4592 64.2915 54.2841 64.0605 53.8839L54.0062 36.4694C53.7751 36.0692 53.8464 35.5956 54.1653 35.4115C54.4843 35.2273 54.9301 35.4025 55.1611 35.8026L65.2154 53.2171C65.4465 53.6173 65.3752 54.0909 65.0562 54.2751Z" fill="#FED603"/>
<path d="M85.8443 42.2729C85.5253 42.457 85.0796 42.2819 84.8485 41.8817L74.7943 24.4672C74.5632 24.067 74.6345 23.5934 74.9534 23.4093C75.2724 23.2252 75.7182 23.4003 75.9492 23.8004L86.0035 41.2149C86.2345 41.6152 86.1633 42.0887 85.8443 42.2729Z" fill="#FED603"/>
<path d="M72.882 24.6057L55.4675 34.6599C55.0674 34.891 54.5937 34.8197 54.4096 34.5008C54.2254 34.1819 54.4006 33.7361 54.8007 33.505L72.2152 23.4508C72.6155 23.2197 73.089 23.291 73.2731 23.6099C73.4573 23.9288 73.2822 24.3746 72.882 24.6057Z" fill="#FED603"/>
<path d="M84.8844 45.394L67.47 55.4483C67.0698 55.6793 66.5961 55.6081 66.412 55.2891C66.2279 54.9702 66.403 54.5244 66.8032 54.2933L84.2176 44.2391C84.6179 44.008 85.0915 44.0793 85.2756 44.3982C85.4597 44.7172 85.2847 45.1629 84.8844 45.394Z" fill="#FED603"/>
<path d="M78.1623 34.7532C77.7564 34.9876 77.2364 34.8466 77.0007 34.4383L73.4618 28.3086L67.3681 31.8268C66.9622 32.0612 66.4422 31.9201 66.2065 31.5119C65.9708 31.1035 66.1088 30.5828 66.5146 30.3485L73.3432 26.406C73.7491 26.1716 74.2691 26.3127 74.5047 26.7209L78.4705 33.5899C78.7062 33.998 78.5683 34.5189 78.1623 34.7532Z" fill="#FEFEFE"/>
<path d="M71.1395 49.1173L68.1097 50.8666C67.6319 51.1425 67.0198 50.9764 66.7424 50.4959L64.9828 47.4482C64.7053 46.9676 64.8678 46.3545 65.3454 46.0788L68.3752 44.3295C68.853 44.0537 69.4651 44.2197 69.7425 44.7002L71.5021 47.7479C71.7796 48.2285 71.6172 48.8416 71.1395 49.1173Z" fill="#FEFEFE"/>
</svg>
