<svg width="100" height="75" viewBox="0 0 100 75" fill="none" xmlns="http://www.w3.org/2000/svg">
<path fill-rule="evenodd" clip-rule="evenodd" d="M52.6269 59.2279H57.2063C57.3726 59.2279 57.5372 59.2023 57.6998 59.177C57.9343 59.1406 58.1647 59.1048 58.3902 59.1471C60.9679 59.6316 62.9025 61.6663 62.9025 64.1028V65.973H46.9307V64.1028C46.9307 61.6663 48.8652 59.6317 51.4429 59.1471C51.6684 59.1048 51.8988 59.1406 52.1333 59.177C52.2959 59.2023 52.4606 59.2279 52.6269 59.2279Z" fill="#DF7A25"/>
<path d="M62.0866 52.4127V48.5238C62.0866 44.59 58.8765 41.4009 54.9166 41.4009C50.9568 41.4009 47.7467 44.5899 47.7467 48.5238V52.4127C47.7467 53.4599 47.4074 54.7388 46.9787 55.5469C46.8347 55.8184 47.0316 56.1442 47.3406 56.1442H62.4926C62.8016 56.1442 62.9985 55.8184 62.8545 55.5469C62.4258 54.7388 62.0866 53.4599 62.0866 52.4127Z" fill="#2A3958"/>
<path fill-rule="evenodd" clip-rule="evenodd" d="M26.0683 31.5723H30.6477C33.7937 31.5723 36.3439 33.9932 36.3439 36.9796V38.9438H20.3721V36.9796C20.3721 33.9931 22.9224 31.5723 26.0683 31.5723Z" fill="#CF6FA9"/>
<path d="M60.4461 49.7489V51.0726C60.4461 54.5523 57.9706 57.3729 54.9174 57.3729C51.8642 57.3729 49.3887 54.5523 49.3887 51.0726V46.9709C49.3887 46.7497 49.3999 46.5303 49.4213 46.3154H50.1277C50.8787 46.3154 51.5501 46.8485 51.811 47.6519C52.0154 48.282 52.3814 48.8061 52.8428 49.1733C53.305 49.5396 53.8633 49.749 54.4528 49.749H60.4461V49.7489Z" fill="#FCD0AE"/>
<path d="M56.76 58.6973C56.5574 58.6347 56.3474 58.6013 56.132 58.6013H53.7023C53.4869 58.6013 53.2768 58.6348 53.0742 58.6973C53.2195 60.3064 53.9361 61.6521 54.9171 62.2871C55.8981 61.652 56.6147 60.3063 56.76 58.6973Z" fill="#EBEEF2"/>
<path d="M28.3579 30.3435C24.6259 30.3435 21.6006 27.3563 21.6006 23.6713V19.3287C21.6006 15.9124 24.4053 13.1431 27.8651 13.1431H28.8508C32.3106 13.1431 35.1153 15.9124 35.1153 19.3287V23.6713C35.1151 27.3563 32.0898 30.3435 28.3579 30.3435Z" fill="#FCD0AE"/>
<path d="M35.1153 18.907V22.9719C25.4499 22.1876 24.6334 17.3909 24.6334 17.3909V20.4587H21.6006V18.9069C21.6006 15.7234 24.405 13.1431 27.865 13.1431H28.8507C32.3107 13.1431 35.1153 15.7235 35.1153 18.907Z" fill="#2A3958"/>
<path d="M31.4292 31.7002C31.0914 31.6168 30.7414 31.5723 30.3824 31.5723H26.3329C25.9739 31.5723 25.6238 31.6169 25.2861 31.7002C25.5283 33.8456 26.7226 35.64 28.3576 36.4867C29.9926 35.6399 31.187 33.8455 31.4292 31.7002Z" fill="#EBEEF2"/>
<path fill-rule="evenodd" clip-rule="evenodd" d="M85.1502 37.0505C85.1502 37.4418 84.8338 37.7594 84.4413 37.7594H83.9847C83.5923 37.7594 83.2759 37.4418 83.2759 37.0505V36.5924C83.2759 36.2011 83.5923 35.8835 83.9847 35.8835H84.4413C84.8338 35.8835 85.1502 36.2011 85.1502 36.5924V37.0505ZM85.1508 64.5113C85.1508 64.903 84.8344 65.2202 84.4419 65.2202H43.0989C42.7072 65.2202 42.39 64.903 42.39 64.5113V39.7967C42.39 39.4054 42.7072 39.0878 43.0989 39.0878H84.4419C84.8344 39.0878 85.1508 39.4054 85.1508 39.7967V64.5113ZM42.39 36.5924C42.39 36.2011 42.7072 35.8835 43.0989 35.8835H43.5567C43.9484 35.8835 44.2655 36.2011 44.2655 36.5924V37.0505C44.2655 37.4418 43.9484 37.7594 43.5567 37.7594H43.0989C42.7072 37.7594 42.39 37.4418 42.39 37.0505V36.5924ZM77.4392 36.5924C77.4392 36.2011 77.7568 35.8835 78.1485 35.8835H78.6062C78.9979 35.8835 79.3151 36.2011 79.3151 36.5924V37.0505C79.3151 37.4418 78.9979 37.7594 78.6062 37.7594H78.1485C77.7568 37.7594 77.4392 37.4418 77.4392 37.0505V36.5924ZM80.3573 36.5924C80.3573 36.2011 80.6749 35.8835 81.0661 35.8835H81.5243C81.9156 35.8835 82.2348 36.2011 82.2348 36.5924V37.0505C82.2348 37.4418 81.9156 37.7594 81.5243 37.7594H81.0661C80.6749 37.7594 80.3573 37.4418 80.3573 37.0505V36.5924ZM85.395 34.6501H42.1476C41.3647 34.6501 40.7295 35.2849 40.7295 36.0683V65.582C40.7295 66.3654 41.3647 67.0001 42.1476 67.0001H85.395C86.1759 67.0001 86.8127 66.3654 86.8127 65.582V36.0683C86.8127 35.2849 86.1759 34.6501 85.395 34.6501Z" fill="#58647B"/>
<rect x="38.8525" y="14" width="15.3497" height="13.734" fill="#F15396"/>
<path fill-rule="evenodd" clip-rule="evenodd" d="M43 21.0026C42.9994 18.7938 44.7886 17.001 46.9971 17C49.2062 16.9968 50.9993 18.789 51 20.9977C51.0026 23.2055 49.212 24.9977 47.0023 25C44.7932 25.0032 43.0019 23.2123 43 21.0026ZM45.9678 22.5665L48.6259 21.0298C48.6499 21.0153 48.6626 21.003 48.6671 20.9969C48.6655 20.9958 48.6634 20.9942 48.6607 20.9922C48.6538 20.9871 48.6431 20.9791 48.6259 20.9685L45.9652 19.4354C45.9455 19.4236 45.9311 19.4186 45.9229 19.4158C45.921 19.4151 45.9194 19.4146 45.9182 19.4141C45.9169 19.4205 45.9149 19.436 45.9123 19.4647L45.9156 22.5375C45.9156 22.562 45.9188 22.5775 45.9214 22.5846C45.9298 22.583 45.9464 22.5794 45.9678 22.5665Z" fill="white"/>
<path d="M48.983 21.08L48.983 21.08L46.0886 23.0185C46.0583 23.0395 46.0337 23.0459 46.0207 23.0488L45.976 23.0587L45.9622 23.015L48.983 21.08ZM48.983 21.08L48.9838 21.0794C49.0132 21.0589 49.0325 21.039 49.0421 21.0239L49.0668 20.9852L49.0305 20.9573L49.0305 20.9573C49.0304 20.9573 49.0301 20.957 49.0295 20.9565L49.0266 20.9541L49.0171 20.9459C49.0092 20.9392 48.9985 20.9307 48.9842 20.9205L48.9843 20.9205L48.9829 20.9195L46.0857 18.9855M48.983 21.08L48.9551 20.9611L46.0576 19.0269M46.0272 18.9546L45.9682 18.9274L45.9571 18.9914C45.9552 19.0023 45.9529 19.0242 45.9502 19.06L45.95 19.06L45.95 19.064L45.9535 22.9406C45.9535 22.9406 45.9535 22.9406 45.9535 22.9406L46 19.0639C46.0003 19.0597 46.0006 19.0557 46.001 19.0519C45.9985 19.0509 45.9962 19.0499 45.994 19.049C45.9911 19.0479 45.9883 19.0467 45.9854 19.0454L46.0064 19L46.0556 19.0086C46.0552 19.011 46.0545 19.016 46.0537 19.0242C46.055 19.0251 46.0563 19.0259 46.0576 19.0269M46.0272 18.9546L46.0273 18.9546C46.0272 18.9546 46.0272 18.9546 46.0272 18.9546ZM46.0272 18.9546C46.0272 18.9546 46.0275 18.9547 46.0283 18.955L46.0324 18.9566C46.0358 18.9581 46.0404 18.96 46.0458 18.9625C46.0567 18.9675 46.0701 18.9747 46.0857 18.9855M46.0857 18.9855L46.0854 18.9853L46.0576 19.0269M46.0857 18.9855C46.0858 18.9856 46.0859 18.9857 46.086 18.9857L46.0576 19.0269" fill="#FCD740" stroke="#FED602" stroke-width="0.1"/>
<rect x="67.1279" y="42.3091" width="15.3497" height="19.3891" fill="#DF7A25"/>
<path fill-rule="evenodd" clip-rule="evenodd" d="M14.6603 8.94229C14.6603 8.55061 14.9779 8.23302 15.3692 8.23302H15.8269C16.2186 8.23302 16.5362 8.55061 16.5362 8.94229V9.40005C16.5362 9.79173 16.2186 10.1089 15.8269 10.1089H15.3692C14.9779 10.1089 14.6603 9.79173 14.6603 9.40005V8.94229ZM49.7102 8.94229C49.7102 8.55061 50.0274 8.23302 50.4191 8.23302H50.8768C51.2685 8.23302 51.5857 8.55061 51.5857 8.94229V9.40005C51.5857 9.79173 51.2685 10.1089 50.8768 10.1089H50.4191C50.0274 10.1089 49.7102 9.79173 49.7102 9.40005V8.94229ZM52.6283 8.94229C52.6283 8.55061 52.9458 8.23302 53.3375 8.23302H53.7953C54.187 8.23302 54.5042 8.55061 54.5042 8.94229V9.40005C54.5042 9.79173 54.187 10.1089 53.7953 10.1089H53.3375C52.9458 10.1089 52.6283 9.79173 52.6283 9.40005V8.94229ZM55.5464 8.94229C55.5464 8.55061 55.864 8.23302 56.2552 8.23302H56.7134C57.1047 8.23302 57.4223 8.55061 57.4223 8.94229V9.40005C57.4223 9.79173 57.1047 10.1089 56.7134 10.1089H56.2552C55.864 10.1089 55.5464 9.79173 55.5464 9.40005V8.94229ZM39.0275 37.5702H15.3689C14.9776 37.5702 14.66 37.2526 14.66 36.8609V12.1467C14.66 11.755 14.9776 11.4374 15.3689 11.4374H56.7127C57.104 11.4374 57.4216 11.755 57.4216 12.1467V32.947H59.0816V8.41774C59.0816 7.63478 58.4468 7 57.6639 7H14.4177C13.6348 7 13 7.63478 13 8.41774V37.9319C13 38.7148 13.6348 39.3496 14.4177 39.3496H39.0275V37.5702Z" fill="#58647B"/>
<path fill-rule="evenodd" clip-rule="evenodd" d="M61.0088 20.6329H63.0112V19.4314H61.0088V20.6329Z" fill="#283540"/>
<path fill-rule="evenodd" clip-rule="evenodd" d="M67.4834 20.6329H71.9557V19.4314H67.4834V20.6329Z" fill="#283540"/>
<path fill-rule="evenodd" clip-rule="evenodd" d="M79.0309 22.0346H77.8295V20.6329H76.4277V19.4314H79.0309V22.0346Z" fill="#283540"/>
<path fill-rule="evenodd" clip-rule="evenodd" d="M77.8291 27.9747H79.0306V25.0046H77.8291V27.9747Z" fill="#283540"/>
<path fill-rule="evenodd" clip-rule="evenodd" d="M77.8291 32.9468H79.0306V30.9443H77.8291V32.9468Z" fill="#283540"/>
</svg>
