<svg width="223" height="227" viewBox="0 0 223 227" fill="none" xmlns="http://www.w3.org/2000/svg">
<g clip-path="url(#clip0)">
<path d="M44.3947 149.5C44.3947 149.5 66.1248 131.209 75.7868 130.464C75.7868 130.464 118.789 134.789 143.669 126.617L164.626 134.426L170.774 173.777L38.9336 173.405L44.3947 149.5Z" fill="#1F2B3D"/>
<path d="M104.468 137.08C105.671 136.135 117.195 134.569 118.588 136.116C119.982 137.663 123.448 144.011 123.715 147.744C124.069 152.746 119.772 160.584 119.772 160.584L134.475 202.608C134.475 202.608 129.396 217.186 124.823 217.854C120.24 218.523 110.053 206.427 109.805 204.709C109.557 202.99 108.468 164.431 108.134 162.14C107.8 159.849 103.628 155.849 102.281 150.426C101.145 145.911 103.265 138.025 104.468 137.08Z" fill="#EDDB00"/>
<path d="M52.1 225.835C26.5129 225.94 8.01943 225.415 1.97588 225.215C1.19299 225.186 0.858831 224.231 1.44123 223.706L56.3009 169.434L165.132 166.465L221.558 223.611C222.14 224.146 221.768 225.11 220.966 225.11L52.7397 225.816" fill="white"/>
<path d="M52.1 225.835C26.5129 225.94 8.01943 225.415 1.97588 225.215C1.19299 225.186 0.858831 224.231 1.44123 223.706L56.3009 169.434L165.132 166.465L221.558 223.611C222.14 224.146 221.768 225.11 220.966 225.11L52.7397 225.816" stroke="#1F2B3D" stroke-width="2.4126" stroke-miterlimit="10"/>
<g opacity="0.5">
<path opacity="0.5" d="M23.3918 224.289C23.3918 224.289 67.0715 191.964 86.8538 184.852C106.636 177.739 148.368 170.283 159.825 176.957C171.282 183.639 211.104 223.515 211.104 223.515L219.411 223.697L163.787 168.384L63.4434 168.536L2.93164 223.993L23.3918 224.289Z" fill="#C0E1F9"/>
</g>
<path d="M13.0137 160.307C13.0137 160.307 63.4338 124.918 90.7013 131.094L78.7193 161.472L36.7105 171.019L13.0137 160.307Z" fill="#1F2B3D"/>
<path d="M189.279 64.4589C189.279 64.4589 193.422 72.9459 169.181 68.8886C151.232 65.8814 61.6388 61.3276 50.6019 66.12C39.565 70.922 17.8828 56.7452 26.3991 51.6569C34.925 46.5781 132.042 46.1103 148.435 49.9767C164.837 53.8526 189.279 64.4589 189.279 64.4589Z" fill="#1F2B3D"/>
<path d="M111.924 48.4206C66.364 49.2607 39.5261 60.5066 32.9288 88.2873C25.8637 118.016 54.9261 133.987 105.957 133.357C155.537 132.746 175.119 119.238 178.117 101.376C182.652 62.7883 145.016 47.4945 111.924 48.4206Z" fill="white"/>
<path d="M111.935 48.6019C104.058 48.7929 96.1814 49.2893 88.3811 50.3203C80.5904 51.38 72.8569 53.0698 65.4863 55.7333C58.1252 58.3682 51.1938 62.3205 45.6944 67.7143C42.9734 70.4351 40.6534 73.5187 38.8107 76.86C36.9681 80.2013 35.6696 83.8195 34.7817 87.5331C33.8651 91.2372 33.4928 95.0177 33.8174 98.7027C34.1611 102.378 35.2686 105.92 37.1304 109.032C38.9826 112.144 41.5317 114.827 44.4724 117.051C47.4034 119.285 50.7259 121.07 54.1821 122.541C61.1136 125.51 68.637 127.266 76.2463 128.383C83.8652 129.519 91.6082 130.044 99.3702 130.14C107.132 130.197 114.952 130.054 122.676 129.443C130.39 128.756 138.095 127.849 145.513 125.958C147.365 125.491 149.198 124.966 151.003 124.374C151.91 124.097 152.798 123.763 153.695 123.467C154.583 123.142 155.462 122.789 156.34 122.445C159.806 120.975 163.147 119.228 166.078 116.985C167.568 115.887 168.914 114.636 170.155 113.29C171.396 111.944 172.494 110.483 173.401 108.899C174.318 107.323 175.062 105.643 175.616 103.896L175.998 102.569L176.304 101.261C176.437 100.345 176.552 99.4283 176.638 98.4736C177.373 90.8936 176.256 83.0844 172.781 76.2395C169.344 69.385 163.691 63.6856 157.085 59.5615C150.459 55.4373 143.012 52.6115 135.355 50.8836C127.698 49.1461 119.802 48.4301 111.935 48.6019ZM111.925 48.2392C119.821 48.0196 127.745 48.6879 135.479 50.3585C143.193 52.0387 150.745 54.7213 157.533 58.8168C164.293 62.8837 170.279 68.5162 174.022 75.5521C177.822 82.5498 179.197 90.6931 178.643 98.5786C178.586 99.5619 178.49 100.555 178.366 101.548L178.079 103.018L177.707 104.459C177.163 106.378 176.399 108.23 175.454 109.977C174.509 111.734 173.354 113.376 172.046 114.865C170.738 116.364 169.315 117.767 167.749 118.989C161.505 123.963 153.963 126.932 146.363 128.994C138.715 131.066 130.867 132.183 123 132.889C115.124 133.538 107.228 133.825 99.3321 133.691C91.4363 133.538 83.531 132.985 75.7307 131.734C67.94 130.464 60.1875 128.555 52.9505 125.29C49.3511 123.648 45.8758 121.672 42.7729 119.18C39.67 116.708 36.949 113.691 35.0013 110.206C34.037 108.459 33.2636 106.617 32.7003 104.698C32.1561 102.779 31.822 100.813 31.6788 98.8268C31.4305 94.8554 31.9461 90.8554 32.9868 87.0367C34.0083 83.2085 35.45 79.4758 37.4454 76.0485C39.4408 72.6213 41.9327 69.4804 44.8065 66.7501C50.6114 61.3085 57.7815 57.5567 65.2285 54.9696C72.7042 52.3729 80.4949 50.8454 88.3238 49.8239C96.1432 48.8406 104.039 48.3919 111.925 48.2392Z" fill="#1F2B3D"/>
<path d="M101.137 45.9957C101.137 45.9957 141.293 50.2631 134.476 84.3541C133.99 102.073 112.708 111.934 80.7147 109.166C60.2545 106.378 49.2463 96.1538 47.776 81.3278C47.0313 73.7764 46.3725 58.3586 66.7086 50.4254C74.6903 47.3131 84.7533 43.9623 101.137 45.9957Z" fill="#1F2B3D"/>
<path d="M53.7523 46.3489C53.7523 46.3489 72.4271 10.1194 86.7483 3.79957C93.9948 0.601445 101.852 3.91413 101.852 3.91413C101.852 3.91413 119.152 -5.55614 131.65 4.96426C135.297 8.03828 153.437 24.6017 158.431 48.8215C158.431 48.8215 187.235 58.1486 189.489 64.9744C190.1 66.8074 163.749 51.4182 94.8541 51.3227C42.219 51.2559 22.4748 57.423 26.3988 51.6569C28.7379 48.2392 53.7523 46.3489 53.7523 46.3489Z" fill="#1F2B3D"/>
<path d="M158.421 48.7833C157.237 43.0554 155.308 37.7761 153.017 32.9836C98.7969 22.4346 68.7128 29.4705 62.4306 31.2748C57.275 39.5231 53.752 46.3489 53.752 46.3489C103.742 39.9431 148.854 47.084 158.421 48.7833Z" fill="#EDDB00"/>
<path d="M29.6349 99.285L12.6309 108.154L30.6947 113.872" fill="#FFE6AE"/>
<path d="M29.7891 98.9891L142.277 94.0344C142.545 94.0248 142.764 94.2253 142.774 94.4926L143.366 108.02C143.375 108.288 143.175 108.507 142.907 108.517L30.4192 113.471L29.7891 98.9891Z" fill="#2F80ED"/>
<g opacity="0.7">
<g opacity="0.7">
<g opacity="0.7">
<g opacity="0.7">
<g opacity="0.7">
<path opacity="0.7" d="M142.525 103.677C142.936 103.629 142.296 103.581 142.793 103.619C142.745 103.667 142.659 103.705 142.525 103.677Z" fill="white"/>
<path opacity="0.7" d="M31.8607 108.278C33.1783 107.915 34.935 108.154 36.3767 107.896C36.5485 107.877 36.3385 108.068 36.7204 108.011C38.1239 107.715 40.3484 107.762 42.067 107.877L41.9619 107.925C42.2866 107.944 42.6875 107.772 43.0313 107.782C43.0313 107.81 42.9262 107.829 43.0026 107.867C43.0885 107.772 43.6232 107.801 43.7664 107.724C43.9096 107.753 43.8905 107.829 44.0719 107.867L44.2629 107.753C44.8071 107.476 45.5995 107.715 46.3442 107.552C46.306 107.581 46.2392 107.6 46.2965 107.619C47.4995 107.409 49.008 107.381 50.3542 107.266C50.3064 107.304 50.2587 107.381 50.3351 107.419C50.3923 107.304 50.8124 107.256 51.1752 107.218C51.3471 107.333 51.7958 107.085 52.2159 107.132L52.1777 107.161C52.4832 107.027 52.6455 107.209 52.8938 107.056L53.0943 107.142C53.2279 106.97 53.5526 107.209 53.8103 107.113L53.8008 107.075C54.0395 107.027 54.1731 107.104 54.4023 107.066L54.4214 107.085C54.9465 107.018 55.2615 107.094 55.2425 106.97C55.4334 107.066 54.7269 107.037 55.0324 107.18C56.77 106.97 58.5745 106.922 60.3312 106.846C60.5317 106.894 60.6654 106.903 60.7036 106.951C60.8755 106.922 61.3624 106.903 61.5247 106.827C61.4674 106.836 61.6393 106.884 61.7347 106.894C62.0593 106.932 62.0784 106.741 62.4317 106.779C62.298 106.817 62.2503 106.865 62.298 106.913C62.594 106.798 62.995 106.798 63.3482 106.751C63.291 106.779 63.205 106.789 63.2241 106.827C63.606 106.693 63.9306 106.817 64.2648 106.731L64.1407 106.808C64.6944 106.875 64.2934 106.645 64.7708 106.674C64.6562 106.703 64.704 106.731 64.6849 106.76C65.1241 106.607 65.8306 106.617 66.2698 106.56C66.2411 106.569 66.2507 106.588 66.2507 106.588C66.728 106.55 67.2341 106.569 67.7592 106.493C67.9501 106.521 67.7019 106.674 68.2079 106.626C68.1793 106.474 69.0672 106.531 68.7617 106.369C69.1913 106.378 69.8787 106.407 70.1651 106.34C69.9742 106.407 70.3847 106.512 70.0219 106.54L70.2988 106.617C70.2606 106.684 70.0219 106.607 70.1078 106.684C70.2892 106.674 70.8144 106.588 70.9767 106.607C71.3108 106.502 71.6068 106.321 72.151 106.273C71.9028 106.34 72.3038 106.435 72.1319 106.464L72.8766 106.149C73.058 106.13 72.9244 106.264 73.1821 106.216C73.163 106.178 73.2776 106.149 73.354 106.111C73.4208 106.12 74.0987 106.044 74.1846 106.187C74.2705 106.245 73.8886 106.235 74.0987 106.273C74.4328 106.254 74.4424 106.206 74.7766 106.187L74.7861 106.206C75.0057 106.216 75.4353 106.12 75.1871 106.044C75.0343 106.044 75.2444 106.13 75.0248 106.101C75.1776 106.006 75.5594 105.968 75.8936 105.949C75.779 105.977 75.7981 106.015 75.7504 106.063C76.1896 105.929 76.667 105.872 77.1634 105.805C77.173 105.739 76.982 105.939 76.9056 105.91C77.5453 105.977 78.2232 105.719 78.7578 105.834C78.6719 105.853 78.7101 105.739 78.7101 105.758C79.0156 105.758 79.0061 105.853 79.2066 105.805C79.2257 105.863 79.4548 105.777 79.6649 105.748C79.7699 105.7 79.7221 105.777 79.5407 105.786C79.8272 105.719 80.9729 105.586 81.6412 105.643C81.6221 105.605 82.0422 105.481 82.1949 105.481L82.1376 105.576C82.2809 105.624 82.6532 105.548 82.6819 105.624C83.0065 105.5 81.4311 105.777 81.8703 105.672C81.9849 105.748 82.4814 105.5 82.3859 105.624C82.6914 105.605 82.9874 105.49 83.2833 105.567C83.1974 105.557 83.0351 105.7 83.2833 105.691C83.7225 105.653 83.4075 105.643 83.7607 105.595L83.9803 105.548C83.9899 105.462 84.3718 105.548 84.1999 105.452C84.2572 105.529 84.83 105.376 84.7918 105.529L84.7346 105.653C84.9255 105.634 85.0401 105.519 85.1833 105.462C85.2119 105.471 85.2597 105.49 85.2501 105.509C85.2692 105.328 85.6988 105.509 85.9184 105.357C86.3194 105.404 86.9209 105.319 87.1214 105.424C87.4269 105.357 87.6943 105.28 88.0475 105.299C87.9807 105.319 87.8852 105.328 87.8661 105.366C88.0857 105.414 88.1334 105.357 88.3339 105.319C88.2862 105.347 88.7731 105.404 89.0214 105.462C89.3173 105.395 89.2123 105.299 89.241 105.242C89.5274 105.404 90.0907 105.089 90.4439 105.242C90.3389 105.271 90.0048 105.347 90.2625 105.385C90.549 105.548 90.8163 105.233 91.265 105.299L91.1505 105.156C91.3509 105.242 91.7997 105.042 91.7615 105.194C91.9047 105.137 92.2866 105.223 92.2293 105.08C92.9645 105.166 94.0051 104.927 94.473 105.166C94.578 105.137 94.8358 105.147 94.7785 105.08C94.5971 105.003 94.5398 105.147 94.473 105.099C94.5684 105.089 94.5875 105.051 94.5971 105.032C94.8262 105.051 95.0076 105.061 94.7976 105.185C95.3036 105.252 95.3131 104.918 95.9528 104.946C95.9242 105.003 95.9719 105.023 96.1629 105.013L96.5161 104.898C96.9362 104.908 96.7548 105.023 96.7739 105.128C96.9935 105.099 97.2704 105.099 97.3659 105.013L97.6427 105.128C97.4422 105.042 97.8241 105.061 97.9291 105.032L97.8241 105.061C97.8719 105.099 98.1201 105.061 98.2538 105.042C98.2251 104.984 97.9578 104.965 97.8146 104.956C97.9291 104.908 98.101 104.908 98.2538 104.851C98.206 104.956 98.6166 104.908 98.798 104.908C98.9985 104.918 99.0271 104.813 99.0844 104.813C99.0939 104.86 99.4185 104.803 99.2562 104.889C99.1894 104.908 99.0939 104.841 98.9794 104.898C99.113 104.927 99.1035 105.023 99.3804 104.946C99.5904 104.889 99.3231 104.755 99.7145 104.803C99.6095 104.832 99.5904 104.87 99.514 104.908L99.8864 104.946L99.8959 104.86C99.9437 104.879 99.915 104.889 99.9341 104.898C100.039 104.803 100.497 104.841 100.583 104.736C100.774 104.717 100.984 104.784 101.156 104.784L101.118 104.793C101.338 104.841 101.624 104.793 101.805 104.717L101.796 104.736C101.92 104.736 102.197 104.708 102.35 104.65C102.655 104.708 102.464 104.984 102.798 104.86C103.104 104.841 103.276 104.679 103.142 104.622C103.696 104.66 104.316 104.488 104.832 104.603C104.908 104.564 104.861 104.545 105.023 104.517C105.834 104.517 106.722 104.335 107.381 104.488C107.152 104.536 107.372 104.574 107.372 104.631C107.563 104.545 107.61 104.708 107.668 104.564C107.648 104.488 107.658 104.44 107.429 104.421C107.906 104.354 108.641 104.326 108.918 104.392C108.785 104.364 108.89 104.335 108.985 104.307C108.956 104.44 109.31 104.44 109.577 104.383L109.615 104.307L109.797 104.383C109.902 104.354 109.902 104.211 110.179 104.278C110.198 104.307 110.207 104.335 110.264 104.354C110.541 104.278 110.933 104.154 111.229 104.202L111.477 104.307C111.601 104.287 111.821 104.211 111.592 104.182C112.107 104.23 112.441 104.221 112.613 104.316C113.492 104.039 114.78 103.972 115.812 103.944L115.783 104.001C116.06 104.049 115.926 103.896 116.117 103.925C116.031 103.982 116.337 104.039 116.117 104.116C116.518 104.163 116.623 103.992 116.881 103.953C116.919 103.877 116.671 104.011 116.719 103.915C116.766 103.887 117.272 103.953 117.33 103.829C117.435 103.867 117.358 103.963 117.301 104.011L117.54 103.944C117.845 104.068 116.871 104.221 117.196 104.373L117.416 104.345C117.635 104.459 116.833 104.507 117.396 104.526C117.635 104.459 117.836 104.278 117.616 104.24C118.122 104.182 117.836 103.953 118.38 103.934C118.533 104.001 117.941 103.972 118.055 104.058C118.313 104.144 118.571 103.982 118.8 104.011C118.542 103.972 118.752 103.848 118.914 103.82C119.191 103.867 118.743 103.934 119.134 103.934C119.191 103.867 119.554 103.801 119.239 103.762C119.373 103.6 119.65 103.791 119.86 103.657C119.993 103.762 119.468 103.925 119.898 103.963C119.821 103.858 120.423 103.801 120.194 103.657C120.366 103.676 120.385 103.762 120.261 103.829C120.509 103.887 120.843 103.619 120.929 103.82L121.005 103.715C121.082 103.743 121.196 103.772 121.32 103.82C121.53 103.81 121.998 103.648 121.989 103.81C122.056 103.791 122.542 103.782 122.352 103.676C122.046 103.619 122.008 103.772 121.836 103.629C122.056 103.743 122.275 103.591 122.447 103.543L122.476 103.6C122.581 103.571 122.819 103.571 122.877 103.505C122.8 103.543 122.838 103.581 122.924 103.6L123.029 103.505C123.45 103.438 123.134 103.667 123.545 103.619L123.239 103.705C123.306 103.686 123.449 103.772 123.65 103.734C123.726 103.648 123.86 103.533 123.927 103.466C124.156 103.419 124.032 103.562 124.261 103.457L123.965 103.571C123.917 103.6 124.175 103.705 124.481 103.686C124.681 103.648 124.977 103.514 124.662 103.476C124.815 103.466 125.034 103.514 124.92 103.581C125.273 103.533 124.872 103.495 125.168 103.428C125.292 103.476 125.684 103.543 125.922 103.619L125.607 103.782L125.817 103.772C125.55 103.896 125.96 103.858 125.808 103.982C125.951 103.992 126.123 103.944 126.266 103.906C125.836 103.724 126.724 103.619 126.6 103.447C127.173 103.371 126.982 103.867 127.564 103.562C127.459 103.524 127.746 103.371 127.383 103.438C127.746 103.438 127.622 103.247 128.042 103.304C127.727 103.39 128.386 103.466 127.937 103.6C127.965 103.543 127.679 103.562 127.612 103.581C127.765 103.638 127.593 103.762 127.956 103.743C128.175 103.715 128.481 103.705 128.433 103.61C128.424 103.505 128.09 103.638 128.233 103.524C128.682 103.466 128.758 103.619 128.939 103.428C128.662 103.457 128.586 103.352 128.586 103.285L128.911 103.228L128.853 103.295C129.378 103.323 129.006 103.161 129.512 103.161L129.76 103.285C129.646 103.409 129.016 103.266 129.121 103.447C129.455 103.438 129.56 103.342 129.875 103.381C129.808 103.4 129.713 103.409 129.646 103.428C129.76 103.428 129.894 103.676 130.362 103.505C130.601 103.438 130.419 103.438 130.429 103.361C130.963 103.314 131.116 103.237 131.46 103.218C131.393 103.361 132.061 103.209 131.689 103.361C131.508 103.285 130.744 103.333 130.562 103.466C130.763 103.619 130.142 103.457 130.037 103.629C130.467 103.619 130.448 103.772 130.524 103.877C130.639 103.877 130.753 103.829 130.83 103.81C130.877 103.705 130.725 103.715 130.706 103.619C131.183 103.629 131.641 103.552 131.899 103.447C132.061 103.486 132.014 103.591 131.823 103.61C132.386 103.552 132.997 103.543 133.532 103.552C133.178 103.409 134.133 103.486 133.885 103.361C133.598 103.333 133.341 103.237 133.503 103.151C133.684 103.151 133.503 103.218 133.579 103.256C133.808 103.161 133.942 103.381 134.162 103.237C133.646 103.314 134.066 103.438 133.98 103.571C134.353 103.486 133.971 103.657 134.334 103.648C134.706 103.562 135.155 103.486 135.565 103.447C136.09 103.543 136.883 103.39 137.341 103.371C137.589 103.428 137.427 103.571 137.694 103.591C138 103.571 137.456 103.447 137.914 103.495L137.876 103.524C138.009 103.486 138.716 103.581 138.84 103.371L138.706 103.533C138.792 103.543 138.869 103.505 138.935 103.486C138.945 103.533 139.041 103.581 138.907 103.619C139.193 103.715 139.499 103.581 139.804 103.562L139.604 103.476C140.129 103.381 140.482 103.457 140.988 103.409L140.979 103.495L141.275 103.428C141.208 103.514 141.485 103.562 141.637 103.486L140.864 103.734C140.644 103.686 141.093 103.619 140.96 103.533C140.845 103.457 140.368 103.505 140.301 103.591C140.482 103.591 140.492 103.571 140.625 103.533C140.692 103.657 140.415 103.667 140.282 103.753C140.377 103.743 140.511 103.772 140.53 103.734C140.349 103.801 140.158 103.82 139.852 103.839C140.062 103.782 139.737 103.762 139.814 103.724C139.795 103.839 139.499 103.877 139.117 103.867C138.84 103.753 138.401 103.982 137.962 103.963C138.133 103.848 138.363 103.743 138.63 103.686C138.353 103.638 138.324 103.705 138.038 103.657C137.904 103.743 137.818 103.877 137.456 103.944L137.437 103.867C137.112 103.925 137.112 104.049 136.701 104.039C135.985 104.03 135.25 104.058 134.706 104.068L134.677 103.992C134.381 104.182 133.665 104.097 133.264 104.192C132.567 104.144 131.756 104.335 131.393 104.211C130.171 104.326 129.102 104.431 127.832 104.459L128.042 104.335C127.822 104.431 127.889 104.268 127.669 104.297C127.927 104.383 127.364 104.431 127.211 104.517C126.638 104.45 125.922 104.583 125.426 104.688L125.407 104.612C124.91 104.784 124.299 104.679 123.66 104.679C123.583 104.65 123.469 104.574 123.278 104.593C122.943 104.736 122.762 104.736 122.266 104.841C121.903 104.86 121.301 104.851 120.929 104.813C119.554 105.061 118.141 104.994 116.719 105.166L116.614 105.07C115.229 105.338 113.511 105.223 112.336 105.376L112.441 105.204C112.069 105.166 111.592 105.28 111.697 105.395C111.324 105.357 110.77 105.509 110.522 105.385C110.14 105.366 110.054 105.481 109.739 105.519C108.976 105.49 108.689 105.519 107.973 105.576H108.154C108.231 105.538 108.24 105.471 108.059 105.462C107.792 105.519 107.066 105.462 107.343 105.643C106.57 105.567 105.558 105.815 104.803 105.691C104.87 105.739 104.679 105.758 104.603 105.796C103.925 105.824 103.218 105.748 102.684 105.863C102.579 105.844 102.846 105.767 102.579 105.767C102.416 105.796 102.579 105.834 102.378 105.872C101.29 106.015 100.163 105.863 99.1703 105.929C97.4136 106.111 95.5709 106.13 93.8715 106.225L93.8906 106.187C93.3273 106.359 92.5539 106.092 92.1147 106.33C91.9811 106.302 91.5992 106.33 91.6947 106.254C91.2459 106.378 90.4248 106.206 89.7852 106.369C89.8424 106.369 89.8806 106.359 89.9475 106.34C89.2887 106.283 88.7063 106.426 88.0093 106.378C88.0762 106.359 88.2098 106.34 88.2289 106.302C87.9616 106.235 87.5988 106.493 87.446 106.311C87.2933 106.321 87.341 106.407 87.4365 106.397C85.9089 106.388 84.2954 106.579 82.7105 106.684C81.5743 106.617 82.6246 106.369 81.7367 106.55C81.6603 106.512 81.6889 106.626 81.6698 106.588C81.3261 106.655 81.1256 106.397 80.8869 106.512C80.992 106.626 80.7342 106.588 80.7246 106.655C80.0277 106.607 79.8844 106.512 79.3402 106.617L79.3784 106.55C78.7483 106.751 77.994 106.693 77.4594 106.913C73.9173 107.094 70.5375 107.352 67.0813 107.524C63.6729 107.629 60.3313 107.858 56.8655 107.896C56.0444 107.772 55.9872 107.772 55.0992 107.877C55.1374 107.848 55.1852 107.839 55.1279 107.82C55.0897 107.953 54.4978 107.858 54.4214 107.992C53.142 108.02 51.9581 108.106 50.6406 108.163C50.8506 108.144 50.9461 108.03 50.6979 108.049L50.4401 108.144L50.3923 108.106C50.2205 108.135 50.0391 108.202 50.2205 108.24C46.9171 108.498 43.6518 108.364 40.4057 108.536C39.6324 108.517 38.5439 108.612 37.7038 108.669C35.2119 108.593 32.9778 108.545 30.4668 108.774C30.5145 108.755 30.8296 108.402 31.8607 108.278Z" fill="white"/>
<path opacity="0.7" d="M142.029 103.715C141.933 103.648 141.647 103.629 141.876 103.533C141.904 103.591 142.057 103.648 142.029 103.715Z" fill="white"/>
<path opacity="0.7" d="M134.306 103.352C134.296 103.371 134.191 103.333 134.172 103.323C134.267 103.314 134.353 103.256 134.43 103.285C134.334 103.295 134.344 103.323 134.306 103.352Z" fill="white"/>
<path opacity="0.7" d="M132.338 103.4C132.367 103.342 132.787 103.276 133.035 103.256L132.338 103.4Z" fill="white"/>
<path opacity="0.7" d="M130.486 103.238C130.323 103.19 130.371 103.161 130.582 103.161C130.601 103.18 130.534 103.199 130.486 103.238Z" fill="white"/>
<path opacity="0.7" d="M130.362 103.371C130.209 103.381 130.133 103.352 130.057 103.314C130.066 103.371 130.41 103.276 130.362 103.371Z" fill="white"/>
<path opacity="0.7" d="M126.38 103.371C126.284 103.381 126.074 103.438 125.988 103.381C126.084 103.419 126.447 103.285 126.38 103.371Z" fill="white"/>
<path opacity="0.7" d="M124.53 103.534C124.472 103.534 124.443 103.524 124.376 103.543C124.261 103.524 124.376 103.476 124.472 103.466L124.53 103.534Z" fill="white"/>
<path opacity="0.7" d="M90.8535 105.195L91.0549 105.156L91.0261 105.214L90.8535 105.195Z" fill="white"/>
<path opacity="0.7" d="M76.0945 105.825C75.8931 105.873 75.9506 105.777 75.9219 105.767C76.0945 105.748 75.8547 105.844 76.0945 105.825Z" fill="white"/>
<path opacity="0.7" d="M68.1406 106.455L68.2077 106.445L68.1886 106.57L68.1406 106.455Z" fill="white"/>
</g>
</g>
</g>
</g>
</g>
<g opacity="0.7">
<g opacity="0.7">
<g opacity="0.7">
<g opacity="0.7">
<g opacity="0.7">
<path opacity="0.7" d="M29.6833 102.636C29.2728 102.684 29.9125 102.731 29.416 102.693C29.4638 102.645 29.5401 102.607 29.6833 102.636Z" fill="white"/>
<path opacity="0.7" d="M140.349 98.0344C139.031 98.3972 137.275 98.1585 135.833 98.4163C135.661 98.4354 135.871 98.2445 135.489 98.3017C134.086 98.5977 131.861 98.55 130.143 98.4354L130.248 98.3877C129.923 98.3686 129.522 98.5404 129.178 98.5309C129.178 98.5022 129.283 98.4831 129.207 98.4449C129.121 98.5404 128.586 98.5118 128.443 98.5881C128.3 98.5595 128.319 98.4831 128.138 98.4449L127.947 98.5595C127.403 98.8364 126.61 98.5977 125.865 98.76C125.904 98.7313 125.97 98.7122 125.913 98.6932C124.71 98.9032 123.202 98.9318 121.856 99.0464C121.903 99.0082 121.951 98.9318 121.875 98.8936C121.817 99.0082 121.397 99.0559 121.034 99.0941C120.863 98.9796 120.414 99.2278 119.994 99.18L120.032 99.1514C119.726 99.285 119.564 99.1037 119.316 99.2564L119.115 99.1705C118.982 99.3423 118.657 99.1037 118.399 99.1991L118.409 99.2373C118.17 99.285 118.037 99.2087 117.807 99.2469L117.788 99.2278C117.263 99.2946 116.948 99.2182 116.967 99.3423C116.776 99.2469 117.483 99.2755 117.177 99.1323C115.44 99.3423 113.635 99.3901 111.878 99.4664C111.678 99.4187 111.544 99.4092 111.506 99.3614C111.334 99.3996 110.847 99.4092 110.685 99.4855C110.742 99.476 110.57 99.4282 110.475 99.4187C110.15 99.3805 110.131 99.5714 109.778 99.5333C109.912 99.4951 109.959 99.4473 109.912 99.3996C109.616 99.5142 109.215 99.5142 108.861 99.5619C108.919 99.5333 109.005 99.5237 108.986 99.4855C108.604 99.6192 108.279 99.4951 107.945 99.581L108.069 99.5046C107.515 99.4378 107.916 99.6669 107.439 99.6383C107.553 99.6096 107.506 99.581 107.525 99.5524C107.086 99.7051 106.379 99.6956 105.94 99.7528C105.969 99.7433 105.959 99.7242 105.959 99.7242C105.482 99.7624 104.976 99.7433 104.451 99.8197C104.26 99.791 104.508 99.6383 104.002 99.686C104.03 99.8388 103.142 99.7815 103.448 99.9438C103.018 99.9342 102.331 99.9056 102.045 99.9724C102.235 99.9056 101.825 99.8006 102.188 99.7719L101.911 99.6956C101.949 99.6287 102.188 99.7051 102.102 99.6287C101.92 99.6383 101.395 99.7242 101.233 99.7051C100.899 99.8101 100.603 99.9915 100.059 100.039C100.307 99.9724 99.9059 99.8769 100.078 99.8483L99.3331 100.163C99.1517 100.182 99.2853 100.049 99.0275 100.097C99.0466 100.135 98.9321 100.163 98.8557 100.202C98.7889 100.192 98.111 100.268 98.025 100.125C97.9391 100.068 98.321 100.077 98.111 100.039C97.7768 100.058 97.7673 100.106 97.4331 100.125L97.4236 100.106C97.204 100.097 96.7743 100.192 97.0226 100.268C97.1753 100.268 96.9653 100.182 97.1849 100.211C97.0321 100.307 96.6502 100.345 96.3161 100.364C96.4306 100.335 96.4115 100.297 96.4593 100.249C96.0201 100.383 95.5427 100.44 95.0462 100.507C95.0462 100.574 95.2277 100.373 95.304 100.402C94.6644 100.335 93.9865 100.593 93.4518 100.478C93.5378 100.459 93.4996 100.574 93.4996 100.555C93.194 100.555 93.2036 100.459 93.0031 100.507C92.984 100.45 92.7549 100.536 92.5448 100.564C92.4398 100.612 92.4875 100.536 92.6689 100.526C92.3825 100.593 91.2368 100.727 90.5685 100.669C90.5876 100.707 90.1675 100.832 90.0147 100.832L90.072 100.736C89.9288 100.688 89.5565 100.765 89.5278 100.688C89.2032 100.813 90.7785 100.536 90.3394 100.641C90.2248 100.564 89.7283 100.813 89.8238 100.688C89.5183 100.707 89.2223 100.822 88.9263 100.746C89.0123 100.755 89.1746 100.612 88.9263 100.622C88.4871 100.66 88.8022 100.669 88.449 100.717L88.2294 100.765C88.2198 100.851 87.8379 100.765 88.0098 100.86C87.9525 100.784 87.3796 100.937 87.4178 100.784L87.4751 100.66C87.2842 100.679 87.1696 100.793 87.0264 100.851C86.9977 100.841 86.95 100.822 86.9596 100.803C86.9405 100.984 86.5108 100.803 86.2912 100.956C85.8902 100.908 85.2887 100.994 85.0883 100.889C84.7827 100.956 84.5154 101.032 84.1621 101.013C84.229 100.994 84.3244 100.984 84.3435 100.946C84.124 100.898 84.0762 100.956 83.8757 100.994C83.9235 100.965 83.4365 100.908 83.1883 100.851C82.8923 100.918 82.9974 101.013 82.9687 101.07C82.6823 100.908 82.119 101.223 81.7657 101.07C81.8708 101.042 82.2049 100.965 81.9471 100.927C81.6607 100.765 81.3934 101.08 80.9447 101.013L81.0592 101.156C80.8587 101.07 80.41 101.271 80.4482 101.118C80.305 101.175 79.9231 101.089 79.9804 101.233C79.2452 101.147 78.2045 101.385 77.7367 101.147C77.6317 101.175 77.3739 101.166 77.4312 101.233C77.6126 101.309 77.6699 101.166 77.7367 101.213C77.6412 101.223 77.6221 101.261 77.6126 101.28C77.3834 101.261 77.202 101.252 77.4121 101.128C76.9061 101.061 76.8965 101.395 76.2569 101.366C76.2855 101.309 76.2378 101.29 76.0468 101.299L75.6936 101.414C75.2735 101.404 75.4549 101.29 75.4358 101.185C75.2162 101.213 74.9393 101.213 74.8438 101.299L74.5669 101.185C74.7674 101.271 74.3856 101.252 74.2805 101.28L74.3856 101.252C74.3378 101.213 74.0896 101.252 73.9559 101.271C73.9846 101.328 74.2519 101.347 74.3951 101.357C74.2805 101.404 74.1087 101.404 73.9559 101.462C74.0037 101.357 73.5931 101.404 73.4117 101.404C73.2112 101.395 73.1826 101.5 73.1253 101.5C73.1157 101.452 72.7911 101.509 72.9534 101.423C73.0203 101.404 73.1157 101.471 73.2303 101.414C73.0966 101.385 73.1062 101.29 72.8293 101.366C72.6193 101.423 72.8866 101.557 72.4952 101.509C72.6002 101.481 72.6193 101.443 72.6956 101.404L72.3233 101.366L72.3137 101.452C72.266 101.433 72.2947 101.423 72.2756 101.414C72.1705 101.509 71.7123 101.471 71.6263 101.576C71.4354 101.595 71.2253 101.529 71.0535 101.529L71.0917 101.519C70.8721 101.471 70.5857 101.519 70.4043 101.595L70.4138 101.576C70.2897 101.576 70.0128 101.605 69.8601 101.662C69.5545 101.605 69.7455 101.328 69.4113 101.452C69.1058 101.471 68.9339 101.634 69.0676 101.691C68.5139 101.653 67.8933 101.824 67.3777 101.71C67.3013 101.748 67.3491 101.767 67.1868 101.796C66.3752 101.796 65.4873 101.977 64.8285 101.824C65.0577 101.777 64.8381 101.739 64.8381 101.681C64.6471 101.767 64.5994 101.605 64.5421 101.748C64.5612 101.824 64.5517 101.872 64.7808 101.891C64.3034 101.958 63.5683 101.987 63.2914 101.92C63.4251 101.949 63.32 101.977 63.2246 102.006C63.2532 101.872 62.9 101.872 62.6326 101.929L62.5944 102.006L62.413 101.929C62.308 101.958 62.308 102.101 62.0311 102.034C62.012 102.006 62.0025 101.977 61.9452 101.958C61.6683 102.034 61.2769 102.159 60.9809 102.111L60.7327 102.006C60.6086 102.025 60.389 102.101 60.6181 102.13C60.1026 102.082 59.7684 102.092 59.5965 101.996C58.7182 102.273 57.4293 102.34 56.3981 102.369L56.4268 102.311C56.1499 102.264 56.2836 102.416 56.0926 102.388C56.1785 102.33 55.873 102.273 56.0926 102.197C55.6916 102.149 55.5866 102.321 55.3288 102.359C55.2906 102.435 55.5389 102.302 55.4911 102.397C55.4434 102.426 54.9374 102.359 54.8801 102.483C54.7751 102.445 54.8514 102.35 54.9087 102.302L54.67 102.369C54.3645 102.245 55.3384 102.092 55.0138 101.939L54.7942 101.968C54.5746 101.853 55.3766 101.805 54.8133 101.786C54.5746 101.853 54.3741 102.034 54.5937 102.073C54.0877 102.13 54.3741 102.359 53.8299 102.378C53.6771 102.311 54.2691 102.34 54.1545 102.254C53.8967 102.168 53.6389 102.33 53.4098 102.302C53.6676 102.34 53.4575 102.464 53.2952 102.493C53.0183 102.445 53.4671 102.378 53.0756 102.378C53.0183 102.445 52.6555 102.512 52.9706 102.55C52.8369 102.712 52.5601 102.521 52.35 102.655C52.2164 102.55 52.7415 102.388 52.3118 102.35C52.3882 102.455 51.7867 102.512 52.0159 102.655C51.844 102.636 51.8249 102.55 51.949 102.483C51.7008 102.426 51.3666 102.703 51.2807 102.493L51.2043 102.607C51.1279 102.579 51.0134 102.55 50.8893 102.502C50.6792 102.512 50.2114 102.674 50.2209 102.512C50.1541 102.531 49.6672 102.54 49.8581 102.645C50.1636 102.703 50.2018 102.55 50.3737 102.693C50.1541 102.579 49.9345 102.731 49.7627 102.779L49.734 102.722C49.629 102.75 49.3903 102.75 49.333 102.817C49.4094 102.779 49.3712 102.741 49.2853 102.722L49.1803 102.817C48.7602 102.884 49.0752 102.655 48.6647 102.703L48.9702 102.617C48.9034 102.636 48.7602 102.55 48.5597 102.588C48.4833 102.674 48.3496 102.789 48.2828 102.855C48.0537 102.903 48.1778 102.76 47.9486 102.865L48.2446 102.75C48.2923 102.722 48.0346 102.617 47.729 102.636C47.5286 102.674 47.2326 102.808 47.5476 102.846C47.3949 102.855 47.1753 102.808 47.2899 102.741C46.9366 102.789 47.3376 102.836 47.0416 102.894C46.9175 102.846 46.5261 102.779 46.2874 102.703L46.6024 102.54L46.3924 102.55C46.6597 102.426 46.2492 102.464 46.4019 102.34C46.2587 102.33 46.0869 102.378 45.9437 102.416C46.3733 102.598 45.4854 102.703 45.6095 102.875C45.0367 102.951 45.2276 102.455 44.6452 102.76C44.7502 102.798 44.4638 102.951 44.8266 102.884C44.4638 102.884 44.5879 103.075 44.1678 103.018C44.4829 102.932 43.8241 102.855 44.2729 102.722C44.2442 102.779 44.5306 102.76 44.5975 102.731C44.4447 102.674 44.6166 102.55 44.2538 102.569C44.0342 102.598 43.7287 102.607 43.7764 102.703C43.7859 102.808 44.1201 102.674 43.9769 102.789C43.5282 102.846 43.4518 102.693 43.2704 102.875C43.5473 102.846 43.6236 102.951 43.6236 103.018L43.299 103.075L43.3563 103.008C42.8312 102.98 43.2036 103.142 42.6975 103.142L42.4493 103.018C42.5639 102.894 43.194 103.037 43.089 102.855C42.7548 102.865 42.6498 102.96 42.3347 102.922C42.4016 102.903 42.497 102.894 42.5639 102.875C42.4493 102.875 42.3156 102.626 41.8478 102.798C41.6091 102.865 41.7905 102.865 41.781 102.941C41.2463 102.989 41.0936 103.066 40.7499 103.085C40.8167 102.941 40.1484 103.094 40.5207 102.941C40.7021 103.018 41.4659 102.97 41.6473 102.836C41.4468 102.684 42.0674 102.846 42.1724 102.674C41.7428 102.693 41.7619 102.531 41.6855 102.426C41.5709 102.426 41.4564 102.474 41.38 102.493C41.3323 102.598 41.485 102.588 41.5041 102.684C41.0267 102.674 40.5685 102.75 40.3107 102.855C40.1484 102.817 40.1961 102.712 40.3871 102.693C39.8238 102.75 39.2127 102.76 38.6781 102.75C39.0313 102.894 38.0766 102.817 38.3248 102.941C38.6112 102.97 38.869 103.066 38.7067 103.151C38.5253 103.151 38.7067 103.085 38.6303 103.046C38.4012 103.142 38.2675 102.922 38.0479 103.066C38.5635 102.989 38.1434 102.865 38.2293 102.731C37.857 102.817 38.2389 102.645 37.8761 102.655C37.5037 102.741 37.055 102.817 36.6444 102.855C36.1193 102.76 35.3269 102.913 34.8686 102.932C34.6204 102.875 34.7827 102.731 34.5154 102.712C34.2098 102.731 34.754 102.855 34.2958 102.808L34.334 102.779C34.2003 102.817 33.4938 102.722 33.3697 102.932L33.5033 102.77C33.4174 102.76 33.341 102.798 33.2742 102.817C33.2646 102.77 33.1692 102.722 33.3028 102.684C33.0164 102.588 32.7109 102.722 32.4054 102.741L32.6059 102.827C32.0808 102.922 31.7275 102.846 31.2215 102.894L31.231 102.808L30.9351 102.875C31.0019 102.789 30.725 102.741 30.5723 102.817L31.3456 102.569C31.5652 102.617 31.1165 102.684 31.2501 102.77C31.3647 102.846 31.8421 102.798 31.9089 102.712C31.7275 102.712 31.718 102.731 31.5843 102.77C31.5175 102.645 31.7943 102.645 31.928 102.55C31.8325 102.56 31.6989 102.531 31.6798 102.569C31.8612 102.502 32.0521 102.483 32.3576 102.464C32.1476 102.521 32.4722 102.54 32.3958 102.579C32.4149 102.464 32.7109 102.426 33.0928 102.435C33.3697 102.55 33.8089 102.321 34.248 102.34C34.0762 102.455 33.847 102.56 33.5797 102.617C33.8566 102.665 33.8852 102.598 34.1717 102.645C34.3053 102.56 34.3912 102.426 34.7541 102.359L34.7731 102.445C35.0978 102.388 35.0978 102.264 35.5083 102.273C36.2244 102.283 36.9595 102.254 37.5037 102.235L37.5324 102.311C37.8283 102.12 38.5444 102.206 38.9454 102.111C39.6424 102.159 40.4539 101.968 40.8167 102.092C42.0388 101.977 43.1081 101.872 44.3779 101.844L44.1678 101.968C44.3874 101.872 44.3206 102.034 44.5402 102.006C44.2824 101.92 44.8457 101.872 44.9985 101.786C45.5713 101.853 46.2874 101.719 46.7838 101.614L46.8029 101.691C47.2994 101.519 47.9104 101.624 48.5501 101.624C48.6265 101.653 48.7411 101.729 48.932 101.71C49.2662 101.567 49.4476 101.567 49.9441 101.462C50.3069 101.443 50.9083 101.452 51.2807 101.49C52.6555 101.242 54.0686 101.309 55.4911 101.137L55.5962 101.233C56.9805 100.965 58.6991 101.08 59.8734 100.927L59.7684 101.099C60.1407 101.137 60.6181 101.023 60.5131 100.908C60.8854 100.946 61.4392 100.793 61.6874 100.918C62.0693 100.927 62.1553 100.822 62.4703 100.784C63.2341 100.813 63.5205 100.784 64.2366 100.727H64.0552C63.9788 100.765 63.9693 100.832 64.1507 100.841C64.418 100.784 65.1436 100.841 64.8667 100.66C65.6401 100.746 66.6521 100.488 67.4064 100.612C67.3395 100.564 67.5305 100.545 67.6068 100.507C68.2847 100.478 68.9912 100.555 69.5259 100.44C69.6309 100.459 69.3636 100.536 69.6309 100.536C69.7932 100.507 69.6309 100.469 69.8314 100.431C70.9198 100.287 72.0464 100.44 73.0394 100.373C74.7961 100.192 76.6388 100.173 78.3382 100.077L78.3191 100.116C78.8824 99.9438 79.6557 100.211 80.0949 99.9724C80.2286 100.001 80.6105 99.9724 80.515 100.049C80.9637 99.9247 81.7848 100.097 82.4245 99.9342C82.3672 99.9342 82.329 99.9438 82.2622 99.9629C82.921 100.02 83.5034 99.8769 84.2003 99.9247C84.1335 99.9438 83.9998 99.9629 83.9807 100.001C84.2481 100.068 84.6109 99.8101 84.7636 99.9915C84.9164 99.982 84.8687 99.896 84.7732 99.9056C86.3008 99.9151 87.9143 99.7242 89.4992 99.6192C90.6353 99.686 89.5851 99.9342 90.473 99.7528C90.5494 99.791 90.5208 99.6765 90.5398 99.7146C90.8836 99.6478 91.0841 99.9056 91.3227 99.791C91.2177 99.6765 91.4755 99.7146 91.485 99.6478C92.182 99.6956 92.3252 99.791 92.8694 99.686L92.8312 99.7528C93.4614 99.5524 94.2156 99.6096 94.7503 99.3901C98.2924 99.2087 101.672 98.9509 105.128 98.7791C108.537 98.6741 111.878 98.4449 115.344 98.4068C116.165 98.5309 116.223 98.5309 117.11 98.4259C117.072 98.4545 117.024 98.464 117.082 98.4831C117.12 98.3495 117.712 98.4449 117.788 98.3113C119.068 98.2827 120.252 98.1967 121.569 98.1395C121.359 98.1585 121.264 98.2731 121.512 98.254L121.77 98.1585L121.817 98.1967C121.989 98.1681 122.171 98.1013 121.989 98.0631C125.293 97.8053 128.558 97.939 131.804 97.7671C132.577 97.7862 133.666 97.6908 134.506 97.6335C136.988 97.7099 139.232 97.7576 141.743 97.5285C141.695 97.5571 141.38 97.9103 140.349 98.0344Z" fill="white"/>
<path opacity="0.7" d="M30.1696 102.598C30.265 102.665 30.5515 102.684 30.3223 102.779C30.2937 102.722 30.1409 102.665 30.1696 102.598Z" fill="white"/>
<path opacity="0.7" d="M37.9034 102.961C37.913 102.941 38.018 102.98 38.0371 102.989C37.9416 102.999 37.8557 103.056 37.7793 103.027C37.8748 103.018 37.8557 102.989 37.9034 102.961Z" fill="white"/>
<path opacity="0.7" d="M39.8708 102.913C39.8422 102.97 39.4221 103.037 39.1738 103.056L39.8708 102.913Z" fill="white"/>
<path opacity="0.7" d="M41.714 103.085C41.877 103.133 41.8291 103.161 41.6181 103.161C41.6085 103.133 41.6757 103.113 41.714 103.085Z" fill="white"/>
<path opacity="0.7" d="M41.8366 102.941C41.9893 102.932 42.0657 102.961 42.1421 102.999C42.1326 102.941 41.7888 103.037 41.8366 102.941Z" fill="white"/>
<path opacity="0.7" d="M45.8285 102.941C45.9239 102.932 46.134 102.875 46.2199 102.941C46.1244 102.894 45.7616 103.037 45.8285 102.941Z" fill="white"/>
<path opacity="0.7" d="M47.6797 102.779C47.7372 102.779 47.766 102.789 47.8331 102.77C47.9482 102.789 47.8331 102.837 47.7372 102.846L47.6797 102.779Z" fill="white"/>
<path opacity="0.7" d="M81.3557 101.118L81.1543 101.156L81.1831 101.099L81.3557 101.118Z" fill="white"/>
<path opacity="0.7" d="M96.1152 100.498C96.3166 100.45 96.2591 100.545 96.2879 100.555C96.1056 100.565 96.355 100.478 96.1152 100.498Z" fill="white"/>
<path opacity="0.7" d="M104.058 99.868H104L104.019 99.7433L104.058 99.868Z" fill="white"/>
</g>
</g>
</g>
</g>
</g>
<path d="M20.412 110.789C20.412 110.789 22.0924 107.285 20.0015 104.058L12.6309 108.163L20.412 110.789Z" fill="#1F2B3D"/>
<path d="M170.175 127.123C170.175 127.123 198.769 160.584 196.526 172.011C194.282 183.439 179.608 188.842 169.277 181.071C162.164 175.715 151.92 134.655 151.92 134.655L170.175 127.123Z" fill="#1F2B3D"/>
<path d="M143.335 124.813C143.335 124.813 141.674 128.526 143.106 131.963C144.538 135.4 147.584 138.436 157.781 135.095C167.977 131.753 182.404 128.02 185.44 117.128C188.476 106.235 172.226 96.0774 162.058 96.5738C156.749 96.8316 161.313 103.018 161.313 103.018C161.313 103.018 154.85 99.266 152.138 101.28C149.436 103.304 152.138 106.731 152.138 106.731C152.138 106.731 146.944 102.645 144.204 104.001C141.464 105.366 144.452 111.686 144.452 111.686C144.452 111.686 140.528 109.28 138.753 110.693C136.977 112.116 143.335 124.813 143.335 124.813Z" fill="white"/>
<path d="M162.114 103.027C162.114 103.027 157.064 97.0989 162.706 96.5261C171.566 95.6382 186.031 107.734 185.993 115.066C185.926 128.612 156.395 137.052 148.681 136.336C142.246 135.744 141.673 127.753 143.096 124.631" fill="white"/>
<path d="M162.019 103.113C161.246 102.359 160.539 101.529 159.986 100.545C159.718 100.049 159.499 99.4951 159.413 98.8554C159.375 98.5309 159.384 98.1872 159.47 97.8244C159.565 97.4712 159.747 97.118 159.995 96.8316C160.501 96.2588 161.141 95.9724 161.742 95.7814C162.353 95.581 162.926 95.5237 163.509 95.4568C164.673 95.3614 165.838 95.4377 166.955 95.6287C171.452 96.4879 175.433 98.655 178.985 101.309C179.873 101.987 180.742 102.684 181.572 103.438C182.384 104.211 183.186 105.003 183.931 105.863C185.41 107.591 186.814 109.471 187.721 111.896C187.95 112.498 188.122 113.147 188.227 113.844C188.294 114.178 188.294 114.56 188.322 114.922C188.342 115.285 188.313 115.591 188.303 115.925C188.208 117.242 187.893 118.541 187.406 119.724C186.422 122.102 184.885 124.039 183.215 125.662C179.787 128.851 175.873 131.037 171.872 132.822C167.834 134.531 163.7 135.915 159.432 136.794C157.303 137.233 155.155 137.624 152.949 137.787C151.842 137.863 150.734 137.911 149.56 137.844C148.395 137.787 147.087 137.519 145.96 136.927C144.834 136.307 143.889 135.39 143.268 134.35C142.628 133.309 142.265 132.183 142.075 131.066C141.712 128.841 141.931 126.531 142.991 124.593C143.02 124.526 143.106 124.498 143.173 124.536C143.23 124.565 143.258 124.641 143.239 124.708C142.456 126.627 142.476 128.841 142.953 130.846C143.43 132.861 144.662 134.77 146.562 135.629C148.462 136.498 150.648 136.231 152.72 135.992C154.811 135.715 156.873 135.276 158.916 134.751C163.003 133.701 167.003 132.297 170.831 130.541C174.641 128.765 178.345 126.636 181.372 123.734C182.88 122.292 184.198 120.631 185.009 118.722C185.802 116.822 186.079 114.655 185.344 112.708C184.666 110.741 183.472 108.984 182.145 107.371C180.799 105.758 179.281 104.287 177.658 102.951C174.402 100.326 170.707 98.0631 166.631 97.0416C165.609 96.8029 164.568 96.6502 163.528 96.6597C162.506 96.6788 161.389 96.7934 160.663 97.4807C160.32 97.8244 160.177 98.3208 160.205 98.8268C160.234 99.3328 160.387 99.8292 160.587 100.307C160.998 101.261 161.58 102.149 162.239 102.96C162.287 103.018 162.277 103.104 162.22 103.151C162.143 103.171 162.067 103.161 162.019 103.113Z" fill="#1F2B3D"/>
<path d="M175.061 113.816C175.061 113.816 160.826 97.9207 153.551 99.7727C148.815 100.976 151.479 105.978 151.479 105.978" fill="white"/>
<path d="M174.966 113.91C172.369 112.44 170.03 110.817 167.729 109.204C166.554 108.421 165.466 107.572 164.32 106.817C163.184 106.044 162.096 105.233 160.96 104.545C159.852 103.82 158.735 103.132 157.618 102.636C156.53 102.063 155.422 101.71 154.515 101.624C154.105 101.567 153.551 101.634 153.159 101.748C152.749 101.844 152.443 101.968 152.166 102.302C151.555 102.98 151.469 104.488 151.603 105.93L151.613 105.987C151.622 106.054 151.565 106.12 151.498 106.13C151.441 106.14 151.393 106.101 151.374 106.063C151.04 105.404 150.801 104.727 150.677 104.001C150.553 103.285 150.543 102.521 150.792 101.805C151.04 101.089 151.574 100.488 152.233 100.125C152.882 99.7528 153.598 99.5428 154.343 99.4664C155.833 99.3423 157.274 99.7624 158.601 100.297C159.938 100.851 161.208 101.548 162.411 102.33C164.807 103.915 167.013 105.758 169.132 107.677C171.242 109.605 173.257 111.629 175.176 113.758C175.223 113.815 175.223 113.891 175.166 113.939C175.128 113.977 175.061 113.987 175.013 113.958L174.966 113.91Z" fill="#1F2B3D"/>
<path d="M167.339 120.546C167.339 120.546 152.244 102.264 144.988 104.202C138.888 105.825 144.893 111.42 144.893 111.42" fill="white"/>
<path d="M167.233 120.631C164.454 118.846 161.953 116.899 159.518 114.942C158.277 113.987 157.112 112.975 155.881 112.058C154.716 111.066 153.484 110.178 152.291 109.299C151.117 108.393 149.866 107.648 148.692 106.97C148.1 106.646 147.508 106.378 146.944 106.216C146.391 106.025 145.885 105.93 145.445 105.949C144.825 106.044 144.281 106.197 143.966 106.34C143.67 106.474 143.498 106.636 143.45 107.237C143.421 107.81 143.66 108.507 143.927 109.214C144.223 109.91 144.567 110.636 144.978 111.323L144.997 111.362C145.035 111.419 145.016 111.505 144.949 111.543C144.901 111.572 144.834 111.562 144.787 111.524C143.66 110.397 142.581 109.137 142.152 107.524C141.941 106.731 142.113 105.758 142.743 105.166C143.345 104.564 144.137 104.249 144.911 104.03C146.553 103.61 148.214 104.106 149.665 104.727C151.145 105.376 152.501 106.225 153.809 107.142C156.406 109.013 158.745 111.18 160.998 113.424C163.242 115.677 165.381 118.025 167.414 120.469C167.462 120.526 167.452 120.603 167.395 120.65C167.347 120.689 167.29 120.689 167.242 120.66L167.233 120.631Z" fill="#1F2B3D"/>
<path d="M157.474 124.355C157.474 124.355 145.587 108.536 139.678 110.703C133.768 112.87 145.979 127.963 145.979 127.963" fill="white"/>
<path d="M157.36 124.44C154.41 122.168 151.689 119.801 148.949 117.596C147.545 116.536 146.228 115.428 144.815 114.579C144.127 114.14 143.45 113.72 142.781 113.424C142.122 113.118 141.483 112.937 141.044 112.918C140.633 112.851 140.337 113.013 140.423 112.927C140.461 112.879 140.452 112.851 140.414 112.946C140.385 113.07 140.366 113.29 140.375 113.586C140.394 114.178 140.557 114.932 140.795 115.686C141.044 116.44 141.33 117.242 141.645 118.035C142.963 121.223 144.605 124.45 146.094 127.858L146.113 127.896C146.142 127.963 146.113 128.04 146.047 128.068C145.989 128.097 145.932 128.078 145.894 128.03C143.641 125.185 141.531 122.216 139.793 119.018C138.953 117.405 138.151 115.734 137.893 113.872C137.769 112.965 137.855 111.887 138.571 111.123C139.287 110.388 140.337 110.178 141.282 110.245C142.237 110.331 143.125 110.665 143.956 111.075C144.786 111.486 145.56 111.973 146.304 112.517C147.794 113.586 149.149 114.808 150.448 116.068C153.035 118.617 155.403 121.376 157.608 124.269C157.656 124.326 157.637 124.412 157.58 124.45C157.532 124.488 157.465 124.488 157.418 124.45L157.36 124.44Z" fill="#1F2B3D"/>
<path d="M109.557 213.138C109.729 212.995 109.576 212.919 109.004 213.157C108.899 213.291 108.775 213.396 108.65 213.52C108.965 213.425 109.261 213.272 109.557 213.138Z" fill="#3B4656"/>
<path d="M105.461 213.301C104.764 213.367 103.914 213.425 104.334 213.721C105.07 213.597 105.241 213.711 106.015 213.463C106.616 213.444 107.075 213.501 106.979 213.597C107.189 213.53 107.943 213.53 108.23 213.301C107.418 213.301 106.464 213.377 105.413 213.453C105.194 213.396 105.413 213.348 105.461 213.301Z" fill="#3B4656"/>
<path d="M80.1122 205.768L79.8066 205.549C79.883 205.616 79.988 205.692 80.1122 205.768Z" fill="#3B4656"/>
<path d="M105.881 195.744C105.632 195.83 105.527 195.897 105.527 195.916C105.756 195.821 105.938 195.744 105.881 195.744Z" fill="#3B4656"/>
<path d="M111.791 194.742C111.667 194.751 111.552 194.761 111.438 194.771C111.571 194.78 111.714 194.771 111.791 194.742Z" fill="#3B4656"/>
<path d="M80.1113 205.768L80.9038 206.322C80.9992 206.284 80.5028 206.017 80.1113 205.768Z" fill="#3B4656"/>
<path d="M97.6504 211.496C97.8413 211.563 98.0036 211.611 98.1564 211.639C98.0036 211.582 97.8509 211.525 97.6981 211.468C97.679 211.477 97.6695 211.487 97.6504 211.496Z" fill="#3B4656"/>
<path d="M69.1035 201.969L69.1703 202.227C69.2181 202.293 69.2754 202.351 69.3327 202.408C69.2563 202.255 69.1799 202.112 69.1035 201.969Z" fill="#3B4656"/>
<path d="M76.6562 210.055C76.4175 209.978 76.2647 210.15 76.1406 210.207C76.3125 210.169 76.5034 210.179 76.7326 210.236C76.7517 210.188 76.723 210.131 76.6562 210.055Z" fill="#3B4656"/>
<path d="M95.4453 209.711L95.7795 209.797C95.6935 209.778 95.5503 209.74 95.4453 209.711Z" fill="#3B4656"/>
<path d="M74.0117 202.007C74.0117 202.045 74.0309 202.093 74.0597 202.132C74.0789 202.112 74.0597 202.064 74.0117 202.007Z" fill="#3B4656"/>
<path d="M96.162 190.848C96.1717 190.828 96.1523 190.828 96.162 190.809C96.094 190.838 96.0746 190.857 96.162 190.848Z" fill="#3B4656"/>
<path d="M86.3281 195.926L86.1944 195.773C86.1467 195.782 86.1085 195.782 86.0703 195.811L86.3281 195.926Z" fill="#3B4656"/>
<path d="M118.703 195.219C118.703 195.191 118.703 195.181 118.703 195.143C118.674 194.713 118.674 194.961 118.703 195.219Z" fill="#3B4656"/>
<path d="M125.921 209.196C125.825 208.565 126.016 209.043 126.226 209.425C126.427 209.807 126.608 210.093 126.389 209.205C126.35 209.415 125.596 207.678 125.921 209.196Z" fill="#3B4656"/>
<path d="M97.3743 211.353C97.2215 211.286 97.0688 211.229 96.916 211.162C97.1261 211.248 97.2597 211.305 97.3743 211.353Z" fill="#3B4656"/>
<path d="M126.388 209.206L126.35 209.024C126.369 209.091 126.378 209.139 126.388 209.206Z" fill="#3B4656"/>
<path d="M142.066 207.373C142.028 207.325 141.942 207.258 141.846 207.2C141.846 207.219 141.894 207.258 142.066 207.373Z" fill="#3B4656"/>
<path d="M124.488 199.458L124.908 199.687C124.746 199.582 124.612 199.515 124.488 199.458Z" fill="#3B4656"/>
<path d="M151.775 209.969C152.024 210.045 152.11 210.083 152.463 210.141C152.434 210.122 152.406 210.112 152.367 210.093C152.224 210.083 152.052 210.064 151.775 209.969Z" fill="#3B4656"/>
<path d="M161.161 206.847C161.142 206.904 161.113 206.99 161.094 207.057C161.075 207.172 161.037 207.305 161.018 207.429C161.075 207.238 161.132 207.048 161.161 206.847Z" fill="#3B4656"/>
<path d="M126.8 192.947C126.647 192.794 126.561 192.67 126.494 192.565C126.552 192.766 125.272 192.164 126.8 192.947Z" fill="#3B4656"/>
<path d="M97.6881 211.391C97.6117 211.42 97.5163 211.401 97.373 211.353C97.4876 211.391 97.5926 211.439 97.6977 211.477C97.7358 211.458 97.7454 211.429 97.6881 211.391Z" fill="#3B4656"/>
<path d="M152.549 208.47C153.064 208.594 153.618 208.737 154.115 208.842C153.675 208.728 153.112 208.594 152.549 208.47Z" fill="#3B4656"/>
<path d="M118.35 188.46L118.016 188.623C118.149 188.575 118.264 188.518 118.35 188.46Z" fill="#3B4656"/>
<path d="M158.229 208.565C158.448 208.527 158.668 208.432 158.859 208.289C158.878 208.241 158.916 208.193 158.916 208.145C158.715 208.336 158.477 208.451 158.229 208.565Z" fill="#3B4656"/>
<path d="M116.163 190.923C117.71 191.047 116.917 190.713 117.252 190.589C119.113 190.666 118.092 190.866 118.703 191.057C119.858 191.095 120.756 190.961 121.596 191.124C121.653 191.181 121.806 191.219 121.605 191.248C122.216 191.248 123.085 191.42 123.954 191.668C124.823 191.916 125.682 192.241 126.35 192.432C126.436 192.498 126.465 192.546 126.474 192.575C126.341 192.355 126.369 192.212 126.455 192.145C127.066 192.451 127.658 192.623 127.773 192.919C127.429 192.68 127.353 192.728 127.162 192.67C127.372 192.775 127.601 192.871 127.802 192.985C127.992 193.272 127.782 193.148 127.515 192.985C127.238 192.833 126.895 192.623 126.847 192.718C128.078 193.281 129.425 194.236 129.997 195.152C129.969 195.315 129.577 194.837 129.253 194.513C128.919 194.188 128.699 193.978 129.09 194.551C128.756 194.14 128.365 193.778 127.973 193.415C128.68 194.465 127.238 192.823 127.849 193.825C128.613 194.484 129.005 194.885 129.396 195.305C129.759 195.735 130.15 196.174 130.551 197.1C130.876 197.453 130.675 196.871 131 197.243C131.668 198.589 131.515 199.238 131.42 199.697C131.296 200.174 131.2 200.508 131.153 201.53C131.172 201.806 131.258 202.026 131.21 202.341C131.181 202.656 131.057 203.105 130.57 203.706C130.589 203.506 130.608 203.324 130.589 203.124C130.102 203.945 129.969 204.193 129.854 204.479C129.711 204.747 129.568 205.052 128.68 205.654C128.794 205.491 129.081 205.215 129.3 205.005C129.501 204.775 129.654 204.613 129.539 204.709C128.422 205.472 128.957 205.482 128.098 206.122L127.773 206.026C125.988 207.219 123.677 208.174 121.195 208.585C121.319 208.489 121.729 208.336 121.137 208.365C118.034 209.005 114.387 208.919 111.399 208.413C111.008 208.432 110.616 208.47 110.215 208.48C109.948 208.432 109.738 208.308 110.024 208.308C108.869 208.04 109.938 208.432 109.365 208.432C108.697 208.336 108.506 208.145 108.936 208.164C107.895 208.069 106.406 207.849 104.935 207.468C103.484 207.105 101.995 206.522 101.097 206.017L101.479 206.112C100.725 205.759 100.591 205.711 100.391 205.511C100.209 205.31 100.104 204.88 100.467 204.241C100.448 204.336 100.429 204.422 100.41 204.508C100.534 204.126 100.754 203.725 100.983 203.296C101.202 202.876 101.422 202.456 101.68 202.045C102.148 201.215 102.682 200.413 103.226 199.668C104.315 198.169 105.518 196.89 106.654 196.012C106.73 195.706 107.427 195.095 108.105 194.522C108.793 193.959 109.461 193.434 109.432 193.195C111.284 192.098 110.807 192.479 113.423 191.019C114.13 190.646 114.321 190.188 115.189 189.692L115.313 189.883C115.676 189.606 116.049 189.339 116.421 189.081C116.679 189.062 116.937 189.043 117.185 189.033C117.462 188.89 117.739 188.747 118.015 188.613C117.662 188.737 117.252 188.833 117.28 188.747C118.579 188.05 120.65 187.649 120.717 187.754C121.787 187.362 122.875 187.019 123.983 186.742C123.925 186.837 123.372 186.99 122.942 187.143C124.67 186.551 123.305 187.296 124.899 186.799C124.67 186.79 124.995 186.646 125.033 186.599C125.873 186.599 127.735 186.436 129.129 186.446L128.861 186.599C131.344 186.685 134.093 187.095 136.604 188.307C135.726 187.83 136.041 187.658 136.805 187.992L136.996 188.355C137.54 188.451 136.261 187.897 137.33 188.212C138.246 188.747 137.817 188.794 137.263 188.575C137.645 188.766 138.036 188.918 138.409 189.129C138.437 189.234 138.161 189.1 138.056 189.138C138.59 189.281 139.736 190.503 140.433 190.809L140.442 190.904C142.486 192.728 143.307 193.72 144.405 195.658C144.624 195.592 144.968 196.403 145.378 196.976C145.923 198.561 146.161 200.413 146.19 202.398C146.257 203.802 146.352 202.809 146.457 203.458C146.362 203.506 146.266 204.031 146.19 204.413C146.104 204.795 146.028 205.024 146.047 204.499C145.875 205.682 145.722 206.437 145.464 207.238C145.226 208.05 144.93 208.928 144.195 210.246C144.433 210.007 144.662 209.711 144.615 209.912C144.347 210.398 143.86 210.933 143.822 210.799L143.899 210.675C143.02 212.126 141.435 213.444 139.698 213.969C137.96 214.542 136.241 214.532 134.924 214.542H135.067C134.17 214.475 133.244 214.36 132.365 214.045C131.783 213.787 131.983 213.816 132.203 213.883C132.442 213.921 132.709 213.969 132.298 213.749C130.895 213.31 129.959 212.537 129.262 211.716C128.565 210.876 128.05 210.026 127.553 208.9C127.486 207.926 127.143 206.332 127.19 204.546C127.21 202.771 127.611 200.89 128.222 199.716L128.05 199.821C128.155 199.133 128.393 199.076 128.613 198.627C128.489 198.646 128.231 199.267 128.317 198.847C129.31 196.155 131.086 193.577 133.549 192.05C135.993 190.484 139.029 190.026 141.855 190.379C142.887 190.513 143.211 190.417 143.603 190.36C143.984 190.312 144.481 190.284 145.703 190.885C145.436 190.876 145.168 190.866 144.901 190.866C146.982 191.362 148.978 192.47 150.744 193.825C152.52 195.181 154.086 196.794 155.585 198.389C155.375 198.226 155.308 198.265 155.04 197.95C155.527 198.732 157.16 200.604 157.284 200.546C157.666 201.11 157.275 200.756 157.456 201.138C157.924 201.931 158.869 202.904 158.898 203.42C158.907 203.506 158.745 203.229 158.659 203.095C158.831 203.324 159.117 203.926 159.28 204.394C159.451 204.861 159.537 205.215 159.585 204.938C159.709 205.663 159.786 206.332 159.661 206.904C159.547 207.477 159.26 207.983 158.859 208.289C158.707 208.594 158.21 208.9 157.685 209.014C157.17 209.148 156.663 209.176 156.549 209.348C156.587 209.176 155.938 209.167 155.126 209.071C154.324 208.995 153.341 208.814 152.806 208.775C153.169 208.756 151.938 208.48 152.377 208.432C151.212 208.184 150.143 207.945 150.295 208.164C148.271 207.229 145.932 207.258 144.911 206.37C141.483 205.415 138.351 204.308 135.363 203.114C135.592 202.866 138.657 204.451 138.667 204.069C135.793 203.057 134.065 202.608 131.334 201.281C130.637 200.909 131.802 201.339 132.06 201.396C129.224 200.26 126.713 198.885 124.183 197.873C124.202 197.845 124.479 197.95 124.746 198.045C124.259 197.825 123.639 197.463 123.629 197.625L124.116 197.816C124.794 198.389 121.987 197.31 121.863 197.367C122.369 197.367 121.758 197.071 121.309 196.737C120.851 196.393 120.622 196.05 121.223 196.222C120.985 196.078 120.717 195.878 120.679 195.983C120.46 195.639 120.488 195.515 120.765 195.763C120.526 195.467 120.507 195.343 120.44 195.172C120.421 195.095 120.402 195.028 120.393 194.971L120.374 194.885C120.383 194.78 120.364 194.751 120.364 194.685C120.335 194.408 120.288 194.045 120.412 193.692C120.44 193.596 120.498 193.529 120.584 193.482C120.603 193.472 120.498 193.52 120.507 193.635C120.507 193.654 120.507 193.663 120.507 193.682C120.507 193.654 120.507 193.644 120.517 193.625C120.526 193.53 120.565 193.491 120.603 193.463C120.631 193.463 120.65 193.444 120.689 193.453L120.736 193.463C120.756 193.463 120.708 193.424 120.698 193.415C120.536 193.253 120.326 193.119 120.087 192.957C119.572 192.985 118.922 193.004 118.311 193.004C118.359 192.985 118.33 192.957 118.359 192.938C118.369 192.919 118.464 192.899 118.808 192.89C118.607 192.899 118.407 192.909 118.206 192.919C118.054 192.928 117.901 192.938 117.758 192.947C117.462 192.976 117.175 193.004 116.889 193.024C116.325 193.081 115.772 193.157 115.218 193.224C114.11 193.377 112.974 193.51 111.571 193.625C112.354 193.205 110.616 193.644 110.425 193.405C109.929 193.52 109.432 193.625 108.936 193.749C109.146 193.749 109.356 193.759 109.556 193.768C108.248 194.007 107.15 194.465 106.033 194.713L106.95 194.331C106.148 194.57 105.355 194.828 104.582 195.133C105.04 195 105.499 194.895 105.957 194.78C104.725 195.343 106.196 195.047 104.515 195.563C104.83 195.401 103.293 196.031 102.606 196.193C102.052 196.565 101.508 196.957 100.639 197.415C100.381 197.482 100.649 197.043 100.477 197.09C100.276 197.377 99.6174 197.806 98.9969 198.322C98.3667 198.828 97.7652 199.391 97.5647 199.773C97.7175 199.544 97.6316 199.42 97.5456 199.468L97.2879 199.983C96.8009 200.374 96.7341 200.422 96.715 200.269C95.4548 201.654 97.3451 200.04 95.808 201.625C95.9035 201.482 95.8271 201.53 96.0276 201.224C94.5668 202.904 93.6789 204.823 92.982 206.723C92.7719 206.971 92.8483 206.532 93.0106 206.122C93.1634 205.711 93.3066 205.301 93.0774 205.587C92.8006 206.284 92.6001 207.028 92.4473 207.773C92.39 208.155 92.3136 208.527 92.2754 208.909C92.2468 209.272 92.2086 209.749 92.2182 209.892L92.2468 210.618C92.2754 210.723 92.18 210.637 92.1322 210.637L91.9699 210.589L91.6358 210.484L91.2921 210.37L90.8147 210.188C90.4805 210.064 90.1559 209.931 89.8408 209.797L90.3182 210.026C89.8122 210.246 88.4756 209.071 87.1389 208.661C87.4635 208.775 87.6354 208.651 87.5304 208.651C85.8309 207.811 83.9882 207.095 81.42 205.778L81.7828 205.864C80.8567 205.234 79.2718 204.336 78.2884 203.63C77.9352 203.525 77.3719 203.124 77.6392 203.477C76.2453 202.217 74.7654 201.243 73.3524 200.26C72.6172 199.754 71.8439 199.296 70.956 199.047C70.5168 198.933 70.0299 198.876 69.5334 199.009C69.0274 199.143 68.6168 199.477 68.3113 199.907C68.5214 199.448 69.0751 198.962 68.7505 199.219C68.2827 199.639 68.0345 200.25 68.0058 200.814C67.9581 201.377 68.0631 201.902 68.2063 202.379C68.3209 202.102 68.1872 201.969 68.2731 201.32C68.3686 201.701 68.6168 202.475 68.9033 203.114C68.3495 201.94 68.6264 203.238 68.7982 203.783C68.8078 203.678 68.9415 203.83 68.9701 203.763C69.3806 205.243 69.3424 203.859 70.1922 205.701L70.0585 205.654C70.5168 206.274 71.0228 206.771 71.5384 207.401C71.6147 207.792 70.9369 206.847 70.7937 206.895C71.5288 207.83 72.579 208.346 73.2856 209.129C72.8464 208.89 72.3308 208.403 71.9394 208.098C72.6077 209.071 72.7795 209.1 73.4574 209.644L73.3906 209.596C73.9252 210.007 74.4885 210.379 75.1091 210.685L74.6604 210.408C75.4433 210.513 76.1402 210.742 76.9422 210.914C77.7251 211.105 78.6226 211.162 79.5773 210.971C77.6869 211.305 79.2623 211.162 79.1286 211.391C79.6442 211.458 80.4271 211.449 80.2075 211.534C81.124 211.258 81.8114 211.487 83.0335 210.943C83.1099 211 83.9978 210.723 83.8355 210.943C84.9812 210.608 83.53 210.885 83.6064 210.78C85.3535 210.141 87.8072 209.892 90.2896 209.463C91.378 209.377 92.0368 209.367 92.6764 209.386C93.3257 209.415 93.9558 209.463 94.9774 209.74C95.6075 210.074 94.3472 209.816 94.3472 209.816C95.3975 210.246 96.1899 210.551 97.2115 210.885C96.9823 210.857 97.1733 210.99 97.4406 211.2C98.2426 211.515 98.0707 211.191 99.0828 211.735C98.8727 211.735 98.5863 211.754 98.1758 211.659C99.1401 212.002 100.123 212.279 101.155 212.585C101.384 212.804 100.486 212.546 100.104 212.47C101.241 212.89 103.121 213.386 103.532 213.243C103.284 213.157 103.045 213.081 102.797 212.986C103.217 213.091 102.969 213.215 102.644 213.157C101.594 213.024 101.241 212.632 101.212 212.556L101.947 212.756C101.336 212.155 99.0828 211.744 97.6984 211.114L98.3954 211.076L96.8678 210.704C96.5909 210.503 96.4477 210.265 97.1542 210.503C96.1995 209.95 96.2281 210.236 95.407 209.759C95.3211 209.701 95.3688 209.701 95.4643 209.721C95.1206 209.635 94.7673 209.549 94.4236 209.472C94.6432 209.472 94.3186 209.205 94.9296 209.453C93.1252 208.68 91.8458 208.966 91.1488 208.699C91.2061 208.699 91.2539 208.69 91.3111 208.69C89.9554 208.699 89.8981 208.823 89.9172 208.88C89.9459 208.966 90.0413 209.024 89.077 209.253C88.6188 209.11 88.1509 209.005 87.6736 208.9L87.454 209.167C87.1866 209.215 86.652 209.31 86.7284 209.205C85.7736 209.587 86.9193 209.262 86.3751 209.539C85.048 209.644 82.8903 210.513 82.5179 210.198C82.0979 210.465 83.7687 210.064 82.432 210.475C81.9737 210.179 80.8567 210.876 79.6442 210.761C79.9974 210.551 81.1049 210.542 79.921 210.475C79.5869 210.675 79.0045 210.675 78.4125 210.599C77.811 210.513 77.2191 210.312 76.7417 210.236C76.694 210.351 76.1593 210.265 75.4815 209.988C74.8036 209.711 74.0016 209.215 73.3237 208.737C73.3906 208.737 72.7891 208.231 72.1399 207.496C71.4811 206.761 70.8128 205.778 70.469 205.1L70.5359 205.119C70.1444 205.024 69.3711 203.582 68.9606 202.522C69.1324 202.513 69.2374 202.685 69.5525 203.21C69.3997 202.885 69.2756 202.57 69.1801 202.236C69.0369 202.036 68.8746 201.721 68.8555 201.09C68.9224 201.176 68.9892 201.253 69.056 201.329C69.0083 200.718 69.1515 200.164 69.648 199.859C70.1158 199.563 70.9655 199.735 71.6911 200.231C71.7866 200.174 71.5288 199.888 71.4524 199.716C71.3665 199.563 71.5288 199.439 72.4454 199.916C72.4549 200.05 72.4263 200.222 71.9585 199.993C72.1112 200.069 72.5218 200.241 72.7795 200.479C72.5313 200.374 72.2831 200.269 72.0253 200.184C72.6936 200.699 72.474 200.298 73.0182 200.718C72.9228 200.823 73.3619 201.11 73.2187 201.148C73.066 201.052 72.77 200.728 72.5313 200.632C73.1232 201.1 73.8393 201.768 74.0303 202.036C74.0207 201.931 74.1448 201.883 74.6222 202.198C75.8347 203.067 74.9373 202.637 75.6056 203.2C75.9588 203.334 76.6844 203.945 76.8277 203.783C77.1905 204.031 77.2 204.155 77.305 204.298C78.002 204.651 80.3793 206.188 79.7587 205.539L79.5964 205.425C79.6251 205.444 79.6632 205.463 79.711 205.482C79.7014 205.482 79.711 205.482 79.7014 205.482H79.711C81.9737 206.599 84.2078 208.184 86.5374 209.148L86.4992 209.215C87.8932 209.778 89.5735 210.513 90.6237 210.742C90.977 210.885 91.674 211.286 91.4639 211.296C92.1704 211.515 92.5523 211.639 92.9629 211.744C92.982 211.248 92.9629 210.704 93.1252 209.692C93.1061 210.389 93.1634 210.351 93.1729 210.265C93.1824 210.198 93.1729 210.217 93.1252 211.296C93.1634 210.79 93.1825 210.389 93.2302 210.007C93.2779 209.73 93.3161 209.491 93.3543 209.253C93.4211 208.814 93.4975 208.355 93.593 207.592C93.6312 208.136 94.099 206.627 94.3281 205.997C94.1754 206.293 93.994 206.58 93.8508 206.885C94.0799 206.16 94.3472 205.539 94.6719 204.947L94.7291 205.386C95.4834 204.155 96.0944 203.019 96.7914 201.997C97.4979 200.995 98.2808 200.117 99.2928 199.592C99.7702 198.952 98.0135 200.546 98.4049 199.945C99.4265 199.019 100.82 198.551 101.155 198.312C101.966 197.892 102.291 197.606 102.644 197.329C102.988 197.043 103.36 196.756 104.277 196.422C104.009 196.432 103.694 196.298 105.05 195.697C106.377 195.286 106.768 195.534 105.966 195.849C105.661 195.964 105.499 195.983 105.508 195.954C105.098 196.117 104.582 196.374 105.107 196.26L105.241 196.117C105.9 195.964 107.695 195.448 107.313 195.706C108.287 195.391 107.704 195.448 106.95 195.611C108.668 195.277 109.614 194.981 111.409 194.799C111.122 194.79 110.836 194.732 111.122 194.685C113.776 194.456 112.268 194.37 114.072 194.16C115.113 194.217 113.729 194.494 115.543 194.265C116.66 194.293 115.791 194.484 115.352 194.58C116.173 194.446 116.956 194.436 117.643 194.465C117.815 194.475 117.987 194.484 118.14 194.494C118.302 194.503 118.493 194.513 118.474 194.522C118.54 194.551 118.579 194.57 118.617 194.58C118.55 194.608 118.493 194.627 118.455 194.656C118.512 194.618 118.579 194.618 118.626 194.608H118.665C118.693 194.57 118.722 194.532 118.731 194.494C118.741 194.475 118.741 194.456 118.731 194.427L118.779 194.436C118.865 194.456 118.932 194.465 118.827 194.532C118.97 194.475 119.085 194.398 119.19 194.312C119.247 194.274 119.314 194.226 119.409 194.188C119.457 194.169 119.514 194.14 119.591 194.121C119.6 194.112 119.572 194.093 119.543 194.112C119.448 194.16 119.371 194.217 119.314 194.293C119.218 194.408 119.171 194.57 119.152 194.723L119.142 194.771C119.142 194.761 119.142 194.799 119.132 194.837C119.132 194.904 119.123 194.971 119.123 195.038C119.123 195.172 119.123 195.286 119.132 195.401C119.142 195.62 119.161 195.792 119.132 195.888C118.98 195.353 119.018 195.028 119.018 194.847C119.018 194.723 119.008 194.751 118.98 194.742C118.951 194.742 118.913 194.771 118.884 194.771C118.856 194.704 118.817 194.799 118.798 194.742C118.779 194.723 118.77 194.685 118.789 194.618C118.779 194.656 118.779 194.694 118.77 194.742V194.761C118.77 194.78 118.77 194.742 118.77 194.742L118.76 194.799C118.751 194.876 118.741 194.952 118.741 195.038C118.731 195.2 118.741 195.372 118.76 195.553C118.751 195.668 118.693 195.458 118.665 195.248C118.655 196.021 118.97 196.546 119.132 196.766C119.323 197.014 119.467 197.109 119.61 197.205C119.906 197.358 120.221 197.568 121.242 198.121C120.918 198.102 121.615 198.589 121.93 198.704C121.137 198.322 121.653 198.331 122.407 198.58C123.61 199.267 123.792 199.162 124.441 199.487L123.715 199.086C124.021 199.086 124.641 199.401 125.529 199.783C125.558 199.907 124.708 199.468 125.004 199.658C126.073 199.907 127.085 200.919 128.508 201.405C129.1 201.778 128.47 201.654 128.995 201.969C130.589 202.513 130.57 202.895 132.241 203.487C131.85 203.114 131.754 203.124 132.957 203.468L130.265 202.389L132.06 202.923C131.258 202.57 130.332 202.265 129.873 202.016C130.742 202.255 130.637 202.255 130.322 201.95C131.296 202.685 132.547 202.79 133.731 203.506L133.52 203.888C135.354 204.9 137.005 205.148 139.488 206.227L138.705 205.835C139.106 205.816 140.271 206.417 141.12 206.656C140.996 206.771 141.493 207 141.808 207.21C141.798 207.095 143.679 207.888 144.004 207.678L145.092 208.241C147.164 208.976 147.603 208.585 149.608 209.186C148.959 209.176 149.847 209.53 148.462 209.262C149.14 209.463 149.742 209.644 149.78 209.549C150.152 209.74 151.718 209.845 152.319 210.102C152.625 210.102 152.749 209.978 153.522 210.16C153.599 210.207 153.503 210.227 153.503 210.227C153.522 210.169 154.754 210.351 154.095 210.074C155.117 210.465 156.74 210.666 158.258 210.112C159.012 209.845 159.69 209.348 160.129 208.766C160.588 208.193 160.845 207.573 161.046 207.076C161.323 205.32 160.53 203.458 159.852 202.226C159.938 202.284 159.919 202.198 160.034 202.446C159.633 201.539 159.356 201.348 159.098 201.119C158.821 200.899 158.544 200.661 157.962 199.735C157.485 198.694 158.754 200.594 158.411 199.983C158.621 199.448 156.778 197.892 155.995 196.623L156.253 196.88C155.623 195.916 154.258 194.933 152.873 193.701C152.873 193.701 152.969 193.73 152.93 193.654C151.823 192.985 149.847 191.63 148.224 190.895C148.796 190.99 148.987 191.191 148.777 190.866C148.052 190.522 148.854 191.21 147.402 190.57C146.982 190.245 145.942 189.749 145.856 189.52C146.343 189.673 146.811 189.873 147.288 190.064C146.667 189.501 145.436 189.348 144.672 189.109L144.806 189.023C143.65 188.747 143.049 188.737 142.428 188.728C141.808 188.737 141.168 188.708 139.917 188.737L140.175 188.823C138.838 189.167 139.02 188.699 137.702 189.119L137.244 188.918C136.347 189.148 134.237 190.074 132.967 191.066C133.587 190.35 135.287 189.415 136.423 189.004C135.984 189.119 135.239 189.367 134.59 189.692C133.931 189.997 133.387 190.389 133.215 190.56C133.52 190.36 133.883 190.055 134.237 189.95C133.339 190.646 132.165 191.487 130.914 192.747C130.828 192.432 129.95 193.224 129.129 194.331C128.298 195.429 127.582 196.833 127.114 197.339C126.551 198.837 126.035 200.327 125.682 201.95C125.338 203.563 125.138 205.32 125.424 207.219C125.558 206.522 125.587 206.799 125.653 207.21C125.711 207.62 125.844 208.155 126.035 207.993C126.255 208.823 126.369 209.138 126.369 209.215C126.56 210.074 126.885 210.914 127.315 211.716C127.448 212.012 127.305 211.859 127.124 211.63C126.933 211.41 126.77 211.086 126.742 211.153C127.219 212.031 127.372 212.193 127.381 212.346C127.42 212.48 127.353 212.575 127.782 213.11C127.725 212.795 128.393 213.511 129.272 214.265C128.909 213.854 128.508 213.482 128.222 213.024C129.272 213.931 129.73 214.293 130.188 214.713C130.656 215.095 131.153 215.515 132.518 215.888L131.63 215.697C132.317 215.955 133.606 216.356 134.933 216.461C136.261 216.585 137.588 216.336 138.237 216.04C138.495 216.05 138.848 216.088 138.237 216.25C139.946 215.993 141.731 215.057 143.049 213.816C144.376 212.594 145.283 211.181 145.989 210.093L145.97 210.37C146.238 209.797 146.295 209.32 146.686 208.642C146.715 208.699 146.686 208.919 146.811 208.651C146.925 208.336 147.183 207.038 147.412 206.255L147.364 206.971C147.861 205.415 147.908 204.136 147.842 202.971C147.775 201.797 147.565 200.709 147.288 199.401C147.441 199.382 147.46 198.732 147.297 197.94C147.24 197.539 147.116 197.119 146.992 196.709C146.877 196.298 146.725 195.926 146.6 195.63L146.658 195.649C145.884 193.902 144.901 192.584 143.813 191.448C142.715 190.322 141.521 189.377 140.07 188.441C139.297 187.687 137.74 186.704 135.879 185.978C134.026 185.253 131.888 184.823 130.179 184.603C130.704 184.699 130.074 184.842 129.463 184.852C128.661 184.728 127.257 185.071 127.372 184.775L127.658 184.766C127.038 184.47 125.376 184.68 124.107 184.899L123.963 185.319C122.264 185.31 120.125 185.949 118.292 186.713C116.44 187.467 114.874 188.336 113.948 188.537C113.28 188.995 112.421 189.491 111.79 189.997L111.714 189.797C109.805 190.952 108.85 191.563 106.768 193.396C106.874 193.234 106.988 193.071 107.103 192.909C105.9 193.93 106.024 194.666 105.04 195.687L104.515 195.783C102.663 197.749 100.782 199.878 99.7893 202.417C99.7702 202.36 99.7225 202.246 99.923 201.845C99.7702 202.131 99.5411 202.542 99.2833 203C99.0255 203.477 98.7486 204.088 98.6722 204.775C98.5672 205.472 98.825 206.274 99.1783 206.627C99.5124 206.99 99.7225 207.019 99.6652 206.847C99.627 206.904 99.7988 207.114 100.104 207.305C100.419 207.506 100.82 207.649 101.221 207.783C102.052 208.069 103.083 208.327 103.79 208.489L103.513 208.613C104.773 208.728 104.821 208.68 106.492 209.024C106.883 209.138 106.797 209.262 106.291 209.091C107.59 209.501 107.36 209.148 108.945 209.558L108.325 209.577C109.69 209.835 109.604 209.74 110.377 209.701C111.246 209.74 112.984 210.026 113.184 210.207C113.385 210.093 114.139 210.007 114.96 210.055C115.065 210.122 114.769 210.169 114.616 210.188C116.956 210.351 118.063 209.883 119.667 209.921C119.705 209.988 119.82 210.007 119.954 210.007C118.111 210.217 116.621 210.246 116.755 210.227C116.755 210.427 118.264 210.36 117.08 210.704C118.292 210.513 120.307 210.007 121.758 209.835C121.834 209.845 121.901 209.845 121.958 209.864L121.815 209.912C122.149 209.873 122.445 209.807 122.722 209.711C123.19 209.644 123.496 209.596 123.935 209.482C124.145 209.606 125.663 209.071 126.369 208.756C126.236 208.594 127.162 208.231 126.236 208.441C126.35 208.403 126.112 208.518 125.644 208.709C125.539 208.756 125.415 208.804 125.348 208.833C125.357 208.823 125.376 208.814 125.386 208.795C124.918 208.966 124.298 209.176 123.591 209.348C124.145 209.1 124.708 208.842 125.539 208.67C125.854 208.413 126.198 208.126 126.389 207.974C126.914 207.897 127.639 207.668 128.26 207.391C128.89 207.133 129.406 206.828 129.577 206.818C130.503 206.045 131.487 204.938 132.041 203.716C132.613 202.503 132.738 201.253 132.575 200.508C132.566 199.84 132.671 199.735 132.738 199.477C132.814 199.868 132.804 200.346 132.833 200.565C132.843 199.868 132.747 198.847 132.48 198.007C132.222 197.167 131.85 196.518 131.659 196.441C130.971 194.914 132.375 197.138 131.162 195.162L131.401 195.382C130.351 193.3 128.642 192.136 126.895 191.439C125.128 190.723 123.266 190.341 120.889 189.72C121.223 189.806 121.386 189.844 121.443 189.902C115.972 188.899 110.129 189.186 104.697 188.88C103.15 188.842 102.988 189.014 102.052 189.186L101.708 188.976L100.114 189.31C97.8512 189.625 96.1231 189.004 93.2779 189.644L93.6598 189.759C92.6192 189.825 90.4041 190.198 90.5473 190.016C90.4423 190.055 90.2323 190.217 89.8122 190.207L89.7645 190.102C88.9147 190.312 88.0459 190.627 87.3203 191.162C86.4419 191.716 86.461 191.677 86.3465 191.611C86.2892 191.592 86.2224 191.592 86.0123 191.773C85.8309 191.964 85.4872 192.327 85.2199 193.148C85.0289 193.759 85.0671 194.742 85.4204 195.382C85.7736 196.031 86.2224 196.26 86.0791 196.059C85.7163 195.677 85.5731 194.914 85.7068 194.866C85.7927 195.2 85.9455 195.515 86.1651 195.763C86.356 195.735 86.6234 195.773 86.6902 195.601C86.7761 195.401 86.5756 195.172 86.6424 194.331C86.5756 193.94 86.6043 193.472 86.757 193.033C86.8716 192.928 86.9957 192.833 87.1198 192.756C86.9193 193.043 86.757 193.386 86.6806 193.74C86.9862 193.195 87.0721 192.833 87.2917 192.441C87.4253 192.441 87.5876 192.355 87.8168 192.241C88.1032 191.907 88.4947 191.611 88.9338 191.362C89.1343 191.448 88.3896 191.802 89.3444 191.601C89.9936 191.296 88.5997 191.458 89.7454 191.105C90.5283 191.133 90.3087 191.296 91.2157 191.047C91.3589 191.124 91.1679 191.2 90.8051 191.276C91.6071 191.076 92.982 190.981 93.3925 190.761C94.2327 190.866 96.1899 190.455 96.1326 190.78C96.3904 190.685 97.5743 190.408 98.3381 190.35C96.9728 190.818 101.193 190.198 100.849 190.646C101.861 190.245 104.563 190.341 106.387 190.14C106.282 190.169 106.081 190.226 105.919 190.217C106.95 190.236 107.246 190.35 107.905 190.417C108.038 190.131 109.642 190.074 110.511 189.93C111.762 190.245 109.738 190.245 110.129 190.522C110.072 190.284 112.325 190.35 111.905 190.15C112.86 190.36 112.736 190.265 113.213 190.532C113.404 190.179 114.11 190.522 114.922 190.341C116.306 190.618 115.256 190.704 116.793 190.704C117.528 190.904 116.163 190.923 116.163 190.923ZM121.185 208.651C121.491 208.594 121.748 208.537 121.92 208.508C121.768 208.537 121.548 208.575 121.185 208.651ZM118.168 209.005C118.54 208.985 118.999 208.938 119.476 208.89C119.591 208.947 119.486 209.033 119.18 209.062C119.342 208.995 118.626 209.033 118.168 209.005ZM124.89 209.272C124.412 209.444 124.231 209.453 124.154 209.434C124.384 209.358 124.651 209.272 125.004 209.157C125.014 209.148 125.042 209.129 125.052 209.11C125.014 209.167 124.975 209.224 124.89 209.272Z" fill="#3B4656"/>
<path d="M125.662 208.718C125.729 208.69 125.767 208.67 125.853 208.632C125.748 208.651 125.653 208.67 125.557 208.69C125.51 208.728 125.452 208.775 125.414 208.814C125.49 208.785 125.586 208.747 125.662 208.718Z" fill="#3B4656"/>
<path d="M79.7495 205.511L79.8075 205.55C79.7688 205.511 79.7302 205.482 79.7012 205.453C79.7302 205.482 79.7302 205.492 79.7495 205.511Z" fill="#3B4656"/>
<path d="M115.342 189.94L115.313 189.892L115.094 190.054L115.342 189.94Z" fill="#3B4656"/>
<path d="M68.7793 203.792C68.7793 203.83 68.7888 203.897 68.827 204.021C68.8366 204.012 68.8175 203.907 68.7793 203.792Z" fill="#3B4656"/>
<path d="M73.4297 209.644C73.7161 209.864 74.0025 210.083 74.3176 210.274C73.9166 210.017 73.6588 209.807 73.4297 209.644Z" fill="#3B4656"/>
<path d="M78.9844 211.468C79.0611 211.43 79.0803 211.401 79.0995 211.382H79.0899L78.9844 211.468Z" fill="#3B4656"/>
<path d="M124.736 198.036C124.803 198.064 124.87 198.093 124.937 198.121C125.414 198.303 125.099 198.169 124.736 198.036Z" fill="#3B4656"/>
<path d="M102.616 196.183C102.855 196.021 103.103 195.878 103.37 195.735C102.931 195.926 102.578 196.069 102.616 196.183Z" fill="#3B4656"/>
<path d="M152.377 208.422C152.434 208.441 152.492 208.451 152.55 208.461L152.377 208.422Z" fill="#3B4656"/>
<path d="M104.543 195.277C104.076 195.41 103.703 195.563 103.369 195.744C103.741 195.582 104.181 195.448 104.543 195.277Z" fill="#3B4656"/>
<path d="M102.406 213.348L102.674 213.434C102.674 213.415 102.693 213.415 102.712 213.415L102.406 213.348Z" fill="#3B4656"/>
<path d="M102.721 213.406L103.026 213.463C102.883 213.434 102.768 213.396 102.721 213.406Z" fill="#3B4656"/>
<path d="M103.675 213.558C103.455 213.539 103.235 213.492 103.025 213.463C103.245 213.511 103.512 213.587 103.675 213.558Z" fill="#3B4656"/>
<path d="M95.4462 210.523L95.3398 210.561C95.3882 210.571 95.4268 210.552 95.4462 210.523Z" fill="#3B4656"/>
<path d="M93.3359 209.892C93.842 210.036 94.5485 210.389 95.255 210.599L95.3409 210.57C94.9877 210.542 93.8611 209.873 93.3359 209.892Z" fill="#3B4656"/>
<path d="M84.0645 209.759L85.9262 209.358C85.5825 209.358 85.1242 209.358 85.974 209.138C83.568 209.482 86.4895 209.186 84.0645 209.759Z" fill="#3B4656"/>
<path d="M78.3561 210.427C79.33 210.418 78.3466 210.322 78.4039 210.265C77.8024 210.293 77.6401 210.293 78.3561 210.427Z" fill="#3B4656"/>
<path d="M92.0076 211.554C91.9789 211.611 91.9503 211.668 91.9121 211.716C93.0483 212.098 91.893 211.63 92.0076 211.554Z" fill="#3B4656"/>
<path d="M93.9932 204.021C93.8214 204.231 93.6877 204.46 93.5349 204.68L93.5254 205.09C93.6877 204.737 93.8214 204.374 93.9932 204.021Z" fill="#3B4656"/>
<path d="M97.8897 200.995C97.8134 201.081 97.7465 201.157 97.6797 201.253C97.947 200.928 98.243 200.632 98.5199 200.317L97.8897 200.995Z" fill="#3B4656"/>
<path d="M160.521 208.919L160.168 209.005C159.767 209.463 159.872 209.797 160.521 208.919Z" fill="#3B4656"/>
<path d="M140.222 188.584C139.879 188.46 138.953 188.441 138.418 188.642C139.134 188.556 139.85 188.613 140.222 188.584Z" fill="#3B4656"/>
<path d="M122.36 185.358L122.971 185.148C122.58 185.243 122.189 185.358 121.807 185.482L122.36 185.358Z" fill="#3B4656"/>
<path d="M9.36564 165.835C11.3993 155.944 25.1285 155.715 31.1625 156.049C48.0997 156.975 59.9099 163.009 59.9099 163.009L57.0838 179.63C57.0838 179.63 3.92359 192.288 9.36564 165.835Z" fill="#1F2B3D"/>
<path d="M59.5001 163.028C67.0808 157.233 76.17 155.868 88.1138 158.98C99.2748 161.892 107.915 170.579 108.488 174.016C109.29 178.828 87.14 165.281 87.14 165.281C87.14 165.281 105.376 173.128 104.335 178.675C103.218 184.651 83.7411 171.582 83.7411 171.582C83.7411 171.582 93.5082 177.558 97.3271 183.219C102.378 190.713 81.0487 179.171 74.5278 176.431C74.5278 176.431 87.8943 184.861 84.228 188.069C80.5618 191.276 75.0052 180.212 55.0605 180.26" fill="white"/>
<path d="M59.4144 162.904C61.9826 160.718 64.971 158.942 68.2458 157.882C69.8784 157.357 71.5587 156.928 73.2677 156.737C74.1175 156.594 74.9767 156.574 75.836 156.489C76.6953 156.479 77.5641 156.412 78.4138 156.46C81.8509 156.565 85.2689 157.061 88.5819 157.901C91.9521 158.751 95.1887 160.088 98.1771 161.854C101.156 163.629 103.972 165.682 106.378 168.269C106.98 168.909 107.562 169.587 108.097 170.322C108.632 171.057 109.138 171.83 109.519 172.804C109.605 173.061 109.701 173.31 109.758 173.615C109.815 173.883 109.892 174.331 109.739 174.875C109.605 175.458 109.013 176.011 108.565 176.155C108.106 176.326 107.753 176.346 107.448 176.346C106.264 176.307 105.452 176.002 104.593 175.715C101.29 174.465 98.3585 172.813 95.4083 171.152C92.4772 169.472 89.613 167.715 86.7679 165.892L86.7297 165.863C86.3955 165.653 86.3 165.214 86.5196 164.88C86.7201 164.575 87.1116 164.47 87.4266 164.622C90.9305 166.331 94.3199 168.155 97.6042 170.236C99.2273 171.295 100.822 172.422 102.273 173.758C102.989 174.436 103.676 175.171 104.211 176.059C104.727 176.928 105.147 178.083 104.717 179.238C104.526 179.821 104.001 180.336 103.438 180.537C102.874 180.766 102.321 180.794 101.796 180.785C100.745 180.747 99.7619 180.527 98.8072 180.25C96.9073 179.687 95.1028 178.923 93.3461 178.102C89.823 176.431 86.4432 174.56 83.1207 172.508C82.5861 172.183 82.4238 171.486 82.7484 170.952C83.073 170.427 83.7509 170.255 84.2855 170.57L84.3428 170.598C87.7131 172.584 90.8828 174.77 93.8616 177.348C95.3415 178.646 96.7736 180.031 98.0339 181.663C98.3489 182.074 98.664 182.474 98.9504 182.99C99.0936 183.238 99.2368 183.525 99.3705 183.849C99.4851 184.202 99.6474 184.594 99.571 185.281C99.5328 185.615 99.3801 186.054 99.0936 186.379C98.9504 186.551 98.8072 186.656 98.6449 186.78C98.5017 186.875 98.3489 186.942 98.2057 187.009C97.652 187.21 97.2796 187.21 96.9359 187.219C96.258 187.21 95.7234 187.105 95.1983 186.99C93.1456 186.503 91.3506 185.787 89.5366 185.071C87.7321 184.346 85.9754 183.563 84.2282 182.751C80.753 181.147 77.2777 179.429 73.9074 177.911L75.3968 175.057C77.1249 176.193 78.7384 177.367 80.3329 178.646C81.9082 179.945 83.474 181.281 84.8202 183.038C85.1543 183.486 85.4789 183.954 85.7558 184.517C86.0327 185.071 86.2905 185.711 86.3287 186.541C86.386 187.372 85.985 188.393 85.3739 188.947C84.8393 189.491 84.085 189.902 83.2639 190.007C82.4524 190.112 81.7554 189.94 81.1826 189.749C80.6002 189.549 80.1037 189.31 79.6359 189.052C78.7003 188.546 77.8696 188.012 77.0294 187.496C73.7069 185.434 70.308 183.658 66.5941 182.522C62.8992 181.386 59.0134 180.737 55.0798 180.527C54.9271 180.517 54.8125 180.384 54.8125 180.231C54.822 180.088 54.9366 179.973 55.0703 179.964C59.042 179.735 63.0901 179.945 67.0333 180.871C70.9764 181.749 74.8049 183.353 78.2897 185.31C79.1585 185.778 80.0273 186.264 80.858 186.646C81.66 187.047 82.5288 187.315 82.8725 187.21C83.0253 187.181 83.1876 187.086 83.3403 186.923C83.4358 186.79 83.4167 186.809 83.4262 186.646C83.4167 186.293 82.9966 185.51 82.4524 184.861C81.3449 183.515 79.8937 182.245 78.3947 181.071C76.8958 179.897 75.2823 178.77 73.6878 177.768C72.9336 177.291 72.7044 176.298 73.1818 175.544C73.6115 174.866 74.4516 174.618 75.1677 174.914H75.1772C77.0103 175.677 78.7193 176.508 80.4474 177.329L85.6031 179.773C87.3216 180.565 89.0401 181.358 90.7682 182.102C92.4772 182.828 94.2435 183.553 95.8952 183.973C96.2962 184.069 96.7068 184.145 96.9836 184.155C97.1078 184.164 97.2223 184.136 97.1173 184.164C97.0791 184.174 97.0409 184.193 96.9932 184.231C96.9168 184.269 96.8786 184.327 96.8118 184.393C96.6781 184.537 96.6208 184.747 96.6017 184.842C96.5922 185.052 96.6113 184.966 96.5731 184.871C96.5254 184.756 96.4681 184.603 96.3726 184.441C96.2007 184.117 95.9334 183.754 95.6756 183.401C94.6445 181.978 93.3556 180.651 92.0094 179.4C89.2788 176.899 86.2523 174.589 83.1685 172.498L84.3905 170.598C87.4935 172.766 90.7205 174.856 94.0621 176.651C95.7329 177.539 97.4419 178.379 99.2082 179C100.087 179.295 100.984 179.563 101.853 179.62C102.731 179.677 103.514 179.477 103.753 178.828C104.039 178.14 103.829 177.272 103.38 176.508C102.932 175.744 102.311 175.047 101.633 174.398C100.278 173.1 98.7117 172.011 97.0982 170.999C95.4847 169.987 93.8043 169.071 92.0953 168.221C90.3863 167.362 88.6392 166.579 86.8729 165.882L87.5221 164.622C90.4245 166.264 93.3747 167.849 96.3535 169.348C99.3228 170.818 102.368 172.298 105.395 173.272C106.121 173.501 106.942 173.711 107.438 173.692C107.562 173.692 107.62 173.663 107.562 173.682C107.505 173.672 107.238 173.911 107.209 174.083C107.161 174.226 107.209 174.245 107.161 174.102C107.142 173.997 107.085 173.854 107.028 173.711C106.502 172.508 105.471 171.209 104.392 170.073C102.187 167.773 99.6187 165.73 96.8404 164.049C94.0621 162.379 91.1024 160.995 87.9899 160.107C84.8297 159.219 81.5931 158.551 78.3279 158.302C75.0722 158.016 71.7783 158.255 68.5895 159.018C66.9951 159.4 65.4484 159.983 63.9399 160.641C62.4409 161.329 60.9993 162.169 59.5958 163.085C59.5289 163.133 59.4335 163.114 59.3857 163.047C59.338 163.038 59.3571 162.952 59.4144 162.904Z" fill="#1F2B3D"/>
</g>
<defs>
<clipPath id="clip0">
<rect width="223" height="227" fill="white"/>
</clipPath>
</defs>
</svg>
