<svg width="101" height="75" viewBox="0 0 101 75" fill="none" xmlns="http://www.w3.org/2000/svg">
<path fill-rule="evenodd" clip-rule="evenodd" d="M53.1269 59.2279H57.7063C57.8726 59.2279 58.0372 59.2023 58.1998 59.177C58.4343 59.1406 58.6647 59.1048 58.8902 59.1471C61.4679 59.6316 63.4025 61.6663 63.4025 64.1028V65.973H47.4307V64.1028C47.4307 61.6663 49.3652 59.6317 51.9429 59.1471C52.1684 59.1048 52.3988 59.1406 52.6333 59.177C52.7959 59.2023 52.9606 59.2279 53.1269 59.2279Z" fill="#DF7A25"/>
<path d="M62.5866 52.4127V48.5238C62.5866 44.59 59.3765 41.4009 55.4166 41.4009C51.4568 41.4009 48.2467 44.5899 48.2467 48.5238V52.4127C48.2467 53.4599 47.9074 54.7388 47.4787 55.5469C47.3347 55.8184 47.5316 56.1442 47.8406 56.1442H62.9926C63.3016 56.1442 63.4985 55.8184 63.3545 55.5469C62.9258 54.7388 62.5866 53.4599 62.5866 52.4127Z" fill="#2A3958"/>
<path fill-rule="evenodd" clip-rule="evenodd" d="M26.5683 31.5723H31.1477C34.2937 31.5723 36.8439 33.9932 36.8439 36.9796V38.9438H20.8721V36.9796C20.8721 33.9931 23.4224 31.5723 26.5683 31.5723Z" fill="#6F79CF"/>
<path d="M60.9461 49.7489V51.0726C60.9461 54.5523 58.4706 57.3729 55.4174 57.3729C52.3642 57.3729 49.8887 54.5523 49.8887 51.0726V46.9709C49.8887 46.7497 49.8999 46.5303 49.9213 46.3154H50.6277C51.3787 46.3154 52.0501 46.8485 52.311 47.6519C52.5154 48.282 52.8814 48.8061 53.3428 49.1733C53.805 49.5396 54.3633 49.749 54.9528 49.749H60.9461V49.7489Z" fill="#FCD0AE"/>
<path d="M57.26 58.6973C57.0574 58.6347 56.8474 58.6013 56.632 58.6013H54.2023C53.9869 58.6013 53.7768 58.6348 53.5742 58.6973C53.7195 60.3064 54.4361 61.6521 55.4171 62.2871C56.3981 61.652 57.1147 60.3063 57.26 58.6973Z" fill="#EBEEF2"/>
<path d="M28.8579 30.3435C25.1259 30.3435 22.1006 27.3563 22.1006 23.6713V19.3287C22.1006 15.9124 24.9053 13.1431 28.3651 13.1431H29.3508C32.8106 13.1431 35.6153 15.9124 35.6153 19.3287V23.6713C35.6151 27.3563 32.5898 30.3435 28.8579 30.3435Z" fill="#FCD0AE"/>
<path d="M35.6153 18.907V22.9719C25.9499 22.1876 25.1334 17.3909 25.1334 17.3909V20.4587H22.1006V18.9069C22.1006 15.7234 24.905 13.1431 28.365 13.1431H29.3507C32.8107 13.1431 35.6153 15.7235 35.6153 18.907Z" fill="#2A3958"/>
<path d="M31.9292 31.7002C31.5914 31.6168 31.2414 31.5723 30.8824 31.5723H26.8329C26.4739 31.5723 26.1238 31.6169 25.7861 31.7002C26.0283 33.8456 27.2226 35.64 28.8576 36.4867C30.4926 35.6399 31.687 33.8455 31.9292 31.7002Z" fill="#EBEEF2"/>
<path fill-rule="evenodd" clip-rule="evenodd" d="M85.6502 37.0505C85.6502 37.4418 85.3338 37.7594 84.9413 37.7594H84.4847C84.0923 37.7594 83.7759 37.4418 83.7759 37.0505V36.5924C83.7759 36.2011 84.0923 35.8835 84.4847 35.8835H84.9413C85.3338 35.8835 85.6502 36.2011 85.6502 36.5924V37.0505ZM85.6508 64.5113C85.6508 64.903 85.3344 65.2202 84.9419 65.2202H43.5989C43.2072 65.2202 42.89 64.903 42.89 64.5113V39.7967C42.89 39.4054 43.2072 39.0878 43.5989 39.0878H84.9419C85.3344 39.0878 85.6508 39.4054 85.6508 39.7967V64.5113ZM42.89 36.5924C42.89 36.2011 43.2072 35.8835 43.5989 35.8835H44.0567C44.4484 35.8835 44.7655 36.2011 44.7655 36.5924V37.0505C44.7655 37.4418 44.4484 37.7594 44.0567 37.7594H43.5989C43.2072 37.7594 42.89 37.4418 42.89 37.0505V36.5924ZM77.9392 36.5924C77.9392 36.2011 78.2568 35.8835 78.6485 35.8835H79.1062C79.4979 35.8835 79.8151 36.2011 79.8151 36.5924V37.0505C79.8151 37.4418 79.4979 37.7594 79.1062 37.7594H78.6485C78.2568 37.7594 77.9392 37.4418 77.9392 37.0505V36.5924ZM80.8573 36.5924C80.8573 36.2011 81.1749 35.8835 81.5661 35.8835H82.0243C82.4156 35.8835 82.7348 36.2011 82.7348 36.5924V37.0505C82.7348 37.4418 82.4156 37.7594 82.0243 37.7594H81.5661C81.1749 37.7594 80.8573 37.4418 80.8573 37.0505V36.5924ZM85.895 34.6501H42.6476C41.8647 34.6501 41.2295 35.2849 41.2295 36.0683V65.582C41.2295 66.3654 41.8647 67.0001 42.6476 67.0001H85.895C86.6759 67.0001 87.3127 66.3654 87.3127 65.582V36.0683C87.3127 35.2849 86.6759 34.6501 85.895 34.6501Z" fill="#58647B"/>
<rect x="39.3525" y="14" width="15.3497" height="13.734" fill="#4F5FFF"/>
<path fill-rule="evenodd" clip-rule="evenodd" d="M43.5 21.0026C43.4994 18.7938 45.2886 17.001 47.4971 17C49.7062 16.9968 51.4993 18.789 51.5 20.9977C51.5026 23.2055 49.712 24.9977 47.5023 25C45.2932 25.0032 43.5019 23.2123 43.5 21.0026ZM46.4678 22.5665L49.1259 21.0298C49.1499 21.0153 49.1626 21.003 49.1671 20.9969C49.1655 20.9958 49.1634 20.9942 49.1607 20.9922C49.1538 20.9871 49.1431 20.9791 49.1259 20.9685L46.4652 19.4354C46.4455 19.4236 46.4311 19.4186 46.4229 19.4158C46.421 19.4151 46.4194 19.4146 46.4182 19.4141C46.4169 19.4205 46.4149 19.436 46.4123 19.4647L46.4156 22.5375C46.4156 22.562 46.4188 22.5775 46.4214 22.5846C46.4298 22.583 46.4464 22.5794 46.4678 22.5665Z" fill="white"/>
<path d="M49.483 21.08L49.483 21.08L46.5886 23.0185C46.5583 23.0395 46.5337 23.0459 46.5207 23.0488L46.476 23.0587L46.4622 23.015L49.483 21.08ZM49.483 21.08L49.4838 21.0794C49.5132 21.0589 49.5325 21.039 49.5421 21.0239L49.5668 20.9852L49.5305 20.9573L49.5305 20.9573C49.5304 20.9573 49.5301 20.957 49.5295 20.9565L49.5266 20.9541L49.5171 20.9459C49.5092 20.9392 49.4985 20.9307 49.4842 20.9205L49.4843 20.9205L49.4829 20.9195L46.5857 18.9855M49.483 21.08L49.4551 20.9611L46.5576 19.0269M46.5272 18.9546L46.4682 18.9274L46.4571 18.9914C46.4552 19.0023 46.4529 19.0242 46.4502 19.06L46.45 19.06L46.45 19.064L46.4535 22.9406C46.4535 22.9406 46.4535 22.9406 46.4535 22.9406L46.5 19.0639C46.5003 19.0597 46.5006 19.0557 46.501 19.0519C46.4985 19.0509 46.4962 19.0499 46.494 19.049C46.4911 19.0479 46.4883 19.0467 46.4854 19.0454L46.5064 19L46.5556 19.0086C46.5552 19.011 46.5545 19.016 46.5537 19.0242C46.555 19.0251 46.5563 19.0259 46.5576 19.0269M46.5272 18.9546L46.5273 18.9546C46.5272 18.9546 46.5272 18.9546 46.5272 18.9546ZM46.5272 18.9546C46.5272 18.9546 46.5275 18.9547 46.5283 18.955L46.5324 18.9566C46.5358 18.9581 46.5404 18.96 46.5458 18.9625C46.5567 18.9675 46.5701 18.9747 46.5857 18.9855M46.5857 18.9855L46.5854 18.9853L46.5576 19.0269M46.5857 18.9855C46.5858 18.9856 46.5859 18.9857 46.586 18.9857L46.5576 19.0269" fill="#FCD740" stroke="#FED602" stroke-width="0.1"/>
<rect x="67.6279" y="42.3091" width="15.3497" height="19.3891" fill="#DF7A25"/>
<path fill-rule="evenodd" clip-rule="evenodd" d="M15.1603 8.94229C15.1603 8.55061 15.4779 8.23302 15.8692 8.23302H16.3269C16.7186 8.23302 17.0362 8.55061 17.0362 8.94229V9.40005C17.0362 9.79173 16.7186 10.1089 16.3269 10.1089H15.8692C15.4779 10.1089 15.1603 9.79173 15.1603 9.40005V8.94229ZM50.2102 8.94229C50.2102 8.55061 50.5274 8.23302 50.9191 8.23302H51.3768C51.7685 8.23302 52.0857 8.55061 52.0857 8.94229V9.40005C52.0857 9.79173 51.7685 10.1089 51.3768 10.1089H50.9191C50.5274 10.1089 50.2102 9.79173 50.2102 9.40005V8.94229ZM53.1283 8.94229C53.1283 8.55061 53.4458 8.23302 53.8375 8.23302H54.2953C54.687 8.23302 55.0042 8.55061 55.0042 8.94229V9.40005C55.0042 9.79173 54.687 10.1089 54.2953 10.1089H53.8375C53.4458 10.1089 53.1283 9.79173 53.1283 9.40005V8.94229ZM56.0464 8.94229C56.0464 8.55061 56.364 8.23302 56.7552 8.23302H57.2134C57.6047 8.23302 57.9223 8.55061 57.9223 8.94229V9.40005C57.9223 9.79173 57.6047 10.1089 57.2134 10.1089H56.7552C56.364 10.1089 56.0464 9.79173 56.0464 9.40005V8.94229ZM39.5275 37.5702H15.8689C15.4776 37.5702 15.16 37.2526 15.16 36.8609V12.1467C15.16 11.755 15.4776 11.4374 15.8689 11.4374H57.2127C57.604 11.4374 57.9216 11.755 57.9216 12.1467V32.947H59.5816V8.41774C59.5816 7.63478 58.9468 7 58.1639 7H14.9177C14.1348 7 13.5 7.63478 13.5 8.41774V37.9319C13.5 38.7148 14.1348 39.3496 14.9177 39.3496H39.5275V37.5702Z" fill="#58647B"/>
<path fill-rule="evenodd" clip-rule="evenodd" d="M61.5088 20.6329H63.5112V19.4314H61.5088V20.6329Z" fill="#283540"/>
<path fill-rule="evenodd" clip-rule="evenodd" d="M67.9834 20.6329H72.4557V19.4314H67.9834V20.6329Z" fill="#283540"/>
<path fill-rule="evenodd" clip-rule="evenodd" d="M79.5309 22.0346H78.3295V20.6329H76.9277V19.4314H79.5309V22.0346Z" fill="#283540"/>
<path fill-rule="evenodd" clip-rule="evenodd" d="M78.3291 27.9747H79.5306V25.0046H78.3291V27.9747Z" fill="#283540"/>
<path fill-rule="evenodd" clip-rule="evenodd" d="M78.3291 32.9468H79.5306V30.9443H78.3291V32.9468Z" fill="#283540"/>
</svg>
