<svg width="100" height="75" viewBox="0 0 100 75" fill="none" xmlns="http://www.w3.org/2000/svg">
<g clip-path="url(#clip0)">
<path d="M21.7879 6.01709H15.2625C13.823 6.02138 12.6568 7.14211 12.6523 8.52556V48.6612H88.3473V8.52556C88.3473 7.14027 87.1785 6.01709 85.7371 6.01709H21.7879Z" fill="#9A9FA3"/>
<path d="M82.7558 10.8816H48.4805V49.9216H82.7558V10.8816Z" fill="white"/>
<path d="M51.0197 10.8816H19.2832V49.9216H51.0197V10.8816Z" fill="#08B69A"/>
<path d="M33.2458 46.2615C33.0554 46.2615 32.8611 46.22 32.6784 46.1334C32.0512 45.8321 31.7974 45.0988 32.1109 44.4961L35.9193 37.1762C36.2328 36.5735 36.9971 36.3295 37.623 36.6308C38.2501 36.9321 38.5039 37.6654 38.1904 38.2681L34.382 45.588C34.1598 46.0151 33.7117 46.2615 33.2458 46.2615Z" fill="white"/>
<path d="M24.3616 42.6017C24.0366 42.6017 23.7116 42.4822 23.4641 42.2443C22.9677 41.7673 22.9677 40.9962 23.4641 40.5193L27.2725 36.8593C27.7676 36.3822 28.5724 36.3822 29.0675 36.8593C29.5639 37.3363 29.5639 38.1074 29.0675 38.5843L25.2591 42.2443C25.0115 42.4822 24.6866 42.6017 24.3616 42.6017Z" fill="white"/>
<path d="M28.1699 46.2617C27.8449 46.2617 27.5199 46.1421 27.2724 45.9043L23.4641 42.2442C22.9677 41.7672 22.9677 40.9961 23.4641 40.5192C23.9592 40.0421 24.764 40.0421 25.2591 40.5192L29.0675 44.1792C29.5639 44.6563 29.5639 45.4273 29.0675 45.9043C28.8199 46.1421 28.4949 46.2617 28.1699 46.2617Z" fill="white"/>
<path d="M45.9415 42.6017C45.6165 42.6017 45.2915 42.4822 45.044 42.2443L41.2356 38.5843C40.7392 38.1072 40.7392 37.3362 41.2356 36.8593C41.7307 36.3822 42.5355 36.3822 43.0306 36.8593L46.839 40.5193C47.3354 40.9964 47.3354 41.7674 46.839 42.2443C46.5914 42.4822 46.2665 42.6017 45.9415 42.6017Z" fill="white"/>
<path d="M42.1331 46.2617C41.8081 46.2617 41.4831 46.1421 41.2356 45.9043C40.7392 45.4272 40.7392 44.6561 41.2356 44.1792L45.044 40.5192C45.5391 40.0421 46.3439 40.0421 46.839 40.5192C47.3354 40.9963 47.3354 41.7673 46.839 42.2442L43.0306 45.9043C42.7831 46.1421 42.4581 46.2617 42.1331 46.2617Z" fill="white"/>
<path d="M35.7871 25.5216C35.0863 25.5216 34.5176 24.975 34.5176 24.3015V15.7616C34.5176 15.0881 35.0863 14.5415 35.7871 14.5415C36.4879 14.5415 37.0566 15.0881 37.0566 15.7616V24.3015C37.0566 24.975 36.4879 25.5216 35.7871 25.5216Z" fill="white"/>
<path d="M35.7871 32.8415C35.0863 32.8415 34.5176 32.2949 34.5176 31.6215V29.1815C34.5176 28.508 35.0863 27.9614 35.7871 27.9614C36.4879 27.9614 37.0566 28.508 37.0566 29.1815V31.6215C37.0566 32.2951 36.4879 32.8415 35.7871 32.8415Z" fill="white"/>
<path d="M68.7922 16.9816H56.0976C55.3969 16.9816 54.8281 16.435 54.8281 15.7616C54.8281 15.0881 55.3969 14.5415 56.0976 14.5415H68.7922C69.493 14.5415 70.0617 15.0881 70.0617 15.7616C70.0617 16.435 69.493 16.9816 68.7922 16.9816Z" fill="#4F5FFF"/>
<path d="M77.6775 16.9816H73.8691C73.1684 16.9816 72.5996 16.435 72.5996 15.7616C72.5996 15.0881 73.1684 14.5415 73.8691 14.5415H77.6775C78.3783 14.5415 78.9471 15.0881 78.9471 15.7616C78.9471 16.435 78.3783 16.9816 77.6775 16.9816Z" fill="#F15396"/>
<path d="M77.679 21.8615H64.9844C64.2836 21.8615 63.7148 21.3149 63.7148 20.6414C63.7148 19.968 64.2836 19.4214 64.9844 19.4214H77.679C78.3797 19.4214 78.9485 19.968 78.9485 20.6414C78.9485 21.3149 78.3797 21.8615 77.679 21.8615Z" fill="#F15396"/>
<path d="M59.906 21.8615H56.0976C55.3969 21.8615 54.8281 21.3149 54.8281 20.6414C54.8281 19.968 55.3969 19.4214 56.0976 19.4214H59.906C60.6068 19.4214 61.1756 19.968 61.1756 20.6414C61.1756 21.3149 60.6068 21.8615 59.906 21.8615Z" fill="#08C5A6"/>
<path d="M68.7922 26.7416H56.0976C55.3969 26.7416 54.8281 26.195 54.8281 25.5216C54.8281 24.8481 55.3969 24.3015 56.0976 24.3015H68.7922C69.493 24.3015 70.0617 24.8481 70.0617 25.5216C70.0617 26.195 69.493 26.7416 68.7922 26.7416Z" fill="#F15396"/>
<path d="M77.6775 26.7416H73.8691C73.1684 26.7416 72.5996 26.195 72.5996 25.5216C72.5996 24.8481 73.1684 24.3015 73.8691 24.3015H77.6775C78.3783 24.3015 78.9471 24.8481 78.9471 25.5216C78.9471 26.195 78.3783 26.7416 77.6775 26.7416Z" fill="#F37C18"/>
<path d="M77.679 31.6218H64.9844C64.2836 31.6218 63.7148 31.0752 63.7148 30.4017C63.7148 29.7282 64.2836 29.1816 64.9844 29.1816H77.679C78.3797 29.1816 78.9485 29.7282 78.9485 30.4017C78.9485 31.0752 78.3797 31.6218 77.679 31.6218Z" fill="#4F5FFF"/>
<path d="M59.906 31.6218H56.0976C55.3969 31.6218 54.8281 31.0752 54.8281 30.4017C54.8281 29.7282 55.3969 29.1816 56.0976 29.1816H59.906C60.6068 29.1816 61.1756 29.7282 61.1756 30.4017C61.1756 31.0752 60.6068 31.6218 59.906 31.6218Z" fill="#F15396"/>
<path d="M77.679 46.2614H64.9844C64.2836 46.2614 63.7148 45.7148 63.7148 45.0413C63.7148 44.3679 64.2836 43.8213 64.9844 43.8213H77.679C78.3797 43.8213 78.9485 44.3679 78.9485 45.0413C78.9485 45.7148 78.3797 46.2614 77.679 46.2614Z" fill="#FCD740"/>
<path d="M59.906 46.2614H56.0976C55.3969 46.2614 54.8281 45.7148 54.8281 45.0413C54.8281 44.3679 55.3969 43.8213 56.0976 43.8213H59.906C60.6068 43.8213 61.1756 44.3679 61.1756 45.0413C61.1756 45.7148 60.6068 46.2614 59.906 46.2614Z" fill="#4F5FFF"/>
<path d="M68.7922 36.5016H56.0976C55.3969 36.5016 54.8281 35.955 54.8281 35.2816C54.8281 34.6081 55.3969 34.0615 56.0976 34.0615H68.7922C69.493 34.0615 70.0617 34.6081 70.0617 35.2816C70.0617 35.955 69.493 36.5016 68.7922 36.5016Z" fill="#08C5A6"/>
<path d="M77.6775 36.5016H73.8691C73.1684 36.5016 72.5996 35.955 72.5996 35.2816C72.5996 34.6081 73.1684 34.0615 73.8691 34.0615H77.6775C78.3783 34.0615 78.9471 34.6081 78.9471 35.2816C78.9471 35.955 78.3783 36.5016 77.6775 36.5016Z" fill="#F15396"/>
<path d="M77.679 41.3815H64.9844C64.2836 41.3815 63.7148 40.8349 63.7148 40.1615C63.7148 39.488 64.2836 38.9414 64.9844 38.9414H77.679C78.3797 38.9414 78.9485 39.488 78.9485 40.1615C78.9485 40.8349 78.3797 41.3815 77.679 41.3815Z" fill="#F15396"/>
<path d="M59.906 41.3815H56.0976C55.3969 41.3815 54.8281 40.8349 54.8281 40.1615C54.8281 39.488 55.3969 38.9414 56.0976 38.9414H59.906C60.6068 38.9414 61.1756 39.488 61.1756 40.1615C61.1756 40.8349 60.6068 41.3815 59.906 41.3815Z" fill="#F37C18"/>
<path d="M58.3303 48.6611H12.6523V56.1866C12.6568 57.57 13.823 58.6907 15.2625 58.695H85.7371C87.1766 58.6907 88.3428 57.57 88.3473 56.1866V48.6611H58.3303Z" fill="#2A3958"/>
<path d="M57.0255 65.9067H43.9746L44.6997 58.6948H56.3004L57.0255 65.9067Z" fill="#58647B"/>
<path d="M36.1445 63.7119V67.4746H64.8564V63.7119H36.1445Z" fill="#2A3958"/>
</g>
<defs>
<clipPath id="clip0">
<rect width="77" height="60" fill="white" transform="translate(12 7)"/>
</clipPath>
</defs>
</svg>
