<svg width="101" height="75" viewBox="0 0 101 75" fill="none" xmlns="http://www.w3.org/2000/svg">
<g clip-path="url(#clip0)">
<path d="M22.2879 6.01709H15.7625C14.323 6.02138 13.1568 7.14211 13.1523 8.52556V48.6612H88.8473V8.52556C88.8473 7.14027 87.6785 6.01709 86.2371 6.01709H22.2879Z" fill="#9A9FA3"/>
<path d="M83.2568 10.8816H48.9814V49.9216H83.2568V10.8816Z" fill="white"/>
<path d="M51.5207 10.8816H19.7842V49.9216H51.5207V10.8816Z" fill="#4F5FFF"/>
<path d="M33.7478 46.2615C33.5574 46.2615 33.3631 46.22 33.1803 46.1334C32.5532 45.8321 32.2994 45.0988 32.6129 44.4961L36.4213 37.1762C36.7348 36.5735 37.4991 36.3295 38.1249 36.6308C38.7521 36.9321 39.0059 37.6654 38.6924 38.2681L34.884 45.588C34.6618 46.0151 34.2137 46.2615 33.7478 46.2615Z" fill="white"/>
<path d="M24.8626 42.6017C24.5376 42.6017 24.2126 42.4822 23.9651 42.2443C23.4687 41.7673 23.4687 40.9962 23.9651 40.5193L27.7735 36.8593C28.2686 36.3822 29.0734 36.3822 29.5685 36.8593C30.0649 37.3363 30.0649 38.1074 29.5685 38.5843L25.7601 42.2443C25.5124 42.4822 25.1876 42.6017 24.8626 42.6017Z" fill="white"/>
<path d="M28.6708 46.2617C28.3458 46.2617 28.0208 46.1421 27.7734 45.9043L23.9651 42.2442C23.4687 41.7672 23.4687 40.9961 23.9651 40.5192C24.4602 40.0421 25.2649 40.0421 25.7601 40.5192L29.5685 44.1792C30.0649 44.6563 30.0649 45.4273 29.5685 45.9043C29.3208 46.1421 28.9958 46.2617 28.6708 46.2617Z" fill="white"/>
<path d="M46.4434 42.6017C46.1184 42.6017 45.7934 42.4822 45.546 42.2443L41.7375 38.5843C41.2411 38.1072 41.2411 37.3362 41.7375 36.8593C42.2327 36.3822 43.0374 36.3822 43.5325 36.8593L47.3409 40.5193C47.8374 40.9964 47.8374 41.7674 47.3409 42.2443C47.0933 42.4822 46.7684 42.6017 46.4434 42.6017Z" fill="white"/>
<path d="M42.635 46.2617C42.31 46.2617 41.985 46.1421 41.7375 45.9043C41.2411 45.4272 41.2411 44.6561 41.7375 44.1792L45.546 40.5192C46.0411 40.0421 46.8458 40.0421 47.3409 40.5192C47.8374 40.9963 47.8374 41.7673 47.3409 42.2442L43.5325 45.9043C43.285 46.1421 42.96 46.2617 42.635 46.2617Z" fill="white"/>
<path d="M36.2881 25.5216C35.5873 25.5216 35.0186 24.975 35.0186 24.3015V15.7616C35.0186 15.0881 35.5873 14.5415 36.2881 14.5415C36.9888 14.5415 37.5576 15.0881 37.5576 15.7616V24.3015C37.5576 24.975 36.9888 25.5216 36.2881 25.5216Z" fill="white"/>
<path d="M36.2881 32.8415C35.5873 32.8415 35.0186 32.2949 35.0186 31.6215V29.1815C35.0186 28.508 35.5873 27.9614 36.2881 27.9614C36.9888 27.9614 37.5576 28.508 37.5576 29.1815V31.6215C37.5576 32.2951 36.9888 32.8415 36.2881 32.8415Z" fill="white"/>
<path d="M69.2932 16.9816H56.5986C55.8979 16.9816 55.3291 16.435 55.3291 15.7616C55.3291 15.0881 55.8979 14.5415 56.5986 14.5415H69.2932C69.994 14.5415 70.5627 15.0881 70.5627 15.7616C70.5627 16.435 69.994 16.9816 69.2932 16.9816Z" fill="#4F5FFF"/>
<path d="M78.1795 16.9816H74.3711C73.6703 16.9816 73.1016 16.435 73.1016 15.7616C73.1016 15.0881 73.6703 14.5415 74.3711 14.5415H78.1795C78.8803 14.5415 79.449 15.0881 79.449 15.7616C79.449 16.435 78.8803 16.9816 78.1795 16.9816Z" fill="#F15396"/>
<path d="M78.179 21.8615H65.4844C64.7836 21.8615 64.2148 21.3149 64.2148 20.6414C64.2148 19.968 64.7836 19.4214 65.4844 19.4214H78.179C78.8797 19.4214 79.4485 19.968 79.4485 20.6414C79.4485 21.3149 78.8797 21.8615 78.179 21.8615Z" fill="#F15396"/>
<path d="M60.407 21.8615H56.5986C55.8979 21.8615 55.3291 21.3149 55.3291 20.6414C55.3291 19.968 55.8979 19.4214 56.5986 19.4214H60.407C61.1078 19.4214 61.6765 19.968 61.6765 20.6414C61.6765 21.3149 61.1078 21.8615 60.407 21.8615Z" fill="#08C5A6"/>
<path d="M69.2932 26.7416H56.5986C55.8979 26.7416 55.3291 26.195 55.3291 25.5216C55.3291 24.8481 55.8979 24.3015 56.5986 24.3015H69.2932C69.994 24.3015 70.5627 24.8481 70.5627 25.5216C70.5627 26.195 69.994 26.7416 69.2932 26.7416Z" fill="#F15396"/>
<path d="M78.1795 26.7416H74.3711C73.6703 26.7416 73.1016 26.195 73.1016 25.5216C73.1016 24.8481 73.6703 24.3015 74.3711 24.3015H78.1795C78.8803 24.3015 79.449 24.8481 79.449 25.5216C79.449 26.195 78.8803 26.7416 78.1795 26.7416Z" fill="#F37C18"/>
<path d="M78.179 31.6218H65.4844C64.7836 31.6218 64.2148 31.0752 64.2148 30.4017C64.2148 29.7282 64.7836 29.1816 65.4844 29.1816H78.179C78.8797 29.1816 79.4485 29.7282 79.4485 30.4017C79.4485 31.0752 78.8797 31.6218 78.179 31.6218Z" fill="#4F5FFF"/>
<path d="M60.407 31.6218H56.5986C55.8979 31.6218 55.3291 31.0752 55.3291 30.4017C55.3291 29.7282 55.8979 29.1816 56.5986 29.1816H60.407C61.1078 29.1816 61.6765 29.7282 61.6765 30.4017C61.6765 31.0752 61.1078 31.6218 60.407 31.6218Z" fill="#F15396"/>
<path d="M78.179 46.2614H65.4844C64.7836 46.2614 64.2148 45.7148 64.2148 45.0413C64.2148 44.3679 64.7836 43.8213 65.4844 43.8213H78.179C78.8797 43.8213 79.4485 44.3679 79.4485 45.0413C79.4485 45.7148 78.8797 46.2614 78.179 46.2614Z" fill="#FCD740"/>
<path d="M60.407 46.2614H56.5986C55.8979 46.2614 55.3291 45.7148 55.3291 45.0413C55.3291 44.3679 55.8979 43.8213 56.5986 43.8213H60.407C61.1078 43.8213 61.6765 44.3679 61.6765 45.0413C61.6765 45.7148 61.1078 46.2614 60.407 46.2614Z" fill="#4F5FFF"/>
<path d="M69.2932 36.5016H56.5986C55.8979 36.5016 55.3291 35.955 55.3291 35.2816C55.3291 34.6081 55.8979 34.0615 56.5986 34.0615H69.2932C69.994 34.0615 70.5627 34.6081 70.5627 35.2816C70.5627 35.955 69.994 36.5016 69.2932 36.5016Z" fill="#08C5A6"/>
<path d="M78.1795 36.5016H74.3711C73.6703 36.5016 73.1016 35.955 73.1016 35.2816C73.1016 34.6081 73.6703 34.0615 74.3711 34.0615H78.1795C78.8803 34.0615 79.449 34.6081 79.449 35.2816C79.449 35.955 78.8803 36.5016 78.1795 36.5016Z" fill="#F15396"/>
<path d="M78.179 41.3815H65.4844C64.7836 41.3815 64.2148 40.8349 64.2148 40.1615C64.2148 39.488 64.7836 38.9414 65.4844 38.9414H78.179C78.8797 38.9414 79.4485 39.488 79.4485 40.1615C79.4485 40.8349 78.8797 41.3815 78.179 41.3815Z" fill="#F15396"/>
<path d="M60.407 41.3815H56.5986C55.8979 41.3815 55.3291 40.8349 55.3291 40.1615C55.3291 39.488 55.8979 38.9414 56.5986 38.9414H60.407C61.1078 38.9414 61.6765 39.488 61.6765 40.1615C61.6765 40.8349 61.1078 41.3815 60.407 41.3815Z" fill="#F37C18"/>
<path d="M58.8303 48.6611H13.1523V56.1866C13.1568 57.57 14.323 58.6907 15.7625 58.695H86.2371C87.6766 58.6907 88.8428 57.57 88.8473 56.1866V48.6611H58.8303Z" fill="#2A3958"/>
<path d="M57.5255 65.9067H44.4746L45.1997 58.6948H56.8004L57.5255 65.9067Z" fill="#58647B"/>
<path d="M36.6445 63.7119V67.4746H65.3564V63.7119H36.6445Z" fill="#2A3958"/>
</g>
<defs>
<clipPath id="clip0">
<rect width="77" height="60" fill="white" transform="translate(12.5 7)"/>
</clipPath>
</defs>
</svg>
