<svg width="78" height="78" viewBox="0 0 78 78" fill="none" xmlns="http://www.w3.org/2000/svg">
<path d="M15.4441 21.5923L17.7147 25.5251C18.0082 26.0334 17.8542 26.6723 17.37 26.9519L12.1932 29.9407C11.7089 30.2203 11.0787 30.0342 10.7852 29.5258L8.51458 25.593C8.22108 25.0846 8.375 24.4457 8.85929 24.1661L14.036 21.1774C14.5203 20.8978 15.1506 21.0839 15.4441 21.5923Z" fill="#2BD8BC"/>
<path d="M28.9182 13.813L31.1888 17.7458C31.4823 18.2541 31.3284 18.893 30.8441 19.1726L25.6674 22.1614C25.1831 22.441 24.5528 22.2549 24.2593 21.7465L21.9887 17.8137C21.6952 17.3053 21.8491 16.6665 22.3334 16.3868L27.5101 13.3981C27.9943 13.1185 28.6247 13.3046 28.9182 13.813Z" fill="#2BD8BC"/>
<path d="M22.7905 19.2026L29.72 15.2019L31.2048 17.7737C31.4894 18.2666 31.3283 18.893 30.844 19.1726L25.6673 22.1614C25.183 22.441 24.56 22.2674 24.2754 21.7744L22.7905 19.2026Z" fill="#2BD8BC"/>
<path d="M42.3913 6.03416L44.6619 9.96696C44.9554 10.4753 44.8015 11.1142 44.3172 11.3938L39.1405 14.3826C38.6562 14.6622 38.026 14.4761 37.7325 13.9677L35.4618 10.0349C35.1683 9.52654 35.3223 8.88764 35.8066 8.60804L40.9833 5.61925C41.4676 5.33965 42.0978 5.5258 42.3913 6.03416Z" fill="#2BD8BC"/>
<path d="M36.2637 11.4238L43.1932 7.42309L44.678 9.99489C44.9626 10.4878 44.8014 11.1142 44.3171 11.3938L39.1404 14.3826C38.6561 14.6622 38.0331 14.4886 37.7485 13.9956L36.2637 11.4238L36.2637 11.4238Z" fill="#2BD8BC"/>
<path d="M40.3376 64.709L42.6082 68.6418C42.9017 69.1501 42.7478 69.789 42.2635 70.0686L37.0868 73.0574C36.6025 73.337 35.9722 73.1509 35.6787 72.6425L33.4081 68.7097C33.1146 68.2013 33.2686 67.5624 33.7528 67.2828L38.9296 64.2941C39.4138 64.0144 40.0441 64.2006 40.3376 64.709Z" fill="#2BD8BC"/>
<path d="M40.3215 64.681L41.8063 67.2528L34.8768 71.2536L33.392 68.6818C33.1074 68.1888 33.2686 67.5624 33.7528 67.2828L38.9296 64.2941C39.4138 64.0144 40.0369 64.1881 40.3215 64.681Z" fill="#2BD8BC"/>
<path d="M53.8117 56.9297L56.0823 60.8625C56.3758 61.3708 56.2219 62.0097 55.7376 62.2893L50.5609 65.2781C50.0766 65.5577 49.4464 65.3716 49.1529 64.8632L46.8823 60.9304C46.5888 60.422 46.7427 59.7832 47.227 59.5035L52.4037 56.5148C52.8878 56.2351 53.5182 56.4213 53.8117 56.9297Z" fill="#2BD8BC"/>
<path d="M53.7956 56.9017L55.2804 59.4735L48.351 63.4743L46.8661 60.9025C46.5815 60.4095 46.7427 59.7832 47.227 59.5035L52.4037 56.5148C52.8878 56.2351 53.511 56.4088 53.7956 56.9017Z" fill="#2BD8BC"/>
<path d="M67.2849 49.1509L69.5555 53.0837C69.849 53.592 69.6951 54.2309 69.2108 54.5105L64.0341 57.4993C63.5498 57.7789 62.9195 57.5928 62.626 57.0844L60.3554 53.1516C60.0619 52.6432 60.2158 52.0043 60.7001 51.7247L65.8768 48.736C66.3611 48.4562 66.9914 48.6425 67.2849 49.1509Z" fill="#2BD8BC"/>
<path d="M67.2688 49.1229L68.7536 51.6947L61.8241 55.6955L60.3393 53.1237C60.0547 52.6307 60.2158 52.0043 60.7001 51.7247L65.8768 48.736C66.3611 48.4563 66.9842 48.63 67.2688 49.1229Z" fill="#2BD8BC"/>
<path d="M54.2879 8.85884L57.2766 14.0356C57.5563 14.5199 57.3701 15.1501 56.8617 15.4436L52.9289 17.7142C52.4206 18.0077 51.7817 17.8538 51.5021 17.3695L48.5133 12.1928C48.2337 11.7085 48.4198 11.0782 48.9282 10.7847L52.861 8.51413C53.3694 8.22063 54.0083 8.37455 54.2879 8.85884Z" fill="#2BD8BC"/>
<path d="M51.4721 9.31604L55.4728 16.2455L52.901 17.7303C52.4081 18.0149 51.7817 17.8538 51.5021 17.3695L48.5133 12.1928C48.2337 11.7085 48.4073 11.0855 48.9003 10.8009L51.4721 9.31604Z" fill="#2BD8BC"/>
<path d="M62.0672 22.3327L65.0559 27.5094C65.3356 27.9937 65.1494 28.624 64.641 28.9175L60.7082 31.1881C60.1999 31.4816 59.561 31.3277 59.2814 30.8434L56.2926 25.6667C56.013 25.1825 56.1991 24.5521 56.7075 24.2586L60.6403 21.988C61.1487 21.6945 61.7876 21.8485 62.0672 22.3327Z" fill="#2BD8BC"/>
<path d="M56.6796 24.2747L59.2514 22.7899L63.2521 29.7194L60.6803 31.2042C60.1874 31.4888 59.561 31.3277 59.2814 30.8434L56.2926 25.6667C56.013 25.1825 56.1866 24.5593 56.6796 24.2747Z" fill="#2BD8BC"/>
<path d="M69.8465 35.8068L72.8352 40.9836C73.1148 41.4678 72.9287 42.0981 72.4203 42.3916L68.4875 44.6622C67.9792 44.9557 67.3403 44.8018 67.0607 44.3175L64.0719 39.1408C63.7923 38.6565 63.9784 38.0262 64.4868 37.7327L68.4196 35.4621C68.928 35.1686 69.5669 35.3225 69.8465 35.8068Z" fill="#2BD8BC"/>
<path d="M64.4589 37.7489L67.0307 36.264L71.0314 43.1935L68.4596 44.6783C67.9667 44.9629 67.3403 44.8018 67.0607 44.3175L64.0719 39.1408C63.7922 38.6565 63.9659 38.0335 64.4589 37.7489Z" fill="#2BD8BC"/>
<path d="M11.1717 33.7521L14.1604 38.9289C14.44 39.4132 14.2539 40.0434 13.7455 40.3369L9.81272 42.6075C9.30437 42.901 8.66548 42.7471 8.38587 42.2628L5.39709 37.0861C5.11748 36.6018 5.30363 35.9715 5.81198 35.6781L9.74471 33.4075C10.2531 33.114 10.8921 33.2679 11.1717 33.7521Z" fill="#2BD8BC"/>
<path d="M11.1714 33.752L14.1602 38.9287C14.4398 39.413 14.2662 40.036 13.7732 40.3206L11.2014 41.8055L7.20068 34.876L9.77241 33.3912C10.2653 33.1066 10.8918 33.2677 11.1714 33.752Z" fill="#2BD8BC"/>
<path d="M18.9505 47.226L21.9392 52.4027C22.2189 52.887 22.0327 53.5173 21.5244 53.8108L17.5915 56.0814C17.0832 56.3749 16.4443 56.221 16.1647 55.7367L13.1759 50.56C12.8963 50.0758 13.0824 49.4454 13.5908 49.1519L17.5235 46.8814C18.0319 46.5879 18.6709 46.7418 18.9505 47.226Z" fill="#2BD8BC"/>
<path d="M18.9507 47.2261L21.9395 52.4028C22.2191 52.8871 22.0455 53.5101 21.5525 53.7947L18.9807 55.2796L14.98 48.3501L17.5517 46.8653C18.0446 46.5807 18.6711 46.7419 18.9507 47.2261Z" fill="#2BD8BC"/>
<path d="M26.7298 60.7001L29.7185 65.8769C29.9981 66.3611 29.812 66.9914 29.3037 67.2849L25.3708 69.5555C24.8625 69.849 24.2236 69.6951 23.944 69.2108L20.9552 64.0341C20.6756 63.5498 20.8617 62.9195 21.3701 62.6261L25.3028 60.3555C25.8112 60.062 26.4502 60.2159 26.7298 60.7001Z" fill="#2BD8BC"/>
<path d="M26.73 60.7L29.7188 65.8767C29.9983 66.3609 29.8248 66.984 29.3318 67.2686L26.76 68.7535L22.7593 61.824L25.331 60.3392C25.8239 60.0546 26.4504 60.2157 26.73 60.7Z" fill="#2BD8BC"/>
<path d="M68.8017 49.6138L33.436 70.0322C31.8271 70.9611 29.7699 70.4099 28.841 68.801L8.42259 33.4353C7.49374 31.8265 8.04499 29.7692 9.65381 28.8403L45.0195 8.42193C46.6284 7.49308 48.6856 8.04433 49.6145 9.65315L70.0329 45.0189C70.9618 46.6277 70.4105 48.685 68.8017 49.6138Z" fill="#F37C18"/>
<path d="M61.6981 46.5289L34.6999 62.1163C33.8633 62.5993 32.7936 62.3127 32.3106 61.4761L16.7232 34.4779C16.2402 33.6413 16.5268 32.5716 17.3634 32.0886L44.3616 16.5012C45.1981 16.0182 46.2679 16.3048 46.7509 17.1414L62.3383 44.1396C62.8214 44.9762 62.5347 46.0459 61.6981 46.5289Z" fill="#F69C50"/>
<path d="M34.0562 54.2751C33.7373 54.4592 33.2915 54.2841 33.0605 53.8839L23.0062 36.4694C22.7751 36.0692 22.8464 35.5956 23.1653 35.4115C23.4843 35.2273 23.9301 35.4025 24.1611 35.8026L34.2154 53.2171C34.4465 53.6173 34.3752 54.0909 34.0562 54.2751Z" fill="#FED603"/>
<path d="M54.8443 42.2729C54.5253 42.457 54.0796 42.2819 53.8485 41.8817L43.7943 24.4672C43.5632 24.067 43.6345 23.5934 43.9534 23.4093C44.2724 23.2252 44.7182 23.4003 44.9492 23.8004L55.0035 41.2149C55.2345 41.6152 55.1633 42.0887 54.8443 42.2729Z" fill="#FED603"/>
<path d="M41.882 24.6057L24.4675 34.6599C24.0674 34.891 23.5937 34.8197 23.4096 34.5008C23.2254 34.1819 23.4006 33.7361 23.8007 33.505L41.2152 23.4508C41.6155 23.2197 42.089 23.291 42.2731 23.6099C42.4573 23.9288 42.2822 24.3746 41.882 24.6057Z" fill="#FED603"/>
<path d="M53.8844 45.394L36.47 55.4483C36.0698 55.6793 35.5961 55.6081 35.412 55.2891C35.2279 54.9702 35.403 54.5244 35.8032 54.2933L53.2176 44.2391C53.6179 44.008 54.0915 44.0793 54.2756 44.3982C54.4597 44.7172 54.2847 45.1629 53.8844 45.394Z" fill="#FED603"/>
<path d="M47.1623 34.7532C46.7564 34.9876 46.2364 34.8466 46.0007 34.4383L42.4618 28.3086L36.3681 31.8268C35.9622 32.0612 35.4422 31.9201 35.2065 31.5119C34.9708 31.1035 35.1088 30.5828 35.5146 30.3485L42.3432 26.406C42.7491 26.1716 43.2691 26.3127 43.5047 26.7209L47.4705 33.5899C47.7062 33.998 47.5683 34.5189 47.1623 34.7532Z" fill="#FEFEFE"/>
<path d="M40.1395 49.1173L37.1097 50.8666C36.6319 51.1425 36.0198 50.9764 35.7424 50.4959L33.9828 47.4482C33.7053 46.9676 33.8678 46.3545 34.3454 46.0788L37.3752 44.3295C37.853 44.0537 38.4651 44.2197 38.7425 44.7002L40.5021 47.7479C40.7796 48.2285 40.6172 48.8416 40.1395 49.1173Z" fill="#FEFEFE"/>
</svg>
