<svg width="295" height="293" viewBox="0 0 295 293" fill="none" xmlns="http://www.w3.org/2000/svg">
<path d="M234.036 209.567C234.036 209.567 239.228 202.326 207.034 193.335C176.501 184.811 62.1159 151.514 61.6904 164.172C61.2536 176.847 171.614 223.996 234.036 209.567Z" fill="#1F2B3D"/>
<path d="M195.64 205.205C218.076 202.047 234.069 191.948 242.417 173.62C257.476 140.588 225.71 115.811 167.938 104.891C111.805 94.2757 89.0259 108.822 81.3785 128.953C73.9907 151.642 83.6839 171.242 96.0352 180.05C96.0409 180.042 136.511 213.519 195.64 205.205Z" fill="white"/>
<path d="M195.675 205.464C202.528 204.526 209.337 202.911 215.726 200.17C218.925 198.821 222.009 197.163 224.912 195.239C227.837 193.342 230.57 191.136 233.046 188.668C238.026 183.725 241.832 177.687 244.576 171.2C245.927 167.931 246.932 164.479 247.362 160.913C247.807 157.343 247.671 153.666 246.904 150.1C245.36 142.925 241.295 136.519 236.304 131.358C231.283 126.166 225.386 122.001 219.226 118.467C213.045 114.945 206.575 112.037 199.983 109.538C193.379 107.056 186.666 104.905 179.844 103.22C173.03 101.502 166.178 100.06 159.227 98.8919C152.264 97.8029 145.215 97.0457 138.089 96.8014C134.532 96.6514 130.941 96.692 127.341 96.8641C123.736 97.0831 120.13 97.5008 116.532 98.1226C109.356 99.3922 102.118 101.644 95.5697 105.581C89.0501 109.51 83.4883 115.369 80.0213 122.17C79.1251 123.858 78.4138 125.589 77.6971 127.465C77.3996 128.386 77.1612 129.332 76.9219 130.239C76.7205 131.146 76.4779 132.04 76.3234 132.951C75.6204 136.594 75.2373 140.303 75.3127 144.016C75.4708 158.839 82.5123 173.541 94.7338 181.905L94.6061 181.812C98.3344 184.601 102.094 186.849 106.007 189.032C109.905 191.181 113.909 193.122 117.994 194.878C122.069 196.629 126.225 198.193 130.43 199.564C134.645 200.917 138.901 202.108 143.197 203.138C147.487 204.177 151.843 204.933 156.206 205.544L159.48 205.963L162.775 206.271C164.965 206.514 167.166 206.601 169.36 206.758C178.147 207.134 186.969 206.71 195.675 205.464ZM195.605 204.945C186.924 206.132 178.133 206.489 169.382 206.037C160.644 205.505 151.938 204.195 143.463 202.01C134.971 199.852 126.695 196.883 118.758 193.182C110.847 189.46 103.167 185.099 96.2793 179.744L96.2615 179.733L96.2526 179.727C90.7036 175.721 86.3602 170.148 83.466 163.961C80.5686 157.76 79.1162 150.892 79.2414 144.053C79.2689 140.629 79.7259 137.217 80.4737 133.876C80.8476 132.206 81.3095 130.555 81.8482 128.939C82.4814 127.371 83.1493 125.788 83.9917 124.303C87.2135 118.281 92.1628 113.23 98.0631 109.805C103.962 106.342 110.609 104.276 117.37 103.13C124.143 102.003 131.037 101.689 137.916 101.89C144.791 102.075 151.658 102.767 158.474 103.774C165.289 104.782 172.071 106.08 178.788 107.636C192.185 110.787 205.459 114.957 217.631 121.394C223.694 124.63 229.472 128.47 234.388 133.259C239.282 138.022 243.253 143.907 244.897 150.572C246.575 157.222 245.722 164.323 243.25 170.696C240.776 177.092 237.115 183.059 232.338 187.995C227.582 192.956 221.747 196.809 215.44 199.54C209.163 202.302 202.419 203.97 195.605 204.945Z" fill="#1F2B3D"/>
<path d="M133.441 195.465C133.441 195.465 90.3267 174.92 109.447 139.416C116.614 118.844 145.305 115.553 181.92 125.355C206.415 135.36 216.726 153.869 213.066 171.704C211.201 180.794 206.3 199.052 178.014 201.627C166.913 202.638 153.129 203.243 133.441 195.465Z" fill="#1F2B3D"/>
<path d="M202.847 216.384C202.847 216.384 173.542 257.743 154.65 259.559C136.997 261.25 120.727 249.619 120.727 249.619C120.727 249.619 108.619 248.545 103.866 242.575C100.502 238.347 89.5279 208.484 88.0411 190.313C88.0411 190.313 60.5332 172.363 61.6851 164.181C62.8225 156.001 75.8377 184.553 150.989 203.332C209.2 217.884 238.505 204.174 233.489 210.429C229.173 215.819 202.847 216.384 202.847 216.384Z" fill="#1F2B3D"/>
<path d="M189.973 232.688C180.66 233.985 149.907 234.671 91.8351 209.15C89.8701 202.344 88.4027 195.716 88.0463 190.304C88.0463 190.304 144.8 221.184 203.89 216.31C203.885 216.319 197.808 223.933 189.973 232.688Z" fill="#EDDB00"/>
<path d="M50.4521 99.2972C50.4521 99.2972 102.274 110.892 165.189 48.5443C165.189 48.5443 198.795 88.0274 267.664 100.576C267.67 100.568 193.183 135.33 50.4521 99.2972Z" fill="#F2F2F2"/>
<path d="M50.6044 99.3317C50.6464 99.3833 50.6078 99.4835 50.5699 99.4843C50.5408 99.4908 50.6345 99.5004 50.6668 99.5084L50.9164 99.567L51.4122 99.6697L52.4209 99.8483C53.0863 99.9588 53.763 100.051 54.4397 100.144C55.7899 100.315 57.1448 100.439 58.5012 100.502C61.2174 100.642 63.931 100.668 66.65 100.548C72.089 100.345 77.5013 99.6153 82.8381 98.513C93.4994 96.2883 103.896 92.7116 113.676 87.9078C116.15 86.7595 118.535 85.4555 120.951 84.1829C122.148 83.5337 123.309 82.8241 124.494 82.1547C125.675 81.4708 126.861 80.8015 128.006 80.0571L131.464 77.8877C132.613 77.1578 133.725 76.3675 134.862 75.6175C135.977 74.8416 137.135 74.1174 138.226 73.3012L141.515 70.8875C150.254 64.4018 158.398 57.1265 165.981 49.3587L164.332 49.2851C171.146 56.5249 178.84 62.5532 186.907 68.0941L189.932 70.1631C190.946 70.8439 191.994 71.4714 193.026 72.1255C195.099 73.416 197.139 74.7598 199.282 75.9202C201.403 77.1162 203.488 78.3889 205.649 79.5227L212.149 82.8738C214.315 83.9986 216.565 84.9522 218.773 85.9914L222.099 87.528C223.214 88.0109 224.363 88.4404 225.489 88.9055L232.282 91.6192L239.196 94.0235L242.661 95.224C243.812 95.6301 245.004 95.9126 246.174 96.2687L253.223 98.2844L254.984 98.7906L256.769 99.1999L260.344 100.009L267.495 101.629L267.239 99.6341C258.881 102.983 249.982 105.378 241.071 107.28C236.626 108.313 232.11 109.025 227.622 109.831C225.387 110.27 223.109 110.52 220.844 110.829L214.056 111.721C195.901 113.792 177.578 114.161 159.31 113.717L145.605 113.175C141.042 112.861 136.488 112.453 131.925 112.101L125.081 111.549C123.944 111.476 122.804 111.326 121.674 111.183L118.268 110.755L104.635 109.037L101.223 108.618C100.095 108.451 98.9659 108.246 97.8345 108.064L91.0543 106.942L77.485 104.691C73.0554 103.813 68.7719 102.941 64.3028 102.125C59.8272 101.281 55.2215 100.366 50.6044 99.3317ZM50.3047 99.2538C54.6498 100.265 58.9861 101.408 63.4736 102.646C67.9634 103.862 72.6068 105.149 77.1504 106.162L90.6743 108.857L97.4451 110.211C98.5774 110.43 99.6983 110.668 100.827 110.873L104.244 111.382L117.91 113.382L121.323 113.877C122.46 114.05 123.597 114.223 124.747 114.316L131.619 114.999C136.203 115.438 140.776 115.971 145.369 116.316L159.18 116.987C177.595 117.612 196.089 117.053 214.402 114.733C223.544 113.489 232.682 112.093 241.656 109.895C250.646 107.77 259.532 105.279 268.108 101.507L271.156 100.161L267.853 99.5121L260.727 98.1084L257.16 97.4037L255.374 97.0558L253.617 96.6022L246.573 94.7761C245.403 94.458 244.218 94.2046 243.058 93.8308L239.599 92.7206C237.295 91.9698 234.972 91.269 232.677 90.4859L225.9 87.8448C224.772 87.4032 223.632 86.9793 222.511 86.5053L219.195 85.0123C216.999 83.9933 214.741 83.072 212.582 81.9762C203.872 77.6852 195.537 72.6468 187.684 66.9667C179.891 61.2502 172.386 54.9431 166.051 47.7947L165.256 46.9045L164.396 47.73C156.628 55.1808 148.446 62.1824 139.827 68.5953C131.206 74.9936 122.147 80.8032 112.549 85.5971C110.165 86.8398 107.713 87.9146 105.279 89.0386C102.803 90.0731 100.347 91.1334 97.825 92.0638C92.8099 93.956 87.6829 95.5529 82.4513 96.7842C81.1471 97.0912 79.8428 97.3982 78.5166 97.6415C77.2059 97.9194 75.8764 98.1482 74.5583 98.3591C71.914 98.8133 69.2437 99.1513 66.5741 99.39C63.8989 99.6376 61.2113 99.7278 58.5155 99.713C57.172 99.7084 55.8244 99.6514 54.4793 99.5709C53.8067 99.5307 53.1308 99.4759 52.4663 99.4034L51.465 99.2917L50.9611 99.2214L50.7091 99.1862L50.5509 99.1606C50.4628 99.1422 50.3362 99.2239 50.3047 99.2538Z" fill="#231815"/>
<path d="M67.4537 95.1735C67.4537 95.1735 62.6045 94.4658 61.4921 98.086C60.3798 101.706 62.052 109.249 73.2885 113.585C84.5306 117.912 100.739 121.426 110.884 115.084C121.034 108.732 111.515 87.7962 108.293 86.5873C105.07 85.3783 102.1 87.5454 102.1 87.5454C102.1 87.5454 99.3513 78.1225 95.5894 77.8428C91.8275 77.563 88.5807 86.4736 88.5807 86.4736C88.5807 86.4736 85.5572 79.6064 82.2184 78.7972C78.874 77.997 77.4147 85.2492 77.4147 85.2492C77.4147 85.2492 73.7294 79.7199 71.2006 79.5991C68.6718 79.4783 67.4537 95.1735 67.4537 95.1735Z" fill="white"/>
<path d="M101.243 89.8573C101.243 89.8573 103.824 83.117 108.868 86.8779C113.208 90.1174 117.655 106.727 112.585 112.361C103.204 122.766 79.2885 117.567 65.198 108.042C60.2271 104.677 59.2438 94.9275 66.661 93.7489" fill="white"/>
<path d="M101.243 89.8573C101.747 88.8676 102.406 87.9648 103.217 87.2572C104.004 86.5473 105.001 86.0954 105.97 86.199C106.936 86.288 107.847 86.8164 108.593 87.4887C109.302 88.1384 109.852 89.0605 110.329 89.9988C111.291 91.881 111.969 93.9566 112.466 96.0421C112.963 98.1276 113.318 100.26 113.419 102.381C113.516 104.487 113.436 106.618 112.898 108.508C112.627 109.446 112.25 110.316 111.728 110.982C111.492 111.294 111.112 111.638 110.763 111.991C110.412 112.329 110.004 112.618 109.625 112.939C108.025 114.106 106.164 114.957 104.176 115.516C102.194 116.066 100.097 116.307 97.9882 116.427C93.7554 116.634 89.4578 116.04 85.2461 115.113C81.0279 114.157 76.8963 112.771 72.9087 111.039C70.9262 110.155 68.9767 109.18 67.0803 108.102L65.6799 107.263C65.2711 107.004 64.8904 106.7 64.5233 106.355C63.824 105.649 63.2181 104.816 62.7646 103.88C61.8699 102.029 61.5164 99.8347 62.0868 97.8155C62.3648 96.8075 62.9367 95.8863 63.7415 95.1876C64.5341 94.4688 65.5693 94.016 66.6468 93.7521C65.5513 93.8675 64.4223 94.1734 63.4705 94.8287C62.5066 95.4639 61.7579 96.4475 61.3154 97.538C60.4046 99.7402 60.5986 102.244 61.4285 104.454C61.845 105.566 62.456 106.627 63.2623 107.537C63.6755 107.986 64.129 108.411 64.6252 108.788L66.0056 109.776C67.866 111.068 69.8166 112.219 71.8372 113.239C75.8559 115.314 80.1154 116.932 84.5131 118.076C88.9052 119.23 93.4806 119.838 98.1179 119.701C100.435 119.625 102.769 119.286 105.056 118.63C107.339 117.959 109.558 116.936 111.531 115.457C112.001 115.07 112.486 114.679 112.914 114.24C113.342 113.801 113.768 113.386 114.193 112.795C114.997 111.684 115.445 110.448 115.742 109.252C116.324 106.842 116.302 104.459 116.039 102.161C115.486 97.571 114.153 93.1478 111.732 89.1813C111.088 88.2118 110.386 87.2552 109.37 86.4986C108.4 85.808 107.236 85.2445 105.958 85.2939C104.677 85.3288 103.572 86.0489 102.835 86.9154C102.116 87.7933 101.596 88.8096 101.243 89.8573Z" fill="#1F2B3D"/>
<path d="M102.421 109.852C102.421 109.852 103.972 81.8024 96.3174 78.3051C91.3303 76.0265 89.9009 84.9805 89.9009 84.9805" fill="white"/>
<path d="M102.421 109.852C103.27 106.215 103.633 102.518 103.728 98.8131C103.827 95.0991 103.617 91.3629 102.905 87.6322C102.526 85.7718 102.031 83.8994 101.234 82.0718C100.81 81.1674 100.354 80.2549 99.6781 79.4146C99.0399 78.5734 98.2063 77.7454 97.0769 77.2658C96.8224 77.1168 96.5204 77.0623 96.2353 76.9812C95.9445 76.9089 95.6796 76.8156 95.3437 76.8145C95.0224 76.8101 94.7147 76.7645 94.4007 76.8271C94.0867 76.8897 93.7615 76.9701 93.4807 77.0787C92.2833 77.5906 91.5951 78.5378 91.1127 79.4161C90.2078 81.2356 89.8827 83.1236 89.9047 84.9951C90.5958 83.2768 91.3749 81.577 92.468 80.3257C92.9943 79.7122 93.6136 79.2075 94.1932 79.1389C94.7429 79.0388 95.3285 79.2358 95.8998 79.5733C96.9641 80.2734 97.7566 81.736 98.332 83.2854C98.905 84.8581 99.3231 86.557 99.6574 88.29C100.335 91.7615 100.731 95.3416 101.164 98.9443C101.554 102.533 101.908 106.161 102.421 109.852Z" fill="#1F2B3D"/>
<path d="M91.026 109.816C91.026 109.816 91.3389 82.5387 83.6753 79.0358C78.6883 76.7572 78.506 84.9441 78.506 84.9441" fill="white"/>
<path d="M91.0255 109.816C91.7165 106.29 91.919 102.728 91.8615 99.164C91.8186 95.5963 91.4599 92.0154 90.6581 88.4649C90.2382 86.6901 89.7133 84.9235 88.9148 83.1953C88.1083 81.4993 87.1071 79.7172 85.2541 78.4918C85.0488 78.3242 84.7661 78.2196 84.5237 78.0908C84.2724 77.9563 84.0164 77.8687 83.749 77.7988C83.4817 77.729 83.2313 77.6324 82.9414 77.5981C82.6458 77.5727 82.339 77.565 82.0556 77.5598C81.744 77.599 81.4333 77.6761 81.1371 77.75C80.8418 77.8618 80.574 78.0285 80.3086 78.1718C80.0763 78.3611 79.8707 78.5672 79.6562 78.7677C79.4918 78.9876 79.3363 79.2131 79.1954 79.4353C78.7026 80.3693 78.5133 81.2964 78.4234 82.2242C78.3391 83.1431 78.3598 84.0538 78.5112 84.9352C78.7368 84.0686 78.9891 83.2189 79.3158 82.4288C79.6369 81.6476 80.0225 80.8825 80.5304 80.357C81.0318 79.8025 81.5507 79.633 82.0579 79.7179C82.5917 79.8197 83.2679 80.1489 83.7359 80.5705C84.7174 81.4798 85.4654 82.9143 86.031 84.42C86.6145 85.9371 87.0543 87.5625 87.4394 89.2154C88.2094 92.5213 88.7454 95.9405 89.3025 99.3856C89.8361 102.828 90.344 106.292 91.0255 109.816Z" fill="#1F2B3D"/>
<path d="M79.7525 106.068C79.7525 106.068 79.4585 82.9308 72.788 80.594C66.1175 78.2571 67.1837 101.061 67.1837 101.061" fill="white"/>
<path d="M79.7525 106.068C80.3311 101.835 80.3566 97.5501 79.9267 93.2757C79.7437 91.1275 79.3362 88.9991 78.7793 86.8507C78.1531 84.733 77.4347 82.5445 75.6347 80.5673C74.6993 79.6249 73.3529 78.7209 71.5123 78.8123C70.5977 78.9177 69.7376 79.3694 69.1749 79.9224C68.6178 80.4666 68.2222 81.0509 67.946 81.6237C67.3793 82.7725 67.0861 83.8831 66.8366 84.9839C66.587 86.0846 66.4659 87.1796 66.3883 88.2648C66.0601 92.5944 66.3527 96.8689 67.1781 101.07C67.7276 96.8436 68.1642 92.6576 68.94 88.6245C69.3684 86.6524 69.8241 84.5978 70.6932 83.1296C70.9099 82.7684 71.1283 82.4831 71.3315 82.3003C71.5347 82.1176 71.6719 82.1174 71.7938 82.0825C72.0828 82.0789 72.7395 82.321 73.2457 82.879C73.7866 83.4215 74.2689 84.2137 74.6794 85.06C75.0988 85.912 75.4554 86.8239 75.7748 87.7745C76.4427 89.6692 76.8912 91.6741 77.372 93.687C78.2698 97.7347 78.9594 101.875 79.7525 106.068Z" fill="#1F2B3D"/>
<path d="M244.079 100.612C244.079 100.612 251.406 101.483 252.78 104.897C254.154 108.312 252.035 113.637 241.159 118.892C230.283 124.147 212.856 129.236 202.268 124.015C191.68 118.794 200.213 98.4267 202.747 96.0826C206.446 92.6695 209.802 98.364 209.802 98.364C209.802 98.364 213.084 88.6904 216.814 88.0772C220.544 87.464 222.38 94.1391 222.38 94.1391C222.38 94.1391 224.889 87.1786 228.152 86.0824C231.424 84.9919 233.104 94.0361 233.104 94.0361C233.104 94.0361 236.04 87.6207 238.568 87.467C241.601 87.2843 244.079 100.612 244.079 100.612Z" fill="white"/>
<path d="M210.662 97.775C210.662 97.775 208.104 91.1162 203.362 95.2509C199.275 98.8042 196.187 116.367 201.659 121.359C211.771 130.592 238.634 123.835 250.434 111.562C253.949 107.908 250.907 96.3541 243.435 95.8899" fill="white"/>
<path d="M210.815 97.7102C210.488 96.5553 209.995 95.4451 209.158 94.4653C208.724 93.9904 208.183 93.5471 207.511 93.2703C206.844 92.9846 206.051 92.9179 205.33 93.0336C204.599 93.1436 203.934 93.4449 203.355 93.788C203.049 93.9556 202.794 94.1424 202.512 94.3503C202.228 94.5816 201.948 94.8274 201.723 95.0837C200.776 96.1039 200.159 97.1955 199.585 98.3153C197.471 102.808 196.422 107.566 196.328 112.567C196.309 115.074 196.526 117.679 197.726 120.386C198.022 121.059 198.417 121.734 198.922 122.391C199.149 122.722 199.468 123.024 199.758 123.333C200.03 123.592 200.281 123.826 200.551 124.048C201.623 124.952 202.806 125.702 204.028 126.291C206.484 127.45 209.05 128.043 211.563 128.366C214.084 128.656 216.591 128.713 219.047 128.476C221.507 128.254 223.919 127.852 226.28 127.293C227.463 127.021 228.635 126.705 229.801 126.36C230.956 125.995 232.1 125.587 233.223 125.153C235.475 124.275 237.678 123.279 239.81 122.138C241.93 120.978 243.962 119.661 245.909 118.204C247.859 116.76 249.653 115.093 251.278 113.257C251.62 112.876 252.252 112.155 252.569 111.458C252.924 110.761 253.119 110.062 253.232 109.373C253.457 107.995 253.369 106.68 253.133 105.421C252.65 102.92 251.584 100.573 249.903 98.7219C249.07 97.7946 248.083 96.9934 246.964 96.4581C245.845 95.9228 244.616 95.6791 243.434 95.7146L243.419 95.7179C243.329 95.7229 243.255 95.8005 243.259 95.8909C243.264 95.9813 243.333 96.0498 243.418 96.0538C245.69 96.1862 247.764 97.5146 249.102 99.3358C250.475 101.142 251.314 103.357 251.595 105.605C251.732 106.726 251.723 107.88 251.473 108.98C251.251 110.098 250.706 111.074 249.853 111.83C248.231 113.443 246.424 114.877 244.522 116.164C240.711 118.733 236.531 120.744 232.206 122.276C227.868 123.788 223.357 124.827 218.777 125.188C214.238 125.525 209.51 125.293 205.344 123.411C204.308 122.941 203.331 122.358 202.451 121.663C201.536 120.983 200.862 120.119 200.366 119.093C199.386 117.063 199.073 114.745 198.983 112.469C198.9 110.185 199.087 107.885 199.456 105.613C199.834 103.347 200.393 101.109 201.253 98.9871C201.697 97.9345 202.187 96.8867 202.891 96.0121C203.579 95.1642 204.556 94.45 205.612 94.1603C206.68 93.8528 207.816 94.2621 208.628 95.0264C209.445 95.7817 210.072 96.7779 210.507 97.8019C210.541 97.8858 210.642 97.9244 210.726 97.8904C210.801 97.8886 210.843 97.803 210.815 97.7102Z" fill="#1F2B3D"/>
<path d="M210.324 118.155C210.324 118.155 208.107 91.5045 215.469 87.3863C220.262 84.7048 222.723 94.5811 222.723 94.5811" fill="white"/>
<path d="M210.481 118.143C211.419 114.424 211.959 110.802 212.433 107.226C212.714 105.447 212.866 103.674 213.162 101.929C213.383 100.187 213.662 98.4691 213.946 96.804C214.197 95.1308 214.657 93.5404 215.11 92.1196C215.348 91.4104 215.634 90.7819 215.959 90.2898C216.26 89.7952 216.584 89.4024 216.878 89.2147C217.01 89.1241 217.087 89.061 217.195 89.0293C217.308 88.9888 217.494 88.97 217.736 89.0609C218.241 89.2071 218.817 89.7343 219.399 90.2906C220.541 91.4766 221.552 93.0277 222.564 94.6168L222.597 94.6628C222.645 94.7435 222.748 94.7587 222.814 94.7134C222.874 94.6769 222.896 94.6034 222.889 94.5364C222.428 92.748 221.792 90.9985 220.83 89.3908C220.339 88.593 219.749 87.8325 218.954 87.2781C218.556 87.0009 218.096 86.7836 217.603 86.6955C217.111 86.6074 216.589 86.663 216.125 86.8049C215.186 87.1066 214.394 87.7261 213.78 88.4585C213.165 89.1908 212.694 90.0134 212.313 90.8689C211.543 92.5743 211.084 94.3778 210.71 96.1852C210.028 99.8161 209.822 103.5 209.751 107.17C209.688 110.845 209.821 114.507 210.152 118.171C210.157 118.261 210.24 118.326 210.33 118.321C210.397 118.314 210.455 118.263 210.471 118.198L210.481 118.143Z" fill="#1F2B3D"/>
<path d="M221.67 117.051C221.67 117.051 219.356 90.5748 226.718 86.4566C232.027 83.4918 233.665 93.9182 233.665 93.9182" fill="white"/>
<path d="M221.842 117.035C222.797 113.29 223.328 109.663 223.801 106.086C224.041 104.293 224.241 102.525 224.499 100.782C224.719 99.039 224.999 97.3213 225.25 95.6481C225.533 93.9829 225.938 92.3822 226.394 90.9759C226.626 90.2756 226.966 89.6809 227.241 89.1695C227.384 88.9238 227.543 88.7129 227.708 88.531C227.859 88.3524 228.118 88.218 228.277 88.1063C228.603 87.9646 228.742 87.7658 229.246 87.9734C229.718 88.1729 230.293 88.7001 230.807 89.3251C231.829 90.6219 232.708 92.2637 233.511 93.9451L233.529 93.9943C233.569 94.0694 233.669 94.108 233.744 94.0683C233.814 94.0375 233.844 93.9697 233.828 93.897C233.518 92.0672 233.039 90.2674 232.198 88.5869C231.767 87.7526 231.235 86.9412 230.453 86.3456C229.694 85.7145 228.574 85.5151 227.628 85.7877C226.682 86.0603 225.854 86.6193 225.204 87.3291C224.554 88.0389 224.074 88.8558 223.661 89.7033C222.867 91.4064 222.379 93.2163 222.015 95.0294C221.312 98.6724 221.115 102.362 221.061 106.043C221.007 109.724 221.152 113.406 221.507 117.072C221.512 117.162 221.595 117.228 221.686 117.223C221.753 117.215 221.81 117.164 221.826 117.1L221.842 117.035Z" fill="#1F2B3D"/>
<path d="M232.633 112.349C232.633 112.349 231.012 89.3176 237.69 86.9467C245.743 84.0773 244.79 106.311 244.79 106.311" fill="white"/>
<path d="M232.799 112.342C233.745 108.118 234.356 103.992 235.083 100.016C235.517 98.0348 235.808 96.0628 236.398 94.268C236.656 93.3715 236.925 92.4951 237.258 91.7341C237.585 90.982 238.009 90.3533 238.32 90.0396C238.466 89.8698 238.583 89.7825 238.644 89.7461C238.649 89.7372 238.788 89.6756 238.861 89.6594C238.939 89.6342 239.012 89.618 239.041 89.6115C239.122 89.6009 239.09 89.5928 239.137 89.5976C239.178 89.6113 239.317 89.687 239.505 89.8434C239.886 90.1852 240.317 90.8821 240.667 91.6656C241.007 92.4668 241.348 93.3439 241.646 94.2687C242.794 98.0012 243.562 102.116 244.612 106.298L244.621 106.341C244.641 106.428 244.73 106.485 244.823 106.456C244.895 106.44 244.94 106.369 244.942 106.308C245.072 102.114 244.962 97.9053 244.193 93.7525C243.773 91.7032 243.251 89.5773 241.886 87.8386C241.215 86.9893 240.111 86.3135 238.95 86.3749C237.82 86.4064 236.701 86.8932 235.94 87.7193C234.427 89.3774 233.827 91.5024 233.336 93.5344C232.875 95.5979 232.618 97.6917 232.461 99.7862C232.162 103.972 232.193 108.168 232.466 112.355C232.471 112.446 232.554 112.511 232.645 112.506C232.721 112.504 232.778 112.453 232.791 112.374L232.799 112.342Z" fill="#1F2B3D"/>
</svg>
