<svg width="243" height="194" viewBox="0 0 243 194" fill="none" xmlns="http://www.w3.org/2000/svg">
<path d="M22.4502 70.95C22.4502 70.95 25.3602 81.35 47.4502 77.67C69.5302 73.99 188.5 76.22 201.53 83.25C214.56 90.28 234.2 78.56 224.28 71.44C214.36 64.32 95.3502 53.62 74.8602 56.65C54.3502 59.69 22.4502 70.95 22.4502 70.95Z" fill="#1F2B3D"/>
<path d="M111.48 56.5C167.54 57.54 203.33 72.42 211.45 106.59C220.15 143.17 181.61 161.77 118.83 161C57.8402 160.25 33.7502 143.63 30.0502 121.65C24.4702 74.18 70.7802 55.36 111.48 56.5Z" fill="white"/>
<path d="M111.49 56.25C116.39 56.34 121.29 56.5 126.18 56.8C131.08 57.06 135.96 57.47 140.85 57.99C150.6 59.09 160.37 60.7 169.85 63.66C174.59 65.14 179.25 66.94 183.73 69.2C188.18 71.5 192.47 74.23 196.33 77.53C200.18 80.84 203.66 84.65 206.41 88.97C209.16 93.28 211.31 97.98 212.71 102.87C214.09 107.74 214.93 112.89 214.58 118.06C214.4 120.64 213.96 123.21 213.23 125.69C212.48 128.17 211.45 130.56 210.16 132.78C207.56 137.23 203.96 140.97 199.95 143.98C195.93 147.01 191.49 149.34 186.96 151.32C177.83 155.2 168.2 157.55 158.51 159.19C148.8 160.79 139 161.7 129.17 162.14C124.26 162.36 119.34 162.42 114.42 162.42C109.5 162.4 104.57 162.31 99.6504 162.03C89.8004 161.47 79.9304 160.26 70.2404 157.91C65.4004 156.72 60.6004 155.24 55.9304 153.32C51.2604 151.41 46.7304 149.01 42.5704 145.94C40.5104 144.38 38.5104 142.71 36.7304 140.78C34.9304 138.87 33.3404 136.76 31.9704 134.49C30.5904 132.23 29.5204 129.78 28.7004 127.27C27.9004 124.8 27.3104 122.05 27.1604 119.49C26.7804 114.42 26.9504 109.26 27.8604 104.2C28.7704 99.14 30.3904 94.17 32.8404 89.64C35.2604 85.09 38.4004 80.95 42.0604 77.42C45.7004 73.85 49.8304 70.87 54.1904 68.39C62.9204 63.41 72.5004 60.39 82.1604 58.52C87.0104 57.62 91.8804 56.94 96.7804 56.6C101.67 56.22 106.59 56.07 111.49 56.25ZM111.47 56.75C106.58 56.66 101.69 56.82 96.8404 57.33C91.9904 57.87 87.1704 58.66 82.4504 59.86C73.0204 62.2 63.9104 65.94 55.9404 71.22C51.9604 73.87 48.3104 76.94 45.1004 80.38C41.9204 83.84 39.2004 87.68 37.1404 91.84C35.1004 96.01 33.6504 100.45 32.9104 105.05C32.1604 109.64 32.0604 114.35 32.4804 119.03C32.6204 121.36 33.0804 123.43 33.7704 125.61C34.4604 127.75 35.3604 129.82 36.5304 131.75C38.8504 135.61 41.9904 139 45.6604 141.81C49.3304 144.63 53.4704 146.94 57.8204 148.81C62.1704 150.7 66.7204 152.2 71.3704 153.43C80.6704 155.85 90.2704 157.34 99.9404 158.29C104.77 158.81 109.63 159.14 114.5 159.39C119.37 159.65 124.24 159.76 129.12 159.74C138.87 159.72 148.63 159.16 158.26 157.63C163.07 156.87 167.85 155.91 172.54 154.58C174.88 153.93 177.21 153.21 179.49 152.4C181.77 151.57 184.01 150.65 186.21 149.62C190.6 147.59 194.76 145.08 198.42 142.02C202.08 138.97 205.22 135.34 207.37 131.21C208.44 129.15 209.26 126.97 209.82 124.73C210.36 122.49 210.65 120.18 210.7 117.87C210.75 113.24 209.94 108.6 208.53 104.1C205.76 95.11 200.61 86.96 193.51 80.74C190 77.6 186.11 74.84 181.95 72.49C177.82 70.09 173.43 68.08 168.91 66.37C159.86 62.97 150.33 60.68 140.69 59.14C135.86 58.39 131 57.87 126.13 57.44C121.25 57.09 116.37 56.89 111.47 56.75Z" fill="#1F2B3D"/>
<path d="M84.3403 57.31C84.3403 57.31 40.0503 69.81 50.3803 108.46C52.7403 130.14 78.6803 138.62 114.7 135.57C139.51 130.12 152.95 113.67 153.27 95.33C153.43 85.99 152.7 67.02 126.99 59.32C116.9 56.3 104.23 53.19 84.3403 57.31Z" fill="#1F2B3D"/>
<path d="M191.31 62.08C191.31 62.08 172.19 15.72 155.3 6.47001C146.75 1.79001 139.7 6.48001 139.7 6.48001C139.7 6.48001 113.68 -6.85999 97.2603 4.73001C92.4703 8.12001 69.6503 22.92 62.7303 54.2C62.7303 54.2 25.9303 62.82 22.4503 70.95C21.5103 73.14 55.9403 56.82 140.4 63.89C204.93 69.29 228.49 78.92 224.28 71.44C221.77 67 191.31 62.08 191.31 62.08Z" fill="#1F2B3D"/>
<path d="M183.78 43.3C183.78 43.3 147.02 26.67 68.9505 35.48L62.7305 54.2C62.7305 54.2 122.98 47.35 191.31 62.08L183.78 43.3Z" fill="#EDDB00"/>
<path d="M1.44031 160.87C5.63031 148.82 17.4403 144.02 26.4503 141.97C50.9103 136.41 58.6903 141.97 58.6903 141.97L48.3703 175.77C48.3703 175.77 -9.77969 193.09 1.44031 160.87Z" fill="#1F2B3D"/>
<path d="M53.2901 147.21C64.5501 138.6 78.0501 136.58 95.7801 141.2C112.35 145.52 125.19 158.43 126.04 163.53C127.22 170.68 94.3401 150.56 94.3401 150.56C94.3401 150.56 119.3 161.3 120.22 167.7C122.18 181.36 89.2901 159.93 89.2901 159.93C89.2901 159.93 103.99 164.97 109.46 177.22C114.93 189.47 85.2901 171.21 75.6001 167.13C75.6001 167.13 95.4601 179.65 90.0101 184.42C84.5601 189.19 75.9401 176.28 46.3301 176.35" fill="white"/>
<path d="M53.1404 147.01C55.0604 145.4 57.0804 143.87 59.2904 142.61C61.5004 141.36 63.8104 140.26 66.2504 139.47C68.6804 138.68 71.1804 138.04 73.7304 137.74C75.0004 137.52 76.2803 137.48 77.5603 137.36C78.8403 137.34 80.1304 137.23 81.4004 137.31C86.5204 137.46 91.6004 138.18 96.5404 139.42C101.57 140.69 106.4 142.66 110.85 145.29C113.08 146.59 115.22 148.04 117.28 149.62C119.33 151.2 121.29 152.92 123.08 154.85C123.98 155.81 124.84 156.82 125.64 157.92C126.44 159.02 127.2 160.19 127.77 161.66C127.9 162.05 128.04 162.43 128.13 162.9C128.22 163.31 128.34 163.99 128.11 164.86C127.99 165.3 127.72 165.79 127.36 166.16C127 166.53 126.59 166.77 126.23 166.91C125.51 167.18 124.98 167.2 124.51 167.2C123.58 167.18 122.87 167.02 122.17 166.85C121.48 166.67 120.83 166.47 120.21 166.25C117.71 165.34 115.44 164.22 113.17 163.08C110.91 161.93 108.72 160.69 106.55 159.43C102.2 156.91 97.9704 154.26 93.7504 151.55L94.8103 149.51C100.01 152.05 105.1 154.69 110.08 157.62C112.54 159.12 115.01 160.65 117.28 162.52C118.41 163.47 119.5 164.49 120.38 165.85C120.59 166.19 120.78 166.57 120.92 167C120.99 167.2 121.04 167.45 121.07 167.65L121.14 168.24C121.2 169.03 121.19 169.88 120.85 170.75C120.7 171.18 120.41 171.59 120.09 171.95C119.74 172.29 119.34 172.56 118.93 172.75C118.09 173.12 117.25 173.21 116.46 173.23C114.87 173.25 113.38 172.95 111.94 172.58C109.07 171.82 106.35 170.73 103.7 169.56C98.3903 167.18 93.3104 164.47 88.3004 161.49L74.0004 152.98L89.8904 158.18C91.4104 158.68 92.7304 159.24 94.1003 159.87C95.4503 160.5 96.7803 161.18 98.0603 161.95C100.62 163.49 103.07 165.27 105.27 167.39C107.46 169.51 109.44 171.93 110.93 174.69C111.31 175.4 111.64 176.03 111.99 176.86C112.3 177.69 112.65 178.57 112.62 180C112.59 180.71 112.33 181.71 111.61 182.5C110.9 183.28 110.03 183.61 109.39 183.76C108.07 184.03 107.17 183.89 106.3 183.77C104.6 183.49 103.15 183.02 101.72 182.52C100.3 182.01 98.9303 181.46 97.5903 180.88C94.9003 179.73 92.3004 178.47 89.7304 177.18L82.0903 173.27C79.5703 171.99 77.0203 170.66 74.6003 169.58L77.0404 164.91C79.5904 166.59 81.9604 168.31 84.3103 170.21C86.6404 172.13 88.9403 174.09 90.9604 176.68C91.4604 177.33 91.9403 178.04 92.3803 178.85C92.8003 179.66 93.2103 180.59 93.3403 181.8C93.4003 182.4 93.3703 183.09 93.1703 183.78C92.9804 184.46 92.6104 185.11 92.1804 185.6C91.9704 185.86 91.7304 186.07 91.5104 186.26C91.3004 186.43 91.0904 186.59 90.8503 186.75C90.3803 187.05 89.8504 187.31 89.3004 187.48C88.1904 187.83 87.0804 187.82 86.1504 187.69C85.2104 187.56 84.4003 187.32 83.6303 187.06C82.1103 186.52 80.7704 185.9 79.4404 185.31C76.7904 184.1 74.2004 182.97 71.5404 181.96C68.8804 180.95 66.1604 180.12 63.4004 179.41C57.8704 178.02 52.1504 177.18 46.3604 176.83V175.92C52.1904 175.55 58.1203 175.68 63.9804 176.62C66.9104 177.07 69.8103 177.75 72.6703 178.58C75.5303 179.39 78.3304 180.45 81.0404 181.48C82.3904 181.99 83.7304 182.5 84.9804 182.85C86.2204 183.22 87.3604 183.34 87.8704 183.09C88.0104 183.03 88.1403 182.96 88.2703 182.87C88.3403 182.82 88.4104 182.76 88.4804 182.7C88.5304 182.64 88.5704 182.62 88.5804 182.59C88.6304 182.47 88.6103 182.58 88.6003 182.32C88.5403 181.81 87.9004 180.68 87.1104 179.75C85.4704 177.8 83.3404 175.95 81.1404 174.23C78.9403 172.52 76.5704 170.86 74.2304 169.39L76.6703 164.72C79.4903 165.9 82.0003 167.22 84.5603 168.53L92.1504 172.43C94.6804 173.7 97.2004 174.96 99.7304 176.11C100.99 176.68 102.26 177.22 103.52 177.7C104.77 178.17 106.05 178.59 107.16 178.79C107.69 178.89 108.24 178.9 108.32 178.87C108.36 178.86 108.18 178.89 107.95 179.14C107.72 179.4 107.68 179.68 107.69 179.68C107.71 179.68 107.64 179.16 107.44 178.66C107.25 178.16 106.95 177.52 106.67 176.96C105.53 174.66 103.93 172.54 102.09 170.64C100.24 168.74 98.1304 167.03 95.8604 165.54C93.6203 164.06 91.1404 162.68 88.7304 161.69L90.3403 158.39C94.9903 161.56 99.8503 164.59 104.86 167.18C107.37 168.46 109.94 169.65 112.57 170.5C113.88 170.92 115.22 171.24 116.49 171.3C117.12 171.32 117.74 171.27 118.22 171.07C118.7 170.87 119.03 170.57 119.23 170.09C119.44 169.63 119.49 169.01 119.46 168.38L119.42 167.9C119.4 167.75 119.39 167.65 119.34 167.51C119.27 167.25 119.15 166.98 118.99 166.71C118.37 165.62 117.34 164.65 116.3 163.74C114.17 161.94 111.78 160.39 109.31 158.98C106.85 157.56 104.32 156.24 101.74 155.04C99.1703 153.82 96.5404 152.67 93.9104 151.65L94.9704 149.61C99.2704 152.06 103.69 154.37 108.12 156.57C110.34 157.67 112.57 158.72 114.81 159.72C117.04 160.71 119.32 161.65 121.54 162.35C122.09 162.52 122.64 162.68 123.16 162.79C123.67 162.9 124.19 162.97 124.51 162.96C124.66 162.96 124.76 162.91 124.62 162.96C124.55 162.98 124.41 163.05 124.27 163.2C124.12 163.34 124.01 163.56 123.97 163.69C123.89 163.96 123.96 164 123.89 163.81C123.86 163.67 123.78 163.46 123.71 163.27C123.34 162.43 122.76 161.48 122.08 160.57C121.4 159.66 120.64 158.78 119.83 157.92C116.57 154.52 112.77 151.49 108.67 149C104.56 146.53 100.18 144.46 95.5804 143.15C90.8904 141.82 86.1104 140.82 81.2803 140.45C76.4503 140.01 71.5803 140.35 66.8503 141.46C64.4804 142.02 62.1903 142.87 59.9403 143.84C57.7104 144.85 55.5604 146.08 53.4804 147.43L53.1404 147.01Z" fill="#1F2B3D"/>
<path d="M241.01 163.65C236.81 151.6 222.73 144.11 209.33 143.08C187.65 141.41 179.87 147.53 179.87 147.53L194.61 180.78C194.6 180.77 252.23 195.87 241.01 163.65Z" fill="#1F2B3D"/>
<path d="M198.211 154.2C182.091 143.64 164.961 145.03 158.311 146.76C141.741 151.08 128.901 163.99 128.051 169.09C126.871 176.24 159.751 156.12 159.751 156.12C159.751 156.12 134.791 166.86 133.871 173.26C131.911 186.92 164.801 165.49 164.801 165.49C164.801 165.49 150.101 170.53 144.631 182.78C139.161 195.03 168.801 176.77 178.491 172.69C178.491 172.69 158.631 185.21 164.081 189.98C169.531 194.75 171.941 181.36 201.551 181.43" fill="white"/>
<path d="M198.07 154.41C189.62 149.65 180.11 147.19 170.66 147.19C165.94 147.19 161.23 147.72 156.87 149.2C152.43 150.66 148.21 152.77 144.26 155.28C140.33 157.81 136.66 160.83 133.59 164.21C132.83 165.06 132.12 165.94 131.52 166.83C131.22 167.28 130.94 167.73 130.72 168.16C130.48 168.59 130.3 169.02 130.23 169.32L130.2 169.43C130.2 169.44 130.19 169.46 130.2 169.44C130.2 169.44 130.2 169.38 130.17 169.25C130.14 169.13 130.06 168.93 129.92 168.78C129.79 168.62 129.63 168.53 129.55 168.49C129.37 168.42 129.44 168.47 129.57 168.48C129.7 168.49 129.91 168.48 130.13 168.46C131.04 168.35 132.16 168.03 133.23 167.66C135.42 166.94 137.62 166 139.8 165.02C141.98 164.03 144.16 163 146.32 161.93C150.64 159.77 154.94 157.52 159.14 155.13L160.2 157.17C157.57 158.2 154.94 159.34 152.37 160.57C149.78 161.77 147.26 163.09 144.8 164.51C142.34 165.92 139.94 167.47 137.81 169.27C136.77 170.17 135.74 171.14 135.12 172.24C134.96 172.51 134.85 172.78 134.77 173.04C134.73 173.18 134.71 173.28 134.69 173.43L134.65 173.91C134.62 174.54 134.67 175.16 134.88 175.62C135.08 176.09 135.41 176.4 135.89 176.6C136.37 176.8 136.99 176.86 137.62 176.83C138.89 176.78 140.24 176.45 141.54 176.03C144.17 175.18 146.73 173.99 149.25 172.71C154.26 170.12 159.12 167.09 163.77 163.92L165.38 167.22C162.98 168.21 160.5 169.59 158.25 171.07C155.98 172.56 153.88 174.27 152.02 176.17C150.18 178.08 148.58 180.19 147.44 182.49C147.16 183.05 146.86 183.69 146.67 184.19C146.47 184.69 146.4 185.21 146.42 185.21C146.43 185.21 146.39 184.92 146.16 184.67C145.93 184.42 145.75 184.39 145.79 184.4C145.87 184.43 146.42 184.42 146.95 184.31C148.06 184.11 149.34 183.69 150.59 183.22C151.85 182.74 153.12 182.2 154.38 181.63C156.91 180.48 159.43 179.22 161.96 177.95L169.55 174.05C172.11 172.74 174.62 171.42 177.44 170.24L179.88 174.91C177.74 176.26 175.56 177.77 173.52 179.33C171.48 180.89 169.5 182.56 167.84 184.32C167.02 185.19 166.27 186.12 165.84 186.95C165.63 187.36 165.52 187.73 165.5 187.9C165.51 188.07 165.46 187.99 165.53 188.11C165.55 188.14 165.57 188.16 165.63 188.22C165.71 188.29 165.78 188.36 165.85 188.41C165.99 188.52 166.11 188.59 166.19 188.63C166.35 188.7 166.41 188.74 166.77 188.67C167.48 188.53 168.68 187.88 169.82 187.25C172.15 185.95 174.68 184.63 177.29 183.68C179.91 182.72 182.6 182.01 185.3 181.54C190.72 180.6 196.17 180.56 201.53 180.95V181.86C196.22 182.23 190.96 183 185.95 184.4C183.45 185.1 181.01 185.97 178.71 187.07C176.38 188.15 174.23 189.44 172.01 190.91C170.85 191.62 169.78 192.47 167.91 193.04C166.98 193.32 165.65 193.37 164.56 192.94C164.02 192.74 163.55 192.48 163.15 192.2C162.95 192.06 162.76 191.92 162.59 191.77C162.4 191.61 162.17 191.41 161.98 191.18C161.14 190.3 160.67 188.85 160.74 187.7C160.79 186.53 161.13 185.62 161.5 184.83C162.26 183.27 163.2 182.09 164.16 180.98C166.11 178.8 168.22 177 170.37 175.27C172.54 173.55 174.72 171.97 177.07 170.43L179.51 175.1C177.09 176.18 174.54 177.51 172.02 178.79L164.38 182.7C161.81 184 159.21 185.25 156.52 186.4C155.17 186.98 153.81 187.53 152.39 188.04C150.96 188.54 149.51 189.01 147.81 189.29C146.94 189.4 146.04 189.55 144.72 189.28C144.07 189.13 143.21 188.8 142.5 188.02C141.78 187.24 141.52 186.23 141.49 185.52C141.45 184.09 141.81 183.21 142.12 182.38C142.46 181.55 142.8 180.92 143.18 180.21C144.67 177.45 146.65 175.02 148.84 172.91C151.03 170.79 153.49 169.01 156.05 167.47C157.33 166.7 158.66 166.01 160.01 165.39C161.38 164.76 162.7 164.2 164.22 163.7L180.12 158.5L165.84 167C160.83 169.98 155.75 172.69 150.44 175.07C147.78 176.25 145.07 177.33 142.2 178.09C140.76 178.46 139.28 178.75 137.68 178.74C136.89 178.72 136.05 178.62 135.21 178.26C134.79 178.08 134.39 177.8 134.05 177.46C133.72 177.11 133.44 176.7 133.29 176.26C132.95 175.39 132.94 174.54 133 173.75L133.07 173.16C133.1 172.96 133.15 172.71 133.22 172.51C133.36 172.09 133.55 171.71 133.76 171.36C134.63 170 135.73 168.98 136.86 168.03C139.14 166.16 141.6 164.63 144.06 163.13C149.04 160.2 154.13 157.56 159.33 155.02L160.39 157.06C156.27 159.7 152.14 162.29 147.9 164.76C143.65 167.22 139.39 169.6 134.65 171.5C133.44 171.95 132.22 172.38 130.73 172.62C130.35 172.68 129.95 172.72 129.48 172.71C129.01 172.69 128.46 172.67 127.73 172.34C127.37 172.17 126.97 171.9 126.64 171.51C126.31 171.12 126.09 170.64 125.99 170.22C125.89 169.8 125.88 169.43 125.9 169.13C125.91 168.97 125.93 168.84 125.95 168.69L126.02 168.36C126.21 167.47 126.5 166.78 126.82 166.13C127.13 165.47 127.5 164.9 127.87 164.32C128.62 163.19 129.44 162.18 130.29 161.21C133.69 157.33 137.73 154.25 142 151.58C146.28 148.92 150.92 146.83 155.77 145.43C156.98 145.09 158.21 144.75 159.49 144.52C160.75 144.28 162.01 144.14 163.27 144.03C165.79 143.82 168.3 143.81 170.8 143.95C180.78 144.58 190.56 148.01 198.38 153.94L198.07 154.41Z" fill="#1F2B3D"/>
</svg>
