<svg width="138" height="150" viewBox="0 0 138 150" fill="none" xmlns="http://www.w3.org/2000/svg">
<rect width="73.3574" height="73.1849" rx="26" transform="matrix(0.98488 -0.173236 0.174061 0.984735 53.0127 12.7083)" fill="#FED602"/>
<path fill-rule="evenodd" clip-rule="evenodd" d="M81.398 22.633L28.8265 31.9023C12.9055 34.7094 2.26922 49.8535 5.06809 65.7258L11.6268 102.92C13.8461 115.506 23.8541 124.744 35.8409 126.641L40.2763 146.413L62.9435 123.506L98.0929 117.309C114.014 114.502 124.653 99.3573 121.854 83.485L115.295 46.2909C112.496 30.4186 97.319 19.8258 81.398 22.633Z" fill="#4F5FFF"/>
<path fill-rule="evenodd" clip-rule="evenodd" d="M84.8178 86.8611L47.505 93.4238C39.4477 94.841 31.7579 89.4752 30.3362 81.4321C28.9144 73.3891 34.2948 65.7245 42.3579 64.3063L79.6707 57.7435C87.728 56.3264 95.4178 61.6922 96.8395 69.7352C98.2613 77.7782 92.875 85.4439 84.8178 86.8611ZM79.434 48.8533L39.532 55.8714C26.6747 58.1328 18.0905 70.3616 20.3576 83.1868C22.6247 96.0119 34.8841 104.575 47.7415 102.313L87.6435 95.2951C100.507 93.0326 109.085 80.8049 106.818 67.9797C104.551 55.1546 92.2973 46.5908 79.434 48.8533Z" fill="white"/>
<path fill-rule="evenodd" clip-rule="evenodd" d="M43.4157 73.526C46.2709 73.0238 48.9968 74.9279 49.5003 77.7761C50.0037 80.6243 48.0951 83.3435 45.2399 83.8457C42.3846 84.3479 39.6587 82.4438 39.1553 79.5956C38.6518 76.7474 40.5604 74.0282 43.4157 73.526Z" fill="white"/>
<path fill-rule="evenodd" clip-rule="evenodd" d="M81.8395 66.7675C84.6947 66.2653 87.4206 68.1693 87.9241 71.0175C88.4276 73.8658 86.5189 76.5849 83.6637 77.0871C80.8085 77.5893 78.0826 75.6853 77.5791 72.8371C77.0756 69.9888 78.9843 67.2697 81.8395 66.7675Z" fill="white"/>
</svg>
