<svg width="74" height="71" viewBox="0 0 74 71" fill="none" xmlns="http://www.w3.org/2000/svg">
<rect x="0.5" width="39" height="39" rx="14" fill="#FED602"/>
<path fill-rule="evenodd" clip-rule="evenodd" d="M29.3591 9H57.6578C66.2279 9 73.1748 16.0284 73.1748 24.6974V45.0115C73.1748 51.8854 68.8005 57.7138 62.7173 59.838L62.222 70.7251L48.2796 60.7088H29.3591C20.789 60.7088 13.8407 53.6804 13.8407 45.0115V24.6974C13.8407 16.0284 20.789 9 29.3591 9Z" fill="#F37C18"/>
<path d="M38.5352 37.3026V40.1769L28.318 35.7487V33.2909L38.5352 28.8628V31.7573L31.4156 34.4995L38.5352 37.3026ZM46.5163 28.8019L43.6726 40.512C43.5778 40.898 43.4932 41.2026 43.4187 41.4261C43.351 41.6495 43.2426 41.8222 43.0937 41.9441C42.9515 42.0727 42.7416 42.137 42.464 42.137C41.7734 42.137 41.4281 41.8391 41.4281 41.2433C41.4281 41.0875 41.4958 40.6982 41.6312 40.0753L44.4648 28.3651C44.6137 27.7422 44.7559 27.3157 44.8913 27.0855C45.0268 26.8553 45.2908 26.7401 45.6835 26.7401C46.0221 26.7401 46.2794 26.8214 46.4554 26.9839C46.6382 27.1464 46.7296 27.3698 46.7296 27.6542C46.7296 27.8641 46.6585 28.2467 46.5163 28.8019ZM59.8397 35.7487L49.6225 40.1972V37.323L56.7624 34.5198L49.6225 31.7573V28.9034L59.8397 33.3112V35.7487Z" fill="white"/>
</svg>
