<svg width="190" height="158" viewBox="0 0 190 158" fill="none" xmlns="http://www.w3.org/2000/svg">
<path fill-rule="evenodd" clip-rule="evenodd" d="M21.1994 9.08978L7.04631 13.6885C3.1547 14.953 1.0228 19.126 2.28452 23.0092L6.87316 37.1319C8.13488 41.0151 12.3124 43.138 16.204 41.8735L30.3571 37.2748C34.2487 36.0103 36.3806 31.8373 35.1189 27.9541L30.5303 13.8314C29.2685 9.94817 25.091 7.82529 21.1994 9.08978Z" fill="#FED602"/>
<path fill-rule="evenodd" clip-rule="evenodd" d="M180.115 30.6252L171.481 33.4305C169.107 34.2019 167.807 36.7475 168.576 39.1164L171.375 47.7318C172.145 50.1007 174.694 51.3957 177.068 50.6243L185.701 47.8189C188.075 47.0476 189.376 44.5019 188.606 42.133L185.807 33.5177C185.037 31.1488 182.489 29.8538 180.115 30.6252Z" fill="#FED602"/>
<path fill-rule="evenodd" clip-rule="evenodd" d="M115.942 9.92957L60.2149 28.0367C43.3383 33.5203 34.0991 51.6333 39.5765 68.4914L52.412 107.996C56.7552 121.363 69.0519 129.898 82.3733 130.137L90.2278 150.992L111.355 122.592L148.614 110.486C165.49 105.002 174.732 86.8884 169.255 70.0303L156.419 30.5261C150.942 13.6679 132.818 4.44592 115.942 9.92957Z" fill="#08C5A6"/>
<mask id="mask0" mask-type="alpha" maskUnits="userSpaceOnUse" x="60" y="33" width="68" height="65">
<path fill-rule="evenodd" clip-rule="evenodd" d="M60.3857 49.9556L112.022 33.1776L127.579 81.059L75.943 97.837L60.3857 49.9556Z" fill="white"/>
</mask>
<g mask="url(#mask0)">
<path fill-rule="evenodd" clip-rule="evenodd" d="M91.1994 55.2696C89.2965 55.8879 87.2684 54.8901 86.6661 53.0366C86.065 51.1863 87.1182 49.1836 89.0211 48.5653C90.9275 47.9458 92.9568 48.947 93.558 50.7972C94.1626 52.6463 93.1058 54.6501 91.1994 55.2696ZM113.537 65.2031C117.433 61.7217 113.155 46.2491 109.013 42.6282C103.603 37.9019 87.3294 44.4917 83.432 50.3927C83.5047 52.6714 84.7957 56.4298 85.7999 59.4248L102.309 54.0606L102.766 55.4671L86.2604 60.8301C86.267 60.8506 78.9262 63.2622 78.9262 63.2622C66.2549 67.3794 75.212 94.0507 91.9314 88.6181C91.9314 88.6181 90.6203 82.4922 90.7297 79.1732C91.0696 68.9293 107.13 70.9307 113.537 65.2031Z" fill="white"/>
</g>
<mask id="mask1" mask-type="alpha" maskUnits="userSpaceOnUse" x="78" y="40" width="71" height="69">
<path fill-rule="evenodd" clip-rule="evenodd" d="M78.5312 58.267L132.09 40.8644L148.506 91.3901L94.9477 108.793L78.5312 58.267Z" fill="white"/>
</mask>
<g mask="url(#mask1)">
<path fill-rule="evenodd" clip-rule="evenodd" d="M115.946 85.4242C117.855 84.8037 119.916 85.872 120.548 87.8163C121.178 89.7572 120.139 91.8328 118.229 92.4532C116.32 93.0737 114.263 92.0043 113.632 90.0634C113 88.1191 114.036 86.0446 115.946 85.4242ZM115.379 51.0501C115.379 51.0501 116.96 57.4133 116.893 60.8753C116.686 71.5683 100.478 69.2654 94.0934 75.1641C90.2174 78.7474 94.7287 94.9702 98.9551 98.8068C104.468 103.821 120.781 97.1547 124.632 91.0378C124.53 88.6601 123.178 84.7167 122.126 81.5745L105.556 86.9585L105.077 85.4833L121.64 80.1016C121.633 80.08 129.788 77.4025 129.788 77.4025C141.506 73.5949 133.436 45.183 115.379 51.0501Z" fill="white"/>
</g>
</svg>
