<svg width="90" height="90" viewBox="0 0 90 90" fill="none" xmlns="http://www.w3.org/2000/svg">
<rect width="90" height="90" fill="white"/>
<rect x="9" y="10" width="39" height="39" rx="14" fill="#FED602"/>
<path fill-rule="evenodd" clip-rule="evenodd" d="M37.8591 19H66.1578C74.7279 19 81.6748 26.0284 81.6748 34.6974V55.0115C81.6748 61.8854 77.3005 67.7138 71.2173 69.838L70.722 80.7251L56.7796 70.7088H37.8591C29.289 70.7088 22.3407 63.6804 22.3407 55.0115V34.6974C22.3407 26.0284 29.289 19 37.8591 19Z" fill="#08B69A"/>
<mask id="mask0" mask-type="alpha" maskUnits="userSpaceOnUse" x="34" y="28" width="28" height="26">
<path fill-rule="evenodd" clip-rule="evenodd" d="M34.7402 28.6995H61.0482V53.0938H34.7402V28.6995Z" fill="white"/>
</mask>
<g mask="url(#mask0)">
<path fill-rule="evenodd" clip-rule="evenodd" d="M48.1443 35.762C47.1747 35.762 46.3895 34.9985 46.3895 34.0542C46.3895 33.1115 47.1747 32.3462 48.1443 32.3462C49.1156 32.3462 49.9009 33.1115 49.9009 34.0542C49.9026 34.9968 49.1156 35.762 48.1443 35.762ZM56.9506 43.6842C59.2671 42.6632 59.6123 34.8925 58.2457 32.6036C56.4604 29.6157 47.9743 30.2157 45.2947 32.3514C44.987 33.4124 45.0192 35.3376 45.0335 36.8682H53.4445V37.5847H45.0353C45.0353 37.5952 41.2913 37.6073 41.2913 37.6073C34.8355 37.6073 34.9697 51.2393 43.488 51.2393C43.488 51.2393 43.801 48.22 44.3484 46.7069C46.0388 42.0371 53.1404 45.3642 56.9506 43.6842Z" fill="white"/>
</g>
<mask id="mask1" mask-type="alpha" maskUnits="userSpaceOnUse" x="41" y="35" width="29" height="26">
<path fill-rule="evenodd" clip-rule="evenodd" d="M41.8574 35.2466H69.1447V60.9882H41.8574V35.2466Z" fill="white"/>
</mask>
<g mask="url(#mask1)">
<path fill-rule="evenodd" clip-rule="evenodd" d="M55.0323 53.3633C56.0052 53.3633 56.795 54.1642 56.795 55.1548C56.795 56.1437 56.0052 56.9446 55.0323 56.9446C54.0594 56.9446 53.2714 56.1437 53.2714 55.1548C53.2714 54.1642 54.0594 53.3633 55.0323 53.3633ZM59.9185 37.4382C59.9185 37.4382 59.6941 40.6072 59.1448 42.1926C57.4485 47.0892 50.324 43.601 46.4987 45.3634C44.176 46.4343 43.8259 54.5857 45.1991 56.9865C46.9888 60.1227 55.5045 59.4932 58.1952 57.2511C58.5039 56.14 58.4717 54.1204 58.4573 52.5149H50.0152V51.7633H58.4537C58.4537 51.7523 62.6128 51.7396 62.6128 51.7396C68.5831 51.7396 69.118 37.4382 59.9185 37.4382Z" fill="white"/>
</g>
</svg>
