<?xml version="1.0" encoding="utf-8"?>
<!-- Generator: Adobe Illustrator 23.0.1, SVG Export Plug-In . SVG Version: 6.00 Build 0)  -->
<svg version="1.1" id="圖層_1" xmlns="http://www.w3.org/2000/svg" xmlns:xlink="http://www.w3.org/1999/xlink" x="0px" y="0px"
	 viewBox="0 0 90 90" style="enable-background:new 0 0 90 90;" xml:space="preserve">
<style type="text/css">
	.st0{fill-rule:evenodd;clip-rule:evenodd;fill:#FED602;}
	.st1{fill-rule:evenodd;clip-rule:evenodd;fill:#DF7A25;}
	.st2{fill-rule:evenodd;clip-rule:evenodd;fill:#FFFFFF;filter:url(#Adobe_OpacityMaskFilter);}
	.st3{mask:url(#mask0_1_);}
	.st4{fill-rule:evenodd;clip-rule:evenodd;fill:#FFFFFF;}
	.st5{fill-rule:evenodd;clip-rule:evenodd;fill:#FFFFFF;filter:url(#Adobe_OpacityMaskFilter_1_);}
	.st6{mask:url(#mask1_1_);}
</style>
<path class="st0" d="M14.3,7H7.1c-2,0-3.6,1.6-3.6,3.6v7.2c0,2,1.6,3.6,3.6,3.6h7.2c2,0,3.6-1.6,3.6-3.6v-7.2
	C17.9,8.6,16.3,7,14.3,7z"/>
<path class="st0" d="M84.3,40.7h-4.4c-1.2,0-2.2,1-2.2,2.2v4.4c0,1.2,1,2.2,2.2,2.2h4.4c1.2,0,2.2-1,2.2-2.2v-4.4
	C86.5,41.7,85.5,40.7,84.3,40.7z"/>
<path class="st1" d="M57.8,21.6H29.4c-8.6,0-15.6,7-15.6,15.6v20.1c0,6.8,4.4,12.6,10.5,14.7l0.5,10.8l14-9.9h19
	c8.6,0,15.6-7,15.6-15.6V37.1C73.4,28.5,66.4,21.6,57.8,21.6z"/>
<defs>
	<filter id="Adobe_OpacityMaskFilter" filterUnits="userSpaceOnUse" x="28.2" y="33.6" width="22.3" height="20.7">
		<feColorMatrix  type="matrix" values="1 0 0 0 0  0 1 0 0 0  0 0 1 0 0  0 0 0 1 0"/>
	</filter>
</defs>
<mask maskUnits="userSpaceOnUse" x="28.2" y="33.6" width="22.3" height="20.7" id="mask0_1_">
	<path class="st2" d="M26.2,31.7h26.3v24.4H26.2V31.7z"/>
</mask>
<g class="st3">
	<path class="st4" d="M39.6,38.8c-1,0-1.8-0.8-1.8-1.7c0-0.9,0.8-1.7,1.8-1.7c1,0,1.8,0.8,1.8,1.7C41.4,38,40.6,38.8,39.6,38.8z
		 M48.5,46.7c2.3-1,2.7-8.8,1.3-11.1c-1.8-3-10.3-2.4-13-0.3c-0.3,1.1-0.3,3-0.3,4.5h8.4v0.7h-8.4c0,0-3.7,0-3.7,0
		c-6.5,0-6.3,13.6,2.2,13.6c0,0,0.3-3,0.9-4.5C37.5,45,44.6,48.4,48.5,46.7z"/>
</g>
<defs>
	<filter id="Adobe_OpacityMaskFilter_1_" filterUnits="userSpaceOnUse" x="35.9" y="40.4" width="22.6" height="21.7">
		<feColorMatrix  type="matrix" values="1 0 0 0 0  0 1 0 0 0  0 0 1 0 0  0 0 0 1 0"/>
	</filter>
</defs>
<mask maskUnits="userSpaceOnUse" x="35.9" y="40.4" width="22.6" height="21.7" id="mask1_1_">
	<path class="st5" d="M33.4,38.2h27.3V64H33.4V38.2z"/>
</mask>
<g class="st6">
	<path class="st4" d="M46.5,56.4c1,0,1.8,0.8,1.8,1.8c0,1-0.8,1.8-1.8,1.8s-1.8-0.8-1.8-1.8C44.8,57.2,45.6,56.4,46.5,56.4z
		 M51.4,40.4c0,0-0.2,3.2-0.8,4.8c-1.7,4.9-8.8,1.4-12.6,3.2c-2.3,1.1-2.7,9.2-1.3,11.6c1.8,3.1,10.3,2.5,13,0.3
		c0.3-1.1,0.3-3.1,0.3-4.7h-8.4v-0.8H50c0,0,4.2,0,4.2,0C60.1,54.7,60.6,40.4,51.4,40.4z"/>
</g>
</svg>
