<svg width="90" height="90" viewBox="0 0 90 90" fill="none" xmlns="http://www.w3.org/2000/svg">
<rect x="41" y="10" width="39" height="39" rx="14" fill="#FED602"/>
<path fill-rule="evenodd" clip-rule="evenodd" d="M54.9423 19.573H26.5618C17.967 19.573 11 26.5365 11 35.1253V55.2517C11 62.062 15.3869 67.8365 21.4877 69.9412L21.9845 80.7276L35.9671 70.8039H54.9423C63.5372 70.8039 70.5055 63.8405 70.5055 55.2517V35.1253C70.5055 26.5365 63.5372 19.573 54.9423 19.573Z" fill="#4F5FFF"/>
<mask id="mask0" mask-type="alpha" maskUnits="userSpaceOnUse" x="23" y="28" width="28" height="26">
<path fill-rule="evenodd" clip-rule="evenodd" d="M23.7402 28.6995H50.0482V53.0938H23.7402V28.6995Z" fill="white"/>
</mask>
<g mask="url(#mask0)">
<path fill-rule="evenodd" clip-rule="evenodd" d="M37.1443 35.762C36.1747 35.762 35.3895 34.9985 35.3895 34.0542C35.3895 33.1115 36.1747 32.3462 37.1443 32.3462C38.1156 32.3462 38.9009 33.1115 38.9009 34.0542C38.9026 34.9968 38.1156 35.762 37.1443 35.762ZM45.9506 43.6842C48.2671 42.6632 48.6123 34.8925 47.2457 32.6036C45.4604 29.6157 36.9743 30.2157 34.2947 32.3514C33.987 33.4124 34.0192 35.3376 34.0335 36.8682H42.4445V37.5847H34.0353C34.0353 37.5952 30.2913 37.6073 30.2913 37.6073C23.8355 37.6073 23.9697 51.2393 32.488 51.2393C32.488 51.2393 32.801 48.22 33.3484 46.7069C35.0388 42.0371 42.1404 45.3642 45.9506 43.6842Z" fill="white"/>
</g>
<mask id="mask1" mask-type="alpha" maskUnits="userSpaceOnUse" x="30" y="35" width="29" height="26">
<path fill-rule="evenodd" clip-rule="evenodd" d="M30.8574 35.2466H58.1447V60.9882H30.8574V35.2466Z" fill="white"/>
</mask>
<g mask="url(#mask1)">
<path fill-rule="evenodd" clip-rule="evenodd" d="M44.0323 53.3633C45.0052 53.3633 45.795 54.1642 45.795 55.1548C45.795 56.1437 45.0052 56.9446 44.0323 56.9446C43.0594 56.9446 42.2714 56.1437 42.2714 55.1548C42.2714 54.1642 43.0594 53.3633 44.0323 53.3633ZM48.9185 37.4382C48.9185 37.4382 48.6941 40.6072 48.1448 42.1926C46.4485 47.0892 39.324 43.601 35.4987 45.3634C33.176 46.4343 32.8259 54.5857 34.1991 56.9865C35.9888 60.1227 44.5045 59.4932 47.1952 57.2511C47.5039 56.14 47.4717 54.1204 47.4573 52.5149H39.0152V51.7633H47.4537C47.4537 51.7523 51.6128 51.7396 51.6128 51.7396C57.5831 51.7396 58.118 37.4382 48.9185 37.4382Z" fill="white"/>
</g>
</svg>
