<svg width="118" height="26" viewBox="0 0 118 26" fill="none" xmlns="http://www.w3.org/2000/svg">
<path fill-rule="evenodd" clip-rule="evenodd" d="M1.98118 17.8449C0.764155 16.5127 0.112408 14.6891 0.0259402 12.3741C0.0075659 11.8782 0 11.0702 0 9.95019C0 8.81086 0.0075659 7.98359 0.0259402 7.46953C0.112408 5.15456 0.764155 3.33095 1.98118 1.9987C3.19713 0.667588 4.96971 0.00146484 7.29676 0.00146484C8.85318 0.00146484 10.175 0.290837 11.2602 0.869581C12.3443 1.44833 13.1625 2.20637 13.7137 3.14257C14.265 4.07991 14.5676 5.08079 14.6195 6.14637C14.6195 6.31204 14.5633 6.44595 14.4487 6.54581C14.3352 6.64794 14.2001 6.69787 14.0423 6.69787H12.7302C12.5551 6.69787 12.4146 6.65248 12.3097 6.55943C12.2049 6.46865 12.126 6.31204 12.073 6.0919C11.7758 4.67681 11.2375 3.685 10.4593 3.11533C9.68002 2.54567 8.6262 2.26084 7.29676 2.26084C4.25203 2.26084 2.66752 4.0436 2.54538 7.60684C2.52701 8.10388 2.51944 8.86646 2.51944 9.89458C2.51944 10.9238 2.52701 11.7046 2.54538 12.2368C2.66752 15.783 4.25203 17.5556 7.29676 17.5556C8.60891 17.5556 9.65948 17.2719 10.4463 16.7011C11.2343 16.1314 11.7758 15.1498 12.073 13.7529C12.126 13.5316 12.2049 13.3773 12.3097 13.2842C12.4146 13.1923 12.5551 13.1469 12.7302 13.1469H14.0423C14.2001 13.1469 14.3352 13.1968 14.4487 13.2978C14.5633 13.3988 14.6195 13.5316 14.6195 13.6973C14.5676 14.764 14.265 15.7649 13.7137 16.7011C13.1625 17.6384 12.3443 18.3964 11.2602 18.9752C10.175 19.5539 8.85318 19.8422 7.29676 19.8422C4.96971 19.8422 3.19713 19.1772 1.98118 17.8449Z" fill="#333333"/>
<path fill-rule="evenodd" clip-rule="evenodd" d="M24.6282 16.7139C25.296 15.9837 25.6568 14.9324 25.7107 13.5601C25.7283 13.3806 25.7371 13.0373 25.7371 12.5311C25.7371 12.0261 25.7283 11.6839 25.7107 11.5022C25.6568 10.131 25.296 9.07972 24.6282 8.34841C23.9604 7.61822 23.056 7.25256 21.9162 7.25256C20.7765 7.25256 19.8721 7.61822 19.2043 8.34841C18.5365 9.07972 18.1756 10.131 18.1228 11.5022L18.0964 12.5311L18.1228 13.5601C18.1756 14.9324 18.5365 15.9837 19.2043 16.7139C19.8721 17.4452 20.7765 17.8108 21.9162 17.8108C23.056 17.8108 23.9604 17.4452 24.6282 16.7139ZM17.388 18.1624C16.3286 17.0431 15.762 15.5538 15.6905 13.6943L15.6641 12.5304L15.6905 11.3666C15.762 9.50822 16.3363 8.01885 17.4144 6.89959C18.4915 5.78145 19.9932 5.2207 21.9163 5.2207C23.8394 5.2207 25.3412 5.78145 26.4183 6.89959C27.4953 8.01885 28.0707 9.50822 28.1411 11.3666C28.1774 11.7635 28.195 12.1514 28.195 12.5304C28.195 12.9106 28.1774 13.2985 28.1411 13.6943C28.0707 15.5538 27.5041 17.0431 26.4447 18.1624C25.3852 19.2817 23.8758 19.8402 21.9163 19.8402C19.9569 19.8402 18.4475 19.2817 17.388 18.1624Z" fill="#333333"/>
<path fill-rule="evenodd" clip-rule="evenodd" d="M39.3597 16.411C39.9837 15.5565 40.3233 14.5421 40.3773 13.3665C40.395 13.1645 40.4038 12.815 40.4038 12.3192C40.4038 11.8051 40.395 11.4465 40.3773 11.2446C40.3409 10.1235 39.9981 9.1544 39.3465 8.33626C38.6938 7.52039 37.7611 7.10962 36.5484 7.10962C35.2639 7.10962 34.3268 7.52379 33.737 8.34988C33.1483 9.17709 32.8274 10.2608 32.7734 11.602L32.7469 12.4009C32.7469 15.9287 34.0137 17.6932 36.5484 17.6932C37.7975 17.6932 38.7346 17.2654 39.3597 16.411ZM31.8223 17.9683C30.8863 16.7189 30.3813 15.1394 30.3097 13.2285L30.2832 12.4013L30.3097 11.5752C30.3813 9.68361 30.8896 8.10747 31.8366 6.84906C32.7826 5.59064 34.1838 4.96087 36.0393 4.96087C37.8959 4.96087 39.3413 5.64171 40.3777 7.00111V0.635289C40.3777 0.451463 40.435 0.29941 40.5519 0.180263C40.6676 0.0611171 40.8154 0.000976562 40.994 0.000976562H42.1979C42.3765 0.000976562 42.5242 0.0611171 42.64 0.180263C42.7557 0.29941 42.8142 0.451463 42.8142 0.635289V18.9328C42.8142 19.1166 42.7557 19.2686 42.64 19.3867C42.5242 19.5069 42.3765 19.5671 42.1979 19.5671H41.0469C40.8672 19.5671 40.7249 19.5069 40.618 19.3867C40.5111 19.2686 40.4581 19.1166 40.4581 18.9328V17.747C39.4405 19.1438 37.9676 19.8417 36.0393 19.8417C34.1662 19.8417 32.7605 19.2176 31.8223 17.9683Z" fill="#333333"/>
<path fill-rule="evenodd" clip-rule="evenodd" d="M45.3305 19.6612C45.2015 19.5415 45.1382 19.3888 45.1382 19.2042V6.08875C45.1382 5.90416 45.2015 5.75147 45.3305 5.63182C45.4583 5.51104 45.6214 5.45178 45.8185 5.45178H47.1184C47.3155 5.45178 47.4774 5.51104 47.6064 5.63182C47.7342 5.75147 47.7975 5.90416 47.7975 6.08875V19.2042C47.7975 19.3888 47.7342 19.5415 47.6064 19.6612C47.4774 19.7819 47.3155 19.8412 47.1184 19.8412H45.8185C45.6214 19.8412 45.4583 19.7819 45.3305 19.6612ZM45.0934 2.56026C44.9656 2.44061 44.9023 2.28792 44.9023 2.10333V0.665296C44.9023 0.4807 44.9656 0.323451 45.0934 0.194689C45.2212 0.0659272 45.3843 0.000976562 45.5815 0.000976562H47.3255C47.5227 0.000976562 47.6894 0.0659272 47.8282 0.194689C47.9657 0.323451 48.0351 0.4807 48.0351 0.665296V2.10333C48.0351 2.28792 47.9657 2.44061 47.8282 2.56026C47.6894 2.68104 47.5227 2.7403 47.3255 2.7403H45.5815C45.3843 2.7403 45.2212 2.68104 45.0934 2.56026Z" fill="#333333"/>
<path fill-rule="evenodd" clip-rule="evenodd" d="M50.3017 19.6627C50.1825 19.5434 50.124 19.3912 50.124 19.2072V6.1336C50.124 5.9496 50.1825 5.79739 50.3017 5.67813C50.4197 5.55773 50.5704 5.49867 50.7525 5.49867H51.9262C52.1263 5.49867 52.2803 5.55432 52.3905 5.6645C52.4996 5.77354 52.5547 5.93142 52.5547 6.1336V7.34669C53.0999 6.66632 53.7318 6.14269 54.4513 5.77354C55.1708 5.40666 56.0668 5.22266 57.1405 5.22266C58.8887 5.22266 60.2435 5.78831 61.2092 6.91847C62.1738 8.04978 62.655 9.54455 62.655 11.4017V19.2072C62.655 19.3912 62.5965 19.5434 62.4785 19.6627C62.3593 19.7831 62.2098 19.8421 62.0277 19.8421H60.7719C60.5897 19.8421 60.4391 19.7831 60.3222 19.6627C60.203 19.5434 60.1434 19.3912 60.1434 19.2072V11.5675C60.1434 10.2431 59.8252 9.21288 59.1889 8.47685C58.5515 7.7431 57.6408 7.37395 56.4581 7.37395C55.2934 7.37395 54.3647 7.74651 53.6733 8.49162C52.9819 9.23673 52.6356 10.2613 52.6356 11.5675V19.2072C52.6356 19.3912 52.576 19.5434 52.4591 19.6627C52.3399 19.7831 52.1893 19.8421 52.0083 19.8421H50.7525C50.5704 19.8421 50.4197 19.7831 50.3017 19.6627Z" fill="#333333"/>
<path fill-rule="evenodd" clip-rule="evenodd" d="M72.7628 16.1066C73.3967 15.3038 73.7396 14.3387 73.7936 13.2102C73.8112 13.0511 73.82 12.7428 73.82 12.2842C73.82 11.8431 73.8112 11.5435 73.7936 11.3845C73.7396 10.257 73.3967 9.29081 72.7628 8.48799C72.1288 7.68517 71.1873 7.2843 69.9382 7.2843C68.6526 7.2843 67.7199 7.68517 67.14 8.48799C66.5601 9.29081 66.2426 10.3257 66.1897 11.5958L66.1632 12.2842L66.1897 12.9977C66.2426 14.269 66.5601 15.3038 67.14 16.1066C67.7199 16.9095 68.6526 17.3103 69.9382 17.3103C71.1873 17.3103 72.1288 16.9095 72.7628 16.1066ZM66.4312 24.3196C65.5382 23.8261 64.9087 23.2619 64.5437 22.6268C64.1777 21.9928 63.9947 21.4449 63.9947 20.9874C63.9947 20.8284 64.0564 20.6922 64.181 20.5767C64.3067 20.4623 64.45 20.4057 64.6099 20.4057H65.7884C65.9483 20.4057 66.0828 20.4449 66.1898 20.5233C66.2967 20.6029 66.386 20.7488 66.4577 20.9612C66.9571 22.3708 68.0905 23.0778 69.8578 23.0778C71.1962 23.0778 72.1873 22.7946 72.8301 22.2303C73.4717 21.666 73.7937 20.6693 73.7937 19.2412V17.4155C72.7573 18.7205 71.312 19.373 69.4565 19.373C67.5635 19.373 66.1501 18.7739 65.2118 17.5746C64.2747 16.3752 63.7797 14.8589 63.7268 13.0245L63.6992 12.2838L63.7268 11.5692C63.7797 9.75333 64.2747 8.24136 65.2118 7.03223C66.1501 5.82418 67.5635 5.2207 69.4565 5.2207C71.3307 5.2207 72.7937 5.90043 73.8477 7.25663V6.12047C73.8477 5.94401 73.905 5.79368 74.0208 5.67059C74.1377 5.5475 74.2843 5.48541 74.4629 5.48541H75.6139C75.7925 5.48541 75.9402 5.5475 76.056 5.67059C76.1718 5.79368 76.2302 5.94401 76.2302 6.12047V18.9504C76.2302 23.0244 74.1509 25.0614 69.9912 25.0614C68.5094 25.0614 67.3231 24.813 66.4312 24.3196Z" fill="#333333"/>
<path fill-rule="evenodd" clip-rule="evenodd" d="M87.3233 15.9244C88.2242 15.9244 88.9269 15.669 89.4304 15.1582C89.9327 14.6485 90.1845 13.9995 90.1845 13.2122C90.1845 12.425 89.9285 11.7759 89.4175 11.2662C88.9066 10.7543 88.2081 10.5 87.3233 10.5H83.0311V15.9244H87.3233ZM87.0641 7.70705C87.9478 7.70705 88.6291 7.4837 89.1058 7.03701C89.5825 6.58921 89.8203 5.98883 89.8203 5.23697C89.8203 4.48622 89.5868 3.90463 89.1186 3.49111C88.6505 3.08091 87.965 2.87415 87.0641 2.87415H83.0311V7.70705H87.0641ZM79.5454 18.6095C79.4233 18.4845 79.3633 18.3319 79.3633 18.1528V0.673226C79.3633 0.476416 79.419 0.314988 79.5325 0.190047C79.645 0.0651057 79.796 0.000976562 79.9878 0.000976562H87.5321C89.5609 0.000976562 91.0777 0.463148 92.0846 1.38528C93.0894 2.30741 93.5928 3.56456 93.5928 5.15674C93.5928 6.08771 93.3711 6.87938 92.9298 7.53393C92.4874 8.18628 91.9711 8.6573 91.3819 8.94367C92.1103 9.28311 92.7252 9.83816 93.2276 10.6077C93.731 11.3784 93.9827 12.2552 93.9827 13.2392C93.9827 14.9033 93.4364 16.2466 92.3438 17.2672C91.2512 18.2877 89.7248 18.7974 87.7656 18.7974H79.9878C79.8142 18.7974 79.6664 18.7355 79.5454 18.6095Z" fill="#333333"/>
<path fill-rule="evenodd" clip-rule="evenodd" d="M103.127 16.2677C103.739 15.6188 104.045 14.6801 104.045 13.4526V12.9108L101.423 13.3445C99.4135 13.6689 98.4086 14.3635 98.4086 15.4282C98.4086 16.0068 98.6406 16.4528 99.1026 16.7683C99.5657 17.0849 100.122 17.2421 100.768 17.2421C101.729 17.2421 102.516 16.9177 103.127 16.2677ZM97.4259 19.2861C96.6822 18.9159 96.0972 18.4154 95.6686 17.7832C95.2401 17.1522 95.0264 16.4565 95.0264 15.6984C95.0264 14.4709 95.5067 13.4786 96.4685 12.7205C97.4292 11.9624 98.7493 11.4484 100.427 11.1775L104.018 10.6357V10.0671C104.018 9.29114 103.826 8.70471 103.442 8.30782C103.056 7.9098 102.445 7.71135 101.607 7.71135C101.03 7.71135 100.566 7.8195 100.217 8.0369C99.8676 8.25319 99.5837 8.47505 99.3656 8.70025C99.1465 8.92546 99.0029 9.07486 98.9328 9.14621C98.8626 9.3625 98.732 9.47064 98.5388 9.47064H96.4944C96.3379 9.47064 96.2019 9.41713 96.0885 9.30898C95.9741 9.20084 95.918 9.05702 95.918 8.87529C95.9352 8.42488 96.15 7.91426 96.5602 7.34567C96.9715 6.77708 97.604 6.28096 98.4611 5.8573C99.3171 5.43253 100.375 5.2207 101.632 5.2207C103.694 5.2207 105.198 5.69899 106.141 6.65556C107.086 7.61324 107.557 8.86749 107.557 10.4183V18.9204C107.557 19.101 107.499 19.2549 107.387 19.3808C107.272 19.5079 107.12 19.5704 106.928 19.5704H104.752C104.577 19.5704 104.428 19.5079 104.306 19.3808C104.184 19.2549 104.123 19.101 104.123 18.9204V17.8646C103.738 18.4421 103.196 18.9159 102.498 19.2861C101.798 19.6562 100.925 19.8402 99.8762 19.8402C98.9857 19.8402 98.1686 19.6562 97.4259 19.2861Z" fill="#333333"/>
<path fill-rule="evenodd" clip-rule="evenodd" d="M109.817 18.6151C109.703 18.4937 109.646 18.3453 109.646 18.1711V5.87519C109.646 5.68384 109.703 5.52796 109.817 5.40541C109.931 5.28393 110.07 5.22266 110.234 5.22266H112.242C112.422 5.22266 112.569 5.28393 112.683 5.40541C112.798 5.52796 112.856 5.68384 112.856 5.87519V6.94482C113.672 5.79671 114.849 5.22266 116.383 5.22266H117.412C117.592 5.22266 117.735 5.27963 117.841 5.39251C117.948 5.50538 118 5.65804 118 5.84939V7.75538C118 7.92953 117.948 8.07681 117.841 8.19936C117.735 8.32083 117.592 8.38211 117.412 8.38211H115.477C114.709 8.38211 114.105 8.61646 113.664 9.08624C113.223 9.55602 113.003 10.201 113.003 11.018V18.1711C113.003 18.3453 112.946 18.4937 112.831 18.6151C112.717 18.7377 112.577 18.7979 112.415 18.7979H110.234C110.07 18.7979 109.931 18.7377 109.817 18.6151Z" fill="#333333"/>
</svg>
