<svg width="101" height="75" viewBox="0 0 101 75" fill="none" xmlns="http://www.w3.org/2000/svg">
<path d="M58.7025 18.3914C60.0077 18.3914 61.0646 17.3423 61.0646 16.0484V8.34294C61.0646 7.04901 60.0077 6 58.7025 6C57.3986 6 56.3404 7.04901 56.3404 8.34294V16.0484C56.3404 17.3423 57.3986 18.3914 58.7025 18.3914ZM33.2975 18.3914C34.6014 18.3914 35.6596 17.3423 35.6596 16.0484V8.34294C35.6596 7.04901 34.6014 6 33.2975 6C31.9923 6 30.9354 7.04901 30.9354 8.34294V16.0484C30.9354 17.3423 31.9923 18.3914 33.2975 18.3914ZM72.3505 11.7262H63.8992V16.0484C63.8992 18.8906 61.5679 21.2029 58.7025 21.2029C55.8371 21.2029 53.5059 18.8906 53.5059 16.0484V11.7262H38.4941V16.0484C38.4941 18.8906 36.1629 21.2029 33.2975 21.2029C30.4321 21.2029 28.1008 18.8906 28.1008 16.0484V11.7262H19.6495C17.9097 11.7262 16.5 13.1244 16.5 14.8501V27.6582H75.5V14.8501C75.5 13.1244 74.0903 11.7262 72.3505 11.7262ZM16.5 60.8761C16.5 62.6017 17.9097 64 19.6495 64H72.3505C74.0903 64 75.5 62.6017 75.5 60.8761V30.1573H16.5V60.8761ZM60.1015 37.5766H68.1592V45.5689H60.1015V37.5766ZM60.1015 48.9789H68.1592V56.9712H60.1015V48.9789ZM48.0144 37.5766H56.0721V45.5689H48.0144V37.5766ZM48.0144 48.9789H56.0721V56.9712H48.0144V48.9789ZM35.9279 37.5766H43.9856V45.5689H35.9279V37.5766ZM35.9279 48.9789H43.9856V56.9712H35.9279V48.9789ZM23.8408 37.5766H31.8985V45.5689H23.8408V37.5766ZM23.8408 48.9789H31.8985V56.9712H23.8408V48.9789Z" fill="#58647B"/>
<path d="M72.3505 11H63.8992V15.612C63.8992 18.6447 61.5679 21.112 58.7025 21.112C55.8371 21.112 53.5059 18.6447 53.5059 15.612V11H38.4941V15.612C38.4941 18.6447 36.1629 21.112 33.2975 21.112C30.4321 21.112 28.1008 18.6447 28.1008 15.612V11H19.6495C17.9097 11 16.5 12.492 16.5 14.3333V28H75.5V14.3333C75.5 12.492 74.0903 11 72.3505 11Z" fill="#3E68FF"/>
<rect x="23.5" y="37" width="9" height="9" fill="#40C4FC"/>
<rect x="47.5" y="37" width="9" height="9" fill="#40C4FC"/>
<rect x="35.5" y="49" width="9" height="8" fill="#40C4FC"/>
<rect x="60.5" y="49" width="8" height="8" fill="#FCD740"/>
<ellipse cx="72.5" cy="57.5" rx="9" ry="8.5" fill="white"/>
<path d="M72.5 45C65.873 45 60.5 50.5969 60.5 57.5C60.5 64.4031 65.873 70 72.5 70C79.127 70 84.5 64.4031 84.5 57.5C84.5 50.5969 79.127 45 72.5 45ZM77 52.1781L79.109 54.375L71 62.8219L65.891 57.5L68 55.3031L71 58.4281L77 52.1781Z" fill="#08B663"/>
</svg>
