<svg width="100" height="75" viewBox="0 0 100 75" fill="none" xmlns="http://www.w3.org/2000/svg">
<path d="M58.2025 18.3914C59.5077 18.3914 60.5646 17.3423 60.5646 16.0484V8.34294C60.5646 7.04901 59.5077 6 58.2025 6C56.8986 6 55.8404 7.04901 55.8404 8.34294V16.0484C55.8404 17.3423 56.8986 18.3914 58.2025 18.3914ZM32.7975 18.3914C34.1014 18.3914 35.1596 17.3423 35.1596 16.0484V8.34294C35.1596 7.04901 34.1014 6 32.7975 6C31.4923 6 30.4354 7.04901 30.4354 8.34294V16.0484C30.4354 17.3423 31.4923 18.3914 32.7975 18.3914ZM71.8505 11.7262H63.3992V16.0484C63.3992 18.8906 61.0679 21.2029 58.2025 21.2029C55.3371 21.2029 53.0059 18.8906 53.0059 16.0484V11.7262H37.9941V16.0484C37.9941 18.8906 35.6629 21.2029 32.7975 21.2029C29.9321 21.2029 27.6008 18.8906 27.6008 16.0484V11.7262H19.1495C17.4097 11.7262 16 13.1244 16 14.8501V27.6582H75V14.8501C75 13.1244 73.5903 11.7262 71.8505 11.7262ZM16 60.8761C16 62.6017 17.4097 64 19.1495 64H71.8505C73.5903 64 75 62.6017 75 60.8761V30.1573H16V60.8761ZM59.6015 37.5766H67.6592V45.5689H59.6015V37.5766ZM59.6015 48.9789H67.6592V56.9712H59.6015V48.9789ZM47.5144 37.5766H55.5721V45.5689H47.5144V37.5766ZM47.5144 48.9789H55.5721V56.9712H47.5144V48.9789ZM35.4279 37.5766H43.4856V45.5689H35.4279V37.5766ZM35.4279 48.9789H43.4856V56.9712H35.4279V48.9789ZM23.3408 37.5766H31.3985V45.5689H23.3408V37.5766ZM23.3408 48.9789H31.3985V56.9712H23.3408V48.9789Z" fill="#58647B"/>
<path d="M71.8505 11H63.3992V15.612C63.3992 18.6447 61.0679 21.112 58.2025 21.112C55.3371 21.112 53.0059 18.6447 53.0059 15.612V11H37.9941V15.612C37.9941 18.6447 35.6629 21.112 32.7975 21.112C29.9321 21.112 27.6008 18.6447 27.6008 15.612V11H19.1495C17.4097 11 16 12.492 16 14.3333V28H75V14.3333C75 12.492 73.5903 11 71.8505 11Z" fill="#08B69A"/>
<path d="M71.8505 11H63.3992V15.612C63.3992 18.6447 61.0679 21.112 58.2025 21.112C55.3371 21.112 53.0059 18.6447 53.0059 15.612V11H37.9941V15.612C37.9941 18.6447 35.6629 21.112 32.7975 21.112C29.9321 21.112 27.6008 18.6447 27.6008 15.612V11H19.1495C17.4097 11 16 12.492 16 14.3333V28H75V14.3333C75 12.492 73.5903 11 71.8505 11Z" fill="black" fill-opacity="0.1"/>
<rect x="23" y="37" width="9" height="9" fill="#40FCC4"/>
<rect x="47" y="37" width="9" height="9" fill="#40FCC4"/>
<rect x="35" y="49" width="9" height="8" fill="#40FCC4"/>
<rect x="60" y="49" width="8" height="8" fill="#FCD740"/>
<ellipse cx="72" cy="57.5" rx="9" ry="8.5" fill="white"/>
<path d="M72 45C65.373 45 60 50.5969 60 57.5C60 64.4031 65.373 70 72 70C78.627 70 84 64.4031 84 57.5C84 50.5969 78.627 45 72 45ZM76.5 52.1781L78.609 54.375L70.5 62.8219L65.391 57.5L67.5 55.3031L70.5 58.4281L76.5 52.1781Z" fill="#F37C18"/>
</svg>
