<?xml version="1.0" encoding="utf-8"?>
<!-- Generator: Adobe Illustrator 14.0.0, SVG Export Plug-In . SVG Version: 6.00 Build 43363)  -->
<!DOCTYPE svg PUBLIC "-//W3C//DTD SVG 1.1//EN" "http://www.w3.org/Graphics/SVG/1.1/DTD/svg11.dtd">
<svg version="1.1" id="圖層_1" xmlns="http://www.w3.org/2000/svg" xmlns:xlink="http://www.w3.org/1999/xlink" x="0px" y="0px"
	 width="16.917px" height="12.542px" viewBox="1.042 -4.292 16.917 12.542" enable-background="new 1.042 -4.292 16.917 12.542"
	 xml:space="preserve">
<path fill="#4F5FFF" d="M3.564,1.354L7.91,5.7c0.529,0.53,0.529,1.389,0,1.919l0,0c-0.53,0.529-1.389,0.529-1.918,0L1.646,3.272
	c-0.53-0.529-0.53-1.388,0-1.918l0,0C2.175,0.825,3.034,0.825,3.564,1.354z"/>
<path fill="#4F5FFF" d="M17.305-1.776L7.91,7.619c-0.53,0.529-1.389,0.529-1.918,0l0,0c-0.53-0.529-0.53-1.389,0-1.918l9.395-9.396
	c0.529-0.53,1.389-0.53,1.918,0l0,0C17.835-3.165,17.835-2.306,17.305-1.776z"/>
</svg>
