<?xml version="1.0" encoding="utf-8"?>
<!-- Generator: Adobe Illustrator 23.0.1, SVG Export Plug-In . SVG Version: 6.00 Build 0)  -->
<svg version="1.1" id="圖層_1" xmlns="http://www.w3.org/2000/svg" xmlns:xlink="http://www.w3.org/1999/xlink" x="0px" y="0px"
	 viewBox="0 0 1060.6 450.8" style="enable-background:new 0 0 1060.6 450.8;" xml:space="preserve">
<style type="text/css">
	.st0{fill:#4F5FFF;}
	.st1{fill:#F37C18;}
	.st2{fill-rule:evenodd;clip-rule:evenodd;fill:#0086F4;}
	.st3{fill-rule:evenodd;clip-rule:evenodd;fill:#F1F1F1;}
	.st4{opacity:0.6114;}
	.st5{fill:#4A4A4A;}
	.st6{fill-rule:evenodd;clip-rule:evenodd;fill:#EAEAEA;}
	.st7{fill-rule:evenodd;clip-rule:evenodd;fill:#ADAEAE;}
	.st8{fill-rule:evenodd;clip-rule:evenodd;fill:#2A3958;}
	.st9{fill-rule:evenodd;clip-rule:evenodd;fill:#546179;}
	.st10{fill-rule:evenodd;clip-rule:evenodd;fill:#DCDCDC;}
	.st11{fill-rule:evenodd;clip-rule:evenodd;fill:#FFFFFF;}
	.st12{fill-rule:evenodd;clip-rule:evenodd;fill:#3B4EF2;}
	.st13{fill-rule:evenodd;clip-rule:evenodd;fill:#2BD8BC;}
	.st14{fill-rule:evenodd;clip-rule:evenodd;fill:#FCD740;}
	.st15{fill-rule:evenodd;clip-rule:evenodd;fill:#F37C18;}
	.st16{fill-rule:evenodd;clip-rule:evenodd;fill:#22A851;}
	.st17{fill:none;stroke:#202D45;stroke-linecap:round;stroke-linejoin:round;}
	.st18{fill-rule:evenodd;clip-rule:evenodd;fill:#F69C50;}
	.st19{fill:none;stroke:#2BD8BC;stroke-width:2;}
	.st20{fill-rule:evenodd;clip-rule:evenodd;fill:#2BD8BC;stroke:#2BD8BC;stroke-width:2;}
	.st21{fill:#2BD8BC;}
	.st22{fill:#FEDA17;}
</style>
<path class="st0" d="M146.2,221.8c0.5,0.5,1.4,0.5,2,0l4.1-3.8c0.5-0.5,0.5-1.4,0-1.9c-0.5-0.5-1.4-0.5-2,0l-4.1,3.8
	C145.6,220.4,145.6,221.3,146.2,221.8z"/>
<path class="st0" d="M146.2,225.2c-0.5,0.5-0.5,1.4,0,1.9l4.1,3.8c0.5,0.5,1.4,0.5,2,0c0.5-0.5,0.5-1.4,0-1.9l-4.1-3.8
	C147.7,224.7,146.8,224.7,146.2,225.2z"/>
<path class="st0" d="M142.6,225.2c-0.5-0.5-1.4-0.5-2,0l-4.1,3.8c-0.5,0.5-0.5,1.4,0,1.9c0.5,0.5,1.4,0.5,2,0l4.1-3.8
	C143.2,226.6,143.2,225.7,142.6,225.2z"/>
<path class="st0" d="M142.6,221.8c0.5-0.5,0.5-1.4,0-1.9l-4.1-3.8c-0.5-0.5-1.4-0.5-2,0c-0.5,0.5-0.5,1.4,0,1.9l4.1,3.8
	C141.1,222.4,142,222.4,142.6,221.8z"/>
<path class="st1" d="M7.7,138.9c0.4,0.4,1.1,0.4,1.5,0l3.1-2.9c0.4-0.4,0.4-1,0-1.4c-0.4-0.4-1.1-0.4-1.5,0l-3.1,2.9
	C7.3,137.8,7.3,138.5,7.7,138.9z"/>
<path class="st1" d="M7.7,141.5c-0.4,0.4-0.4,1,0,1.4l3.1,2.9c0.4,0.4,1.1,0.4,1.5,0c0.4-0.4,0.4-1,0-1.4l-3.1-2.9
	C8.9,141.1,8.2,141.1,7.7,141.5z"/>
<path class="st1" d="M5,141.5c-0.4-0.4-1.1-0.4-1.5,0l-3.1,2.9c-0.4,0.4-0.4,1,0,1.4c0.4,0.4,1.1,0.4,1.5,0l3.1-2.9
	C5.4,142.6,5.4,141.9,5,141.5z"/>
<path class="st1" d="M4.9,138.9c0.4-0.4,0.4-1,0-1.4l-3.1-2.9c-0.4-0.4-1.1-0.4-1.5,0s-0.4,1,0,1.4l3.1,2.9
	C3.8,139.3,4.5,139.3,4.9,138.9z"/>
<path class="st2" d="M498.4,18.5H518c5.9,0,10.7,4.5,10.7,10.1v13.1c0,4.4-3,8.2-7.2,9.6l-0.3,7l-9.6-6.5h-13.1
	c-5.9,0-10.7-4.5-10.7-10.1V28.6C487.7,23,492.5,18.5,498.4,18.5z"/>
<path class="st3" d="M473,4.6h22.4c6.8,0,12.3,5.1,12.3,11.3v14.6c0,6.2-5.5,11.3-12.3,11.3h-15l-11,7.2l-0.4-7.8
	c-4.8-1.5-8.3-5.7-8.3-10.7V15.9C460.7,9.7,466.2,4.6,473,4.6z"/>
<g class="st4">
	<path class="st5" d="M476.4,28.7c-0.3,0-0.6-0.1-0.9-0.3l-5.5-4.5c-0.5-0.4-0.5-1,0-1.4l5.5-4.5c0.5-0.4,1.3-0.4,1.8,0
		c0.5,0.4,0.5,1,0,1.4l-4.6,3.8l4.6,3.8c0.5,0.4,0.5,1,0,1.4C477.1,28.6,476.8,28.7,476.4,28.7z"/>
	<path class="st5" d="M491.9,28.7c-0.3,0-0.6-0.1-0.9-0.3c-0.5-0.4-0.5-1,0-1.4l4.6-3.8l-4.6-3.8c-0.5-0.4-0.5-1,0-1.4
		c0.5-0.4,1.3-0.4,1.8,0l5.5,4.5c0.5,0.4,0.5,1,0,1.4l-5.5,4.5C492.6,28.6,492.2,28.7,491.9,28.7z"/>
	<path class="st5" d="M481.6,27.8c-0.1,0-0.3,0-0.4-0.1c-0.5-0.2-0.6-0.8-0.4-1.2l4.1-7.5c0.2-0.4,0.8-0.6,1.3-0.4
		c0.5,0.2,0.6,0.8,0.4,1.2l-4.1,7.5C482.3,27.6,482,27.8,481.6,27.8z"/>
</g>
<path class="st6" d="M259.7,88v161.6c0,3.3,2.9,5.9,6.4,5.9h265.3c3.5,0,6.4-2.6,6.4-5.9V88c0-0.1,0-0.2,0-0.3c-0.2-4.3-4-7.8-8.7-8
	c-0.1,0-0.2,0-0.4,0H268.8c-0.1,0-0.2,0-0.4,0c-4.7,0.2-8.5,3.7-8.7,8C259.7,87.8,259.7,87.9,259.7,88z"/>
<path class="st7" d="M390.2,243.2c-2.6-3.3-1.8-8,1.8-10.3c3.6-2.4,8.6-1.6,11.2,1.7c2.6,3.3,1.8,7.9-1.8,10.3
	C397.8,247.3,392.8,246.5,390.2,243.2z"/>
<path class="st8" d="M537.7,88v135.1h-278V88c0-4.6,4.1-8.4,9.1-8.4h259.9C533.6,79.6,537.7,83.4,537.7,88z"/>
<path class="st9" d="M528.7,93.5v117.7c0,2.5-2.2,4.6-5,4.6H271.6c-2.7,0-5-2-5-4.6V93.5c0-2.5,2.2-4.6,5-4.6h252.1
	C526.5,88.9,528.7,90.9,528.7,93.5z"/>
<path class="st10" d="M368.7,297.2h56l-7.6-41.7h-40.8L368.7,297.2z"/>
<path class="st11" d="M266.7,108.3h262V93c0-2.3-2-4.1-4.5-4.1H271.1c-2.5,0-4.5,1.8-4.5,4.1V108.3z"/>
<path class="st12" d="M303.7,99.1c0-1.5,1.3-2.8,3-2.8s3,1.2,3,2.8c0,1.5-1.3,2.8-3,2.8S303.7,100.6,303.7,99.1z"/>
<path class="st13" d="M291.7,99.1c0-1.5,1.3-2.8,3-2.8c1.7,0,3,1.2,3,2.8c0,1.5-1.3,2.8-3,2.8C293,101.8,291.7,100.6,291.7,99.1z"/>
<path class="st14" d="M280.7,99.1c0-1.5,1.3-2.8,3-2.8s3,1.2,3,2.8c0,1.5-1.3,2.8-3,2.8S280.7,100.6,280.7,99.1z"/>
<path class="st2" d="M510.7,127.8h-14v-5.6h14V127.8z"/>
<path class="st15" d="M488.7,127.8h-26v-5.6h26V127.8z"/>
<path class="st11" d="M500.7,138h-54v-5.6h54V138z"/>
<path class="st13" d="M438.7,138h-14v-5.6h14V138z"/>
<path class="st11" d="M500.7,149.1h-54v-5.6h54V149.1z"/>
<path class="st13" d="M438.7,149.1h-14v-5.6h14V149.1z"/>
<path class="st11" d="M500.7,159.2h-54v-5.6h54V159.2z"/>
<path class="st13" d="M438.7,159.2h-14v-5.6h14V159.2z"/>
<path class="st2" d="M510.7,169.4h-14v-5.6h14V169.4z"/>
<path class="st14" d="M488.7,169.4h-26v-5.6h26V169.4z"/>
<path class="st13" d="M500.7,180.5h-27V175h27V180.5z"/>
<path class="st11" d="M465.7,180.5h-41V175h41V180.5z"/>
<path class="st13" d="M500.7,190.7h-27v-5.6h27V190.7z"/>
<path class="st11" d="M465.7,190.7h-41v-5.6h41V190.7z"/>
<path class="st13" d="M500.7,200.9h-27v-5.6h27V200.9z"/>
<path class="st11" d="M465.7,200.9h-41v-5.6h41V200.9z"/>
<path class="st15" d="M374.7,127.8h-14v-5.6h14V127.8z"/>
<path class="st16" d="M351.7,127.8h-26v-5.6h26V127.8z"/>
<path class="st11" d="M364.7,138h-13v-5.6h13V138z"/>
<path class="st13" d="M343.7,138h-57v-5.6h57V138z"/>
<path class="st11" d="M364.7,149.1h-13v-5.6h13V149.1z"/>
<path class="st2" d="M343.7,149.1h-57v-5.6h57V149.1z"/>
<path class="st11" d="M364.7,159.2h-13v-5.6h13V159.2z"/>
<path class="st13" d="M343.7,159.2h-57v-5.6h57V159.2z"/>
<path class="st14" d="M374.7,169.4h-14v-5.6h14V169.4z"/>
<path class="st16" d="M351.7,169.4h-26v-5.6h26V169.4z"/>
<path class="st13" d="M364.7,180.5h-45V175h45V180.5z"/>
<path class="st11" d="M311.7,180.5h-24V175h24V180.5z"/>
<path class="st16" d="M364.7,190.7h-45v-5.6h45V190.7z"/>
<path class="st11" d="M311.7,190.7h-24v-5.6h24V190.7z"/>
<path class="st13" d="M364.7,200.9h-45v-5.6h45V200.9z"/>
<path class="st11" d="M311.7,200.9h-24v-5.6h24V200.9z"/>
<path class="st17" d="M398.7,119.4v88.9"/>
<path class="st11" d="M283.7,53.7c-2.3,0-4.2-1.8-4-3.9c0,0,0-0.1,0-0.1c0.3-2.7,3-5.2,6.1-5.4c0.7,0,1.5,0,2.1,0.2
	c0.2-9.8,9-17.7,19.8-17.7c9.5,0,17.5,6.1,19.4,14.2c1-0.3,2-0.4,3.1-0.4c5.2,0.1,9.5,4,9.5,8.7c0,0.4,0,0.8-0.1,1.2
	c-0.3,1.8-2,3.2-4,3.2H283.7z"/>
<path class="st11" d="M133.6,200.1c0.3,0.3,0.9,0.3,1.2,0l2.5-2.4c0.3-0.3,0.3-0.8,0-1.2c-0.3-0.3-0.9-0.3-1.2,0l-2.5,2.4
	C133.3,199.2,133.3,199.8,133.6,200.1z"/>
<path class="st11" d="M133.7,202.2c-0.3,0.3-0.3,0.8,0,1.2l2.5,2.4c0.3,0.3,0.9,0.3,1.2,0c0.3-0.3,0.3-0.8,0-1.2l-2.5-2.4
	C134.6,201.9,134,201.9,133.7,202.2z"/>
<path class="st11" d="M131.4,202.2c-0.3-0.3-0.9-0.3-1.2,0l-2.5,2.4c-0.3,0.3-0.3,0.8,0,1.2c0.3,0.3,0.9,0.3,1.2,0l2.5-2.4
	C131.8,203.1,131.8,202.5,131.4,202.2z"/>
<path class="st11" d="M131.4,200.1c0.3-0.3,0.3-0.8,0-1.2l-2.5-2.4c-0.3-0.3-0.9-0.3-1.2,0c-0.3,0.3-0.3,0.8,0,1.2l2.5,2.4
	C130.5,200.4,131,200.4,131.4,200.1z"/>
<path class="st15" d="M302.6,60.1l-0.1-12.8l13.2-0.1l0.1,12.8l7.9,0l-7.2,8l-7.2,8L302,68l-7.3-7.9L302.6,60.1z"/>
<path class="st14" d="M570.7,219.4c5,0,9-3.7,9-8.3c0-4.6-4-8.3-9-8.3s-9,3.7-9,8.3C561.7,215.7,565.7,219.4,570.7,219.4z
	 M556.7,213.7v-5.3l3.5-0.5c0.2-0.5,0.4-1,0.7-1.5l-2-2.6l4-3.7l2.9,1.9c0.5-0.2,1-0.4,1.6-0.6l0.6-3.2h2.8h2.8l0.6,3.2
	c0.5,0.2,1.1,0.4,1.6,0.6l2.9-1.9l4,3.7l-2,2.6c0.3,0.5,0.5,1,0.7,1.5l3.5,0.5v5.3l-3.5,0.5c-0.2,0.5-0.4,1-0.7,1.5l2,2.6l-4,3.7
	l-2.9-1.9c-0.5,0.2-1,0.4-1.6,0.6l-0.6,3.2h-2.8h-2.8l-0.6-3.2c-0.5-0.2-1.1-0.4-1.6-0.6l-2.9,1.9l-4-3.7l2-2.6
	c-0.3-0.5-0.5-1-0.7-1.5L556.7,213.7z"/>
<path class="st18" d="M586,236l-4.8,4.6c-1.3,1.2-1.3,3.2,0,4.4c1.3,1.2,3.4,1.2,4.6,0l4.9-4.7c1.8,3.5,1.2,7.8-1.8,10.7
	c-2.8,2.6-6.7,3.3-10.2,2.2l-12.8,12.2c-1.6,1.5-4.2,1.7-5.9,0.2c-1.7-1.5-1.7-4.1-0.1-5.7l12.9-12.3c-1.2-3.3-0.5-7.1,2.3-9.7
	C578,235.1,582.4,234.4,586,236z"/>
<path class="st8" d="M280.5,305.5h-6.9l19.1-98.1h6.9L280.5,305.5z"/>
<path class="st8" d="M309.5,305.5h-6.9l19.1-98.1h6.9L309.5,305.5z"/>
<path class="st8" d="M276.7,291.6l1.2-6.5h35.8l-1.2,6.5H276.7z"/>
<path class="st8" d="M280.7,270.4l1.2-6.5h35.8l-1.2,6.5H280.7z"/>
<path class="st8" d="M285.7,249.1l1.1-6.5h31.9l-1.1,6.5H285.7z"/>
<path class="st8" d="M289.7,227.8l1.1-6.5h31.9l-1.1,6.5H289.7z"/>
<path class="st14" d="M206.9,232.4h18.5c5.1,0,9.2,3.7,9.2,8.3v16.7c0,4.6-4.1,8.3-9.2,8.3h-18.5c-5.1,0-9.2-3.7-9.2-8.3v-16.7
	C197.7,236.1,201.8,232.4,206.9,232.4z"/>
<path class="st15" d="M217.2,250.9h-2.5l0.5-2.8h2.5L217.2,250.9z M223.3,247.7c0.8,0,1.4-0.6,1.4-1.3v0c0-0.7-0.6-1.3-1.4-1.3h-1.4
	l0.4-1.8c0.2-0.8-0.5-1.6-1.4-1.6c-0.7,0-1.3,0.5-1.4,1.1l-0.4,2.3H216l0.4-1.8c0.2-0.8-0.5-1.6-1.4-1.6c-0.7,0-1.3,0.5-1.4,1.1
	l-0.4,2.3h-3c-0.8,0-1.4,0.6-1.4,1.3v0c0,0.7,0.6,1.3,1.4,1.3h2.5l-0.5,2.7h-1.9c-0.8,0-1.4,0.6-1.4,1.3v0c0,0.7,0.6,1.3,1.4,1.3
	h1.4l-0.4,1.8c-0.2,0.8,0.5,1.6,1.4,1.6c0.7,0,1.3-0.5,1.4-1.1l0.4-2.3h2.9l-0.4,1.8c-0.2,0.8,0.5,1.6,1.4,1.6
	c0.7,0,1.3-0.5,1.4-1.1l0.4-2.3h3c0.8,0,1.4-0.6,1.4-1.3v0c0-0.7-0.6-1.3-1.4-1.3h-2.5l0.5-2.7H223.3z"/>
<path class="st19" d="M437.7,35.2h-19.7c-4.6,0-8.3,3.4-8.3,7.7v52.5"/>
<path class="st20" d="M437.7,35.2c0-2,1.8-3.7,4-3.7c2.2,0,4,1.7,4,3.7s-1.8,3.7-4,3.7C439.5,38.9,437.7,37.2,437.7,35.2z"/>
<path class="st20" d="M405.7,99.1c0-2,1.8-3.7,4-3.7c2.2,0,4,1.7,4,3.7c0,2-1.8,3.7-4,3.7C407.5,102.8,405.7,101.1,405.7,99.1z"/>
<path class="st21" d="M611.3,415.1c0.5,0.4,1.2,0.4,1.6,0l3.3-3.1c0.5-0.4,0.5-1.1,0-1.5c-0.5-0.4-1.2-0.4-1.6,0l-3.3,3.1
	C610.9,414,610.9,414.7,611.3,415.1z"/>
<path class="st21" d="M611.4,417.9c-0.5,0.4-0.5,1.1,0,1.5l3.3,3.1c0.5,0.4,1.2,0.4,1.6,0c0.5-0.4,0.5-1.1,0-1.5l-3.3-3.1
	C612.6,417.5,611.8,417.5,611.4,417.9z"/>
<path class="st21" d="M608.4,418c-0.5-0.4-1.2-0.4-1.6,0l-3.3,3.1c-0.5,0.4-0.5,1.1,0,1.5c0.5,0.4,1.2,0.4,1.6,0l3.3-3.1
	C608.8,419.1,608.8,418.4,608.4,418z"/>
<path class="st21" d="M608.3,415.2c0.5-0.4,0.5-1.1,0-1.5l-3.3-3.1c-0.5-0.4-1.2-0.4-1.6,0c-0.5,0.4-0.5,1.1,0,1.5l3.3,3.1
	C607.2,415.6,607.9,415.6,608.3,415.2z"/>
<path class="st11" d="M223.6,72.3c0.3,0.3,0.9,0.3,1.2,0l2.5-2.4c0.3-0.3,0.3-0.8,0-1.2c-0.3-0.3-0.9-0.3-1.2,0l-2.5,2.4
	C223.3,71.5,223.3,72,223.6,72.3z"/>
<path class="st11" d="M223.7,74.4c-0.3,0.3-0.3,0.8,0,1.2l2.5,2.4c0.3,0.3,0.9,0.3,1.2,0c0.3-0.3,0.3-0.8,0-1.2l-2.5-2.4
	C224.6,74.1,224,74.1,223.7,74.4z"/>
<path class="st11" d="M221.4,74.4c-0.3-0.3-0.9-0.3-1.2,0l-2.5,2.4c-0.3,0.3-0.3,0.8,0,1.2c0.3,0.3,0.9,0.3,1.2,0l2.5-2.4
	C221.8,75.3,221.8,74.8,221.4,74.4z"/>
<path class="st11" d="M221.4,72.3c0.3-0.3,0.3-0.8,0-1.2l-2.5-2.4c-0.3-0.3-0.9-0.3-1.2,0c-0.3,0.3-0.3,0.8,0,1.2l2.5,2.4
	C220.5,72.7,221,72.7,221.4,72.3z"/>
<path class="st0" d="M1057.5,15.8L768.3,203.4c-0.9,0.6-1.1,1.7-0.4,2.6l0,0c0.6,0.8,1.9,1.1,2.7,0.5l289.2-187.5
	c0.9-0.6,1.1-1.7,0.4-2.6l0,0C1059.6,15.5,1058.4,15.3,1057.5,15.8z"/>
<path class="st1" d="M698.8,160.3c-0.5,0.5-1.4,0.5-1.9,0l-3.8-3.6c-0.5-0.5-0.5-1.3,0-1.8c0.5-0.5,1.4-0.5,1.9,0l3.8,3.6
	C699.3,159,699.3,159.8,698.8,160.3z"/>
<path class="st1" d="M698.8,163.5c0.5,0.5,0.5,1.3,0,1.8l-3.8,3.6c-0.5,0.5-1.4,0.5-1.9,0c-0.5-0.5-0.5-1.3,0-1.8l3.8-3.6
	C697.4,163,698.2,163,698.8,163.5z"/>
<path class="st1" d="M702.2,163.6c0.5-0.5,1.4-0.5,1.9,0l3.8,3.6c0.5,0.5,0.5,1.3,0,1.8c-0.5,0.5-1.4,0.5-1.9,0l-3.8-3.6
	C701.6,164.8,701.6,164,702.2,163.6z"/>
<path class="st1" d="M702.2,160.4c-0.5-0.5-0.5-1.3,0-1.8l3.8-3.6c0.5-0.5,1.4-0.5,1.9,0s0.5,1.3,0,1.8l-3.8,3.6
	C703.6,160.9,702.7,160.9,702.2,160.4z"/>
<path class="st21" d="M564.5,3.6c-0.3,0.3-0.9,0.3-1.2,0L561,1.3c-0.3-0.3-0.3-0.8,0-1.1c0.3-0.3,0.8-0.3,1.2,0l2.4,2.2
	C564.8,2.8,564.8,3.3,564.5,3.6z"/>
<path class="st21" d="M564.5,5.6c0.3,0.3,0.3,0.8,0,1.1l-2.4,2.2c-0.3,0.3-0.9,0.3-1.2,0c-0.3-0.3-0.3-0.8,0-1.1l2.4-2.2
	C563.6,5.3,564.2,5.3,564.5,5.6z"/>
<path class="st21" d="M566.6,5.6c0.3-0.3,0.9-0.3,1.2,0l2.4,2.2c0.3,0.3,0.3,0.8,0,1.1c-0.3,0.3-0.8,0.3-1.2,0l-2.4-2.2
	C566.3,6.4,566.3,5.9,566.6,5.6z"/>
<path class="st21" d="M566.6,3.6c-0.3-0.3-0.3-0.8,0-1.1l2.4-2.2c0.3-0.3,0.9-0.3,1.2,0c0.3,0.3,0.3,0.8,0,1.1l-2.4,2.2
	C567.5,3.9,567,3.9,566.6,3.6z"/>
<path class="st22" d="M88.2,433.9c-1,0.4-2.2,0-2.6-0.9l-3.4-6.8c-0.5-0.9,0-2,1-2.5c1-0.4,2.2,0,2.6,0.9l3.4,6.8
	C89.7,432.4,89.2,433.5,88.2,433.9z"/>
<path class="st22" d="M86.5,438.3c0.5,0.9,0,2-1,2.5l-7.3,3.2c-1,0.4-2.2,0-2.6-0.9c-0.5-0.9,0-2,1-2.5l7.3-3.2
	C84.9,437,86,437.4,86.5,438.3z"/>
<path class="st22" d="M91,440.5c1-0.4,2.2,0,2.6,0.9l3.4,6.8c0.5,0.9,0,2-1,2.5c-1,0.4-2.2,0-2.6-0.9l-3.4-6.8
	C89.5,442,90,440.9,91,440.5z"/>
<path class="st22" d="M92.9,435.5c-0.5-0.9,0-2,1-2.5l7.3-3.2c1-0.4,2.2,0,2.6,0.9c0.5,0.9,0,2-1,2.5l-7.3,3.2
	C94.5,436.8,93.4,436.4,92.9,435.5z"/>
</svg>
